<?xml version="1.0" standalone="no"?>
<!DOCTYPE svg PUBLIC "-//W3C//DTD SVG 1.1//EN" "http://www.w3.org/Graphics/SVG/1.1/DTD/svg11.dtd" >
<svg>
<metadata>
Created by FontForge 20120731 at Tue Nov  1 00:00:18 2016
 By ,,,
</metadata>
<defs>
<font id="KlinicSlab-BookItalic" horiz-adv-x="673" >
  <font-face 
    font-family="Klinic Slab Book"
    font-weight="400"
    font-style="italic"
    font-stretch="normal"
    units-per-em="1000"
    panose-1="0 0 0 0 0 0 0 0 0 0"
    ascent="750"
    descent="-250"
    x-height="424"
    cap-height="609"
    bbox="-117 -271 1074 942"
    underline-thickness="50"
    underline-position="-50"
    unicode-range="U+000D-FB06"
  />
<missing-glyph horiz-adv-x="425" 
d="M0 0l107 609h425l-107 -609h-425zM66 42h306l-113 226zM465 567h-306l113 -227zM475 520l-184 -216l108 -216zM58 88l184 216l-108 216z" />
    <glyph glyph-name="f_f" unicode="ff" horiz-adv-x="572" 
d="M-46 -210q-31 0 -63 8l8 46q19 -6 49 -6q71 0 84 75l81 462h-86l8 49h87l25 139q26 145 186 145q58 0 150 -30q43 40 119 40q38 0 70 -8l-8 -45q-27 5 -56 5q-96 0 -112 -88l-28 -158h122l-8 -49h-122l-80 -449q-21 -124 -136 -124q-31 0 -63 8l8 46q19 -6 49 -6
q71 0 84 76l79 449h-229l-82 -461q-21 -124 -136 -124zM336 660q-114 0 -132 -101l-24 -135h230l28 160q4 27 17 53q-69 23 -119 23z" />
    <glyph glyph-name="fi" unicode="fi" horiz-adv-x="531" 
d="M-46 -210q-31 0 -63 8l8 46q19 -6 49 -6q71 0 84 75l81 462h-86l8 49h87l27 151q26 143 190 143q68 0 143 -22l-13 -44q-68 18 -127 18q-119 0 -137 -99l-25 -147h283l-60 -339q-1 -8 -1 -14q0 -33 34 -33q24 0 59 15l-8 -49q-38 -14 -75 -14t-52.5 23.5t-15.5 43t2 33.5
l51 285h-225l-82 -461q-21 -124 -136 -124z" />
    <glyph glyph-name="fl" unicode="fl" horiz-adv-x="533" 
d="M487 4q-38 -14 -75 -14t-52.5 23.5t-15.5 43t2 33.5l100 567q-65 13 -104 13q-118 0 -136 -99l-26 -147h122l-8 -49h-122l-82 -461q-21 -124 -136 -124q-31 0 -63 8l8 46q19 -6 49 -6q71 0 84 75l81 462h-86l8 49h87l27 151q26 143 190 143q49 0 100 -11h74l-110 -622
q-1 -8 -1 -14q0 -33 34 -33q24 0 59 15z" />
    <glyph glyph-name="f_f_i" unicode="ffi" horiz-adv-x="819" 
d="M-46 -210q-31 0 -63 8l8 46q19 -6 49 -6q71 0 84 75l81 462h-86l8 49h87l25 139q26 145 186 145q60 0 156 -32q46 42 138 42q68 0 143 -22l-13 -44q-68 18 -127 18q-119 0 -137 -99l-25 -147h282l-59 -339q-1 -8 -1 -14q0 -33 34 -33q24 0 59 15l-8 -49q-38 -14 -75 -14
t-56 28q-13 18 -13 38t3 34l50 285h-224l-80 -449q-21 -124 -136 -124q-31 0 -63 8l8 46q19 -6 49 -6q71 0 84 76l79 449h-229l-82 -461q-21 -124 -136 -124zM336 660q-114 0 -132 -101l-24 -135h230l27 151q5 33 20 62q-69 23 -121 23z" />
    <glyph glyph-name="f_f_l" unicode="ffl" horiz-adv-x="820" 
d="M-46 -210q-31 0 -63 8l8 46q19 -6 49 -6q71 0 84 75l81 462h-86l8 49h87l25 139q26 145 186 145q60 0 156 -32q46 42 138 42q49 0 100 -11h74l-110 -622q-1 -8 -1 -14q0 -33 34 -33q24 0 59 15l-8 -49q-38 -14 -75 -14t-52.5 23.5t-15.5 43t2 33.5l99 567q-63 13 -103 13
q-120 0 -136 -99l-26 -147h122l-8 -49h-122l-80 -449q-21 -124 -136 -124q-31 0 -63 8l8 46q19 -6 49 -6q71 0 84 76l79 449h-229l-82 -461q-21 -124 -136 -124zM336 660q-114 0 -132 -101l-24 -135h230l27 151q5 33 20 62q-69 23 -121 23z" />
    <glyph glyph-name="f_t" unicode="ft" horiz-adv-x="596" 
d="M-46 -210q-31 0 -63 8l8 46q19 -6 49 -6q71 0 84 75l81 462h-86l8 49h87l28 160q25 134 164 134q38 0 70 -8l-8 -45q-27 5 -56 5q-96 0 -112 -88l-28 -158h225l19 110h59l-20 -110h133l-8 -47h-133l-46 -265q-2 -12 -2 -22q0 -54 60 -54q31 0 88 23l-9 -49
q-51 -21 -96.5 -21t-73.5 24t-28 66q0 16 3 34l45 264h-224l-82 -463q-21 -124 -136 -124z" />
    <glyph glyph-name="f_f_b" unicode="ffb" horiz-adv-x="1102" 
d="M-46 -210q-31 0 -63 8l8 46q19 -6 49 -6q71 0 84 75l81 462h-86l8 49h87l25 139q26 145 186 145q60 0 156 -32q46 42 138 42q49 0 100 -11h74l-62 -350q63 78 152 78q73 0 119.5 -51t46.5 -151.5t-65.5 -172t-156.5 -71.5q-108 0 -146 99l-15 -88h-56l115 657
q-63 13 -103 13q-120 0 -136 -99l-26 -147h122l-8 -49h-122l-80 -449q-21 -124 -136 -124q-31 0 -63 8l8 46q19 -6 49 -6q71 0 84 76l79 449h-229l-82 -461q-21 -124 -136 -124zM738.5 75.5q31.5 -39.5 96.5 -39.5t114 58.5t49 136.5t-32.5 117t-87.5 39q-72 0 -121.5 -62
t-49.5 -136t31.5 -113.5zM336 660q-114 0 -132 -101l-24 -135h230l27 151q5 33 20 62q-69 23 -121 23z" />
    <glyph glyph-name="f_f_h" unicode="ffh" horiz-adv-x="1106" 
d="M244 -198q-31 0 -63 8l8 46q19 -6 49 -6q71 0 84 76l79 449h-229l-82 -461q-21 -124 -136 -124q-31 0 -63 8l8 46q19 -6 49 -6q71 0 84 75l81 462h-86l8 49h87l25 139q26 145 186 145q60 0 156 -32q46 42 138 42q49 0 100 -11h74l-63 -356q102 84 180 84q56 0 84 -39
q19 -27 19 -68q0 -18 -4 -38l-35 -205q-2 -8 -2 -15q0 -32 35 -32q24 0 59 15l-9 -49q-38 -14 -75 -14t-55 28q-12 19 -12 38.5t2 33.5l35 197q3 17 3 32q0 66 -61 66q-67 0 -174 -91l-52 -294h-58l115 657q-63 13 -103 13q-120 0 -136 -99l-26 -147h122l-8 -49h-122
l-80 -449q-21 -124 -136 -124zM336 660q-114 0 -132 -101l-24 -135h230l27 151q5 33 20 62q-69 23 -121 23z" />
    <glyph glyph-name="f_f_j" unicode="ffj" horiz-adv-x="791" 
d="M-46 -210q-31 0 -63 8l8 46q19 -6 49 -6q71 0 84 75l81 462h-86l8 49h87l25 139q26 145 186 145q60 0 156 -32q46 42 138 42q68 0 143 -22l-13 -44q-68 18 -127 18q-119 0 -137 -99l-25 -147h282l-85 -486q-21 -124 -133 -124q-26 0 -52 7l8 46q22 -5 38 -5q68 0 81 76
l76 437h-223l-80 -449q-21 -124 -136 -124q-31 0 -63 8l8 46q19 -6 49 -6q71 0 84 76l79 449h-229l-82 -461q-21 -124 -136 -124zM336 660q-114 0 -132 -101l-24 -135h230l27 151q5 33 20 62q-69 23 -121 23z" />
    <glyph glyph-name="f_f_k" unicode="ffk" horiz-adv-x="1069" 
d="M-46 -210q-31 0 -63 8l8 46q19 -6 49 -6q71 0 84 75l81 462h-86l8 49h87l25 139q26 145 186 145q60 0 156 -32q46 42 138 42q49 0 100 -11h74l-63 -351q84 79 167 79q49 0 77 -26.5t28 -69.5q0 -60 -52.5 -99t-123.5 -55l61 -98q30 -50 67 -50q19 0 59 20l-9 -51
q-29 -17 -60 -17q-63 0 -106 72l-77 127l5 26q86 7 146 60q33 29 33 56q0 57 -59 57q-71 0 -165 -87l-53 -300h-58l115 657q-63 13 -103 13q-120 0 -136 -99l-26 -147h122l-8 -49h-122l-80 -449q-21 -124 -136 -124q-31 0 -63 8l8 46q19 -6 49 -6q71 0 84 76l79 449h-229
l-82 -461q-21 -124 -136 -124zM336 660q-114 0 -132 -101l-24 -135h230l27 151q5 33 20 62q-69 23 -121 23z" />
    <glyph glyph-name="f_f_t" unicode="fft" horiz-adv-x="884" 
d="M244 -198q-31 0 -63 8l8 46q19 -6 49 -6q71 0 84 76l79 449h-229l-82 -461q-21 -124 -136 -124q-31 0 -63 8l8 46q19 -6 49 -6q71 0 84 75l81 462h-86l8 49h87l25 139q26 145 186 145q58 0 150 -30q43 40 119 40q38 0 70 -8l-8 -45q-27 5 -56 5q-96 0 -112 -88l-28 -158
h224l20 110h59l-20 -110h133l-8 -47h-133l-46 -265q-2 -12 -2 -23q0 -53 60 -53q31 0 88 23l-9 -49q-51 -21 -96.5 -21t-74 24.5t-28.5 67.5q0 15 3 32l46 264h-224l-80 -451q-21 -124 -136 -124zM336 660q-114 0 -132 -101l-24 -135h230l28 160q4 27 17 53q-69 23 -119 23z
" />
    <glyph glyph-name="f_b" unicode="fb" horiz-adv-x="814" 
d="M547 -11q-108 0 -146 99l-15 -88h-56l116 657q-65 13 -104 13q-118 0 -136 -99l-26 -147h122l-8 -49h-122l-82 -461q-21 -124 -136 -124q-31 0 -63 8l8 46q19 -6 49 -6q71 0 84 75l81 462h-86l8 49h87l27 151q26 143 190 143q49 0 100 -11h74l-62 -350q64 78 153 78
q73 0 119 -51t46 -151.5t-65.5 -172t-156.5 -71.5zM540 36q72 0 121 58.5t49 136.5t-32.5 117t-87.5 39q-72 0 -121.5 -62t-49.5 -136t32 -113.5t89 -39.5z" />
    <glyph glyph-name="f_h" unicode="fh" horiz-adv-x="818" 
d="M342 670q-118 0 -136 -99l-26 -147h122l-8 -49h-122l-82 -461q-21 -124 -136 -124q-31 0 -63 8l8 46q19 -6 49 -6q71 0 84 75l81 462h-86l8 49h87l27 151q26 143 190 143q49 0 100 -11h74l-62 -356q99 84 179 84q56 0 84 -39q19 -27 19 -68q0 -18 -4 -38l-35 -205
q-1 -8 -1 -14q0 -33 34 -33q24 0 59 15l-8 -49q-38 -14 -75.5 -14t-55.5 28q-12 19 -12 38.5t2 33.5l35 197q3 19 3 34q0 64 -64 64t-171 -91l-52 -294h-58l116 657q-65 13 -104 13z" />
    <glyph glyph-name="f_j" unicode="fj" horiz-adv-x="503" 
d="M-46 -210q-31 0 -63 8l8 46q19 -6 49 -6q71 0 84 75l81 462h-86l8 49h87l27 151q26 143 190 143q68 0 143 -22l-13 -44q-68 18 -127 18q-119 0 -137 -99l-25 -147h283l-88 -498q-21 -124 -133 -124q-26 0 -52 7l8 46q22 -5 38 -5q68 0 81 76l79 449h-224l-82 -461
q-21 -124 -136 -124z" />
    <glyph glyph-name="f_k" unicode="fk" horiz-adv-x="781" 
d="M342 670q-118 0 -136 -99l-26 -147h122l-8 -49h-122l-82 -461q-21 -124 -136 -124q-31 0 -63 8l8 46q19 -6 49 -6q71 0 84 75l81 462h-86l8 49h87l27 151q26 143 190 143q49 0 100 -11h74l-63 -351q84 79 167 79q49 0 77 -26.5t28 -69.5q0 -60 -52.5 -99t-123.5 -55
l61 -98q10 -16 17 -25q19 -25 44 -25t65 20l-9 -51q-29 -17 -60 -17q-63 0 -106 72l-77 127l5 26q86 7 146 60q33 29 33 56q0 57 -59 57q-71 0 -165 -87l-53 -300h-58l115 657q-63 13 -103 13z" />
    <glyph glyph-name="t_t" unicode="tt" horiz-adv-x="602" 
d="M552 10q-51 -21 -96.5 -21t-73.5 24t-28 66q0 16 3 34l45 264h-237l-46 -265q-2 -12 -2 -23q0 -53 60 -53q31 0 88 23l-9 -49q-51 -21 -96.5 -21t-73.5 24t-28 66q0 16 3 34l45 264h-72l9 47h72l19 110h59l-20 -110h238l19 110h59l-20 -110h133l-8 -47h-133l-46 -265
q-2 -12 -2 -22q0 -54 60 -54q31 0 88 23z" />
    <glyph glyph-name=".notdef" horiz-adv-x="425" 
d="M0 0l107 609h425l-107 -609h-425zM66 42h306l-113 226zM465 567h-306l113 -227zM475 520l-184 -216l108 -216zM58 88l184 216l-108 216z" />
    <glyph glyph-name=".null" horiz-adv-x="0" 
 />
    <glyph glyph-name=".null" horiz-adv-x="0" 
 />
    <glyph glyph-name="nonmarkingreturn" unicode="&#xd;" horiz-adv-x="333" 
 />
    <glyph glyph-name="exclam" unicode="!" horiz-adv-x="237" 
d="M80 158l68 451h65l-91 -451h-42zM81 -9q-19 0 -32.5 14t-13.5 33t13.5 33t32.5 14t33 -14t14 -33t-14 -33t-33 -14z" />
    <glyph glyph-name="quotedbl" unicode="&#x22;" horiz-adv-x="323" 
d="M90 415l36 207h55l-37 -207h-54zM234 415l36 207h55l-36 -207h-55z" />
    <glyph glyph-name="numbersign" unicode="#" horiz-adv-x="552" 
d="M79 12l38 122h-99l8 40h105l53 167h-100l7 41h106l39 122h46l-39 -122h144l40 122h46l-39 -122h100l-7 -41h-107l-53 -167h103l-8 -40h-109l-38 -122h-46l39 122h-144l-39 -122h-46zM177 174h144l53 167h-144z" />
    <glyph glyph-name="dollar" unicode="$" horiz-adv-x="443" 
d="M8 87q0 15 11 27t29 12t28.5 -10t10.5 -24.5t-11 -25.5q46 -25 98 -30l31 186q-60 24 -87 43q-47 34 -47 90.5t44 95.5t126 39h8l12 65h21l-12 -67q58 -6 99.5 -30t41.5 -53q0 -16 -10.5 -29t-28.5 -13t-29.5 11t-11.5 25.5t10 24.5q-31 17 -78 22l-30 -178
q35 -14 51.5 -22t41.5 -25q47 -32 47 -91.5t-46 -98.5t-130 -39q-7 0 -10 1l-15 -95h-21l15 96q-65 6 -111.5 33t-46.5 60zM286 59.5q34 23.5 34 59.5t-24.5 56.5t-71.5 39.5l-29 -179q57 0 91 23.5zM154.5 423.5q-30.5 -23.5 -30.5 -57.5t23 -53.5t67 -36.5l28 171
q-57 0 -87.5 -23.5z" />
    <glyph glyph-name="percent" unicode="%" horiz-adv-x="628" 
d="M252 275.5q-34 -41.5 -87.5 -41.5t-79 27.5t-25.5 81.5t35 95.5t89 41.5q102 0 102 -103q0 -60 -34 -101.5zM160 271q36 0 58 31t22 74q0 67 -53 67q-37 0 -58.5 -30.5t-21.5 -73.5q0 -68 53 -68zM530.5 41q-34.5 -42 -88.5 -42q-103 0 -103 104q0 60 34.5 101t88.5 41
q103 0 103 -103q0 -59 -34.5 -101zM438 36q37 0 59 31.5t22 74.5q0 66 -54 66q-36 0 -58 -31t-22 -73q0 -68 53 -68zM86 3l-26 26l478 448l26 -27z" />
    <glyph glyph-name="ampersand" unicode="&#x26;" horiz-adv-x="632" 
d="M201 -12q-80 0 -127 40t-47 113t44 117.5t125 86.5q-50 69 -50 130.5t43 103t105.5 41.5t95 -33.5t32.5 -87.5t-39.5 -93t-107.5 -75l132 -180q58 78 77 174h118l-9 -47h-69q-31 -99 -87 -168q31 -40 49.5 -56t41 -16t39.5 7l-9 -49q-22 -8 -44 -8q-56 0 -115 81
q-88 -81 -198 -81zM205 38q91 0 163 72l-143 195q-71 -38 -106 -72t-35 -86t30.5 -80.5t90.5 -28.5zM351.5 551q-17.5 22 -55.5 22t-66 -25.5t-28 -71.5t43 -107q59 31 91.5 61t32.5 64.5t-17.5 56.5z" />
    <glyph glyph-name="quotesingle" unicode="'" horiz-adv-x="179" 
d="M90 415l36 207h55l-37 -207h-54z" />
    <glyph glyph-name="parenleft" unicode="(" horiz-adv-x="249" 
d="M30 138q0 305 229 569h64q-237 -271 -237 -570q0 -85 19.5 -176.5t55.5 -158.5h-61q-70 146 -70 336z" />
    <glyph glyph-name="parenright" unicode=")" horiz-adv-x="250" 
d="M164 372q0 84 -19.5 175.5t-56.5 159.5h61q71 -145 71 -336q0 -305 -229 -569h-65q238 270 238 570z" />
    <glyph glyph-name="asterisk" unicode="*" horiz-adv-x="388" 
d="M237 364q-7 -32 -35 -32t-28 26q0 15 9 32.5t21.5 41.5t20.5 40h6q1 -17 3 -44q4 -43 3 -64zM227 612q7 31 35 31t28 -26q0 -16 -22 -56.5t-30 -57.5l-6 1q0 17 -2 44q-5 49 -3 64zM79 437q0 27 49 35q18 2 44.5 5.5t43.5 6.5l2 -6q-40 -29 -63.5 -47t-32.5 -22t-21.5 -4
t-19.5 19q-2 7 -2 13zM384 538q0 -27 -49 -34q-17 -3 -43 -6.5t-44 -6.5l-2 6q14 10 36 27q48 37 58.5 41.5t18.5 4.5q17 0 23 -19q2 -7 2 -13zM324 451q15 -6 25 -12.5t10 -20t-10.5 -24.5t-22.5 -11t-20.5 6.5t-18 19.5t-23 33.5t-23.5 33.5l5 5q15 -7 39 -15.5t39 -14.5z
M140.5 524q-15.5 6 -26 14t-10.5 19t11 23.5t23 12.5t20.5 -6.5t17.5 -19.5t22.5 -33.5t23.5 -33.5l-4 -6q-16 7 -39 15.5t-38.5 14.5z" />
    <glyph glyph-name="plus" unicode="+" horiz-adv-x="473" 
d="M172 33l31 178h-176l8 47h176l32 178h49l-31 -178h178l-8 -47h-178l-32 -178h-49z" />
    <glyph glyph-name="comma" unicode="," horiz-adv-x="222" 
d="M74 80q19 0 31.5 -13.5t12.5 -40t-31 -70t-76 -78.5l-24 24q59 55 74 96q-31 7 -31 38q0 18 12.5 31t31.5 13z" />
    <glyph glyph-name="hyphen" unicode="-" horiz-adv-x="380" 
d="M51 205l10 51h258l-9 -51h-259z" />
    <glyph glyph-name="period" unicode="." horiz-adv-x="202" 
d="M63 -9q-18 0 -31 13t-13 31.5t13 31.5t31 13t31 -13t13 -31.5t-13 -31.5t-31 -13z" />
    <glyph glyph-name="slash" unicode="/" horiz-adv-x="541" 
d="M-55 -198l597 905h56l-596 -905h-57z" />
    <glyph glyph-name="zero" unicode="0" horiz-adv-x="537" 
d="M232 -11q-94 0 -140.5 55t-46.5 147q0 112 61 197q30 42 80 67t112 25q95 0 141 -54.5t46 -147.5q0 -112 -61 -197q-30 -42 -79.5 -67t-112.5 -25zM136.5 78q31.5 -42 96 -42t109.5 38q83 70 83 203q0 72 -31.5 113.5t-98.5 41.5q-91 0 -140.5 -73t-49.5 -168
q0 -71 31.5 -113z" />
    <glyph glyph-name="one" unicode="1" horiz-adv-x="327" 
d="M184 418q-68 -35 -90.5 -35t-30 11t-0.5 29l137 46h51l-75 -423h95l-8 -46h-257l8 46h104z" />
    <glyph glyph-name="two" unicode="2" horiz-adv-x="451" 
d="M325.5 271.5q25.5 40.5 25.5 80t-26 61t-76 21.5t-99 -23q7 -8 7 -24t-11.5 -29t-32 -13t-31 12.5t-10.5 28.5q0 38 57.5 66t127 28t111 -32t41.5 -86t-27.5 -101t-77.5 -87q-83 -68 -190 -124h259l-9 -50h-348l-7 37q13 8 66.5 38.5t92.5 56.5t85.5 62.5t72 77z" />
    <glyph glyph-name="three" unicode="3" horiz-adv-x="482" 
d="M169 -140q-71 0 -126.5 25.5t-55.5 65.5q0 19 13 32.5t32.5 13.5t31 -10.5t11.5 -26.5t-10 -29q42 -25 108 -25t115.5 39t49.5 98.5t-39.5 86.5t-104.5 27h-49l9 46h50q71 0 121 36t50 98q0 48 -31 72t-87.5 24t-102.5 -22q6 -7 6 -23.5t-12.5 -29.5t-32.5 -13t-31 11.5
t-11 28.5q0 41 58.5 68t135 27t121.5 -36t45 -101t-39 -105t-99 -58q102 -35 102 -134q0 -83 -64 -134.5t-164 -51.5z" />
    <glyph glyph-name="four" unicode="4" horiz-adv-x="483" 
d="M258 481q27 0 27 -32q0 -52 -70.5 -168.5t-154.5 -194.5h230l17 93q20 28 51 88h20l-32 -181h86l-8 -46h-85l-22 -124h80l-7 -45h-238l7 45h100l22 124h-289l-5 40q91 86 160.5 195t93.5 202q9 4 17 4z" />
    <glyph glyph-name="five" unicode="5" horiz-adv-x="481" 
d="M389 411l-220 10q-30 -139 -65 -221q66 47 138 47t120.5 -44t48.5 -133t-66 -149.5t-170 -60.5q-75 0 -132 32t-57 73q0 19 13 32t32 13t30 -11t11 -27.5t-11 -29.5q42 -34 113 -34t124.5 43t53.5 123q0 63 -33.5 94.5t-88.5 31.5q-88 0 -163 -75l-35 20q60 130 96 324
h319q3 -10 3 -19q0 -39 -61 -39z" />
    <glyph glyph-name="six" unicode="6" horiz-adv-x="510" 
d="M394 53.5q-62 -64.5 -156 -64.5q-192 0 -192 204q0 134 71 269q34 64 91 105.5t122 41.5t109.5 -29.5t44.5 -66.5q0 -18 -11.5 -32.5t-32 -14.5t-32.5 12t-12 29.5t16 29.5q-33 25 -77 25q-83 0 -138 -74.5t-83 -191.5q28 39 73.5 63t102.5 24q76 0 121 -44.5t45 -132.5
t-62 -152.5zM135.5 72.5q31.5 -36.5 98.5 -36.5t115 49.5t48 117t-30.5 101.5t-95 34t-116 -48.5t-51.5 -123.5q0 -57 31.5 -93.5z" />
    <glyph glyph-name="seven" unicode="7" horiz-adv-x="467" 
d="M174 -141q-33 0 -33 39q0 89 84 246t176 261q-20 -7 -47.5 -7t-81.5 14.5t-78 14.5q-88 0 -105 -106h-52l27 148h48l-9 -50q30 57 95 57q29 0 84.5 -18.5t78.5 -18.5t35 3q10 38 45 38q18 0 28 -10.5t10 -27t-23 -44.5q-126 -159 -188 -285t-72 -251q-12 -3 -22 -3z" />
    <glyph glyph-name="eight" unicode="8" horiz-adv-x="520" 
d="M392 43q-65 -54 -164.5 -54t-149 42t-49.5 112t46.5 114.5t110.5 61.5q-81 35 -81 119q0 72 57.5 121.5t145.5 49.5t131.5 -38t43.5 -97.5t-36.5 -101t-93.5 -58.5q104 -32 104 -135q0 -82 -65 -136zM122 66q34 -30 107.5 -30t121.5 42.5t48 98t-34.5 85.5t-107 30
t-121 -42t-48.5 -98t34 -86zM397.5 537q-29.5 26 -90.5 26t-103 -36.5t-42 -84.5t30 -75.5t89 -27.5t102.5 38.5t43.5 86t-29.5 73.5z" />
    <glyph glyph-name="nine" unicode="9" horiz-adv-x="508" 
d="M289 -110q-50 -30 -113 -30t-112 27t-49 65q0 20 13 32.5t32 12.5t30 -11t11 -27.5t-12 -28.5q36 -23 81 -23t76.5 15.5t54 41t40.5 61.5q31 62 48 153q-60 -90 -171 -90q-78 0 -125.5 46t-47.5 132.5t61.5 150t157.5 63.5q191 0 191 -210q0 -102 -35 -202
q-21 -57 -51 -102.5t-80 -75.5zM364.5 396.5q-32.5 35.5 -99.5 35.5t-114 -48t-47 -113.5t32.5 -101t96.5 -35.5t114 48t50 122q0 57 -32.5 92.5z" />
    <glyph glyph-name="colon" unicode=":" horiz-adv-x="211" 
d="M67 -9q-18 0 -31 13t-13 31.5t13 31.5t31 13t30.5 -13t12.5 -31.5t-12.5 -31.5t-30.5 -13zM123 306q-18 0 -31 13t-13 31t13 31t31 13t31 -13t13 -31t-13 -31t-31 -13z" />
    <glyph glyph-name="semicolon" unicode=";" horiz-adv-x="229" 
d="M134 306q-18 0 -31 13t-13 31t13 31t31 13t31 -13t13 -31t-13 -31t-31 -13zM78 80q19 0 31.5 -13.5t12.5 -40t-31 -70t-76 -78.5l-25 24q61 54 74 96q-13 3 -22 13.5t-9 26.5t13 29t32 13z" />
    <glyph glyph-name="less" unicode="&#x3c;" horiz-adv-x="443" 
d="M351 35l-328 185l6 30l392 185l-9 -56l-318 -146l266 -147z" />
    <glyph glyph-name="equal" unicode="=" horiz-adv-x="532" 
d="M36 94l8 48h404l-9 -48h-403zM76 325l9 48h404l-9 -48h-404z" />
    <glyph glyph-name="greater" unicode="&#x3e;" horiz-adv-x="443" 
d="M14 32l10 56l318 147l-266 146l9 51l327 -185l-5 -30z" />
    <glyph glyph-name="question" unicode="?" horiz-adv-x="372" 
d="M307 489q0 83 -100 83q-54 0 -122 -24l9 50q69 21 130 21t101 -33t40 -94q0 -43 -21.5 -80.5t-51.5 -64.5l-60 -54q-74 -65 -72 -135h-53q-1 45 19 84t49.5 67t59.5 54q72 62 72 126zM122 -9q-19 0 -33 14t-14 33t14 33t33 14t33 -14t14 -33t-14 -33t-33 -14z" />
    <glyph glyph-name="at" unicode="@" horiz-adv-x="762" 
d="M316 53q-56 0 -87.5 35t-31.5 94q0 86 61.5 155t149 69t104.5 -77h2q15 40 29 61h40q-80 -181 -80 -253q0 -52 43 -52q52 0 93 58.5t41 150.5q0 114 -66.5 182t-178.5 68q-142 0 -254.5 -105.5t-112.5 -248.5q0 -114 73 -191.5t189 -77.5q95 0 177 53l15 -28
q-95 -57 -193 -57q-129 0 -211.5 86.5t-82.5 214.5q0 105 58.5 195.5t151 141t192.5 50.5q122 0 199 -76t77 -206q0 -107 -51 -174.5t-124 -67.5q-33 0 -52 15q-28 23 -25 60h-3q-63 -75 -142 -75zM327 93q64 0 110.5 57.5t46.5 130.5q0 85 -75 85q-64 0 -113.5 -55.5
t-49.5 -126.5q0 -45 21 -68t60 -23z" />
    <glyph glyph-name="A" unicode="A" 
d="M-46 0l8 50h86l290 509h-91l8 50h183l124 -559h86l-9 -50h-246l9 50h100l-33 152h-272l-86 -152h101l-9 -50h-249zM225 252h234l-64 299z" />
    <glyph glyph-name="B" unicode="B" horiz-adv-x="596" 
d="M366 609q91 0 144 -36.5t53 -100.5t-39 -104.5t-105 -57.5q54 -13 86.5 -45.5t32.5 -85.5q0 -81 -70.5 -130t-182.5 -49h-293l8 49h97l91 511h-97l8 49h267zM285 49q88 0 140.5 34.5t52.5 96.5q0 106 -155 106h-124l-42 -237h128zM310 333q90 0 141.5 35t51.5 95
q0 97 -142 97h-114l-40 -227h103z" />
    <glyph glyph-name="C" unicode="C" horiz-adv-x="603" 
d="M334 -12q-125 0 -204.5 72.5t-79.5 211t99.5 244t262.5 105.5q108 0 204 -43l-24 -143h-57l20 112q-64 23 -142 23q-132 0 -217 -88t-85 -209.5t65 -177t162 -55.5t206 59l-10 -59q-98 -52 -200 -52z" />
    <glyph glyph-name="D" unicode="D" 
d="M365 609q124 0 199 -65t75 -197q0 -156 -105.5 -251.5t-265.5 -95.5h-276l9 50h97l90 509h-97l8 50h266zM270 50q134 0 220.5 82t86.5 214q0 103 -56 158t-161 55h-112l-89 -509h111z" />
    <glyph glyph-name="E" unicode="E" horiz-adv-x="568" 
d="M-8 0l9 50h97l90 509h-97l8 50h478l-28 -164h-56l19 114h-264l-40 -227h268l-9 -50h-267l-41 -232h265l21 114h56l-29 -164h-480z" />
    <glyph glyph-name="F" unicode="F" horiz-adv-x="540" 
d="M-8 0l9 50h97l90 509h-97l8 50h474l-30 -174h-57l22 124h-260l-42 -239h247l-8 -50h-248l-38 -220h111l-9 -50h-269z" />
    <glyph glyph-name="G" unicode="G" horiz-adv-x="688" 
d="M340 -12q-135 0 -212.5 72.5t-77.5 200.5q0 151 102.5 255.5t271.5 104.5q111 0 221 -46l-24 -138h-57l18 105q-79 27 -157 27q-140 0 -227 -88t-87 -217q0 -105 60 -164.5t174 -59.5q75 0 168 35l34 190h-158l9 49h278l-9 -49h-63l-40 -226q-112 -51 -224 -51z" />
    <glyph glyph-name="H" unicode="H" horiz-adv-x="746" 
d="M-8 0l9 50h97l90 509h-97l8 50h255l-9 -50h-97l-39 -226h357l39 226h-97l8 50h255l-8 -50h-97l-90 -509h97l-9 -50h-255l9 50h97l41 231h-357l-40 -231h97l-9 -50h-255z" />
    <glyph glyph-name="I" unicode="I" horiz-adv-x="328" 
d="M-8 0l9 50h97l90 509h-97l8 50h254l-8 -50h-97l-89 -509h96l-9 -50h-254z" />
    <glyph glyph-name="J" unicode="J" horiz-adv-x="304" 
d="M-32 -166l-18 41q51 19 86 54t42 76l98 554h-94l9 50h248l-9 -50h-93l-99 -559q-12 -66 -59 -107t-111 -59z" />
    <glyph glyph-name="K" unicode="K" horiz-adv-x="655" 
d="M467 0l-215 306l1 5l282 249h-90l8 49h245l-8 -50h-79l-286 -256l178 -253h104l-9 -50h-131zM-8 0l9 50h97l90 509h-97l8 50h253l-8 -50h-96l-89 -509h99l-9 -50h-257z" />
    <glyph glyph-name="L" unicode="L" horiz-adv-x="538" 
d="M-8 0l9 50h97l90 509h-97l8 50h265l-8 -50h-108l-89 -509h268l21 120h56l-29 -170h-483z" />
    <glyph glyph-name="M" unicode="M" horiz-adv-x="893" 
d="M-15 0l9 50h95l109 509h-95l9 50h187l121 -498l293 498h192l-8 -50h-95l-70 -509h95l-9 -50h-247l9 50h95l69 503l-313 -524h-46l-130 524l-109 -503h95l-9 -50h-247z" />
    <glyph glyph-name="N" unicode="N" horiz-adv-x="735" 
d="M-8 0l9 50h97l90 509h-97l8 50h156l272 -517l82 467h-97l9 50h251l-9 -50h-96l-99 -559h-54l-276 521l-83 -471h97l-9 -50h-251z" />
    <glyph glyph-name="O" unicode="O" horiz-adv-x="705" 
d="M319 -12q-125 0 -197 75.5t-72 197.5q0 148 100.5 254t252.5 106q125 0 197.5 -75t72.5 -197q0 -149 -100.5 -255t-253.5 -106zM321 39q120 0 205 89t85 219q0 103 -57 162.5t-152 59.5q-121 0 -205.5 -89t-84.5 -218q0 -103 57 -163t152 -60z" />
    <glyph glyph-name="P" unicode="P" horiz-adv-x="569" 
d="M358 609q56 0 101 -14.5t77 -54t32 -100.5q0 -98 -78 -152.5t-190 -54.5h-109l-32 -183h115l-9 -50h-273l9 50h97l90 509h-97l8 50h259zM304 283q98 0 150.5 44t52.5 107q0 125 -154 125h-105l-49 -276h105z" />
    <glyph glyph-name="Q" unicode="Q" horiz-adv-x="705" 
d="M50 261q0 148 100.5 254t252.5 106q125 0 197.5 -75t72.5 -202t-81 -227.5t-209 -121.5l132 -86l-40 -46l-175 126q-117 5 -183.5 79.5t-66.5 192.5zM321 39q120 0 205 89t85 219q0 103 -57 162.5t-152 59.5q-121 0 -205.5 -89t-84.5 -218q0 -103 57 -163t152 -60z" />
    <glyph glyph-name="R" unicode="R" horiz-adv-x="621" 
d="M367 609q91 0 150.5 -39.5t59.5 -119.5t-49 -130.5t-134 -67.5l78 -202h95l-9 -50h-128l-94 244q-9 -1 -30 -1h-113l-34 -193h96l-9 -50h-254l9 50h97l90 509h-97l8 50h268zM314 292q99 0 150.5 42t51.5 110q0 115 -154 115h-114l-47 -267h113z" />
    <glyph glyph-name="S" unicode="S" horiz-adv-x="504" 
d="M387.5 33q-58.5 -45 -167.5 -45t-207 34l22 131h56l-16 -94q68 -21 146 -21t122 32t44 79.5t-30.5 76.5t-74 46.5t-87 36.5t-74 54.5t-30.5 87.5q0 71 53.5 120.5t153 49.5t190.5 -31l-22 -129h-57l16 93q-60 17 -117 17q-82 0 -119.5 -35t-37.5 -77t30.5 -69t73.5 -44
t86.5 -36.5t74 -57.5t30.5 -94q0 -80 -58.5 -125z" />
    <glyph glyph-name="T" unicode="T" horiz-adv-x="571" 
d="M107 0l9 50h103l90 509h-178l-20 -110h-55l28 160h527l-28 -160h-56l20 110h-178l-89 -509h102l-9 -50h-266z" />
    <glyph glyph-name="U" unicode="U" horiz-adv-x="687" 
d="M475 44.5q-67 -56.5 -172.5 -56.5t-159.5 62q-41 46 -41 116q0 23 5 49l61 344h-97l9 50h254l-9 -50h-96l-63 -354q-4 -21 -4 -39q0 -51 29 -82q39 -42 115.5 -42t130 42.5t67.5 120.5l62 354h-97l8 50h252l-9 -50h-96l-63 -356q-19 -102 -86 -158.5z" />
    <glyph glyph-name="V" unicode="V" horiz-adv-x="649" 
d="M245 0l-117 559h-85l9 50h246l-9 -50h-101l99 -488l270 488h-101l9 50h250l-9 -50h-85l-314 -559h-62z" />
    <glyph glyph-name="W" unicode="W" horiz-adv-x="924" 
d="M208 0l-79 559h-84l9 50h243l-9 -50h-103l66 -479l225 422l-10 57h-86l9 50h246l-9 -50h-103l81 -478l232 478h-102l9 50h245l-9 -50h-84l-273 -559h-57l-75 420l-225 -420h-57z" />
    <glyph glyph-name="X" unicode="X" horiz-adv-x="634" 
d="M-38 0l10 49h81l241 264l-134 247h-83l8 49h243l-8 -49h-96l108 -206l184 206h-95l8 49h250l-8 -50h-83l-229 -252l140 -258h84l-9 -49h-241l9 49h94l-116 217l-194 -217h96l-9 -49h-251z" />
    <glyph glyph-name="Y" unicode="Y" horiz-adv-x="620" 
d="M134 0l9 50h98l31 177l-143 332h-85l9 50h247l-9 -50h-100l118 -278l214 278h-99l9 50h253l-9 -50h-85l-259 -330l-32 -179h98l-9 -50h-256z" />
    <glyph glyph-name="Z" unicode="Z" horiz-adv-x="556" 
d="M10 0l-14 29l471 528h-310l-20 -112h-57l29 164h441l16 -27l-474 -531h330l21 120h57l-30 -171h-460z" />
    <glyph glyph-name="bracketleft" unicode="[" horiz-adv-x="283" 
d="M2 -198l160 905h184l-7 -41h-131l-144 -823h130l-8 -41h-184z" />
    <glyph glyph-name="backslash" unicode="\" horiz-adv-x="525" 
d="M372 -198l-276 905h56l276 -905h-56z" />
    <glyph glyph-name="bracketright" unicode="]" horiz-adv-x="282" 
d="M-64 -198l7 41h131l144 823h-130l8 41h184l-160 -905h-184z" />
    <glyph glyph-name="asciicircum" unicode="^" horiz-adv-x="434" 
d="M57 338l212 286h32l110 -286h-53l-82 222l-161 -222h-58z" />
    <glyph glyph-name="underscore" unicode="_" horiz-adv-x="510" 
d="M1 -77l8 41h388l-7 -41h-389z" />
    <glyph glyph-name="grave" unicode="`" horiz-adv-x="316" 
d="M220 506l-153 127l41 44l134 -147z" />
    <glyph glyph-name="a" unicode="a" horiz-adv-x="536" 
d="M194 -11q-73 0 -119 51t-46 141q0 110 66 182t158 72q104 0 142 -96l15 85h59l-60 -339q-1 -8 -1 -14q0 -33 34 -33q24 0 59 15l-8 -49q-38 -14 -71.5 -14t-51 19.5t-17.5 50.5q0 6 1 13q-64 -84 -160 -84zM208 36q72 0 121.5 62.5t49.5 136.5t-31 113t-88 39
q-72 0 -121.5 -59t-49.5 -136.5t32 -116.5t87 -39z" />
    <glyph glyph-name="b" unicode="b" horiz-adv-x="510" 
d="M242 -11q-107 0 -145 99l-16 -88h-56l116 659h-76l9 48h134l-62 -350q64 78 153 78q73 0 119.5 -51t46.5 -151.5t-65.5 -172t-157.5 -71.5zM146.5 75.5q31.5 -39.5 96 -39.5t113.5 58.5t49 136.5t-32.5 117t-87.5 39q-72 0 -121 -61.5t-49 -136t31.5 -114z" />
    <glyph glyph-name="c" unicode="c" horiz-adv-x="405" 
d="M214 -11q-86 0 -135.5 50.5t-49.5 147.5t64.5 172.5t174.5 75.5q69 0 125 -28l-9 -46q-56 26 -112 26q-84 0 -133.5 -60t-49.5 -136.5t35 -115.5t97.5 -39t122.5 24l-9 -49q-58 -22 -121 -22z" />
    <glyph glyph-name="d" unicode="d" horiz-adv-x="536" 
d="M194 -11q-73 0 -119 51t-46 141q0 110 66 182t158 72q104 0 142 -97l57 321h-92l9 48h150l-110 -622q-1 -8 -1 -14q0 -33 34 -33q24 0 59 15l-8 -49q-38 -14 -67 -14q-73 0 -73 70q0 6 1 13q-64 -84 -160 -84zM208 36q72 0 121.5 62.5t49.5 136.5t-31 113t-88 39
q-72 0 -121.5 -59t-49.5 -136.5t32 -116.5t87 -39z" />
    <glyph glyph-name="e" unicode="e" horiz-adv-x="417" 
d="M343 18q-56 -29 -135.5 -29t-129.5 49t-50 140q0 110 68.5 183.5t165.5 73.5q57 0 88 -27t31 -70.5t-26.5 -75t-70.5 -48.5q-85 -34 -198 -38q3 -140 133 -140q66 0 134 35zM256.5 253.5q70.5 27.5 70.5 81t-64.5 53.5t-112.5 -46t-61 -119q97 3 167.5 30.5z" />
    <glyph glyph-name="f" unicode="f" horiz-adv-x="284" 
d="M-46 -210q-31 0 -63 8l8 46q19 -6 49 -6q71 0 84 75l81 462h-86l8 49h87l28 160q25 134 164 134q38 0 70 -8l-8 -45q-27 5 -56 5q-96 0 -112 -88l-28 -158h122l-8 -49h-122l-82 -461q-21 -124 -136 -124z" />
    <glyph glyph-name="g" unicode="g" horiz-adv-x="433" 
d="M286 -176q-49 -34 -158.5 -34t-152.5 32t-43 76q0 56 54 93q44 29 92 49q-15 18 -15 38q0 32 38 61q-55 39 -55 113.5t54.5 128.5t133.5 54q33 0 64 -11h148l-9 -48l-81 2q27 -33 27 -82q0 -75 -55 -129t-134 -54q-28 0 -55 8q-23 -17 -23 -33q0 -21 34 -36l15 -8l15 -7
l19 -9q72 -32 104 -59.5t32 -69t-49 -75.5zM302.5 363.5q-25.5 25.5 -75 25.5t-88 -40.5t-38.5 -90t25 -75t74.5 -25.5t88.5 40.5t39 90t-25.5 75zM19 -142.5q31 -20.5 108 -20.5t114 18.5t37 45.5q0 35 -102 80q-43 18 -64 31q-124 -52 -124 -108q0 -26 31 -46.5z" />
    <glyph glyph-name="h" unicode="h" horiz-adv-x="514" 
d="M325 435q56 0 84 -39q20 -27 20 -68q0 -18 -4 -38l-36 -205q-1 -8 -1 -14q0 -33 35 -33q23 0 58 15l-8 -49q-38 -14 -75 -14t-52.5 23.5t-15.5 43t2 33.5l35 197q3 19 3 34q0 64 -64 64t-171 -91l-51 -294h-59l116 659h-79l9 48h137l-62 -356q99 84 179 84z" />
    <glyph glyph-name="i" unicode="i" horiz-adv-x="245" 
d="M134 -10q-46 0 -64 28q-13 19 -13 39t2 33l51 286h-79l8 48h137l-59 -339q-1 -8 -1 -14q0 -33 34 -33q24 0 59 15l-9 -49q-38 -14 -66 -14zM164 534q-19 0 -32.5 13.5t-13.5 32.5t13.5 32t32.5 13t32.5 -13t13.5 -32t-13.5 -32.5t-32.5 -13.5z" />
    <glyph glyph-name="j" unicode="j" horiz-adv-x="220" 
d="M167 534q-19 0 -32 13.5t-13 32.5t13 32t32 13t32.5 -13t13.5 -32t-13.5 -32.5t-32.5 -13.5zM-44 -210q-25 0 -51 7l8 46q20 -5 37 -5q68 0 82 75l81 463h-84l9 48h142l-90 -510q-23 -124 -134 -124z" />
    <glyph glyph-name="k" unicode="k" horiz-adv-x="476" 
d="M313 435q49 0 76.5 -26.5t27.5 -69.5q0 -60 -52.5 -99t-122.5 -55l60 -98q32 -50 68 -50q19 0 59 20l-9 -51q-29 -17 -60 -17q-63 0 -106 72l-77 127l4 26q59 6 119 39.5t60 82.5q0 22 -15 36.5t-44 14.5q-69 0 -165 -87l-53 -300h-58l116 659h-76l9 48h134l-62 -351
q83 79 167 79z" />
    <glyph glyph-name="l" unicode="l" horiz-adv-x="225" 
d="M179 4q-38 -14 -75 -14t-52.5 23.5t-15.5 43t2 33.5l100 569h-79l9 48h137l-110 -622q-1 -8 -1 -14q0 -33 34 -33q24 0 59 15z" />
    <glyph glyph-name="m" unicode="m" horiz-adv-x="775" 
d="M326 435q40 0 67 -22t31 -63q90 85 167 85q53 0 81 -35q19 -24 19 -64q0 -17 -4 -37l-37 -214q-1 -8 -1 -14q0 -33 35 -33q23 0 58 15l-8 -49q-38 -14 -75 -14t-52.5 23.5t-15.5 43t2 33.5l37 208q3 16 3 29q0 59 -57 59q-61 0 -153 -83l-52 -303h-59l53 298q3 16 3 29
q0 59 -57 59q-59 0 -154 -84l-53 -302h-57l66 376h-79l9 48h134l-12 -68q84 79 161 79z" />
    <glyph glyph-name="n" unicode="n" horiz-adv-x="532" 
d="M343 435q56 0 84 -39q20 -27 20 -68q0 -18 -4 -38l-35 -205q-2 -8 -2 -15q0 -32 35 -32q24 0 59 15l-9 -49q-38 -14 -75 -14t-55 28q-12 19 -12 38.5t2 33.5l34 197q3 19 3 34q0 64 -64 64t-167 -88l-52 -297h-58l66 376h-79l9 48h135l-12 -71q100 82 177 82z" />
    <glyph glyph-name="o" unicode="o" horiz-adv-x="491" 
d="M208 -11q-82 0 -131 50t-49 149t67.5 173t171.5 74q82 0 130.5 -50.5t48.5 -140.5q0 -109 -67.5 -182t-170.5 -73zM210 37q74 0 125 60.5t51 146.5q0 66 -31.5 104.5t-89.5 38.5q-74 0 -125.5 -61t-51.5 -147q0 -66 32 -104t90 -38z" />
    <glyph glyph-name="p" unicode="p" horiz-adv-x="532" 
d="M264 -11q-106 0 -144 95l-50 -283h-58l101 575h-78l9 48h133l-13 -71q65 82 158 82q73 0 119 -51t46 -151.5t-65 -172t-158 -71.5zM168 75.5q31 -39.5 96 -39.5t114 59t49 136.5t-32 116.5t-87 39q-72 0 -121.5 -62t-49.5 -136t31 -113.5z" />
    <glyph glyph-name="q" unicode="q" horiz-adv-x="510" 
d="M195 -11q-74 0 -120 51t-46 151.5t65.5 172t157.5 71.5q107 0 146 -101l15 90h56l-101 -575h79l-8 -48h-138l46 264q-61 -76 -152 -76zM209 36q72 0 121 62t49 136.5t-31.5 113.5t-88.5 39q-72 0 -121 -58.5t-49 -136.5t32.5 -117t87.5 -39z" />
    <glyph glyph-name="r" unicode="r" horiz-adv-x="387" 
d="M325 435q65 0 65 -64q0 -29 -13 -62l-52 3q9 29 9 45q0 26 -27 26q-60 0 -153 -102l-49 -281h-58l66 376h-77l8 48h134l-15 -86q83 97 162 97z" />
    <glyph glyph-name="s" unicode="s" horiz-adv-x="358" 
d="M260.5 24q-40.5 -35 -117 -35t-142.5 26l8 47q68 -26 123.5 -26t84 19.5t28.5 48.5t-20 48t-48.5 32.5t-57.5 28.5t-49 41t-20 69.5t37.5 77.5t103 34t132.5 -23l-8 -45q-64 22 -114 22t-72 -20t-22 -46t20 -44.5t48.5 -32t57 -28.5t48.5 -41.5t20 -63.5q0 -54 -40.5 -89
z" />
    <glyph glyph-name="t" unicode="t" horiz-adv-x="306" 
d="M256 10q-51 -21 -96.5 -21t-73.5 24t-28 66q0 16 3 34l45 264h-72l9 47h72l19 110h59l-20 -110h133l-8 -47h-133l-46 -265q-2 -12 -2 -23q0 -53 60 -53q31 0 88 23z" />
    <glyph glyph-name="u" unicode="u" horiz-adv-x="527" 
d="M164 -11q-56 0 -84 39q-20 26 -20 67q0 18 4 38l42 243h-79l9 48h136l-50 -288q-3 -19 -3 -34q0 -64 64 -64t167 88l52 298h59l-60 -341q-2 -8 -2 -15q0 -32 35 -32q24 0 59 15l-8 -47q-38 -14 -72 -14t-52.5 20.5t-18.5 52.5v7q-96 -81 -178 -81z" />
    <glyph glyph-name="v" unicode="v" horiz-adv-x="460" 
d="M386 360q0 24 -28 24t-63 -25l-20 36q52 39 94 39t57 -20.5t15 -48.5q0 -108 -232 -365h-52l-69 377h-76l8 47h116l61 -365q189 214 189 301z" />
    <glyph glyph-name="w" unicode="w" horiz-adv-x="686" 
d="M613 357q0 27 -29 27t-65 -26l-18 37q51 39 92 39t57 -20.5t16 -49.5q0 -58 -57.5 -161t-143.5 -203h-48l-48 243q-55 -114 -158 -243h-50l-74 377h-75l9 47h112l67 -362q51 66 93 138t58 122l-10 55h-76l9 47h113l68 -364q69 87 113.5 170t44.5 127z" />
    <glyph glyph-name="x" unicode="x" horiz-adv-x="465" 
d="M54 -10q-22 0 -38.5 12.5t-24 26.5t-15.5 35l35 18q14 -42 40.5 -42t57.5 39t88 133l-68 165h-73l12 47h101l63 -162q59 97 92 134.5t71 37.5q22 0 39 -13.5t24 -27t15 -34.5l-34 -18q-19 42 -42.5 42t-53 -39.5t-87.5 -137.5l65 -160h71l-8 -46h-102l-61 157
q-56 -89 -92 -128t-75 -39z" />
    <glyph glyph-name="y" unicode="y" horiz-adv-x="462" 
d="M-15 -210q-55 0 -102 41l26 36q33 -29 72 -29q56 0 129 64t131.5 149.5t99.5 170.5t41 123.5t-29 38.5t-64 -26l-21 36q50 40 93 40q78 0 78 -78q0 -51 -43.5 -145.5t-107.5 -188t-148.5 -163t-154.5 -69.5zM134 0l-43 376h-76l9 48h119l47 -424h-56z" />
    <glyph glyph-name="z" unicode="z" horiz-adv-x="423" 
d="M86 52q10 2 28.5 2t61 -7.5t64 -7.5t39.5 7t30 22q18 21 31 59l43 -11q-26 -90 -77 -114q-26 -12 -57 -12t-82.5 10.5t-84 10.5t-76.5 -13l-15 26l318 356h-192l-14 -83h-52l23 127h310l13 -25z" />
    <glyph glyph-name="braceleft" unicode="{" horiz-adv-x="279" 
d="M170 -202q-30 -10 -62.5 -10t-53.5 21.5t-21 56t37.5 127t37.5 138.5q0 90 -105 98l9 50q79 4 116 47q28 35 34 104q2 24 2 98.5t13 115.5q23 75 100 75q28 0 55 -10l-6 -38q-23 9 -39 9t-26 -3t-16.5 -9.5t-11.5 -13.5t-8 -19t-4.5 -21t-2 -25t-1 -25.5t0 -28t0.5 -50
t-4.5 -68t-17.5 -75.5q-27 -77 -124 -91q45 -8 67 -40.5t22 -81t-37.5 -142.5t-37.5 -121q0 -38 42 -38q16 0 49 9z" />
    <glyph glyph-name="bar" unicode="|" horiz-adv-x="219" 
d="M2 -198l160 905h54l-160 -905h-54z" />
    <glyph glyph-name="braceright" unicode="}" horiz-adv-x="279" 
d="M1 -212q-29 0 -54 10l6 38q22 -9 38 -9t26 3t17 10t12 13.5t8 19t4.5 21t2 25t1 25.5t0 27.5t-0.5 50.5t4.5 68.5t18.5 75.5q26 76 123 90q-46 8 -68 41t-22 81t38 142t38 121q0 38 -42 38q-16 0 -49 -9l6 39q32 10 64 10t52.5 -21.5t20.5 -56t-37.5 -127t-37.5 -138.5
q0 -90 105 -98l-9 -50q-41 -1 -70.5 -14.5t-45 -32t-24.5 -49.5q-12 -44 -12 -135.5t-12 -130.5q-23 -78 -101 -78z" />
    <glyph glyph-name="asciitilde" unicode="~" horiz-adv-x="588" 
d="M155 318q24 11 56 11t66 -24t64 -48t57 -24q55 0 109 95l35 -18q-68 -130 -150 -130q-27 0 -53.5 15t-45 33.5t-43.5 33.5t-50 15t-48.5 -16.5t-36.5 -34t-32 -47.5l-35 18q58 98 107 121z" />
    <glyph glyph-name="exclamdown" unicode="&#xa1;" horiz-adv-x="214" 
d="M-2 -183l91 451h42l-68 -451h-65zM130 341q-19 0 -33 14t-14 33t14 33t33 14t32.5 -14t13.5 -33t-13.5 -33t-32.5 -14z" />
    <glyph glyph-name="cent" unicode="&#xa2;" horiz-adv-x="446" 
d="M41 214q0 96 59 166t158 70q36 0 60 -10l44 85l22 -7l-45 -86q64 -33 64 -118v-5h-49v6q0 51 -35 77l-156 -300q20 -5 40 -5q48 0 82 29t48 72h50q-19 -65 -65 -103t-118 -38q-33 0 -57 7l-66 -127l-21 7l66 129q-81 36 -81 151zM258 409q-71 0 -118.5 -57.5
t-47.5 -137.5t51 -111l155 300q-16 6 -40 6z" />
    <glyph glyph-name="sterling" unicode="&#xa3;" horiz-adv-x="508" 
d="M137 157q0 23 -11 63h-89l5 30h76q-11 44 -11 75q0 69 49 117t144 48q50 0 86 -14q57 -24 73 -85q4 -15 4 -26.5t-1 -19.5h-53q1 6 1 11q0 33 -23 61t-88.5 28t-100.5 -32.5t-35 -86.5q0 -26 12 -76h185l-5 -30h-171q8 -40 8 -57q0 -69 -53 -109h18l55 -8l67 -7
q79 0 128 55l31 -32q-65 -70 -157 -70q-31 0 -82 10.5t-86 10.5t-83 -17l-10 30q54 16 85.5 52t31.5 79z" />
    <glyph glyph-name="currency" unicode="&#xa4;" horiz-adv-x="561" 
d="M387 105q-63 -42 -131 -42t-118 39l-68 -56l-28 34l66 55q-34 45 -34 108q0 91 69 158l-50 61l36 30l50 -62q63 42 132 42t116 -38l68 57l29 -35l-67 -55q34 -45 34 -107q0 -91 -69 -160l52 -61l-36 -30zM159 146.5q38 -38.5 105 -38.5t123.5 55t56.5 121.5t-36.5 104.5
t-104.5 38t-125 -55t-57 -129q0 -58 38 -96.5z" />
    <glyph glyph-name="yen" unicode="&#xa5;" horiz-adv-x="573" 
d="M128 0l7 41h85l16 91h-160l6 30h159l4 23l-27 60h-122l5 30h103l-73 163h-71l8 43h208l-7 -43h-81l89 -210l164 210h-81l7 43h214l-8 -43h-71l-131 -163h105l-6 -30h-123l-48 -60l-4 -23h161l-5 -30h-161l-16 -91h84l-7 -41h-223z" />
    <glyph glyph-name="brokenbar" unicode="&#xa6;" horiz-adv-x="222" 
d="M98 334l66 373h54l-67 -373h-53zM4 -198l70 392h53l-69 -392h-54z" />
    <glyph glyph-name="section" unicode="&#xa7;" horiz-adv-x="419" 
d="M265.5 -58q-40.5 -30 -103 -30t-108.5 25.5t-46 57.5q0 16 11 28.5t29 12.5t28 -10t10 -24.5t-12 -28.5q31 -23 79 -23t75.5 18t27.5 46t-21.5 47.5t-52 33.5t-61.5 29.5t-52.5 41t-21.5 60.5q0 69 91 112q-34 31 -34 80.5t41 79.5t99.5 30t102 -23t43.5 -57
q0 -17 -11 -30t-28.5 -13t-28.5 10t-11 23.5t15 30.5q-29 21 -73.5 21t-71 -18.5t-26.5 -47.5t21 -48.5t51.5 -33t61 -28.5t51.5 -40.5t21 -60.5q0 -71 -92 -112q37 -32 37 -80.5t-40.5 -78.5zM311 204q0 21 -14.5 38t-31.5 26t-47.5 23t-45.5 23q-74 -29 -74 -79
q0 -21 14.5 -38t30.5 -26t46.5 -23.5t45.5 -22.5q76 32 76 79z" />
    <glyph glyph-name="dieresis" unicode="&#xa8;" horiz-adv-x="395" 
d="M116 517q-17 0 -29 12t-12 29t12 28.5t29 11.5t28.5 -11.5t11.5 -28.5t-11.5 -29t-28.5 -12zM286 517q-17 0 -28.5 12t-11.5 29t11.5 28.5t28.5 11.5t29 -11.5t12 -28.5t-12 -29t-29 -12z" />
    <glyph glyph-name="copyright" unicode="&#xa9;" horiz-adv-x="730" 
d="M367 -53q-131 0 -224 92.5t-93 224.5t93 224.5t224 92.5t224 -92.5t93 -224.5t-93 -224.5t-224 -92.5zM367 -19q118 0 200.5 82.5t82.5 200.5t-82.5 201t-200.5 83t-201 -83t-83 -201t83 -200.5t201 -82.5zM496 115q-57 -34 -129 -34t-121.5 52t-49.5 132t48.5 131
t133.5 51q62 0 116 -26v-89h-39v64q-40 14 -74 14q-65 0 -102.5 -39.5t-37.5 -103t36 -105.5t99.5 -42t119.5 35v-40z" />
    <glyph glyph-name="ordfeminine" unicode="&#xaa;" horiz-adv-x="385" 
d="M52 211l6 34h273l-6 -34h-273zM260 338q-56 -43 -99 -43q-88 0 -88 75q0 52 42 75t104 23h62l5 27q2 11 2 25t-10.5 26t-53.5 12t-98 -20l7 39q54 19 105 19q97 0 97 -73q0 -13 -3 -27l-27 -156h48l-7 -38h-93zM121 372q0 -42 44.5 -42t98.5 46l10 59h-59q-94 0 -94 -63z
" />
    <glyph glyph-name="guillemotleft" unicode="&#xab;" horiz-adv-x="504" 
d="M155 83l-117 175l1 4l178 176h72l-188 -183l117 -172h-63zM364 83l-116 175l1 4l178 176h71l-187 -183l116 -172h-63z" />
    <glyph glyph-name="logicalnot" unicode="&#xac;" horiz-adv-x="503" 
d="M365 129l28 153h-325l8 44h371l-35 -197h-47z" />
    <glyph glyph-name="uni00AD" unicode="&#xad;" horiz-adv-x="380" 
d="M51 205l10 51h258l-9 -51h-259z" />
    <glyph glyph-name="registered" unicode="&#xae;" horiz-adv-x="413" 
d="M348 322q-47 -47 -113 -47t-112.5 47t-46.5 113.5t46.5 113t112.5 46.5t113 -46.5t47 -113t-47 -113.5zM139 339q40 -40 96.5 -40t96.5 40t40 96.5t-40 96.5t-96.5 40t-96.5 -40t-40 -96.5t40 -96.5zM163 357v19h22v118h-22v20h83q28 0 44 -13t16 -32.5t-12 -31.5
t-26 -15l26 -46h24v-19h-41l-34 60h-32v-41h23v-19h-71zM211 437h32q37 0 37 28.5t-35 28.5h-34v-57z" />
    <glyph glyph-name="macron" unicode="&#xaf;" horiz-adv-x="403" 
d="M73 527l8 46h256l-8 -46h-256z" />
    <glyph glyph-name="degree" unicode="&#xb0;" horiz-adv-x="367" 
d="M323 406.5q-48 -47.5 -108.5 -47.5t-97 37t-36.5 96.5t48 105.5t108.5 46t97 -35.5t36.5 -95t-48 -107zM147.5 427q22.5 -26 66 -26t78 35t34.5 76.5t-23.5 65.5t-66 24t-77 -34t-34.5 -74.5t22.5 -66.5z" />
    <glyph glyph-name="plusminus" unicode="&#xb1;" horiz-adv-x="527" 
d="M216 128l27 153h-177l8 46h177l26 154h50l-27 -154h178l-8 -46h-178l-27 -153h-49zM21 27l8 46h404l-8 -46h-404z" />
    <glyph glyph-name="twosuperior" unicode="&#xb2;" horiz-adv-x="378" 
d="M267 753q-41 0 -73 -17q4 -8 4 -20t-11 -21.5t-27 -9.5t-24.5 9.5t-8.5 22.5q0 30 44.5 52.5t99.5 22.5t88 -25t33 -74q0 -124 -229 -248h202l-7 -42h-275l-9 31q99 59 126.5 79t65.5 51q76 62 76 125.5t-75 63.5z" />
    <glyph glyph-name="threesuperior" unicode="&#xb3;" horiz-adv-x="357" 
d="M314 428q-46 -34 -103.5 -34t-98.5 19.5t-41 47.5q0 14 10.5 25.5t27.5 11.5t25.5 -8.5t8.5 -20.5t-8 -22q28 -14 70 -14t73 23t31 60q0 64 -98 64h-31l7 39h31q50 0 81 20.5t31 56.5q0 57 -75 57q-34 0 -67 -12q5 -10 5 -21t-10.5 -20.5t-26.5 -9.5t-25.5 9.5t-9.5 23.5
q0 30 43 49.5t99 19.5t87 -25t31 -64t-24.5 -66t-70.5 -37q74 -20 74 -84q0 -54 -46 -88z" />
    <glyph glyph-name="acute" unicode="&#xb4;" horiz-adv-x="324" 
d="M84 506l-19 25l163 146l38 -47z" />
    <glyph glyph-name="mu" unicode="&#xb5;" horiz-adv-x="583" 
d="M144 104q0 -66 61 -66q67 0 170 88l53 298h59l-61 -341q-1 -8 -1 -14q0 -33 34 -33q24 0 59 15l-8 -47q-38 -14 -72 -14t-52 20t-18 53v7q-98 -81 -179 -81q-45 0 -68 29l-33 -217h-57l101 575h-78l8 48h136l-51 -288q-3 -17 -3 -32z" />
    <glyph glyph-name="paragraph" unicode="&#xb6;" horiz-adv-x="574" 
d="M205 145q-69 0 -115.5 45.5t-46.5 113.5q0 85 69 148.5t158 63.5h304l-6 -38h-88l-91 -515h88l-7 -38h-359l7 38h104l33 182h-50zM267 -37h77l91 515h-77z" />
    <glyph glyph-name="periodcentered" unicode="&#xb7;" horiz-adv-x="212" 
d="M104 204q-19 0 -32.5 14t-13.5 33t13.5 33t32.5 14t33 -14t14 -33t-14 -33t-33 -14z" />
    <glyph glyph-name="cedilla" unicode="&#xb8;" horiz-adv-x="293" 
d="M114 -196q-47 0 -81 16l12 36q31 -14 66 -14q57 0 57 36q0 41 -75 41l4 17l58 88l31 -11l-37 -68q71 -9 71 -67q0 -37 -29.5 -55.5t-76.5 -18.5z" />
    <glyph glyph-name="onesuperior" unicode="&#xb9;" horiz-adv-x="295" 
d="M224 738q-44 -29 -73 -29t-29 22q0 5 2 13l114 39h44l-60 -337h75l-7 -43h-211l7 43h87z" />
    <glyph glyph-name="ordmasculine" unicode="&#xba;" horiz-adv-x="390" 
d="M58 211l6 34h258l-6 -34h-258zM330.5 343.5q-45.5 -48.5 -114.5 -48.5q-136 0 -136 126q0 75 48 125t115 50q133 0 133 -129q0 -75 -45.5 -123.5zM130 422q0 -89 86 -89q45 0 78 39t33 89q0 97 -78 97q-51 0 -85 -39.5t-34 -96.5z" />
    <glyph glyph-name="guillemotright" unicode="&#xbb;" horiz-adv-x="504" 
d="M218 83l187 183l-116 172h63l116 -176l-1 -4l-178 -175h-71zM8 83l188 183l-117 172h63l117 -176l-1 -4l-178 -175h-72z" />
    <glyph glyph-name="onequarter" unicode="&#xbc;" horiz-adv-x="765" 
d="M185 565q-48 -28 -66 -28t-25 9t-2 25l107 38h43l-57 -321h71l-7 -40h-200l7 40h81zM599 369q21 0 21 -21q0 -33 -43.5 -100.5t-93.5 -112.5h135l10 49q26 38 37 61h18l-20 -110h52l-7 -37h-51l-11 -62h49l-6 -36h-161l6 36h65l11 62h-183l-2 31q54 53 98 118t60 120
q9 2 16 2zM186 -10l-31 22l462 605l30 -22z" />
    <glyph glyph-name="onehalf" unicode="&#xbd;" horiz-adv-x="794" 
d="M700 274q0 57 -70 57q-40 0 -67 -15q3 -6 3 -18.5t-9.5 -22t-25 -9.5t-24 9.5t-8.5 21.5q0 29 41 51t94.5 22t84.5 -23.5t31 -64.5t-20 -77t-54 -67q-64 -57 -140 -97h188l-8 -41h-256l-10 30q9 6 42.5 27t55 34.5t53.5 38.5t51 46q48 51 48 98zM183 565q-50 -28 -67 -28
q-36 0 -27 34l107 38h43l-57 -321h71l-7 -40h-200l7 40h81zM178 -10l-31 22l461 605l31 -22z" />
    <glyph glyph-name="threequarters" unicode="&#xbe;" horiz-adv-x="792" 
d="M279 272.5q-43 -32.5 -98 -32.5t-93.5 17.5t-38.5 45.5q0 14 9.5 24t24.5 10t23.5 -7.5t8.5 -17.5t-8 -21q30 -13 69 -13t67.5 21.5t28.5 55.5q0 60 -92 60h-30l6 39h30q48 0 77 19t29 52q0 55 -73 55q-33 0 -61 -11q4 -5 4 -17t-10 -21.5t-25.5 -9.5t-24 9.5t-8.5 21.5
q0 28 39.5 47t92 19t84.5 -23.5t32 -61.5t-22.5 -63.5t-62.5 -34.5q65 -16 65 -79q0 -51 -43 -83.5zM627 369q21 0 21 -21q0 -33 -44 -100.5t-93 -112.5h135l9 49q23 30 38 61h18l-20 -110h51l-6 -37h-51l-11 -62h49l-7 -36h-160l6 36h65l11 62h-183l-2 31q54 53 98 118
t60 120q9 2 16 2zM214 -10l-31 22l461 605l31 -22z" />
    <glyph glyph-name="questiondown" unicode="&#xbf;" horiz-adv-x="362" 
d="M256 -172q-66 -22 -128.5 -22t-102.5 33.5t-40 94.5q0 43 21.5 80.5t51.5 64.5l60 54q74 65 72 135h54q1 -45 -19 -84t-50 -67t-60 -54q-72 -62 -72 -126q0 -83 100 -83q54 0 122 24zM228 341q-19 0 -33 14t-14 33t14 33t33 14t33 -14t14 -33t-14 -33t-33 -14z" />
    <glyph glyph-name="Agrave" unicode="&#xc0;" 
d="M-46 0l8 50h86l290 509h-91l8 50h183l124 -559h86l-9 -50h-246l9 50h100l-33 152h-272l-86 -152h101l-9 -50h-249zM225 252h234l-64 299zM435 671l-154 128l41 43l136 -147z" />
    <glyph glyph-name="Aacute" unicode="&#xc1;" 
d="M-46 0l8 50h86l290 509h-91l8 50h183l124 -559h86l-9 -50h-246l9 50h100l-33 152h-272l-86 -152h101l-9 -50h-249zM225 252h234l-64 299zM357 671l-20 26l165 146l36 -47z" />
    <glyph glyph-name="Acircumflex" unicode="&#xc2;" 
d="M-46 0l8 50h86l290 509h-91l8 50h183l124 -559h86l-9 -50h-246l9 50h100l-33 152h-272l-86 -152h101l-9 -50h-249zM225 252h234l-64 299zM256 671l-15 21l161 127h36l106 -129l-19 -19l-114 89z" />
    <glyph glyph-name="Atilde" unicode="&#xc3;" 
d="M-46 0l8 50h86l290 509h-91l8 50h183l124 -559h86l-9 -50h-246l9 50h100l-33 152h-272l-86 -152h101l-9 -50h-249zM225 252h234l-64 299zM306 776q17 8 40.5 8t67 -28.5t64.5 -28.5q34 0 70 57l26 -16q-51 -92 -107 -92q-27 0 -71 28.5t-64 28.5q-32 0 -70 -58l-27 16
q43 70 71 85z" />
    <glyph glyph-name="Adieresis" unicode="&#xc4;" 
d="M-46 0l8 50h86l290 509h-91l8 50h183l124 -559h86l-9 -50h-246l9 50h100l-33 152h-272l-86 -152h101l-9 -50h-249zM225 252h234l-64 299zM317 677q-17 0 -29 12.5t-12 29t12 29t29 12.5t29 -12.5t12 -29.5t-12 -29t-29 -12zM520.5 689.5q-12.5 -12.5 -29 -12.5t-29 12
t-12.5 29t12.5 29.5t29.5 12.5t29 -12.5t12 -29t-12.5 -29z" />
    <glyph glyph-name="Aring" unicode="&#xc5;" 
d="M-46 0l8 50h86l290 509h-91l8 50h183l124 -559h86l-9 -50h-246l9 50h100l-33 152h-272l-86 -152h101l-9 -50h-249zM225 252h234l-64 299zM494 697.5q-33 -34.5 -83 -34.5t-76 25t-26 68t33 77t83 34t76 -25t26 -67.5t-33 -77zM409 701q32 0 51 22.5t19 49.5q0 57 -52 57
q-32 0 -51.5 -22.5t-19.5 -52.5q0 -54 53 -54z" />
    <glyph glyph-name="AE" unicode="&#xc6;" horiz-adv-x="934" 
d="M-52 0l9 49h83l437 511h-85l8 49h543l-28 -164h-56l20 114h-262l-40 -227h265l-9 -50h-265l-41 -232h263l21 114h56l-29 -164h-474l9 50h96l27 153h-257l-131 -154h89l-8 -49h-241zM280 252h225l54 307h-18z" />
    <glyph glyph-name="Ccedilla" unicode="&#xc7;" horiz-adv-x="603" 
d="M360.5 -180q-29.5 -19 -77 -19t-82.5 16l12 37q33 -14 67 -14q58 0 58 37q0 40 -77 40l4 19l36 54q-112 9 -181.5 80.5t-69.5 192.5q0 147 99.5 252.5t262.5 105.5q108 0 204 -43l-24 -143h-57l20 112q-64 23 -142 23q-132 0 -217 -88t-85 -209.5t65 -177t162 -55.5
t206 59l-10 -59q-95 -50 -192 -52l-24 -43q33 -4 52.5 -21.5t19.5 -51t-29.5 -52.5z" />
    <glyph glyph-name="Egrave" unicode="&#xc8;" horiz-adv-x="568" 
d="M-8 0l9 50h97l90 509h-97l8 50h478l-28 -164h-56l19 114h-264l-40 -227h268l-9 -50h-267l-41 -232h265l21 114h56l-29 -164h-480zM407 671l-154 128l42 43l135 -147z" />
    <glyph glyph-name="Eacute" unicode="&#xc9;" horiz-adv-x="568" 
d="M-8 0l9 50h97l90 509h-97l8 50h478l-28 -164h-56l19 114h-264l-40 -227h268l-9 -50h-267l-41 -232h265l21 114h56l-29 -164h-480zM322 671l-20 26l165 146l37 -47z" />
    <glyph glyph-name="Ecircumflex" unicode="&#xca;" horiz-adv-x="568" 
d="M-8 0l9 50h97l90 509h-97l8 50h478l-28 -164h-56l19 114h-264l-40 -227h268l-9 -50h-267l-41 -232h265l21 114h56l-29 -164h-480zM232 671l-16 21l162 127h36l105 -129l-18 -19l-114 89z" />
    <glyph glyph-name="Edieresis" unicode="&#xcb;" horiz-adv-x="568" 
d="M-8 0l9 50h97l90 509h-97l8 50h478l-28 -164h-56l19 114h-264l-40 -227h268l-9 -50h-267l-41 -232h265l21 114h56l-29 -164h-480zM283 677q-17 0 -29 12t-12 29t12 29.5t29 12.5t29 -12.5t12 -29.5t-12 -29t-29 -12zM486.5 689.5q-12.5 -12.5 -29 -12.5t-29 12t-12.5 29
t12.5 29.5t29.5 12.5t29 -12.5t12 -29t-12.5 -29z" />
    <glyph glyph-name="Igrave" unicode="&#xcc;" horiz-adv-x="328" 
d="M-8 0l9 50h97l90 509h-97l8 50h254l-8 -50h-97l-89 -509h96l-9 -50h-254zM291 671l-154 128l42 43l135 -147z" />
    <glyph glyph-name="Iacute" unicode="&#xcd;" horiz-adv-x="328" 
d="M-8 0l9 50h97l90 509h-97l8 50h254l-8 -50h-97l-89 -509h96l-9 -50h-254zM194 671l-21 26l165 146l37 -47z" />
    <glyph glyph-name="Icircumflex" unicode="&#xce;" horiz-adv-x="328" 
d="M-8 0l9 50h97l90 509h-97l8 50h254l-8 -50h-97l-89 -509h96l-9 -50h-254zM104 671l-15 21l161 127h37l105 -129l-19 -19l-113 89z" />
    <glyph glyph-name="Idieresis" unicode="&#xcf;" horiz-adv-x="328" 
d="M-8 0l9 50h97l90 509h-97l8 50h254l-8 -50h-97l-89 -509h96l-9 -50h-254zM157 677q-17 0 -29.5 12t-12.5 29t12.5 29.5t29.5 12.5t29 -12.5t12 -29t-12 -29t-29 -12.5zM331 677q-17 0 -29 12t-12 29t12 29.5t29 12.5t29 -12.5t12 -29.5t-12 -29t-29 -12z" />
    <glyph glyph-name="Eth" unicode="&#xd0;" 
d="M365 609q124 0 199 -65t75 -197q0 -156 -105 -251.5t-265 -95.5h-277l9 50h97l41 232h-87l9 50h87l40 227h-97l8 50h266zM270 50q134 0 220.5 82t86.5 214q0 103 -56 158t-161 55h-111l-41 -227h175l-8 -50h-175l-41 -232h111z" />
    <glyph glyph-name="Ntilde" unicode="&#xd1;" horiz-adv-x="735" 
d="M-8 0l9 50h97l90 509h-97l8 50h156l272 -517l82 467h-97l9 50h251l-9 -50h-96l-99 -559h-54l-276 521l-83 -471h97l-9 -50h-251zM351 775q17 9 40 9t66.5 -28.5t64.5 -28.5q35 0 71 57l26 -16q-51 -92 -108 -92q-27 0 -70.5 28.5t-63.5 28.5q-33 0 -71 -58l-26 16
q37 66 71 84z" />
    <glyph glyph-name="Ograve" unicode="&#xd2;" horiz-adv-x="705" 
d="M319 -12q-125 0 -197 75.5t-72 197.5q0 148 100.5 254t252.5 106q125 0 197.5 -75t72.5 -197q0 -149 -100.5 -255t-253.5 -106zM321 39q120 0 205 89t85 219q0 103 -57 162.5t-152 59.5q-121 0 -205.5 -89t-84.5 -218q0 -103 57 -163t152 -60zM465 675l-154 128l42 43
l135 -147z" />
    <glyph glyph-name="Oacute" unicode="&#xd3;" horiz-adv-x="705" 
d="M319 -12q-125 0 -197 75.5t-72 197.5q0 148 100.5 254t252.5 106q125 0 197.5 -75t72.5 -197q0 -149 -100.5 -255t-253.5 -106zM321 39q120 0 205 89t85 219q0 103 -57 162.5t-152 59.5q-121 0 -205.5 -89t-84.5 -218q0 -103 57 -163t152 -60zM379 675l-21 26l165 146
l37 -47z" />
    <glyph glyph-name="Ocircumflex" unicode="&#xd4;" horiz-adv-x="705" 
d="M319 -12q-125 0 -197 75.5t-72 197.5q0 148 100.5 254t252.5 106q125 0 197.5 -75t72.5 -197q0 -149 -100.5 -255t-253.5 -106zM321 39q120 0 205 89t85 219q0 103 -57 162.5t-152 59.5q-121 0 -205.5 -89t-84.5 -218q0 -103 57 -163t152 -60zM291 674l-16 21l162 127h36
l105 -129l-18 -19l-114 89z" />
    <glyph glyph-name="Otilde" unicode="&#xd5;" horiz-adv-x="705" 
d="M319 -12q-125 0 -197 75.5t-72 197.5q0 148 100.5 254t252.5 106q125 0 197.5 -75t72.5 -197q0 -149 -100.5 -255t-253.5 -106zM321 39q120 0 205 89t85 219q0 103 -57 162.5t-152 59.5q-121 0 -205.5 -89t-84.5 -218q0 -103 57 -163t152 -60zM334 778q16 9 39.5 9
t67 -28.5t64.5 -28.5q34 0 70 57l26 -16q-51 -92 -107 -92q-27 0 -71 28.5t-64 28.5q-32 0 -70 -58l-27 16q43 70 72 84z" />
    <glyph glyph-name="Odieresis" unicode="&#xd6;" horiz-adv-x="705" 
d="M319 -12q-125 0 -197 75.5t-72 197.5q0 148 100.5 254t252.5 106q125 0 197.5 -75t72.5 -197q0 -149 -100.5 -255t-253.5 -106zM321 39q120 0 205 89t85 219q0 103 -57 162.5t-152 59.5q-121 0 -205.5 -89t-84.5 -218q0 -103 57 -163t152 -60zM343 680q-17 0 -29 12
t-12 29t12 29.5t29 12.5t29.5 -12.5t12.5 -29.5t-12.5 -29t-29.5 -12zM518 680q-17 0 -29 12t-12 29t12 29.5t29 12.5t29 -12.5t12 -29.5t-12 -29t-29 -12z" />
    <glyph glyph-name="multiply" unicode="&#xd7;" horiz-adv-x="470" 
d="M47 47l-31 37l179 152l-125 152l39 33l125 -153l183 157l31 -37l-181 -154l127 -154l-39 -33l-127 154z" />
    <glyph glyph-name="Oslash" unicode="&#xd8;" horiz-adv-x="701" 
d="M316 -12q-115 0 -186 65l-67 -68l-24 23l68 69q-60 72 -60 182q0 146 101.5 254t252.5 108q112 0 185 -65l68 68l24 -23l-69 -69q61 -74 61 -182q0 -147 -101 -254.5t-253 -107.5zM317 39q121 0 206 91t85 219q0 85 -41 140l-396 -395q58 -55 146 -55zM399 569
q-120 0 -205 -90.5t-85 -218.5q0 -86 40 -141l396 396q-56 54 -146 54z" />
    <glyph glyph-name="Ugrave" unicode="&#xd9;" horiz-adv-x="687" 
d="M475 44.5q-67 -56.5 -172.5 -56.5t-159.5 62q-41 46 -41 116q0 23 5 49l61 344h-97l9 50h254l-9 -50h-96l-63 -354q-4 -21 -4 -39q0 -51 29 -82q39 -42 115.5 -42t130 42.5t67.5 120.5l62 354h-97l8 50h252l-9 -50h-96l-63 -356q-19 -102 -86 -158.5zM450 671l-154 128
l42 43l135 -147z" />
    <glyph glyph-name="Uacute" unicode="&#xda;" horiz-adv-x="687" 
d="M475 44.5q-67 -56.5 -172.5 -56.5t-159.5 62q-41 46 -41 116q0 23 5 49l61 344h-97l9 50h254l-9 -50h-96l-63 -354q-4 -21 -4 -39q0 -51 29 -82q39 -42 115.5 -42t130 42.5t67.5 120.5l62 354h-97l8 50h252l-9 -50h-96l-63 -356q-19 -102 -86 -158.5zM377 671l-20 26
l165 146l36 -47z" />
    <glyph glyph-name="Ucircumflex" unicode="&#xdb;" horiz-adv-x="687" 
d="M475 44.5q-67 -56.5 -172.5 -56.5t-159.5 62q-41 46 -41 116q0 23 5 49l61 344h-97l9 50h254l-9 -50h-96l-63 -354q-4 -21 -4 -39q0 -51 29 -82q39 -42 115.5 -42t130 42.5t67.5 120.5l62 354h-97l8 50h252l-9 -50h-96l-63 -356q-19 -102 -86 -158.5zM279 671l-15 21
l161 127h36l106 -129l-19 -19l-113 89z" />
    <glyph glyph-name="Udieresis" unicode="&#xdc;" horiz-adv-x="687" 
d="M475 44.5q-67 -56.5 -172.5 -56.5t-159.5 62q-41 46 -41 116q0 23 5 49l61 344h-97l9 50h254l-9 -50h-96l-63 -354q-4 -21 -4 -39q0 -51 29 -82q39 -42 115.5 -42t130 42.5t67.5 120.5l62 354h-97l8 50h252l-9 -50h-96l-63 -356q-19 -102 -86 -158.5zM363.5 689
q-12.5 -12 -29 -12t-29 12.5t-12.5 29t12 29t29 12.5t29.5 -12.5t12.5 -29.5t-12.5 -29zM509 677q-17 0 -29 12t-12 29t12 29.5t29 12.5t29 -12.5t12 -29.5t-12 -29t-29 -12z" />
    <glyph glyph-name="Yacute" unicode="&#xdd;" horiz-adv-x="620" 
d="M134 0l9 50h98l31 177l-143 332h-85l9 50h247l-9 -50h-100l118 -278l214 278h-99l9 50h253l-9 -50h-85l-259 -330l-32 -179h98l-9 -50h-256zM343 671l-21 26l166 146l36 -47z" />
    <glyph glyph-name="Thorn" unicode="&#xde;" horiz-adv-x="562" 
d="M329 487q60 0 105.5 -14t76.5 -51.5t31 -95.5q0 -97 -76 -145.5t-189 -48.5h-106l-15 -84h113l-9 -48h-268l9 49h95l90 511h-95l8 49h268l-8 -48h-113l-13 -74h96zM281 181q97 0 148.5 39t51.5 106q0 111 -155 111h-101l-45 -256h101z" />
    <glyph glyph-name="germandbls" unicode="&#xdf;" horiz-adv-x="517" 
d="M-47 -210q-31 0 -63 8l8 46q20 -6 50 -6q70 0 84 75l81 463h-87l8 48h87l19 110q14 82 66 133t139 51q67 0 108 -31.5t41 -95.5q0 -41 -19.5 -76.5t-42.5 -56t-42.5 -48.5t-19.5 -53t14 -51t31.5 -46t31.5 -53t14 -68q0 -68 -49 -107.5t-128 -39.5q-50 0 -100 16l9 47
q42 -15 91 -15t84 24t35 75q0 30 -14 59t-31.5 48.5t-31.5 48.5t-14 59.5t13 56.5t31 45.5t36 37.5q45 45 45 90q0 86 -92 86q-66 0 -101 -41t-46 -98l-108 -617q-23 -124 -137 -124z" />
    <glyph glyph-name="agrave" unicode="&#xe0;" horiz-adv-x="536" 
d="M194 -11q-73 0 -119 51t-46 141q0 110 66 182t158 72q104 0 142 -96l15 85h59l-60 -339q-1 -8 -1 -14q0 -33 34 -33q24 0 59 15l-8 -49q-38 -14 -71.5 -14t-51 19.5t-17.5 50.5q0 6 1 13q-64 -84 -160 -84zM208 36q72 0 121.5 62.5t49.5 136.5t-31 113t-88 39
q-72 0 -121.5 -59t-49.5 -136.5t32 -116.5t87 -39zM335 506l-153 127l41 44l134 -147z" />
    <glyph glyph-name="aacute" unicode="&#xe1;" horiz-adv-x="536" 
d="M194 -11q-73 0 -119 51t-46 141q0 110 66 182t158 72q104 0 142 -96l15 85h59l-60 -339q-1 -8 -1 -14q0 -33 34 -33q24 0 59 15l-8 -49q-38 -14 -71.5 -14t-51 19.5t-17.5 50.5q0 6 1 13q-64 -84 -160 -84zM208 36q72 0 121.5 62.5t49.5 136.5t-31 113t-88 39
q-72 0 -121.5 -59t-49.5 -136.5t32 -116.5t87 -39zM263 506l-20 25l164 146l37 -47z" />
    <glyph glyph-name="acircumflex" unicode="&#xe2;" horiz-adv-x="536" 
d="M194 -11q-73 0 -119 51t-46 141q0 110 66 182t158 72q104 0 142 -96l15 85h59l-60 -339q-1 -8 -1 -14q0 -33 34 -33q24 0 59 15l-8 -49q-38 -14 -71.5 -14t-51 19.5t-17.5 50.5q0 6 1 13q-64 -84 -160 -84zM208 36q72 0 121.5 62.5t49.5 136.5t-31 113t-88 39
q-72 0 -121.5 -59t-49.5 -136.5t32 -116.5t87 -39zM153 505l-14 20l160 127h36l103 -128l-18 -19l-112 89z" />
    <glyph glyph-name="atilde" unicode="&#xe3;" horiz-adv-x="536" 
d="M194 -11q-73 0 -119 51t-46 141q0 110 66 182t158 72q104 0 142 -96l15 85h59l-60 -339q-1 -8 -1 -14q0 -33 34 -33q24 0 59 15l-8 -49q-38 -14 -71.5 -14t-51 19.5t-17.5 50.5q0 6 1 13q-64 -84 -160 -84zM208 36q72 0 121.5 62.5t49.5 136.5t-31 113t-88 39
q-72 0 -121.5 -59t-49.5 -136.5t32 -116.5t87 -39zM206 612q17 9 40 9t64 -28t62 -28q35 0 71 57l25 -16q-51 -92 -107 -92q-27 0 -68 28.5t-62 28.5q-32 0 -70 -58l-26 16q42 69 71 83z" />
    <glyph glyph-name="adieresis" unicode="&#xe4;" horiz-adv-x="536" 
d="M194 -11q-73 0 -119 51t-46 141q0 110 66 182t158 72q104 0 142 -96l15 85h59l-60 -339q-1 -8 -1 -14q0 -33 34 -33q24 0 59 15l-8 -49q-38 -14 -71.5 -14t-51 19.5t-17.5 50.5q0 6 1 13q-64 -84 -160 -84zM208 36q72 0 121.5 62.5t49.5 136.5t-31 113t-88 39
q-72 0 -121.5 -59t-49.5 -136.5t32 -116.5t87 -39zM212 517q-17 0 -28.5 12t-11.5 29t11.5 28.5t28.5 11.5t29 -11.5t12 -28.5t-12 -29t-29 -12zM382 517q-17 0 -28.5 12t-11.5 28.5t12 28.5t28.5 12t28.5 -11.5t12 -28.5t-12 -29t-29 -12z" />
    <glyph glyph-name="aring" unicode="&#xe5;" horiz-adv-x="536" 
d="M194 -11q-73 0 -119 51t-46 141q0 110 66 182t158 72q104 0 142 -96l15 85h59l-60 -339q-1 -8 -1 -14q0 -33 34 -33q24 0 59 15l-8 -49q-38 -14 -71.5 -14t-51 19.5t-17.5 50.5q0 6 1 13q-64 -84 -160 -84zM208 36q72 0 121.5 62.5t49.5 136.5t-31 113t-88 39
q-72 0 -121.5 -59t-49.5 -136.5t32 -116.5t87 -39zM385 537.5q-33 -34.5 -83 -34.5t-76 25t-26 68t33.5 77t83.5 34t75.5 -25t25.5 -67.5t-33 -77zM300 541q32 0 51.5 22.5t19.5 49t-13.5 42t-42 15.5t-48 -22.5t-19.5 -52.5q0 -54 52 -54z" />
    <glyph glyph-name="ae" unicode="&#xe6;" horiz-adv-x="684" 
d="M131 -11q-55 0 -89.5 28.5t-34.5 83.5q0 135 242 135h54l8 47q3 16 3 38t-14 40q-19 26 -81 26t-147 -29l9 48q78 29 149 29q120 0 129 -94q31 44 76 69t99 25t84 -27t30 -73q0 -139 -294 -146v-8q0 -69 33 -107t98.5 -38t135.5 35l-10 -53q-56 -29 -129 -29
q-114 0 -160 81q-104 -81 -191 -81zM144 36q72 0 161 72q-8 28 -8 52v32h-39q-142 0 -177 -41q-16 -19 -16 -50.5t21.5 -48t57.5 -16.5zM595 335q0 53 -63.5 53t-110 -42.5t-60.5 -110.5q234 4 234 100z" />
    <glyph glyph-name="ccedilla" unicode="&#xe7;" horiz-adv-x="405" 
d="M159 -196q-47 0 -81 16l12 36q31 -14 66 -14q57 0 57 36q0 41 -75 41l4 17l36 55q-70 10 -109.5 59.5t-39.5 129.5q0 104 64.5 179.5t174.5 75.5q69 0 125 -28l-9 -46q-56 26 -112 26q-84 0 -133.5 -60t-49.5 -136.5t35 -115.5t97.5 -39t122.5 24l-9 -49
q-58 -21 -117 -22l-24 -44q71 -9 71 -67q0 -37 -29.5 -55.5t-76.5 -18.5z" />
    <glyph glyph-name="egrave" unicode="&#xe8;" horiz-adv-x="417" 
d="M343 18q-56 -29 -135.5 -29t-129.5 49t-50 140q0 110 68.5 183.5t165.5 73.5q57 0 88 -27t31 -70.5t-26.5 -75t-70.5 -48.5q-85 -34 -198 -38q3 -140 133 -140q66 0 134 35zM256.5 253.5q70.5 27.5 70.5 81t-64.5 53.5t-112.5 -46t-61 -119q97 3 167.5 30.5zM299 506
l-153 127l41 44l135 -147z" />
    <glyph glyph-name="eacute" unicode="&#xe9;" horiz-adv-x="417" 
d="M343 18q-56 -29 -135.5 -29t-129.5 49t-50 140q0 110 68.5 183.5t165.5 73.5q57 0 88 -27t31 -70.5t-26.5 -75t-70.5 -48.5q-85 -34 -198 -38q3 -140 133 -140q66 0 134 35zM256.5 253.5q70.5 27.5 70.5 81t-64.5 53.5t-112.5 -46t-61 -119q97 3 167.5 30.5zM215 506
l-20 25l164 146l37 -47z" />
    <glyph glyph-name="ecircumflex" unicode="&#xea;" horiz-adv-x="417" 
d="M343 18q-56 -29 -135.5 -29t-129.5 49t-50 140q0 110 68.5 183.5t165.5 73.5q57 0 88 -27t31 -70.5t-26.5 -75t-70.5 -48.5q-85 -34 -198 -38q3 -140 133 -140q66 0 134 35zM256.5 253.5q70.5 27.5 70.5 81t-64.5 53.5t-112.5 -46t-61 -119q97 3 167.5 30.5zM127 505
l-15 20l160 127h36l103 -128l-17 -19l-113 89z" />
    <glyph glyph-name="edieresis" unicode="&#xeb;" horiz-adv-x="417" 
d="M343 18q-56 -29 -135.5 -29t-129.5 49t-50 140q0 110 68.5 183.5t165.5 73.5q57 0 88 -27t31 -70.5t-26.5 -75t-70.5 -48.5q-85 -34 -198 -38q3 -140 133 -140q66 0 134 35zM256.5 253.5q70.5 27.5 70.5 81t-64.5 53.5t-112.5 -46t-61 -119q97 3 167.5 30.5zM182 517
q-17 0 -28.5 12t-11.5 28.5t12 28.5t28.5 12t28.5 -11.5t12 -28.5t-12 -29t-29 -12zM353 517q-17 0 -29 12t-12 29t12 28.5t29 11.5t28.5 -12t11.5 -28.5t-11.5 -28.5t-28.5 -12z" />
    <glyph glyph-name="igrave" unicode="&#xec;" horiz-adv-x="245" 
d="M134 -10q-46 0 -64 28q-13 19 -13 39t2 33l51 286h-79l8 48h137l-59 -339q-1 -8 -1 -14q0 -33 34 -33q24 0 59 15l-9 -49q-38 -14 -66 -14zM194 506l-153 127l41 44l134 -147z" />
    <glyph glyph-name="iacute" unicode="&#xed;" horiz-adv-x="245" 
d="M134 -10q-46 0 -64 28q-13 19 -13 39t2 33l51 286h-79l8 48h137l-59 -339q-1 -8 -1 -14q0 -33 34 -33q24 0 59 15l-9 -49q-38 -14 -66 -14zM102 506l-20 25l164 146l37 -47z" />
    <glyph glyph-name="icircumflex" unicode="&#xee;" horiz-adv-x="245" 
d="M134 -10q-46 0 -64 28q-13 19 -13 39t2 33l51 286h-79l8 48h137l-59 -339q-1 -8 -1 -14q0 -33 34 -33q24 0 59 15l-9 -49q-38 -14 -66 -14zM3 505l-15 20l160 127h37l103 -128l-18 -19l-112 89z" />
    <glyph glyph-name="idieresis" unicode="&#xef;" horiz-adv-x="245" 
d="M134 -10q-46 0 -64 28q-13 19 -13 39t2 33l51 286h-79l8 48h137l-59 -339q-1 -8 -1 -14q0 -33 34 -33q24 0 59 15l-9 -49q-38 -14 -66 -14zM62 517q-17 0 -28.5 12t-11.5 28.5t12 28.5t28.5 12t28.5 -11.5t12 -28.5t-12 -29t-29 -12zM233 517q-17 0 -29 12t-12 29
t12 28.5t29 11.5t28.5 -12t11.5 -28.5t-11.5 -28.5t-28.5 -12z" />
    <glyph glyph-name="eth" unicode="&#xf0;" horiz-adv-x="488" 
d="M72.5 38q-44.5 49 -44.5 131q0 104 65 176.5t158.5 72.5t133.5 -67q-4 136 -91 240l-115 -83l-18 28l111 80q-27 31 -79 70l38 32q53 -37 86 -72l89 64l18 -27l-85 -61q106 -128 106 -313q0 -87 -21.5 -152t-58.5 -100q-72 -68 -160 -68t-132.5 49zM204 36q73 0 123 57
t50 143q0 65 -30 100.5t-86 35.5q-74 0 -123.5 -58.5t-49.5 -143.5q0 -65 30.5 -99.5t85.5 -34.5z" />
    <glyph glyph-name="ntilde" unicode="&#xf1;" horiz-adv-x="532" 
d="M343 435q56 0 84 -39q20 -27 20 -68q0 -18 -4 -38l-35 -205q-2 -8 -2 -15q0 -32 35 -32q24 0 59 15l-9 -49q-38 -14 -75 -14t-55 28q-12 19 -12 38.5t2 33.5l34 197q3 19 3 34q0 64 -64 64t-167 -88l-52 -297h-58l66 376h-79l9 48h135l-12 -71q100 82 177 82zM194.5 603
q23.5 18 49.5 18t66.5 -28t61.5 -28q35 0 71 57l26 -16q-51 -92 -108 -92q-27 0 -68 28.5t-61 28.5q-34 0 -70 -58l-26 16q14 25 24.5 40.5t34 33.5z" />
    <glyph glyph-name="ograve" unicode="&#xf2;" horiz-adv-x="491" 
d="M208 -11q-82 0 -131 50t-49 149t67.5 173t171.5 74q82 0 130.5 -50.5t48.5 -140.5q0 -109 -67.5 -182t-170.5 -73zM210 37q74 0 125 60.5t51 146.5q0 66 -31.5 104.5t-89.5 38.5q-74 0 -125.5 -61t-51.5 -147q0 -66 32 -104t90 -38zM333 506l-153 127l41 44l134 -147z
" />
    <glyph glyph-name="oacute" unicode="&#xf3;" horiz-adv-x="491" 
d="M208 -11q-82 0 -131 50t-49 149t67.5 173t171.5 74q82 0 130.5 -50.5t48.5 -140.5q0 -109 -67.5 -182t-170.5 -73zM210 37q74 0 125 60.5t51 146.5q0 66 -31.5 104.5t-89.5 38.5q-74 0 -125.5 -61t-51.5 -147q0 -66 32 -104t90 -38zM258 506l-20 25l164 146l37 -47z" />
    <glyph glyph-name="ocircumflex" unicode="&#xf4;" horiz-adv-x="491" 
d="M208 -11q-82 0 -131 50t-49 149t67.5 173t171.5 74q82 0 130.5 -50.5t48.5 -140.5q0 -109 -67.5 -182t-170.5 -73zM210 37q74 0 125 60.5t51 146.5q0 66 -31.5 104.5t-89.5 38.5q-74 0 -125.5 -61t-51.5 -147q0 -66 32 -104t90 -38zM153 505l-14 20l159 127h37l103 -128
l-18 -19l-112 89z" />
    <glyph glyph-name="otilde" unicode="&#xf5;" horiz-adv-x="491" 
d="M208 -11q-82 0 -131 50t-49 149t67.5 173t171.5 74q82 0 130.5 -50.5t48.5 -140.5q0 -109 -67.5 -182t-170.5 -73zM210 37q74 0 125 60.5t51 146.5q0 66 -31.5 104.5t-89.5 38.5q-74 0 -125.5 -61t-51.5 -147q0 -66 32 -104t90 -38zM198 612q17 9 40 9t63.5 -28t61.5 -28
q35 0 72 57l25 -16q-51 -92 -108 -92q-26 0 -67 28.5t-62 28.5q-32 0 -70 -58l-26 16q42 69 71 83z" />
    <glyph glyph-name="odieresis" unicode="&#xf6;" horiz-adv-x="491" 
d="M208 -11q-82 0 -131 50t-49 149t67.5 173t171.5 74q82 0 130.5 -50.5t48.5 -140.5q0 -109 -67.5 -182t-170.5 -73zM210 37q74 0 125 60.5t51 146.5q0 66 -31.5 104.5t-89.5 38.5q-74 0 -125.5 -61t-51.5 -147q0 -66 32 -104t90 -38zM213 517q-17 0 -28.5 12t-11.5 29
t11.5 28.5t28.5 11.5t29 -11.5t12 -28.5t-12 -29t-29 -12zM383 517q-17 0 -28.5 12t-11.5 28.5t11.5 28.5t28.5 12t29 -11.5t12 -28.5t-12 -29t-29 -12z" />
    <glyph glyph-name="divide" unicode="&#xf7;" horiz-adv-x="518" 
d="M50 212l7 45h404l-8 -45h-403zM260 55.5q-13 -12.5 -31.5 -12.5t-31 12.5t-12.5 31t12.5 31.5t31 13t31.5 -13t13 -31.5t-13 -31zM313 351.5q-13 -12.5 -31.5 -12.5t-31 12.5t-12.5 31t12.5 31.5t31 13t31.5 -13t13 -31.5t-13 -31z" />
    <glyph glyph-name="oslash" unicode="&#xf8;" horiz-adv-x="494" 
d="M210 -11q-80 0 -129 47l-56 -54l-21 21l58 55q-34 48 -34 121q0 108 68.5 182t172.5 74q82 0 130 -50l55 53l20 -20l-56 -55q32 -47 32 -119q0 -109 -68.5 -182t-171.5 -73zM211 37q75 0 127 60.5t52 146.5q0 42 -16 76l-253 -246q32 -37 90 -37zM267 387q-75 0 -127 -61
t-52 -147q0 -49 17 -79l254 246q-33 41 -92 41z" />
    <glyph glyph-name="ugrave" unicode="&#xf9;" horiz-adv-x="527" 
d="M164 -11q-56 0 -84 39q-20 26 -20 67q0 18 4 38l42 243h-79l9 48h136l-50 -288q-3 -19 -3 -34q0 -64 64 -64t167 88l52 298h59l-60 -341q-2 -8 -2 -15q0 -32 35 -32q24 0 59 15l-8 -47q-38 -14 -72 -14t-52.5 20.5t-18.5 52.5v7q-96 -81 -178 -81zM338 506l-153 127
l41 44l134 -147z" />
    <glyph glyph-name="uacute" unicode="&#xfa;" horiz-adv-x="527" 
d="M164 -11q-56 0 -84 39q-20 26 -20 67q0 18 4 38l42 243h-79l9 48h136l-50 -288q-3 -19 -3 -34q0 -64 64 -64t167 88l52 298h59l-60 -341q-2 -8 -2 -15q0 -32 35 -32q24 0 59 15l-8 -47q-38 -14 -72 -14t-52.5 20.5t-18.5 52.5v7q-96 -81 -178 -81zM257 506l-20 25
l164 146l37 -47z" />
    <glyph glyph-name="ucircumflex" unicode="&#xfb;" horiz-adv-x="527" 
d="M164 -11q-56 0 -84 39q-20 26 -20 67q0 18 4 38l42 243h-79l9 48h136l-50 -288q-3 -19 -3 -34q0 -64 64 -64t167 88l52 298h59l-60 -341q-2 -8 -2 -15q0 -32 35 -32q24 0 59 15l-8 -47q-38 -14 -72 -14t-52.5 20.5t-18.5 52.5v7q-96 -81 -178 -81zM159 505l-14 20
l160 127h36l103 -128l-18 -19l-112 89z" />
    <glyph glyph-name="udieresis" unicode="&#xfc;" horiz-adv-x="527" 
d="M164 -11q-56 0 -84 39q-20 26 -20 67q0 18 4 38l42 243h-79l9 48h136l-50 -288q-3 -19 -3 -34q0 -64 64 -64t167 88l52 298h59l-60 -341q-2 -8 -2 -15q0 -32 35 -32q24 0 59 15l-8 -47q-38 -14 -72 -14t-52.5 20.5t-18.5 52.5v7q-96 -81 -178 -81zM214 517
q-17 0 -28.5 12t-11.5 29t11.5 28.5t28.5 11.5t29 -11.5t12 -28.5t-12 -29t-29 -12zM384 517q-17 0 -28.5 12t-11.5 28.5t12 28.5t28.5 12t28.5 -11.5t12 -28.5t-12 -29t-29 -12z" />
    <glyph glyph-name="yacute" unicode="&#xfd;" horiz-adv-x="462" 
d="M-15 -210q-55 0 -102 41l26 36q33 -29 72 -29q56 0 129 64t131.5 149.5t99.5 170.5t41 123.5t-29 38.5t-64 -26l-21 36q50 40 93 40q78 0 78 -78q0 -51 -43.5 -145.5t-107.5 -188t-148.5 -163t-154.5 -69.5zM134 0l-43 376h-76l9 48h119l47 -424h-56zM229 506l-20 25
l164 146l37 -47z" />
    <glyph glyph-name="thorn" unicode="&#xfe;" horiz-adv-x="511" 
d="M243 -11q-106 0 -144 95l-50 -283h-59l151 858h-76l9 48h134l-62 -352q65 80 154 80q73 0 119 -51t46 -151.5t-64.5 -172t-157.5 -71.5zM146.5 75.5q31.5 -39.5 96.5 -39.5t114 59t49 136.5t-32.5 116.5t-87.5 39q-72 0 -121.5 -62t-49.5 -136t31.5 -113.5z" />
    <glyph glyph-name="ydieresis" unicode="&#xff;" horiz-adv-x="462" 
d="M-15 -210q-55 0 -102 41l26 36q33 -29 72 -29q56 0 129 64t131.5 149.5t99.5 170.5t41 123.5t-29 38.5t-64 -26l-21 36q50 40 93 40q78 0 78 -78q0 -51 -43.5 -145.5t-107.5 -188t-148.5 -163t-154.5 -69.5zM134 0l-43 376h-76l9 48h119l47 -424h-56zM184 517
q-17 0 -29 12t-12 29t12 28.5t29 11.5t28.5 -11.5t11.5 -28.5t-11.5 -29t-28.5 -12zM354 517q-17 0 -28.5 12t-11.5 29t11.5 28.5t28.5 11.5t29 -11.5t12 -28.5t-12 -29t-29 -12z" />
    <glyph glyph-name="Amacron" unicode="&#x100;" 
d="M-46 0l8 50h86l290 509h-91l8 50h183l124 -559h86l-9 -50h-246l9 50h100l-33 152h-272l-86 -152h101l-9 -50h-249zM225 252h234l-64 299zM265 679l9 47h260l-8 -47h-261z" />
    <glyph glyph-name="amacron" unicode="&#x101;" horiz-adv-x="536" 
d="M194 -11q-73 0 -119 51t-46 141q0 110 66 182t158 72q104 0 142 -96l15 85h59l-60 -339q-1 -8 -1 -14q0 -33 34 -33q24 0 59 15l-8 -49q-38 -14 -71.5 -14t-51 19.5t-17.5 50.5q0 6 1 13q-64 -84 -160 -84zM208 36q72 0 121.5 62.5t49.5 136.5t-31 113t-88 39
q-72 0 -121.5 -59t-49.5 -136.5t32 -116.5t87 -39zM163 527l8 46h257l-8 -46h-257z" />
    <glyph glyph-name="Abreve" unicode="&#x102;" 
d="M-46 0l8 50h86l290 509h-91l8 50h183l124 -559h86l-9 -50h-246l9 50h100l-33 152h-272l-86 -152h101l-9 -50h-249zM225 252h234l-64 299zM498.5 699.5q-41.5 -33.5 -101.5 -33.5t-89.5 34t-29.5 76q0 10 2 21h46q-1 -7 -1 -13q0 -31 19 -50.5t59 -19.5q82 0 104 83h46
q-13 -64 -54.5 -97.5z" />
    <glyph glyph-name="abreve" unicode="&#x103;" horiz-adv-x="536" 
d="M194 -11q-73 0 -119 51t-46 141q0 110 66 182t158 72q104 0 142 -96l15 85h59l-60 -339q-1 -8 -1 -14q0 -33 34 -33q24 0 59 15l-8 -49q-38 -14 -71.5 -14t-51 19.5t-17.5 50.5q0 6 1 13q-64 -84 -160 -84zM208 36q72 0 121.5 62.5t49.5 136.5t-31 113t-88 39
q-72 0 -121.5 -59t-49.5 -136.5t32 -116.5t87 -39zM396 545q-40 -33 -100 -33t-88.5 33.5t-28.5 76.5q0 10 1 20h46q-1 -7 -1 -13q0 -31 18.5 -50.5t58.5 -19.5q80 0 102 83h46q-14 -64 -54 -97z" />
    <glyph glyph-name="Aogonek" unicode="&#x104;" 
d="M597 -182q-40 -17 -78 -17q-83 0 -83 70.5t87 128.5h-130l9 50h100l-33 152h-272l-86 -152h101l-9 -50h-249l8 50h86l290 509h-91l8 50h183l124 -559h86l-9 -50h-57q-93 -56 -93 -118q0 -40 45 -40q32 0 66 17zM225 252h234l-64 299z" />
    <glyph glyph-name="aogonek" unicode="&#x105;" horiz-adv-x="536" 
d="M450 -179q-40 -17 -78 -17q-80 0 -80 67.5t94 127.5q-33 15 -33 59q0 7 1 15q-64 -84 -160 -84q-73 0 -119 51t-46 141q0 110 66 182t158 72q104 0 142 -96l15 85h59l-60 -339q-1 -8 -1 -14q0 -33 34 -33q24 0 59 15l-8 -49q-33 -13 -62 -14q-86 -55 -86 -109
q0 -37 42 -37q29 0 65 17zM208 36q72 0 121.5 62.5t49.5 136.5t-31 113t-88 39q-72 0 -121.5 -59t-49.5 -136.5t32 -116.5t87 -39z" />
    <glyph glyph-name="Cacute" unicode="&#x106;" horiz-adv-x="603" 
d="M334 -12q-125 0 -204.5 72.5t-79.5 211t99.5 244t262.5 105.5q108 0 204 -43l-24 -143h-57l20 112q-64 23 -142 23q-132 0 -217 -88t-85 -209.5t65 -177t162 -55.5t206 59l-10 -59q-98 -52 -200 -52zM387 675l-20 26l165 146l37 -47z" />
    <glyph glyph-name="cacute" unicode="&#x107;" horiz-adv-x="405" 
d="M214 -11q-86 0 -135.5 50.5t-49.5 147.5t64.5 172.5t174.5 75.5q69 0 125 -28l-9 -46q-56 26 -112 26q-84 0 -133.5 -60t-49.5 -136.5t35 -115.5t97.5 -39t122.5 24l-9 -49q-58 -22 -121 -22zM224 506l-20 25l164 146l37 -47z" />
    <glyph glyph-name="Ccircumflex" unicode="&#x108;" horiz-adv-x="603" 
d="M334 -12q-125 0 -204.5 72.5t-79.5 211t99.5 244t262.5 105.5q108 0 204 -43l-24 -143h-57l20 112q-64 23 -142 23q-132 0 -217 -88t-85 -209.5t65 -177t162 -55.5t206 59l-10 -59q-98 -52 -200 -52zM293 674l-16 21l162 127h36l105 -129l-18 -19l-114 89z" />
    <glyph glyph-name="ccircumflex" unicode="&#x109;" horiz-adv-x="405" 
d="M214 -11q-86 0 -135.5 50.5t-49.5 147.5t64.5 172.5t174.5 75.5q69 0 125 -28l-9 -46q-56 26 -112 26q-84 0 -133.5 -60t-49.5 -136.5t35 -115.5t97.5 -39t122.5 24l-9 -49q-58 -22 -121 -22zM139 505l-15 20l160 127h36l104 -128l-18 -19l-112 89z" />
    <glyph glyph-name="Cdotaccent" unicode="&#x10a;" horiz-adv-x="603" 
d="M334 -12q-125 0 -204.5 72.5t-79.5 211t99.5 244t262.5 105.5q108 0 204 -43l-24 -143h-57l20 112q-64 23 -142 23q-132 0 -217 -88t-85 -209.5t65 -177t162 -55.5t206 59l-10 -59q-98 -52 -200 -52zM469 690.5q-13 -13.5 -31.5 -13.5t-32 13t-13.5 32t13 32t32 13
t32 -13t13 -31.5t-13 -32z" />
    <glyph glyph-name="cdotaccent" unicode="&#x10b;" horiz-adv-x="405" 
d="M214 -11q-86 0 -135.5 50.5t-49.5 147.5t64.5 172.5t174.5 75.5q69 0 125 -28l-9 -46q-56 26 -112 26q-84 0 -133.5 -60t-49.5 -136.5t35 -115.5t97.5 -39t122.5 24l-9 -49q-58 -22 -121 -22zM323.5 531q-12.5 -13 -31 -13t-31.5 13t-13 31t13 31t31 13t31 -13t13 -31
t-12.5 -31z" />
    <glyph glyph-name="Ccaron" unicode="&#x10c;" horiz-adv-x="603" 
d="M334 -12q-125 0 -204.5 72.5t-79.5 211t99.5 244t262.5 105.5q108 0 204 -43l-24 -143h-57l20 112q-64 23 -142 23q-132 0 -217 -88t-85 -209.5t65 -177t162 -55.5t206 59l-10 -59q-98 -52 -200 -52zM413 677l-110 128l19 20l118 -89l152 89l16 -20l-158 -128h-37z" />
    <glyph glyph-name="ccaron" unicode="&#x10d;" horiz-adv-x="405" 
d="M214 -11q-86 0 -135.5 50.5t-49.5 147.5t64.5 172.5t174.5 75.5q69 0 125 -28l-9 -46q-56 26 -112 26q-84 0 -133.5 -60t-49.5 -136.5t35 -115.5t97.5 -39t122.5 24l-9 -49q-58 -22 -121 -22zM256 511l-107 128l18 19l115 -88l152 88l17 -19l-159 -128h-36z" />
    <glyph glyph-name="Dcaron" unicode="&#x10e;" 
d="M365 609q124 0 199 -65t75 -197q0 -156 -105.5 -251.5t-265.5 -95.5h-276l9 50h97l90 509h-97l8 50h266zM270 50q134 0 220.5 82t86.5 214q0 103 -56 158t-161 55h-112l-89 -509h111zM365 676l-110 129l18 19l119 -88l151 88l17 -20l-159 -128h-36z" />
    <glyph glyph-name="dcaron" unicode="&#x10f;" horiz-adv-x="536" 
d="M576 698q20 15 40 15t31.5 -13t11.5 -41t-26.5 -67.5t-70.5 -71.5l-24 21q63 65 63 110q0 32 -27 40zM194 -11q-73 0 -119 51t-46 141q0 110 66 182t158 72q104 0 142 -97l57 321h-92l9 48h150l-110 -622q-1 -8 -1 -14q0 -33 34 -33q24 0 59 15l-8 -49q-38 -14 -67 -14
q-73 0 -73 70q0 6 1 13q-64 -84 -160 -84zM208 36q72 0 121.5 62.5t49.5 136.5t-31 113t-88 39q-72 0 -121.5 -59t-49.5 -136.5t32 -116.5t87 -39z" />
    <glyph glyph-name="Dcroat" unicode="&#x110;" 
d="M365 609q124 0 199 -65t75 -197q0 -156 -105 -251.5t-265 -95.5h-277l9 50h97l41 232h-87l9 50h87l40 227h-97l8 50h266zM270 50q134 0 220.5 82t86.5 214q0 103 -56 158t-161 55h-111l-41 -227h175l-8 -50h-175l-41 -232h111z" />
    <glyph glyph-name="dcroat" unicode="&#x111;" horiz-adv-x="536" 
d="M408 71q0 -33 34 -33q24 0 59 15l-8 -49q-38 -14 -67 -14q-73 0 -73 70q0 6 1 13q-64 -84 -160 -84q-73 0 -119 51t-46 141q0 110 66 182t158 72q104 0 142 -97l32 182h-162l8 43h162l17 96h-92l9 48h150l-26 -144h64l-8 -43h-63l-77 -435q-1 -8 -1 -14zM208 36
q72 0 121.5 62.5t49.5 136.5t-31 113t-88 39q-72 0 -121.5 -59t-49.5 -136.5t32 -116.5t87 -39z" />
    <glyph glyph-name="Emacron" unicode="&#x112;" horiz-adv-x="568" 
d="M-8 0l9 50h97l90 509h-97l8 50h478l-28 -164h-56l19 114h-264l-40 -227h268l-9 -50h-267l-41 -232h265l21 114h56l-29 -164h-480zM229 679l8 47h261l-8 -47h-261z" />
    <glyph glyph-name="emacron" unicode="&#x113;" horiz-adv-x="417" 
d="M343 18q-56 -29 -135.5 -29t-129.5 49t-50 140q0 110 68.5 183.5t165.5 73.5q57 0 88 -27t31 -70.5t-26.5 -75t-70.5 -48.5q-85 -34 -198 -38q3 -140 133 -140q66 0 134 35zM256.5 253.5q70.5 27.5 70.5 81t-64.5 53.5t-112.5 -46t-61 -119q97 3 167.5 30.5zM135 527
l8 46h256l-8 -46h-256z" />
    <glyph glyph-name="Ebreve" unicode="&#x114;" horiz-adv-x="568" 
d="M-8 0l9 50h97l90 509h-97l8 50h478l-28 -164h-56l19 114h-264l-40 -227h268l-9 -50h-267l-41 -232h265l21 114h56l-29 -164h-480zM461.5 700q-41.5 -34 -102 -34t-90 34t-29.5 76q0 10 2 21h46q-1 -7 -1 -13q0 -31 19 -50.5t59 -19.5q84 0 104 83h46q-12 -63 -53.5 -97z
" />
    <glyph glyph-name="ebreve" unicode="&#x115;" horiz-adv-x="417" 
d="M343 18q-56 -29 -135.5 -29t-129.5 49t-50 140q0 110 68.5 183.5t165.5 73.5q57 0 88 -27t31 -70.5t-26.5 -75t-70.5 -48.5q-85 -34 -198 -38q3 -140 133 -140q66 0 134 35zM256.5 253.5q70.5 27.5 70.5 81t-64.5 53.5t-112.5 -46t-61 -119q97 3 167.5 30.5zM366 545
q-40 -33 -100 -33t-88.5 33.5t-28.5 76.5q0 10 1 20h46q-1 -7 -1 -13q0 -31 18.5 -50.5t58.5 -19.5q80 0 102 83h46q-14 -64 -54 -97z" />
    <glyph glyph-name="Edotaccent" unicode="&#x116;" horiz-adv-x="568" 
d="M-8 0l9 50h97l90 509h-97l8 50h478l-28 -164h-56l19 114h-264l-40 -227h268l-9 -50h-267l-41 -232h265l21 114h56l-29 -164h-480zM371 671q-19 0 -32 13t-13 31.5t13 32t32 13.5t32 -13t13 -32t-13 -32t-32 -13z" />
    <glyph glyph-name="edotaccent" unicode="&#x117;" horiz-adv-x="417" 
d="M343 18q-56 -29 -135.5 -29t-129.5 49t-50 140q0 110 68.5 183.5t165.5 73.5q57 0 88 -27t31 -70.5t-26.5 -75t-70.5 -48.5q-85 -34 -198 -38q3 -140 133 -140q66 0 134 35zM256.5 253.5q70.5 27.5 70.5 81t-64.5 53.5t-112.5 -46t-61 -119q97 3 167.5 30.5zM312 531
q-13 -13 -31.5 -13t-31.5 13t-13 31t13 31t31.5 13t31.5 -13t13 -31t-13 -31z" />
    <glyph glyph-name="Eogonek" unicode="&#x118;" horiz-adv-x="568" 
d="M344 -118q0 -40 45 -40q32 0 66 17l-3 -41q-40 -17 -78 -17q-83 0 -83 70.5t87 128.5h-386l9 50h97l90 509h-97l8 50h478l-28 -164h-56l19 114h-264l-40 -227h268l-9 -50h-267l-41 -232h265l21 114h56l-29 -164h-35q-93 -56 -93 -118z" />
    <glyph glyph-name="eogonek" unicode="&#x119;" horiz-adv-x="417" 
d="M308 -179q-40 -17 -78 -17q-80 0 -80 67q0 63 81 119q-12 -1 -22 -1q-78 0 -129.5 46.5t-51.5 149.5t68.5 176.5t165.5 73.5q57 0 88 -27t31 -70.5t-26.5 -75t-70.5 -48.5q-85 -34 -198 -38q1 -68 35 -104t99 -36t133 35l-10 -53q-140 -67 -140 -137q0 -37 41 -37
q31 0 67 17zM256.5 253.5q70.5 27.5 70.5 81t-64.5 53.5t-112.5 -46t-61 -119q97 3 167.5 30.5z" />
    <glyph glyph-name="Ecaron" unicode="&#x11a;" horiz-adv-x="568" 
d="M-8 0l9 50h97l90 509h-97l8 50h478l-28 -164h-56l19 114h-264l-40 -227h268l-9 -50h-267l-41 -232h265l21 114h56l-29 -164h-480zM346 676l-110 129l19 19l118 -88l152 88l16 -20l-158 -128h-37z" />
    <glyph glyph-name="ecaron" unicode="&#x11b;" horiz-adv-x="417" 
d="M343 18q-56 -29 -135.5 -29t-129.5 49t-50 140q0 110 68.5 183.5t165.5 73.5q57 0 88 -27t31 -70.5t-26.5 -75t-70.5 -48.5q-85 -34 -198 -38q3 -140 133 -140q66 0 134 35zM256.5 253.5q70.5 27.5 70.5 81t-64.5 53.5t-112.5 -46t-61 -119q97 3 167.5 30.5zM247 511
l-107 128l18 19l115 -88l152 88l17 -19l-159 -128h-36z" />
    <glyph glyph-name="Gcircumflex" unicode="&#x11c;" horiz-adv-x="688" 
d="M340 -12q-135 0 -212.5 72.5t-77.5 200.5q0 151 102.5 255.5t271.5 104.5q111 0 221 -46l-24 -138h-57l18 105q-79 27 -157 27q-140 0 -227 -88t-87 -217q0 -105 60 -164.5t174 -59.5q75 0 168 35l34 190h-158l9 49h278l-9 -49h-63l-40 -226q-112 -51 -224 -51zM289 674
l-16 21l162 127h36l105 -129l-18 -19l-114 89z" />
    <glyph glyph-name="gcircumflex" unicode="&#x11d;" horiz-adv-x="433" 
d="M286 -176q-49 -34 -158.5 -34t-152.5 32t-43 76q0 56 54 93q44 29 92 49q-15 18 -15 38q0 32 38 61q-55 39 -55 113.5t54.5 128.5t133.5 54q33 0 64 -11h148l-9 -48l-81 2q27 -33 27 -82q0 -75 -55 -129t-134 -54q-28 0 -55 8q-23 -17 -23 -33q0 -21 34 -36l15 -8l15 -7
l19 -9q72 -32 104 -59.5t32 -69t-49 -75.5zM302.5 363.5q-25.5 25.5 -75 25.5t-88 -40.5t-38.5 -90t25 -75t74.5 -25.5t88.5 40.5t39 90t-25.5 75zM19 -142.5q31 -20.5 108 -20.5t114 18.5t37 45.5q0 35 -102 80q-43 18 -64 31q-124 -52 -124 -108q0 -26 31 -46.5zM130 505
l-15 20l160 127h37l103 -128l-18 -19l-112 89z" />
    <glyph glyph-name="Gbreve" unicode="&#x11e;" horiz-adv-x="688" 
d="M340 -12q-135 0 -212.5 72.5t-77.5 200.5q0 151 102.5 255.5t271.5 104.5q111 0 221 -46l-24 -138h-57l18 105q-79 27 -157 27q-140 0 -227 -88t-87 -217q0 -105 60 -164.5t174 -59.5q75 0 168 35l34 190h-158l9 49h278l-9 -49h-63l-40 -226q-112 -51 -224 -51z
M533.5 703.5q-41.5 -33.5 -101.5 -33.5t-89.5 34t-29.5 76q0 10 2 21h46q-1 -7 -1 -13q0 -31 19 -50.5t59 -19.5q82 0 104 83h46q-13 -64 -54.5 -97.5z" />
    <glyph glyph-name="gbreve" unicode="&#x11f;" horiz-adv-x="433" 
d="M286 -176q-49 -34 -158.5 -34t-152.5 32t-43 76q0 56 54 93q44 29 92 49q-15 18 -15 38q0 32 38 61q-55 39 -55 113.5t54.5 128.5t133.5 54q33 0 64 -11h148l-9 -48l-81 2q27 -33 27 -82q0 -75 -55 -129t-134 -54q-28 0 -55 8q-23 -17 -23 -33q0 -21 34 -36l15 -8l15 -7
l19 -9q72 -32 104 -59.5t32 -69t-49 -75.5zM302.5 363.5q-25.5 25.5 -75 25.5t-88 -40.5t-38.5 -90t25 -75t74.5 -25.5t88.5 40.5t39 90t-25.5 75zM19 -142.5q31 -20.5 108 -20.5t114 18.5t37 45.5q0 35 -102 80q-43 18 -64 31q-124 -52 -124 -108q0 -26 31 -46.5zM367 545
q-40 -33 -100.5 -33t-88.5 33t-28 77q0 10 1 20h46q-1 -7 -1 -13q0 -31 18.5 -50.5t58.5 -19.5q80 0 102 83h46q-14 -64 -54 -97z" />
    <glyph glyph-name="Gdotaccent" unicode="&#x120;" horiz-adv-x="688" 
d="M340 -12q-135 0 -212.5 72.5t-77.5 200.5q0 151 102.5 255.5t271.5 104.5q111 0 221 -46l-24 -138h-57l18 105q-79 27 -157 27q-140 0 -227 -88t-87 -217q0 -105 60 -164.5t174 -59.5q75 0 168 35l34 190h-158l9 49h278l-9 -49h-63l-40 -226q-112 -51 -224 -51zM444 677
q-19 0 -32 13t-13 32t13 32t32 13t32 -13t13 -31.5t-13 -32t-32 -13.5z" />
    <glyph glyph-name="gdotaccent" unicode="&#x121;" horiz-adv-x="433" 
d="M286 -176q-49 -34 -158.5 -34t-152.5 32t-43 76q0 56 54 93q44 29 92 49q-15 18 -15 38q0 32 38 61q-55 39 -55 113.5t54.5 128.5t133.5 54q33 0 64 -11h148l-9 -48l-81 2q27 -33 27 -82q0 -75 -55 -129t-134 -54q-28 0 -55 8q-23 -17 -23 -33q0 -21 34 -36l15 -8l15 -7
l19 -9q72 -32 104 -59.5t32 -69t-49 -75.5zM302.5 363.5q-25.5 25.5 -75 25.5t-88 -40.5t-38.5 -90t25 -75t74.5 -25.5t88.5 40.5t39 90t-25.5 75zM19 -142.5q31 -20.5 108 -20.5t114 18.5t37 45.5q0 35 -102 80q-43 18 -64 31q-124 -52 -124 -108q0 -26 31 -46.5z
M306.5 531q-12.5 -13 -31 -13t-31.5 13t-13 31t13 31t31 13t31 -13t13 -31t-12.5 -31z" />
    <glyph glyph-name="Gcommaaccent" unicode="&#x122;" horiz-adv-x="688" 
d="M260 -93q20 15 40 15t31.5 -13t11.5 -41t-26.5 -67.5t-70.5 -71.5l-24 22q63 63 63 109q0 32 -27 40zM340 -12q-135 0 -212.5 72.5t-77.5 200.5q0 151 102.5 255.5t271.5 104.5q111 0 221 -46l-24 -138h-57l18 105q-79 27 -157 27q-140 0 -227 -88t-87 -217
q0 -105 60 -164.5t174 -59.5q75 0 168 35l34 190h-158l9 49h278l-9 -49h-63l-40 -226q-112 -51 -224 -51z" />
    <glyph glyph-name="gcommaaccent" unicode="&#x123;" horiz-adv-x="433" 
d="M318 520q-18 -15 -39 -15t-32 13t-11 41t26 67.5t70 71.5l24 -22q-63 -63 -63 -109q0 -32 27 -40zM286 -176q-49 -34 -158.5 -34t-152.5 32t-43 76q0 56 54 93q44 29 92 49q-15 18 -15 38q0 32 38 61q-55 39 -55 113.5t54.5 128.5t133.5 54q33 0 64 -11h148l-9 -48l-81 2
q27 -33 27 -82q0 -75 -55 -129t-134 -54q-28 0 -55 8q-23 -17 -23 -33q0 -21 34 -36l15 -8l15 -7l19 -9q72 -32 104 -59.5t32 -69t-49 -75.5zM302.5 363.5q-25.5 25.5 -75 25.5t-88 -40.5t-38.5 -90t25 -75t74.5 -25.5t88.5 40.5t39 90t-25.5 75zM19 -142.5
q31 -20.5 108 -20.5t114 18.5t37 45.5q0 35 -102 80q-43 18 -64 31q-124 -52 -124 -108q0 -26 31 -46.5z" />
    <glyph glyph-name="Hcircumflex" unicode="&#x124;" horiz-adv-x="746" 
d="M308 671l-16 21l162 127h36l105 -129l-18 -19l-114 89zM-8 0l9 50h97l90 509h-97l8 50h255l-9 -50h-97l-39 -226h357l39 226h-97l8 50h255l-8 -50h-97l-90 -509h97l-9 -50h-255l9 50h97l41 231h-357l-40 -231h97l-9 -50h-255z" />
    <glyph glyph-name="hcircumflex" unicode="&#x125;" horiz-adv-x="514" 
d="M325 435q56 0 84 -39q20 -27 20 -68q0 -18 -4 -38l-36 -205q-1 -8 -1 -14q0 -33 35 -33q23 0 58 15l-8 -49q-38 -14 -75 -14t-52.5 23.5t-15.5 43t2 33.5l35 197q3 19 3 34q0 64 -64 64t-171 -91l-51 -294h-59l116 659h-79l9 48h137l-62 -356q99 84 179 84zM26 767
l-14 21l160 127h36l103 -129l-18 -19l-112 89z" />
    <glyph glyph-name="Hbar" unicode="&#x126;" horiz-adv-x="746" 
d="M77 430l7 38h89l16 91h-97l8 50h255l-9 -50h-97l-16 -91h357l16 91h-97l8 50h255l-8 -50h-97l-16 -91h87l-6 -38h-88l-67 -380h97l-9 -50h-255l9 50h97l41 231h-357l-40 -231h97l-9 -50h-255l9 50h97l67 380h-89zM210 333h357l17 99h-357z" />
    <glyph glyph-name="hbar" unicode="&#x127;" horiz-adv-x="514" 
d="M325 435q56 0 84 -39q20 -27 20 -68q0 -18 -4 -38l-36 -205q-1 -8 -1 -14q0 -33 34 -33q24 0 59 15l-8 -49q-38 -14 -75 -14t-52.5 23.5t-15.5 43t2 33.5l35 197q3 19 3 34q0 64 -64 64t-171 -91l-51 -294h-59l92 520h-73l8 43h72l17 96h-80l9 48h138l-26 -144h145
l-7 -43h-145l-29 -169q99 84 179 84z" />
    <glyph glyph-name="Itilde" unicode="&#x128;" horiz-adv-x="328" 
d="M-8 0l9 50h97l90 509h-97l8 50h254l-8 -50h-97l-89 -509h96l-9 -50h-254zM146 776q17 8 40.5 8t67 -28.5t64.5 -28.5q34 0 70 57l26 -16q-51 -92 -107 -92q-27 0 -71 28.5t-64 28.5q-34 0 -70 -58l-27 16q43 70 71 85z" />
    <glyph glyph-name="itilde" unicode="&#x129;" horiz-adv-x="245" 
d="M134 -10q-46 0 -64 28q-13 19 -13 39t2 33l51 286h-79l8 48h137l-59 -339q-1 -8 -1 -14q0 -33 34 -33q24 0 59 15l-9 -49q-38 -14 -66 -14zM52 612q16 9 39 9t64 -28t62 -28q35 0 71 57l25 -16q-51 -92 -107 -92q-27 0 -68 28.5t-62 28.5q-32 0 -70 -58l-26 16
q41 68 72 83z" />
    <glyph glyph-name="Imacron" unicode="&#x12a;" horiz-adv-x="328" 
d="M-8 0l9 50h97l90 509h-97l8 50h254l-8 -50h-97l-89 -509h96l-9 -50h-254zM107 679l9 47h261l-9 -47h-261z" />
    <glyph glyph-name="imacron" unicode="&#x12b;" horiz-adv-x="245" 
d="M134 -10q-46 0 -64 28q-13 19 -13 39t2 33l51 286h-79l8 48h137l-59 -339q-1 -8 -1 -14q0 -33 34 -33q24 0 59 15l-9 -49q-38 -14 -66 -14zM13 527l8 46h257l-8 -46h-257z" />
    <glyph glyph-name="Ibreve" unicode="&#x12c;" horiz-adv-x="328" 
d="M-8 0l9 50h97l90 509h-97l8 50h254l-8 -50h-97l-89 -509h96l-9 -50h-254zM338.5 699.5q-41.5 -33.5 -102 -33.5t-90 34t-29.5 76q0 10 2 21h46q-1 -7 -1 -13q0 -31 19 -50.5t59 -19.5q82 0 104 83h46q-12 -64 -53.5 -97.5z" />
    <glyph glyph-name="ibreve" unicode="&#x12d;" horiz-adv-x="245" 
d="M201 4q-38 -14 -75 -14t-52.5 23.5t-15.5 43t2 33.5l50 286h-79l9 48h137l-59 -339q-2 -8 -2 -15q0 -32 35 -32q24 0 59 15zM242.5 545q-40.5 -33 -100.5 -33t-88.5 33.5t-28.5 74.5q0 11 2 22h45q-1 -7 -1 -13q0 -31 18.5 -50.5t58.5 -19.5q80 0 103 83h45
q-13 -64 -53.5 -97z" />
    <glyph glyph-name="Iogonek" unicode="&#x12e;" horiz-adv-x="328" 
d="M76 -118q0 -40 45 -40q34 0 66 17l-3 -41q-40 -17 -77.5 -17t-60.5 17t-23 53q0 71 87 129h-118l9 50h97l90 509h-97l8 50h254l-8 -50h-97l-89 -509h96l-9 -50h-76q-36 -21 -65 -52t-29 -66z" />
    <glyph glyph-name="iogonek" unicode="&#x12f;" horiz-adv-x="245" 
d="M167 -179q-40 -17 -77 -17q-80 0 -80 67q0 69 89 125q-42 14 -42 66q0 13 3 28l50 286h-79l8 48h138l-60 -339q-1 -8 -1 -14q0 -33 34 -33q24 0 59 15l-8 -49q-19 -8 -51 -13q-88 -55 -88 -110q0 -37 42 -37q30 0 66 17zM164 534q-19 0 -32 13.5t-13 32.5t13 32t32 13
t32.5 -13t13.5 -32t-13.5 -32.5t-32.5 -13.5z" />
    <glyph glyph-name="Idotaccent" unicode="&#x130;" horiz-adv-x="328" 
d="M-8 0l9 50h97l90 509h-97l8 50h254l-8 -50h-97l-89 -509h96l-9 -50h-254zM277.5 684q-13.5 -13 -32 -13t-31.5 13t-13 31.5t13 32t31.5 13.5t32 -13t13.5 -32t-13.5 -32z" />
    <glyph glyph-name="dotlessi" unicode="&#x131;" horiz-adv-x="245" 
d="M134 -10q-46 0 -64 28q-13 19 -13 39t2 33l51 286h-79l8 48h137l-59 -339q-1 -8 -1 -14q0 -33 34 -33q24 0 59 15l-9 -49q-38 -14 -66 -14z" />
    <glyph glyph-name="Jcircumflex" unicode="&#x134;" horiz-adv-x="304" 
d="M-32 -166l-18 41q51 19 86 54t42 76l98 554h-94l9 50h248l-9 -50h-93l-99 -559q-12 -66 -59 -107t-111 -59zM91 671l-16 21l162 127h36l105 -129l-18 -19l-114 89z" />
    <glyph glyph-name="jcircumflex" unicode="&#x135;" horiz-adv-x="220" 
d="M-44 -210q-25 0 -51 7l8 46q20 -5 37 -5q68 0 82 75l81 463h-84l9 48h142l-90 -510q-23 -124 -134 -124zM1 505l-15 20l160 127h36l104 -128l-18 -19l-112 89z" />
    <glyph glyph-name="Kcommaaccent" unicode="&#x136;" horiz-adv-x="655" 
d="M285 -88q23 15 41.5 15t30 -13t11.5 -41.5t-26 -67.5t-71 -72l-24 22q63 65 63 110q0 33 -27 39zM467 0l-215 306l1 5l282 249h-90l8 49h245l-8 -50h-79l-286 -256l178 -253h104l-9 -50h-131zM-8 0l9 50h97l90 509h-97l8 50h253l-8 -50h-96l-89 -509h99l-9 -50h-257z" />
    <glyph glyph-name="kcommaaccent" unicode="&#x137;" horiz-adv-x="476" 
d="M148 -88q21 15 40.5 15t30.5 -13t11 -41.5t-26 -67.5t-70 -72l-24 22q63 65 63 110q0 33 -27 39zM313 435q49 0 76.5 -26.5t27.5 -69.5q0 -60 -52.5 -99t-122.5 -55l60 -98q32 -50 68 -50q19 0 59 20l-9 -51q-29 -17 -60 -17q-63 0 -106 72l-77 127l4 26q59 6 119 39.5
t60 82.5q0 22 -15 36.5t-44 14.5q-69 0 -165 -87l-53 -300h-58l116 659h-76l9 48h134l-62 -351q83 79 167 79z" />
    <glyph glyph-name="kgreenlandic" unicode="&#x138;" horiz-adv-x="497" 
d="M333 435q49 0 77 -26.5t28 -69.5q0 -60 -52.5 -99t-123.5 -55l61 -98q10 -16 17 -25q19 -25 44 -25t65 20l-9 -51q-29 -17 -60 -17q-63 0 -106 72l-77 127l5 26q86 7 146 60q33 29 33 56q0 57 -59 57q-71 0 -165 -87l-53 -300h-58l66 376h-77l9 48h135l-12 -68
q83 79 166 79z" />
    <glyph glyph-name="Lacute" unicode="&#x139;" horiz-adv-x="538" 
d="M-8 0l9 50h97l90 509h-97l8 50h265l-8 -50h-108l-89 -509h268l21 120h56l-29 -170h-483zM199 671l-20 26l165 146l36 -47z" />
    <glyph glyph-name="lacute" unicode="&#x13a;" horiz-adv-x="225" 
d="M179 4q-38 -14 -75 -14t-52.5 23.5t-15.5 43t2 33.5l100 569h-79l9 48h137l-110 -622q-1 -8 -1 -14q0 -33 34 -33q24 0 59 15zM124 771l-19 25l163 146l37 -47z" />
    <glyph glyph-name="Lcommaaccent" unicode="&#x13b;" horiz-adv-x="538" 
d="M220 -88q21 15 40.5 15t30.5 -13t11 -41.5t-26 -67.5t-70 -72l-25 22q64 64 64 110q0 33 -27 39zM-8 0l9 50h97l90 509h-97l8 50h265l-8 -50h-108l-89 -509h268l21 120h56l-29 -170h-483z" />
    <glyph glyph-name="lcommaaccent" unicode="&#x13c;" horiz-adv-x="225" 
d="M34 -88q21 15 40.5 15t30.5 -13t11 -41.5t-26 -67.5t-70 -72l-24 22q63 65 63 110q0 33 -27 39zM179 4q-38 -14 -75 -14t-52.5 23.5t-15.5 43t2 33.5l100 569h-79l9 48h137l-110 -622q-1 -8 -1 -14q0 -33 34 -33q24 0 59 15z" />
    <glyph glyph-name="Lcaron" unicode="&#x13d;" horiz-adv-x="540" 
d="M434 600q20 15 40 15t31.5 -13t11.5 -41t-26.5 -67.5t-70.5 -71.5l-24 21q63 65 63 110q0 32 -26 40zM-8 0l9 50h97l90 509h-97l8 50h265l-8 -50h-108l-89 -509h268l21 120h56l-29 -170h-483z" />
    <glyph glyph-name="lcaron" unicode="&#x13e;" horiz-adv-x="225" 
d="M269 698q20 15 40 15t31.5 -13t11.5 -41t-26.5 -67.5t-70.5 -71.5l-24 21q63 65 63 110q0 32 -26 40zM179 4q-38 -14 -75 -14t-52.5 23.5t-15.5 43t2 33.5l100 569h-79l9 48h137l-110 -622q-1 -8 -1 -14q0 -33 34 -33q24 0 59 15z" />
    <glyph glyph-name="Ldot" unicode="&#x13f;" horiz-adv-x="538" 
d="M-8 0l9 50h97l90 509h-97l8 50h265l-8 -50h-108l-89 -509h268l21 120h56l-29 -170h-483zM421 293q-19 0 -32 13t-13 31.5t13 32t32 13.5t32 -13t13 -32t-13 -32t-32 -13z" />
    <glyph glyph-name="ldot" unicode="&#x140;" horiz-adv-x="302" 
d="M179 4q-38 -14 -75 -14t-52.5 23.5t-15.5 43t2 33.5l100 569h-79l9 48h137l-110 -622q-1 -8 -1 -14q0 -33 34 -33q24 0 59 15zM294 308q-13 -13 -31.5 -13t-31.5 13t-13 31t13 31t31.5 13t31.5 -13t13 -31t-13 -31z" />
    <glyph glyph-name="Lslash" unicode="&#x141;" horiz-adv-x="539" 
d="M40 215l-14 38l119 60l44 246h-97l8 50h265l-8 -50h-108l-38 -215l185 94l13 -38l-206 -105l-43 -245h268l21 120h56l-29 -170h-483l9 50h97l37 214z" />
    <glyph glyph-name="lslash" unicode="&#x142;" horiz-adv-x="260" 
d="M114 71q0 -33 34 -33q24 0 59 15l-8 -49q-38 -14 -75 -14t-52.5 23.5t-15.5 43t2 33.5l37 213l-84 -43l-14 36l107 54l54 309h-80l9 48h138l-58 -325l108 54l14 -35l-130 -67l-44 -249q-1 -8 -1 -14z" />
    <glyph glyph-name="Nacute" unicode="&#x143;" horiz-adv-x="735" 
d="M-8 0l9 50h97l90 509h-97l8 50h156l272 -517l82 467h-97l9 50h251l-9 -50h-96l-99 -559h-54l-276 521l-83 -471h97l-9 -50h-251zM399 671l-20 26l165 146l36 -47z" />
    <glyph glyph-name="nacute" unicode="&#x144;" horiz-adv-x="532" 
d="M343 435q56 0 84 -39q20 -27 20 -68q0 -18 -4 -38l-35 -205q-2 -8 -2 -15q0 -32 35 -32q24 0 59 15l-9 -49q-38 -14 -75 -14t-55 28q-12 19 -12 38.5t2 33.5l34 197q3 19 3 34q0 64 -64 64t-167 -88l-52 -297h-58l66 376h-79l9 48h135l-12 -71q100 82 177 82zM248 506
l-20 25l164 146l37 -47z" />
    <glyph glyph-name="Ncommaaccent" unicode="&#x145;" horiz-adv-x="735" 
d="M297 -88q23 15 41.5 15t30 -13t11.5 -41.5t-26 -67.5t-71 -72l-24 22q63 65 63 110q0 33 -27 39zM-8 0l9 50h97l90 509h-97l8 50h156l272 -517l82 467h-97l9 50h251l-9 -50h-96l-99 -559h-54l-276 521l-83 -471h97l-9 -50h-251z" />
    <glyph glyph-name="ncommaaccent" unicode="&#x146;" horiz-adv-x="532" 
d="M193 -88q23 15 41.5 15t29.5 -13t11 -41.5t-26 -67.5t-70 -72l-24 22q63 65 63 110q0 33 -27 39zM343 435q56 0 84 -39q20 -27 20 -68q0 -18 -4 -38l-35 -205q-2 -8 -2 -15q0 -32 35 -32q24 0 59 15l-9 -49q-38 -14 -75 -14t-55 28q-12 19 -12 38.5t2 33.5l34 197
q3 19 3 34q0 64 -64 64t-167 -88l-52 -297h-58l66 376h-79l9 48h135l-12 -71q100 82 177 82z" />
    <glyph glyph-name="Ncaron" unicode="&#x147;" horiz-adv-x="735" 
d="M-8 0l9 50h97l90 509h-97l8 50h156l272 -517l82 467h-97l9 50h251l-9 -50h-96l-99 -559h-54l-276 521l-83 -471h97l-9 -50h-251zM414 676l-110 129l18 19l119 -88l151 88l17 -20l-159 -128h-36z" />
    <glyph glyph-name="ncaron" unicode="&#x148;" horiz-adv-x="532" 
d="M343 435q56 0 84 -39q20 -27 20 -68q0 -18 -4 -38l-35 -205q-2 -8 -2 -15q0 -32 35 -32q24 0 59 15l-9 -49q-38 -14 -75 -14t-55 28q-12 19 -12 38.5t2 33.5l34 197q3 19 3 34q0 64 -64 64t-167 -88l-52 -297h-58l66 376h-79l9 48h135l-12 -71q100 82 177 82zM270 511
l-106 128l18 19l115 -88l152 88l16 -19l-158 -128h-37z" />
    <glyph glyph-name="napostrophe" unicode="&#x149;" horiz-adv-x="532" 
d="M157 680q41 0 41 -48q0 -34 -26 -73.5t-70 -71.5l-24 22q63 63 63 109q0 32 -27 40l2 7q18 15 41 15zM343 435q56 0 84 -39q20 -27 20 -68q0 -18 -4 -38l-35 -205q-2 -8 -2 -15q0 -32 35 -32q24 0 59 15l-9 -49q-38 -14 -75 -14t-55 28q-12 19 -12 38.5t2 33.5l34 197
q3 19 3 34q0 64 -64 64t-167 -88l-52 -297h-58l66 376h-79l9 48h135l-12 -71q100 82 177 82z" />
    <glyph glyph-name="Eng" unicode="&#x14a;" horiz-adv-x="735" 
d="M-8 0l9 50h97l90 509h-97l8 50h156l275 -500l79 450h-97l9 50h251l-9 -50h-96l-99 -559q-12 -66 -59 -107t-111 -59l-17 41q50 19 85 54t43 76l3 21l-274 495l-83 -471h97l-9 -50h-251z" />
    <glyph glyph-name="eng" unicode="&#x14b;" horiz-adv-x="499" 
d="M343 435q56 0 84 -39q20 -27 20 -68q0 -18 -4 -38l-66 -376q-21 -124 -133 -124q-26 0 -52 7l9 46q20 -5 37 -5q68 0 81 75l66 374q3 19 3 34q0 64 -64 64t-167 -88l-52 -297h-58l66 376h-79l9 48h135l-12 -71q100 82 177 82z" />
    <glyph glyph-name="Omacron" unicode="&#x14c;" horiz-adv-x="705" 
d="M319 -12q-125 0 -197 75.5t-72 197.5q0 148 100.5 254t252.5 106q125 0 197.5 -75t72.5 -197q0 -149 -100.5 -255t-253.5 -106zM321 39q120 0 205 89t85 219q0 103 -57 162.5t-152 59.5q-121 0 -205.5 -89t-84.5 -218q0 -103 57 -163t152 -60zM296 683l8 47h261l-9 -47
h-260z" />
    <glyph glyph-name="omacron" unicode="&#x14d;" horiz-adv-x="491" 
d="M208 -11q-82 0 -131 50t-49 149t67.5 173t171.5 74q82 0 130.5 -50.5t48.5 -140.5q0 -109 -67.5 -182t-170.5 -73zM210 37q74 0 125 60.5t51 146.5q0 66 -31.5 104.5t-89.5 38.5q-74 0 -125.5 -61t-51.5 -147q0 -66 32 -104t90 -38zM165 527l8 46h257l-8 -46h-257z" />
    <glyph glyph-name="Obreve" unicode="&#x14e;" horiz-adv-x="705" 
d="M319 -12q-125 0 -197 75.5t-72 197.5q0 148 100.5 254t252.5 106q125 0 197.5 -75t72.5 -197q0 -149 -100.5 -255t-253.5 -106zM321 39q120 0 205 89t85 219q0 103 -57 162.5t-152 59.5q-121 0 -205.5 -89t-84.5 -218q0 -103 57 -163t152 -60zM525.5 703.5
q-41.5 -33.5 -101.5 -33.5t-89.5 34t-29.5 76q0 10 2 21h46q-1 -7 -1 -13q0 -31 19 -50.5t59 -19.5q82 0 104 83h46q-13 -64 -54.5 -97.5z" />
    <glyph glyph-name="obreve" unicode="&#x14f;" horiz-adv-x="491" 
d="M208 -11q-82 0 -131 50t-49 149t67.5 173t171.5 74q82 0 130.5 -50.5t48.5 -140.5q0 -109 -67.5 -182t-170.5 -73zM210 37q74 0 125 60.5t51 146.5q0 66 -31.5 104.5t-89.5 38.5q-74 0 -125.5 -61t-51.5 -147q0 -66 32 -104t90 -38zM392 545q-40 -33 -100 -33t-88.5 33.5
t-28.5 76.5q0 10 1 20h46q-1 -7 -1 -13q0 -31 18.5 -50.5t58.5 -19.5q80 0 102 83h46q-14 -64 -54 -97z" />
    <glyph glyph-name="Ohungarumlaut" unicode="&#x150;" horiz-adv-x="705" 
d="M319 -12q-125 0 -197 75.5t-72 197.5q0 148 100.5 254t252.5 106q125 0 197.5 -75t72.5 -197q0 -149 -100.5 -255t-253.5 -106zM321 39q120 0 205 89t85 219q0 103 -57 162.5t-152 59.5q-121 0 -205.5 -89t-84.5 -218q0 -103 57 -163t152 -60zM332 676l-20 21l142 160
l41 -43zM486 676l-19 21l142 160l41 -43z" />
    <glyph glyph-name="ohungarumlaut" unicode="&#x151;" horiz-adv-x="491" 
d="M208 -11q-82 0 -131 50t-49 149t67.5 173t171.5 74q82 0 130.5 -50.5t48.5 -140.5q0 -109 -67.5 -182t-170.5 -73zM210 37q74 0 125 60.5t51 146.5q0 66 -31.5 104.5t-89.5 38.5q-74 0 -125.5 -61t-51.5 -147q0 -66 32 -104t90 -38zM206 505l-19 20l143 160l41 -42z
M361 505l-19 20l143 160l40 -42z" />
    <glyph glyph-name="OE" unicode="&#x152;" horiz-adv-x="870" 
d="M320 0q-128 0 -198.5 69.5t-70.5 191.5q0 147 98 247.5t264 100.5h466l-29 -164h-56l20 114h-261l-41 -227h265l-8 -50h-265l-41 -232h263l20 114h56l-29 -164h-453zM320 50h83l90 509h-83q-128 0 -212.5 -83t-84.5 -214q0 -103 54.5 -157.5t152.5 -54.5z" />
    <glyph glyph-name="oe" unicode="&#x153;" horiz-adv-x="774" 
d="M323 20q-52 -31 -124 -31t-121.5 50t-49.5 149t69 173t172 74q61 0 103 -30t58 -86q30 54 81 85t109 31t88.5 -27t30.5 -71t-27.5 -76t-73.5 -49q-86 -32 -193 -36q0 -67 34 -103.5t98 -36.5t134 35l-10 -53q-56 -29 -129 -29q-135 0 -167 115q-30 -53 -82 -84zM212 37
q75 0 127 60.5t52 146.5q0 66 -33 104.5t-91 38.5q-75 0 -127 -61t-52 -147q0 -65 33 -103.5t91 -38.5zM685 335q0 53 -65 53t-112.5 -46t-59.5 -119q89 2 160 27q35 13 56 35t21 50z" />
    <glyph glyph-name="Racute" unicode="&#x154;" horiz-adv-x="621" 
d="M367 609q91 0 150.5 -39.5t59.5 -119.5t-49 -130.5t-134 -67.5l78 -202h95l-9 -50h-128l-94 244q-9 -1 -30 -1h-113l-34 -193h96l-9 -50h-254l9 50h97l90 509h-97l8 50h268zM314 292q99 0 150.5 42t51.5 110q0 115 -154 115h-114l-47 -267h113zM322 671l-20 26l165 146
l36 -47z" />
    <glyph glyph-name="racute" unicode="&#x155;" horiz-adv-x="387" 
d="M325 435q65 0 65 -64q0 -29 -13 -62l-52 3q9 29 9 45q0 26 -27 26q-60 0 -153 -102l-49 -281h-58l66 376h-77l8 48h134l-15 -86q83 97 162 97zM207 506l-20 25l164 146l37 -47z" />
    <glyph glyph-name="Rcommaaccent" unicode="&#x156;" horiz-adv-x="621" 
d="M261 -88q21 15 40.5 15t30.5 -13t11 -41.5t-26 -67.5t-70 -72l-25 22q64 64 64 110q0 33 -27 39zM367 609q91 0 150.5 -39.5t59.5 -119.5t-49 -130.5t-134 -67.5l78 -202h95l-9 -50h-128l-94 244q-9 -1 -30 -1h-113l-34 -193h96l-9 -50h-254l9 50h97l90 509h-97l8 50h268
zM314 292q99 0 150.5 42t51.5 110q0 115 -154 115h-114l-47 -267h113z" />
    <glyph glyph-name="rcommaaccent" unicode="&#x157;" horiz-adv-x="387" 
d="M58 -73q19 0 30.5 -13t11.5 -41.5t-26 -67.5t-71 -72l-24 22q63 65 63 110q0 33 -27 39l2 8q22 15 41 15zM325 435q65 0 65 -64q0 -29 -13 -62l-52 3q9 29 9 45q0 26 -27 26q-60 0 -153 -102l-49 -281h-58l66 376h-77l8 48h134l-15 -86q83 97 162 97z" />
    <glyph glyph-name="Rcaron" unicode="&#x158;" horiz-adv-x="621" 
d="M367 609q91 0 150.5 -39.5t59.5 -119.5t-49 -130.5t-134 -67.5l78 -202h95l-9 -50h-128l-94 244q-9 -1 -30 -1h-113l-34 -193h96l-9 -50h-254l9 50h97l90 509h-97l8 50h268zM314 292q99 0 150.5 42t51.5 110q0 115 -154 115h-114l-47 -267h113zM338 676l-110 129l19 19
l118 -88l151 88l17 -20l-159 -128h-36z" />
    <glyph glyph-name="rcaron" unicode="&#x159;" horiz-adv-x="387" 
d="M325 435q65 0 65 -64q0 -29 -13 -62l-52 3q9 29 9 45q0 26 -27 26q-60 0 -153 -102l-49 -281h-58l66 376h-77l8 48h134l-15 -86q83 97 162 97zM217 511l-106 128l18 19l115 -88l152 88l16 -19l-158 -128h-37z" />
    <glyph glyph-name="Sacute" unicode="&#x15a;" horiz-adv-x="504" 
d="M387.5 33q-58.5 -45 -167.5 -45t-207 34l22 131h56l-16 -94q68 -21 146 -21t122 32t44 79.5t-30.5 76.5t-74 46.5t-87 36.5t-74 54.5t-30.5 87.5q0 71 53.5 120.5t153 49.5t190.5 -31l-22 -129h-57l16 93q-60 17 -117 17q-82 0 -119.5 -35t-37.5 -77t30.5 -69t73.5 -44
t86.5 -36.5t74 -57.5t30.5 -94q0 -80 -58.5 -125zM283 675l-20 26l165 146l36 -47z" />
    <glyph glyph-name="sacute" unicode="&#x15b;" horiz-adv-x="358" 
d="M260.5 24q-40.5 -35 -117 -35t-142.5 26l8 47q68 -26 123.5 -26t84 19.5t28.5 48.5t-20 48t-48.5 32.5t-57.5 28.5t-49 41t-20 69.5t37.5 77.5t103 34t132.5 -23l-8 -45q-64 22 -114 22t-72 -20t-22 -46t20 -44.5t48.5 -32t57 -28.5t48.5 -41.5t20 -63.5q0 -54 -40.5 -89
zM181 506l-19 25l163 146l37 -47z" />
    <glyph glyph-name="Scircumflex" unicode="&#x15c;" horiz-adv-x="504" 
d="M387.5 33q-58.5 -45 -167.5 -45t-207 34l22 131h56l-16 -94q68 -21 146 -21t122 32t44 79.5t-30.5 76.5t-74 46.5t-87 36.5t-74 54.5t-30.5 87.5q0 71 53.5 120.5t153 49.5t190.5 -31l-22 -129h-57l16 93q-60 17 -117 17q-82 0 -119.5 -35t-37.5 -77t30.5 -69t73.5 -44
t86.5 -36.5t74 -57.5t30.5 -94q0 -80 -58.5 -125zM195 674l-15 21l161 127h36l106 -129l-19 -19l-113 89z" />
    <glyph glyph-name="scircumflex" unicode="&#x15d;" horiz-adv-x="358" 
d="M260.5 24q-40.5 -35 -117 -35t-142.5 26l8 47q68 -26 123.5 -26t84 19.5t28.5 48.5t-20 48t-48.5 32.5t-57.5 28.5t-49 41t-20 69.5t37.5 77.5t103 34t132.5 -23l-8 -45q-64 22 -114 22t-72 -20t-22 -46t20 -44.5t48.5 -32t57 -28.5t48.5 -41.5t20 -63.5q0 -54 -40.5 -89
zM82 505l-14 20l160 127h36l103 -128l-18 -19l-112 89z" />
    <glyph glyph-name="Scedilla" unicode="&#x15e;" horiz-adv-x="504" 
d="M248 -180q-30 -19 -77.5 -19t-82.5 16l12 37q33 -14 67 -14q58 0 58 37q0 40 -77 40l4 19l36 53q-94 4 -175 33l22 131h56l-16 -94q68 -21 146 -21t122 32t44 79.5t-30.5 76.5t-74 46.5t-87 36.5t-74 54.5t-30.5 87.5q0 71 53.5 120.5t153 49.5t190.5 -31l-22 -129h-57
l16 93q-60 17 -117 17q-82 0 -119.5 -35t-37.5 -77t30.5 -69t73.5 -44t86.5 -36.5t74 -57.5t30.5 -94q0 -77 -55 -121.5t-161 -48.5l-25 -43q33 -4 53 -21.5t20 -51t-30 -52.5z" />
    <glyph glyph-name="scedilla" unicode="&#x15f;" horiz-adv-x="357" 
d="M97 -196q-47 0 -81 16l12 36q31 -14 66 -14q57 0 57 36q0 41 -75 41l4 17l35 54q-64 5 -114 25l8 47q68 -26 123.5 -26t84 19.5t28.5 48.5t-20 48t-48.5 32.5t-57.5 28.5t-49 41t-20 69.5t37.5 77.5t103 34t132.5 -23l-8 -45q-64 22 -114 22t-72 -20t-22 -46t20 -44.5
t48.5 -32t57 -28.5t48.5 -41.5t20 -70t-36.5 -78t-108.5 -38.5l-24 -45q71 -9 71 -67q0 -37 -29.5 -55.5t-76.5 -18.5z" />
    <glyph glyph-name="Scaron" unicode="&#x160;" horiz-adv-x="504" 
d="M387.5 33q-58.5 -45 -167.5 -45t-207 34l22 131h56l-16 -94q68 -21 146 -21t122 32t44 79.5t-30.5 76.5t-74 46.5t-87 36.5t-74 54.5t-30.5 87.5q0 71 53.5 120.5t153 49.5t190.5 -31l-22 -129h-57l16 93q-60 17 -117 17q-82 0 -119.5 -35t-37.5 -77t30.5 -69t73.5 -44
t86.5 -36.5t74 -57.5t30.5 -94q0 -80 -58.5 -125zM309 677l-110 128l18 20l118 -89l152 89l17 -20l-159 -128h-36z" />
    <glyph glyph-name="scaron" unicode="&#x161;" horiz-adv-x="358" 
d="M260.5 24q-40.5 -35 -117 -35t-142.5 26l8 47q68 -26 123.5 -26t84 19.5t28.5 48.5t-20 48t-48.5 32.5t-57.5 28.5t-49 41t-20 69.5t37.5 77.5t103 34t132.5 -23l-8 -45q-64 22 -114 22t-72 -20t-22 -46t20 -44.5t48.5 -32t57 -28.5t48.5 -41.5t20 -63.5q0 -54 -40.5 -89
zM194 511l-106 128l18 19l115 -88l152 88l16 -19l-158 -128h-37z" />
    <glyph glyph-name="Tcommaaccent" unicode="&#x162;" horiz-adv-x="571" 
d="M221 -73q19 0 30.5 -13t11.5 -41.5t-26 -67.5t-71 -72l-24 22q63 65 63 110q0 33 -27 39l2 8q22 15 41 15zM107 0l9 50h103l90 509h-178l-20 -110h-55l28 160h527l-28 -160h-56l20 110h-178l-89 -509h102l-9 -50h-266z" />
    <glyph glyph-name="tcommaaccent" unicode="&#x163;" horiz-adv-x="306" 
d="M124 -73q42 0 42 -49q0 -34 -26 -73t-70 -72l-25 22q63 63 63 110q0 33 -26 39l2 8q21 15 40 15zM256 10q-51 -21 -96.5 -21t-73.5 24t-28 66q0 16 3 34l45 264h-72l9 47h72l19 110h59l-20 -110h133l-8 -47h-133l-46 -265q-2 -12 -2 -23q0 -53 60 -53q31 0 88 23z" />
    <glyph glyph-name="Tcaron" unicode="&#x164;" horiz-adv-x="571" 
d="M107 0l9 50h103l90 509h-178l-20 -110h-55l28 160h527l-28 -160h-56l20 110h-178l-89 -509h102l-9 -50h-266zM335 676l-110 129l18 19l118 -88l152 88l17 -20l-159 -128h-36z" />
    <glyph glyph-name="tcaron" unicode="&#x165;" horiz-adv-x="306" 
d="M285 669q21 15 40.5 15t30.5 -13t11 -41.5t-26 -67.5t-70 -72l-24 22q63 64 63 110q0 33 -27 39zM256 10q-51 -21 -96.5 -21t-73.5 24t-28 66q0 16 3 34l45 264h-72l9 47h72l19 110h59l-20 -110h133l-8 -47h-133l-46 -265q-2 -12 -2 -23q0 -53 60 -53q31 0 88 23z" />
    <glyph glyph-name="Tbar" unicode="&#x166;" horiz-adv-x="575" 
d="M116 278l8 44h144l42 237h-178l-19 -110h-56l29 160h526l-28 -160h-55l19 110h-177l-43 -237h144l-8 -44h-143l-40 -228h103l-9 -50h-266l9 50h102l40 228h-144z" />
    <glyph glyph-name="tbar" unicode="&#x167;" horiz-adv-x="308" 
d="M119 89q0 -53 60 -53q31 0 88 23l-9 -49q-51 -21 -96.5 -21t-74 24.5t-28.5 67.5q0 15 3 32l18 99h-66l8 43h65l21 122h-72l9 47h71l20 110h59l-20 -110h133l-8 -47h-133l-22 -122h126l-8 -43h-125l-17 -100q-2 -12 -2 -23z" />
    <glyph glyph-name="Utilde" unicode="&#x168;" horiz-adv-x="687" 
d="M475 44.5q-67 -56.5 -172.5 -56.5t-159.5 62q-41 46 -41 116q0 23 5 49l61 344h-97l9 50h254l-9 -50h-96l-63 -354q-4 -21 -4 -39q0 -51 29 -82q39 -42 115.5 -42t130 42.5t67.5 120.5l62 354h-97l8 50h252l-9 -50h-96l-63 -356q-19 -102 -86 -158.5zM313.5 765.5
q23.5 18.5 49.5 18.5t69.5 -28.5t64.5 -28.5q34 0 71 57l26 -16q-51 -92 -108 -92q-27 0 -70.5 28.5t-63.5 28.5q-33 0 -71 -58l-26 16q15 25 25 40.5t33.5 34z" />
    <glyph glyph-name="utilde" unicode="&#x169;" horiz-adv-x="527" 
d="M164 -11q-56 0 -84 39q-20 26 -20 67q0 18 4 38l42 243h-79l9 48h136l-50 -288q-3 -19 -3 -34q0 -64 64 -64t167 88l52 298h59l-60 -341q-2 -8 -2 -15q0 -32 35 -32q24 0 59 15l-8 -47q-38 -14 -72 -14t-52.5 20.5t-18.5 52.5v7q-96 -81 -178 -81zM208 612q16 9 39 9
t64 -28t62 -28q35 0 71 57l25 -16q-51 -92 -107 -92q-27 0 -68 28.5t-62 28.5q-32 0 -70 -58l-26 16q42 69 72 83z" />
    <glyph glyph-name="Umacron" unicode="&#x16a;" horiz-adv-x="687" 
d="M475 44.5q-67 -56.5 -172.5 -56.5t-159.5 62q-41 46 -41 116q0 23 5 49l61 344h-97l9 50h254l-9 -50h-96l-63 -354q-4 -21 -4 -39q0 -51 29 -82q39 -42 115.5 -42t130 42.5t67.5 120.5l62 354h-97l8 50h252l-9 -50h-96l-63 -356q-19 -102 -86 -158.5zM283 679l9 47h261
l-9 -47h-261z" />
    <glyph glyph-name="umacron" unicode="&#x16b;" horiz-adv-x="527" 
d="M164 -11q-56 0 -84 39q-20 26 -20 67q0 18 4 38l42 243h-79l9 48h136l-50 -288q-3 -19 -3 -34q0 -64 64 -64t167 88l52 298h59l-60 -341q-2 -8 -2 -15q0 -32 35 -32q24 0 59 15l-8 -47q-38 -14 -72 -14t-52.5 20.5t-18.5 52.5v7q-96 -81 -178 -81zM156 527l8 46h257
l-8 -46h-257z" />
    <glyph glyph-name="Ubreve" unicode="&#x16c;" horiz-adv-x="687" 
d="M475 44.5q-67 -56.5 -172.5 -56.5t-159.5 62q-41 46 -41 116q0 23 5 49l61 344h-97l9 50h254l-9 -50h-96l-63 -354q-4 -21 -4 -39q0 -51 29 -82q39 -42 115.5 -42t130 42.5t67.5 120.5l62 354h-97l8 50h252l-9 -50h-96l-63 -356q-19 -102 -86 -158.5zM515.5 699.5
q-41.5 -33.5 -102 -33.5t-89.5 33.5t-29 77.5q0 10 1 20h46q-1 -7 -1 -13q0 -31 19.5 -50.5t59.5 -19.5q82 0 104 83h46q-13 -64 -54.5 -97.5z" />
    <glyph glyph-name="ubreve" unicode="&#x16d;" horiz-adv-x="527" 
d="M164 -11q-56 0 -84 39q-20 26 -20 67q0 18 4 38l42 243h-79l9 48h136l-50 -288q-3 -19 -3 -34q0 -64 64 -64t167 88l52 298h59l-60 -341q-2 -8 -2 -15q0 -32 35 -32q24 0 59 15l-8 -47q-38 -14 -72 -14t-52.5 20.5t-18.5 52.5v7q-96 -81 -178 -81zM390 545
q-40 -33 -100.5 -33t-88.5 33t-28 77q0 10 1 20h45v-11q0 -72 78.5 -72t100.5 83h45q-13 -64 -53 -97z" />
    <glyph glyph-name="Uring" unicode="&#x16e;" horiz-adv-x="687" 
d="M475 44.5q-67 -56.5 -172.5 -56.5t-159.5 62q-41 46 -41 116q0 23 5 49l61 344h-97l9 50h254l-9 -50h-96l-63 -354q-4 -21 -4 -39q0 -51 29 -82q39 -42 115.5 -42t130 42.5t67.5 120.5l62 354h-97l8 50h252l-9 -50h-96l-63 -356q-19 -102 -86 -158.5zM506.5 697.5
q-33.5 -34.5 -83.5 -34.5t-76 25t-26 68t33.5 77t83.5 34t76 -25t26 -67.5t-33.5 -77zM421 701q32 0 51.5 22.5t19.5 49.5q0 57 -52 57q-32 0 -51.5 -22.5t-19.5 -52.5q0 -54 52 -54z" />
    <glyph glyph-name="uring" unicode="&#x16f;" horiz-adv-x="527" 
d="M164 -11q-56 0 -84 39q-20 26 -20 67q0 18 4 38l42 243h-79l9 48h136l-50 -288q-3 -19 -3 -34q0 -64 64 -64t167 88l52 298h59l-60 -341q-2 -8 -2 -15q0 -32 35 -32q24 0 59 15l-8 -47q-38 -14 -72 -14t-52.5 20.5t-18.5 52.5v7q-96 -81 -178 -81zM382 537.5
q-33 -34.5 -83 -34.5t-76 25t-26 68t33.5 77t83.5 34t75.5 -25t25.5 -67.5t-33 -77zM297 541q32 0 51.5 22.5t19.5 49t-13.5 42t-42 15.5t-48 -22.5t-19.5 -52.5q0 -54 52 -54z" />
    <glyph glyph-name="Uhungarumlaut" unicode="&#x170;" horiz-adv-x="687" 
d="M475 44.5q-67 -56.5 -172.5 -56.5t-159.5 62q-41 46 -41 116q0 23 5 49l61 344h-97l9 50h254l-9 -50h-96l-63 -354q-4 -21 -4 -39q0 -51 29 -82q39 -42 115.5 -42t130 42.5t67.5 120.5l62 354h-97l8 50h252l-9 -50h-96l-63 -356q-19 -102 -86 -158.5zM321 673l-20 20
l142 160l41 -42zM476 673l-20 20l142 160l41 -42z" />
    <glyph glyph-name="uhungarumlaut" unicode="&#x171;" horiz-adv-x="527" 
d="M164 -11q-56 0 -84 39q-20 26 -20 67q0 18 4 38l42 243h-79l9 48h136l-50 -288q-3 -19 -3 -34q0 -64 64 -64t167 88l52 298h59l-60 -341q-2 -8 -2 -15q0 -32 35 -32q24 0 59 15l-8 -47q-38 -14 -72 -14t-52.5 20.5t-18.5 52.5v7q-96 -81 -178 -81zM199 505l-19 20
l143 160l40 -42zM353 505l-19 20l143 160l40 -42z" />
    <glyph glyph-name="Uogonek" unicode="&#x172;" horiz-adv-x="687" 
d="M400 -181q-43 -18 -79.5 -18t-58.5 17.5t-22 52.5t24 66t59 52q-6 -1 -17 -1q-109 0 -163 62q-41 46 -41 116q0 23 5 49l61 344h-97l9 50h254l-9 -50h-96l-63 -354q-4 -21 -4 -39q0 -52 30 -82q39 -42 115 -42t129.5 42.5t67.5 120.5l62 354h-97l8 50h252l-9 -50h-96
l-63 -356q-16 -89 -62 -135q-33 -33 -70.5 -53t-52.5 -29.5t-38 -27.5q-45 -33 -45 -74.5t43 -41.5q33 0 67 16z" />
    <glyph glyph-name="uogonek" unicode="&#x173;" horiz-adv-x="527" 
d="M442 -179q-40 -17 -78 -17q-80 0 -80 67q0 70 93 128q-35 16 -35 63v8q-96 -81 -178 -81q-56 0 -84 39q-20 26 -20 67q0 18 4 38l42 243h-79l9 48h136l-50 -288q-3 -19 -3 -34q0 -64 64 -64t167 88l52 298h59l-60 -341q-2 -8 -2 -15q0 -32 35 -32q24 0 59 15l-8 -47
q-39 -13 -62 -14q-86 -55 -86 -109q0 -37 42 -37q27 0 66 17z" />
    <glyph glyph-name="Wcircumflex" unicode="&#x174;" horiz-adv-x="924" 
d="M208 0l-79 559h-84l9 50h243l-9 -50h-103l66 -479l225 422l-10 57h-86l9 50h246l-9 -50h-103l81 -478l232 478h-102l9 50h245l-9 -50h-84l-273 -559h-57l-75 420l-225 -420h-57zM388 671l-15 21l161 127h36l106 -129l-19 -19l-113 89z" />
    <glyph glyph-name="wcircumflex" unicode="&#x175;" horiz-adv-x="686" 
d="M613 357q0 27 -29 27t-65 -26l-18 37q51 39 92 39t57 -20.5t16 -49.5q0 -58 -57.5 -161t-143.5 -203h-48l-48 243q-55 -114 -158 -243h-50l-74 377h-75l9 47h112l67 -362q51 66 93 138t58 122l-10 55h-76l9 47h113l68 -364q69 87 113.5 170t44.5 127zM240 505l-15 20
l160 127h36l103 -128l-18 -19l-112 89z" />
    <glyph glyph-name="Ycircumflex" unicode="&#x176;" horiz-adv-x="620" 
d="M134 0l9 50h98l31 177l-143 332h-85l9 50h247l-9 -50h-100l118 -278l214 278h-99l9 50h253l-9 -50h-85l-259 -330l-32 -179h98l-9 -50h-256zM243 671l-15 21l161 127h36l106 -129l-19 -19l-114 89z" />
    <glyph glyph-name="ycircumflex" unicode="&#x177;" horiz-adv-x="462" 
d="M-15 -210q-55 0 -102 41l26 36q33 -29 72 -29q56 0 129 64t131.5 149.5t99.5 170.5t41 123.5t-29 38.5t-64 -26l-21 36q50 40 93 40q78 0 78 -78q0 -51 -43.5 -145.5t-107.5 -188t-148.5 -163t-154.5 -69.5zM134 0l-43 376h-76l9 48h119l47 -424h-56zM128 505l-14 20
l160 127h36l103 -128l-18 -19l-112 89z" />
    <glyph glyph-name="Ydieresis" unicode="&#x178;" horiz-adv-x="620" 
d="M134 0l9 50h98l31 177l-143 332h-85l9 50h247l-9 -50h-100l118 -278l214 278h-99l9 50h253l-9 -50h-85l-259 -330l-32 -179h98l-9 -50h-256zM325.5 689q-12.5 -12 -29 -12t-29 12.5t-12.5 29t12 29t29 12.5t29.5 -12.5t12.5 -29.5t-12.5 -29zM471 677q-17 0 -29 12
t-12 29t12 29.5t29 12.5t29 -12.5t12 -29.5t-12 -29t-29 -12z" />
    <glyph glyph-name="Zacute" unicode="&#x179;" horiz-adv-x="556" 
d="M10 0l-14 29l471 528h-310l-20 -112h-57l29 164h441l16 -27l-474 -531h330l21 120h57l-30 -171h-460zM300 671l-20 26l165 146l36 -47z" />
    <glyph glyph-name="zacute" unicode="&#x17a;" horiz-adv-x="423" 
d="M86 52q10 2 28.5 2t61 -7.5t64 -7.5t39.5 7t30 22q18 21 31 59l43 -11q-26 -90 -77 -114q-26 -12 -57 -12t-82.5 10.5t-84 10.5t-76.5 -13l-15 26l318 356h-192l-14 -83h-52l23 127h310l13 -25zM212 506l-19 25l164 146l37 -47z" />
    <glyph glyph-name="Zdotaccent" unicode="&#x17b;" horiz-adv-x="556" 
d="M10 0l-14 29l471 528h-310l-20 -112h-57l29 164h441l16 -27l-474 -531h330l21 120h57l-30 -171h-460zM339 671q-19 0 -32 13t-13 31.5t13 32t32 13.5t32 -13t13 -32t-13 -32t-32 -13z" />
    <glyph glyph-name="zdotaccent" unicode="&#x17c;" horiz-adv-x="423" 
d="M86 52q10 2 28.5 2t61 -7.5t64 -7.5t39.5 7t30 22q18 21 31 59l43 -11q-26 -90 -77 -114q-26 -12 -57 -12t-82.5 10.5t-84 10.5t-76.5 -13l-15 26l318 356h-192l-14 -83h-52l23 127h310l13 -25zM253 518q-18 0 -31 13t-13 31t13 31t31 13t31 -13t13 -31t-13 -31t-31 -13z
" />
    <glyph glyph-name="Zcaron" unicode="&#x17d;" horiz-adv-x="556" 
d="M10 0l-14 29l471 528h-310l-20 -112h-57l29 164h441l16 -27l-474 -531h330l21 120h57l-30 -171h-460zM320 676l-110 129l18 19l118 -88l152 88l17 -20l-159 -128h-36z" />
    <glyph glyph-name="zcaron" unicode="&#x17e;" horiz-adv-x="423" 
d="M86 52q10 2 28.5 2t61 -7.5t64 -7.5t39.5 7t30 22q18 21 31 59l43 -11q-26 -90 -77 -114q-26 -12 -57 -12t-82.5 10.5t-84 10.5t-76.5 -13l-15 26l318 356h-192l-14 -83h-52l23 127h310l13 -25zM227 511l-107 128l18 19l116 -88l151 88l17 -19l-159 -128h-36z" />
    <glyph glyph-name="longs" unicode="&#x17f;" horiz-adv-x="220" 
d="M-47 -210q-31 0 -63 8l8 46q20 -6 50 -6q70 0 84 75l81 463h-87l8 48h87l29 160q23 134 163 134q39 0 71 -8l-8 -45q-27 5 -57 5q-96 0 -112 -88l-117 -668q-23 -124 -137 -124z" />
    <glyph glyph-name="AEacute" unicode="&#x1fc;" horiz-adv-x="934" 
d="M-52 0l9 49h83l437 511h-85l8 49h543l-28 -164h-56l20 114h-262l-40 -227h265l-9 -50h-265l-41 -232h263l21 114h56l-29 -164h-474l9 50h96l27 153h-257l-131 -154h89l-8 -49h-241zM280 252h225l54 307h-18zM625 671l-20 26l165 146l37 -47z" />
    <glyph glyph-name="aeacute" unicode="&#x1fd;" horiz-adv-x="684" 
d="M131 -11q-55 0 -89.5 28.5t-34.5 83.5q0 135 242 135h54l8 47q3 16 3 38t-14 40q-19 26 -81 26t-147 -29l9 48q78 29 149 29q120 0 129 -94q31 44 76 69t99 25t84 -27t30 -73q0 -139 -294 -146v-8q0 -69 33 -107t98.5 -38t135.5 35l-10 -53q-56 -29 -129 -29
q-114 0 -160 81q-104 -81 -191 -81zM144 36q72 0 161 72q-8 28 -8 52v32h-39q-142 0 -177 -41q-16 -19 -16 -50.5t21.5 -48t57.5 -16.5zM595 335q0 53 -63.5 53t-110 -42.5t-60.5 -110.5q234 4 234 100zM370 506l-20 25l164 146l37 -47z" />
    <glyph glyph-name="Oslashacute" unicode="&#x1fe;" horiz-adv-x="701" 
d="M375 675l-20 26l165 146l36 -47zM316 -12q-115 0 -186 65l-67 -68l-24 23l68 69q-60 72 -60 182q0 146 101.5 254t252.5 108q112 0 185 -65l68 68l24 -23l-69 -69q61 -74 61 -182q0 -147 -101 -254.5t-253 -107.5zM317 39q121 0 206 91t85 219q0 85 -41 140l-396 -395
q58 -55 146 -55zM399 569q-120 0 -205 -90.5t-85 -218.5q0 -86 40 -141l396 396q-56 54 -146 54z" />
    <glyph glyph-name="oslashacute" unicode="&#x1ff;" horiz-adv-x="494" 
d="M265 506l-19 25l163 146l38 -47zM210 -11q-80 0 -129 47l-56 -54l-21 21l58 55q-34 48 -34 121q0 108 68.5 182t172.5 74q82 0 130 -50l55 53l20 -20l-56 -55q32 -47 32 -119q0 -109 -68.5 -182t-171.5 -73zM211 37q75 0 127 60.5t52 146.5q0 42 -16 76l-253 -246
q32 -37 90 -37zM267 387q-75 0 -127 -61t-52 -147q0 -49 17 -79l254 246q-33 41 -92 41z" />
    <glyph glyph-name="Scommaaccent" unicode="&#x218;" horiz-adv-x="504" 
d="M162 -93q20 15 40 15t31 -13t11 -41t-26 -67.5t-70 -71.5l-24 22q63 63 63 109q0 32 -27 40zM387.5 33q-58.5 -45 -167.5 -45t-207 34l22 131h56l-16 -94q68 -21 146 -21t122 32t44 79.5t-30.5 76.5t-74 46.5t-87 36.5t-74 54.5t-30.5 87.5q0 71 53.5 120.5t153 49.5
t190.5 -31l-22 -129h-57l16 93q-60 17 -117 17q-82 0 -119.5 -35t-37.5 -77t30.5 -69t73.5 -44t86.5 -36.5t74 -57.5t30.5 -94q0 -80 -58.5 -125z" />
    <glyph glyph-name="scommaaccent" unicode="&#x219;" horiz-adv-x="358" 
d="M86 -93q20 15 40 15t31.5 -13t11.5 -41t-26.5 -67.5t-70.5 -71.5l-24 22q63 63 63 109q0 32 -26 40zM260.5 24q-40.5 -35 -117 -35t-142.5 26l8 47q68 -26 123.5 -26t84 19.5t28.5 48.5t-20 48t-48.5 32.5t-57.5 28.5t-49 41t-20 69.5t37.5 77.5t103 34t132.5 -23l-8 -45
q-64 22 -114 22t-72 -20t-22 -46t20 -44.5t48.5 -32t57 -28.5t48.5 -41.5t20 -63.5q0 -54 -40.5 -89z" />
    <glyph glyph-name="uni021A" unicode="&#x21a;" horiz-adv-x="571" 
d="M221 -73q19 0 30.5 -13t11.5 -41.5t-26 -67.5t-71 -72l-24 22q63 65 63 110q0 33 -27 39l2 8q22 15 41 15zM107 0l9 50h103l90 509h-178l-20 -110h-55l28 160h527l-28 -160h-56l20 110h-178l-89 -509h102l-9 -50h-266z" />
    <glyph glyph-name="uni021B" unicode="&#x21b;" horiz-adv-x="306" 
d="M124 -73q42 0 42 -49q0 -34 -26 -73t-70 -72l-25 22q63 63 63 110q0 33 -26 39l2 8q21 15 40 15zM256 10q-51 -21 -96.5 -21t-73.5 24t-28 66q0 16 3 34l45 264h-72l9 47h72l19 110h59l-20 -110h133l-8 -47h-133l-46 -265q-2 -12 -2 -23q0 -53 60 -53q31 0 88 23z" />
    <glyph glyph-name="dotlessj" unicode="&#x237;" horiz-adv-x="220" 
d="M-44 -210q-25 0 -51 7l8 46q20 -5 37 -5q68 0 82 75l81 463h-84l9 48h142l-90 -510q-23 -124 -134 -124z" />
    <glyph glyph-name="circumflex" unicode="&#x2c6;" horiz-adv-x="434" 
d="M82 505l-15 20l160 127h36l104 -128l-18 -19l-112 89z" />
    <glyph glyph-name="caron" unicode="&#x2c7;" horiz-adv-x="442" 
d="M182 511l-107 128l18 19l115 -88l152 88l17 -19l-159 -128h-36z" />
    <glyph glyph-name="breve" unicode="&#x2d8;" horiz-adv-x="368" 
d="M280 545q-40 -33 -100 -33t-88.5 33.5t-28.5 74.5q0 11 2 22h45q-1 -7 -1 -13q0 -31 18.5 -50.5t58.5 -19.5q80 0 102 83h46q-14 -64 -54 -97z" />
    <glyph glyph-name="dotaccent" unicode="&#x2d9;" horiz-adv-x="241" 
d="M154 531q-13 -13 -31.5 -13t-31.5 13t-13 31t13 31t31.5 13t31.5 -13t13 -31t-13 -31z" />
    <glyph glyph-name="ring" unicode="&#x2da;" horiz-adv-x="361" 
d="M257 537.5q-33 -34.5 -83 -34.5t-76 25t-26 68t33.5 77t83.5 34t75.5 -25t25.5 -67.5t-33 -77zM172 541q32 0 51.5 22.5t19.5 49t-13.5 42t-42 15.5t-48 -22.5t-19.5 -52.5q0 -54 52 -54z" />
    <glyph glyph-name="ogonek" unicode="&#x2db;" horiz-adv-x="275" 
d="M204 -179q-40 -17 -78 -17q-80 0 -80 67q0 55 54 98q42 33 84 52l20 -19q-38 -21 -71.5 -53t-33.5 -68.5t42 -36.5q27 0 66 17z" />
    <glyph glyph-name="tilde" unicode="&#x2dc;" horiz-adv-x="461" 
d="M123.5 603q23.5 18 49.5 18t66.5 -28t61.5 -28q35 0 71 57l26 -16q-51 -92 -108 -92q-26 0 -67 28.5t-62 28.5q-34 0 -70 -58l-26 16q14 25 24.5 40.5t34 33.5z" />
    <glyph glyph-name="hungarumlaut" unicode="&#x2dd;" horiz-adv-x="462" 
d="M93 505l-19 20l143 160l40 -42zM247 505l-19 20l143 160l40 -42z" />
    <glyph glyph-name="endash" unicode="&#x2013;" horiz-adv-x="588" 
d="M51 205l10 51h466l-9 -51h-467z" />
    <glyph glyph-name="emdash" unicode="&#x2014;" horiz-adv-x="783" 
d="M51 205l10 51h661l-9 -51h-662z" />
    <glyph glyph-name="quoteleft" unicode="&#x2018;" horiz-adv-x="195" 
d="M128 433q-19 0 -31.5 13.5t-12.5 40t30.5 70t75.5 78.5l25 -25q-58 -52 -74 -95q14 -3 22.5 -14t8.5 -26.5t-12.5 -28.5t-31.5 -13z" />
    <glyph glyph-name="quoteright" unicode="&#x2019;" horiz-adv-x="191" 
d="M133.5 625q12.5 13 32 13t32 -13.5t12.5 -40t-31 -70t-76 -78.5l-25 25q61 54 74 96q-14 2 -22.5 13t-8.5 26.5t12.5 28.5z" />
    <glyph glyph-name="quotesinglbase" unicode="&#x201a;" horiz-adv-x="222" 
d="M74 80q19 0 31.5 -13.5t12.5 -40t-31 -70t-76 -78.5l-24 24q59 55 74 96q-31 7 -31 38q0 18 12.5 31t31.5 13z" />
    <glyph glyph-name="quotedblleft" unicode="&#x201c;" horiz-adv-x="358" 
d="M291 433q-19 0 -31.5 13.5t-12.5 40t31 70t76 78.5l25 -25q-60 -52 -74 -95q13 -3 22 -14t9 -26.5t-13 -28.5t-32 -13zM128 433q-19 0 -31.5 13.5t-12.5 40t30.5 70t75.5 78.5l25 -25q-58 -52 -74 -95q14 -3 22.5 -14t8.5 -26.5t-12.5 -28.5t-31.5 -13z" />
    <glyph glyph-name="quotedblright" unicode="&#x201d;" horiz-adv-x="355" 
d="M133.5 625q12.5 13 32 13t32 -13.5t12.5 -40t-31 -70t-76 -78.5l-25 25q61 54 74 96q-14 2 -22.5 13t-8.5 26.5t12.5 28.5zM329 638q19 0 31.5 -13.5t12.5 -40t-31 -70t-76 -78.5l-24 25q58 52 74 96q-14 2 -23 13t-9 26.5t13 28.5t32 13z" />
    <glyph glyph-name="quotedblbase" unicode="&#x201e;" horiz-adv-x="386" 
d="M74 80q19 0 31.5 -13.5t12.5 -40t-31 -70t-76 -78.5l-24 24q59 55 74 96q-31 7 -31 38q0 18 12.5 31t31.5 13zM205.5 67q12.5 13 32 13t32 -13.5t12.5 -40t-31 -70t-76 -78.5l-25 24q61 56 74 96q-31 7 -31 38q0 18 12.5 31z" />
    <glyph glyph-name="dagger" unicode="&#x2020;" horiz-adv-x="446" 
d="M254 521l-4 50q0 28 11 42.5t25 14.5q25 0 25 -32q0 -20 -17 -53.5t-17 -53t11.5 -32.5t30.5 -13t49.5 8t45.5 8q36 0 36 -26q0 -13 -12 -22t-30.5 -9t-46 8t-50.5 8t-40.5 -19t-17.5 -42.5t17 -61.5q-40 -76 -59 -204q-2 -14 -7 -41l-6 -42q-8 -46 -15 -56t-14 -10
q-10 0 -10 18t16.5 101.5t16.5 152t-2 81.5q40 50 40 75q0 48 -47 48q-15 0 -45 -8t-44 -8q-37 0 -37 26q0 13 12.5 22t30.5 9t45.5 -8t41.5 -8q30 0 48.5 20.5t18.5 56.5z" />
    <glyph glyph-name="daggerdbl" unicode="&#x2021;" horiz-adv-x="476" 
d="M217 50l4 -49q0 -29 -11 -43.5t-25 -14.5q-24 0 -24 32q0 20 17 53.5t17 53t-11.5 32.5t-31 13t-50 -8t-44.5 -8q-36 0 -36 26q0 13 11.5 22t30 9t46.5 -8t42 -8q31 0 48.5 19t17.5 45t-12 70q40 60 40 85q0 48 -46 48q-15 0 -45.5 -8t-44.5 -8q-36 0 -36 26q0 13 12 22
t30 9t45.5 -8t41.5 -8q30 0 49 20.5t19 56.5l-4 50q0 28 11 42.5t25 14.5q24 0 24 -32q0 -20 -17 -53.5t-17 -53t11.5 -32.5t31 -13t50 8t44.5 8q36 0 36 -26q0 -13 -11.5 -22t-30 -9t-46.5 8t-42 8q-31 0 -48.5 -19t-17.5 -44.5t12 -69.5q-40 -59 -40 -86q0 -48 46 -48
q15 0 45.5 8t44.5 8q36 0 36 -26q0 -13 -12 -22t-30.5 -9t-45.5 8t-41 8q-30 0 -49 -20.5t-19 -56.5z" />
    <glyph glyph-name="bullet" unicode="&#x2022;" horiz-adv-x="348" 
d="M178 191q-42 0 -71.5 29.5t-29.5 71.5t29.5 71.5t71.5 29.5t71.5 -29.5t29.5 -71.5t-29.5 -71.5t-71.5 -29.5z" />
    <glyph glyph-name="ellipsis" unicode="&#x2026;" horiz-adv-x="777" 
d="M63 -9q-18 0 -31 13t-13 31.5t13 31.5t31 13t31 -13t13 -31.5t-13 -31.5t-31 -13zM350 -9q-18 0 -31 13t-13 31.5t13 31.5t31 13t31 -13t13 -31.5t-13 -31.5t-31 -13zM638 -9q-18 0 -31 13t-13 31.5t13 31.5t31 13t30.5 -13t12.5 -31.5t-12.5 -31.5t-30.5 -13z" />
    <glyph glyph-name="perthousand" unicode="&#x2030;" horiz-adv-x="860" 
d="M257 275.5q-34 -41.5 -87.5 -41.5t-79 27.5t-25.5 81.5t35 95.5t88 41.5q103 0 103 -103q0 -60 -34 -101.5zM165 271q37 0 59 31t22 74q0 67 -54 67q-37 0 -58.5 -30.5t-21.5 -73.5q0 -68 53 -68zM510.5 41q-34.5 -42 -87.5 -42q-104 0 -104 104q0 60 35 101t88 41
q103 0 103 -103q0 -59 -34.5 -101zM419 36q36 0 58 31.5t22 74.5q0 66 -53 66q-37 0 -58.5 -30.5t-21.5 -73.5q0 -68 53 -68zM81 3l-26 26l478 448l26 -27zM772.5 41q-34.5 -42 -88.5 -42q-103 0 -103 104q0 60 34.5 101t88.5 41q103 0 103 -103q0 -59 -34.5 -101zM680 36
q37 0 59 31.5t22 74.5q0 66 -54 66q-36 0 -58 -31t-22 -73q0 -68 53 -68z" />
    <glyph glyph-name="guilsinglleft" unicode="&#x2039;" horiz-adv-x="294" 
d="M155 83l-117 175l1 4l178 176h72l-188 -183l117 -172h-63z" />
    <glyph glyph-name="guilsinglright" unicode="&#x203a;" horiz-adv-x="295" 
d="M8 83l188 183l-117 172h63l117 -176l-1 -4l-178 -175h-72z" />
    <glyph glyph-name="fraction" unicode="&#x2044;" horiz-adv-x="385" 
d="M-14 -10l-31 22l462 605l30 -22z" />
    <glyph glyph-name="Euro" unicode="&#x20ac;" horiz-adv-x="576" 
d="M478 37q-81 -44 -169 -44t-143 51t-61 139h-84l14 27h70q0 34 9 69h-76l14 27h70q28 81 98.5 132t165.5 51t161 -34l-18 -105h-50l13 76q-47 17 -110 17t-119 -37t-83 -100h209l-14 -27h-205q-8 -35 -8 -69h179l-14 -27h-164q6 -65 44.5 -104t116 -39t163.5 50z" />
    <glyph glyph-name="numero" unicode="&#x2116;" horiz-adv-x="1038" 
d="M956 212q-52 -54 -122.5 -54t-110 37t-39.5 111t52.5 128.5t122.5 54.5t109.5 -38.5t39.5 -111.5t-52 -127zM761.5 230.5q23.5 -25.5 70.5 -25.5t85 40t38 93t-24 79t-71 26t-84.5 -40.5t-37.5 -93.5t23.5 -78.5zM643 42l8 46h307l-8 -46h-307zM-8 0l9 49h96l90 511h-96
l8 49h151l234 -512l81 463h-96l8 49h245l-8 -49h-96l-99 -560h-48l-238 520l-83 -471h96l-9 -49h-245z" />
    <glyph glyph-name="trademark" unicode="&#x2122;" horiz-adv-x="710" 
d="M338 364l4 24h36l42 197h-35l4 24h75l49 -187l113 187h76l-4 -25h-35l-27 -196h35l-4 -24h-103l5 24h38l24 178l-112 -181h-23l-50 182l-39 -179h39l-5 -24h-103zM136 364l5 24h41l34 196h-65l-9 -49h-27l12 74h218l-13 -74h-27l8 49h-65l-34 -196h40l-4 -24h-114z" />
    <glyph glyph-name="minus" unicode="&#x2212;" horiz-adv-x="533" 
d="M56 211l8 47h404l-8 -47h-404z" />
    <glyph glyph-name="approxequal" unicode="&#x2248;" horiz-adv-x="589" 
d="M173 415q24 11 56 11t66 -24t64 -48t57 -24q55 0 109 95l35 -18q-68 -130 -150 -130q-27 0 -53.5 15t-45 33.5t-43.5 33.5t-50 15t-48.5 -16.5t-36.5 -34t-32 -47.5l-35 18q58 98 107 121zM140 223q24 11 52 11t56 -15t46 -33q50 -48 88 -48q56 0 110 95l34 -18
q-69 -129 -150 -129q-34 0 -66 24t-63 48t-59 24t-51.5 -16.5t-36.5 -33t-33 -47.5l-35 17q59 98 108 121z" />
    <glyph glyph-name="notequal" unicode="&#x2260;" horiz-adv-x="578" 
d="M106 -74l-31 16l98 152h-115l9 48h137l117 183h-222l9 48h244l110 170l31 -16l-100 -154h118l-9 -48h-140l-117 -183h225l-8 -48h-249z" />
    <glyph glyph-name="lessequal" unicode="&#x2264;" horiz-adv-x="491" 
d="M23 37l7 41h368l-8 -41h-367zM406 123l-342 145l5 32l394 146l-10 -50l-317 -114l278 -113z" />
    <glyph glyph-name="greaterequal" unicode="&#x2265;" horiz-adv-x="487" 
d="M23 37l7 41h368l-8 -41h-367zM38 123l10 49l316 114l-278 114l9 46l342 -146l-6 -32z" />
    <glyph glyph-name="OE.smcp" unicode="&#xe04a;" horiz-adv-x="737" 
d="M265 0q-106 0 -166 55.5t-60 154.5q0 118 82 197.5t219 79.5h387l-24 -133h-53l16 87h-208l-31 -173h212l-8 -45h-212l-31 -177h209l16 88h53l-24 -134h-377zM268 47h65l69 393h-65q-102 0 -170.5 -63t-68.5 -165q0 -81 45 -123t125 -42z" />
    <glyph glyph-name="dotaccent.cap" unicode="&#xefed;" horiz-adv-x="239" 
d="M154.5 684q-13.5 -13 -32 -13t-31.5 13t-13 31.5t13 32t31.5 13.5t32 -13t13.5 -32t-13.5 -32z" />
    <glyph glyph-name="breve.cap" unicode="&#xefee;" horiz-adv-x="386" 
d="M281.5 699.5q-41.5 -33.5 -101.5 -33.5t-89.5 34t-29.5 78q0 9 1 19h46v-11q0 -72 80 -72t102 83h46q-13 -64 -54.5 -97.5z" />
    <glyph glyph-name="ogonek.cap" unicode="&#xeff1;" horiz-adv-x="297" 
d="M131.5 -46.5q-34.5 -33.5 -34.5 -72.5t45 -39q33 0 65 17l-3 -41q-38 -17 -76.5 -17t-61.5 17t-23 49.5t15 59.5t40 47q46 38 86 55l21 -20q-39 -22 -73.5 -55.5z" />
    <glyph glyph-name="cedilla.cap" unicode="&#xeff2;" horiz-adv-x="304" 
d="M116 -199q-47 0 -82 16l11 37q34 -14 68 -14q58 0 58 37q0 40 -77 40l4 19l60 88l31 -11l-38 -68q32 -4 52 -21.5t20 -51t-30 -52.5t-77 -19z" />
    <glyph glyph-name="ring.cap" unicode="&#xeff3;" horiz-adv-x="352" 
d="M257 697.5q-33 -34.5 -83 -34.5t-76 25t-26 68t33.5 77t83.5 34t75.5 -25t25.5 -67.5t-33 -77zM172 701q32 0 51.5 22.5t19.5 49.5q0 57 -53 57q-32 0 -51 -22.5t-19 -52.5q0 -54 52 -54z" />
    <glyph glyph-name="tilde.cap" unicode="&#xeff5;" horiz-adv-x="466" 
d="M120 765q24 19 50 19t69.5 -28.5t64.5 -28.5q34 0 71 57l25 -16q-48 -92 -107 -92q-27 0 -70.5 28.5t-63.5 28.5q-33 0 -71 -58l-27 16q16 27 25.5 41t33.5 33z" />
    <glyph glyph-name="circumflex.cap" unicode="&#xeff7;" horiz-adv-x="434" 
d="M81 671l-15 21l161 127h36l106 -129l-19 -19l-113 89z" />
    <glyph glyph-name="at.cap" unicode="&#xf633;" horiz-adv-x="744" 
d="M330 123q-56 0 -88 35.5t-32 94.5q0 86 61 154.5t148 68.5q47 0 73 -22t33 -54h2q11 34 27 60h41q-78 -173 -78 -252q0 -53 43 -53q51 0 92 58t41 149q0 114 -68 183.5t-180 69.5q-142 0 -252.5 -105t-110.5 -249q0 -114 73.5 -192t189.5 -78q94 0 177 52l15 -27
q-93 -57 -192 -57q-130 0 -213 86.5t-83 215.5q0 105 57.5 195t148.5 140.5t191 50.5q122 0 200.5 -77.5t78.5 -207.5q0 -106 -50 -172.5t-121 -66.5q-32 0 -52 15q-29 24 -26 60h-4q-62 -75 -142 -75zM341 163q63 0 109.5 57t46.5 130q0 86 -75 86q-65 0 -114 -55t-49 -127
q0 -44 21.5 -67.5t60.5 -23.5z" />
    <glyph glyph-name="Abreve.smcp" unicode="&#xf66d;" horiz-adv-x="581" 
d="M-39 0l8 46h70l235 395h-73l8 46h162l104 -441h72l-8 -46h-210l8 46h83l-27 115h-226l-68 -115h83l-8 -46h-213zM193 207h190l-54 230zM430 584.5q-39 -32.5 -98 -32.5t-86.5 32t-27.5 73q0 10 2 22h45q-1 -8 -1 -15q0 -67 75.5 -67t98.5 82h44q-13 -62 -52 -94.5z" />
    <glyph glyph-name="Amacron.smcp" unicode="&#xf66e;" horiz-adv-x="581" 
d="M-39 0l8 46h70l235 395h-73l8 46h162l104 -441h72l-8 -46h-210l8 46h83l-27 115h-226l-68 -115h83l-8 -46h-213zM193 207h190l-54 230zM200 567l7 44h253l-8 -44h-252z" />
    <glyph glyph-name="Aogonek.smcp" unicode="&#xf66f;" horiz-adv-x="581" 
d="M507 -176q-43 -16 -77.5 -16t-57 17t-22.5 51q0 69 91 124h-112l8 46h83l-27 115h-226l-68 -115h83l-8 -46h-213l8 46h70l235 395h-73l8 46h162l104 -441h72l-8 -46h-40q-97 -57 -97 -114q0 -39 43 -39q30 0 64 16zM193 207h190l-54 230z" />
    <glyph glyph-name="AEacute.smcp" unicode="&#xf670;" horiz-adv-x="796" 
d="M-39 0l8 46h66l350 396h-66l7 45h460l-23 -133h-53l15 87h-209l-31 -173h213l-8 -45h-213l-31 -177h211l16 88h53l-25 -134h-396l8 46h78l20 114h-208l-100 -114h75l-8 -46h-209zM241 205h178l42 236h-14zM507 551l-19 24l161 140l35 -46z" />
    <glyph glyph-name="Cacute.smcp" unicode="&#xf671;" horiz-adv-x="524" 
d="M448 30q-84 -40 -182.5 -40t-163 57t-64.5 162q0 122 84.5 205t224.5 83q86 0 174 -33l-21 -120h-55l16 89q-51 17 -115 17q-108 0 -179 -66.5t-71 -171.5q0 -85 50 -129t137 -44t173 43zM313 555l-19 24l162 140l34 -45z" />
    <glyph glyph-name="Ccaron.smcp" unicode="&#xf672;" horiz-adv-x="524" 
d="M448 30q-84 -40 -182.5 -40t-163 57t-64.5 162q0 122 84.5 205t224.5 83q86 0 174 -33l-21 -120h-55l16 89q-51 17 -115 17q-108 0 -179 -66.5t-71 -171.5q0 -85 50 -129t137 -44t173 43zM339 560l-103 124l18 19l111 -87l148 87l15 -19l-154 -124h-35z" />
    <glyph glyph-name="Ccircumflex.smcp" unicode="&#xf673;" horiz-adv-x="524" 
d="M448 30q-84 -40 -182.5 -40t-163 57t-64.5 162q0 122 84.5 205t224.5 83q86 0 174 -33l-21 -120h-55l16 89q-51 17 -115 17q-108 0 -179 -66.5t-71 -171.5q0 -85 50 -129t137 -44t173 43zM228 555l-15 20l156 124h35l101 -125l-18 -19l-108 87z" />
    <glyph glyph-name="Cdotaccent.smcp" unicode="&#xf674;" horiz-adv-x="524" 
d="M448 30q-84 -40 -182.5 -40t-163 57t-64.5 162q0 122 84.5 205t224.5 83q86 0 174 -33l-21 -120h-55l16 89q-51 17 -115 17q-108 0 -179 -66.5t-71 -171.5q0 -85 50 -129t137 -44t173 43zM371 567q-17 0 -29.5 12.5t-12.5 30t12.5 30t29.5 12.5t29.5 -12.5t12.5 -30
t-12.5 -30t-29.5 -12.5z" />
    <glyph glyph-name="Dcaron.smcp" unicode="&#xf675;" horiz-adv-x="578" 
d="M301 487q105 0 169 -54t64 -159q0 -123 -87 -198.5t-223 -75.5h-230l8 46h78l70 395h-78l8 46h221zM228 46q109 0 178 63.5t69 164.5q0 81 -46.5 124t-130.5 43h-91l-70 -395h91zM303 555l-103 124l18 19l111 -87l148 87l15 -19l-154 -124h-35z" />
    <glyph glyph-name="Dcroat.smcp" unicode="&#xf676;" horiz-adv-x="578" 
d="M301 487q106 0 170 -54t64 -159q0 -123 -87.5 -198.5t-223.5 -75.5h-230l8 46h78l32 178h-66l8 43h65l31 174h-78l8 46h221zM228 46q109 0 178 63.5t69 164.5q0 81 -46.5 124t-130.5 43h-90l-31 -174h145l-8 -43h-145l-31 -178h90z" />
    <glyph glyph-name="Ebreve.smcp" unicode="&#xf677;" horiz-adv-x="496" 
d="M-6 0l8 46h78l70 395h-78l8 46h406l-24 -133h-52l15 87h-218l-30 -173h221l-8 -45h-221l-32 -177h219l16 88h53l-24 -134h-407zM403 584.5q-39 -32.5 -97.5 -32.5t-86 32t-27.5 73q0 10 2 22h44q-1 -7 -1 -14q0 -68 76 -68t98 82h44q-13 -62 -52 -94.5z" />
    <glyph glyph-name="Ecaron.smcp" unicode="&#xf678;" horiz-adv-x="496" 
d="M-6 0l8 46h78l70 395h-78l8 46h406l-24 -133h-52l15 87h-218l-30 -173h221l-8 -45h-221l-32 -177h219l16 88h53l-24 -134h-407zM291 555l-104 124l18 19l111 -87l148 87l15 -19l-153 -124h-35z" />
    <glyph glyph-name="Edotaccent.smcp" unicode="&#xf679;" horiz-adv-x="496" 
d="M-6 0l8 46h78l70 395h-78l8 46h406l-24 -133h-52l15 87h-218l-30 -173h221l-8 -45h-221l-32 -177h219l16 88h53l-24 -134h-407zM347.5 575.5q-12.5 -12.5 -30 -12.5t-30 12.5t-12.5 30t12.5 29.5t30 12t30 -12t12.5 -29.5t-12.5 -30z" />
    <glyph glyph-name="Emacron.smcp" unicode="&#xf67a;" horiz-adv-x="496" 
d="M-6 0l8 46h78l70 395h-78l8 46h406l-24 -133h-52l15 87h-218l-30 -173h221l-8 -45h-221l-32 -177h219l16 88h53l-24 -134h-407zM179 567l8 44h252l-7 -44h-253z" />
    <glyph glyph-name="Eng.smcp" unicode="&#xf67b;" horiz-adv-x="635" 
d="M-7 0l8 46h79l70 395h-79l8 46h131l236 -390l60 344h-82l8 46h215l-8 -46h-79l-78 -441q-6 -38 -32.5 -67t-50.5 -41.5t-60 -26.5l-16 40q92 38 103 99l3 21l-231 382l-64 -361h81l-8 -46h-214z" />
    <glyph glyph-name="Eogonek.smcp" unicode="&#xf67c;" horiz-adv-x="496" 
d="M276 -114q0 -39 43 -39q30 0 64 16l-2 -39q-43 -16 -77.5 -16t-57 17t-22.5 51q0 69 91 124h-321l8 46h78l70 395h-78l8 46h406l-24 -133h-52l15 87h-218l-30 -173h221l-8 -45h-221l-32 -177h219l16 88h53l-24 -134h-28q-97 -57 -97 -114z" />
    <glyph glyph-name="Gbreve.smcp" unicode="&#xf67d;" horiz-adv-x="590" 
d="M275 -10q-112 0 -174.5 57.5t-62.5 160.5q0 123 85.5 206t231.5 83q100 0 186 -36l-21 -112h-53l14 80q-60 20 -125 20q-115 0 -187 -66.5t-72 -171.5q0 -79 45 -126t138 -47q69 0 148 29l24 141h-126l8 45h229l-8 -45h-49l-30 -174q-117 -44 -201 -44zM467 588.5
q-39 -32.5 -98 -32.5t-86 32t-27 73q0 11 2 23h44q-1 -8 -1 -16q0 -67 75 -67t99 83h44q-13 -63 -52 -95.5z" />
    <glyph glyph-name="Gcircumflex.smcp" unicode="&#xf67e;" horiz-adv-x="590" 
d="M275 -10q-112 0 -174.5 57.5t-62.5 160.5q0 123 85.5 206t231.5 83q100 0 186 -36l-21 -112h-53l14 80q-60 20 -125 20q-115 0 -187 -66.5t-72 -171.5q0 -79 45 -126t138 -47q69 0 148 29l24 141h-126l8 45h229l-8 -45h-49l-30 -174q-117 -44 -201 -44zM234 556l-15 20
l156 124h35l101 -126l-18 -18l-108 87z" />
    <glyph glyph-name="Gcommaaccent.smcp" unicode="&#xf67f;" horiz-adv-x="590" 
d="M257 -74q39 0 39 -47q0 -69 -90 -135l-23 21q60 56 60 103q0 29 -27 36l2 7q18 15 39 15zM275 -10q-112 0 -174.5 57.5t-62.5 160.5q0 123 85.5 206t231.5 83q100 0 186 -36l-21 -112h-53l14 80q-60 20 -125 20q-115 0 -187 -66.5t-72 -171.5q0 -79 45 -126t138 -47
q69 0 148 29l24 141h-126l8 45h229l-8 -45h-49l-30 -174q-117 -44 -201 -44z" />
    <glyph glyph-name="Gdotaccent.smcp" unicode="&#xf680;" horiz-adv-x="590" 
d="M275 -10q-112 0 -174.5 57.5t-62.5 160.5q0 123 85.5 206t231.5 83q100 0 186 -36l-21 -112h-53l14 80q-60 20 -125 20q-115 0 -187 -66.5t-72 -171.5q0 -79 45 -126t138 -47q69 0 148 29l24 141h-126l8 45h229l-8 -45h-49l-30 -174q-117 -44 -201 -44zM405.5 579.5
q-12.5 -12.5 -30 -12.5t-30 12.5t-12.5 30t12.5 30t30 12.5t30 -12.5t12.5 -30t-12.5 -30z" />
    <glyph glyph-name="Hbar.smcp" unicode="&#xf681;" horiz-adv-x="641" 
d="M70 342l5 31h63l12 68h-78l8 46h214l-8 -46h-78l-12 -68h292l12 68h-78l8 46h214l-8 -46h-78l-13 -68h77l-5 -31h-77l-52 -296h78l-8 -46h-214l8 46h78l32 177h-293l-31 -177h78l-8 -46h-214l8 46h78l53 296h-63zM177 270h293l12 73h-292z" />
    <glyph glyph-name="Hcircumflex.smcp" unicode="&#xf682;" horiz-adv-x="641" 
d="M239 551l-15 20l156 124h35l101 -126l-18 -18l-108 87zM-6 0l8 46h78l70 395h-78l8 46h213l-8 -46h-78l-30 -171h292l31 171h-79l8 46h214l-8 -46h-78l-70 -395h78l-8 -46h-214l8 46h79l31 177h-292l-32 -177h78l-8 -46h-213z" />
    <glyph glyph-name="Ibreve.smcp" unicode="&#xf683;" horiz-adv-x="291" 
d="M-6 0l8 46h78l70 395h-78l8 46h213l-8 -46h-78l-70 -395h78l-8 -46h-213zM297 584.5q-39 -32.5 -98 -32.5t-86.5 32t-27.5 73q0 10 2 22h44q-1 -7 -1 -14q0 -68 76 -68t98 82h45q-13 -62 -52 -94.5z" />
    <glyph glyph-name="Imacron.smcp" unicode="&#xf685;" horiz-adv-x="291" 
d="M-6 0l8 46h78l70 395h-78l8 46h213l-8 -46h-78l-70 -395h78l-8 -46h-213zM73 567l8 44h253l-8 -44h-253z" />
    <glyph glyph-name="Iogonek.smcp" unicode="&#xf686;" horiz-adv-x="291" 
d="M62 -114q0 -39 43 -39q30 0 64 16l-3 -39q-41 -16 -76.5 -16t-57.5 17t-22 51q0 69 91 124h-107l8 46h78l70 395h-78l8 46h213l-8 -46h-78l-70 -395h78l-8 -46h-48q-97 -55 -97 -114z" />
    <glyph glyph-name="Itilde.smcp" unicode="&#xf687;" horiz-adv-x="291" 
d="M-6 0l8 46h78l70 395h-78l8 46h213l-8 -46h-78l-70 -395h78l-8 -46h-213zM101.5 643.5q22.5 17.5 48 17.5t65 -28t59.5 -28q35 0 71 57l24 -16q-48 -89 -105 -89q-27 0 -66.5 28t-59.5 28q-32 0 -70 -57l-24 15q14 25 24.5 40t33 32.5z" />
    <glyph glyph-name="Jcircumflex.smcp" unicode="&#xf688;" horiz-adv-x="272" 
d="M-22 -135l-16 40q90 38 101 99l78 437h-78l8 46h214l-8 -46h-78l-78 -441q-13 -74 -99 -116q-18 -9 -44 -19zM60 551l-15 20l156 124h35l101 -126l-18 -18l-108 87z" />
    <glyph glyph-name="Kcommaaccent.smcp" unicode="&#xf689;" horiz-adv-x="570" 
d="M271 -69q40 0 40 -47q0 -69 -90 -135l-23 21q60 56 60 103q0 29 -27 36l2 7q18 15 38 15zM391 0l-180 243l1 4l234 195h-77l8 45h209l-8 -46h-60l-237 -200l146 -195h86l-8 -46h-114zM-6 0l8 46h78l70 395h-78l8 46h213l-8 -46h-78l-70 -395h78l-8 -46h-213z" />
    <glyph glyph-name="Lacute.smcp" unicode="&#xf68a;" horiz-adv-x="469" 
d="M-6 0l8 46h78l70 395h-78l8 46h222l-8 -46h-87l-70 -395h220l17 93h52l-24 -139h-408zM166 551l-19 24l162 140l34 -46z" />
    <glyph glyph-name="Lcaron.smcp" unicode="&#xf68b;" horiz-adv-x="473" 
d="M409 492q40 0 40 -46q0 -33 -24 -69t-66 -66l-23 20q60 57 60 104q0 29 -27 36l2 7q19 14 38 14zM-6 0l8 46h78l70 395h-78l8 46h222l-8 -46h-87l-70 -395h220l17 93h52l-24 -139h-408z" />
    <glyph glyph-name="Lcommaaccent.smcp" unicode="&#xf68c;" horiz-adv-x="469" 
d="M224 -69q39 0 39 -47q0 -69 -90 -135l-23 21q60 56 60 103q0 30 -27 36l2 7q18 15 39 15zM-6 0l8 46h78l70 395h-78l8 46h222l-8 -46h-87l-70 -395h220l17 93h52l-24 -139h-408z" />
    <glyph glyph-name="Ldot.smcp" unicode="&#xf68d;" horiz-adv-x="469" 
d="M-6 0l8 46h78l70 395h-78l8 46h222l-8 -46h-87l-70 -395h220l17 93h52l-24 -139h-408zM388.5 244.5q-12.5 -12.5 -30 -12.5t-29.5 12.5t-12 30t12 29.5t29.5 12t30 -12t12.5 -29.5t-12.5 -30z" />
    <glyph glyph-name="Nacute.smcp" unicode="&#xf68e;" horiz-adv-x="635" 
d="M-7 0l8 46h79l70 395h-79l8 46h131l234 -405l62 359h-82l8 46h215l-8 -46h-79l-78 -441h-49l-235 407l-64 -361h81l-8 -46h-214zM329 551l-19 24l161 140l35 -46z" />
    <glyph glyph-name="Ncaron.smcp" unicode="&#xf68f;" horiz-adv-x="635" 
d="M-7 0l8 46h79l70 395h-79l8 46h131l234 -405l62 359h-82l8 46h215l-8 -46h-79l-78 -441h-49l-235 407l-64 -361h81l-8 -46h-214zM345 555l-103 124l18 19l111 -87l148 87l15 -19l-154 -124h-35z" />
    <glyph glyph-name="Ncommaaccent.smcp" unicode="&#xf690;" horiz-adv-x="635" 
d="M285 -69q39 0 39 -47q0 -69 -90 -135l-23 21q60 56 60 103q0 30 -27 36l2 7q18 15 39 15zM-7 0l8 46h79l70 395h-79l8 46h131l234 -405l62 359h-82l8 46h215l-8 -46h-79l-78 -441h-49l-235 407l-64 -361h81l-8 -46h-214z" />
    <glyph glyph-name="Obreve.smcp" unicode="&#xf691;" horiz-adv-x="605" 
d="M265 -10q-108 0 -167.5 61t-59.5 159q0 118 84 202.5t214 84.5q108 0 167.5 -61t59.5 -158q0 -119 -84 -203.5t-214 -84.5zM267 38q99 0 168.5 69t69.5 169q0 78 -46 125.5t-125 47.5q-99 0 -168.5 -69t-69.5 -168q0 -79 46 -126.5t125 -47.5zM462 588.5
q-39 -32.5 -97.5 -32.5t-86 32.5t-27.5 73.5q0 10 2 22h44q-1 -7 -1 -14q0 -69 76 -69t98 83h44q-13 -63 -52 -95.5z" />
    <glyph glyph-name="Ohungarumlaut.smcp" unicode="&#xf692;" horiz-adv-x="605" 
d="M265 -10q-108 0 -167.5 61t-59.5 159q0 118 84 202.5t214 84.5q108 0 167.5 -61t59.5 -158q0 -119 -84 -203.5t-214 -84.5zM267 38q99 0 168.5 69t69.5 169q0 78 -46 125.5t-125 47.5q-99 0 -168.5 -69t-69.5 -168q0 -79 46 -126.5t125 -47.5zM268 562l-18 19l139 154
l38 -41zM420 562l-18 19l139 154l39 -41z" />
    <glyph glyph-name="Omacron.smcp" unicode="&#xf693;" horiz-adv-x="605" 
d="M265 -10q-108 0 -167.5 61t-59.5 159q0 118 84 202.5t214 84.5q108 0 167.5 -61t59.5 -158q0 -119 -84 -203.5t-214 -84.5zM267 38q99 0 168.5 69t69.5 169q0 78 -46 125.5t-125 47.5q-99 0 -168.5 -69t-69.5 -168q0 -79 46 -126.5t125 -47.5zM236 571l7 45h253l-8 -45
h-252z" />
    <glyph glyph-name="Oslashacute.smcp" unicode="&#xf694;" horiz-adv-x="603" 
d="M327 555l-19 24l162 140l35 -45zM264 -10q-100 0 -158 52l-57 -54l-21 21l58 54q-49 58 -49 147q0 118 84 202.5t214 84.5q97 0 157 -52l58 54l21 -22l-58 -53q49 -56 49 -146q0 -119 -84 -203.5t-214 -84.5zM266 38q99 0 168.5 69t69.5 169q0 62 -33 108l-325 -304
q45 -42 120 -42zM333 449q-99 0 -168.5 -69t-69.5 -168q0 -66 32 -110l325 305q-45 42 -119 42z" />
    <glyph glyph-name="Racute.smcp" unicode="&#xf695;" horiz-adv-x="539" 
d="M310 487q76 0 126 -33t50 -97.5t-39 -103.5t-107 -53l62 -154h77l-7 -46h-111l-75 191h-123l-26 -145h78l-8 -46h-213l8 46h78l70 395h-78l8 46h230zM268 236q78 0 119 32.5t41 83.5q0 89 -124 89h-97l-36 -205h97zM266 551l-19 24l161 140l35 -46z" />
    <glyph glyph-name="Rcaron.smcp" unicode="&#xf696;" horiz-adv-x="539" 
d="M310 487q76 0 126 -33t50 -97.5t-39 -103.5t-107 -53l62 -154h77l-7 -46h-111l-75 191h-123l-26 -145h78l-8 -46h-213l8 46h78l70 395h-78l8 46h230zM268 236q78 0 119 32.5t41 83.5q0 89 -124 89h-97l-36 -205h97zM285 555l-104 124l19 19l111 -87l147 87l16 -19
l-154 -124h-35z" />
    <glyph glyph-name="Rcommaaccent.smcp" unicode="&#xf697;" horiz-adv-x="539" 
d="M255 -69q39 0 39 -47q0 -70 -90 -135l-23 21q60 56 60 103q0 29 -26 36l1 7q18 15 39 15zM310 487q76 0 126 -33t50 -97.5t-39 -103.5t-107 -53l62 -154h77l-7 -46h-111l-75 191h-123l-26 -145h78l-8 -46h-213l8 46h78l70 395h-78l8 46h230zM268 236q78 0 119 32.5
t41 83.5q0 89 -124 89h-97l-36 -205h97z" />
    <glyph glyph-name="Sacute.smcp" unicode="&#xf698;" horiz-adv-x="441" 
d="M326 27.5q-50 -37.5 -140 -37.5t-177 27l19 111h53l-13 -77q56 -15 118 -15t98 23.5t36 61t-25.5 60t-62 36.5t-73 29.5t-62 44t-25.5 71.5q0 58 45 96.5t133.5 38.5t164.5 -26l-20 -108h-53l13 75q-52 13 -108.5 13t-87.5 -25t-31 -57.5t25.5 -53.5t62 -34.5t73 -30
t62 -47t25.5 -74.5q0 -64 -50 -101.5zM238 556l-19 24l162 140l35 -46z" />
    <glyph glyph-name="Scedilla.smcp" unicode="&#xf699;" horiz-adv-x="441" 
d="M217.5 -173.5q-29.5 -18.5 -73.5 -18.5t-79 15l11 35q31 -14 65 -14q57 0 57 37q0 39 -68 39h-7l4 18l36 52q-83 5 -154 27l19 111h53l-13 -77q56 -15 118 -15t98 23.5t36 61t-25.5 60t-62 36.5t-73 29.5t-62 44t-25.5 71.5q0 58 45 96.5t133.5 38.5t164.5 -26l-20 -108
h-53l13 75q-52 13 -108.5 13t-87.5 -25t-31 -57.5t25.5 -53.5t62 -34.5t73 -30t62 -47t25.5 -74.5q0 -61 -44.5 -97.5t-128.5 -40.5l-25 -45q69 -9 69 -65q0 -36 -29.5 -54.5z" />
    <glyph glyph-name="Scircumflex.smcp" unicode="&#xf69a;" horiz-adv-x="441" 
d="M326 27.5q-50 -37.5 -140 -37.5t-177 27l19 111h53l-13 -77q56 -15 118 -15t98 23.5t36 61t-25.5 60t-62 36.5t-73 29.5t-62 44t-25.5 71.5q0 58 45 96.5t133.5 38.5t164.5 -26l-20 -108h-53l13 75q-52 13 -108.5 13t-87.5 -25t-31 -57.5t25.5 -53.5t62 -34.5t73 -30
t62 -47t25.5 -74.5q0 -64 -50 -101.5zM153 555l-14 20l156 124h35l100 -125l-17 -19l-109 87z" />
    <glyph glyph-name="Scommaaccent.smcp" unicode="&#xf69b;" horiz-adv-x="441" 
d="M177 -74q39 0 39 -47q0 -70 -90 -135l-23 21q60 56 60 103q0 30 -26 36l1 7q18 15 39 15zM326 27.5q-50 -37.5 -140 -37.5t-177 27l19 111h53l-13 -77q56 -15 118 -15t98 23.5t36 61t-25.5 60t-62 36.5t-73 29.5t-62 44t-25.5 71.5q0 58 45 96.5t133.5 38.5t164.5 -26
l-20 -108h-53l13 75q-52 13 -108.5 13t-87.5 -25t-31 -57.5t25.5 -53.5t62 -34.5t73 -30t62 -47t25.5 -74.5q0 -64 -50 -101.5z" />
    <glyph glyph-name="Tbar.smcp" unicode="&#xf69c;" horiz-adv-x="503" 
d="M97 217l6 39h120l33 185h-143l-15 -87h-53l24 133h447l-24 -133h-53l15 87h-141l-33 -185h120l-7 -39h-120l-30 -171h85l-8 -46h-227l8 46h85l30 171h-119z" />
    <glyph glyph-name="Tcaron.smcp" unicode="&#xf69d;" horiz-adv-x="499" 
d="M91 0l8 46h85l70 395h-143l-15 -87h-53l24 133h447l-24 -133h-52l15 87h-142l-70 -395h86l-8 -46h-228zM277 555l-104 124l18 19l111 -87l148 87l15 -19l-153 -124h-35z" />
    <glyph glyph-name="Tcommaaccent.smcp" unicode="&#xf69e;" horiz-adv-x="499" 
d="M190 -69q39 0 39 -47q0 -70 -90 -135l-23 21q60 56 60 103q0 29 -26 36l1 7q18 15 39 15zM91 0l8 46h85l70 395h-143l-15 -87h-53l24 133h447l-24 -133h-52l15 87h-142l-70 -395h86l-8 -46h-228z" />
    <glyph glyph-name="Ubreve.smcp" unicode="&#xf69f;" horiz-adv-x="591" 
d="M400 35q-57 -45 -145 -45t-137 48q-37 37 -37 95q0 19 4 39l48 269h-78l8 46h214l-8 -46h-79l-49 -276q-3 -16 -3 -29q0 -39 22 -64q31 -33 96 -33t108.5 32.5t53.5 90.5l49 279h-79l8 46h212l-8 -46h-78l-50 -278q-15 -83 -72 -128zM448 584.5q-39 -32.5 -98 -32.5
t-86 32t-27 72q0 11 2 23h44q-1 -8 -1 -15q0 -67 75.5 -67t98.5 82h44q-13 -62 -52 -94.5z" />
    <glyph glyph-name="Uhungarumlaut.smcp" unicode="&#xf6a0;" horiz-adv-x="591" 
d="M400 35q-57 -45 -145 -45t-137 48q-37 37 -37 95q0 19 4 39l48 269h-78l8 46h214l-8 -46h-79l-49 -276q-3 -16 -3 -29q0 -39 22 -64q31 -33 96 -33t108.5 32.5t53.5 90.5l49 279h-79l8 46h212l-8 -46h-78l-50 -278q-15 -83 -72 -128zM253 557l-18 19l139 155l38 -41z
M405 557l-18 19l139 155l39 -41z" />
    <glyph glyph-name="Umacron.smcp" unicode="&#xf6a1;" horiz-adv-x="591" 
d="M400 35q-57 -45 -145 -45t-137 48q-37 37 -37 95q0 19 4 39l48 269h-78l8 46h214l-8 -46h-79l-49 -276q-3 -16 -3 -29q0 -39 22 -64q31 -33 96 -33t108.5 32.5t53.5 90.5l49 279h-79l8 46h212l-8 -46h-78l-50 -278q-15 -83 -72 -128zM224 567l8 44h252l-7 -44h-253z" />
    <glyph glyph-name="Uogonek.smcp" unicode="&#xf6a2;" horiz-adv-x="591" 
d="M348 -176q-41 -16 -76.5 -16t-58 17t-22.5 52q0 61 76 114h-14q-83 0 -127 40.5t-44 102.5q0 18 3 38l48 269h-78l8 46h214l-8 -46h-79l-49 -276q-3 -16 -3 -29q0 -39 22 -64q31 -33 96 -33t108.5 32.5t53.5 90.5l49 279h-79l8 46h212l-8 -46h-78l-50 -278
q-11 -63 -43 -98.5t-77 -58.5q-109 -54 -109 -119q0 -40 44 -40q30 0 64 16z" />
    <glyph glyph-name="Uring.smcp" unicode="&#xf6a3;" horiz-adv-x="591" 
d="M400 35q-57 -45 -145 -45t-137 48q-37 37 -37 95q0 19 4 39l48 269h-78l8 46h214l-8 -46h-79l-49 -276q-3 -16 -3 -29q0 -39 22 -64q31 -33 96 -33t108.5 32.5t53.5 90.5l49 279h-79l8 46h212l-8 -46h-78l-50 -278q-15 -83 -72 -128zM439 580q-32 -33 -80 -33t-73.5 24.5
t-25.5 65.5t32.5 74t80.5 33t73 -24t25 -65.5t-32 -74.5zM318.5 597.5q12.5 -14.5 41 -14.5t47 22t18.5 48q0 55 -51 55q-30 0 -49 -22t-19 -48t12.5 -40.5z" />
    <glyph glyph-name="Utilde.smcp" unicode="&#xf6a4;" horiz-adv-x="591" 
d="M400 35q-57 -45 -145 -45t-137 48q-37 37 -37 95q0 19 4 39l48 269h-78l8 46h214l-8 -46h-79l-49 -276q-3 -16 -3 -29q0 -39 22 -64q31 -33 96 -33t108.5 32.5t53.5 90.5l49 279h-79l8 46h212l-8 -46h-78l-50 -278q-15 -83 -72 -128zM254.5 643.5q22.5 17.5 48 17.5
t65 -28t59.5 -28q36 0 72 57l23 -16q-48 -89 -105 -89q-27 0 -66.5 28t-59.5 28q-33 0 -70 -57l-24 15q14 25 24.5 40t33 32.5z" />
    <glyph glyph-name="Wcircumflex.smcp" unicode="&#xf6a6;" horiz-adv-x="791" 
d="M174 0l-72 441h-71l8 46h208l-8 -44h-83l57 -368l178 326l-8 42h-71l8 44h208l-8 -44h-84l67 -367l189 366h-83l8 45h211l-8 -46h-71l-231 -441h-51l-62 325l-179 -325h-52zM300 551l-14 20l156 124h35l100 -126l-17 -18l-109 87z" />
    <glyph glyph-name="Ycircumflex.smcp" unicode="&#xf6a9;" horiz-adv-x="538" 
d="M111 0l8 46h82l24 137l-121 258h-72l8 46h211l-8 -45h-81l97 -208l173 209h-80l8 44h215l-8 -46h-72l-213 -259l-24 -136h81l-8 -46h-220zM184 551l-14 20l156 124h35l100 -126l-17 -18l-109 87z" />
    <glyph glyph-name="Zacute.smcp" unicode="&#xf6ab;" horiz-adv-x="487" 
d="M2 0l-10 23l391 417h-247l-16 -90h-55l24 137h379l13 -21l-392 -419h265l17 95h54l-25 -142h-398zM258 551l-19 24l162 140l35 -46z" />
    <glyph glyph-name="Zdotaccent.smcp" unicode="&#xf6ac;" horiz-adv-x="487" 
d="M2 0l-10 23l391 417h-247l-16 -90h-55l24 137h379l13 -21l-392 -419h265l17 95h54l-25 -142h-398zM330.5 575.5q-12.5 -12.5 -30 -12.5t-29.5 12.5t-12 30t12 29.5t29.5 12t30 -12t12.5 -29.5t-12.5 -30z" />
    <glyph glyph-name="Idotaccent.smcp" unicode="&#xf6ad;" horiz-adv-x="291" 
d="M-6 0l8 46h78l70 395h-78l8 46h213l-8 -46h-78l-70 -395h78l-8 -46h-213zM236.5 575.5q-12.5 -12.5 -30 -12.5t-30 12.5t-12.5 30t12.5 29.5t30 12t30 -12t12.5 -29.5t-12.5 -30z" />
    <glyph glyph-name="parenleft.cap" unicode="&#xf6ae;" horiz-adv-x="249" 
d="M38 188q0 305 229 569h65q-238 -270 -238 -570q0 -86 19.5 -177t56.5 -158h-61q-71 145 -71 336z" />
    <glyph glyph-name="parenright.cap" unicode="&#xf6af;" horiz-adv-x="250" 
d="M173 421q0 85 -19.5 176.5t-56.5 159.5h61q71 -146 71 -337q0 -305 -230 -568h-64q111 125 174.5 270.5t63.5 298.5z" />
    <glyph glyph-name="bracketleft.cap" unicode="&#xf6b0;" horiz-adv-x="283" 
d="M11 -148l160 905h184l-8 -42h-130l-145 -822h130l-7 -41h-184z" />
    <glyph glyph-name="bracketright.cap" unicode="&#xf6b1;" horiz-adv-x="283" 
d="M-55 -148l8 41h130l145 822h-131l8 42h184l-160 -905h-184z" />
    <glyph glyph-name="braceleft.cap" unicode="&#xf6b2;" horiz-adv-x="279" 
d="M179 -151q-30 -10 -63 -10t-53.5 21.5t-20.5 56t37.5 127t37.5 138.5q0 90 -105 98l9 50q41 1 70.5 14.5t45 32t23.5 49.5q13 44 13 135.5t12 130.5q23 78 101 78q29 0 54 -10l-6 -38q-20 9 -37 9t-27 -3t-17 -10t-12 -13.5t-8 -19t-4.5 -21t-2 -25t-1 -25.5t0 -27.5
t0.5 -44.5t-2 -56t-10.5 -65t-23.5 -57q-34 -51 -109 -62q45 -8 67 -41t22 -81t-38 -142t-38 -121q0 -38 43 -38q15 0 48 9z" />
    <glyph glyph-name="braceright.cap" unicode="&#xf6b3;" horiz-adv-x="279" 
d="M10 -161q-29 0 -54 10l6 38q23 -9 38.5 -9t25.5 3t17 10t12 13.5t8 19t4.5 21t2 25t1 25.5t0 27.5t-0.5 50.5t4.5 68.5t17.5 74.5q27 77 124 91q-46 8 -68 41t-22 81t38 142t38 121q0 38 -42 38q-16 0 -49 -9l6 39q32 10 64 10t52.5 -21.5t20.5 -56t-37.5 -127
t-37.5 -138.5q0 -90 105 -98l-9 -50q-41 -1 -70.5 -14.5t-45 -32t-23.5 -48.5q-13 -45 -13 -136.5t-12 -130.5q-23 -78 -101 -78z" />
    <glyph glyph-name="exclamdown.cap" unicode="&#xf6b4;" horiz-adv-x="236" 
d="M40 0l91 451h42l-68 -451h-65zM172 524q-19 0 -32.5 14t-13.5 33t13.5 33t32.5 14t33 -14t14 -33t-14 -33t-33 -14z" />
    <glyph glyph-name="questiondown.cap" unicode="&#xf6b5;" horiz-adv-x="373" 
d="M296 11q-66 -22 -128.5 -22t-102.5 33.5t-40 94.5q0 43 21.5 80.5t51.5 64.5l60 54q74 65 72 135h54q1 -45 -19 -84t-50 -67t-60 -54q-72 -62 -72 -126q0 -83 100 -83q54 0 122 24zM268 524q-19 0 -32.5 14t-13.5 33t13.5 33t32.5 14t33 -14t14 -33t-14 -33t-33 -14z" />
    <glyph glyph-name="guillemotleft.cap" unicode="&#xf6b6;" horiz-adv-x="526" 
d="M172 127l-117 176l1 4l178 175h72l-188 -183l117 -172h-63zM381 127l-116 176l1 4l178 175h71l-187 -183l116 -172h-63z" />
    <glyph glyph-name="guillemotright.cap" unicode="&#xf6b7;" horiz-adv-x="526" 
d="M238 127l187 183l-117 172h64l116 -175l-1 -4l-178 -176h-71zM28 127l188 183l-117 172h63l116 -175l-1 -4l-178 -176h-71z" />
    <glyph glyph-name="guilsinglleft.cap" unicode="&#xf6b8;" horiz-adv-x="317" 
d="M172 127l-117 176l1 4l178 175h72l-188 -183l117 -172h-63z" />
    <glyph glyph-name="guilsinglright.cap" unicode="&#xf6b9;" horiz-adv-x="316" 
d="M28 127l188 183l-117 172h63l116 -175l-1 -4l-178 -176h-71z" />
    <glyph glyph-name="hyphen.cap" unicode="&#xf6ba;" horiz-adv-x="381" 
d="M64 279l9 51h259l-9 -51h-259z" />
    <glyph glyph-name="endash.cap" unicode="&#xf6bb;" horiz-adv-x="589" 
d="M64 279l9 51h467l-9 -51h-467z" />
    <glyph glyph-name="emdash.cap" unicode="&#xf6bc;" horiz-adv-x="784" 
d="M64 279l9 51h662l-10 -51h-661z" />
    <glyph glyph-name="periodcentered.cap" unicode="&#xf6bd;" horiz-adv-x="206" 
d="M110 258q-18 0 -31 13t-13 31.5t13 31t31 12.5t31 -12.5t13 -31t-13 -31.5t-31 -13z" />
    <glyph glyph-name="acute.cap" unicode="&#xf6c9;" horiz-adv-x="346" 
d="M84 671l-20 26l165 146l37 -47z" />
    <glyph glyph-name="caron.cap" unicode="&#xf6ca;" horiz-adv-x="436" 
d="M182 676l-110 129l18 19l118 -88l152 88l17 -20l-159 -128h-36z" />
    <glyph glyph-name="dieresis.cap" unicode="&#xf6cb;" horiz-adv-x="436" 
d="M142.5 689.5q-12.5 -12.5 -29 -12.5t-28.5 12t-12 29t12 29.5t29 12.5t29 -12.5t12 -29t-12.5 -29zM288 677q-17 0 -29 12t-12 29t12 29.5t29 12.5t29 -12.5t12 -29.5t-12 -29t-29 -12z" />
    <glyph glyph-name="grave.cap" unicode="&#xf6ce;" horiz-adv-x="346" 
d="M220 671l-154 128l41 43l136 -147z" />
    <glyph glyph-name="hungarumlaut.cap" unicode="&#xf6cf;" horiz-adv-x="515" 
d="M93 673l-20 20l142 160l41 -42zM247 673l-19 20l142 160l41 -42z" />
    <glyph glyph-name="macron.cap" unicode="&#xf6d0;" horiz-adv-x="419" 
d="M71 679l8 47h261l-9 -47h-260z" />
    <glyph glyph-name="breve.smcp" unicode="&#xf6f4;" horiz-adv-x="360" 
d="M274 584.5q-39 -32.5 -97.5 -32.5t-86 32t-27.5 73q0 10 2 22h44q-1 -7 -1 -14q0 -68 76 -68t98 82h44q-13 -62 -52 -94.5z" />
    <glyph glyph-name="caron.smcp" unicode="&#xf6f5;" horiz-adv-x="432" 
d="M179 555l-103 124l18 19l111 -87l148 87l15 -19l-154 -124h-35z" />
    <glyph glyph-name="circumflex.smcp" unicode="&#xf6f6;" horiz-adv-x="425" 
d="M83 551l-15 20l156 124h35l100 -126l-17 -18l-108 87z" />
    <glyph glyph-name="dotaccent.smcp" unicode="&#xf6f7;" horiz-adv-x="236" 
d="M150.5 575.5q-12.5 -12.5 -30 -12.5t-30 12.5t-12.5 30t12.5 29.5t30 12t30 -12t12.5 -29.5t-12.5 -30z" />
    <glyph glyph-name="hungarumlaut.smcp" unicode="&#xf6f8;" horiz-adv-x="451" 
d="M91 557l-18 19l139 155l38 -41zM243 557l-18 19l139 155l39 -41z" />
    <glyph glyph-name="Lslash.smcp" unicode="&#xf6f9;" horiz-adv-x="469" 
d="M50 171l-14 34l79 37l35 199h-78l8 46h222l-8 -46h-86l-31 -172l169 82l14 -34l-191 -91l-31 -180h219l17 93h53l-25 -139h-408l8 46h78l27 152z" />
    <glyph glyph-name="ogonek.smcp" unicode="&#xf6fb;" horiz-adv-x="269" 
d="M200 -176q-41 -16 -76.5 -16t-58 17t-22.5 47.5t15 56t39 44.5q41 33 84 51l20 -19q-106 -59 -106 -119q0 -39 44 -39q30 0 64 16z" />
    <glyph glyph-name="ring.smcp" unicode="&#xf6fc;" horiz-adv-x="354" 
d="M251.5 580q-31.5 -33 -80 -33t-73.5 24t-25 65.5t32.5 74.5t80.5 33t72.5 -24t24.5 -65.5t-31.5 -74.5zM131.5 597.5q12.5 -14.5 40.5 -14.5t47 22t19 48q0 55 -51 55q-30 0 -49 -22t-19 -48t12.5 -40.5z" />
    <glyph glyph-name="Scaron.smcp" unicode="&#xf6fd;" horiz-adv-x="441" 
d="M326 27.5q-50 -37.5 -140 -37.5t-177 27l19 111h53l-13 -77q56 -15 118 -15t98 23.5t36 61t-25.5 60t-62 36.5t-73 29.5t-62 44t-25.5 71.5q0 58 45 96.5t133.5 38.5t164.5 -26l-20 -108h-53l13 75q-52 13 -108.5 13t-87.5 -25t-31 -57.5t25.5 -53.5t62 -34.5t73 -30
t62 -47t25.5 -74.5q0 -64 -50 -101.5zM264 559l-104 125l18 18l111 -87l148 88l15 -19l-153 -125h-35z" />
    <glyph glyph-name="tilde.smcp" unicode="&#xf6fe;" horiz-adv-x="451" 
d="M122.5 643.5q22.5 17.5 48 17.5t65.5 -28t60 -28q35 0 71 57l24 -16q-51 -89 -106 -89q-27 0 -66.5 28t-58.5 28q-34 0 -71 -57l-24 15q14 25 24.5 40t33 32.5z" />
    <glyph glyph-name="Zcaron.smcp" unicode="&#xf6ff;" horiz-adv-x="487" 
d="M2 0l-10 23l391 417h-247l-16 -90h-55l24 137h379l13 -21l-392 -419h265l17 95h54l-25 -142h-398zM276 555l-104 124l19 19l111 -87l148 87l15 -19l-154 -124h-35z" />
    <glyph glyph-name="exclam.smcp" unicode="&#xf721;" horiz-adv-x="230" 
d="M72 129l53 358h61l-74 -358h-40zM76 -7q-17 0 -29.5 12.5t-12.5 29.5t12.5 29t29.5 12t29.5 -12t12.5 -29t-12.5 -29.5t-29.5 -12.5z" />
    <glyph glyph-name="ampersand.smcp" unicode="&#xf726;" horiz-adv-x="546" 
d="M169 -9q-66 0 -105 34.5t-39 92.5t35.5 93.5t97.5 67.5q-42 57 -42 104.5t34.5 80t89 32.5t81 -29t26.5 -70t-29 -71t-85 -59l105 -134q44 57 67 128h99l-8 -43h-55q-32 -73 -74 -124q25 -33 40.5 -45.5t36.5 -12.5t36 7l-8 -45q-21 -7 -41 -7q-49 0 -102 66
q-73 -66 -160 -66zM175 38q65 0 125 57l-115 148q-53 -28 -80 -55t-27 -66.5t27 -61.5t70 -22zM283 437.5q-14 16.5 -44 16.5t-49.5 -19.5t-19.5 -51.5t36 -80q47 23 69 44.5t22 47.5t-14 42.5z" />
    <glyph glyph-name="question.smcp" unicode="&#xf73f;" horiz-adv-x="333" 
d="M86 129q0 64 58 118q23 22 46 43q57 49 57 98q0 64 -82 64q-40 0 -99 -17l7 45q58 16 108.5 16t85.5 -26.5t35 -78.5q0 -65 -58 -117l-48 -42q-58 -49 -58 -103h-52zM101 -7q-17 0 -29.5 12.5t-12.5 29.5t12.5 29t29.5 12t29 -12t12 -29t-12 -29.5t-29 -12.5z" />
    <glyph glyph-name="grave.smcp" unicode="&#xf760;" horiz-adv-x="309" 
d="M216 551l-150 122l39 41l133 -141z" />
    <glyph glyph-name="A.smcp" unicode="&#xf761;" horiz-adv-x="581" 
d="M-39 0l8 46h70l235 395h-73l8 46h162l104 -441h72l-8 -46h-210l8 46h83l-27 115h-226l-68 -115h83l-8 -46h-213zM193 207h190l-54 230z" />
    <glyph glyph-name="B.smcp" unicode="&#xf762;" horiz-adv-x="517" 
d="M307 487q78 0 122 -30.5t44 -81.5t-32 -83.5t-88 -42.5q45 -8 72 -36.5t27 -72.5q0 -63 -56 -101.5t-150 -38.5h-253l8 45h78l70 397h-79l8 45h229zM245 45q69 0 110 26.5t41 69.5q0 85 -125 85h-104l-31 -181h109zM264 269q71 0 111.5 26t40.5 67q0 80 -114 80h-96
l-31 -173h89z" />
    <glyph glyph-name="C.smcp" unicode="&#xf763;" horiz-adv-x="524" 
d="M448 30q-84 -40 -182.5 -40t-163 57t-64.5 162q0 122 84.5 205t224.5 83q86 0 174 -33l-21 -120h-55l16 89q-51 17 -115 17q-108 0 -179 -66.5t-71 -171.5q0 -85 50 -129t137 -44t173 43z" />
    <glyph glyph-name="D.smcp" unicode="&#xf764;" horiz-adv-x="578" 
d="M301 487q105 0 169 -54t64 -159q0 -123 -87 -198.5t-223 -75.5h-230l8 46h78l70 395h-78l8 46h221zM228 46q109 0 178 63.5t69 164.5q0 81 -46.5 124t-130.5 43h-91l-70 -395h91z" />
    <glyph glyph-name="E.smcp" unicode="&#xf765;" horiz-adv-x="496" 
d="M-6 0l8 46h78l70 395h-78l8 46h406l-24 -133h-52l15 87h-218l-30 -173h221l-8 -45h-221l-32 -177h219l16 88h53l-24 -134h-407z" />
    <glyph glyph-name="F.smcp" unicode="&#xf766;" horiz-adv-x="472" 
d="M-6 0l8 46h78l70 395h-78l8 46h402l-25 -143h-54l17 97h-213l-33 -184h205l-8 -46h-205l-29 -165h92l-8 -46h-227z" />
    <glyph glyph-name="G.smcp" unicode="&#xf767;" horiz-adv-x="590" 
d="M275 -10q-112 0 -174.5 57.5t-62.5 160.5q0 123 85.5 206t231.5 83q100 0 186 -36l-21 -112h-53l14 80q-60 20 -125 20q-115 0 -187 -66.5t-72 -171.5q0 -79 45 -126t138 -47q69 0 148 29l24 141h-126l8 45h229l-8 -45h-49l-30 -174q-117 -44 -201 -44z" />
    <glyph glyph-name="H.smcp" unicode="&#xf768;" horiz-adv-x="641" 
d="M-6 0l8 46h78l70 395h-78l8 46h213l-8 -46h-78l-30 -171h292l31 171h-79l8 46h214l-8 -46h-78l-70 -395h78l-8 -46h-214l8 46h79l31 177h-292l-32 -177h78l-8 -46h-213z" />
    <glyph glyph-name="I.smcp" unicode="&#xf769;" horiz-adv-x="291" 
d="M-6 0l8 46h78l70 395h-78l8 46h213l-8 -46h-78l-70 -395h78l-8 -46h-213z" />
    <glyph glyph-name="J.smcp" unicode="&#xf76a;" horiz-adv-x="272" 
d="M-22 -135l-16 40q90 38 101 99l78 437h-78l8 46h214l-8 -46h-78l-78 -441q-13 -74 -99 -116q-18 -9 -44 -19z" />
    <glyph glyph-name="K.smcp" unicode="&#xf76b;" horiz-adv-x="570" 
d="M391 0l-180 243l1 4l234 195h-77l8 45h209l-8 -46h-60l-237 -200l146 -195h86l-8 -46h-114zM-6 0l8 46h78l70 395h-78l8 46h213l-8 -46h-78l-70 -395h78l-8 -46h-213z" />
    <glyph glyph-name="L.smcp" unicode="&#xf76c;" horiz-adv-x="469" 
d="M-6 0l8 46h78l70 395h-78l8 46h222l-8 -46h-87l-70 -395h220l17 93h52l-24 -139h-408z" />
    <glyph glyph-name="M.smcp" unicode="&#xf76d;" horiz-adv-x="758" 
d="M-12 0l8 46h77l86 396h-77l8 45h160l102 -386l231 386h168l-8 -45h-77l-55 -396h76l-8 -46h-207l8 46h79l53 390l-249 -409h-43l-109 409l-84 -390h78l-8 -46h-209z" />
    <glyph glyph-name="N.smcp" unicode="&#xf76e;" horiz-adv-x="635" 
d="M-7 0l8 46h79l70 395h-79l8 46h131l234 -405l62 359h-82l8 46h215l-8 -46h-79l-78 -441h-49l-235 407l-64 -361h81l-8 -46h-214z" />
    <glyph glyph-name="O.smcp" unicode="&#xf76f;" horiz-adv-x="605" 
d="M265 -10q-108 0 -167.5 61t-59.5 159q0 118 84 202.5t214 84.5q108 0 167.5 -61t59.5 -158q0 -119 -84 -203.5t-214 -84.5zM267 38q99 0 168.5 69t69.5 169q0 78 -46 125.5t-125 47.5q-99 0 -168.5 -69t-69.5 -168q0 -79 46 -126.5t125 -47.5z" />
    <glyph glyph-name="P.smcp" unicode="&#xf770;" horiz-adv-x="493" 
d="M301 487q77 0 126.5 -33.5t49.5 -108.5t-63.5 -118t-157.5 -43h-94l-25 -138h95l-8 -46h-230l8 46h78l70 395h-78l8 46h221zM259 229q78 0 119.5 34t41.5 87q0 91 -124 91h-89l-37 -212h89z" />
    <glyph glyph-name="Q.smcp" unicode="&#xf771;" horiz-adv-x="605" 
d="M38 210q0 118 84 202.5t214 84.5q108 0 167.5 -61t59.5 -161.5t-66 -180t-173 -98.5l105 -65l-37 -42l-145 102q-100 4 -154.5 64.5t-54.5 154.5zM267 38q99 0 168.5 69t69.5 169q0 78 -46 125.5t-125 47.5q-99 0 -168.5 -69t-69.5 -168q0 -79 46 -126.5t125 -47.5z" />
    <glyph glyph-name="R.smcp" unicode="&#xf772;" horiz-adv-x="539" 
d="M310 487q76 0 126 -33t50 -97.5t-39 -103.5t-107 -53l62 -154h77l-7 -46h-111l-75 191h-123l-26 -145h78l-8 -46h-213l8 46h78l70 395h-78l8 46h230zM268 236q78 0 119 32.5t41 83.5q0 89 -124 89h-97l-36 -205h97z" />
    <glyph glyph-name="S.smcp" unicode="&#xf773;" horiz-adv-x="441" 
d="M326 27.5q-50 -37.5 -140 -37.5t-177 27l19 111h53l-13 -77q56 -15 118 -15t98 23.5t36 61t-25.5 60t-62 36.5t-73 29.5t-62 44t-25.5 71.5q0 58 45 96.5t133.5 38.5t164.5 -26l-20 -108h-53l13 75q-52 13 -108.5 13t-87.5 -25t-31 -57.5t25.5 -53.5t62 -34.5t73 -30
t62 -47t25.5 -74.5q0 -64 -50 -101.5z" />
    <glyph glyph-name="T.smcp" unicode="&#xf774;" horiz-adv-x="499" 
d="M91 0l8 46h85l70 395h-143l-15 -87h-53l24 133h447l-24 -133h-52l15 87h-142l-70 -395h86l-8 -46h-228z" />
    <glyph glyph-name="U.smcp" unicode="&#xf775;" horiz-adv-x="591" 
d="M400 35q-57 -45 -145 -45t-137 48q-37 37 -37 95q0 19 4 39l48 269h-78l8 46h214l-8 -46h-79l-49 -276q-3 -16 -3 -29q0 -39 22 -64q31 -33 96 -33t108.5 32.5t53.5 90.5l49 279h-79l8 46h212l-8 -46h-78l-50 -278q-15 -83 -72 -128z" />
    <glyph glyph-name="V.smcp" unicode="&#xf776;" horiz-adv-x="563" 
d="M205 0l-104 441h-71l8 46h214l-8 -45h-87l85 -374l218 374h-86l8 45h218l-8 -46h-71l-261 -441h-55z" />
    <glyph glyph-name="W.smcp" unicode="&#xf777;" horiz-adv-x="791" 
d="M174 0l-72 441h-71l8 46h208l-8 -44h-83l57 -368l178 326l-8 42h-71l8 44h208l-8 -44h-84l67 -367l189 366h-83l8 45h211l-8 -46h-71l-231 -441h-51l-62 325l-179 -325h-52z" />
    <glyph glyph-name="X.smcp" unicode="&#xf778;" horiz-adv-x="551" 
d="M-29 0l8 45h67l196 204l-114 192h-67l8 46h204l-8 -44h-77l91 -158l151 158h-77l7 44h212l-8 -46h-68l-191 -198l118 -198h68l-8 -45h-205l8 45h76l-94 162l-155 -162h78l-8 -45h-212z" />
    <glyph glyph-name="Y.smcp" unicode="&#xf779;" horiz-adv-x="538" 
d="M111 0l8 46h82l24 137l-121 258h-72l8 46h211l-8 -45h-81l97 -208l173 209h-80l8 44h215l-8 -46h-72l-213 -259l-24 -136h81l-8 -46h-220z" />
    <glyph glyph-name="Z.smcp" unicode="&#xf77a;" horiz-adv-x="487" 
d="M2 0l-10 23l391 417h-247l-16 -90h-55l24 137h379l13 -21l-392 -419h265l17 95h54l-25 -142h-398z" />
    <glyph glyph-name="exclamdown.smcp" unicode="&#xf7a1;" horiz-adv-x="229" 
d="M40 0l73 358h41l-53 -358h-61zM149 411q-17 0 -29 12t-12 29t12 29.5t29 12.5t29.5 -12.5t12.5 -29.5t-12.5 -29t-29.5 -12z" />
    <glyph glyph-name="dieresis.smcp" unicode="&#xf7a8;" horiz-adv-x="385" 
d="M144.5 571.5q-11.5 -11.5 -28 -11.5t-28 11t-11.5 28t11.5 28t28 11t28 -11.5t11.5 -27.5t-11.5 -27.5zM277 560q-17 0 -28 11t-11 28t11 28t28 11t28 -11t11 -28t-11 -28t-28 -11z" />
    <glyph glyph-name="macron.smcp" unicode="&#xf7af;" horiz-adv-x="394" 
d="M72 567l7 44h253l-8 -44h-252z" />
    <glyph glyph-name="acute.smcp" unicode="&#xf7b4;" horiz-adv-x="317" 
d="M83 551l-19 24l162 140l35 -46z" />
    <glyph glyph-name="cedilla.smcp" unicode="&#xf7b8;" horiz-adv-x="286" 
d="M185.5 -173.5q-29.5 -18.5 -73.5 -18.5t-79 15l11 35q31 -14 65 -14q56 0 56 37q0 39 -67 39h-7l4 18l58 86l30 -11l-37 -67q69 -9 69 -65q0 -36 -29.5 -54.5z" />
    <glyph glyph-name="questiondown.smcp" unicode="&#xf7bf;" horiz-adv-x="336" 
d="M257 7q-58 -16 -108.5 -16t-86 26.5t-35.5 78.5q0 65 58 116q24 22 49 42q58 49 58 104h52q0 -64 -58 -118q-23 -22 -46 -42q-57 -50 -57 -99q0 -64 81 -64q41 0 100 17zM229 411q-17 0 -29.5 12t-12.5 29t12.5 29.5t29.5 12.5t29.5 -12.5t12.5 -29.5t-12.5 -29
t-29.5 -12z" />
    <glyph glyph-name="Agrave.smcp" unicode="&#xf7e0;" horiz-adv-x="581" 
d="M-39 0l8 46h70l235 395h-73l8 46h162l104 -441h72l-8 -46h-210l8 46h83l-27 115h-226l-68 -115h83l-8 -46h-213zM193 207h190l-54 230zM362 551l-150 122l39 41l133 -141z" />
    <glyph glyph-name="Aacute.smcp" unicode="&#xf7e1;" horiz-adv-x="581" 
d="M-39 0l8 46h70l235 395h-73l8 46h162l104 -441h72l-8 -46h-210l8 46h83l-27 115h-226l-68 -115h83l-8 -46h-213zM193 207h190l-54 230zM286 551l-19 24l161 140l35 -46z" />
    <glyph glyph-name="Acircumflex.smcp" unicode="&#xf7e2;" horiz-adv-x="581" 
d="M-39 0l8 46h70l235 395h-73l8 46h162l104 -441h72l-8 -46h-210l8 46h83l-27 115h-226l-68 -115h83l-8 -46h-213zM193 207h190l-54 230zM200 551l-14 20l156 124h35l100 -126l-17 -18l-109 87z" />
    <glyph glyph-name="Atilde.smcp" unicode="&#xf7e3;" horiz-adv-x="581" 
d="M-39 0l8 46h70l235 395h-73l8 46h162l104 -441h72l-8 -46h-210l8 46h83l-27 115h-226l-68 -115h83l-8 -46h-213zM193 207h190l-54 230zM232.5 643.5q22.5 17.5 48 17.5t65 -28t60.5 -28q35 0 71 57l23 -16q-48 -89 -105 -89q-27 0 -66.5 28t-58.5 28q-34 0 -71 -57
l-24 15q14 25 24.5 40t33 32.5z" />
    <glyph glyph-name="Adieresis.smcp" unicode="&#xf7e4;" horiz-adv-x="581" 
d="M-39 0l8 46h70l235 395h-73l8 46h162l104 -441h72l-8 -46h-210l8 46h83l-27 115h-226l-68 -115h83l-8 -46h-213zM193 207h190l-54 230zM260 560q-16 0 -27.5 11t-11.5 28t11.5 28t27.5 11t27.5 -11t11.5 -28t-11.5 -28t-27.5 -11zM448.5 571.5q-11.5 -11.5 -28 -11.5
t-28 11t-11.5 28t11.5 28t28 11t28 -11.5t11.5 -27.5t-11.5 -27.5z" />
    <glyph glyph-name="Aring.smcp" unicode="&#xf7e5;" horiz-adv-x="581" 
d="M-39 0l8 46h70l235 395h-73l8 46h162l104 -441h72l-8 -46h-210l8 46h83l-27 115h-226l-68 -115h83l-8 -46h-213zM193 207h190l-54 230zM421 580q-32 -33 -80 -33t-73 24t-25 65.5t32 74.5t80 33t73 -24t25 -65.5t-32 -74.5zM301.5 597.5q12.5 -14.5 40.5 -14.5t47 22
t19 48q0 55 -51 55q-31 0 -49.5 -22t-18.5 -48t12.5 -40.5z" />
    <glyph glyph-name="AE.smcp" unicode="&#xf7e6;" horiz-adv-x="796" 
d="M-39 0l8 46h66l350 396h-66l7 45h460l-23 -133h-53l15 87h-209l-31 -173h213l-8 -45h-213l-31 -177h211l16 88h53l-25 -134h-396l8 46h78l20 114h-208l-100 -114h75l-8 -46h-209zM241 205h178l42 236h-14z" />
    <glyph glyph-name="Ccedilla.smcp" unicode="&#xf7e7;" horiz-adv-x="524" 
d="M298.5 -173.5q-29.5 -18.5 -73.5 -18.5t-79 15l11 35q31 -14 65 -14q56 0 56 37q0 39 -67 39h-7l4 18l36 54q-94 7 -150 63.5t-56 153.5q0 122 84.5 205t224.5 83q86 0 174 -33l-21 -120h-55l16 89q-51 17 -115 17q-108 0 -179 -66.5t-71 -171.5q0 -85 50 -129t137 -44
t173 43l-8 -52q-78 -37 -165 -40l-24 -44q69 -9 69 -65q0 -36 -29.5 -54.5z" />
    <glyph glyph-name="Egrave.smcp" unicode="&#xf7e8;" horiz-adv-x="496" 
d="M-6 0l8 46h78l70 395h-78l8 46h406l-24 -133h-52l15 87h-218l-30 -173h221l-8 -45h-221l-32 -177h219l16 88h53l-24 -134h-407zM341 551l-151 122l40 41l133 -141z" />
    <glyph glyph-name="Eacute.smcp" unicode="&#xf7e9;" horiz-adv-x="496" 
d="M-6 0l8 46h78l70 395h-78l8 46h406l-24 -133h-52l15 87h-218l-30 -173h221l-8 -45h-221l-32 -177h219l16 88h53l-24 -134h-407zM262 551l-19 24l161 140l35 -46z" />
    <glyph glyph-name="Ecircumflex.smcp" unicode="&#xf7ea;" horiz-adv-x="496" 
d="M-6 0l8 46h78l70 395h-78l8 46h406l-24 -133h-52l15 87h-218l-30 -173h221l-8 -45h-221l-32 -177h219l16 88h53l-24 -134h-407zM176 551l-15 20l156 124h35l100 -126l-17 -18l-108 87z" />
    <glyph glyph-name="Edieresis.smcp" unicode="&#xf7eb;" horiz-adv-x="496" 
d="M-6 0l8 46h78l70 395h-78l8 46h406l-24 -133h-52l15 87h-218l-30 -173h221l-8 -45h-221l-32 -177h219l16 88h53l-24 -134h-407zM230 560q-16 0 -27.5 11t-11.5 28t11.5 28t27.5 11t27.5 -11t11.5 -28t-11.5 -28t-27.5 -11zM391 560q-17 0 -28.5 11t-11.5 28t11.5 28
t28.5 11t28 -11t11 -28t-11 -28t-28 -11z" />
    <glyph glyph-name="Igrave.smcp" unicode="&#xf7ec;" horiz-adv-x="291" 
d="M-6 0l8 46h78l70 395h-78l8 46h213l-8 -46h-78l-70 -395h78l-8 -46h-213zM246 551l-150 122l39 41l133 -141z" />
    <glyph glyph-name="Iacute.smcp" unicode="&#xf7ed;" horiz-adv-x="291" 
d="M-6 0l8 46h78l70 395h-78l8 46h213l-8 -46h-78l-70 -395h78l-8 -46h-213zM155 551l-19 24l162 140l34 -46z" />
    <glyph glyph-name="Icircumflex.smcp" unicode="&#xf7ee;" horiz-adv-x="291" 
d="M-6 0l8 46h78l70 395h-78l8 46h213l-8 -46h-78l-70 -395h78l-8 -46h-213zM66 551l-14 20l156 124h35l100 -126l-17 -18l-109 87z" />
    <glyph glyph-name="Idieresis.smcp" unicode="&#xf7ef;" horiz-adv-x="291" 
d="M-6 0l8 46h78l70 395h-78l8 46h213l-8 -46h-78l-70 -395h78l-8 -46h-213zM125 560q-17 0 -28 11t-11 28t11 28t28 11t28 -11t11 -28t-11 -28t-28 -11zM313.5 571q-11.5 -11 -28 -11t-28 11t-11.5 28t11.5 28t28 11t28 -11t11.5 -28t-11.5 -28z" />
    <glyph glyph-name="Eth.smcp" unicode="&#xf7f0;" horiz-adv-x="578" 
d="M301 487q106 0 170 -54t64 -159q0 -123 -87.5 -198.5t-223.5 -75.5h-230l8 46h78l32 178h-66l8 43h65l31 174h-78l8 46h221zM228 46q109 0 178 63.5t69 164.5q0 81 -46.5 124t-130.5 43h-90l-31 -174h145l-8 -43h-145l-31 -178h90z" />
    <glyph glyph-name="Ntilde.smcp" unicode="&#xf7f1;" horiz-adv-x="635" 
d="M-7 0l8 46h79l70 395h-79l8 46h131l234 -405l62 359h-82l8 46h215l-8 -46h-79l-78 -441h-49l-235 407l-64 -361h81l-8 -46h-214zM274.5 643.5q22.5 17.5 48 17.5t65 -28t60.5 -28q35 0 71 57l23 -16q-48 -89 -105 -89q-27 0 -66.5 28t-58.5 28q-34 0 -71 -57l-24 15
q14 25 24.5 40t33 32.5z" />
    <glyph glyph-name="Ograve.smcp" unicode="&#xf7f2;" horiz-adv-x="605" 
d="M265 -10q-108 0 -167.5 61t-59.5 159q0 118 84 202.5t214 84.5q108 0 167.5 -61t59.5 -158q0 -119 -84 -203.5t-214 -84.5zM267 38q99 0 168.5 69t69.5 169q0 78 -46 125.5t-125 47.5q-99 0 -168.5 -69t-69.5 -168q0 -79 46 -126.5t125 -47.5zM395 555l-151 122l40 42
l132 -141z" />
    <glyph glyph-name="Oacute.smcp" unicode="&#xf7f3;" horiz-adv-x="605" 
d="M265 -10q-108 0 -167.5 61t-59.5 159q0 118 84 202.5t214 84.5q108 0 167.5 -61t59.5 -158q0 -119 -84 -203.5t-214 -84.5zM267 38q99 0 168.5 69t69.5 169q0 78 -46 125.5t-125 47.5q-99 0 -168.5 -69t-69.5 -168q0 -79 46 -126.5t125 -47.5zM325 555l-19 24l161 140
l35 -45z" />
    <glyph glyph-name="Ocircumflex.smcp" unicode="&#xf7f4;" horiz-adv-x="605" 
d="M265 -10q-108 0 -167.5 61t-59.5 159q0 118 84 202.5t214 84.5q108 0 167.5 -61t59.5 -158q0 -119 -84 -203.5t-214 -84.5zM267 38q99 0 168.5 69t69.5 169q0 78 -46 125.5t-125 47.5q-99 0 -168.5 -69t-69.5 -168q0 -79 46 -126.5t125 -47.5zM232 555l-14 20l156 124h35
l100 -125l-17 -19l-109 87z" />
    <glyph glyph-name="Otilde.smcp" unicode="&#xf7f5;" horiz-adv-x="605" 
d="M265 -10q-108 0 -167.5 61t-59.5 159q0 118 84 202.5t214 84.5q108 0 167.5 -61t59.5 -158q0 -119 -84 -203.5t-214 -84.5zM267 38q99 0 168.5 69t69.5 169q0 78 -46 125.5t-125 47.5q-99 0 -168.5 -69t-69.5 -168q0 -79 46 -126.5t125 -47.5zM275.5 657q16.5 8 39 8
t62 -28t59.5 -28q34 0 71 57l24 -15q-51 -90 -105 -90q-27 0 -66.5 28t-59.5 28q-32 0 -70 -57l-25 15q23 37 38.5 55.5t32 26.5z" />
    <glyph glyph-name="Odieresis.smcp" unicode="&#xf7f6;" horiz-adv-x="605" 
d="M265 -10q-108 0 -167.5 61t-59.5 159q0 118 84 202.5t214 84.5q108 0 167.5 -61t59.5 -158q0 -119 -84 -203.5t-214 -84.5zM267 38q99 0 168.5 69t69.5 169q0 78 -46 125.5t-125 47.5q-99 0 -168.5 -69t-69.5 -168q0 -79 46 -126.5t125 -47.5zM316.5 575.5
q-11.5 -11.5 -28 -11.5t-28 11t-11.5 28t11.5 28t28 11t28 -11.5t11.5 -27.5t-11.5 -27.5zM449 564q-17 0 -28 11t-11 28t11 28t28 11t28 -11t11 -28t-11 -28t-28 -11z" />
    <glyph glyph-name="Oslash.smcp" unicode="&#xf7f8;" horiz-adv-x="603" 
d="M264 -10q-100 0 -158 52l-57 -54l-21 21l58 54q-49 58 -49 147q0 118 84 202.5t214 84.5q97 0 157 -52l58 54l21 -22l-58 -53q49 -56 49 -146q0 -119 -84 -203.5t-214 -84.5zM266 38q99 0 168.5 69t69.5 169q0 62 -33 108l-325 -304q45 -42 120 -42zM333 449
q-99 0 -168.5 -69t-69.5 -168q0 -66 32 -110l325 305q-45 42 -119 42z" />
    <glyph glyph-name="Ugrave.smcp" unicode="&#xf7f9;" horiz-adv-x="591" 
d="M400 35q-57 -45 -145 -45t-137 48q-37 37 -37 95q0 19 4 39l48 269h-78l8 46h214l-8 -46h-79l-49 -276q-3 -16 -3 -29q0 -39 22 -64q31 -33 96 -33t108.5 32.5t53.5 90.5l49 279h-79l8 46h212l-8 -46h-78l-50 -278q-15 -83 -72 -128zM378 551l-151 122l40 41l133 -141z
" />
    <glyph glyph-name="Uacute.smcp" unicode="&#xf7fa;" horiz-adv-x="591" 
d="M400 35q-57 -45 -145 -45t-137 48q-37 37 -37 95q0 19 4 39l48 269h-78l8 46h214l-8 -46h-79l-49 -276q-3 -16 -3 -29q0 -39 22 -64q31 -33 96 -33t108.5 32.5t53.5 90.5l49 279h-79l8 46h212l-8 -46h-78l-50 -278q-15 -83 -72 -128zM313 551l-19 24l161 140l35 -46z" />
    <glyph glyph-name="Ucircumflex.smcp" unicode="&#xf7fb;" horiz-adv-x="591" 
d="M400 35q-57 -45 -145 -45t-137 48q-37 37 -37 95q0 19 4 39l48 269h-78l8 46h214l-8 -46h-79l-49 -276q-3 -16 -3 -29q0 -39 22 -64q31 -33 96 -33t108.5 32.5t53.5 90.5l49 279h-79l8 46h212l-8 -46h-78l-50 -278q-15 -83 -72 -128zM221 551l-14 20l156 124h35l100 -126
l-17 -18l-109 87z" />
    <glyph glyph-name="Udieresis.smcp" unicode="&#xf7fc;" horiz-adv-x="591" 
d="M400 35q-57 -45 -145 -45t-137 48q-37 37 -37 95q0 19 4 39l48 269h-78l8 46h214l-8 -46h-79l-49 -276q-3 -16 -3 -29q0 -39 22 -64q31 -33 96 -33t108.5 32.5t53.5 90.5l49 279h-79l8 46h212l-8 -46h-78l-50 -278q-15 -83 -72 -128zM277 560q-17 0 -28.5 11.5
t-11.5 27.5t11.5 27.5t28.5 11.5t28 -11t11 -28t-11 -28t-28 -11zM437 560q-17 0 -28 11t-11 28t11 28t28 11t28 -11t11 -28t-11 -28t-28 -11z" />
    <glyph glyph-name="Yacute.smcp" unicode="&#xf7fd;" horiz-adv-x="538" 
d="M111 0l8 46h82l24 137l-121 258h-72l8 46h211l-8 -45h-81l97 -208l173 209h-80l8 44h215l-8 -46h-72l-213 -259l-24 -136h81l-8 -46h-220zM278 551l-19 24l161 140l35 -46z" />
    <glyph glyph-name="Thorn.smcp" unicode="&#xf7fe;" horiz-adv-x="484" 
d="M279 389q77 0 125.5 -30.5t48.5 -102t-59 -111t-155 -39.5h-92l-11 -60h93l-8 -46h-226l7 46h77l70 395h-77l8 46h227l-8 -46h-93l-9 -52h82zM243 151q75 0 113.5 29t38.5 78q0 85 -119 85h-87l-34 -192h88z" />
    <glyph glyph-name="Ydieresis.smcp" unicode="&#xf7ff;" horiz-adv-x="538" 
d="M111 0l8 46h82l24 137l-121 258h-72l8 46h211l-8 -45h-81l97 -208l173 209h-80l8 44h215l-8 -46h-72l-213 -259l-24 -136h81l-8 -46h-220zM243 560q-17 0 -28 11t-11 28t11 28t28 11t28 -11t11 -28t-11 -28t-28 -11zM403 560q-17 0 -28 11t-11 28t11 28t28 11t28.5 -11.5
t11.5 -27.5t-11.5 -27.5t-28.5 -11.5z" />
    <glyph glyph-name="s_t" unicode="&#xfb06;" horiz-adv-x="687" 
d="M260.5 24q-40.5 -35 -117 -35t-142.5 26l8 47q68 -26 123.5 -26t84 19.5t28.5 48.5t-20 48t-48.5 32.5t-57.5 28.5t-49 41t-20 62q0 60 44 88.5t101 28.5q13 0 26 -1q3 81 52 116.5t122 35.5h188l-29 -160h134l-9 -47h-133l-46 -265q-2 -12 -2 -22q0 -54 60 -54
q30 0 88 23l-9 -49q-51 -21 -96.5 -21t-73.5 24t-28 66q0 16 3 34l46 264h-72l8 47h72l20 115h-123q-122 0 -125 -112q19 -4 55 -15l-8 -45q-64 22 -114 22t-72 -20t-22 -46t20 -44.5t48.5 -32t57 -28.5t48.5 -41.5t20 -63.5q0 -54 -40.5 -89z" />
    <glyph glyph-name="glyph19" horiz-adv-x="425" 
d="M0 0l107 609h425l-107 -609h-425zM66 42h306l-113 226zM465 567h-306l113 -227zM475 520l-184 -216l108 -216zM58 88l184 216l-108 216z" />
    <glyph glyph-name="zero.lf" horiz-adv-x="547" 
d="M238 -12q-95 0 -138.5 61t-44.5 180q0 119 35 214q42 111 128 154q47 24 106 24q185 0 185 -245q0 -147 -59 -260q-31 -58 -85.5 -93t-126.5 -35zM114 231q0 -195 124 -195q61 0 102.5 31.5t63.5 83.5q44 101 44 213.5t-31 160.5t-93 48t-104.5 -33.5t-63.5 -87.5
q-42 -104 -42 -221z" />
    <glyph glyph-name="one.lf" horiz-adv-x="332" 
d="M110 521q-19 0 -25 8.5t-6 16t3 16.5l143 47h50l-96 -563h99l-8 -46h-266l8 46h108l89 512q-61 -37 -99 -37z" />
    <glyph glyph-name="two.lf" horiz-adv-x="497" 
d="M84 34v-11l-10 -21l-31 -13l-33 11l-11 26l3 24l10 19l14 19l20 20l22 18l26 22l27 20q45 32 60 42q110 77 164.5 134.5t54.5 124.5q0 49 -30.5 77t-88.5 28t-109 -30q7 -10 7 -25.5t-12 -29t-32.5 -13.5t-31.5 12t-11 29q0 42 61.5 73t139 31t121.5 -42t44 -103
t-29 -111t-76.5 -91t-95.5 -74.5t-100 -68.5t-76 -58q10 2 33.5 2t84 -16.5t85.5 -16.5q82 0 105 114h52q-15 -83 -51 -124t-102 -41q-44 0 -104.5 22t-90.5 22q-5 0 -9 -1z" />
    <glyph glyph-name="three.lf" horiz-adv-x="483" 
d="M191 -12q-70 0 -126 26.5t-56 66.5q0 19 13.5 32.5t32.5 13.5t31 -10.5t12 -27.5t-11 -29q42 -25 108.5 -25t115.5 39.5t49 101t-39.5 89t-104.5 27.5h-48l9 46h50q71 0 120.5 37t49.5 101q0 49 -31 73.5t-87 24.5t-102 -23q5 -8 5 -24.5t-13 -29.5t-32.5 -13t-30.5 12
t-11 29q0 41 59 68.5t135.5 27.5t121.5 -36.5t45 -104.5q0 -122 -139 -166q102 -33 102 -136q0 -85 -64 -137.5t-164 -52.5z" />
    <glyph glyph-name="four.lf" horiz-adv-x="486" 
d="M277 622q28 0 28 -32q0 -53 -70.5 -172t-154.5 -199h231l16 95q25 35 51 90h21l-33 -185h86l-8 -47h-85l-22 -127h81l-8 -45h-238l8 45h99l23 127h-290l-5 41q91 89 160.5 199.5t93.5 206.5q9 3 16 3z" />
    <glyph glyph-name="five.lf" horiz-adv-x="493" 
d="M419 551l-220 10q-30 -143 -65 -226q64 48 136.5 48t121.5 -45t49 -136t-66 -152.5t-170 -61.5q-75 0 -132 33t-57 74q0 20 13 32.5t32 12.5t30 -11t11 -27.5t-11 -30.5q42 -34 113 -34t124.5 43.5t53.5 126.5q0 64 -34 96.5t-88 32.5q-89 0 -163 -78l-35 20
q62 143 95 331h320q3 -11 3 -20q0 -38 -61 -38z" />
    <glyph glyph-name="six.lf" horiz-adv-x="509" 
d="M394 54q-62 -66 -156 -66q-192 0 -192 208q0 111 46 221q51 125 138 175q48 29 107 29t103 -30.5t44 -67.5q0 -19 -11 -32.5t-32 -13.5t-33 11.5t-12 29.5t16 31q-36 25 -85 25t-95 -40t-73 -98t-45 -135q23 38 71 64t105 26q76 0 121 -45.5t45 -135.5t-62 -156z
M135.5 73q31.5 -38 98.5 -38t115 51t48 120t-30.5 104t-95 35t-116 -49.5t-51.5 -126.5q0 -58 31.5 -96z" />
    <glyph glyph-name="seven.lf" horiz-adv-x="458" 
d="M193 -12q-33 0 -33 39q0 92 84 251.5t177 265.5q-20 -7 -47.5 -7t-81.5 15t-78 15q-88 0 -106 -109h-51l26 151h48l-9 -51q31 58 95 58q29 0 84 -19.5t78.5 -19.5t36.5 4q8 39 44 39q18 0 28 -10.5t10 -26.5t-22 -46q-127 -163 -189 -291t-72 -255q-11 -3 -22 -3z" />
    <glyph glyph-name="eight.lf" horiz-adv-x="518" 
d="M392 43.5q-65 -55.5 -165 -55.5t-149 43t-49 114.5t46.5 117t109.5 62.5q-80 35 -80 122q0 73 57.5 123.5t145.5 50.5t131.5 -39t43.5 -100t-36.5 -102.5t-93.5 -58.5q104 -36 104 -139q0 -83 -65 -138.5zM122 66q34 -31 107 -31t121.5 44t48.5 100.5t-34.5 87.5t-107 31
t-121 -43.5t-48.5 -100.5t34 -88zM397 548q-30 27 -90.5 27t-102.5 -37.5t-42 -86.5t30 -77.5t89 -28.5t102.5 39.5t43.5 88t-30 75.5z" />
    <glyph glyph-name="nine.lf" horiz-adv-x="513" 
d="M299 9q-44 -21 -102 -21t-107 27.5t-49 65.5q0 21 13 33.5t32 12.5t30 -11t11 -27.5t-11 -29.5q33 -23 91 -23t104 43t68.5 101t35.5 134q-60 -93 -171 -93q-78 0 -125.5 47t-47.5 135t61.5 153t157.5 65q191 0 191 -214q0 -77 -17.5 -147.5t-39.5 -114t-51.5 -79.5
t-73.5 -57zM391 536.5q-33 36.5 -100 36.5t-114 -49.5t-47 -117t32.5 -103.5t96.5 -36t114.5 49t50.5 126q0 58 -33 94.5z" />
    <glyph glyph-name="a.alt" horiz-adv-x="475" 
d="M126 -11q-53 0 -87.5 28.5t-34.5 82.5t34 87.5t78 44.5t97 11h103l7 40q3 17 3 39t-14 40q-19 25 -84 25t-144 -29l9 48q78 29 152 29t111 -37q28 -27 28 -75q0 -17 -3 -36l-35 -202q-1 -8 -1 -14q0 -33 34 -33q24 0 59 15l-8 -49q-38 -14 -67 -14q-72 0 -75 66
q-85 -67 -162 -67zM137 36q61 0 154 69l18 95h-94q-63 0 -107 -21.5t-44 -74.5q0 -68 73 -68z" />
    <glyph glyph-name="agrave.alt" horiz-adv-x="475" 
d="M126 -11q-53 0 -87.5 28.5t-34.5 82.5t34 87.5t78 44.5t97 11h103l7 40q3 17 3 39t-14 40q-19 25 -84 25t-144 -29l9 48q78 29 152 29t111 -37q28 -27 28 -75q0 -17 -3 -36l-35 -202q-1 -8 -1 -14q0 -33 34 -33q24 0 59 15l-8 -49q-38 -14 -67 -14q-72 0 -75 66
q-85 -67 -162 -67zM137 36q61 0 154 69l18 95h-94q-63 0 -107 -21.5t-44 -74.5q0 -68 73 -68zM310 506l-153 127l41 44l134 -147z" />
    <glyph glyph-name="aacute.alt" horiz-adv-x="475" 
d="M126 -11q-53 0 -87.5 28.5t-34.5 82.5t34 87.5t78 44.5t97 11h103l7 40q3 17 3 39t-14 40q-19 25 -84 25t-144 -29l9 48q78 29 152 29t111 -37q28 -27 28 -75q0 -17 -3 -36l-35 -202q-1 -8 -1 -14q0 -33 34 -33q24 0 59 15l-8 -49q-38 -14 -67 -14q-72 0 -75 66
q-85 -67 -162 -67zM137 36q61 0 154 69l18 95h-94q-63 0 -107 -21.5t-44 -74.5q0 -68 73 -68zM229 506l-20 25l164 146l37 -47z" />
    <glyph glyph-name="acircumflex.alt" horiz-adv-x="475" 
d="M126 -11q-53 0 -87.5 28.5t-34.5 82.5t34 87.5t78 44.5t97 11h103l7 40q3 17 3 39t-14 40q-19 25 -84 25t-144 -29l9 48q78 29 152 29t111 -37q28 -27 28 -75q0 -17 -3 -36l-35 -202q-1 -8 -1 -14q0 -33 34 -33q24 0 59 15l-8 -49q-38 -14 -67 -14q-72 0 -75 66
q-85 -67 -162 -67zM137 36q61 0 154 69l18 95h-94q-63 0 -107 -21.5t-44 -74.5q0 -68 73 -68zM132 505l-15 20l160 127h36l104 -128l-18 -19l-112 89z" />
    <glyph glyph-name="atilde.alt" horiz-adv-x="475" 
d="M126 -11q-53 0 -87.5 28.5t-34.5 82.5t34 87.5t78 44.5t97 11h103l7 40q3 17 3 39t-14 40q-19 25 -84 25t-144 -29l9 48q78 29 152 29t111 -37q28 -27 28 -75q0 -17 -3 -36l-35 -202q-1 -8 -1 -14q0 -33 34 -33q24 0 59 15l-8 -49q-38 -14 -67 -14q-72 0 -75 66
q-85 -67 -162 -67zM137 36q61 0 154 69l18 95h-94q-63 0 -107 -21.5t-44 -74.5q0 -68 73 -68zM182 612q17 9 40 9t64 -28t62 -28q35 0 71 57l25 -16q-51 -92 -107 -92q-27 0 -68 28.5t-62 28.5q-32 0 -70 -58l-26 16q42 69 71 83z" />
    <glyph glyph-name="adieresis.alt" horiz-adv-x="475" 
d="M126 -11q-53 0 -87.5 28.5t-34.5 82.5t34 87.5t78 44.5t97 11h103l7 40q3 17 3 39t-14 40q-19 25 -84 25t-144 -29l9 48q78 29 152 29t111 -37q28 -27 28 -75q0 -17 -3 -36l-35 -202q-1 -8 -1 -14q0 -33 34 -33q24 0 59 15l-8 -49q-38 -14 -67 -14q-72 0 -75 66
q-85 -67 -162 -67zM137 36q61 0 154 69l18 95h-94q-63 0 -107 -21.5t-44 -74.5q0 -68 73 -68zM188 517q-17 0 -29 12t-12 29t12 28.5t28.5 11.5t28.5 -12t12 -28.5t-11.5 -28.5t-28.5 -12zM358 517q-17 0 -29 12t-12 29t12 28.5t28.5 11.5t28.5 -12t12 -28.5t-11.5 -28.5
t-28.5 -12z" />
    <glyph glyph-name="aring.alt" horiz-adv-x="475" 
d="M126 -11q-53 0 -87.5 28.5t-34.5 82.5t34 87.5t78 44.5t97 11h103l7 40q3 17 3 39t-14 40q-19 25 -84 25t-144 -29l9 48q78 29 152 29t111 -37q28 -27 28 -75q0 -17 -3 -36l-35 -202q-1 -8 -1 -14q0 -33 34 -33q24 0 59 15l-8 -49q-38 -14 -67 -14q-72 0 -75 66
q-85 -67 -162 -67zM137 36q61 0 154 69l18 95h-94q-63 0 -107 -21.5t-44 -74.5q0 -68 73 -68zM355 537.5q-33 -34.5 -83 -34.5t-76 25t-26 68t33 77t83.5 34t76 -24.5t25.5 -67.5t-33 -77.5zM270 541q32 0 51.5 22.5t19.5 49t-13.5 42t-42 15.5t-48 -22.5t-19.5 -52.5
q0 -54 52 -54z" />
    <glyph glyph-name="amacron.alt" horiz-adv-x="475" 
d="M126 -11q-53 0 -87.5 28.5t-34.5 82.5t34 87.5t78 44.5t97 11h103l7 40q3 17 3 39t-14 40q-19 25 -84 25t-144 -29l9 48q78 29 152 29t111 -37q28 -27 28 -75q0 -17 -3 -36l-35 -202q-1 -8 -1 -14q0 -33 34 -33q24 0 59 15l-8 -49q-38 -14 -67 -14q-72 0 -75 66
q-85 -67 -162 -67zM137 36q61 0 154 69l18 95h-94q-63 0 -107 -21.5t-44 -74.5q0 -68 73 -68zM137 527l8 46h257l-8 -46h-257z" />
    <glyph glyph-name="abreve.alt" horiz-adv-x="475" 
d="M126 -11q-53 0 -87.5 28.5t-34.5 82.5t34 87.5t78 44.5t97 11h103l7 40q3 17 3 39t-14 40q-19 25 -84 25t-144 -29l9 48q78 29 152 29t111 -37q28 -27 28 -75q0 -17 -3 -36l-35 -202q-1 -8 -1 -14q0 -33 34 -33q24 0 59 15l-8 -49q-38 -14 -67 -14q-72 0 -75 66
q-85 -67 -162 -67zM137 36q61 0 154 69l18 95h-94q-63 0 -107 -21.5t-44 -74.5q0 -68 73 -68zM365 545q-40 -33 -100 -33t-88.5 33.5t-28.5 74.5q0 11 2 22h45q-1 -7 -1 -13q0 -31 18.5 -50.5t58.5 -19.5q80 0 102 83h46q-14 -64 -54 -97z" />
    <glyph glyph-name="aogonek.alt" horiz-adv-x="475" 
d="M396 -179q-40 -17 -78 -17q-80 0 -80 67q0 69 90 125q-38 12 -40 60q-85 -67 -162 -67q-53 0 -87.5 28.5t-34.5 82.5t34 87.5t78 44.5t97 11h103l7 40q3 17 3 39t-14 40q-19 25 -84 25t-144 -29l9 48q78 29 152 29t111 -37q28 -27 28 -75q0 -17 -3 -36l-35 -202
q-1 -8 -1 -14q0 -33 34 -33q24 0 59 15l-8 -49q-27 -11 -51 -12q-88 -55 -88 -111q0 -37 42 -37q29 0 65 17zM137 36q61 0 154 69l18 95h-94q-63 0 -107 -21.5t-44 -74.5q0 -68 73 -68z" />
    <glyph glyph-name="g.alt" horiz-adv-x="507" 
d="M195 0q-72 0 -118 49.5t-46 137.5q0 108 65 178t156 70q107 0 146 -100l16 89h55l-85 -486q-13 -73 -66.5 -110.5t-136 -37.5t-159.5 34l9 48q78 -34 143 -34q135 0 153 106l24 135q-62 -79 -156 -79zM209 48q72 0 120.5 59.5t48.5 131.5t-31.5 110t-95.5 38t-112.5 -57
t-48.5 -132t32 -112.5t87 -37.5z" />
    <glyph glyph-name="gcircumflex.alt" horiz-adv-x="507" 
d="M195 0q-72 0 -118 49.5t-46 137.5q0 108 65 178t156 70q107 0 146 -100l16 89h55l-85 -486q-13 -73 -66.5 -110.5t-136 -37.5t-159.5 34l9 48q78 -34 143 -34q135 0 153 106l24 135q-62 -79 -156 -79zM209 48q72 0 120.5 59.5t48.5 131.5t-31.5 110t-95.5 38t-112.5 -57
t-48.5 -132t32 -112.5t87 -37.5zM158 505l-15 20l160 127h36l104 -128l-18 -19l-112 89z" />
    <glyph glyph-name="gbreve.alt" horiz-adv-x="507" 
d="M195 0q-72 0 -118 49.5t-46 137.5q0 108 65 178t156 70q107 0 146 -100l16 89h55l-85 -486q-13 -73 -66.5 -110.5t-136 -37.5t-159.5 34l9 48q78 -34 143 -34q135 0 153 106l24 135q-62 -79 -156 -79zM209 48q72 0 120.5 59.5t48.5 131.5t-31.5 110t-95.5 38t-112.5 -57
t-48.5 -132t32 -112.5t87 -37.5zM392 545q-40 -33 -100.5 -33t-89 33.5t-28.5 74.5q0 11 2 22h45q-1 -7 -1 -13q0 -31 18.5 -50.5t58.5 -19.5q80 0 103 83h45q-13 -64 -53 -97z" />
    <glyph glyph-name="gdotaccent.alt" horiz-adv-x="507" 
d="M195 0q-72 0 -118 49.5t-46 137.5q0 108 65 178t156 70q107 0 146 -100l16 89h55l-85 -486q-13 -73 -66.5 -110.5t-136 -37.5t-159.5 34l9 48q78 -34 143 -34q135 0 153 106l24 135q-62 -79 -156 -79zM209 48q72 0 120.5 59.5t48.5 131.5t-31.5 110t-95.5 38t-112.5 -57
t-48.5 -132t32 -112.5t87 -37.5zM293 518q-18 0 -31 13t-13 31t13 31t31 13t31 -13t13 -31t-13 -31t-31 -13z" />
    <glyph glyph-name="uni0123.alt" horiz-adv-x="507" 
d="M330 520q-18 -15 -39 -15t-32 13t-11 41t26 67.5t70 71.5l25 -22q-64 -63 -64 -109q0 -32 27 -40zM195 0q-72 0 -118 49.5t-46 137.5q0 108 65 178t156 70q107 0 146 -100l16 89h55l-85 -486q-13 -73 -66.5 -110.5t-136 -37.5t-159.5 34l9 48q78 -34 143 -34
q135 0 153 106l24 135q-62 -79 -156 -79zM209 48q72 0 120.5 59.5t48.5 131.5t-31.5 110t-95.5 38t-112.5 -57t-48.5 -132t32 -112.5t87 -37.5z" />
    <glyph glyph-name="ampersand.alt" horiz-adv-x="534" 
d="M364 39q-58 -49 -147.5 -49t-139.5 39t-50 109t41 115t109 65q-80 36 -80 118t61.5 131.5t156.5 49.5t179 -28l-20 -114h-54l14 80q-52 14 -119 14t-114 -33t-47 -90q0 -109 125 -109h247l-7 -45h-61l-22 -125q-14 -79 -72 -128zM86 144q0 -105 134 -105q65 0 108 37.5
t52 90.5l22 125h-128q-82 0 -135 -40t-53 -108z" />
    <glyph glyph-name="slash.cap" horiz-adv-x="541" 
d="M-47 -148l597 905h56l-596 -905h-57z" />
    <glyph glyph-name="backslash.cap" horiz-adv-x="526" 
d="M381 -148l-276 905h56l276 -905h-56z" />
    <glyph glyph-name="bar.cap" horiz-adv-x="218" 
d="M11 -148l160 905h53l-160 -905h-53z" />
    <glyph glyph-name="brokenbar.cap" horiz-adv-x="221" 
d="M106 383l67 374h53l-66 -374h-54zM13 -148l69 392h53l-69 -392h-53z" />
    <glyph glyph-name="bullet.cap" horiz-adv-x="346" 
d="M179 204q-41 0 -70.5 29.5t-29.5 70.5t29.5 70.5t70.5 29.5t70.5 -29.5t29.5 -70.5t-29.5 -70.5t-70.5 -29.5z" />
    <glyph glyph-name="parenleft.smcp" horiz-adv-x="244" 
d="M35 161q0 119 50.5 234t138.5 211h59q-194 -216 -194 -448q0 -70 17.5 -144.5t48.5 -131.5h-57q-29 59 -46 135t-17 144z" />
    <glyph glyph-name="parenright.smcp" horiz-adv-x="245" 
d="M152 331q0 153 -66 275h57q29 -58 46 -134t17 -144q0 -119 -50.5 -234t-139.5 -212h-58q194 219 194 449z" />
    <glyph glyph-name="braceleft.smcp" horiz-adv-x="270" 
d="M167 -121q-32 -8 -58.5 -8t-44 18.5t-17.5 47.5t29 100.5t29 106.5q0 74 -87 78l7 43q84 8 107 57q18 40 18 121.5t12 115.5q21 57 85 57q19 0 49 -8l-6 -36q-18 6 -32.5 6t-22 -2t-13 -7.5t-9.5 -10t-6.5 -15t-4 -16.5t-2 -20t-0.5 -21v-44q0 -93 -23.5 -140.5
t-93.5 -60.5q72 -14 72 -95q0 -44 -29 -116t-29 -92q0 -30 34 -30q21 0 42 7z" />
    <glyph glyph-name="braceright.smcp" horiz-adv-x="270" 
d="M19 -129q-21 0 -49 8l6 36q18 -6 32 -6t21.5 2t13 7.5t9.5 10t6.5 15t4 16.5t2 20t0.5 20v45q0 93 23.5 140.5t93.5 60.5q-72 14 -72 95q0 43 29 116t29 92q0 30 -34 30q-19 0 -42 -7l6 36q32 8 58.5 8t44.5 -18.5t18 -47.5t-29 -100.5t-29 -106.5q0 -74 87 -78l-8 -43
q-83 -8 -106 -57q-18 -40 -18 -122t-14 -117q-21 -55 -83 -55z" />
    <glyph glyph-name="bracketleft.smcp" horiz-adv-x="270" 
d="M23 -118l128 724h158l-8 -38h-106l-114 -649h106l-6 -37h-158z" />
    <glyph glyph-name="bracketright.smcp" horiz-adv-x="270" 
d="M-42 -118l6 37h106l114 649h-106l8 38h157l-128 -724h-157z" />
    <glyph glyph-name="bar.smcp" horiz-adv-x="228" 
d="M23 -118l128 724h50l-128 -724h-50z" />
    <glyph glyph-name="at.smcp" horiz-adv-x="634" 
d="M270 92q-47 0 -73 29t-26 77q0 69 49.5 123t120.5 54q39 0 61.5 -17.5t29.5 -42.5h1q21 45 22 47h36q-62 -130 -62 -198q0 -44 37 -44q41 0 73.5 45.5t32.5 116.5q0 91 -57 145.5t-151 54.5q-117 0 -207.5 -80.5t-90.5 -195.5q0 -94 62 -155t151.5 -61t154.5 42l13 -26
q-78 -45 -158 -45q-111 0 -182 68.5t-71 176.5q0 129 99.5 217t228.5 88q106 0 172 -63t66 -167q0 -85 -41.5 -137t-100.5 -52q-37 0 -52.5 20t-14.5 40h-3q-51 -60 -120 -60zM281 127q52 0 89.5 46t37.5 99q0 68 -64 68q-52 0 -90.5 -42.5t-38.5 -98.5q0 -72 66 -72z" />
    <glyph glyph-name="ampersand.alt.smcp" horiz-adv-x="468" 
d="M310.5 31q-48.5 -40 -125 -40t-119.5 32t-43 87t33.5 91.5t88.5 53.5q-64 28 -64 94.5t51.5 106.5t131.5 40t151 -23l-17 -95h-50l11 62q-35 11 -92 11t-94 -24.5t-37 -68.5q0 -86 101 -86h207l-7 -42h-50l-17 -97q-11 -62 -59.5 -102zM181 36q58 0 93.5 28.5t42.5 70.5
l16 95h-104q-64 0 -106 -30.5t-42 -82.5q0 -81 100 -81z" />
    <glyph glyph-name="uni021A.smcp" horiz-adv-x="499" 
d="M190 -69q39 0 39 -47q0 -70 -90 -135l-23 21q60 56 60 103q0 29 -26 36l1 7q18 15 39 15zM91 0l8 46h85l70 395h-143l-15 -87h-53l24 133h447l-24 -133h-52l15 87h-142l-70 -395h86l-8 -46h-228z" />
    <glyph glyph-name="T_h" horiz-adv-x="1042" 
d="M854 435q56 0 84 -39q19 -27 19 -68q0 -18 -4 -38l-35 -205q-1 -8 -1 -14q0 -33 34 -33q24 0 59 15l-9 -49q-38 -14 -75 -14t-55 28q-12 19 -12 38.5t2 33.5l35 197q3 17 3 32q0 66 -61 66q-67 0 -174 -91l-52 -294h-58l98 559h-283l-89 -509h102l-9 -50h-266l9 50h103
l90 509h-178l-20 -110h-55l28 160h580l28 98h45l-63 -356q102 84 180 84z" />
    <glyph glyph-name="c_t" horiz-adv-x="744" 
d="M214 -11q-86 0 -135.5 50.5t-49.5 140.5q0 110 66.5 182t168.5 72h14q3 79 52 114.5t122 35.5h188l-29 -160h133l-8 -47h-133l-46 -265q-2 -12 -2 -22q0 -54 60 -54q30 0 88 23l-9 -49q-51 -21 -96.5 -21t-73.5 24t-28 66q0 16 3 34l45 264h-71l8 47h72l20 115h-123
q-53 0 -87.5 -22.5t-37.5 -87.5q36 -7 68 -22l-9 -46q-56 26 -112 26q-84 0 -133.5 -60t-49.5 -136.5t35 -115.5t97.5 -39t122.5 24l-9 -49q-58 -22 -121 -22z" />
    </font>
</defs>
</svg>
