<?xml version="1.0" standalone="no"?>
<!DOCTYPE svg PUBLIC "-//W3C//DTD SVG 1.1//EN" "http://www.w3.org/Graphics/SVG/1.1/DTD/svg11.dtd" >
<svg>
<metadata>
Created by FontForge 20120731 at Tue Nov  1 00:00:07 2016
 By ,,,
</metadata>
<defs>
<font id="KlinicSlab-BoldItalic" horiz-adv-x="587" >
  <font-face 
    font-family="Klinic Slab Bold"
    font-weight="400"
    font-style="italic"
    font-stretch="normal"
    units-per-em="1000"
    panose-1="0 0 0 0 0 0 0 0 0 0"
    ascent="750"
    descent="-250"
    x-height="432"
    cap-height="609"
    bbox="-111 -299 1134 965"
    underline-thickness="50"
    underline-position="-50"
    unicode-range="U+000D-FB06"
  />
<missing-glyph horiz-adv-x="425" 
d="M0 0l107 609h425l-107 -609h-425zM66 42h306l-113 226zM465 567h-306l113 -227zM475 520l-184 -216l108 -216zM58 88l184 216l-108 216z" />
    <glyph glyph-name="f_f" unicode="ff" horiz-adv-x="629" 
d="M-33 -210q-35 0 -68 7l16 87q20 -5 48 -5t45.5 13.5t24.5 52.5l70 396h-81l16 91h81l18 99q32 177 228 177q65 0 150 -22q44 32 117 32q38 0 83 -9l-15 -84q-28 4 -58 4q-69 0 -83 -78l-21 -119h113l-16 -91h-113l-66 -373q-28 -161 -180 -161q-35 0 -68 7l16 87
q20 -5 48 -5t45.5 13.5t24.5 52.5l67 379h-193l-69 -390q-28 -161 -180 -161zM375 620q-110 0 -126 -92l-17 -96h193l21 121q3 23 15 56q-53 11 -86 11z" />
    <glyph glyph-name="fi" unicode="fi" horiz-adv-x="580" 
d="M-33 -210q-35 0 -68 7l16 87q20 -5 48 -5t45.5 13.5t24.5 52.5l70 396h-81l16 91h81l20 111q31 175 229 175q63 0 161 -24l-24 -82q-79 18 -127 18q-111 0 -127 -90l-19 -108h293l-56 -312q-1 -7 -1 -14q0 -32 35 -32q22 0 44 8l-14 -83q-38 -10 -72 -10q-67 0 -91 37
q-16 26 -16 53t3 46l39 216h-180l-69 -390q-28 -161 -180 -161z" />
    <glyph glyph-name="fl" unicode="fl" horiz-adv-x="581" 
d="M462 -11q-70 0 -92 38q-16 26 -16 53t3 45l88 499q-44 6 -67 6q-111 0 -127 -90l-19 -108h113l-16 -91h-113l-69 -390q-28 -161 -180 -161q-35 0 -68 7l16 87q20 -5 48 -5t45.5 13.5t24.5 52.5l70 396h-81l16 91h81l20 111q31 175 229 175q44 0 104 -11h101l-104 -587
q-1 -8 -1 -14q0 -32 34 -32q23 0 45 8l-14 -83q-38 -10 -71 -10z" />
    <glyph glyph-name="f_f_i" unicode="ffi" horiz-adv-x="886" 
d="M-33 -210q-35 0 -68 7l16 87q20 -5 48 -5t45.5 13.5t24.5 52.5l70 396h-81l16 91h81l18 99q32 177 228 177q74 0 164 -26q55 36 131.5 36t174.5 -24l-24 -82q-79 18 -127 18q-111 0 -127 -90l-19 -108h293l-56 -312q-1 -7 -1 -14q0 -32 35 -32q22 0 44 8l-14 -83
q-38 -10 -72 -10q-67 0 -91 37q-16 26 -16 53t3 46l39 216h-180l-66 -373q-28 -161 -180 -161q-35 0 -68 7l16 87q20 -5 48 -5t45.5 13.5t24.5 52.5l67 379h-193l-69 -390q-28 -161 -180 -161zM375 620q-110 0 -126 -92l-17 -96h193l20 111q6 34 20 65q-50 12 -90 12z" />
    <glyph glyph-name="f_f_l" unicode="ffl" horiz-adv-x="887" 
d="M-33 -210q-35 0 -68 7l16 87q20 -5 48 -5t45.5 13.5t24.5 52.5l70 396h-81l16 91h81l18 99q32 177 228 177q74 0 164 -26q55 36 145 36q44 0 104 -11h101l-104 -587q-1 -8 -1 -14q0 -32 34 -32q23 0 45 8l-14 -83q-38 -10 -71 -10q-70 0 -92 38q-16 26 -16 53t3 45
l88 499q-44 6 -67 6q-111 0 -127 -90l-19 -108h113l-16 -91h-113l-66 -373q-28 -161 -180 -161q-35 0 -68 7l16 87q20 -5 48 -5t45.5 13.5t24.5 52.5l67 379h-193l-69 -390q-28 -161 -180 -161zM375 620q-110 0 -126 -92l-17 -96h193l20 111q6 34 20 65q-50 12 -90 12z" />
    <glyph glyph-name="f_t" unicode="ft" horiz-adv-x="641" 
d="M468 106q0 -30 46 -30q28 0 85 20l-15 -83q-52 -24 -117.5 -24t-92.5 38q-20 27 -20 66q0 16 3 33l38 217h-179l-69 -392q-28 -161 -180 -161q-35 0 -68 7l16 87q20 -5 48 -5t45.5 13.5t24.5 52.5l70 396h-81l16 91h81l21 121q15 88 61 126.5t125 38.5q38 0 83 -9
l-15 -84q-28 4 -58 4q-69 0 -83 -78l-21 -119h179l19 110h114l-20 -110h115l-16 -89h-114l-40 -227q-1 -6 -1 -10z" />
    <glyph glyph-name="f_f_b" unicode="ffb" horiz-adv-x="1151" 
d="M-33 -210q-35 0 -68 7l16 87q20 -5 48 -5t45.5 13.5t24.5 52.5l70 396h-81l16 91h81l18 99q32 177 228 177q74 0 164 -26q55 36 145 36q44 0 104 -11h101l-57 -316q59 52 130 52t117.5 -51.5t46.5 -155t-65.5 -175.5t-159 -72t-134.5 76l-12 -65h-104l110 624
q-44 6 -67 6q-111 0 -127 -90l-19 -108h113l-16 -91h-113l-66 -373q-28 -161 -180 -161q-35 0 -68 7l16 87q20 -5 48 -5t45.5 13.5t24.5 52.5l67 379h-193l-69 -390q-28 -161 -180 -161zM870 74q58 0 94 49t36 112q0 123 -90 123q-58 0 -94 -49t-36 -112q0 -123 90 -123z
M375 620q-110 0 -126 -92l-17 -96h193l20 111q6 34 20 65q-50 12 -90 12z" />
    <glyph glyph-name="f_f_h" unicode="ffh" horiz-adv-x="1163" 
d="M276 -193q-35 0 -68 7l16 87q20 -5 48 -5t45.5 13.5t24.5 52.5l67 379h-193l-69 -390q-28 -161 -180 -161q-35 0 -68 7l16 87q20 -5 48 -5t45.5 13.5t24.5 52.5l70 396h-81l16 91h81l18 99q32 177 228 177q74 0 164 -26q55 36 145 36q44 0 104 -11h101l-58 -331
q80 67 147 67t100 -39q23 -29 23 -72q0 -16 -3 -34l-32 -178q-1 -7 -1 -14q0 -32 35 -32q22 0 44 8l-14 -83q-38 -10 -72 -10q-69 0 -91 39q-15 26 -15 52.5t3 44.5l30 165q2 11 2 21q0 43 -42 43q-54 0 -131 -73l-50 -281h-113l110 624q-44 6 -67 6q-111 0 -127 -90
l-19 -108h113l-16 -91h-113l-66 -373q-28 -161 -180 -161zM375 620q-110 0 -126 -92l-17 -96h193l20 111q6 34 20 65q-50 12 -90 12z" />
    <glyph glyph-name="f_f_j" unicode="ffj" horiz-adv-x="859" 
d="M-33 -210q-35 0 -68 7l16 87q20 -5 48 -5t45.5 13.5t24.5 52.5l70 396h-81l16 91h81l18 99q32 177 228 177q74 0 164 -26q55 36 131.5 36t174.5 -24l-24 -82q-79 18 -127 18q-111 0 -127 -90l-19 -108h293l-79 -447q-28 -161 -174 -161q-34 0 -74 12l16 86q27 -9 52 -9
t42 13.5t24 52.5l63 362h-179l-66 -373q-28 -161 -180 -161q-35 0 -68 7l16 87q20 -5 48 -5t45.5 13.5t24.5 52.5l67 379h-193l-69 -390q-28 -161 -180 -161zM375 620q-110 0 -126 -92l-17 -96h193l20 111q6 34 20 65q-50 12 -90 12z" />
    <glyph glyph-name="f_f_k" unicode="ffk" horiz-adv-x="1131" 
d="M-33 -210q-35 0 -68 7l16 87q20 -5 48 -5t45.5 13.5t24.5 52.5l70 396h-81l16 91h81l18 99q32 177 228 177q74 0 164 -26q55 36 145 36q44 0 104 -11h101l-56 -315q69 51 129.5 51t97 -29.5t36.5 -85.5t-40.5 -95t-106.5 -56l37 -65q21 -36 47 -36t64 20l-16 -87
q-37 -20 -74 -20q-73 0 -116 79l-62 116l8 41q62 4 105.5 28t43.5 63.5t-50.5 39.5t-117.5 -52l-54 -304h-113l109 624q-42 6 -66 6q-111 0 -127 -90l-19 -108h113l-16 -91h-113l-66 -373q-28 -161 -180 -161q-35 0 -68 7l16 87q20 -5 48 -5t45.5 13.5t24.5 52.5l67 379
h-193l-69 -390q-28 -161 -180 -161zM375 620q-110 0 -126 -92l-17 -96h193l20 111q6 34 20 65q-50 12 -90 12z" />
    <glyph glyph-name="f_f_t" unicode="fft" horiz-adv-x="947" 
d="M774 106q0 -30 46 -30q28 0 85 20l-15 -83q-52 -24 -117.5 -24t-92.5 38q-20 27 -20 66q0 16 3 33l38 217h-179l-66 -375q-28 -161 -180 -161q-35 0 -68 7l16 87q20 -5 48 -5t45.5 13.5t24.5 52.5l67 379h-193l-69 -390q-28 -161 -180 -161q-35 0 -68 7l16 87
q20 -5 48 -5t45.5 13.5t24.5 52.5l70 396h-81l16 91h81l18 99q32 177 228 177q65 0 150 -22q44 32 117 32q38 0 83 -9l-15 -84q-28 4 -58 4q-69 0 -83 -78l-21 -119h179l19 110h114l-20 -110h115l-16 -89h-114l-40 -227q-1 -6 -1 -10zM375 620q-110 0 -126 -92l-17 -96h193
l21 121q3 23 15 56q-53 11 -86 11z" />
    <glyph glyph-name="f_b" unicode="fb" horiz-adv-x="845" 
d="M744.5 61q-65.5 -72 -159 -72t-134.5 76l-12 -65h-104l110 624q-44 6 -67 6q-111 0 -127 -90l-19 -108h113l-16 -91h-113l-69 -390q-28 -161 -180 -161q-35 0 -68 7l16 87q20 -5 48 -5t45.5 13.5t24.5 52.5l70 396h-81l16 91h81l20 111q31 175 229 175q44 0 104 -11h101
l-57 -316q59 52 130 52t117.5 -51.5t46.5 -155t-65.5 -175.5zM564 74q58 0 94 49t36 112q0 123 -90 123q-58 0 -94 -49t-36 -112q0 -123 90 -123z" />
    <glyph glyph-name="f_h" unicode="fh" horiz-adv-x="857" 
d="M378 630q-111 0 -127 -90l-19 -108h113l-16 -91h-113l-69 -390q-28 -161 -180 -161q-35 0 -68 7l16 87q20 -5 48 -5t45.5 13.5t24.5 52.5l70 396h-81l16 91h81l20 111q31 175 229 175q44 0 104 -11h101l-58 -331q80 67 147 67t100 -39q23 -29 23 -72q0 -16 -3 -34
l-32 -178q-1 -7 -1 -14q0 -32 35 -32q22 0 44 8l-14 -83q-38 -10 -72 -10q-69 0 -91 39q-15 26 -15 52.5t3 44.5l30 165q2 11 2 21q0 43 -42 43q-54 0 -131 -73l-50 -281h-113l110 624q-44 6 -67 6z" />
    <glyph glyph-name="f_j" unicode="fj" horiz-adv-x="553" 
d="M-33 -210q-35 0 -68 7l16 87q20 -5 48 -5t45.5 13.5t24.5 52.5l70 396h-81l16 91h81l20 111q31 175 229 175q63 0 161 -24l-24 -82q-79 18 -127 18q-111 0 -127 -90l-19 -108h293l-82 -464q-28 -161 -174 -161q-34 0 -74 12l16 86q27 -9 52 -9t42 13.5t24 52.5l66 379
h-179l-69 -390q-28 -161 -180 -161z" />
    <glyph glyph-name="f_k" unicode="fk" horiz-adv-x="825" 
d="M378 630q-111 0 -127 -90l-19 -108h113l-16 -91h-113l-69 -390q-28 -161 -180 -161q-35 0 -68 7l16 87q20 -5 48 -5t45.5 13.5t24.5 52.5l70 396h-81l16 91h81l20 111q31 175 229 175q44 0 104 -11h101l-56 -315q69 51 129.5 51t97 -29.5t36.5 -85.5t-40.5 -95
t-106.5 -56l37 -65q21 -36 47 -36t64 20l-16 -87q-37 -20 -74 -20q-73 0 -116 79l-62 116l8 41q62 4 105.5 28t43.5 63.5t-50.5 39.5t-117.5 -52l-54 -304h-113l109 624q-42 6 -66 6z" />
    <glyph glyph-name="t_t" unicode="tt" horiz-adv-x="654" 
d="M481 106q0 -30 46 -30q28 0 85 20l-15 -83q-52 -24 -117.5 -24t-93.5 38q-19 27 -19 66q0 16 3 33l38 217h-201l-40 -227q-1 -6 -1 -10q0 -30 46 -30q28 0 85 20l-15 -83q-52 -24 -117.5 -24t-92.5 38q-20 27 -20 66q0 16 3 33l38 217h-74l16 89h74l19 110h114l-20 -110
h202l19 110h114l-20 -110h115l-16 -89h-114l-40 -227q-1 -6 -1 -10z" />
    <glyph glyph-name=".notdef" horiz-adv-x="425" 
d="M0 0l107 609h425l-107 -609h-425zM66 42h306l-113 226zM465 567h-306l113 -227zM475 520l-184 -216l108 -216zM58 88l184 216l-108 216z" />
    <glyph glyph-name=".null" horiz-adv-x="0" 
 />
    <glyph glyph-name=".null" horiz-adv-x="0" 
 />
    <glyph glyph-name="nonmarkingreturn" unicode="&#xd;" horiz-adv-x="333" 
 />
    <glyph glyph-name="exclam" unicode="!" horiz-adv-x="266" 
d="M74 176l58 433h124l-94 -433h-88zM101 -10q-29 0 -49 20t-20 49t20 49t49 20t49 -20t20 -49t-20 -49t-49 -20z" />
    <glyph glyph-name="quotedbl" unicode="&#x22;" horiz-adv-x="382" 
d="M77 383l42 239h101l-42 -239h-101zM248 383l42 239h101l-42 -239h-101z" />
    <glyph glyph-name="numbersign" unicode="#" horiz-adv-x="574" 
d="M66 12l34 110h-83l13 72h93l40 127h-86l13 72h97l34 111h86l-35 -111h112l35 111h87l-35 -111h88l-13 -72h-99l-40 -127h92l-13 -72h-101l-35 -110h-87l35 110h-112l-34 -110h-86zM210 194h112l39 127h-111z" />
    <glyph glyph-name="dollar" unicode="$" horiz-adv-x="491" 
d="M9 110q0 25 16 43t43 18t43 -14t16 -32t-8 -32q37 -18 77 -22l25 138q-37 14 -57.5 23t-47.5 27q-53 34 -53 99t51 109.5t149 44.5h11l12 64h28l-12 -66q68 -8 113 -37t45 -69q0 -24 -16 -42.5t-42.5 -18.5t-43.5 15t-17 33t6 30q-28 9 -59 13l-23 -134
q94 -34 108.5 -47.5t29.5 -28.5q27 -27 27 -84.5t-49 -103t-153 -45.5q-12 0 -18 1l-16 -94h-28l17 96q-75 8 -124.5 39.5t-49.5 76.5zM326 128q0 24 -20 40t-59 32l-23 -130q102 0 102 58zM192 418.5q-25 -15.5 -25 -40t18.5 -39.5t53.5 -29l22 125q-44 -1 -69 -16.5z" />
    <glyph glyph-name="percent" unicode="%" horiz-adv-x="676" 
d="M271 275q-37 -43 -99 -43q-118 0 -118 109q0 61 37 104t99 43q118 0 118 -109q0 -61 -37 -104zM171 290q25 0 42 21.5t17 61.5q0 57 -39 57q-25 0 -42 -21.5t-17 -61.5q0 -57 39 -57zM581 43q-37 -43 -99 -43q-118 0 -118 109q0 61 37 104t99 43q118 0 118 -109
q0 -61 -37 -104zM481 58q25 0 42 21.5t17 61.5q0 57 -39 57q-25 0 -42 -21.5t-17 -61.5q0 -57 39 -57zM115 -3l-41 41l482 451l40 -41z" />
    <glyph glyph-name="ampersand" unicode="&#x26;" horiz-adv-x="639" 
d="M384 42q-80 -55 -172.5 -55t-143 41.5t-50.5 112.5t38.5 114t105.5 78q-46 61 -46 127t51.5 112.5t128.5 46.5t116 -36.5t39 -97.5t-36.5 -100.5t-102.5 -73.5l91 -119q49 71 69 166h146l-15 -84h-57q-28 -94 -84 -160q29 -35 60.5 -35t55.5 8l-16 -88q-34 -10 -65 -10
q-72 0 -113 53zM149.5 101q22.5 -22 73.5 -22t104 37l-112 147q-43 -24 -65.5 -48.5t-22.5 -58t22.5 -55.5zM339 521.5q-15 15.5 -43.5 15.5t-50.5 -18.5t-22 -53.5t37 -85q46 23 70 46.5t24 51.5t-15 43.5z" />
    <glyph glyph-name="quotesingle" unicode="'" horiz-adv-x="211" 
d="M77 383l42 239h101l-42 -239h-101z" />
    <glyph glyph-name="parenleft" unicode="(" horiz-adv-x="291" 
d="M22 153q0 148 62 291t173 263h116q-243 -277 -243 -560q0 -85 21 -177.5t63 -167.5h-113q-38 76 -58.5 171.5t-20.5 179.5z" />
    <glyph glyph-name="parenright" unicode=")" horiz-adv-x="292" 
d="M161 362q0 85 -21 177.5t-63 167.5h113q38 -76 58.5 -171.5t20.5 -179.5q0 -148 -62 -291t-173 -263h-116q243 277 243 560z" />
    <glyph glyph-name="asterisk" unicode="*" horiz-adv-x="378" 
d="M199 316q-32 0 -32 28q0 15 10 34.5t23.5 43.5t21.5 40l5 -1q1 -25 5.5 -60.5t1.5 -52.5t-14 -24.5t-21 -7.5zM228 491l-9 103q0 24 14 33t20.5 9t14.5 -1t15.5 -11t5 -23.5t-11.5 -30t-22.5 -40t-21.5 -40.5zM70 423q0 21 27 33q11 5 55 9t61 7l1 -4q-14 -11 -36 -28
q-47 -39 -59 -44.5t-21 -5.5q-18 0 -26 20q-2 7 -2 13zM385 529q0 -33 -53 -39q-18 -2 -45 -4.5t-44 -5.5l-2 4q14 11 36 28q49 40 60 44.5t18 4.5q22 0 28 -19q2 -7 2 -13zM320 442q17 -6 28 -14.5t11 -20.5t-11.5 -26t-24.5 -14t-22.5 7t-18.5 21t-22 35.5t-23 34.5l4 4
q15 -6 39 -14zM134 510q-16 6 -26.5 14t-10.5 22.5t11.5 26.5t24.5 12t21.5 -7t18.5 -21.5t23 -35.5t23 -34l-4 -4q-16 6 -40 14z" />
    <glyph glyph-name="plus" unicode="+" horiz-adv-x="486" 
d="M158 27l30 170h-168l15 86h168l30 170h90l-30 -170h168l-15 -86h-168l-30 -170h-90z" />
    <glyph glyph-name="comma" unicode="," horiz-adv-x="222" 
d="M80 128q29 0 48 -20t19 -50q0 -44 -44.5 -96.5t-101.5 -91.5l-38 40q72 59 88 91q-41 18 -41 59q0 27 20.5 47.5t49.5 20.5z" />
    <glyph glyph-name="hyphen" unicode="-" horiz-adv-x="394" 
d="M41 186l17 95h288l-17 -95h-288z" />
    <glyph glyph-name="period" unicode="." horiz-adv-x="221" 
d="M79 -10q-29 0 -49 20t-20 49t20 49t49 20t49 -20t20 -49t-20 -49t-49 -20z" />
    <glyph glyph-name="slash" unicode="/" horiz-adv-x="547" 
d="M-56 -198l556 905h105l-555 -905h-106z" />
    <glyph glyph-name="zero" unicode="0" horiz-adv-x="534" 
d="M229 -11q-102 0 -150.5 54.5t-48.5 150.5q0 116 64 200q32 43 85 68t121 25q102 0 150 -54.5t48 -149.5q0 -116 -64 -201q-31 -43 -84 -68t-121 -25zM237 75q49 0 83 32q61 59 61 176.5t-90 117.5q-49 0 -83 -32q-62 -58 -62 -176t91 -118z" />
    <glyph glyph-name="one" unicode="1" horiz-adv-x="381" 
d="M179 382q-41 -37 -76 -37t-47 23q-6 11 -6 24t8 30l151 54h99l-69 -391h80l-15 -85h-294l15 85h102z" />
    <glyph glyph-name="two" unicode="2" horiz-adv-x="466" 
d="M296.5 275.5q22.5 33.5 22.5 62t-15.5 47.5t-54.5 19t-72 -14q4 -9 4 -28.5t-16 -37t-45.5 -17.5t-46 17.5t-16.5 43.5q0 55 64.5 87t139.5 32t123.5 -34.5t48.5 -106.5t-63 -133t-179 -122h207l-17 -91h-360l-20 61q18 12 67.5 41t86.5 53t78 55.5t63.5 65z" />
    <glyph glyph-name="three" unicode="3" horiz-adv-x="502" 
d="M191 -140q-83 0 -147 28.5t-64 84.5q0 30 19.5 49.5t49 19.5t47 -15t17.5 -34.5t-6 -34.5q33 -13 74 -13q65 0 100 31t35 76t-35.5 67t-94.5 22h-33l16 82h29q73 0 111.5 29t38.5 76q0 74 -88 74q-42 0 -75 -13q4 -9 4 -20q0 -26 -19 -44.5t-49.5 -18.5t-46.5 18t-16 44
q0 55 65.5 87t151 32t137.5 -37.5t52 -102t-37 -104.5t-100 -59q106 -40 106 -139q0 -76 -63 -130.5t-179 -54.5z" />
    <glyph glyph-name="four" unicode="4" horiz-adv-x="499" 
d="M221 481q18 6 34 6t29 -7q25 -14 25 -52q0 -64 -66 -163.5t-134 -158.5h164l11 60q34 42 80 128h48l-34 -188h81l-14 -82h-78l-13 -74h77l-14 -79h-282l14 79h92l13 74h-248l-27 75q88 85 156.5 191t85.5 191z" />
    <glyph glyph-name="five" unicode="5" horiz-adv-x="510" 
d="M206 -140q-85 0 -149 35t-64 92q0 31 19.5 50t49.5 19t46 -17t16 -37t-6 -35q33 -20 88 -20t92.5 35t37.5 88.5t-27.5 79.5t-70 26t-77.5 -18t-55 -40l-73 35q54 126 87 322h348q4 -19 4 -34q0 -74 -91 -74q-26 0 -96.5 7.5t-87.5 8.5q-13 -75 -41 -152q52 31 119.5 31
t122 -47t54.5 -138t-66.5 -154t-179.5 -63z" />
    <glyph glyph-name="six" unicode="6" horiz-adv-x="537" 
d="M421.5 54q-66.5 -65 -169.5 -65t-157.5 52.5t-54.5 169.5q0 140 72 265q36 62 96.5 101t133.5 39t122 -30.5t49 -80.5q0 -28 -16.5 -48.5t-48.5 -20.5t-50 17t-18 37t9 34q-23 9 -50 9q-63 0 -107.5 -59.5t-62.5 -141.5q57 55 142 55t131 -45t46 -134t-66.5 -154z
M174 100q24 -26 75.5 -26t86.5 39.5t35 90.5q0 104 -88 104q-56 0 -94.5 -39.5t-38.5 -91t24 -77.5z" />
    <glyph glyph-name="seven" unicode="7" horiz-adv-x="478" 
d="M176 -140q-61 0 -61 59q0 75 74.5 205t168.5 247q-10 -2 -29 -2t-60 10.5t-73 10.5q-63 0 -77 -87h-95l31 173h85l-11 -60q31 64 92 64q32 0 78.5 -21t73.5 -21h3q17 49 66 49q28 0 42.5 -15.5t14.5 -40t-28 -61.5q-51 -68 -73.5 -98.5t-60 -88.5t-55.5 -99
q-45 -106 -58 -216q-26 -8 -48 -8z" />
    <glyph glyph-name="eight" unicode="8" horiz-adv-x="542" 
d="M420.5 44q-68.5 -55 -180.5 -55t-164.5 44.5t-52.5 114t41.5 113t106.5 62.5q-75 36 -75 113.5t60 128.5t162 51t149.5 -40t47.5 -97.5t-32 -99t-93 -61.5q45 -17 72 -51.5t27 -85.5q0 -82 -68.5 -137zM138 159q0 -87 108 -87q55 0 91.5 33.5t36.5 79.5q0 91 -101 91
q-61 0 -98 -32.5t-37 -84.5zM320 535q-51 0 -82.5 -27t-31.5 -66q0 -81 84 -81q50 0 82 30t32 73q0 71 -84 71z" />
    <glyph glyph-name="nine" unicode="9" horiz-adv-x="524" 
d="M339.5 -99q-58.5 -41 -134 -41t-136 29t-60.5 84q0 31 19.5 49t48 18t45.5 -17.5t17 -37t-4 -30.5q25 -11 63 -11q65 0 103.5 51.5t55.5 158.5q-55 -65 -140 -65t-133.5 47.5t-48.5 136t66.5 151.5t175.5 63q206 0 206 -234q0 -127 -55 -247q-30 -64 -88.5 -105zM348 373
q-25 28 -76.5 28t-86 -39.5t-34.5 -88.5t23 -76.5t73 -27.5t88 40.5t38 88t-25 75.5z" />
    <glyph glyph-name="colon" unicode=":" horiz-adv-x="247" 
d="M89 -10q-29 0 -49 20t-20 49t20 49t49 20t49 -20t20 -49t-20 -49t-49 -20zM141 282q-29 0 -49 20t-20 49t20 49t49 20t49 -20t20 -49t-20 -49t-49 -20z" />
    <glyph glyph-name="semicolon" unicode=";" horiz-adv-x="248" 
d="M141 282q-29 0 -49 20t-20 49t20 49t49 20t49 -20t20 -49t-20 -49t-49 -20zM90 128q29 0 48 -20t19 -50q0 -44 -44.5 -96.5t-101.5 -91.5l-38 40q72 59 88 91q-41 18 -41 59q0 27 20.5 47.5t49.5 20.5z" />
    <glyph glyph-name="less" unicode="&#x3c;" horiz-adv-x="461" 
d="M369 23l-347 193l8 48l415 193l-17 -100l-274 -120l232 -120z" />
    <glyph glyph-name="equal" unicode="=" horiz-adv-x="538" 
d="M26 84l16 90h426l-16 -90h-426zM65 306l16 90h426l-16 -90h-426z" />
    <glyph glyph-name="greater" unicode="&#x3e;" horiz-adv-x="461" 
d="M11 23l17 100l274 120l-232 120l17 94l347 -193l-8 -48z" />
    <glyph glyph-name="question" unicode="?" horiz-adv-x="386" 
d="M94 176q-2 11 -2 32t14.5 53.5t42 60t55.5 52.5q70 59 70 109q0 55 -76 55q-48 0 -122 -21l15 85q73 21 139 21t113 -34t47 -98q0 -42 -22 -78.5t-52 -63t-60 -51.5q-62 -53 -62 -107q0 -8 1 -15h-101zM134 -10q-28 0 -48.5 20t-20.5 49t20.5 49t48.5 20t48.5 -20
t20.5 -49t-20.5 -49t-48.5 -20z" />
    <glyph glyph-name="at" unicode="@" horiz-adv-x="762" 
d="M446 120q-60 -73 -149 -73q-47 0 -81.5 35.5t-34.5 99.5q0 89 64.5 157.5t152.5 68.5q44 0 71 -18.5t36 -47.5h3q18 35 27 50h62q-77 -177 -77 -242q0 -51 35 -51q41 0 78 55t37 138q0 107 -62 168.5t-171 61.5q-131 0 -244 -99.5t-113 -235.5q0 -107 69 -176t178 -69
q86 0 176 52l21 -45q-107 -59 -203 -59q-131 0 -212.5 86.5t-81.5 210.5q0 105 60.5 195.5t156 141.5t198.5 51q124 0 202 -76t78 -195.5t-54.5 -188t-131.5 -68.5q-46 0 -66 23t-20 50h-4zM327 113q52 0 95 49.5t43 110.5q0 70 -62 70q-54 0 -95.5 -48.5t-41.5 -109.5
q0 -72 61 -72z" />
    <glyph glyph-name="A" unicode="A" horiz-adv-x="688" 
d="M-43 0l16 92h72l247 425h-83l16 92h252l118 -517h73l-16 -92h-268l16 92h80l-18 83h-249l-47 -83h80l-16 -92h-273zM265 267h178l-48 230z" />
    <glyph glyph-name="B" unicode="B" horiz-adv-x="623" 
d="M395 609q97 0 152.5 -42t55.5 -110q0 -50 -33 -91t-103 -59q107 -27 107 -124q0 -76 -68.5 -129.5t-184.5 -53.5h-326l16 92h82l75 425h-82l16 92h293zM326 91q62 0 98 26t36 70q0 78 -108 78h-114l-31 -174h119zM358 353q62 0 96 26.5t34 67.5q0 71 -99 71h-107
l-29 -165h105z" />
    <glyph glyph-name="C" unicode="C" horiz-adv-x="619" 
d="M551 41q-97 -53 -224 -53t-207 73t-80 205q0 150 101 252.5t263 102.5q114 0 229 -53l-27 -171h-108l20 112q-56 18 -114 18q-111 0 -178 -75t-67 -174.5t50.5 -146t133.5 -46.5q113 0 226 67z" />
    <glyph glyph-name="D" unicode="D" horiz-adv-x="696" 
d="M385 609q141 0 213.5 -68.5t72.5 -194.5q0 -143 -89 -240q-44 -49 -118.5 -77.5t-170.5 -28.5h-298l16 92h82l75 425h-82l16 92h283zM300 92q125 0 188 70t63 181q0 86 -42 130t-134 44h-91l-75 -425h91z" />
    <glyph glyph-name="E" unicode="E" 
d="M-5 0l16 92h82l75 425h-82l16 92h502l-31 -179h-107l15 87h-197l-29 -165h229l-16 -92h-229l-30 -168h200l16 91h108l-32 -183h-506z" />
    <glyph glyph-name="F" unicode="F" horiz-adv-x="554" 
d="M-5 0l16 92h82l75 425h-82l16 92h494l-33 -187h-107l17 94h-189l-32 -179h216l-16 -94h-216l-27 -151h87l-16 -92h-285z" />
    <glyph glyph-name="G" unicode="G" horiz-adv-x="696" 
d="M352 -12q-143 0 -227 74t-84 207q0 155 107 253.5t270 98.5q134 0 252 -56l-27 -157h-109l16 96q-64 20 -126 20q-114 0 -189.5 -69t-75.5 -180q0 -89 52 -139t155 -50q66 0 123 19l24 138h-127l16 90h285l-16 -90h-50l-35 -207q-40 -19 -104 -33.5t-130 -14.5z" />
    <glyph glyph-name="H" unicode="H" horiz-adv-x="764" 
d="M-5 0l16 92h82l75 425h-82l16 92h281l-16 -92h-83l-29 -165h289l29 165h-83l16 92h281l-16 -92h-82l-75 -425h82l-16 -92h-281l16 92h83l29 164h-289l-29 -164h83l-16 -92h-281z" />
    <glyph glyph-name="I" unicode="I" horiz-adv-x="359" 
d="M-5 0l16 92h82l75 425h-82l16 92h280l-16 -92h-82l-75 -425h82l-16 -92h-280z" />
    <glyph glyph-name="J" unicode="J" horiz-adv-x="328" 
d="M-28 -180l-32 72q112 49 124 122l89 503h-72l16 92h260l-16 -92h-72l-91 -512q-16 -87 -78 -129q-55 -37 -128 -56z" />
    <glyph glyph-name="K" unicode="K" horiz-adv-x="689" 
d="M471 0l-196 299l1 7l234 213h-63l15 90h267l-16 -92h-63l-240 -222l134 -203h104l-16 -92h-161zM-5 0l16 92h82l75 425h-82l16 92h277l-16 -92h-79l-75 -425h92l-16 -92h-290z" />
    <glyph glyph-name="L" unicode="L" horiz-adv-x="554" 
d="M-5 0l16 92h82l75 425h-82l16 92h295l-16 -92h-97l-75 -425h197l18 98h107l-34 -190h-502z" />
    <glyph glyph-name="M" unicode="M" horiz-adv-x="913" 
d="M-8 0l16 92h75l90 425h-76l16 92h252l80 -418l220 418h259l-16 -92h-76l-60 -425h75l-16 -92h-256l16 92h75l58 408l-254 -460h-95l-97 460l-86 -408h75l-16 -92h-259z" />
    <glyph glyph-name="N" unicode="N" horiz-adv-x="753" 
d="M-5 0l16 92h82l75 425h-82l16 92h195l223 -430l59 338h-82l16 92h274l-16 -92h-82l-91 -517h-103l-230 440l-62 -348h82l-16 -92h-274z" />
    <glyph glyph-name="O" unicode="O" horiz-adv-x="711" 
d="M327 -12q-132 0 -209 73.5t-77 203.5q0 150 99.5 253t258.5 103q132 0 210 -74.5t78 -203.5q0 -149 -100 -252t-260 -103zM330 85q101 0 169 71.5t68 182.5q0 88 -45.5 136.5t-125.5 48.5q-101 0 -168 -72.5t-67 -183.5q0 -88 44.5 -135.5t124.5 -47.5z" />
    <glyph glyph-name="P" unicode="P" horiz-adv-x="596" 
d="M376 609q114 0 171 -49t57 -130q0 -80 -60 -144q-31 -33 -87.5 -53t-131.5 -20h-94l-22 -121h102l-16 -92h-300l16 92h82l75 425h-82l16 92h274zM337 305q77 0 112.5 37t35.5 81q0 94 -111 94h-90l-37 -212h90z" />
    <glyph glyph-name="Q" unicode="Q" horiz-adv-x="710" 
d="M41 265q0 150 99.5 253t258.5 103q132 0 210 -74.5t78 -199.5t-67.5 -218t-181.5 -126l95 -67l-78 -88l-166 142q-115 10 -181.5 82.5t-66.5 192.5zM330 85q101 0 169 71.5t68 182.5q0 88 -45.5 136.5t-125.5 48.5q-101 0 -168 -72.5t-67 -183.5q0 -88 44.5 -135.5
t124.5 -47.5z" />
    <glyph glyph-name="R" unicode="R" horiz-adv-x="645" 
d="M389 609q113 0 168.5 -50.5t55.5 -124t-45 -124t-121 -69.5l66 -149h79l-16 -92h-145l-98 223h-101l-23 -131h82l-16 -92h-280l16 92h82l75 425h-82l16 92h287zM346 313q78 0 113.5 35t35.5 82q0 87 -113 87h-98l-36 -204h98z" />
    <glyph glyph-name="S" unicode="S" horiz-adv-x="533" 
d="M419.5 35.5q-63.5 -47.5 -183 -47.5t-228.5 35l27 152h104l-15 -80q58 -15 116 -15t92.5 23t34.5 60t-30 59.5t-72.5 36.5t-85.5 31t-73 53.5t-30 91.5q0 83 62.5 134.5t168.5 51.5t217 -35l-26 -149h-106l15 81q-41 11 -95.5 11t-86.5 -22.5t-32 -52t16 -46.5
t41.5 -27.5t56.5 -20.5t62 -24t56.5 -33t41.5 -52.5t16 -77.5q0 -90 -63.5 -137.5z" />
    <glyph glyph-name="T" unicode="T" horiz-adv-x="589" 
d="M101 0l16 92h90l75 425h-114l-16 -93h-105l33 185h554l-33 -185h-105l16 93h-114l-75 -425h90l-16 -92h-296z" />
    <glyph glyph-name="U" unicode="U" horiz-adv-x="689" 
d="M492.5 48.5q-70.5 -60.5 -183.5 -60.5t-177 69q-48 51 -48 132q0 28 6 59l48 269h-82l16 92h280l-16 -92h-82l-52 -290q-3 -18 -3 -34q0 -41 21 -67q31 -35 93 -35t105.5 33.5t54.5 100.5l52 292h-85l16 92h277l-16 -92h-82l-52 -294q-20 -114 -90.5 -174.5z" />
    <glyph glyph-name="V" unicode="V" horiz-adv-x="662" 
d="M225 0l-114 517h-72l16 92h270l-16 -92h-82l79 -380l209 380h-82l16 92h276l-16 -92h-72l-296 -517h-116z" />
    <glyph glyph-name="W" unicode="W" horiz-adv-x="935" 
d="M186 0l-76 517h-68l16 92h261l-16 -92h-86l53 -383l185 344l-7 39h-77l16 92h275l-16 -92h-87l57 -379l182 379h-85l16 92h265l-16 -92h-69l-252 -517h-116l-59 326l-179 -326h-117z" />
    <glyph glyph-name="X" unicode="X" horiz-adv-x="663" 
d="M-34 0l16 90h68l227 224l-132 205h-67l15 90h271l-15 -89h-78l83 -130l132 130h-76l15 89h280l-16 -91h-67l-215 -213l139 -216h66l-16 -89h-268l16 89h78l-91 141l-142 -141h76l-16 -89h-283z" />
    <glyph glyph-name="Y" unicode="Y" horiz-adv-x="638" 
d="M129 0l16 92h86l21 118l-143 307h-70l16 92h276l-16 -91h-87l92 -204l165 204h-87l16 91h285l-16 -92h-67l-247 -301l-22 -124h86l-16 -92h-288z" />
    <glyph glyph-name="Z" unicode="Z" horiz-adv-x="594" 
d="M25 0l-27 56l418 456h-223l-17 -98h-107l34 195h470l33 -52l-423 -460h240l18 103h107l-35 -200h-488z" />
    <glyph glyph-name="bracketleft" unicode="[" horiz-adv-x="309" 
d="M-6 -198l160 905h217l-14 -77h-113l-132 -751h113l-14 -77h-217z" />
    <glyph glyph-name="backslash" unicode="\" horiz-adv-x="529" 
d="M328 -198l-235 905h105l236 -905h-106z" />
    <glyph glyph-name="bracketright" unicode="]" horiz-adv-x="309" 
d="M-63 -198l14 77h113l132 751h-113l14 77h217l-160 -905h-217z" />
    <glyph glyph-name="asciicircum" unicode="^" horiz-adv-x="451" 
d="M49 337l214 296h62l110 -296h-99l-57 189l-123 -189h-107z" />
    <glyph glyph-name="underscore" unicode="_" horiz-adv-x="542" 
d="M-9 -99l12 70h435l-12 -70h-435z" />
    <glyph glyph-name="grave" unicode="`" horiz-adv-x="346" 
d="M238 503l-174 134l72 78l144 -167z" />
    <glyph glyph-name="a" unicode="a" horiz-adv-x="549" 
d="M333 60q-61 -71 -140 -71t-125.5 51.5t-46.5 155t65.5 175.5t154.5 72t132 -65l10 54h113l-56 -312q-1 -7 -1 -14q0 -32 35 -32q22 0 44 8l-14 -83q-38 -10 -71 -10q-88 0 -100 71zM226 74q57 0 94 49.5t37 112.5q0 122 -89 122q-57 0 -94 -49.5t-37 -112.5
q0 -122 89 -122z" />
    <glyph glyph-name="b" unicode="b" horiz-adv-x="525" 
d="M424.5 61q-65.5 -72 -159 -72t-134.5 76l-12 -65h-104l109 618h-62l16 89h175l-57 -316q59 52 130 52t117.5 -51.5t46.5 -155t-65.5 -175.5zM244 74q58 0 94 49t36 112q0 123 -90 123q-58 0 -94 -49t-36 -112q0 -123 90 -123z" />
    <glyph glyph-name="c" unicode="c" horiz-adv-x="414" 
d="M227 -11q-97 0 -151.5 51t-54.5 153t66.5 176t187.5 74q75 0 134 -23l-16 -83q-52 21 -105 21q-74 0 -112 -47t-38 -117q0 -120 116 -120q58 0 110 20l-16 -88q-55 -17 -121 -17z" />
    <glyph glyph-name="d" unicode="d" horiz-adv-x="549" 
d="M333 60q-61 -71 -140 -71t-125.5 51.5t-46.5 155t65.5 175.5t154 72t131.5 -64l43 239h-83l16 89h196l-104 -587q-1 -7 -1 -14q0 -32 35 -32q22 0 44 8l-14 -83q-38 -10 -72 -10q-87 0 -99 71zM226 74q57 0 94 49.5t37 112.5q0 122 -89 122q-57 0 -94 -49.5t-37 -112.5
q0 -122 89 -122z" />
    <glyph glyph-name="e" unicode="e" horiz-adv-x="437" 
d="M364 23q-64 -34 -147.5 -34t-140 48.5t-56.5 153.5t71 178.5t177 73.5q70 0 106.5 -33t36.5 -86q0 -147 -279 -162q11 -87 106 -87q56 0 143 38zM308 322q0 39 -45 39t-78 -32.5t-47 -84.5q170 8 170 78z" />
    <glyph glyph-name="f" unicode="f" horiz-adv-x="323" 
d="M-33 -210q-35 0 -68 7l16 87q20 -5 48 -5t45.5 13.5t24.5 52.5l70 396h-81l16 91h81l21 121q15 88 61 126.5t125 38.5q38 0 83 -9l-15 -84q-28 4 -58 4q-69 0 -83 -78l-21 -119h113l-16 -91h-113l-69 -390q-28 -161 -180 -161z" />
    <glyph glyph-name="g" unicode="g" horiz-adv-x="466" 
d="M-21.5 -177.5q-49.5 32.5 -49.5 81.5q0 82 131 141q-5 10 -5 26q0 38 40 74q-56 38 -56 112.5t55 130t146 55.5q36 0 71 -11h176l-16 -88l-70 5q9 -24 9 -51q0 -74 -55 -129.5t-146 -55.5q-24 0 -52 5q-5 -8 -5 -14.5t7 -13.5t20 -13.5t26 -11.5t31.5 -11.5t29.5 -11.5
q100 -42 100 -119q0 -47 -40 -85q-50 -48 -174 -48t-173.5 32.5zM241 365q-46 0 -72 -32t-26 -75q0 -67 65 -67q46 0 72 32t26 75q0 67 -65 67zM147 -127q40 0 66 7q43 13 43 36q0 15 -21.5 28t-64.5 30t-59 25q-73 -41 -73 -78q0 -48 109 -48z" />
    <glyph glyph-name="h" unicode="h" horiz-adv-x="537" 
d="M195 376q80 67 147 67t100 -39q23 -29 23 -72q0 -16 -3 -34l-32 -178q-1 -7 -1 -14q0 -32 35 -32q22 0 44 8l-14 -83q-38 -10 -72 -10q-69 0 -91 39q-15 26 -15 52.5t3 44.5l30 165q2 11 2 21q0 43 -42 43q-54 0 -131 -73l-50 -281h-113l109 618h-72l16 89h185z" />
    <glyph glyph-name="i" unicode="i" horiz-adv-x="279" 
d="M161 -11q-70 0 -93 38q-15 26 -15 53t3 45l39 218h-72l16 89h185l-56 -312q-1 -8 -1 -14q0 -32 34 -32q23 0 45 8l-14 -83q-38 -10 -71 -10zM185 497q-31 0 -53 22t-22 53t22 53t53 22t53 -22t22 -53t-22 -53t-53 -22z" />
    <glyph glyph-name="j" unicode="j" horiz-adv-x="258" 
d="M191 497q-31 0 -53 22t-22 53t22 53t53 22t53 -22t22 -53t-22 -53t-53 -22zM-29 -210q-34 0 -74 12l16 86q27 -9 52 -9t42 13.5t24 52.5l70 398h-78l16 89h191l-85 -481q-28 -161 -174 -161z" />
    <glyph glyph-name="k" unicode="k" horiz-adv-x="505" 
d="M197 392q69 51 129.5 51t97 -29.5t36.5 -85.5t-40.5 -95t-106.5 -56l37 -65q21 -36 47 -36t64 20l-16 -87q-37 -20 -74 -20q-73 0 -116 79l-62 116l8 41q62 4 105.5 28t43.5 63.5t-50.5 39.5t-117.5 -52l-54 -304h-113l109 618h-62l16 89h175z" />
    <glyph glyph-name="l" unicode="l" horiz-adv-x="255" 
d="M136 -11q-70 0 -92 38q-16 26 -16 53t3 45l87 493h-72l16 89h185l-104 -587q-1 -8 -1 -14q0 -32 34 -32q23 0 45 8l-14 -83q-38 -10 -71 -10z" />
    <glyph glyph-name="m" unicode="m" horiz-adv-x="789" 
d="M213 381q66 62 143.5 62t101.5 -71q73 71 148 71q57 0 88 -37q23 -28 23 -70q0 -16 -3 -34l-32 -182q-1 -7 -1 -14q0 -32 35 -32q22 0 44 8l-14 -83q-38 -10 -72 -10q-69 0 -92 39q-15 26 -15 52.5t3 44.5l31 174q1 9 1 16q0 39 -42 39t-100 -54l-53 -300h-112l53 299
q1 9 1 16q0 39 -42 39t-103 -57l-52 -297h-112l61 343h-70l16 89h175z" />
    <glyph glyph-name="n" unicode="n" horiz-adv-x="563" 
d="M375 443q60 0 93 -39q23 -29 23 -72q0 -16 -3 -34l-32 -178q-1 -7 -1 -14q0 -32 35 -32q22 0 44 8l-14 -83q-38 -10 -72 -10q-69 0 -91 39q-15 26 -15 52.5t3 44.5l30 165q2 11 2 21q0 43 -42 43q-54 0 -132 -74l-50 -280h-113l61 343h-70l16 89h178l-11 -61
q84 72 161 72z" />
    <glyph glyph-name="o" unicode="o" horiz-adv-x="507" 
d="M222 -11q-93 0 -147.5 50.5t-54.5 151.5t66.5 176.5t184.5 75.5q93 0 147.5 -50.5t54.5 -151.5t-66.5 -176.5t-184.5 -75.5zM225 74q61 0 95.5 52.5t34.5 121.5q0 110 -87 110q-61 0 -95.5 -52.5t-34.5 -121.5q0 -110 87 -110z" />
    <glyph glyph-name="p" unicode="p" horiz-adv-x="549" 
d="M448.5 61q-65.5 -72 -154.5 -72t-132 64l-45 -252h-113l96 542h-66l16 89h168l-9 -52q60 63 136 63t122.5 -51.5t46.5 -155t-65.5 -175.5zM267 74q57 0 94 49.5t37 112.5q0 122 -89 122q-57 0 -94 -49.5t-37 -112.5q0 -122 89 -122z" />
    <glyph glyph-name="q" unicode="q" horiz-adv-x="525" 
d="M314 40q-58 -51 -129 -51t-117.5 51.5t-46.5 155t65.5 175.5t159 72t135.5 -78l12 67h103l-95 -542h73l-16 -89h-186zM227 74q58 0 94 49t36 112q0 123 -90 123q-58 0 -94 -49t-36 -112q0 -123 90 -123z" />
    <glyph glyph-name="r" unicode="r" horiz-adv-x="438" 
d="M358 443q37 0 60.5 -20.5t23.5 -62.5t-14 -82l-103 5q7 32 7 38q0 25 -25 25q-42 0 -105 -69l-49 -277h-113l61 343h-70l16 89h178l-12 -69q70 80 145 80z" />
    <glyph glyph-name="s" unicode="s" horiz-adv-x="387" 
d="M251 3q-40 -14 -110.5 -14t-140.5 31l14 83q73 -31 138 -31q80 0 80 45q0 38 -97 67q-36 10 -66.5 40.5t-30.5 84.5t46.5 94t124 40t146.5 -25l-14 -80q-62 24 -117 24q-74 0 -74 -42q0 -19 20 -32t48.5 -23t57 -23.5t48.5 -41t20 -59.5t-7.5 -54t-26.5 -46t-59 -38z" />
    <glyph glyph-name="t" unicode="t" horiz-adv-x="339" 
d="M166 106q0 -30 46 -30q28 0 85 20l-15 -83q-52 -24 -117.5 -24t-92.5 38q-20 27 -20 66q0 16 3 33l38 217h-74l16 89h74l19 110h114l-20 -110h115l-16 -89h-114l-40 -227q-1 -6 -1 -10z" />
    <glyph glyph-name="u" unicode="u" horiz-adv-x="556" 
d="M169 -11q-60 0 -93 39q-23 29 -23 72q0 16 3 34l38 209h-70l16 89h182l-53 -290q-2 -11 -2 -21q0 -43 42 -43q54 0 131 73l51 281h113l-57 -318q-1 -7 -1 -14q0 -32 35 -32q22 0 44 8l-13 -77q-38 -10 -72 -10q-92 0 -106 76q-84 -76 -165 -76z" />
    <glyph glyph-name="v" unicode="v" horiz-adv-x="478" 
d="M359 336q0 17 -20.5 17t-52.5 -20l-32 65q62 45 117 45t75 -26t20 -63q0 -130 -220 -354h-92l-81 346h-65l16 86h141l61 -325q133 150 133 229z" />
    <glyph glyph-name="w" unicode="w" horiz-adv-x="707" 
d="M593 331q0 11 -4.5 16t-22.5 5t-55 -21l-27 66q61 46 112 46t74 -26t23 -68q0 -65 -52.5 -158.5t-141.5 -190.5h-92l-44 177q-48 -90 -117 -177h-95l-80 346h-62l16 86h134l64 -318q72 98 107 193l-9 39h-64l16 86h137l66 -324q53 59 85 122t32 101z" />
    <glyph glyph-name="x" unicode="x" horiz-adv-x="482" 
d="M23 10q-8 8 -13 12.5t-11.5 15.5t-8.5 15q-13 26 -15 28l58 37q19 -35 36 -35t39.5 29t71.5 109l-68 127h-63l12 84h130l55 -126q46 77 74 107t67 30q43 0 67 -32q18 -23 37 -60l-58 -37q-18 35 -36 35t-35 -25t-69 -115l67 -125h64l-14 -84h-127l-56 127
q-48 -74 -79.5 -106t-67.5 -32t-57 21z" />
    <glyph glyph-name="y" unicode="y" horiz-adv-x="500" 
d="M371 318q0 33 -24.5 33t-56.5 -21l-33 65q58 48 126 48q97 0 97 -105q0 -64 -40.5 -158t-103 -180.5t-147.5 -148t-163.5 -61.5t-136.5 63l49 62q42 -35 84 -35q77 0 183 120h-80l-48 345h-65l16 87h150l51 -403q60 75 101 158t41 131z" />
    <glyph glyph-name="z" unicode="z" horiz-adv-x="455" 
d="M167 89l99 -9q34 0 48.5 18t30.5 63l82 -23q-28 -106 -81 -133q-25 -13 -53.5 -13t-82 10.5t-88.5 10.5t-96 -18l-29 51l272 307h-126l-12 -77h-93l26 156h341l25 -49z" />
    <glyph glyph-name="braceleft" unicode="{" horiz-adv-x="323" 
d="M254 555l3 -103q0 -114 -44 -158q-34 -34 -85 -45q73 -19 73 -119q0 -52 -32.5 -130t-32.5 -105q0 -34 41 -34q23 0 55 6l-12 -69q-40 -10 -68 -10q-60 0 -89 31t-29 72t33 120.5t33 116.5q0 77 -99 84l14 82q53 4 90 28q24 16 39 58q9 25 9 74l-2 77q0 90 34.5 138.5
t120.5 48.5q39 0 74 -11l-11 -67q-22 7 -46.5 7t-38.5 -7.5t-20 -21.5q-10 -25 -10 -63z" />
    <glyph glyph-name="bar" unicode="|" horiz-adv-x="253" 
d="M-6 -198l160 905h104l-160 -905h-104z" />
    <glyph glyph-name="braceright" unicode="}" horiz-adv-x="322" 
d="M169 52l2 -77q0 -90 -34.5 -138.5t-120.5 -48.5q-39 0 -74 11l11 67q22 -7 46.5 -7t38.5 7.5t20 21.5q10 25 10 63l-3 103q0 114 44 158q34 34 85 45q-73 19 -73 119q0 52 32.5 130t32.5 105q0 34 -41 34q-23 0 -55 -6l12 69q40 10 68 10q60 0 89 -31t29 -72t-33 -120.5
t-33 -116.5q0 -77 99 -84l-14 -82q-53 -4 -90 -28q-24 -16 -39 -58q-9 -25 -9 -74z" />
    <glyph glyph-name="asciitilde" unicode="~" horiz-adv-x="591" 
d="M150 332q26 11 60 11t69.5 -19.5t65 -38.5t54 -19t47.5 17.5t32.5 30.5t24.5 36l59 -32q-37 -66 -78 -108.5t-88 -42.5t-106 40t-88.5 40t-51 -15t-30 -26.5t-29.5 -43.5l-60 30q65 115 119 140z" />
    <glyph glyph-name="exclamdown" unicode="&#xa1;" horiz-adv-x="248" 
d="M-12 -176l94 433h88l-58 -433h-124zM143 305q-29 0 -49 20.5t-20 48.5t20 48.5t49 20.5t49 -20.5t20 -48.5t-20 -48.5t-49 -20.5z" />
    <glyph glyph-name="cent" unicode="&#xa2;" horiz-adv-x="462" 
d="M33 219q0 99 61.5 165.5t167.5 66.5q33 0 58 -7l45 87l31 -10l-46 -87q75 -34 75 -126v-7h-87q0 46 -22 67l-131 -251q12 -4 31 -4q74 0 104 84h90q-41 -150 -200 -150q-32 0 -59 6l-63 -121l-31 10l64 122q-88 39 -88 155zM262 385q-64 0 -99.5 -50.5t-35.5 -112.5
t30 -89l130 249q-11 3 -25 3z" />
    <glyph glyph-name="sterling" unicode="&#xa3;" horiz-adv-x="544" 
d="M126 168q0 15 -8 57h-85l7 41h68q-7 37 -7 64q0 77 58 129.5t163 52.5q126 0 170 -78q16 -31 16 -65q0 -10 -1 -20h-103q2 10 2 19q0 67 -85 67q-55 0 -83.5 -28.5t-28.5 -78.5q0 -25 7 -62h160l-7 -41h-144q6 -34 6 -47q0 -50 -42 -92q13 -1 48.5 -8t68 -7t60.5 14.5
t57 50.5l60 -54q-40 -49 -80.5 -70t-87 -21t-104 12t-91.5 12t-84 -18l-17 52q107 38 107 119z" />
    <glyph glyph-name="currency" unicode="&#xa4;" horiz-adv-x="575" 
d="M388 81q-59 -35 -127.5 -35t-118.5 36l-64 -56l-49 60l63 51q-26 44 -26 103q0 91 62 156l-50 57l64 54l48 -62q60 33 127 33t116 -37l66 58l48 -60l-65 -53q27 -46 27 -103q0 -87 -60 -154l52 -58l-64 -54zM183.5 157.5q30.5 -29.5 89 -29.5t104 46.5t45.5 104.5
t-30.5 87.5t-89 29.5t-104 -46t-45.5 -104.5t30.5 -88z" />
    <glyph glyph-name="yen" unicode="&#xa5;" horiz-adv-x="634" 
d="M143 0l13 73h73l9 52h-158l8 42h158l2 12l-30 58h-118l7 42h89l-74 145h-60l14 78h239l-14 -79h-67l79 -165l136 165h-67l14 79h247l-14 -78h-59l-126 -145h88l-7 -42h-118l-50 -58l-2 -12h158l-8 -42h-158l-9 -52h73l-13 -73h-255z" />
    <glyph glyph-name="brokenbar" unicode="&#xa6;" horiz-adv-x="256" 
d="M93 352l63 355h104l-63 -355h-104zM-4 -198l72 408h104l-72 -408h-104z" />
    <glyph glyph-name="section" unicode="&#xa7;" horiz-adv-x="442" 
d="M295.5 -52.5q-45.5 -35.5 -117 -35.5t-124 29.5t-52.5 70.5q0 22 15 39t40 17t39.5 -13t14.5 -30.5t-8 -32.5q22 -15 62.5 -15t61.5 13t21 36.5t-32.5 44.5t-72 35t-72 44.5t-32.5 73.5q0 69 82 111q-26 29 -26 72q0 63 50 98.5t112.5 35.5t112 -23.5t49.5 -69.5
q0 -23 -14 -40t-39.5 -17t-40.5 12.5t-15 29t8 33.5q-20 10 -55 10t-54 -14t-19 -36t21 -37.5t50.5 -27.5t59 -26t50.5 -41t21 -64q0 -70 -80 -111q29 -34 29 -77q0 -59 -45.5 -94.5zM220.5 279q-31.5 13 -42.5 18q-45 -22 -45 -50q0 -15 12.5 -28.5t27.5 -21t43.5 -20
t43.5 -20.5q38 20 38 50t-23 44.5t-54.5 27.5z" />
    <glyph glyph-name="dieresis" unicode="&#xa8;" horiz-adv-x="436" 
d="M118 501q-27 0 -46 19t-19 46t19 46t46 19t46 -19t19 -46t-19 -46t-46 -19zM312 501q-27 0 -46 19t-19 46t19 46t46 19t46 -19t19 -46t-19 -46t-46 -19z" />
    <glyph glyph-name="copyright" unicode="&#xa9;" horiz-adv-x="715" 
d="M359 -53q-131 0 -224 93t-93 224t93 224t224 93t224 -93t93 -224t-93 -224t-224 -93zM359 -6q112 0 191.5 79t79.5 191t-79.5 191.5t-191.5 79.5t-191 -79.5t-79 -191.5t79 -191t191 -79zM491 114q-55 -30 -131 -30t-126.5 47t-50.5 133t51.5 133.5t134.5 47.5
q61 0 124 -25v-108h-68v64q-26 7 -50 7q-52 0 -82 -29.5t-30 -85.5t29.5 -88t82 -32t116.5 32v-66z" />
    <glyph glyph-name="ordfeminine" unicode="&#xaa;" horiz-adv-x="349" 
d="M27 194l9 52h279l-9 -52h-279zM221 334q-43 -39 -85 -39t-66 19.5t-24 64t39.5 69t106.5 24.5h48l3 17q1 6 1 16.5t-9.5 19.5t-45.5 9t-94 -20l11 64q54 18 110 18t84 -22t28 -59q0 -12 -2 -25l-22 -124h34l-11 -64h-112zM130 381q0 -29 32 -29t63 35l6 35h-40
q-61 0 -61 -41z" />
    <glyph glyph-name="guillemotleft" unicode="&#xab;" horiz-adv-x="575" 
d="M149 67l-122 188l1 4l188 188h130l-205 -200l123 -180h-115zM388 67l-122 188l1 4l188 188h130l-205 -200l123 -180h-115z" />
    <glyph glyph-name="logicalnot" unicode="&#xac;" horiz-adv-x="507" 
d="M350 136l23 133h-318l13 71h393l-36 -204h-75z" />
    <glyph glyph-name="uni00AD" unicode="&#xad;" horiz-adv-x="394" 
d="M41 186l17 95h288l-17 -95h-288z" />
    <glyph glyph-name="registered" unicode="&#xae;" horiz-adv-x="426" 
d="M363.5 295.5q-51.5 -51.5 -124 -51.5t-123.5 51.5t-51 124t51 123.5t123.5 51t124 -51t51.5 -123.5t-51.5 -124zM138 318q42 -42 101.5 -42t101.5 42t42 101t-42 101.5t-101.5 42.5t-101.5 -42.5t-42 -101.5t42 -101zM158 339v27h24v106h-24v28h89q32 0 49.5 -14.5
t17.5 -36.5q0 -33 -32 -45l23 -38h25v-27h-50l-34 58h-27v-31h25v-27h-86zM219 424h28q29 0 29 25q0 23 -30 23h-27v-48z" />
    <glyph glyph-name="macron" unicode="&#xaf;" horiz-adv-x="419" 
d="M58 517l15 84h284l-15 -84h-284z" />
    <glyph glyph-name="degree" unicode="&#xb0;" horiz-adv-x="376" 
d="M334.5 387q-51.5 -49 -116.5 -49t-106 38.5t-41 104t50.5 114.5t116 49t107 -38.5t41.5 -104t-51.5 -114.5zM161.5 424.5q20.5 -21.5 58 -21.5t67 30t29.5 66t-20.5 58t-57.5 22t-67 -30.5t-30 -66.5t20.5 -57.5z" />
    <glyph glyph-name="plusminus" unicode="&#xb1;" horiz-adv-x="532" 
d="M201 146l23 131h-168l15 82h168l23 135h90l-23 -135h168l-15 -82h-168l-23 -131h-90zM11 21l15 84h426l-15 -84h-426z" />
    <glyph glyph-name="twosuperior" unicode="&#xb2;" horiz-adv-x="397" 
d="M325 684q0 47 -59 47q-29 0 -56 -11q3 -8 3 -23.5t-14 -29t-37 -13.5t-36 12t-13 32q0 40 47 70t113.5 30t106 -28t39.5 -87t-53 -111t-150 -104h178l-13 -73h-294l-16 55q167 103 209 148q45 47 45 86z" />
    <glyph glyph-name="threesuperior" unicode="&#xb3;" horiz-adv-x="371" 
d="M337 424.5q-46 -36.5 -113.5 -36.5t-114 20.5t-46.5 60.5q0 22 15 38t38 16t35 -11.5t12 -25t-3 -22.5q22 -8 55.5 -8t52.5 17.5t19 43.5q0 51 -79 51h-31l12 64h26q40 0 64 15.5t24 42.5q0 41 -50 41q-17 0 -46 -8q1 -4 1 -18.5t-14.5 -27t-36.5 -12.5t-35 11.5
t-13 31.5q0 39 45.5 64.5t108 25.5t100.5 -28t38 -74q0 -71 -88 -94q70 -22 70 -81.5t-46 -96z" />
    <glyph glyph-name="acute" unicode="&#xb4;" horiz-adv-x="346" 
d="M83 503l-35 44l177 167l63 -81z" />
    <glyph glyph-name="mu" unicode="&#xb5;" horiz-adv-x="611" 
d="M191 121q0 -43 42 -43q54 0 131 73l51 281h113l-57 -318q-1 -7 -1 -14q0 -32 35 -32q22 0 44 8l-13 -77q-38 -10 -72 -10q-92 0 -106 76q-84 -76 -165 -76q-22 0 -40 6l-19 -194h-113l97 542h-70l16 89h182l-53 -290q-2 -11 -2 -21z" />
    <glyph glyph-name="paragraph" unicode="&#xb6;" horiz-adv-x="608" 
d="M209 150q-70 0 -120 45t-50 117q0 87 70 153t167 66h337l-11 -64h-82l-85 -481h82l-11 -63h-394l11 63h96l29 164h-39zM295 -14h65l85 481h-65z" />
    <glyph glyph-name="periodcentered" unicode="&#xb7;" horiz-adv-x="233" 
d="M115 182q-29 0 -49 20t-20 49t20 49t49 20t49 -20t20 -49t-20 -49t-49 -20z" />
    <glyph glyph-name="cedilla" unicode="&#xb8;" horiz-adv-x="304" 
d="M217 -184.5q-40 -23.5 -98 -23.5t-96 15l19 60q35 -13 68 -13q48 0 48 27q0 35 -68 35l6 21l77 112l52 -12l-41 -79q73 -13 73 -74q0 -45 -40 -68.5z" />
    <glyph glyph-name="onesuperior" unicode="&#xb9;" horiz-adv-x="330" 
d="M221 711q-35 -30 -65.5 -30t-39.5 19q-5 8 -5 19t6 24l129 48h83l-57 -323h68l-13 -73h-250l13 73h88z" />
    <glyph glyph-name="ordmasculine" unicode="&#xba;" horiz-adv-x="352" 
d="M20 194l9 52h287l-9 -52h-287zM319.5 344q-45.5 -49 -120.5 -49q-148 0 -148 129q0 73 47 122.5t121 49.5q146 0 146 -130q0 -73 -45.5 -122zM194 356q41 0 62.5 33t21.5 77q0 69 -56 69q-41 0 -62.5 -33t-21.5 -78q0 -68 56 -68z" />
    <glyph glyph-name="guillemotright" unicode="&#xbb;" horiz-adv-x="577" 
d="M232 67l205 200l-123 180h115l122 -188l-1 -4l-188 -188h-130zM-7 67l205 200l-123 180h115l122 -188l-1 -4l-188 -188h-130z" />
    <glyph glyph-name="onequarter" unicode="&#xbc;" horiz-adv-x="787" 
d="M182 536q-34 -29 -61 -29t-35 17q-4 9 -4 19t5 22l118 44h73l-52 -294h62l-12 -66h-225l12 66h80zM615 367q37 0 37 -34t-40.5 -91.5t-80.5 -93.5h93l5 28q39 47 54 79h32l-19 -107h46l-10 -60h-43l-7 -32h43l-9 -56h-190l9 56h66l7 32h-152l-19 47q49 53 94.5 119
t56.5 110q15 3 27 3zM222 -20l-50 31l446 618l49 -31z" />
    <glyph glyph-name="onehalf" unicode="&#xbd;" horiz-adv-x="830" 
d="M704 263q0 41 -53 41q-26 0 -51 -10q2 -10 2 -22.5t-12.5 -25t-33.5 -12.5t-33 11t-12 29q0 36 43 64.5t104 28.5t96.5 -26t35.5 -79.5t-47 -101t-133 -94.5h157l-12 -66h-267l-15 50q8 5 54 33.5t65.5 43t51.5 40.5q60 49 60 96zM180 536q-34 -29 -61 -29t-35 17
q-4 9 -4 19t5 22l118 44h73l-52 -294h62l-12 -66h-225l12 66h80zM220 -20l-50 31l446 618l49 -31z" />
    <glyph glyph-name="threequarters" unicode="&#xbe;" horiz-adv-x="805" 
d="M297 275.5q-43 -33.5 -104.5 -33.5t-104 19t-42.5 56q0 20 13.5 34.5t34.5 14.5t32 -10t11 -21.5t-3 -20.5q24 -8 53.5 -8t46 15t16.5 38.5t-18 32.5t-53 9h-29l10 64h25q37 0 58.5 14.5t21.5 38.5q0 35 -48 35q-22 0 -39 -5q1 -5 1 -17.5t-13.5 -24.5t-34 -12t-33 11
t-12.5 30q0 35 42.5 58t99.5 23t93 -25.5t36 -67.5q0 -66 -81 -86q64 -19 64 -73.5t-43 -88zM633 367q37 0 37 -34t-40.5 -91.5t-80.5 -93.5h93l5 28q39 47 54 79h32l-19 -107h46l-10 -60h-43l-7 -32h43l-9 -56h-190l9 56h66l7 32h-152l-19 47q49 53 94.5 119t56.5 110
q15 3 27 3zM240 -20l-50 31l446 618l49 -31z" />
    <glyph glyph-name="questiondown" unicode="&#xbf;" horiz-adv-x="377" 
d="M276 -169q-73 -21 -139 -21t-113 34t-47 98q0 42 22 78.5t52 63t60 52.5q62 52 62 106q0 8 -1 15h101q2 -11 2 -32t-14.5 -53.5t-42 -60t-56.5 -51.5q-69 -60 -69 -110q0 -55 76 -55q49 0 122 21zM233 305q-29 0 -49 20.5t-20 48.5t20 48.5t49 20.5t49 -20.5t20 -48.5
t-20 -48.5t-49 -20.5z" />
    <glyph glyph-name="Agrave" unicode="&#xc0;" horiz-adv-x="688" 
d="M-43 0l16 92h72l247 425h-83l16 92h252l118 -517h73l-16 -92h-268l16 92h80l-18 83h-249l-47 -83h80l-16 -92h-273zM265 267h178l-48 230zM439 660l-174 134l72 78l144 -167z" />
    <glyph glyph-name="Aacute" unicode="&#xc1;" horiz-adv-x="688" 
d="M-43 0l16 92h72l247 425h-83l16 92h252l118 -517h73l-16 -92h-268l16 92h80l-18 83h-249l-47 -83h80l-16 -92h-273zM265 267h178l-48 230zM358 660l-35 44l177 167l63 -81z" />
    <glyph glyph-name="Acircumflex" unicode="&#xc2;" horiz-adv-x="688" 
d="M-43 0l16 92h72l247 425h-83l16 92h252l118 -517h73l-16 -92h-268l16 92h80l-18 83h-249l-47 -83h80l-16 -92h-273zM265 267h178l-48 230zM249 660l-21 33l162 139h74l109 -139l-27 -33l-138 67z" />
    <glyph glyph-name="Atilde" unicode="&#xc3;" horiz-adv-x="688" 
d="M-43 0l16 92h72l247 425h-83l16 92h252l118 -517h73l-16 -92h-268l16 92h80l-18 83h-249l-47 -83h80l-16 -92h-273zM265 267h178l-48 230zM292.5 782.5q29.5 24.5 57.5 24.5t70 -23.5t63.5 -23.5t36 8.5t21.5 17t18 24.5l37 -22q-13 -25 -28.5 -48.5t-45.5 -48.5t-57 -25
t-70.5 23.5t-65.5 23.5q-36 0 -70 -49l-37 21q11 25 26 49t44.5 48.5z" />
    <glyph glyph-name="Adieresis" unicode="&#xc4;" horiz-adv-x="688" 
d="M-43 0l16 92h72l247 425h-83l16 92h252l118 -517h73l-16 -92h-268l16 92h80l-18 83h-249l-47 -83h80l-16 -92h-273zM265 267h178l-48 230zM318 664q-27 0 -46 19t-19 46t19 46t46 19t46 -19t19 -46t-19 -46t-46 -19zM512 664q-27 0 -46 19t-19 46t19 46t46 19t46 -19
t19 -46t-19 -46t-46 -19z" />
    <glyph glyph-name="Aring" unicode="&#xc5;" horiz-adv-x="688" 
d="M-43 0l16 92h72l247 425h-83l16 92h252l118 -517h73l-16 -92h-268l16 92h80l-18 83h-249l-47 -83h80l-16 -92h-273zM265 267h178l-48 230zM514 693q-36 -37 -96.5 -37t-91 27t-30.5 75t36.5 85t97 37t90.5 -27t30 -75t-36 -85zM415 717q23 0 37 18.5t14 42.5q0 40 -35 40
q-23 0 -37 -18.5t-14 -42.5q0 -40 35 -40z" />
    <glyph glyph-name="AE" unicode="&#xc6;" horiz-adv-x="961" 
d="M-47 0l16 90h73l353 429h-84l15 90h651l-31 -179h-107l15 87h-197l-29 -165h229l-16 -92h-229l-30 -168h200l18 91h108l-34 -183h-504l16 92h82l16 92h-237l-75 -94h78l-15 -90h-282zM320 275h180l43 242h-29z" />
    <glyph glyph-name="Ccedilla" unicode="&#xc7;" horiz-adv-x="619" 
d="M361 -184.5q-40 -23.5 -98 -23.5t-96 15l19 60q35 -13 68 -13q48 0 48 27q0 35 -68 35l6 21l37 55q-109 14 -173 85t-64 189q0 150 101 252.5t263 102.5q114 0 229 -53l-27 -171h-108l20 112q-56 18 -114 18q-111 0 -178 -75t-67 -174.5t50.5 -146t133.5 -46.5
q113 0 226 67l-18 -111q-89 -49 -208 -53l-15 -30q73 -13 73 -74q0 -45 -40 -68.5z" />
    <glyph glyph-name="Egrave" unicode="&#xc8;" 
d="M-5 0l16 92h82l75 425h-82l16 92h502l-31 -179h-107l15 87h-197l-29 -165h229l-16 -92h-229l-30 -168h200l16 91h108l-32 -183h-506zM410 660l-174 134l72 78l144 -167z" />
    <glyph glyph-name="Eacute" unicode="&#xc9;" 
d="M-5 0l16 92h82l75 425h-82l16 92h502l-31 -179h-107l15 87h-197l-29 -165h229l-16 -92h-229l-30 -168h200l16 91h108l-32 -183h-506zM314 660l-35 44l177 167l63 -81z" />
    <glyph glyph-name="Ecircumflex" unicode="&#xca;" 
d="M-5 0l16 92h82l75 425h-82l16 92h502l-31 -179h-107l15 87h-197l-29 -165h229l-16 -92h-229l-30 -168h200l16 91h108l-32 -183h-506zM217 660l-21 33l162 139h74l109 -139l-27 -33l-138 67z" />
    <glyph glyph-name="Edieresis" unicode="&#xcb;" 
d="M-5 0l16 92h82l75 425h-82l16 92h502l-31 -179h-107l15 87h-197l-29 -165h229l-16 -92h-229l-30 -168h200l16 91h108l-32 -183h-506zM272 664q-27 0 -46 19t-19 46t19 46t46 19t46 -19t19 -46t-19 -46t-46 -19zM466 664q-27 0 -46 19t-19 46t19 46t46 19t46 -19t19 -46
t-19 -46t-46 -19z" />
    <glyph glyph-name="Igrave" unicode="&#xcc;" horiz-adv-x="359" 
d="M-5 0l16 92h82l75 425h-82l16 92h280l-16 -92h-82l-75 -425h82l-16 -92h-280zM301 660l-174 134l72 78l144 -167z" />
    <glyph glyph-name="Iacute" unicode="&#xcd;" horiz-adv-x="359" 
d="M-5 0l16 92h82l75 425h-82l16 92h280l-16 -92h-82l-75 -425h82l-16 -92h-280zM209 660l-35 44l177 167l63 -81z" />
    <glyph glyph-name="Icircumflex" unicode="&#xce;" horiz-adv-x="359" 
d="M-5 0l16 92h82l75 425h-82l16 92h280l-16 -92h-82l-75 -425h82l-16 -92h-280zM108 660l-21 33l162 139h74l109 -139l-27 -33l-138 67z" />
    <glyph glyph-name="Idieresis" unicode="&#xcf;" horiz-adv-x="359" 
d="M-5 0l16 92h82l75 425h-82l16 92h280l-16 -92h-82l-75 -425h82l-16 -92h-280zM163 664q-27 0 -46 19t-19 46t19 46t46 19t46 -19t19 -46t-19 -46t-46 -19zM357 664q-27 0 -46 19t-19 46t19 46t46 19t46 -19t19 -46t-19 -46t-46 -19z" />
    <glyph glyph-name="Eth" unicode="&#xd0;" horiz-adv-x="697" 
d="M386 609q141 0 213.5 -68.5t72.5 -194.5q0 -143 -88 -240q-45 -49 -119.5 -77.5t-170.5 -28.5h-298l16 92h82l29 168h-74l16 94h75l29 163h-82l16 92h283zM301 92q125 0 188 70t63 181q0 86 -42 130t-134 44h-91l-29 -163h163l-16 -94h-164l-29 -168h91z" />
    <glyph glyph-name="Ntilde" unicode="&#xd1;" horiz-adv-x="753" 
d="M-5 0l16 92h82l75 425h-82l16 92h195l223 -430l59 338h-82l16 92h274l-16 -92h-82l-91 -517h-103l-230 440l-62 -348h82l-16 -92h-274zM342.5 782.5q29.5 24.5 57.5 24.5t70 -23.5t63.5 -23.5t36 8.5t21.5 17t18 24.5l37 -22q-13 -25 -28.5 -48.5t-45.5 -48.5t-57 -25
t-70.5 23.5t-65.5 23.5q-36 0 -70 -49l-37 21q11 25 26 49t44.5 48.5z" />
    <glyph glyph-name="Ograve" unicode="&#xd2;" horiz-adv-x="711" 
d="M327 -12q-132 0 -209 73.5t-77 203.5q0 150 99.5 253t258.5 103q132 0 210 -74.5t78 -203.5q0 -149 -100 -252t-260 -103zM330 85q101 0 169 71.5t68 182.5q0 88 -45.5 136.5t-125.5 48.5q-101 0 -168 -72.5t-67 -183.5q0 -88 44.5 -135.5t124.5 -47.5zM449 663l-174 134
l72 78l144 -167z" />
    <glyph glyph-name="Oacute" unicode="&#xd3;" horiz-adv-x="711" 
d="M327 -12q-132 0 -209 73.5t-77 203.5q0 150 99.5 253t258.5 103q132 0 210 -74.5t78 -203.5q0 -149 -100 -252t-260 -103zM330 85q101 0 169 71.5t68 182.5q0 88 -45.5 136.5t-125.5 48.5q-101 0 -168 -72.5t-67 -183.5q0 -88 44.5 -135.5t124.5 -47.5zM385 663l-35 44
l177 167l63 -81z" />
    <glyph glyph-name="Ocircumflex" unicode="&#xd4;" horiz-adv-x="711" 
d="M327 -12q-132 0 -209 73.5t-77 203.5q0 150 99.5 253t258.5 103q132 0 210 -74.5t78 -203.5q0 -149 -100 -252t-260 -103zM330 85q101 0 169 71.5t68 182.5q0 88 -45.5 136.5t-125.5 48.5q-101 0 -168 -72.5t-67 -183.5q0 -88 44.5 -135.5t124.5 -47.5zM272 663l-21 33
l162 139h74l109 -139l-27 -33l-138 67z" />
    <glyph glyph-name="Otilde" unicode="&#xd5;" horiz-adv-x="711" 
d="M327 -12q-132 0 -209 73.5t-77 203.5q0 150 99.5 253t258.5 103q132 0 210 -74.5t78 -203.5q0 -149 -100 -252t-260 -103zM330 85q101 0 169 71.5t68 182.5q0 88 -45.5 136.5t-125.5 48.5q-101 0 -168 -72.5t-67 -183.5q0 -88 44.5 -135.5t124.5 -47.5zM312.5 785.5
q29.5 24.5 57.5 24.5t70 -23.5t63.5 -23.5t36 8.5t21.5 17t18 24.5l37 -22q-13 -25 -28.5 -48.5t-45.5 -48.5t-57 -25t-70.5 23.5t-65.5 23.5q-36 0 -70 -49l-37 21q11 25 26 49t44.5 48.5z" />
    <glyph glyph-name="Odieresis" unicode="&#xd6;" horiz-adv-x="711" 
d="M327 -12q-132 0 -209 73.5t-77 203.5q0 150 99.5 253t258.5 103q132 0 210 -74.5t78 -203.5q0 -149 -100 -252t-260 -103zM330 85q101 0 169 71.5t68 182.5q0 88 -45.5 136.5t-125.5 48.5q-101 0 -168 -72.5t-67 -183.5q0 -88 44.5 -135.5t124.5 -47.5zM333 667
q-27 0 -46 19t-19 46t19 46t46 19t46 -19t19 -46t-19 -46t-46 -19zM527 667q-27 0 -46 19t-19 46t19 46t46 19t46 -19t19 -46t-19 -46t-46 -19z" />
    <glyph glyph-name="multiply" unicode="&#xd7;" horiz-adv-x="495" 
d="M62 31l-55 66l173 147l-117 144l73 62l117 -144l174 148l55 -66l-174 -148l122 -147l-73 -62l-122 147z" />
    <glyph glyph-name="Oslash" unicode="&#xd8;" horiz-adv-x="711" 
d="M327 -12q-115 0 -189 57l-69 -70l-33 30l69 70q-64 72 -64 190q0 150 99.5 253t258.5 103q113 0 190 -58l71 72l33 -30l-71 -72q65 -75 65 -190q0 -149 -100 -252t-260 -103zM330 85q101 0 169 71.5t68 182.5q0 68 -27 112l-325 -328q44 -38 115 -38zM396 524
q-101 0 -168 -72.5t-67 -183.5q0 -67 26 -111l324 328q-45 39 -115 39z" />
    <glyph glyph-name="Ugrave" unicode="&#xd9;" horiz-adv-x="689" 
d="M492.5 48.5q-70.5 -60.5 -183.5 -60.5t-177 69q-48 51 -48 132q0 28 6 59l48 269h-82l16 92h280l-16 -92h-82l-52 -290q-3 -18 -3 -34q0 -41 21 -67q31 -35 93 -35t105.5 33.5t54.5 100.5l52 292h-85l16 92h277l-16 -92h-82l-52 -294q-20 -114 -90.5 -174.5zM448 660
l-174 134l72 78l144 -167z" />
    <glyph glyph-name="Uacute" unicode="&#xda;" horiz-adv-x="689" 
d="M492.5 48.5q-70.5 -60.5 -183.5 -60.5t-177 69q-48 51 -48 132q0 28 6 59l48 269h-82l16 92h280l-16 -92h-82l-52 -290q-3 -18 -3 -34q0 -41 21 -67q31 -35 93 -35t105.5 33.5t54.5 100.5l52 292h-85l16 92h277l-16 -92h-82l-52 -294q-20 -114 -90.5 -174.5zM377 660
l-35 44l177 167l63 -81z" />
    <glyph glyph-name="Ucircumflex" unicode="&#xdb;" horiz-adv-x="689" 
d="M492.5 48.5q-70.5 -60.5 -183.5 -60.5t-177 69q-48 51 -48 132q0 28 6 59l48 269h-82l16 92h280l-16 -92h-82l-52 -290q-3 -18 -3 -34q0 -41 21 -67q31 -35 93 -35t105.5 33.5t54.5 100.5l52 292h-85l16 92h277l-16 -92h-82l-52 -294q-20 -114 -90.5 -174.5zM261 660
l-21 33l162 139h74l109 -139l-27 -33l-138 67z" />
    <glyph glyph-name="Udieresis" unicode="&#xdc;" horiz-adv-x="689" 
d="M492.5 48.5q-70.5 -60.5 -183.5 -60.5t-177 69q-48 51 -48 132q0 28 6 59l48 269h-82l16 92h280l-16 -92h-82l-52 -290q-3 -18 -3 -34q0 -41 21 -67q31 -35 93 -35t105.5 33.5t54.5 100.5l52 292h-85l16 92h277l-16 -92h-82l-52 -294q-20 -114 -90.5 -174.5zM324 664
q-27 0 -46 19t-19 46t19 46t46 19t46 -19t19 -46t-19 -46t-46 -19zM518 664q-27 0 -46 19t-19 46t19 46t46 19t46 -19t19 -46t-19 -46t-46 -19z" />
    <glyph glyph-name="Yacute" unicode="&#xdd;" horiz-adv-x="638" 
d="M129 0l16 92h86l21 118l-143 307h-70l16 92h276l-16 -91h-87l92 -204l165 204h-87l16 91h285l-16 -92h-67l-247 -301l-22 -124h86l-16 -92h-288zM347 660l-35 44l177 167l63 -81z" />
    <glyph glyph-name="Thorn" unicode="&#xde;" horiz-adv-x="579" 
d="M338 482q115 0 173 -44t58 -124t-65 -132t-208 -52h-86l-8 -44h95l-15 -86h-286l16 89h75l76 431h-75l15 89h286l-15 -86h-95l-7 -41h66zM306 220q145 0 145 96q0 76 -115 76h-80l-30 -172h80z" />
    <glyph glyph-name="germandbls" unicode="&#xdf;" horiz-adv-x="575" 
d="M-33 -210q-35 0 -68 7l16 87q20 -5 48 -5t45.5 13.5t24.5 52.5l70 396h-81l16 91h81l13 81q16 95 75.5 150t152 55t142 -38.5t49.5 -109.5q0 -38 -15.5 -72.5t-33.5 -55.5q-50 -56 -50 -95q0 -24 19 -56.5t38 -72t19 -82.5q0 -69 -48 -107t-127.5 -38t-130.5 18l15 85
q49 -18 99 -18q78 0 78 60q0 33 -39 101t-39 108t16 70.5t35 50.5q51 52 51 102q0 64 -72 64q-100 0 -122 -129l-97 -552q-28 -161 -180 -161z" />
    <glyph glyph-name="agrave" unicode="&#xe0;" horiz-adv-x="549" 
d="M333 60q-61 -71 -140 -71t-125.5 51.5t-46.5 155t65.5 175.5t154.5 72t132 -65l10 54h113l-56 -312q-1 -7 -1 -14q0 -32 35 -32q22 0 44 8l-14 -83q-38 -10 -71 -10q-88 0 -100 71zM226 74q57 0 94 49.5t37 112.5q0 122 -89 122q-57 0 -94 -49.5t-37 -112.5
q0 -122 89 -122zM333 503l-174 134l72 78l144 -167z" />
    <glyph glyph-name="aacute" unicode="&#xe1;" horiz-adv-x="549" 
d="M333 60q-61 -71 -140 -71t-125.5 51.5t-46.5 155t65.5 175.5t154.5 72t132 -65l10 54h113l-56 -312q-1 -7 -1 -14q0 -32 35 -32q22 0 44 8l-14 -83q-38 -10 -71 -10q-88 0 -100 71zM226 74q57 0 94 49.5t37 112.5q0 122 -89 122q-57 0 -94 -49.5t-37 -112.5
q0 -122 89 -122zM256 503l-35 44l177 167l63 -81z" />
    <glyph glyph-name="acircumflex" unicode="&#xe2;" horiz-adv-x="549" 
d="M333 60q-61 -71 -140 -71t-125.5 51.5t-46.5 155t65.5 175.5t154.5 72t132 -65l10 54h113l-56 -312q-1 -7 -1 -14q0 -32 35 -32q22 0 44 8l-14 -83q-38 -10 -71 -10q-88 0 -100 71zM226 74q57 0 94 49.5t37 112.5q0 122 -89 122q-57 0 -94 -49.5t-37 -112.5
q0 -122 89 -122zM152 498l-21 33l162 139h74l109 -139l-27 -33l-138 67z" />
    <glyph glyph-name="atilde" unicode="&#xe3;" horiz-adv-x="549" 
d="M333 60q-61 -71 -140 -71t-125.5 51.5t-46.5 155t65.5 175.5t154.5 72t132 -65l10 54h113l-56 -312q-1 -7 -1 -14q0 -32 35 -32q22 0 44 8l-14 -83q-38 -10 -71 -10q-88 0 -100 71zM226 74q57 0 94 49.5t37 112.5q0 122 -89 122q-57 0 -94 -49.5t-37 -112.5
q0 -122 89 -122zM199.5 620.5q29.5 24.5 58 24.5t69.5 -23.5t63 -23.5t36.5 8.5t21.5 17t18 24.5l37 -22q-13 -25 -28.5 -48.5t-45.5 -48.5t-57 -25t-70.5 23.5t-65.5 23.5q-36 0 -70 -49l-37 21q11 25 26 49t44.5 48.5z" />
    <glyph glyph-name="adieresis" unicode="&#xe4;" horiz-adv-x="549" 
d="M333 60q-61 -71 -140 -71t-125.5 51.5t-46.5 155t65.5 175.5t154.5 72t132 -65l10 54h113l-56 -312q-1 -7 -1 -14q0 -32 35 -32q22 0 44 8l-14 -83q-38 -10 -71 -10q-88 0 -100 71zM226 74q57 0 94 49.5t37 112.5q0 122 -89 122q-57 0 -94 -49.5t-37 -112.5
q0 -122 89 -122zM210 501q-27 0 -46 19t-19 46t19 46t46 19t46 -19t19 -46t-19 -46t-46 -19zM404 501q-27 0 -46 19t-19 46t19 46t46 19t46 -19t19 -46t-19 -46t-46 -19z" />
    <glyph glyph-name="aring" unicode="&#xe5;" horiz-adv-x="549" 
d="M333 60q-61 -71 -140 -71t-125.5 51.5t-46.5 155t65.5 175.5t154.5 72t132 -65l10 54h113l-56 -312q-1 -7 -1 -14q0 -32 35 -32q22 0 44 8l-14 -83q-38 -10 -71 -10q-88 0 -100 71zM226 74q57 0 94 49.5t37 112.5q0 122 -89 122q-57 0 -94 -49.5t-37 -112.5
q0 -122 89 -122zM409 535q-36 -37 -96.5 -37t-91 27t-30.5 75t36.5 85t97 37t90.5 -27t30 -75t-36 -85zM310 559q23 0 37 18.5t14 42.5q0 40 -35 40q-23 0 -37 -18.5t-14 -42.5q0 -40 35 -40z" />
    <glyph glyph-name="ae" unicode="&#xe6;" horiz-adv-x="697" 
d="M133 -11q-62 0 -99.5 31t-37.5 90q0 73 60 108t161 35h76l6 29q2 13 2 29.5t-15 31t-74.5 14.5t-139.5 -23l15 85q82 24 156 24q111 0 136 -69q62 69 157 69q67 0 100.5 -33.5t33.5 -84.5q0 -142 -275 -149q2 -55 29 -78t78.5 -23t139.5 38l-17 -89q-66 -35 -142 -35
q-112 0 -164 66q-93 -66 -186 -66zM111 117q0 -45 55.5 -45t123.5 42q-9 28 -9 66h-59q-111 0 -111 -63zM569 324q0 37 -44 37t-75.5 -29t-45.5 -78q165 6 165 70z" />
    <glyph glyph-name="ccedilla" unicode="&#xe7;" horiz-adv-x="414" 
d="M248 -184.5q-40 -23.5 -98 -23.5t-96 15l19 60q35 -13 68 -13q48 0 48 27q0 35 -68 35l6 21l39 58q-69 14 -107 63t-38 129q0 108 66.5 182t187.5 74q75 0 134 -23l-16 -83q-52 21 -105 21q-74 0 -112 -47t-38 -117q0 -120 116 -120q58 0 110 20l-16 -88
q-54 -16 -117 -17l-16 -31q73 -13 73 -74q0 -45 -40 -68.5z" />
    <glyph glyph-name="egrave" unicode="&#xe8;" horiz-adv-x="437" 
d="M364 23q-64 -34 -147.5 -34t-140 48.5t-56.5 153.5t71 178.5t177 73.5q70 0 106.5 -33t36.5 -86q0 -147 -279 -162q11 -87 106 -87q56 0 143 38zM308 322q0 39 -45 39t-78 -32.5t-47 -84.5q170 8 170 78zM307 503l-174 134l72 78l144 -167z" />
    <glyph glyph-name="eacute" unicode="&#xe9;" horiz-adv-x="437" 
d="M364 23q-64 -34 -147.5 -34t-140 48.5t-56.5 153.5t71 178.5t177 73.5q70 0 106.5 -33t36.5 -86q0 -147 -279 -162q11 -87 106 -87q56 0 143 38zM308 322q0 39 -45 39t-78 -32.5t-47 -84.5q170 8 170 78zM233 503l-35 44l177 167l63 -81z" />
    <glyph glyph-name="ecircumflex" unicode="&#xea;" horiz-adv-x="437" 
d="M364 23q-64 -34 -147.5 -34t-140 48.5t-56.5 153.5t71 178.5t177 73.5q70 0 106.5 -33t36.5 -86q0 -147 -279 -162q11 -87 106 -87q56 0 143 38zM308 322q0 39 -45 39t-78 -32.5t-47 -84.5q170 8 170 78zM119 498l-21 33l162 139h74l109 -139l-27 -33l-138 67z" />
    <glyph glyph-name="edieresis" unicode="&#xeb;" horiz-adv-x="437" 
d="M364 23q-64 -34 -147.5 -34t-140 48.5t-56.5 153.5t71 178.5t177 73.5q70 0 106.5 -33t36.5 -86q0 -147 -279 -162q11 -87 106 -87q56 0 143 38zM308 322q0 39 -45 39t-78 -32.5t-47 -84.5q170 8 170 78zM179 501q-27 0 -46 19t-19 46t19 46t46 19t46 -19t19 -46t-19 -46
t-46 -19zM373 501q-27 0 -46 19t-19 46t19 46t46 19t46 -19t19 -46t-19 -46t-46 -19z" />
    <glyph glyph-name="igrave" unicode="&#xec;" horiz-adv-x="279" 
d="M161 -11q-70 0 -93 38q-15 26 -15 53t3 45l39 218h-72l16 89h185l-56 -312q-1 -8 -1 -14q0 -32 34 -32q23 0 45 8l-14 -83q-38 -10 -71 -10zM210 503l-174 134l72 78l144 -167z" />
    <glyph glyph-name="iacute" unicode="&#xed;" horiz-adv-x="279" 
d="M161 -11q-70 0 -93 38q-15 26 -15 53t3 45l39 218h-72l16 89h185l-56 -312q-1 -8 -1 -14q0 -32 34 -32q23 0 45 8l-14 -83q-38 -10 -71 -10zM106 503l-35 44l177 167l63 -81z" />
    <glyph glyph-name="icircumflex" unicode="&#xee;" horiz-adv-x="279" 
d="M161 -11q-70 0 -93 38q-15 26 -15 53t3 45l39 218h-72l16 89h185l-56 -312q-1 -8 -1 -14q0 -32 34 -32q23 0 45 8l-14 -83q-38 -10 -71 -10zM-1 498l-21 33l162 139h74l109 -139l-27 -33l-138 67z" />
    <glyph glyph-name="idieresis" unicode="&#xef;" horiz-adv-x="279" 
d="M161 -11q-70 0 -93 38q-15 26 -15 53t3 45l39 218h-72l16 89h185l-56 -312q-1 -8 -1 -14q0 -32 34 -32q23 0 45 8l-14 -83q-38 -10 -71 -10zM66 501q-27 0 -46 19t-19 46t19 46t46 19t46 -19t19 -46t-19 -46t-46 -19zM260 501q-27 0 -46 19t-19 46t19 46t46 19t46 -19
t19 -46t-19 -46t-46 -19z" />
    <glyph glyph-name="eth" unicode="&#xf0;" horiz-adv-x="529" 
d="M224 -11q-95 0 -149.5 51.5t-54.5 148.5t68.5 165.5t158 68.5t137.5 -52q-9 108 -78 195l-123 -75l-21 41l113 69q-36 36 -78 63l67 65q58 -32 100 -73l102 62l22 -40l-92 -56q104 -126 104 -299q0 -150 -74 -242t-202 -92zM231 74q61 0 100 47.5t39 104.5q0 115 -94 115
q-62 0 -100 -47t-38 -105q0 -115 93 -115z" />
    <glyph glyph-name="ntilde" unicode="&#xf1;" horiz-adv-x="563" 
d="M375 443q60 0 93 -39q23 -29 23 -72q0 -16 -3 -34l-32 -178q-1 -7 -1 -14q0 -32 35 -32q22 0 44 8l-14 -83q-38 -10 -72 -10q-69 0 -91 39q-15 26 -15 52.5t3 44.5l30 165q2 11 2 21q0 43 -42 43q-54 0 -132 -74l-50 -280h-113l61 343h-70l16 89h178l-11 -61
q84 72 161 72zM208.5 620.5q29.5 24.5 57.5 24.5t70 -23.5t63.5 -23.5t36 8.5t21.5 17t18 24.5l37 -22q-13 -25 -28.5 -48.5t-45.5 -48.5t-57 -25t-70.5 23.5t-65.5 23.5q-36 0 -70 -49l-37 21q11 25 26 49t44.5 48.5z" />
    <glyph glyph-name="ograve" unicode="&#xf2;" horiz-adv-x="507" 
d="M222 -11q-93 0 -147.5 50.5t-54.5 151.5t66.5 176.5t184.5 75.5q93 0 147.5 -50.5t54.5 -151.5t-66.5 -176.5t-184.5 -75.5zM225 74q61 0 95.5 52.5t34.5 121.5q0 110 -87 110q-61 0 -95.5 -52.5t-34.5 -121.5q0 -110 87 -110zM334 503l-174 134l72 78l144 -167z" />
    <glyph glyph-name="oacute" unicode="&#xf3;" horiz-adv-x="507" 
d="M222 -11q-93 0 -147.5 50.5t-54.5 151.5t66.5 176.5t184.5 75.5q93 0 147.5 -50.5t54.5 -151.5t-66.5 -176.5t-184.5 -75.5zM225 74q61 0 95.5 52.5t34.5 121.5q0 110 -87 110q-61 0 -95.5 -52.5t-34.5 -121.5q0 -110 87 -110zM258 503l-35 44l177 167l63 -81z" />
    <glyph glyph-name="ocircumflex" unicode="&#xf4;" horiz-adv-x="507" 
d="M222 -11q-93 0 -147.5 50.5t-54.5 151.5t66.5 176.5t184.5 75.5q93 0 147.5 -50.5t54.5 -151.5t-66.5 -176.5t-184.5 -75.5zM225 74q61 0 95.5 52.5t34.5 121.5q0 110 -87 110q-61 0 -95.5 -52.5t-34.5 -121.5q0 -110 87 -110zM140 498l-21 33l162 139h74l109 -139
l-27 -33l-138 67z" />
    <glyph glyph-name="otilde" unicode="&#xf5;" horiz-adv-x="507" 
d="M222 -11q-93 0 -147.5 50.5t-54.5 151.5t66.5 176.5t184.5 75.5q93 0 147.5 -50.5t54.5 -151.5t-66.5 -176.5t-184.5 -75.5zM225 74q61 0 95.5 52.5t34.5 121.5q0 110 -87 110q-61 0 -95.5 -52.5t-34.5 -121.5q0 -110 87 -110zM188.5 620.5q29.5 24.5 57.5 24.5t70 -23.5
t63.5 -23.5t36 8.5t21.5 17t18 24.5l37 -22q-13 -25 -28.5 -48.5t-45.5 -48.5t-57 -25t-70.5 23.5t-65.5 23.5q-36 0 -70 -49l-37 21q11 25 26 49t44.5 48.5z" />
    <glyph glyph-name="odieresis" unicode="&#xf6;" horiz-adv-x="507" 
d="M222 -11q-93 0 -147.5 50.5t-54.5 151.5t66.5 176.5t184.5 75.5q93 0 147.5 -50.5t54.5 -151.5t-66.5 -176.5t-184.5 -75.5zM225 74q61 0 95.5 52.5t34.5 121.5q0 110 -87 110q-61 0 -95.5 -52.5t-34.5 -121.5q0 -110 87 -110zM209 501q-27 0 -46 19t-19 46t19 46t46 19
t46 -19t19 -46t-19 -46t-46 -19zM403 501q-27 0 -46 19t-19 46t19 46t46 19t46 -19t19 -46t-19 -46t-46 -19z" />
    <glyph glyph-name="divide" unicode="&#xf7;" horiz-adv-x="496" 
d="M26 204l14 80h426l-14 -80h-426zM217 15q-28 0 -47.5 19.5t-19.5 47.5t19.5 47.5t47.5 19.5t47.5 -19.5t19.5 -47.5t-19.5 -47.5t-47.5 -19.5zM274 339q-28 0 -47.5 19.5t-19.5 47.5t19.5 47.5t47.5 19.5t47.5 -19.5t19.5 -47.5t-19.5 -47.5t-47.5 -19.5z" />
    <glyph glyph-name="oslash" unicode="&#xf8;" horiz-adv-x="505" 
d="M221 -11q-86 0 -136 40l-61 -58l-26 26l61 58q-40 49 -40 130q0 107 66.5 182.5t184.5 75.5q91 0 144 -47l54 52l26 -26l-56 -54q34 -48 34 -121q0 -107 -66.5 -182.5t-184.5 -75.5zM224 74q61 0 95.5 52.5t34.5 121.5q0 20 -3 36l-191 -183q22 -27 64 -27zM267 358
q-61 0 -95.5 -52.5t-34.5 -121.5q0 -27 6 -48l194 186q-23 36 -70 36z" />
    <glyph glyph-name="ugrave" unicode="&#xf9;" horiz-adv-x="556" 
d="M169 -11q-60 0 -93 39q-23 29 -23 72q0 16 3 34l38 209h-70l16 89h182l-53 -290q-2 -11 -2 -21q0 -43 42 -43q54 0 131 73l51 281h113l-57 -318q-1 -7 -1 -14q0 -32 35 -32q22 0 44 8l-13 -77q-38 -10 -72 -10q-92 0 -106 76q-84 -76 -165 -76zM343 503l-174 134l72 78
l144 -167z" />
    <glyph glyph-name="uacute" unicode="&#xfa;" horiz-adv-x="556" 
d="M169 -11q-60 0 -93 39q-23 29 -23 72q0 16 3 34l38 209h-70l16 89h182l-53 -290q-2 -11 -2 -21q0 -43 42 -43q54 0 131 73l51 281h113l-57 -318q-1 -7 -1 -14q0 -32 35 -32q22 0 44 8l-13 -77q-38 -10 -72 -10q-92 0 -106 76q-84 -76 -165 -76zM272 503l-35 44l177 167
l63 -81z" />
    <glyph glyph-name="ucircumflex" unicode="&#xfb;" horiz-adv-x="556" 
d="M169 -11q-60 0 -93 39q-23 29 -23 72q0 16 3 34l38 209h-70l16 89h182l-53 -290q-2 -11 -2 -21q0 -43 42 -43q54 0 131 73l51 281h113l-57 -318q-1 -7 -1 -14q0 -32 35 -32q22 0 44 8l-13 -77q-38 -10 -72 -10q-92 0 -106 76q-84 -76 -165 -76zM163 498l-21 33l162 139
h74l109 -139l-27 -33l-138 67z" />
    <glyph glyph-name="udieresis" unicode="&#xfc;" horiz-adv-x="556" 
d="M169 -11q-60 0 -93 39q-23 29 -23 72q0 16 3 34l38 209h-70l16 89h182l-53 -290q-2 -11 -2 -21q0 -43 42 -43q54 0 131 73l51 281h113l-57 -318q-1 -7 -1 -14q0 -32 35 -32q22 0 44 8l-13 -77q-38 -10 -72 -10q-92 0 -106 76q-84 -76 -165 -76zM226 501q-27 0 -46 19
t-19 46t19 46t46 19t46 -19t19 -46t-19 -46t-46 -19zM420 501q-27 0 -46 19t-19 46t19 46t46 19t46 -19t19 -46t-19 -46t-46 -19z" />
    <glyph glyph-name="yacute" unicode="&#xfd;" horiz-adv-x="500" 
d="M371 318q0 33 -24.5 33t-56.5 -21l-33 65q58 48 126 48q97 0 97 -105q0 -64 -40.5 -158t-103 -180.5t-147.5 -148t-163.5 -61.5t-136.5 63l49 62q42 -35 84 -35q77 0 183 120h-80l-48 345h-65l16 87h150l51 -403q60 75 101 158t41 131zM236 503l-35 44l177 167l63 -81z
" />
    <glyph glyph-name="thorn" unicode="&#xfe;" horiz-adv-x="525" 
d="M424.5 61q-65.5 -72 -154.5 -72t-132 64l-45 -252h-113l144 817h-62l16 89h175l-57 -316q59 52 130 52t117.5 -51.5t46.5 -155t-65.5 -175.5zM243 74q57 0 94 49.5t37 112.5q0 122 -89 122q-57 0 -94 -49.5t-37 -112.5q0 -122 89 -122z" />
    <glyph glyph-name="ydieresis" unicode="&#xff;" horiz-adv-x="500" 
d="M371 318q0 33 -24.5 33t-56.5 -21l-33 65q58 48 126 48q97 0 97 -105q0 -64 -40.5 -158t-103 -180.5t-147.5 -148t-163.5 -61.5t-136.5 63l49 62q42 -35 84 -35q77 0 183 120h-80l-48 345h-65l16 87h150l51 -403q60 75 101 158t41 131zM373 501q-27 0 -46 19t-19 46
t19 46t46 19t46 -19t19 -46t-19 -46t-46 -19zM179 501q-27 0 -46 19t-19 46t19 46t46 19t46 -19t19 -46t-19 -46t-46 -19z" />
    <glyph glyph-name="Amacron" unicode="&#x100;" horiz-adv-x="688" 
d="M-43 0l16 92h72l247 425h-83l16 92h252l118 -517h73l-16 -92h-268l16 92h80l-18 83h-249l-47 -83h80l-16 -92h-273zM265 267h178l-48 230zM260 670l15 84h284l-15 -84h-284z" />
    <glyph glyph-name="amacron" unicode="&#x101;" horiz-adv-x="549" 
d="M333 60q-61 -71 -140 -71t-125.5 51.5t-46.5 155t65.5 175.5t154.5 72t132 -65l10 54h113l-56 -312q-1 -7 -1 -14q0 -32 35 -32q22 0 44 8l-14 -83q-38 -10 -71 -10q-88 0 -100 71zM226 74q57 0 94 49.5t37 112.5q0 122 -89 122q-57 0 -94 -49.5t-37 -112.5
q0 -122 89 -122zM154 517l15 84h284l-15 -84h-284z" />
    <glyph glyph-name="Abreve" unicode="&#x102;" horiz-adv-x="688" 
d="M-43 0l16 92h72l247 425h-83l16 92h252l118 -517h73l-16 -92h-268l16 92h80l-18 83h-249l-47 -83h80l-16 -92h-273zM265 267h178l-48 230zM519.5 703q-46.5 -43 -120 -43t-107.5 44q-27 36 -27 85q0 13 2 27h81v-8q0 -29 13.5 -45t48.5 -16q67 0 90 69h81
q-15 -70 -61.5 -113z" />
    <glyph glyph-name="abreve" unicode="&#x103;" horiz-adv-x="549" 
d="M333 60q-61 -71 -140 -71t-125.5 51.5t-46.5 155t65.5 175.5t154.5 72t132 -65l10 54h113l-56 -312q-1 -7 -1 -14q0 -32 35 -32q22 0 44 8l-14 -83q-38 -10 -71 -10q-88 0 -100 71zM226 74q57 0 94 49.5t37 112.5q0 122 -89 122q-57 0 -94 -49.5t-37 -112.5
q0 -122 89 -122zM422.5 549q-46.5 -43 -120 -43t-107.5 44q-27 36 -27 85q0 13 2 27h81v-8q0 -29 13.5 -45t48.5 -16q67 0 90 69h81q-15 -70 -61.5 -113z" />
    <glyph glyph-name="Aogonek" unicode="&#x104;" horiz-adv-x="688" 
d="M526 -208q-96 0 -96 79q0 74 91 129h-137l16 92h80l-18 83h-249l-47 -83h80l-16 -92h-273l16 92h72l247 425h-83l16 92h252l118 -517h73l-16 -92h-48q-75 -53 -75 -105q0 -33 34 -33t66 14l-5 -65q-48 -19 -98 -19zM265 267h178l-48 230z" />
    <glyph glyph-name="aogonek" unicode="&#x105;" horiz-adv-x="549" 
d="M381 -208q-96 0 -96 79q0 72 91 129q-36 15 -43 60q-61 -71 -140 -71t-125.5 51.5t-46.5 155t65.5 175.5t154.5 72t132 -65l10 54h113l-56 -312q-1 -7 -1 -14q0 -32 35 -32q22 0 44 8l-14 -83q-36 -9 -59 -10q-61 -50 -61 -94q0 -33 34 -33t66 14l-5 -65q-47 -19 -98 -19
zM226 74q57 0 94 49.5t37 112.5q0 122 -89 122q-57 0 -94 -49.5t-37 -112.5q0 -122 89 -122z" />
    <glyph glyph-name="Cacute" unicode="&#x106;" horiz-adv-x="619" 
d="M551 41q-97 -53 -224 -53t-207 73t-80 205q0 150 101 252.5t263 102.5q114 0 229 -53l-27 -171h-108l20 112q-56 18 -114 18q-111 0 -178 -75t-67 -174.5t50.5 -146t133.5 -46.5q113 0 226 67zM377 663l-35 44l177 167l63 -81z" />
    <glyph glyph-name="cacute" unicode="&#x107;" horiz-adv-x="414" 
d="M227 -11q-97 0 -151.5 51t-54.5 153t66.5 176t187.5 74q75 0 134 -23l-16 -83q-52 21 -105 21q-74 0 -112 -47t-38 -117q0 -120 116 -120q58 0 110 20l-16 -88q-55 -17 -121 -17zM242 503l-35 44l177 167l63 -81z" />
    <glyph glyph-name="Ccircumflex" unicode="&#x108;" horiz-adv-x="619" 
d="M551 41q-97 -53 -224 -53t-207 73t-80 205q0 150 101 252.5t263 102.5q114 0 229 -53l-27 -171h-108l20 112q-56 18 -114 18q-111 0 -178 -75t-67 -174.5t50.5 -146t133.5 -46.5q113 0 226 67zM274 663l-21 33l162 139h74l109 -139l-27 -33l-138 67z" />
    <glyph glyph-name="ccircumflex" unicode="&#x109;" horiz-adv-x="414" 
d="M227 -11q-97 0 -151.5 51t-54.5 153t66.5 176t187.5 74q75 0 134 -23l-16 -83q-52 21 -105 21q-74 0 -112 -47t-38 -117q0 -120 116 -120q58 0 110 20l-16 -88q-55 -17 -121 -17zM132 498l-21 33l162 139h74l109 -139l-27 -33l-138 67z" />
    <glyph glyph-name="Cdotaccent" unicode="&#x10a;" horiz-adv-x="619" 
d="M551 41q-97 -53 -224 -53t-207 73t-80 205q0 150 101 252.5t263 102.5q114 0 229 -53l-27 -171h-108l20 112q-56 18 -114 18q-111 0 -178 -75t-67 -174.5t50.5 -146t133.5 -46.5q113 0 226 67zM488.5 687.5q-20.5 -20.5 -50 -20.5t-50 20.5t-20.5 49.5t20.5 49.5
t49.5 20.5t50 -20.5t21 -49.5t-20.5 -49.5z" />
    <glyph glyph-name="cdotaccent" unicode="&#x10b;" horiz-adv-x="414" 
d="M227 -11q-97 0 -151.5 51t-54.5 153t66.5 176t187.5 74q75 0 134 -23l-16 -83q-52 21 -105 21q-74 0 -112 -47t-38 -117q0 -120 116 -120q58 0 110 20l-16 -88q-55 -17 -121 -17zM356.5 521.5q-20.5 -20.5 -50 -20.5t-50 20.5t-20.5 49.5t20.5 49.5t49.5 20.5t50 -20.5
t21 -49.5t-20.5 -49.5z" />
    <glyph glyph-name="Ccaron" unicode="&#x10c;" horiz-adv-x="619" 
d="M551 41q-97 -53 -224 -53t-207 73t-80 205q0 150 101 252.5t263 102.5q114 0 229 -53l-27 -171h-108l20 112q-56 18 -114 18q-111 0 -178 -75t-67 -174.5t50.5 -146t133.5 -46.5q113 0 226 67zM389 663l-108 139l27 33l137 -67l160 67l21 -33l-163 -139h-74z" />
    <glyph glyph-name="ccaron" unicode="&#x10d;" horiz-adv-x="414" 
d="M227 -11q-97 0 -151.5 51t-54.5 153t66.5 176t187.5 74q75 0 134 -23l-16 -83q-52 21 -105 21q-74 0 -112 -47t-38 -117q0 -120 116 -120q58 0 110 20l-16 -88q-55 -17 -121 -17zM241 504l-108 139l27 33l137 -67l160 67l21 -33l-163 -139h-74z" />
    <glyph glyph-name="Dcaron" unicode="&#x10e;" horiz-adv-x="696" 
d="M385 609q141 0 213.5 -68.5t72.5 -194.5q0 -143 -89 -240q-44 -49 -118.5 -77.5t-170.5 -28.5h-298l16 92h82l75 425h-82l16 92h283zM300 92q125 0 188 70t63 181q0 86 -42 130t-134 44h-91l-75 -425h91zM344 660l-108 139l27 33l137 -67l160 67l21 -33l-163 -139h-74z
" />
    <glyph glyph-name="dcaron" unicode="&#x10f;" horiz-adv-x="549" 
d="M586 694q37 22 70 22t48 -18t15 -45q0 -81 -133 -173l-41 37q22 22 32 32.5t23 34t13 52.5t-28 52zM333 60q-61 -71 -140 -71t-125.5 51.5t-46.5 155t65.5 175.5t154 72t131.5 -64l43 239h-83l16 89h196l-104 -587q-1 -7 -1 -14q0 -32 35 -32q22 0 44 8l-14 -83
q-38 -10 -72 -10q-87 0 -99 71zM226 74q57 0 94 49.5t37 112.5q0 122 -89 122q-57 0 -94 -49.5t-37 -112.5q0 -122 89 -122z" />
    <glyph glyph-name="Dcroat" unicode="&#x110;" horiz-adv-x="697" 
d="M386 609q141 0 213.5 -68.5t72.5 -194.5q0 -143 -88 -240q-45 -49 -119.5 -77.5t-170.5 -28.5h-298l16 92h82l29 168h-74l16 94h75l29 163h-82l16 92h283zM301 92q125 0 188 70t63 181q0 86 -42 130t-134 44h-91l-29 -163h163l-16 -94h-164l-29 -168h91z" />
    <glyph glyph-name="dcroat" unicode="&#x111;" horiz-adv-x="549" 
d="M439 106q0 -32 35 -32q22 0 44 8l-14 -83q-38 -10 -72 -10q-87 0 -99 71q-61 -71 -140 -71t-125.5 51.5t-46.5 155t65.5 175.5t154 72t131.5 -64l21 119h-141l13 73h141l9 47h-83l16 89h196l-24 -136h59l-13 -73h-59l-67 -378q-1 -7 -1 -14zM226 74q57 0 94 49.5
t37 112.5q0 122 -89 122q-57 0 -94 -49.5t-37 -112.5q0 -122 89 -122z" />
    <glyph glyph-name="Emacron" unicode="&#x112;" 
d="M-5 0l16 92h82l75 425h-82l16 92h502l-31 -179h-107l15 87h-197l-29 -165h229l-16 -92h-229l-30 -168h200l16 91h108l-32 -183h-506zM219 670l15 84h284l-15 -84h-284z" />
    <glyph glyph-name="emacron" unicode="&#x113;" horiz-adv-x="437" 
d="M364 23q-64 -34 -147.5 -34t-140 48.5t-56.5 153.5t71 178.5t177 73.5q70 0 106.5 -33t36.5 -86q0 -147 -279 -162q11 -87 106 -87q56 0 143 38zM308 322q0 39 -45 39t-78 -32.5t-47 -84.5q170 8 170 78zM127 517l15 84h284l-15 -84h-284z" />
    <glyph glyph-name="Ebreve" unicode="&#x114;" 
d="M-5 0l16 92h82l75 425h-82l16 92h502l-31 -179h-107l15 87h-197l-29 -165h229l-16 -92h-229l-30 -168h200l16 91h108l-32 -183h-506zM480.5 703q-46.5 -43 -120 -43t-107.5 44q-27 36 -27 85q0 13 2 27h81v-8q0 -29 13.5 -45t48.5 -16q67 0 90 69h81q-15 -70 -61.5 -113z
" />
    <glyph glyph-name="ebreve" unicode="&#x115;" horiz-adv-x="437" 
d="M364 23q-64 -34 -147.5 -34t-140 48.5t-56.5 153.5t71 178.5t177 73.5q70 0 106.5 -33t36.5 -86q0 -147 -279 -162q11 -87 106 -87q56 0 143 38zM308 322q0 39 -45 39t-78 -32.5t-47 -84.5q170 8 170 78zM392.5 549q-46.5 -43 -120 -43t-107.5 44q-27 36 -27 85
q0 13 2 27h81v-8q0 -29 13.5 -45t48.5 -16q67 0 90 69h81q-15 -70 -61.5 -113z" />
    <glyph glyph-name="Edotaccent" unicode="&#x116;" 
d="M-5 0l16 92h82l75 425h-82l16 92h502l-31 -179h-107l15 87h-197l-29 -165h229l-16 -92h-229l-30 -168h200l16 91h108l-32 -183h-506zM419.5 684.5q-20.5 -20.5 -50 -20.5t-50 20.5t-20.5 49.5t20.5 49.5t49.5 20.5t50 -20.5t21 -49.5t-20.5 -49.5z" />
    <glyph glyph-name="edotaccent" unicode="&#x117;" horiz-adv-x="437" 
d="M364 23q-64 -34 -147.5 -34t-140 48.5t-56.5 153.5t71 178.5t177 73.5q70 0 106.5 -33t36.5 -86q0 -147 -279 -162q11 -87 106 -87q56 0 143 38zM308 322q0 39 -45 39t-78 -32.5t-47 -84.5q170 8 170 78zM334.5 521.5q-20.5 -20.5 -50 -20.5t-50 20.5t-20.5 49.5
t20.5 49.5t49.5 20.5t50 -20.5t21 -49.5t-20.5 -49.5z" />
    <glyph glyph-name="Eogonek" unicode="&#x118;" 
d="M375 -105q0 -33 34 -33t66 14l-5 -65q-48 -19 -98 -19q-96 0 -96 79q0 74 91 129h-372l16 92h82l75 425h-82l16 92h502l-31 -179h-107l15 87h-197l-29 -165h229l-16 -92h-229l-30 -168h200l16 91h108l-32 -183h-51q-75 -53 -75 -105z" />
    <glyph glyph-name="eogonek" unicode="&#x119;" horiz-adv-x="437" 
d="M334 -189q-47 -19 -94 -19t-73.5 20t-26.5 60q0 66 74 117q-87 2 -140.5 51t-53.5 152.5t71 177t177 73.5q70 0 106.5 -33t36.5 -86q0 -147 -279 -162q11 -87 106 -87q56 0 143 38l-17 -90q-125 -66 -125 -128q0 -33 34 -33t66 14zM308 322q0 39 -45 39t-78 -32.5
t-47 -84.5q170 8 170 78z" />
    <glyph glyph-name="Ecaron" unicode="&#x11a;" 
d="M-5 0l16 92h82l75 425h-82l16 92h502l-31 -179h-107l15 87h-197l-29 -165h229l-16 -92h-229l-30 -168h200l16 91h108l-32 -183h-506zM322 660l-108 139l27 33l137 -67l160 67l21 -33l-163 -139h-74z" />
    <glyph glyph-name="ecaron" unicode="&#x11b;" horiz-adv-x="437" 
d="M364 23q-64 -34 -147.5 -34t-140 48.5t-56.5 153.5t71 178.5t177 73.5q70 0 106.5 -33t36.5 -86q0 -147 -279 -162q11 -87 106 -87q56 0 143 38zM308 322q0 39 -45 39t-78 -32.5t-47 -84.5q170 8 170 78zM227 504l-108 139l27 33l137 -67l160 67l21 -33l-163 -139h-74z
" />
    <glyph glyph-name="Gcircumflex" unicode="&#x11c;" horiz-adv-x="696" 
d="M352 -12q-143 0 -227 74t-84 207q0 155 107 253.5t270 98.5q134 0 252 -56l-27 -157h-109l16 96q-64 20 -126 20q-114 0 -189.5 -69t-75.5 -180q0 -89 52 -139t155 -50q66 0 123 19l24 138h-127l16 90h285l-16 -90h-50l-35 -207q-40 -19 -104 -33.5t-130 -14.5zM277 663
l-21 33l162 139h74l109 -139l-27 -33l-138 67z" />
    <glyph glyph-name="gcircumflex" unicode="&#x11d;" horiz-adv-x="466" 
d="M-21.5 -177.5q-49.5 32.5 -49.5 81.5q0 82 131 141q-5 10 -5 26q0 38 40 74q-56 38 -56 112.5t55 130t146 55.5q36 0 71 -11h176l-16 -88l-70 5q9 -24 9 -51q0 -74 -55 -129.5t-146 -55.5q-24 0 -52 5q-5 -8 -5 -14.5t7 -13.5t20 -13.5t26 -11.5t31.5 -11.5t29.5 -11.5
q100 -42 100 -119q0 -47 -40 -85q-50 -48 -174 -48t-173.5 32.5zM241 365q-46 0 -72 -32t-26 -75q0 -67 65 -67q46 0 72 32t26 75q0 67 -65 67zM147 -127q40 0 66 7q43 13 43 36q0 15 -21.5 28t-64.5 30t-59 25q-73 -41 -73 -78q0 -48 109 -48zM119 498l-21 33l162 139h74
l109 -139l-27 -33l-138 67z" />
    <glyph glyph-name="Gbreve" unicode="&#x11e;" horiz-adv-x="696" 
d="M352 -12q-143 0 -227 74t-84 207q0 155 107 253.5t270 98.5q134 0 252 -56l-27 -157h-109l16 96q-64 20 -126 20q-114 0 -189.5 -69t-75.5 -180q0 -89 52 -139t155 -50q66 0 123 19l24 138h-127l16 90h285l-16 -90h-50l-35 -207q-40 -19 -104 -33.5t-130 -14.5z
M547.5 706q-46.5 -43 -120 -43t-107.5 45q-27 35 -27 84q0 13 2 27h81v-8q0 -29 13.5 -45t48.5 -16q67 0 90 69h81q-15 -70 -61.5 -113z" />
    <glyph glyph-name="gbreve" unicode="&#x11f;" horiz-adv-x="466" 
d="M-21.5 -177.5q-49.5 32.5 -49.5 81.5q0 82 131 141q-5 10 -5 26q0 38 40 74q-56 38 -56 112.5t55 130t146 55.5q36 0 71 -11h176l-16 -88l-70 5q9 -24 9 -51q0 -74 -55 -129.5t-146 -55.5q-24 0 -52 5q-5 -8 -5 -14.5t7 -13.5t20 -13.5t26 -11.5t31.5 -11.5t29.5 -11.5
q100 -42 100 -119q0 -47 -40 -85q-50 -48 -174 -48t-173.5 32.5zM241 365q-46 0 -72 -32t-26 -75q0 -67 65 -67q46 0 72 32t26 75q0 67 -65 67zM147 -127q40 0 66 7q43 13 43 36q0 15 -21.5 28t-64.5 30t-59 25q-73 -41 -73 -78q0 -48 109 -48zM388.5 549
q-46.5 -43 -120 -43t-107.5 44q-27 36 -27 85q0 13 2 27h81v-8q0 -29 13.5 -45t48.5 -16q67 0 90 69h81q-15 -70 -61.5 -113z" />
    <glyph glyph-name="Gdotaccent" unicode="&#x120;" horiz-adv-x="696" 
d="M352 -12q-143 0 -227 74t-84 207q0 155 107 253.5t270 98.5q134 0 252 -56l-27 -157h-109l16 96q-64 20 -126 20q-114 0 -189.5 -69t-75.5 -180q0 -89 52 -139t155 -50q66 0 123 19l24 138h-127l16 90h285l-16 -90h-50l-35 -207q-40 -19 -104 -33.5t-130 -14.5z
M481.5 687.5q-20.5 -20.5 -50 -20.5t-50 20.5t-20.5 49.5t20.5 49.5t49.5 20.5t50 -20.5t21 -49.5t-20.5 -49.5z" />
    <glyph glyph-name="gdotaccent" unicode="&#x121;" horiz-adv-x="466" 
d="M-21.5 -177.5q-49.5 32.5 -49.5 81.5q0 82 131 141q-5 10 -5 26q0 38 40 74q-56 38 -56 112.5t55 130t146 55.5q36 0 71 -11h176l-16 -88l-70 5q9 -24 9 -51q0 -74 -55 -129.5t-146 -55.5q-24 0 -52 5q-5 -8 -5 -14.5t7 -13.5t20 -13.5t26 -11.5t31.5 -11.5t29.5 -11.5
q100 -42 100 -119q0 -47 -40 -85q-50 -48 -174 -48t-173.5 32.5zM241 365q-46 0 -72 -32t-26 -75q0 -67 65 -67q46 0 72 32t26 75q0 67 -65 67zM147 -127q40 0 66 7q43 13 43 36q0 15 -21.5 28t-64.5 30t-59 25q-73 -41 -73 -78q0 -48 109 -48zM325.5 521.5
q-20.5 -20.5 -50 -20.5t-50 20.5t-20.5 49.5t20.5 49.5t49.5 20.5t50 -20.5t21 -49.5t-20.5 -49.5z" />
    <glyph glyph-name="Gcommaaccent" unicode="&#x122;" horiz-adv-x="696" 
d="M232 -85q37 22 70 22t48 -18t15 -45q0 -81 -133 -173l-41 37q22 22 32 32.5t23 34t13 52.5t-28 52zM352 -12q-143 0 -227 74t-84 207q0 155 107 253.5t270 98.5q134 0 252 -56l-27 -157h-109l16 96q-64 20 -126 20q-114 0 -189.5 -69t-75.5 -180q0 -89 52 -139t155 -50
q66 0 123 19l24 138h-127l16 90h285l-16 -90h-50l-35 -207q-40 -19 -104 -33.5t-130 -14.5z" />
    <glyph glyph-name="gcommaaccent" unicode="&#x123;" horiz-adv-x="466" 
d="M347 524q-37 -22 -70 -22t-48 18t-15 45q0 81 133 173l41 -37q-22 -22 -32 -32.5t-23 -34t-13 -52.5t28 -52zM-21.5 -177.5q-49.5 32.5 -49.5 81.5q0 82 131 141q-5 10 -5 26q0 38 40 74q-56 38 -56 112.5t55 130t146 55.5q36 0 71 -11h176l-16 -88l-70 5q9 -24 9 -51
q0 -74 -55 -129.5t-146 -55.5q-24 0 -52 5q-5 -8 -5 -14.5t7 -13.5t20 -13.5t26 -11.5t31.5 -11.5t29.5 -11.5q100 -42 100 -119q0 -47 -40 -85q-50 -48 -174 -48t-173.5 32.5zM241 365q-46 0 -72 -32t-26 -75q0 -67 65 -67q46 0 72 32t26 75q0 67 -65 67zM147 -127
q40 0 66 7q43 13 43 36q0 15 -21.5 28t-64.5 30t-59 25q-73 -41 -73 -78q0 -48 109 -48z" />
    <glyph glyph-name="Hcircumflex" unicode="&#x124;" horiz-adv-x="764" 
d="M307 660l-21 33l162 139h74l109 -139l-27 -33l-138 67zM-5 0l16 92h82l75 425h-82l16 92h281l-16 -92h-83l-29 -165h289l29 165h-83l16 92h281l-16 -92h-82l-75 -425h82l-16 -92h-281l16 92h83l29 164h-289l-29 -164h83l-16 -92h-281z" />
    <glyph glyph-name="hcircumflex" unicode="&#x125;" horiz-adv-x="537" 
d="M195 376q80 67 147 67t100 -39q23 -29 23 -72q0 -16 -3 -34l-32 -178q-1 -7 -1 -14q0 -32 35 -32q22 0 44 8l-14 -83q-38 -10 -72 -10q-69 0 -91 39q-15 26 -15 52.5t3 44.5l30 165q2 11 2 21q0 43 -42 43q-54 0 -131 -73l-50 -281h-113l109 618h-72l16 89h185zM23 754
l-21 33l162 139h74l109 -139l-27 -33l-138 67z" />
    <glyph glyph-name="Hbar" unicode="&#x126;" horiz-adv-x="764" 
d="M75 406l10 59h75l9 52h-82l16 92h281l-16 -92h-83l-9 -52h289l9 52h-83l16 92h281l-16 -92h-82l-9 -52h75l-10 -59h-76l-55 -314h82l-16 -92h-281l16 92h83l29 164h-289l-29 -164h83l-16 -92h-281l16 92h82l55 314h-74zM256 352h289l10 59h-289z" />
    <glyph glyph-name="hbar" unicode="&#x127;" horiz-adv-x="536" 
d="M194 376q80 67 147 67t99 -39q24 -29 24 -72q0 -16 -3 -34l-32 -178q-1 -7 -1 -14q0 -32 35 -32q22 0 44 8l-14 -83q-38 -10 -72 -10q-69 0 -91 39q-15 26 -15 52.5t3 44.5l30 165q2 11 2 21q0 43 -42 43q-54 0 -131 -73l-50 -281h-113l88 498h-66l13 73h66l8 47h-72
l16 89h185l-24 -136h137l-13 -73h-137z" />
    <glyph glyph-name="Itilde" unicode="&#x128;" horiz-adv-x="359" 
d="M-5 0l16 92h82l75 425h-82l16 92h280l-16 -92h-82l-75 -425h82l-16 -92h-280zM143.5 782.5q29.5 24.5 58 24.5t69.5 -23.5t63 -23.5t36.5 8.5t21.5 17t18 24.5l37 -22q-13 -25 -28.5 -48.5t-45.5 -48.5t-57 -25t-70.5 23.5t-65.5 23.5q-36 0 -70 -49l-37 21q11 25 26 49
t44.5 48.5z" />
    <glyph glyph-name="itilde" unicode="&#x129;" horiz-adv-x="279" 
d="M161 -11q-70 0 -93 38q-15 26 -15 53t3 45l39 218h-72l16 89h185l-56 -312q-1 -8 -1 -14q0 -32 34 -32q23 0 45 8l-14 -83q-38 -10 -71 -10zM47.5 620.5q29.5 24.5 58 24.5t69.5 -23.5t63 -23.5t36.5 8.5t21.5 17t18 24.5l37 -22q-13 -25 -28.5 -48.5t-45.5 -48.5
t-57 -25t-70.5 23.5t-65.5 23.5q-36 0 -70 -49l-37 21q11 25 26 49t44.5 48.5z" />
    <glyph glyph-name="Imacron" unicode="&#x12a;" horiz-adv-x="359" 
d="M-5 0l16 92h82l75 425h-82l16 92h280l-16 -92h-82l-75 -425h82l-16 -92h-280zM111 670l15 84h284l-15 -84h-284z" />
    <glyph glyph-name="imacron" unicode="&#x12b;" horiz-adv-x="279" 
d="M161 -11q-70 0 -93 38q-15 26 -15 53t3 45l39 218h-72l16 89h185l-56 -312q-1 -8 -1 -14q0 -32 34 -32q23 0 45 8l-14 -83q-38 -10 -71 -10zM10 517l15 84h284l-15 -84h-284z" />
    <glyph glyph-name="Ibreve" unicode="&#x12c;" horiz-adv-x="359" 
d="M-5 0l16 92h82l75 425h-82l16 92h280l-16 -92h-82l-75 -425h82l-16 -92h-280zM368.5 703q-46.5 -43 -120 -43t-107.5 44q-27 36 -27 85q0 13 2 27h81v-8q0 -29 13.5 -45t48.5 -16q67 0 90 69h81q-15 -70 -61.5 -113z" />
    <glyph glyph-name="ibreve" unicode="&#x12d;" horiz-adv-x="279" 
d="M161 -11q-70 0 -93 38q-15 26 -15 53t3 45l39 218h-72l16 89h185l-56 -312q-1 -8 -1 -14q0 -32 34 -32q23 0 45 8l-14 -83q-38 -10 -71 -10zM274.5 549q-46.5 -43 -120 -43t-107.5 44q-27 36 -27 85q0 13 2 27h81v-8q0 -29 13.5 -45t48.5 -16q67 0 90 69h81
q-15 -70 -61.5 -113z" />
    <glyph glyph-name="Iogonek" unicode="&#x12e;" horiz-adv-x="359" 
d="M117 -105q0 -33 34 -33t66 14l-5 -65q-47 -19 -98 -19q-96 0 -96 79q0 74 91 129h-114l16 92h82l75 425h-82l16 92h280l-16 -92h-82l-75 -425h82l-16 -92h-83q-75 -53 -75 -105z" />
    <glyph glyph-name="iogonek" unicode="&#x12f;" horiz-adv-x="280" 
d="M114 -208q-96 0 -96 79q0 71 88 127q-53 21 -53 87q0 18 4 40l39 218h-72l16 89h185l-56 -312q-1 -8 -1 -14q0 -32 34 -32q23 0 45 8l-14 -83q-29 -8 -55 -9q-61 -50 -61 -95q0 -33 34 -33t66 14l-5 -65q-47 -19 -98 -19zM186 497q-31 0 -53 22t-22 53t22 53t53 22
t53 -22t22 -53t-22 -53t-53 -22z" />
    <glyph glyph-name="Idotaccent" unicode="&#x130;" horiz-adv-x="359" 
d="M-5 0l16 92h82l75 425h-82l16 92h280l-16 -92h-82l-75 -425h82l-16 -92h-280zM313.5 684.5q-20.5 -20.5 -50 -20.5t-50 20.5t-20.5 49.5t20.5 49.5t49.5 20.5t50 -20.5t21 -49.5t-20.5 -49.5z" />
    <glyph glyph-name="dotlessi" unicode="&#x131;" horiz-adv-x="279" 
d="M161 -11q-70 0 -93 38q-15 26 -15 53t3 45l39 218h-72l16 89h185l-56 -312q-1 -8 -1 -14q0 -32 34 -32q23 0 45 8l-14 -83q-38 -10 -71 -10z" />
    <glyph glyph-name="Jcircumflex" unicode="&#x134;" horiz-adv-x="328" 
d="M-28 -180l-32 72q112 49 124 122l89 503h-72l16 92h260l-16 -92h-72l-91 -512q-16 -87 -78 -129q-55 -37 -128 -56zM93 660l-21 33l162 139h74l109 -139l-27 -33l-138 67z" />
    <glyph glyph-name="jcircumflex" unicode="&#x135;" horiz-adv-x="258" 
d="M-29 -210q-34 0 -74 12l16 86q27 -9 52 -9t42 13.5t24 52.5l70 398h-78l16 89h191l-85 -481q-28 -161 -174 -161zM5 498l-21 33l162 139h74l109 -139l-27 -33l-138 67z" />
    <glyph glyph-name="Kcommaaccent" unicode="&#x136;" horiz-adv-x="689" 
d="M276 -82q37 22 70 22t48 -18t15 -45q0 -81 -133 -173l-41 37q22 22 32 32.5t23 34t13 52.5t-28 52zM471 0l-196 299l1 7l234 213h-63l15 90h267l-16 -92h-63l-240 -222l134 -203h104l-16 -92h-161zM-5 0l16 92h82l75 425h-82l16 92h277l-16 -92h-79l-75 -425h92l-16 -92
h-290z" />
    <glyph glyph-name="kcommaaccent" unicode="&#x137;" horiz-adv-x="505" 
d="M145 -82q37 22 70 22t48 -18t15 -45q0 -81 -133 -173l-41 37q22 22 32 32.5t23 34t13 52.5t-28 52zM197 392q69 51 129.5 51t97 -29.5t36.5 -85.5t-40.5 -95t-106.5 -56l37 -65q21 -36 47 -36t64 20l-16 -87q-37 -20 -74 -20q-73 0 -116 79l-62 116l8 41q62 4 105.5 28
t43.5 63.5t-50.5 39.5t-117.5 -52l-54 -304h-113l109 618h-62l16 89h175z" />
    <glyph glyph-name="kgreenlandic" unicode="&#x138;" horiz-adv-x="527" 
d="M220 392q67 51 128 51t97.5 -29.5t36.5 -85.5t-40.5 -95t-106.5 -56l37 -65q21 -36 47 -36t64 20l-16 -87q-37 -20 -74 -20q-73 0 -116 79l-62 116l8 41q62 4 105.5 28t43.5 63.5t-50.5 39.5t-117.5 -52l-54 -304h-113l61 343h-62l16 89h175z" />
    <glyph glyph-name="Lacute" unicode="&#x139;" horiz-adv-x="554" 
d="M-5 0l16 92h82l75 425h-82l16 92h295l-16 -92h-97l-75 -425h197l18 98h107l-34 -190h-502zM209 660l-35 44l177 167l63 -81z" />
    <glyph glyph-name="lacute" unicode="&#x13a;" horiz-adv-x="255" 
d="M136 -11q-70 0 -92 38q-16 26 -16 53t3 45l87 493h-72l16 89h185l-104 -587q-1 -8 -1 -14q0 -32 34 -32q23 0 45 8l-14 -83q-38 -10 -71 -10zM125 754l-35 44l177 167l63 -81z" />
    <glyph glyph-name="Lcommaaccent" unicode="&#x13b;" horiz-adv-x="554" 
d="M205 -82q37 22 70 22t48 -18t15 -45q0 -81 -133 -173l-41 37q22 22 32 32.5t23 34t13 52.5t-28 52zM-5 0l16 92h82l75 425h-82l16 92h295l-16 -92h-97l-75 -425h197l18 98h107l-34 -190h-502z" />
    <glyph glyph-name="lcommaaccent" unicode="&#x13c;" horiz-adv-x="255" 
d="M17 -82q37 22 70 22t48 -18t15 -45q0 -81 -133 -173l-41 37q22 22 32 32.5t23 34t13 52.5t-28 52zM136 -11q-70 0 -92 38q-16 26 -16 53t3 45l87 493h-72l16 89h185l-104 -587q-1 -8 -1 -14q0 -32 34 -32q23 0 45 8l-14 -83q-38 -10 -71 -10z" />
    <glyph glyph-name="Lcaron" unicode="&#x13d;" horiz-adv-x="559" 
d="M442 596q37 22 70 22t48 -18t15 -45q0 -81 -133 -173l-41 37q22 22 32 32.5t23 34t13 52.5t-28 52zM-5 0l16 92h82l75 425h-82l16 92h295l-16 -92h-97l-75 -425h197l18 98h107l-34 -190h-502z" />
    <glyph glyph-name="lcaron" unicode="&#x13e;" horiz-adv-x="255" 
d="M289 694q37 22 70 22t48 -18t15 -45q0 -81 -133 -173l-41 37q22 22 32 32.5t23 34t13 52.5t-28 52zM136 -11q-70 0 -92 38q-16 26 -16 53t3 45l87 493h-72l16 89h185l-104 -587q-1 -8 -1 -14q0 -32 34 -32q23 0 45 8l-14 -83q-38 -10 -71 -10z" />
    <glyph glyph-name="Ldot" unicode="&#x13f;" horiz-adv-x="554" 
d="M-5 0l16 92h82l75 425h-82l16 92h295l-16 -92h-97l-75 -425h197l18 98h107l-34 -190h-502zM481.5 278.5q-20.5 -20.5 -50 -20.5t-50 20.5t-20.5 49.5t20.5 49.5t49.5 20.5t50 -20.5t21 -49.5t-20.5 -49.5z" />
    <glyph glyph-name="ldot" unicode="&#x140;" horiz-adv-x="362" 
d="M136 -11q-70 0 -92 38q-16 26 -16 53t3 45l87 493h-72l16 89h185l-104 -587q-1 -8 -1 -14q0 -32 34 -32q23 0 45 8l-14 -83q-38 -10 -71 -10zM355.5 282.5q-20.5 -20.5 -50 -20.5t-50 20.5t-20.5 49.5t20.5 49.5t49.5 20.5t50 -20.5t21 -49.5t-20.5 -49.5z" />
    <glyph glyph-name="Lslash" unicode="&#x141;" horiz-adv-x="555" 
d="M53 217l-17 64l98 42l35 194h-82l16 92h295l-16 -92h-97l-25 -141l170 73l18 -63l-202 -86l-36 -208h197l18 98h107l-34 -190h-502l16 92h82l27 154z" />
    <glyph glyph-name="lslash" unicode="&#x142;" horiz-adv-x="306" 
d="M168 106q0 -32 34 -32q23 0 45 8l-14 -83q-38 -10 -71 -10q-70 0 -92 38q-16 26 -16 53t3 45l25 142l-74 -36l-22 62l110 53l48 272h-72l16 89h185l-53 -300l97 47l22 -61l-133 -65l-37 -208q-1 -8 -1 -14z" />
    <glyph glyph-name="Nacute" unicode="&#x143;" horiz-adv-x="753" 
d="M-5 0l16 92h82l75 425h-82l16 92h195l223 -430l59 338h-82l16 92h274l-16 -92h-82l-91 -517h-103l-230 440l-62 -348h82l-16 -92h-274zM394 660l-35 44l177 167l63 -81z" />
    <glyph glyph-name="nacute" unicode="&#x144;" horiz-adv-x="563" 
d="M375 443q60 0 93 -39q23 -29 23 -72q0 -16 -3 -34l-32 -178q-1 -7 -1 -14q0 -32 35 -32q22 0 44 8l-14 -83q-38 -10 -72 -10q-69 0 -91 39q-15 26 -15 52.5t3 44.5l30 165q2 11 2 21q0 43 -42 43q-54 0 -132 -74l-50 -280h-113l61 343h-70l16 89h178l-11 -61
q84 72 161 72zM274 503l-35 44l177 167l63 -81z" />
    <glyph glyph-name="Ncommaaccent" unicode="&#x145;" horiz-adv-x="753" 
d="M274 -82q37 22 70 22t48 -18t15 -45q0 -81 -133 -173l-41 37q22 22 32 32.5t23 34t13 52.5t-28 52zM-5 0l16 92h82l75 425h-82l16 92h195l223 -430l59 338h-82l16 92h274l-16 -92h-82l-91 -517h-103l-230 440l-62 -348h82l-16 -92h-274z" />
    <glyph glyph-name="ncommaaccent" unicode="&#x146;" horiz-adv-x="563" 
d="M188 -82q37 22 70 22t48 -18t15 -45q0 -81 -133 -173l-41 37q22 22 32 32.5t23 34t13 52.5t-28 52zM375 443q60 0 93 -39q23 -29 23 -72q0 -16 -3 -34l-32 -178q-1 -7 -1 -14q0 -32 35 -32q22 0 44 8l-14 -83q-38 -10 -72 -10q-69 0 -91 39q-15 26 -15 52.5t3 44.5
l30 165q2 11 2 21q0 43 -42 43q-54 0 -132 -74l-50 -280h-113l61 343h-70l16 89h178l-11 -61q84 72 161 72z" />
    <glyph glyph-name="Ncaron" unicode="&#x147;" horiz-adv-x="753" 
d="M-5 0l16 92h82l75 425h-82l16 92h195l223 -430l59 338h-82l16 92h274l-16 -92h-82l-91 -517h-103l-230 440l-62 -348h82l-16 -92h-274zM400 660l-108 139l27 33l137 -67l160 67l21 -33l-163 -139h-74z" />
    <glyph glyph-name="ncaron" unicode="&#x148;" horiz-adv-x="563" 
d="M375 443q60 0 93 -39q23 -29 23 -72q0 -16 -3 -34l-32 -178q-1 -7 -1 -14q0 -32 35 -32q22 0 44 8l-14 -83q-38 -10 -72 -10q-69 0 -91 39q-15 26 -15 52.5t3 44.5l30 165q2 11 2 21q0 43 -42 43q-54 0 -132 -74l-50 -280h-113l61 343h-70l16 89h178l-11 -61
q84 72 161 72zM269 504l-108 139l27 33l137 -67l160 67l21 -33l-163 -139h-74z" />
    <glyph glyph-name="napostrophe" unicode="&#x149;" horiz-adv-x="563" 
d="M106 685q37 22 70 22t48 -18t15 -45q0 -81 -133 -173l-41 37q22 22 32 32.5t23 34t13 52.5t-28 52zM375 443q60 0 93 -39q23 -29 23 -72q0 -16 -3 -34l-32 -178q-1 -7 -1 -14q0 -32 35 -32q22 0 44 8l-14 -83q-38 -10 -72 -10q-69 0 -91 39q-15 26 -15 52.5t3 44.5
l30 165q2 11 2 21q0 43 -42 43q-54 0 -132 -74l-50 -280h-113l61 343h-70l16 89h178l-11 -61q84 72 161 72z" />
    <glyph glyph-name="Eng" unicode="&#x14a;" horiz-adv-x="753" 
d="M-5 0l16 92h82l75 425h-82l16 92h195l226 -410l56 318h-82l16 92h274l-16 -92h-82l-90 -512q-16 -87 -79 -129q-54 -37 -127 -56l-32 72q112 49 124 122l4 25l-224 401l-62 -348h82l-16 -92h-274z" />
    <glyph glyph-name="eng" unicode="&#x14b;" horiz-adv-x="531" 
d="M375 443q60 0 93 -39q23 -29 23 -72q0 -16 -3 -34l-61 -347q-28 -161 -174 -161q-34 0 -74 12l16 86q27 -9 52 -9t42 13.5t24 52.5l62 345q2 11 2 21q0 43 -42 43q-54 0 -132 -74l-50 -280h-113l61 343h-70l16 89h178l-11 -61q84 72 161 72z" />
    <glyph glyph-name="Omacron" unicode="&#x14c;" horiz-adv-x="711" 
d="M327 -12q-132 0 -209 73.5t-77 203.5q0 150 99.5 253t258.5 103q132 0 210 -74.5t78 -203.5q0 -149 -100 -252t-260 -103zM330 85q101 0 169 71.5t68 182.5q0 88 -45.5 136.5t-125.5 48.5q-101 0 -168 -72.5t-67 -183.5q0 -88 44.5 -135.5t124.5 -47.5zM276 673l15 84
h284l-15 -84h-284z" />
    <glyph glyph-name="omacron" unicode="&#x14d;" horiz-adv-x="507" 
d="M222 -11q-93 0 -147.5 50.5t-54.5 151.5t66.5 176.5t184.5 75.5q93 0 147.5 -50.5t54.5 -151.5t-66.5 -176.5t-184.5 -75.5zM225 74q61 0 95.5 52.5t34.5 121.5q0 110 -87 110q-61 0 -95.5 -52.5t-34.5 -121.5q0 -110 87 -110zM158 517l15 84h284l-15 -84h-284z" />
    <glyph glyph-name="Obreve" unicode="&#x14e;" horiz-adv-x="711" 
d="M327 -12q-132 0 -209 73.5t-77 203.5q0 150 99.5 253t258.5 103q132 0 210 -74.5t78 -203.5q0 -149 -100 -252t-260 -103zM330 85q101 0 169 71.5t68 182.5q0 88 -45.5 136.5t-125.5 48.5q-101 0 -168 -72.5t-67 -183.5q0 -88 44.5 -135.5t124.5 -47.5zM537.5 706
q-46.5 -43 -120 -43t-107.5 45q-27 35 -27 84q0 13 2 27h81v-8q0 -29 13.5 -45t48.5 -16q67 0 90 69h81q-15 -70 -61.5 -113z" />
    <glyph glyph-name="obreve" unicode="&#x14f;" horiz-adv-x="507" 
d="M222 -11q-93 0 -147.5 50.5t-54.5 151.5t66.5 176.5t184.5 75.5q93 0 147.5 -50.5t54.5 -151.5t-66.5 -176.5t-184.5 -75.5zM225 74q61 0 95.5 52.5t34.5 121.5q0 110 -87 110q-61 0 -95.5 -52.5t-34.5 -121.5q0 -110 87 -110zM418.5 549q-46.5 -43 -120 -43t-107.5 44
q-27 36 -27 85q0 13 2 27h81v-8q0 -29 13.5 -45t48.5 -16q67 0 90 69h81q-15 -70 -61.5 -113z" />
    <glyph glyph-name="Ohungarumlaut" unicode="&#x150;" horiz-adv-x="711" 
d="M327 -12q-132 0 -209 73.5t-77 203.5q0 150 99.5 253t258.5 103q132 0 210 -74.5t78 -203.5q0 -149 -100 -252t-260 -103zM330 85q101 0 169 71.5t68 182.5q0 88 -45.5 136.5t-125.5 48.5q-101 0 -168 -72.5t-67 -183.5q0 -88 44.5 -135.5t124.5 -47.5zM305 663l-33 35
l150 180l66 -74zM473 663l-33 35l150 180l66 -74z" />
    <glyph glyph-name="ohungarumlaut" unicode="&#x151;" horiz-adv-x="507" 
d="M222 -11q-93 0 -147.5 50.5t-54.5 151.5t66.5 176.5t184.5 75.5q93 0 147.5 -50.5t54.5 -151.5t-66.5 -176.5t-184.5 -75.5zM225 74q61 0 95.5 52.5t34.5 121.5q0 110 -87 110q-61 0 -95.5 -52.5t-34.5 -121.5q0 -110 87 -110zM203 502l-33 35l150 180l66 -74zM371 502
l-33 35l150 180l66 -74z" />
    <glyph glyph-name="OE" unicode="&#x152;" horiz-adv-x="885" 
d="M328 0q-133 0 -209.5 68.5t-76.5 196.5q0 149 99 246.5t259 97.5h502l-31 -179h-107l15 87h-197l-29 -165h229l-16 -92h-229l-30 -168h200l16 91h108l-32 -183h-471zM323 92h68l75 425h-69q-102 0 -168.5 -69t-66.5 -180q0 -85 42 -130.5t119 -45.5z" />
    <glyph glyph-name="oe" unicode="&#x153;" horiz-adv-x="766" 
d="M219 -11q-90 0 -144.5 51t-54.5 151t66.5 176t180.5 76t160 -79q65 79 175 79q70 0 104 -32.5t34 -83.5q0 -148 -275 -165q9 -87 105 -87q53 0 141 38l-17 -89q-66 -35 -140 -35q-113 0 -158 80q-65 -80 -177 -80zM225 74q61 0 95.5 52.5t34.5 121.5q0 110 -87 110
q-61 0 -95.5 -52.5t-34.5 -121.5q0 -110 87 -110zM638 324q0 37 -45 37t-78 -32.5t-45 -84.5q70 3 119 22t49 58z" />
    <glyph glyph-name="Racute" unicode="&#x154;" horiz-adv-x="645" 
d="M322 660l-35 44l177 167l63 -81zM389 609q113 0 168.5 -50.5t55.5 -124t-45 -124t-121 -69.5l66 -149h79l-16 -92h-145l-98 223h-101l-23 -131h82l-16 -92h-280l16 92h82l75 425h-82l16 92h287zM346 313q78 0 113.5 35t35.5 82q0 87 -113 87h-98l-36 -204h98z" />
    <glyph glyph-name="racute" unicode="&#x155;" horiz-adv-x="438" 
d="M358 443q37 0 60.5 -20.5t23.5 -62.5t-14 -82l-103 5q7 32 7 38q0 25 -25 25q-42 0 -105 -69l-49 -277h-113l61 343h-70l16 89h178l-12 -69q70 80 145 80zM228 503l-35 44l177 167l63 -81z" />
    <glyph glyph-name="Rcommaaccent" unicode="&#x156;" horiz-adv-x="645" 
d="M246 -82q37 22 70 22t48 -18t15 -45q0 -81 -133 -173l-41 37q22 22 32 32.5t23 34t13 52.5t-28 52zM389 609q113 0 168.5 -50.5t55.5 -124t-45 -124t-121 -69.5l66 -149h79l-16 -92h-145l-98 223h-101l-23 -131h82l-16 -92h-280l16 92h82l75 425h-82l16 92h287zM346 313
q78 0 113.5 35t35.5 82q0 87 -113 87h-98l-36 -204h98z" />
    <glyph glyph-name="rcommaaccent" unicode="&#x157;" horiz-adv-x="438" 
d="M10 -82q37 22 70 22t48 -18t15 -45q0 -81 -133 -173l-41 37q22 22 32 32.5t23 34t13 52.5t-28 52zM358 443q37 0 60.5 -20.5t23.5 -62.5t-14 -82l-103 5q7 32 7 38q0 25 -25 25q-42 0 -105 -69l-49 -277h-113l61 343h-70l16 89h178l-12 -69q70 80 145 80z" />
    <glyph glyph-name="Rcaron" unicode="&#x158;" horiz-adv-x="645" 
d="M327 660l-108 139l27 33l137 -67l160 67l21 -33l-163 -139h-74zM389 609q113 0 168.5 -50.5t55.5 -124t-45 -124t-121 -69.5l66 -149h79l-16 -92h-145l-98 223h-101l-23 -131h82l-16 -92h-280l16 92h82l75 425h-82l16 92h287zM346 313q78 0 113.5 35t35.5 82
q0 87 -113 87h-98l-36 -204h98z" />
    <glyph glyph-name="rcaron" unicode="&#x159;" horiz-adv-x="438" 
d="M358 443q37 0 60.5 -20.5t23.5 -62.5t-14 -82l-103 5q7 32 7 38q0 25 -25 25q-42 0 -105 -69l-49 -277h-113l61 343h-70l16 89h178l-12 -69q70 80 145 80zM216 504l-108 139l27 33l137 -67l160 67l21 -33l-163 -139h-74z" />
    <glyph glyph-name="Sacute" unicode="&#x15a;" horiz-adv-x="533" 
d="M419.5 35.5q-63.5 -47.5 -183 -47.5t-228.5 35l27 152h104l-15 -80q58 -15 116 -15t92.5 23t34.5 60t-30 59.5t-72.5 36.5t-85.5 31t-73 53.5t-30 91.5q0 83 62.5 134.5t168.5 51.5t217 -35l-26 -149h-106l15 81q-41 11 -95.5 11t-86.5 -22.5t-32 -52t16 -46.5
t41.5 -27.5t56.5 -20.5t62 -24t56.5 -33t41.5 -52.5t16 -77.5q0 -90 -63.5 -137.5zM299 663l-35 44l177 167l63 -81z" />
    <glyph glyph-name="sacute" unicode="&#x15b;" horiz-adv-x="387" 
d="M251 3q-40 -14 -110.5 -14t-140.5 31l14 83q73 -31 138 -31q80 0 80 45q0 38 -97 67q-36 10 -66.5 40.5t-30.5 84.5t46.5 94t124 40t146.5 -25l-14 -80q-62 24 -117 24q-74 0 -74 -42q0 -19 20 -32t48.5 -23t57 -23.5t48.5 -41t20 -59.5t-7.5 -54t-26.5 -46t-59 -38z
M198 503l-35 44l177 167l63 -81z" />
    <glyph glyph-name="Scircumflex" unicode="&#x15c;" horiz-adv-x="533" 
d="M419.5 35.5q-63.5 -47.5 -183 -47.5t-228.5 35l27 152h104l-15 -80q58 -15 116 -15t92.5 23t34.5 60t-30 59.5t-72.5 36.5t-85.5 31t-73 53.5t-30 91.5q0 83 62.5 134.5t168.5 51.5t217 -35l-26 -149h-106l15 81q-41 11 -95.5 11t-86.5 -22.5t-32 -52t16 -46.5
t41.5 -27.5t56.5 -20.5t62 -24t56.5 -33t41.5 -52.5t16 -77.5q0 -90 -63.5 -137.5zM191 663l-21 33l162 139h74l109 -139l-27 -33l-138 67z" />
    <glyph glyph-name="scircumflex" unicode="&#x15d;" horiz-adv-x="387" 
d="M251 3q-40 -14 -110.5 -14t-140.5 31l14 83q73 -31 138 -31q80 0 80 45q0 38 -97 67q-36 10 -66.5 40.5t-30.5 84.5t46.5 94t124 40t146.5 -25l-14 -80q-62 24 -117 24q-74 0 -74 -42q0 -19 20 -32t48.5 -23t57 -23.5t48.5 -41t20 -59.5t-7.5 -54t-26.5 -46t-59 -38z
M79 498l-21 33l162 139h74l109 -139l-27 -33l-138 67z" />
    <glyph glyph-name="Scedilla" unicode="&#x15e;" horiz-adv-x="532" 
d="M274 -184.5q-40 -23.5 -98 -23.5t-96 15l19 60q35 -13 68 -13q48 0 48 27q0 35 -68 35l6 21l36 53q-106 8 -181 33l27 152h104l-15 -80q58 -15 116 -15t92.5 23t34.5 60t-30 59.5t-72.5 36.5t-85.5 31t-73 53.5t-30 91.5q0 83 62.5 134.5t168.5 51.5t217 -35l-26 -149
h-106l15 81q-41 11 -95.5 11t-86.5 -22.5t-32 -52t16 -46.5t41.5 -27.5t56.5 -20.5t62 -24t56.5 -33t41.5 -52.5t16 -77.5q0 -86 -58 -133t-168 -51l-16 -31q73 -13 73 -74q0 -45 -40 -68.5z" />
    <glyph glyph-name="scedilla" unicode="&#x15f;" horiz-adv-x="387" 
d="M200 -184.5q-40 -23.5 -98 -23.5t-96 15l19 60q35 -13 68 -13q48 0 48 27q0 35 -68 35l6 21l37 54q-65 6 -116 29l14 83q73 -31 138 -31q80 0 80 45q0 38 -97 67q-36 10 -66.5 40.5t-30.5 84.5t46.5 94t124 40t146.5 -25l-14 -80q-62 24 -117 24q-74 0 -74 -42
q0 -19 20 -32t48.5 -23t57 -23.5t48.5 -41t20 -73t-35.5 -88t-125.5 -49.5l-16 -32q73 -13 73 -74q0 -45 -40 -68.5z" />
    <glyph glyph-name="Scaron" unicode="&#x160;" horiz-adv-x="533" 
d="M419.5 35.5q-63.5 -47.5 -183 -47.5t-228.5 35l27 152h104l-15 -80q58 -15 116 -15t92.5 23t34.5 60t-30 59.5t-72.5 36.5t-85.5 31t-73 53.5t-30 91.5q0 83 62.5 134.5t168.5 51.5t217 -35l-26 -149h-106l15 81q-41 11 -95.5 11t-86.5 -22.5t-32 -52t16 -46.5
t41.5 -27.5t56.5 -20.5t62 -24t56.5 -33t41.5 -52.5t16 -77.5q0 -90 -63.5 -137.5zM294 663l-108 139l27 33l137 -67l160 67l21 -33l-163 -139h-74z" />
    <glyph glyph-name="scaron" unicode="&#x161;" horiz-adv-x="387" 
d="M251 3q-40 -14 -110.5 -14t-140.5 31l14 83q73 -31 138 -31q80 0 80 45q0 38 -97 67q-36 10 -66.5 40.5t-30.5 84.5t46.5 94t124 40t146.5 -25l-14 -80q-62 24 -117 24q-74 0 -74 -42q0 -19 20 -32t48.5 -23t57 -23.5t48.5 -41t20 -59.5t-7.5 -54t-26.5 -46t-59 -38z
M186 504l-108 139l27 33l137 -67l160 67l21 -33l-163 -139h-74z" />
    <glyph glyph-name="Tcommaaccent" unicode="&#x162;" horiz-adv-x="589" 
d="M164 -82q37 22 70 22t48 -18t15 -45q0 -81 -133 -173l-41 37q22 22 32 32.5t23 34t13 52.5t-28 52zM101 0l16 92h90l75 425h-114l-16 -93h-105l33 185h554l-33 -185h-105l16 93h-114l-75 -425h90l-16 -92h-296z" />
    <glyph glyph-name="tcommaaccent" unicode="&#x163;" horiz-adv-x="339" 
d="M71 -82q37 22 70 22t48 -18t15 -45q0 -81 -133 -173l-41 37q22 22 32 32.5t23 34t13 52.5t-28 52zM166 106q0 -30 46 -30q28 0 85 20l-15 -83q-52 -24 -117.5 -24t-92.5 38q-20 27 -20 66q0 16 3 33l38 217h-74l16 89h74l19 110h114l-20 -110h115l-16 -89h-114l-40 -227
q-1 -6 -1 -10z" />
    <glyph glyph-name="Tcaron" unicode="&#x164;" horiz-adv-x="589" 
d="M101 0l16 92h90l75 425h-114l-16 -93h-105l33 185h554l-33 -185h-105l16 93h-114l-75 -425h90l-16 -92h-296zM323 660l-108 139l27 33l137 -67l160 67l21 -33l-163 -139h-74z" />
    <glyph glyph-name="tcaron" unicode="&#x165;" horiz-adv-x="339" 
d="M317 689q37 22 70 22t48 -18t15 -45q0 -81 -133 -173l-41 37q22 22 32 32.5t23 34t13 52.5t-28 52zM166 106q0 -30 46 -30q28 0 85 20l-15 -83q-52 -24 -117.5 -24t-92.5 38q-20 27 -20 66q0 16 3 33l38 217h-74l16 89h74l19 110h114l-20 -110h115l-16 -89h-114l-40 -227
q-1 -6 -1 -10z" />
    <glyph glyph-name="Tbar" unicode="&#x166;" horiz-adv-x="590" 
d="M115 251l14 76h119l34 190h-114l-16 -93h-105l33 185h554l-33 -185h-105l16 93h-114l-34 -190h121l-14 -76h-120l-28 -159h90l-16 -92h-296l16 92h90l28 159h-120z" />
    <glyph glyph-name="tbar" unicode="&#x167;" horiz-adv-x="343" 
d="M170 106q0 -30 46 -30q28 0 85 20l-15 -83q-52 -24 -117.5 -24t-92.5 38q-20 27 -20 66q0 16 3 33l11 63h-60l14 78h59l14 76h-74l16 89h74l19 110h114l-20 -110h115l-16 -89h-114l-14 -76h106l-14 -78h-105l-13 -73q-1 -6 -1 -10z" />
    <glyph glyph-name="Utilde" unicode="&#x168;" horiz-adv-x="689" 
d="M492.5 48.5q-70.5 -60.5 -183.5 -60.5t-177 69q-48 51 -48 132q0 28 6 59l48 269h-82l16 92h280l-16 -92h-82l-52 -290q-3 -18 -3 -34q0 -41 21 -67q31 -35 93 -35t105.5 33.5t54.5 100.5l52 292h-85l16 92h277l-16 -92h-82l-52 -294q-20 -114 -90.5 -174.5zM305.5 782.5
q29.5 24.5 58 24.5t69.5 -23.5t63 -23.5t36.5 8.5t21.5 17t18 24.5l37 -22q-13 -25 -28.5 -48.5t-45.5 -48.5t-57 -25t-70.5 23.5t-65.5 23.5q-36 0 -70 -49l-37 21q11 25 26 49t44.5 48.5z" />
    <glyph glyph-name="utilde" unicode="&#x169;" horiz-adv-x="556" 
d="M169 -11q-60 0 -93 39q-23 29 -23 72q0 16 3 34l38 209h-70l16 89h182l-53 -290q-2 -11 -2 -21q0 -43 42 -43q54 0 131 73l51 281h113l-57 -318q-1 -7 -1 -14q0 -32 35 -32q22 0 44 8l-13 -77q-38 -10 -72 -10q-92 0 -106 76q-84 -76 -165 -76zM207.5 620.5
q29.5 24.5 58 24.5t69.5 -23.5t63 -23.5t36.5 8.5t21.5 17t18 24.5l37 -22q-13 -25 -28.5 -48.5t-45.5 -48.5t-57 -25t-70.5 23.5t-65.5 23.5q-36 0 -70 -49l-37 21q11 25 26 49t44.5 48.5z" />
    <glyph glyph-name="Umacron" unicode="&#x16a;" horiz-adv-x="689" 
d="M492.5 48.5q-70.5 -60.5 -183.5 -60.5t-177 69q-48 51 -48 132q0 28 6 59l48 269h-82l16 92h280l-16 -92h-82l-52 -290q-3 -18 -3 -34q0 -41 21 -67q31 -35 93 -35t105.5 33.5t54.5 100.5l52 292h-85l16 92h277l-16 -92h-82l-52 -294q-20 -114 -90.5 -174.5zM267 670
l15 84h284l-15 -84h-284z" />
    <glyph glyph-name="umacron" unicode="&#x16b;" horiz-adv-x="556" 
d="M169 -11q-60 0 -93 39q-23 29 -23 72q0 16 3 34l38 209h-70l16 89h182l-53 -290q-2 -11 -2 -21q0 -43 42 -43q54 0 131 73l51 281h113l-57 -318q-1 -7 -1 -14q0 -32 35 -32q22 0 44 8l-13 -77q-38 -10 -72 -10q-92 0 -106 76q-84 -76 -165 -76zM162 517l15 84h284
l-15 -84h-284z" />
    <glyph glyph-name="Ubreve" unicode="&#x16c;" horiz-adv-x="689" 
d="M492.5 48.5q-70.5 -60.5 -183.5 -60.5t-177 69q-48 51 -48 132q0 28 6 59l48 269h-82l16 92h280l-16 -92h-82l-52 -290q-3 -18 -3 -34q0 -41 21 -67q31 -35 93 -35t105.5 33.5t54.5 100.5l52 292h-85l16 92h277l-16 -92h-82l-52 -294q-20 -114 -90.5 -174.5zM528.5 703
q-46.5 -43 -120 -43t-107.5 44q-27 36 -27 85q0 13 2 27h81v-8q0 -29 13.5 -45t48.5 -16q67 0 90 69h81q-15 -70 -61.5 -113z" />
    <glyph glyph-name="ubreve" unicode="&#x16d;" horiz-adv-x="556" 
d="M169 -11q-60 0 -93 39q-23 29 -23 72q0 16 3 34l38 209h-70l16 89h182l-53 -290q-2 -11 -2 -21q0 -43 42 -43q54 0 131 73l51 281h113l-57 -318q-1 -7 -1 -14q0 -32 35 -32q22 0 44 8l-13 -77q-38 -10 -72 -10q-92 0 -106 76q-84 -76 -165 -76zM429.5 549
q-46.5 -43 -120 -43t-107.5 44q-27 36 -27 85q0 13 2 27h81v-8q0 -29 13.5 -45t48.5 -16q67 0 90 69h81q-15 -70 -61.5 -113z" />
    <glyph glyph-name="Uring" unicode="&#x16e;" horiz-adv-x="689" 
d="M492.5 48.5q-70.5 -60.5 -183.5 -60.5t-177 69q-48 51 -48 132q0 28 6 59l48 269h-82l16 92h280l-16 -92h-82l-52 -290q-3 -18 -3 -34q0 -41 21 -67q31 -35 93 -35t105.5 33.5t54.5 100.5l52 292h-85l16 92h277l-16 -92h-82l-52 -294q-20 -114 -90.5 -174.5zM517 693
q-36 -37 -96.5 -37t-91 27t-30.5 75t36.5 85t97 37t90.5 -27t30 -75t-36 -85zM418 717q23 0 37 18.5t14 42.5q0 40 -35 40q-23 0 -37 -18.5t-14 -42.5q0 -40 35 -40z" />
    <glyph glyph-name="uring" unicode="&#x16f;" horiz-adv-x="556" 
d="M169 -11q-60 0 -93 39q-23 29 -23 72q0 16 3 34l38 209h-70l16 89h182l-53 -290q-2 -11 -2 -21q0 -43 42 -43q54 0 131 73l51 281h113l-57 -318q-1 -7 -1 -14q0 -32 35 -32q22 0 44 8l-13 -77q-38 -10 -72 -10q-92 0 -106 76q-84 -76 -165 -76zM420 535
q-36 -37 -96.5 -37t-91 27t-30.5 75t36.5 85t97 37t90.5 -27t30 -75t-36 -85zM321 559q23 0 37 18.5t14 42.5q0 40 -35 40q-23 0 -37 -18.5t-14 -42.5q0 -40 35 -40z" />
    <glyph glyph-name="Uhungarumlaut" unicode="&#x170;" horiz-adv-x="689" 
d="M492.5 48.5q-70.5 -60.5 -183.5 -60.5t-177 69q-48 51 -48 132q0 28 6 59l48 269h-82l16 92h280l-16 -92h-82l-52 -290q-3 -18 -3 -34q0 -41 21 -67q31 -35 93 -35t105.5 33.5t54.5 100.5l52 292h-85l16 92h277l-16 -92h-82l-52 -294q-20 -114 -90.5 -174.5zM302 660
l-33 35l150 180l66 -74zM470 660l-33 35l150 180l66 -74z" />
    <glyph glyph-name="uhungarumlaut" unicode="&#x171;" horiz-adv-x="556" 
d="M169 -11q-60 0 -93 39q-23 29 -23 72q0 16 3 34l38 209h-70l16 89h182l-53 -290q-2 -11 -2 -21q0 -43 42 -43q54 0 131 73l51 281h113l-57 -318q-1 -7 -1 -14q0 -32 35 -32q22 0 44 8l-13 -77q-38 -10 -72 -10q-92 0 -106 76q-84 -76 -165 -76zM198 502l-33 35l150 180
l66 -74zM366 502l-33 35l150 180l66 -74z" />
    <glyph glyph-name="Uogonek" unicode="&#x172;" horiz-adv-x="690" 
d="M342 -208q-96 0 -96 79q0 65 73 117h-7q-115 0 -178 68q-50 52 -50 134q0 27 6 58l48 269h-82l16 92h280l-16 -92h-82l-52 -290q-3 -18 -3 -34q0 -41 21 -67q31 -35 93 -35t105.5 33.5t54.5 100.5l52 292h-85l16 92h277l-16 -92h-82l-52 -294q-16 -94 -59 -141
q-31 -35 -67 -58.5t-55.5 -38.5t-38 -40t-18.5 -49q0 -34 36 -34q32 0 64 14l-5 -65q-48 -19 -98 -19z" />
    <glyph glyph-name="uogonek" unicode="&#x173;" horiz-adv-x="556" 
d="M385 -208q-96 0 -96 79q0 74 91 129q-38 18 -46 65q-84 -76 -165 -76q-60 0 -93 39q-23 29 -23 72q0 16 3 34l38 209h-70l16 89h182l-53 -290q-2 -11 -2 -21q0 -43 42 -43q54 0 131 73l51 281h113l-57 -318q-1 -7 -1 -14q0 -32 35 -32q22 0 44 8l-13 -77q-38 -9 -64 -10
q-60 -49 -60 -94q0 -33 34 -33t66 14l-5 -65q-47 -19 -98 -19z" />
    <glyph glyph-name="Wcircumflex" unicode="&#x174;" horiz-adv-x="935" 
d="M186 0l-76 517h-68l16 92h261l-16 -92h-86l53 -383l185 344l-7 39h-77l16 92h275l-16 -92h-87l57 -379l182 379h-85l16 92h265l-16 -92h-69l-252 -517h-116l-59 326l-179 -326h-117zM387 660l-21 33l162 139h74l109 -139l-27 -33l-138 67z" />
    <glyph glyph-name="wcircumflex" unicode="&#x175;" horiz-adv-x="707" 
d="M593 331q0 11 -4.5 16t-22.5 5t-55 -21l-27 66q61 46 112 46t74 -26t23 -68q0 -65 -52.5 -158.5t-141.5 -190.5h-92l-44 177q-48 -90 -117 -177h-95l-80 346h-62l16 86h134l64 -318q72 98 107 193l-9 39h-64l16 86h137l66 -324q53 59 85 122t32 101zM220 498l-21 33
l162 139h74l109 -139l-27 -33l-138 67z" />
    <glyph glyph-name="Ycircumflex" unicode="&#x176;" horiz-adv-x="638" 
d="M129 0l16 92h86l21 118l-143 307h-70l16 92h276l-16 -91h-87l92 -204l165 204h-87l16 91h285l-16 -92h-67l-247 -301l-22 -124h86l-16 -92h-288zM229 660l-21 33l162 139h74l109 -139l-27 -33l-138 67z" />
    <glyph glyph-name="ycircumflex" unicode="&#x177;" horiz-adv-x="500" 
d="M371 318q0 33 -24.5 33t-56.5 -21l-33 65q58 48 126 48q97 0 97 -105q0 -64 -40.5 -158t-103 -180.5t-147.5 -148t-163.5 -61.5t-136.5 63l49 62q42 -35 84 -35q77 0 183 120h-80l-48 345h-65l16 87h150l51 -403q60 75 101 158t41 131zM120 498l-21 33l162 139h74
l109 -139l-27 -33l-138 67z" />
    <glyph glyph-name="Ydieresis" unicode="&#x178;" horiz-adv-x="638" 
d="M129 0l16 92h86l21 118l-143 307h-70l16 92h276l-16 -91h-87l92 -204l165 204h-87l16 91h285l-16 -92h-67l-247 -301l-22 -124h86l-16 -92h-288zM293 664q-27 0 -46 19t-19 46t19 46t46 19t46 -19t19 -46t-19 -46t-46 -19zM487 664q-27 0 -46 19t-19 46t19 46t46 19
t46 -19t19 -46t-19 -46t-46 -19z" />
    <glyph glyph-name="Zacute" unicode="&#x179;" horiz-adv-x="594" 
d="M25 0l-27 56l418 456h-223l-17 -98h-107l34 195h470l33 -52l-423 -460h240l18 103h107l-35 -200h-488zM321 660l-35 44l177 167l63 -81z" />
    <glyph glyph-name="zacute" unicode="&#x17a;" horiz-adv-x="455" 
d="M167 89l99 -9q34 0 48.5 18t30.5 63l82 -23q-28 -106 -81 -133q-25 -13 -53.5 -13t-82 10.5t-88.5 10.5t-96 -18l-29 51l272 307h-126l-12 -77h-93l26 156h341l25 -49zM209 503l-35 44l177 167l63 -81z" />
    <glyph glyph-name="Zdotaccent" unicode="&#x17b;" horiz-adv-x="594" 
d="M25 0l-27 56l418 456h-223l-17 -98h-107l34 195h470l33 -52l-423 -460h240l18 103h107l-35 -200h-488zM407.5 684.5q-20.5 -20.5 -50 -20.5t-50 20.5t-20.5 49.5t20.5 49.5t49.5 20.5t50 -20.5t21 -49.5t-20.5 -49.5z" />
    <glyph glyph-name="zdotaccent" unicode="&#x17c;" horiz-adv-x="455" 
d="M167 89l99 -9q34 0 48.5 18t30.5 63l82 -23q-28 -106 -81 -133q-25 -13 -53.5 -13t-82 10.5t-88.5 10.5t-96 -18l-29 51l272 307h-126l-12 -77h-93l26 156h341l25 -49zM312.5 521.5q-20.5 -20.5 -50 -20.5t-50 20.5t-20.5 49.5t20.5 49.5t49.5 20.5t50 -20.5t21 -49.5
t-20.5 -49.5z" />
    <glyph glyph-name="Zcaron" unicode="&#x17d;" horiz-adv-x="594" 
d="M25 0l-27 56l418 456h-223l-17 -98h-107l34 195h470l33 -52l-423 -460h240l18 103h107l-35 -200h-488zM310 660l-108 139l27 33l137 -67l160 67l21 -33l-163 -139h-74z" />
    <glyph glyph-name="zcaron" unicode="&#x17e;" horiz-adv-x="455" 
d="M167 89l99 -9q34 0 48.5 18t30.5 63l82 -23q-28 -106 -81 -133q-25 -13 -53.5 -13t-82 10.5t-88.5 10.5t-96 -18l-29 51l272 307h-126l-12 -77h-93l26 156h341l25 -49zM211 504l-108 139l27 33l137 -67l160 67l21 -33l-163 -139h-74z" />
    <glyph glyph-name="longs" unicode="&#x17f;" horiz-adv-x="260" 
d="M-33 -210q-35 0 -68 7l16 87q20 -5 48 -5t45.5 13.5t24.5 52.5l70 396h-81l16 91h81l21 121q15 88 61 126.5t125 38.5q38 0 83 -9l-15 -84q-28 4 -58 4q-69 0 -83 -78l-106 -600q-28 -161 -180 -161z" />
    <glyph glyph-name="AEacute" unicode="&#x1fc;" horiz-adv-x="961" 
d="M-47 0l16 90h73l353 429h-84l15 90h651l-31 -179h-107l15 87h-197l-29 -165h229l-16 -92h-229l-30 -168h200l18 91h108l-34 -183h-504l16 92h82l16 92h-237l-75 -94h78l-15 -90h-282zM320 275h180l43 242h-29zM615 660l-35 44l177 167l63 -81z" />
    <glyph glyph-name="aeacute" unicode="&#x1fd;" horiz-adv-x="697" 
d="M133 -11q-62 0 -99.5 31t-37.5 90q0 73 60 108t161 35h76l6 29q2 13 2 29.5t-15 31t-74.5 14.5t-139.5 -23l15 85q82 24 156 24q111 0 136 -69q62 69 157 69q67 0 100.5 -33.5t33.5 -84.5q0 -142 -275 -149q2 -55 29 -78t78.5 -23t139.5 38l-17 -89q-66 -35 -142 -35
q-112 0 -164 66q-93 -66 -186 -66zM111 117q0 -45 55.5 -45t123.5 42q-9 28 -9 66h-59q-111 0 -111 -63zM569 324q0 37 -44 37t-75.5 -29t-45.5 -78q165 6 165 70zM367 503l-35 44l177 167l63 -81z" />
    <glyph glyph-name="Oslashacute" unicode="&#x1fe;" horiz-adv-x="711" 
d="M385 663l-35 44l177 167l63 -81zM327 -12q-115 0 -189 57l-69 -70l-33 30l69 70q-64 72 -64 190q0 150 99.5 253t258.5 103q113 0 190 -58l71 72l33 -30l-71 -72q65 -75 65 -190q0 -149 -100 -252t-260 -103zM330 85q101 0 169 71.5t68 182.5q0 68 -27 112l-325 -328
q44 -38 115 -38zM396 524q-101 0 -168 -72.5t-67 -183.5q0 -67 26 -111l324 328q-45 39 -115 39z" />
    <glyph glyph-name="oslashacute" unicode="&#x1ff;" horiz-adv-x="505" 
d="M257 503l-35 44l177 167l63 -81zM221 -11q-86 0 -136 40l-61 -58l-26 26l61 58q-40 49 -40 130q0 107 66.5 182.5t184.5 75.5q91 0 144 -47l54 52l26 -26l-56 -54q34 -48 34 -121q0 -107 -66.5 -182.5t-184.5 -75.5zM224 74q61 0 95.5 52.5t34.5 121.5q0 20 -3 36
l-191 -183q22 -27 64 -27zM267 358q-61 0 -95.5 -52.5t-34.5 -121.5q0 -27 6 -48l194 186q-23 36 -70 36z" />
    <glyph glyph-name="Scommaaccent" unicode="&#x218;" horiz-adv-x="533" 
d="M150 -85q37 22 70 22t48 -18t15 -45q0 -81 -133 -173l-41 37q22 22 32 32.5t23 34t13 52.5t-28 52zM419.5 35.5q-63.5 -47.5 -183 -47.5t-228.5 35l27 152h104l-15 -80q58 -15 116 -15t92.5 23t34.5 60t-30 59.5t-72.5 36.5t-85.5 31t-73 53.5t-30 91.5q0 83 62.5 134.5
t168.5 51.5t217 -35l-26 -149h-106l15 81q-41 11 -95.5 11t-86.5 -22.5t-32 -52t16 -46.5t41.5 -27.5t56.5 -20.5t62 -24t56.5 -33t41.5 -52.5t16 -77.5q0 -90 -63.5 -137.5z" />
    <glyph glyph-name="scommaaccent" unicode="&#x219;" horiz-adv-x="387" 
d="M80 -85q37 22 70 22t48 -18t15 -45q0 -81 -133 -173l-41 37q22 22 32 32.5t23 34t13 52.5t-28 52zM251 3q-40 -14 -110.5 -14t-140.5 31l14 83q73 -31 138 -31q80 0 80 45q0 38 -97 67q-36 10 -66.5 40.5t-30.5 84.5t46.5 94t124 40t146.5 -25l-14 -80q-62 24 -117 24
q-74 0 -74 -42q0 -19 20 -32t48.5 -23t57 -23.5t48.5 -41t20 -59.5t-7.5 -54t-26.5 -46t-59 -38z" />
    <glyph glyph-name="uni021A" unicode="&#x21a;" horiz-adv-x="589" 
d="M164 -82q37 22 70 22t48 -18t15 -45q0 -81 -133 -173l-41 37q22 22 32 32.5t23 34t13 52.5t-28 52zM101 0l16 92h90l75 425h-114l-16 -93h-105l33 185h554l-33 -185h-105l16 93h-114l-75 -425h90l-16 -92h-296z" />
    <glyph glyph-name="uni021B" unicode="&#x21b;" horiz-adv-x="339" 
d="M71 -82q37 22 70 22t48 -18t15 -45q0 -81 -133 -173l-41 37q22 22 32 32.5t23 34t13 52.5t-28 52zM166 106q0 -30 46 -30q28 0 85 20l-15 -83q-52 -24 -117.5 -24t-92.5 38q-20 27 -20 66q0 16 3 33l38 217h-74l16 89h74l19 110h114l-20 -110h115l-16 -89h-114l-40 -227
q-1 -6 -1 -10z" />
    <glyph glyph-name="dotlessj" unicode="&#x237;" horiz-adv-x="258" 
d="M-29 -210q-34 0 -74 12l16 86q27 -9 52 -9t42 13.5t24 52.5l70 398h-78l16 89h191l-85 -481q-28 -161 -174 -161z" />
    <glyph glyph-name="circumflex" unicode="&#x2c6;" horiz-adv-x="434" 
d="M66 498l-21 33l162 139h74l109 -139l-27 -33l-138 67z" />
    <glyph glyph-name="caron" unicode="&#x2c7;" horiz-adv-x="436" 
d="M167 504l-108 139l27 33l137 -67l160 67l21 -33l-163 -139h-74z" />
    <glyph glyph-name="breve" unicode="&#x2d8;" horiz-adv-x="386" 
d="M304.5 549q-46.5 -43 -120 -43t-107.5 44q-27 36 -27 85q0 13 2 27h81v-8q0 -29 13.5 -45t48.5 -16q67 0 90 69h81q-15 -70 -61.5 -113z" />
    <glyph glyph-name="dotaccent" unicode="&#x2d9;" horiz-adv-x="239" 
d="M169.5 521.5q-20.5 -20.5 -50 -20.5t-50 20.5t-20.5 49.5t20.5 49.5t49.5 20.5t50 -20.5t21 -49.5t-20.5 -49.5z" />
    <glyph glyph-name="ring" unicode="&#x2da;" horiz-adv-x="352" 
d="M274 535q-36 -37 -96.5 -37t-91 27t-30.5 75t36.5 85t97 37t90.5 -27t30 -75t-36 -85zM175 559q23 0 37 18.5t14 42.5q0 40 -35 40q-23 0 -37 -18.5t-14 -42.5q0 -40 35 -40z" />
    <glyph glyph-name="ogonek" unicode="&#x2db;" horiz-adv-x="297" 
d="M138 -208q-96 0 -96 79q0 102 179 171l26 -22q-43 -25 -74.5 -59.5t-31.5 -66.5t34 -32t66 14l-5 -65q-48 -19 -98 -19z" />
    <glyph glyph-name="tilde" unicode="&#x2dc;" horiz-adv-x="466" 
d="M116.5 620.5q29.5 24.5 58 24.5t70 -23.5t63 -23.5t36 8.5t21.5 17t18 24.5l37 -22q-13 -25 -28.5 -48.5t-45.5 -48.5t-57 -25t-70.5 23.5t-65.5 23.5q-36 0 -70 -49l-37 21q11 25 26 49t44.5 48.5z" />
    <glyph glyph-name="hungarumlaut" unicode="&#x2dd;" horiz-adv-x="515" 
d="M92 502l-33 35l150 180l66 -74zM260 502l-33 35l150 180l66 -74z" />
    <glyph glyph-name="endash" unicode="&#x2013;" horiz-adv-x="655" 
d="M41 186l17 95h549l-17 -95h-549z" />
    <glyph glyph-name="emdash" unicode="&#x2014;" horiz-adv-x="880" 
d="M41 186l17 95h774l-17 -95h-774z" />
    <glyph glyph-name="quoteleft" unicode="&#x2018;" horiz-adv-x="224" 
d="M136 389q-29 0 -48 20t-19 50q0 44 44.5 96.5t101.5 91.5l38 -40q-72 -59 -88 -91q41 -18 41 -59q0 -27 -20.5 -47.5t-49.5 -20.5z" />
    <glyph glyph-name="quoteright" unicode="&#x2019;" horiz-adv-x="220" 
d="M179 643q29 0 48 -20t19 -50q0 -44 -44.5 -96.5t-101.5 -91.5l-38 40q72 59 88 91q-41 18 -41 59q0 27 20.5 47.5t49.5 20.5z" />
    <glyph glyph-name="quotesinglbase" unicode="&#x201a;" horiz-adv-x="222" 
d="M80 128q29 0 48 -20t19 -50q0 -44 -44.5 -96.5t-101.5 -91.5l-38 40q72 59 88 91q-41 18 -41 59q0 27 20.5 47.5t49.5 20.5z" />
    <glyph glyph-name="quotedblleft" unicode="&#x201c;" horiz-adv-x="412" 
d="M324 389q-29 0 -48 20t-19 50q0 44 44.5 96.5t101.5 91.5l38 -40q-72 -59 -88 -91q41 -18 41 -59q0 -27 -20.5 -47.5t-49.5 -20.5zM136 389q-29 0 -48 20t-19 50q0 44 44.5 96.5t101.5 91.5l38 -40q-72 -59 -88 -91q41 -18 41 -59q0 -27 -20.5 -47.5t-49.5 -20.5z" />
    <glyph glyph-name="quotedblright" unicode="&#x201d;" horiz-adv-x="408" 
d="M179 643q29 0 48 -20t19 -50q0 -44 -44.5 -96.5t-101.5 -91.5l-38 40q72 59 88 91q-41 18 -41 59q0 27 20.5 47.5t49.5 20.5zM367 643q29 0 48 -20t19 -50q0 -44 -44.5 -96.5t-101.5 -91.5l-38 40q72 59 88 91q-41 18 -41 59q0 27 20.5 47.5t49.5 20.5z" />
    <glyph glyph-name="quotedblbase" unicode="&#x201e;" horiz-adv-x="410" 
d="M80 128q29 0 48 -20t19 -50q0 -44 -44.5 -96.5t-101.5 -91.5l-38 40q72 59 88 91q-41 18 -41 59q0 27 20.5 47.5t49.5 20.5zM268 128q29 0 48 -20t19 -50q0 -44 -44.5 -96.5t-101.5 -91.5l-38 40q72 59 88 91q-41 18 -41 59q0 27 20.5 47.5t49.5 20.5z" />
    <glyph glyph-name="dagger" unicode="&#x2020;" horiz-adv-x="472" 
d="M179 -101q-11 0 -11 25.5t10.5 107.5t10.5 155t-6 92q4 5 16.5 20.5t18.5 23.5q16 24 16 41t-10 28.5t-28.5 11.5t-49.5 -12.5t-50 -12.5t-30.5 11.5t-11.5 30.5t16 32.5t38.5 13.5t49 -12.5t47.5 -12.5t37 16.5t16 36t-5.5 42.5t-5.5 43.5t15 37t34.5 16.5t31 -11
t11.5 -32t-22 -54.5t-22 -54.5q0 -40 41 -40q16 0 47.5 12.5t51 12.5t30.5 -11t11 -30t-16 -33t-38.5 -14t-49 12.5t-47.5 12.5t-36.5 -15.5t-15.5 -34.5t22 -75q-43 -69 -69 -223q-20 -157 -47 -157z" />
    <glyph glyph-name="daggerdbl" unicode="&#x2021;" horiz-adv-x="502" 
d="M234 30l11 -70q0 -28 -15.5 -45t-35 -17t-30.5 11t-11 32.5t21.5 54.5t21.5 54q0 40 -40 40q-17 0 -48 -12.5t-50.5 -12.5t-30.5 11t-11 30t16 33t38.5 14t49 -12.5t47.5 -12.5t36.5 16t15.5 43.5t-21 78.5q54 69 54 101q0 14 -10 25.5t-28.5 11.5t-50.5 -12.5t-51 -12.5
t-30 11t-11 30t16 33t38.5 14t49.5 -12.5t47.5 -12.5t36.5 16.5t16 43.5l-11 70q0 28 15.5 45t35 17t30.5 -11t11 -32.5t-21.5 -54.5t-21.5 -54q0 -40 40 -40q17 0 48 12.5t50.5 12.5t30.5 -11t11 -30t-15.5 -33t-38.5 -14t-49 12.5t-47.5 12.5t-37 -16t-15.5 -41.5
t20 -80.5q-53 -71 -53 -101q0 -14 10 -25.5t28.5 -11.5t50.5 12.5t51 12.5t30 -11.5t11 -30.5t-15.5 -32.5t-38.5 -13.5t-50 12.5t-47.5 12.5t-36.5 -16.5t-16 -43.5z" />
    <glyph glyph-name="bullet" unicode="&#x2022;" horiz-adv-x="365" 
d="M188 176q-50 0 -85.5 35.5t-35.5 85.5t35.5 85.5t85.5 35.5t85.5 -35.5t35.5 -85.5t-35.5 -85.5t-85.5 -35.5z" />
    <glyph glyph-name="ellipsis" unicode="&#x2026;" horiz-adv-x="795" 
d="M79 -10q-29 0 -49 20t-20 49t20 49t49 20t49 -20t20 -49t-20 -49t-49 -20zM366 -10q-28 0 -48.5 20t-20.5 49t20.5 49t48.5 20t48.5 -20t20.5 -49t-20.5 -49t-48.5 -20zM653 -10q-29 0 -49 20t-20 49t20 49t49 20t49 -20t20 -49t-20 -49t-49 -20z" />
    <glyph glyph-name="perthousand" unicode="&#x2030;" horiz-adv-x="933" 
d="M279 275q-37 -43 -99 -43q-118 0 -118 109q0 61 37 104t99 43q118 0 118 -109q0 -61 -37 -104zM179 290q25 0 42 21.5t17 61.5q0 57 -39 57q-25 0 -42 -21.5t-17 -61.5q0 -57 39 -57zM567 43q-37 -43 -99 -43q-118 0 -118 109q0 61 37 104t99 43q118 0 118 -109
q0 -61 -37 -104zM467 58q25 0 42 21.5t17 61.5q0 57 -39 57q-25 0 -42 -21.5t-17 -61.5q0 -57 39 -57zM112 -3l-41 41l482 451l40 -41zM846 43q-37 -43 -98 -43q-119 0 -119 109q0 61 37 104t98 43q119 0 119 -109q0 -61 -37 -104zM746 58q25 0 42 21.5t17 61.5q0 57 -39 57
q-25 0 -42 -21.5t-17 -61.5q0 -57 39 -57z" />
    <glyph glyph-name="guilsinglleft" unicode="&#x2039;" horiz-adv-x="336" 
d="M149 67l-122 188l1 4l188 188h130l-205 -200l123 -180h-115z" />
    <glyph glyph-name="guilsinglright" unicode="&#x203a;" horiz-adv-x="338" 
d="M-7 67l205 200l-123 180h115l122 -188l-1 -4l-188 -188h-130z" />
    <glyph glyph-name="fraction" unicode="&#x2044;" horiz-adv-x="379" 
d="M1 -20l-50 31l446 618l49 -31z" />
    <glyph glyph-name="Euro" unicode="&#x20ac;" horiz-adv-x="603" 
d="M509 34q-86 -42 -176 -42t-155 51t-76 145h-82l21 37h59q0 32 6 62h-69l21 37h58q29 85 105 136t179.5 51t179.5 -37l-24 -141h-95l14 82q-36 8 -82 8t-92.5 -25.5t-70.5 -73.5h188l-21 -37h-181q-6 -27 -6 -62h154l-21 -37h-130q20 -105 143 -105q72 0 170 46z" />
    <glyph glyph-name="numero" unicode="&#x2116;" horiz-adv-x="1057" 
d="M849 163q-67 0 -110 37t-43 109t50 127.5t134 55.5q67 0 110.5 -37.5t43.5 -109.5t-50 -127t-135 -55zM852 244q39 0 61 31t22 71q0 65 -56 65q-39 0 -61 -30t-22 -72q0 -65 56 -65zM647 18l15 82h328l-15 -82h-328zM-1 0l16 88h80l76 433h-80l15 88h183l186 -424l59 336
h-80l15 88h258l-15 -88h-80l-92 -521h-89l-196 440l-62 -352h80l-16 -88h-258z" />
    <glyph glyph-name="trademark" unicode="&#x2122;" horiz-adv-x="715" 
d="M339 358l7 37h30l36 177h-32l6 37h96l40 -170l98 170h96l-6 -39h-32l-26 -175h30l-7 -37h-110l7 36h33l21 144l-96 -162h-35l-41 166l-29 -147h34l-7 -37h-113zM133 358l7 36h32l30 173h-45l-7 -40h-43l14 82h231l-14 -82h-43l7 40h-45l-30 -173h31l-7 -36h-118z" />
    <glyph glyph-name="minus" unicode="&#x2212;" horiz-adv-x="539" 
d="M46 197l15 86h426l-15 -86h-426z" />
    <glyph glyph-name="approxequal" unicode="&#x2248;" horiz-adv-x="598" 
d="M174 436q25 11 59 11t69.5 -19.5t65 -38.5t54 -19t47.5 17.5t32.5 30.5t24.5 36l59 -32q-37 -66 -78 -108.5t-88 -42.5t-106 40t-88.5 40t-51 -15t-30 -26.5t-29.5 -43.5l-60 30q65 115 120 140zM136 224q26 11 60 11t69.5 -19.5t65 -38.5t54 -19t47.5 17.5t32.5 30.5
t24.5 36l59 -32q-37 -66 -78 -108.5t-88 -42.5t-106 40t-88.5 40t-51 -15t-30 -26.5t-29.5 -43.5l-60 30q65 115 119 140z" />
    <glyph glyph-name="notequal" unicode="&#x2260;" horiz-adv-x="569" 
d="M105 -82l-50 25l91 141h-105l16 90h148l85 132h-210l16 90h253l108 167l50 -26l-92 -141h107l-16 -90h-150l-85 -132h212l-16 -90h-255z" />
    <glyph glyph-name="lessequal" unicode="&#x2264;" horiz-adv-x="504" 
d="M6 27l13 74h406l-13 -74h-406zM428 118l-379 153l10 56l433 153l-15 -86l-288 -99l254 -91z" />
    <glyph glyph-name="greaterequal" unicode="&#x2265;" horiz-adv-x="502" 
d="M11 27l13 74h406l-13 -74h-406zM27 118l15 86l288 99l-254 91l15 86l379 -153l-10 -56z" />
    <glyph glyph-name="OE.smcp" unicode="&#xe04a;" horiz-adv-x="745" 
d="M269 0q-110 0 -174 53.5t-64 157.5q0 121 85 198.5t218 77.5h405l-26 -149h-101l11 64h-145l-20 -114h169l-15 -85h-169l-21 -118h148l12 68h102l-27 -153h-388zM274 88h44l55 311h-44q-76 0 -130 -50t-54 -133q0 -64 34.5 -96t94.5 -32z" />
    <glyph glyph-name="dotaccent.cap" unicode="&#xefed;" horiz-adv-x="239" 
d="M169.5 684.5q-20.5 -20.5 -50 -20.5t-50 20.5t-20.5 49.5t20.5 49.5t49.5 20.5t50 -20.5t21 -49.5t-20.5 -49.5z" />
    <glyph glyph-name="breve.cap" unicode="&#xefee;" horiz-adv-x="386" 
d="M304.5 703q-46.5 -43 -120 -43t-107.5 44q-27 36 -27 85q0 13 2 27h81v-8q0 -29 13.5 -45t48.5 -16q67 0 90 69h81q-15 -70 -61.5 -113z" />
    <glyph glyph-name="ogonek.cap" unicode="&#xeff1;" horiz-adv-x="297" 
d="M172.5 -39.5q-31.5 -34.5 -31.5 -66.5t34 -32t66 14l-5 -65q-48 -19 -98 -19q-96 0 -96 79q0 102 179 171l26 -22q-43 -25 -74.5 -59.5z" />
    <glyph glyph-name="cedilla.cap" unicode="&#xeff2;" horiz-adv-x="304" 
d="M224 -184.5q-40 -23.5 -98 -23.5t-96 15l19 60q35 -13 68 -13q48 0 48 27q0 35 -68 35l6 21l77 112l52 -12l-41 -79q73 -13 73 -74q0 -45 -40 -68.5z" />
    <glyph glyph-name="ring.cap" unicode="&#xeff3;" horiz-adv-x="352" 
d="M274 693q-36 -37 -96.5 -37t-91 27t-30.5 75t36.5 85t97 37t90.5 -27t30 -75t-36 -85zM175 717q23 0 37 18.5t14 42.5q0 40 -35 40q-23 0 -37 -18.5t-14 -42.5q0 -40 35 -40z" />
    <glyph glyph-name="tilde.cap" unicode="&#xeff5;" horiz-adv-x="466" 
d="M116.5 782.5q29.5 24.5 58 24.5t70 -23.5t63 -23.5t36 8.5t21.5 17t18 24.5l37 -22q-13 -25 -28.5 -48.5t-45.5 -48.5t-57 -25t-70.5 23.5t-65.5 23.5q-36 0 -70 -49l-37 21q11 25 26 49t44.5 48.5z" />
    <glyph glyph-name="circumflex.cap" unicode="&#xeff7;" horiz-adv-x="434" 
d="M66 660l-21 33l162 139h74l109 -139l-27 -33l-138 67z" />
    <glyph glyph-name="at.cap" unicode="&#xf633;" horiz-adv-x="755" 
d="M322 113q-55 0 -90 38.5t-35 102.5q0 88 62 154t149.5 66t108.5 -66h3q11 27 26 50h62q-71 -171 -71 -239q0 -54 36 -54q40 0 75 53t35 133q0 106 -66.5 172t-172.5 66q-86 0 -166 -43t-130.5 -120.5t-50.5 -167.5q0 -109 71 -180t181 -71q90 0 176 50l22 -42
q-102 -59 -199 -59q-134 0 -219 87t-85 215q0 156 121.5 269.5t277.5 113.5q128 0 210.5 -81t82.5 -211q0 -105 -51.5 -170.5t-123.5 -65.5q-43 0 -66 23t-25 50h-4q-59 -73 -144 -73zM345 179q52 0 93 48.5t41 108.5q0 73 -63 73q-53 0 -93 -48t-40 -109q0 -73 62 -73z" />
    <glyph glyph-name="Abreve.smcp" unicode="&#xf66d;" horiz-adv-x="586" 
d="M-34 0l15 84h59l184 319h-61l15 84h225l92 -403h60l-15 -84h-233l15 84h68l-13 61h-192l-33 -61h68l-15 -84h-239zM231 229h129l-35 170zM443.5 577.5q-44.5 -40.5 -114 -40.5t-99 37.5t-29.5 84.5q0 12 2 24h77v-6q0 -59 61 -59t84 65h77q-14 -65 -58.5 -105.5z" />
    <glyph glyph-name="Amacron.smcp" unicode="&#xf66e;" horiz-adv-x="586" 
d="M-34 0l15 84h59l184 319h-61l15 84h225l92 -403h60l-15 -84h-233l15 84h68l-13 61h-192l-33 -61h68l-15 -84h-239zM231 229h129l-35 170zM194 547l14 79h270l-14 -79h-270z" />
    <glyph glyph-name="Aogonek.smcp" unicode="&#xf66f;" horiz-adv-x="586" 
d="M508 -186q-48 -18 -91 -18t-68 18.5t-25 55.5q0 75 102 130h-119l15 84h68l-13 61h-192l-33 -61h68l-15 -84h-239l15 84h59l184 319h-61l15 84h225l92 -403h60l-15 -84h-39q-83 -53 -83 -107q0 -31 35 -31q27 0 60 13zM231 229h129l-35 170z" />
    <glyph glyph-name="AEacute.smcp" unicode="&#xf670;" horiz-adv-x="823" 
d="M-35 0l15 84h60l278 320h-61l14 83h545l-26 -149h-99l11 64h-149l-20 -114h173l-15 -85h-173l-21 -118h152l16 68h100l-31 -153h-422l15 84h67l11 62h-191l-51 -62h70l-15 -84h-253zM280 226h139l31 177h-23zM504 530l-33 41l168 157l60 -76z" />
    <glyph glyph-name="Cacute.smcp" unicode="&#xf671;" horiz-adv-x="531" 
d="M455 35q-90 -45 -190.5 -45t-167.5 56t-67 167q0 129 88.5 206.5t220.5 77.5q99 0 191 -39l-25 -144h-105l15 86q-36 9 -75 9q-87 0 -141.5 -52.5t-54.5 -137.5q0 -65 36 -102t106.5 -37t184.5 50zM294 535l-33 41l168 157l60 -76z" />
    <glyph glyph-name="Ccaron.smcp" unicode="&#xf672;" horiz-adv-x="531" 
d="M455 35q-90 -45 -190.5 -45t-167.5 56t-67 167q0 129 88.5 206.5t220.5 77.5q99 0 191 -39l-25 -144h-105l15 86q-36 9 -75 9q-87 0 -141.5 -52.5t-54.5 -137.5q0 -65 36 -102t106.5 -37t184.5 50zM305 541l-103 130l26 31l130 -63l152 63l20 -31l-155 -130h-70z" />
    <glyph glyph-name="Ccircumflex.smcp" unicode="&#xf673;" horiz-adv-x="531" 
d="M455 35q-90 -45 -190.5 -45t-167.5 56t-67 167q0 129 88.5 206.5t220.5 77.5q99 0 191 -39l-25 -144h-105l15 86q-36 9 -75 9q-87 0 -141.5 -52.5t-54.5 -137.5q0 -65 36 -102t106.5 -37t184.5 50zM199 535l-20 31l154 131h70l103 -131l-25 -31l-131 63z" />
    <glyph glyph-name="Cdotaccent.smcp" unicode="&#xf674;" horiz-adv-x="531" 
d="M455 35q-90 -45 -190.5 -45t-167.5 56t-67 167q0 129 88.5 206.5t220.5 77.5q99 0 191 -39l-25 -144h-105l15 86q-36 9 -75 9q-87 0 -141.5 -52.5t-54.5 -137.5q0 -65 36 -102t106.5 -37t184.5 50zM355 538q-27 0 -46.5 19.5t-19.5 46.5t19.5 46.5t46.5 19.5t46.5 -19.5
t19.5 -46.5t-19.5 -46.5t-46.5 -19.5z" />
    <glyph glyph-name="Dcaron.smcp" unicode="&#xf675;" horiz-adv-x="588" 
d="M304 487q120 0 184 -57t64 -160q0 -107 -70 -184q-35 -40 -98 -63t-147 -23h-242l15 84h67l56 319h-67l15 84h223zM241 85q100 0 148.5 52t48.5 133q0 132 -141 132h-54l-56 -317h54zM279 536l-103 130l26 31l130 -63l152 63l20 -31l-155 -130h-70z" />
    <glyph glyph-name="Dcroat.smcp" unicode="&#xf676;" horiz-adv-x="589" 
d="M305 487q120 0 184 -57t64 -160q0 -107 -69 -184q-36 -40 -99 -63t-147 -23h-242l15 84h67l21 122h-60l14 79h60l21 118h-67l15 84h223zM242 85q100 0 148.5 52t48.5 133q0 132 -141 132h-54l-21 -117h119l-14 -79h-119l-21 -121h54z" />
    <glyph glyph-name="Ebreve.smcp" unicode="&#xf677;" horiz-adv-x="514" 
d="M-5 0l15 84h67l56 319h-67l15 84h427l-26 -149h-101l11 64h-149l-20 -114h173l-15 -85h-173l-21 -118h152l12 68h102l-27 -153h-431zM411.5 577.5q-44.5 -40.5 -114 -40.5t-99 37.5t-29.5 84.5q0 12 2 24h77v-6q0 -59 61 -59t84 65h77q-14 -65 -58.5 -105.5z" />
    <glyph glyph-name="Ecaron.smcp" unicode="&#xf678;" horiz-adv-x="514" 
d="M-5 0l15 84h67l56 319h-67l15 84h427l-26 -149h-101l11 64h-149l-20 -114h173l-15 -85h-173l-21 -118h152l12 68h102l-27 -153h-431zM262 536l-103 130l26 31l130 -63l152 63l20 -31l-155 -130h-70z" />
    <glyph glyph-name="Edotaccent.smcp" unicode="&#xf679;" horiz-adv-x="514" 
d="M-5 0l15 84h67l56 319h-67l15 84h427l-26 -149h-101l11 64h-149l-20 -114h173l-15 -85h-173l-21 -118h152l12 68h102l-27 -153h-431zM312 533q-27 0 -46.5 19.5t-19.5 46.5t19.5 46.5t46.5 19.5t46.5 -19.5t19.5 -46.5t-19.5 -46.5t-46.5 -19.5z" />
    <glyph glyph-name="Emacron.smcp" unicode="&#xf67a;" horiz-adv-x="514" 
d="M-5 0l15 84h67l56 319h-67l15 84h427l-26 -149h-101l11 64h-149l-20 -114h173l-15 -85h-173l-21 -118h152l12 68h102l-27 -153h-431zM170 547l14 79h270l-14 -79h-270z" />
    <glyph glyph-name="Eng.smcp" unicode="&#xf67b;" horiz-adv-x="641" 
d="M-5 0l15 84h67l56 319h-67l15 84h163l186 -319l40 235h-75l15 84h242l-15 -84h-67l-68 -388q-6 -35 -23 -62.5t-32.5 -42.5t-46 -29t-42.5 -17.5t-43 -12.5l-26 74q38 13 67.5 37.5t35.5 56.5l3 21l-174 296l-44 -252h76l-15 -84h-243z" />
    <glyph glyph-name="Eogonek.smcp" unicode="&#xf67c;" horiz-adv-x="514" 
d="M299 -107q0 -31 31.5 -31t63.5 13l-5 -61q-48 -18 -91 -18t-68 18.5t-25 55.5q0 75 102 130h-312l15 84h67l56 319h-67l15 84h427l-26 -149h-101l11 64h-149l-20 -114h173l-15 -85h-173l-21 -118h152l12 68h102l-27 -153h-44q-83 -53 -83 -107z" />
    <glyph glyph-name="Gbreve.smcp" unicode="&#xf67d;" 
d="M283 -10q-115 0 -183.5 56t-68.5 175.5t88 197.5t234 78q111 0 199 -37l-24 -133h-102l13 71q-44 10 -86 10q-91 0 -149.5 -49t-58.5 -138q0 -65 35.5 -103.5t113.5 -38.5q46 0 103 16l16 93h-97l14 82h232l-14 -82h-34l-27 -154q-117 -44 -204 -44zM474.5 582.5
q-44.5 -40.5 -114 -40.5t-99 37.5t-29.5 84.5q0 12 2 24h77v-6q0 -59 61 -59t84 65h77q-14 -65 -58.5 -105.5z" />
    <glyph glyph-name="Gcircumflex.smcp" unicode="&#xf67e;" 
d="M283 -10q-115 0 -183.5 56t-68.5 175.5t88 197.5t234 78q111 0 199 -37l-24 -133h-102l13 71q-44 10 -86 10q-91 0 -149.5 -49t-58.5 -138q0 -65 35.5 -103.5t113.5 -38.5q46 0 103 16l16 93h-97l14 82h232l-14 -82h-34l-27 -154q-117 -44 -204 -44zM212 535l-20 31
l154 131h70l103 -131l-25 -31l-131 63z" />
    <glyph glyph-name="Gcommaaccent.smcp" unicode="&#xf67f;" 
d="M202 -72q33 20 62.5 20t43.5 -15.5t14 -40.5q0 -70 -120 -154l-37 33q43 41 52.5 62t9.5 45t-26 46zM283 -10q-115 0 -183.5 56t-68.5 175.5t88 197.5t234 78q111 0 199 -37l-24 -133h-102l13 71q-44 10 -86 10q-91 0 -149.5 -49t-58.5 -138q0 -65 35.5 -103.5
t113.5 -38.5q46 0 103 16l16 93h-97l14 82h232l-14 -82h-34l-27 -154q-117 -44 -204 -44z" />
    <glyph glyph-name="Gdotaccent.smcp" unicode="&#xf680;" 
d="M283 -10q-115 0 -183.5 56t-68.5 175.5t88 197.5t234 78q111 0 199 -37l-24 -133h-102l13 71q-44 10 -86 10q-91 0 -149.5 -49t-58.5 -138q0 -65 35.5 -103.5t113.5 -38.5q46 0 103 16l16 93h-97l14 82h232l-14 -82h-34l-27 -154q-117 -44 -204 -44zM370 538
q-27 0 -46.5 19.5t-19.5 46.5t19.5 46.5t46.5 19.5t46.5 -19.5t19.5 -46.5t-19.5 -46.5t-46.5 -19.5z" />
    <glyph glyph-name="Hbar.smcp" unicode="&#xf681;" horiz-adv-x="657" 
d="M60 328l7 41h60l6 34h-67l15 84h244l-15 -84h-67l-6 -34h223l6 34h-67l15 84h244l-15 -84h-67l-6 -34h60l-7 -41h-60l-43 -244h67l-15 -84h-244l15 84h67l21 118h-223l-21 -118h67l-15 -84h-244l15 84h67l43 244h-60zM223 288h223l7 42h-223z" />
    <glyph glyph-name="Hcircumflex.smcp" unicode="&#xf682;" horiz-adv-x="657" 
d="M238 530l-20 31l154 131h70l103 -131l-25 -31l-131 63zM-5 0l15 84h67l56 319h-67l15 84h244l-15 -84h-67l-20 -115h223l20 115h-67l15 84h244l-15 -84h-67l-56 -319h67l-15 -84h-244l15 84h67l21 118h-223l-21 -118h67l-15 -84h-244z" />
    <glyph glyph-name="Ibreve.smcp" unicode="&#xf683;" horiz-adv-x="324" 
d="M-5 0l15 84h67l56 319h-67l15 84h244l-15 -84h-67l-56 -319h67l-15 -84h-244zM326.5 577.5q-44.5 -40.5 -114 -40.5t-99 37.5t-29.5 84.5q0 12 2 24h77v-6q0 -59 61 -59t84 65h77q-14 -65 -58.5 -105.5z" />
    <glyph glyph-name="Imacron.smcp" unicode="&#xf685;" horiz-adv-x="324" 
d="M-5 0l15 84h67l56 319h-67l15 84h244l-15 -84h-67l-56 -319h67l-15 -84h-244zM77 547l14 79h270l-14 -79h-270z" />
    <glyph glyph-name="Iogonek.smcp" unicode="&#xf686;" horiz-adv-x="324" 
d="M98 -107q0 -31 35 -31q27 0 60 13l-5 -61q-48 -18 -91 -18t-68 18.5t-25 55.5q0 75 102 130h-111l15 84h67l56 319h-67l15 84h244l-15 -84h-67l-56 -319h67l-15 -84h-58q-83 -53 -83 -107z" />
    <glyph glyph-name="Itilde.smcp" unicode="&#xf687;" horiz-adv-x="324" 
d="M-5 0l15 84h67l56 319h-67l15 84h244l-15 -84h-67l-56 -319h67l-15 -84h-244zM123.5 655.5q21.5 12.5 45 12.5t62.5 -22t59.5 -22t35 8t21 16t16.5 23l35 -21q-12 -23 -27 -45t-43.5 -45.5t-54 -23.5t-67 22t-62.5 22q-33 0 -66 -46l-35 20q15 34 37 61.5t43.5 40z" />
    <glyph glyph-name="Jcircumflex.smcp" unicode="&#xf688;" horiz-adv-x="306" 
d="M-20 -149l-26 74q38 13 67.5 37.5t35.5 56.5l68 384h-68l15 84h245l-15 -84h-67l-68 -388q-6 -35 -23 -62.5t-32.5 -42.5t-46 -29t-42.5 -17.5t-43 -12.5zM59 530l-20 31l154 131h70l103 -131l-25 -31l-131 63z" />
    <glyph glyph-name="Kcommaaccent.smcp" unicode="&#xf689;" horiz-adv-x="602" 
d="M226 -67q33 20 62.5 20t43.5 -15.5t14 -40.5q0 -70 -120 -154l-37 33q43 41 52.5 62t9.5 45t-26 46zM387 0l-157 239v1l189 164h-63l15 83h245l-15 -84h-51l-193 -168l103 -151h87l-15 -84h-145zM-5 0l15 84h67l56 319h-67l15 84h244l-15 -84h-67l-56 -319h67l-15 -84
h-244z" />
    <glyph glyph-name="Lacute.smcp" unicode="&#xf68a;" horiz-adv-x="480" 
d="M-5 0l15 84h67l56 319h-67l15 84h253l-15 -84h-76l-56 -318h145l13 73h101l-28 -158h-423zM180 530l-33 41l168 157l60 -76z" />
    <glyph glyph-name="Lcaron.smcp" unicode="&#xf68b;" horiz-adv-x="490" 
d="M378 475q33 20 62.5 20t43.5 -15.5t14 -40.5q0 -70 -120 -154l-37 33q43 41 52.5 62t9.5 45t-26 46zM-5 0l15 84h67l56 319h-67l15 84h253l-15 -84h-76l-56 -318h145l13 73h101l-28 -158h-423z" />
    <glyph glyph-name="Lcommaaccent.smcp" unicode="&#xf68c;" horiz-adv-x="480" 
d="M160 -67q33 20 62.5 20t43.5 -15.5t14 -40.5q0 -70 -120 -154l-37 33q43 41 52.5 62t9.5 45t-26 46zM-5 0l15 84h67l56 319h-67l15 84h253l-15 -84h-76l-56 -318h145l13 73h101l-28 -158h-423z" />
    <glyph glyph-name="Ldot.smcp" unicode="&#xf68d;" horiz-adv-x="481" 
d="M-5 0l15 84h67l56 319h-67l15 84h253l-15 -84h-76l-56 -318h145l13 73h101l-28 -158h-423zM375 209q-27 0 -46.5 19.5t-19.5 46.5t19.5 46.5t46.5 19.5t46.5 -19.5t19.5 -46.5t-19.5 -46.5t-46.5 -19.5z" />
    <glyph glyph-name="Nacute.smcp" unicode="&#xf68e;" horiz-adv-x="641" 
d="M-5 0l15 84h67l56 319h-67l15 84h163l183 -337l43 253h-75l15 84h242l-15 -84h-67l-71 -403h-93l-185 336l-44 -252h76l-15 -84h-243zM323 530l-33 41l168 157l60 -76z" />
    <glyph glyph-name="Ncaron.smcp" unicode="&#xf68f;" horiz-adv-x="641" 
d="M-5 0l15 84h67l56 319h-67l15 84h163l183 -337l43 253h-75l15 84h242l-15 -84h-67l-71 -403h-93l-185 336l-44 -252h76l-15 -84h-243zM325 536l-103 130l26 31l130 -63l152 63l20 -31l-155 -130h-70z" />
    <glyph glyph-name="Ncommaaccent.smcp" unicode="&#xf690;" horiz-adv-x="641" 
d="M228 -67q33 20 62.5 20t43.5 -15.5t14 -40.5q0 -70 -120 -154l-37 33q43 41 52.5 62t9.5 45t-26 46zM-5 0l15 84h67l56 319h-67l15 84h163l183 -337l43 253h-75l15 84h242l-15 -84h-67l-71 -403h-93l-185 336l-44 -252h76l-15 -84h-243z" />
    <glyph glyph-name="Obreve.smcp" unicode="&#xf691;" horiz-adv-x="605" 
d="M268 -10q-109 0 -173.5 58t-64.5 163q0 122 85.5 204t217.5 82q108 0 173 -58.5t65 -163.5q0 -122 -85.5 -203.5t-217.5 -81.5zM273 79q75 0 129.5 54t54.5 128.5t-35 110.5t-102 36t-121.5 -54.5t-54.5 -137.5q0 -65 35.5 -101t93.5 -36zM468.5 582.5
q-44.5 -40.5 -114 -40.5t-99 37.5t-29.5 84.5q0 12 2 24h77v-6q0 -59 61 -59t84 65h77q-14 -65 -58.5 -105.5z" />
    <glyph glyph-name="Ohungarumlaut.smcp" unicode="&#xf692;" horiz-adv-x="605" 
d="M268 -10q-109 0 -173.5 58t-64.5 163q0 122 85.5 204t217.5 82q108 0 173 -58.5t65 -163.5q0 -122 -85.5 -203.5t-217.5 -81.5zM273 79q75 0 129.5 54t54.5 128.5t-35 110.5t-102 36t-121.5 -54.5t-54.5 -137.5q0 -65 35.5 -101t93.5 -36zM245 535l-31 33l143 169l62 -70
zM405 535l-31 33l142 169l63 -70z" />
    <glyph glyph-name="Omacron.smcp" unicode="&#xf693;" horiz-adv-x="605" 
d="M268 -10q-109 0 -173.5 58t-64.5 163q0 122 85.5 204t217.5 82q108 0 173 -58.5t65 -163.5q0 -122 -85.5 -203.5t-217.5 -81.5zM273 79q75 0 129.5 54t54.5 128.5t-35 110.5t-102 36t-121.5 -54.5t-54.5 -137.5q0 -65 35.5 -101t93.5 -36zM219 552l14 79h270l-14 -79
h-270z" />
    <glyph glyph-name="Oslashacute.smcp" unicode="&#xf694;" horiz-adv-x="604" 
d="M318 535l-33 41l168 157l60 -76zM267 -10q-98 0 -159 46l-56 -53l-30 29l56 52q-49 57 -49 147q0 122 85.5 204t217.5 82q95 0 159 -47l57 53l30 -29l-57 -53q49 -57 49 -146q0 -122 -85.5 -203.5t-217.5 -81.5zM272 79q75 0 129.5 54t54.5 137q0 41 -16 75l-255 -237
q34 -29 87 -29zM327 408q-75 0 -129.5 -54.5t-54.5 -137.5q0 -45 16 -76l255 238q-33 30 -87 30z" />
    <glyph glyph-name="Racute.smcp" unicode="&#xf695;" horiz-adv-x="557" 
d="M325 487q95 0 142.5 -40.5t47.5 -101.5t-35.5 -99t-92.5 -56l44 -108h66l-14 -82h-134l-66 171h-81l-15 -87h67l-15 -84h-244l15 84h67l56 319h-67l15 84h244zM294 255q58 0 84 25.5t26 55.5t-20 48t-65 18h-76l-26 -147h77zM267 530l-33 41l168 157l60 -76z" />
    <glyph glyph-name="Rcaron.smcp" unicode="&#xf696;" horiz-adv-x="557" 
d="M325 487q95 0 142.5 -40.5t47.5 -101.5t-35.5 -99t-92.5 -56l44 -108h66l-14 -82h-134l-66 171h-81l-15 -87h67l-15 -84h-244l15 84h67l56 319h-67l15 84h244zM294 255q58 0 84 25.5t26 55.5t-20 48t-65 18h-76l-26 -147h77zM271 536l-103 130l26 31l130 -63l152 63
l20 -31l-155 -130h-70z" />
    <glyph glyph-name="Rcommaaccent.smcp" unicode="&#xf697;" horiz-adv-x="557" 
d="M196 -67q33 20 62.5 20t43.5 -15.5t14 -40.5q0 -70 -120 -154l-37 33q43 41 52.5 62t9.5 45t-26 46zM325 487q95 0 142.5 -40.5t47.5 -101.5t-35.5 -99t-92.5 -56l44 -108h66l-14 -82h-134l-66 171h-81l-15 -87h67l-15 -84h-244l15 84h67l56 319h-67l15 84h244zM294 255
q58 0 84 25.5t26 55.5t-20 48t-65 18h-76l-26 -147h77z" />
    <glyph glyph-name="Sacute.smcp" unicode="&#xf698;" horiz-adv-x="455" 
d="M341.5 29q-54.5 -39 -148.5 -39t-189 29l23 135h100l-11 -71q34 -9 67.5 -9t52.5 4t36 18t17 38.5t-23.5 41.5t-56.5 28t-66.5 25t-57 44.5t-23.5 75.5q0 69 51.5 108.5t143.5 39.5t179 -29l-23 -131h-101l12 70q-37 7 -71 7t-59.5 -14t-25.5 -39.5t23.5 -41t57 -26.5
t67 -26t57 -46.5t23.5 -78.5q0 -74 -54.5 -113zM243 535l-33 41l168 157l60 -76z" />
    <glyph glyph-name="Scedilla.smcp" unicode="&#xf699;" horiz-adv-x="455" 
d="M227 -182q-38 -22 -91.5 -22t-92.5 14l18 56q34 -12 65 -12q45 0 45 26q0 32 -65 32l6 20l41 59q-73 5 -149 28l23 135h100l-11 -71q34 -9 67.5 -9t52.5 4t36 18t17 38.5t-23.5 41.5t-56.5 28t-66.5 25t-57 44.5t-23.5 75.5q0 69 51.5 108.5t143.5 39.5t179 -29l-23 -131
h-101l12 70q-37 7 -71 7t-59.5 -14t-25.5 -39.5t23.5 -41t57 -26.5t67 -26t57 -46.5t23.5 -78.5q0 -69 -47.5 -107.5t-132.5 -43.5l-20 -39q69 -13 69 -70q0 -42 -38 -64z" />
    <glyph glyph-name="Scircumflex.smcp" unicode="&#xf69a;" horiz-adv-x="455" 
d="M341.5 29q-54.5 -39 -148.5 -39t-189 29l23 135h100l-11 -71q34 -9 67.5 -9t52.5 4t36 18t17 38.5t-23.5 41.5t-56.5 28t-66.5 25t-57 44.5t-23.5 75.5q0 69 51.5 108.5t143.5 39.5t179 -29l-23 -131h-101l12 70q-37 7 -71 7t-59.5 -14t-25.5 -39.5t23.5 -41t57 -26.5
t67 -26t57 -46.5t23.5 -78.5q0 -74 -54.5 -113zM144 535l-20 31l154 131h70l103 -131l-25 -31l-131 63z" />
    <glyph glyph-name="Scommaaccent.smcp" unicode="&#xf69b;" horiz-adv-x="455" 
d="M116 -72q33 20 62.5 20t43.5 -15.5t14 -40.5q0 -70 -120 -154l-37 33q43 41 52.5 62t9.5 45t-26 46zM341.5 29q-54.5 -39 -148.5 -39t-189 29l23 135h100l-11 -71q34 -9 67.5 -9t52.5 4t36 18t17 38.5t-23.5 41.5t-56.5 28t-66.5 25t-57 44.5t-23.5 75.5q0 69 51.5 108.5
t143.5 39.5t179 -29l-23 -131h-101l12 70q-37 7 -71 7t-59.5 -14t-25.5 -39.5t23.5 -41t57 -26.5t67 -26t57 -46.5t23.5 -78.5q0 -74 -54.5 -113z" />
    <glyph glyph-name="Tbar.smcp" unicode="&#xf69c;" horiz-adv-x="512" 
d="M89 195l11 62h101l26 145h-79l-13 -75h-99l28 160h466l-28 -160h-99l13 75h-79l-26 -145h103l-11 -62h-103l-19 -111h76l-15 -84h-262l15 84h76l19 111h-101z" />
    <glyph glyph-name="Tcaron.smcp" unicode="&#xf69d;" horiz-adv-x="510" 
d="M79 0l15 84h76l56 318h-79l-13 -75h-99l28 160h466l-28 -160h-99l13 75h-79l-56 -318h76l-15 -84h-262zM260 536l-103 130l26 31l130 -63l152 63l20 -31l-155 -130h-70z" />
    <glyph glyph-name="Tcommaaccent.smcp" unicode="&#xf69e;" horiz-adv-x="510" 
d="M136 -67q33 20 62.5 20t43.5 -15.5t14 -40.5q0 -70 -120 -154l-37 33q43 41 52.5 62t9.5 45t-26 46zM79 0l15 84h76l56 318h-79l-13 -75h-99l28 160h466l-28 -160h-99l13 75h-79l-56 -318h76l-15 -84h-262z" />
    <glyph glyph-name="Ubreve.smcp" unicode="&#xf69f;" horiz-adv-x="592" 
d="M416.5 40q-56.5 -50 -154 -50t-152.5 55q-42 42 -42 107q0 20 4 42l37 209h-65l15 84h244l-15 -84h-69l-39 -220q-3 -15 -3 -36.5t19 -44.5t66 -23t80.5 24t41.5 68l41 232h-71l15 84h240l-15 -84h-65l-40 -225q-16 -88 -72.5 -138zM452.5 577.5q-44.5 -40.5 -114 -40.5
t-99 37.5t-29.5 84.5q0 12 2 24h77v-6q0 -59 61 -59t84 65h77q-14 -65 -58.5 -105.5z" />
    <glyph glyph-name="Uhungarumlaut.smcp" unicode="&#xf6a0;" horiz-adv-x="592" 
d="M416.5 40q-56.5 -50 -154 -50t-152.5 55q-42 42 -42 107q0 20 4 42l37 209h-65l15 84h244l-15 -84h-69l-39 -220q-3 -15 -3 -36.5t19 -44.5t66 -23t80.5 24t41.5 68l41 232h-71l15 84h240l-15 -84h-65l-40 -225q-16 -88 -72.5 -138zM232 530l-31 33l143 169l62 -70z
M392 530l-31 33l142 169l63 -70z" />
    <glyph glyph-name="Umacron.smcp" unicode="&#xf6a1;" horiz-adv-x="592" 
d="M416.5 40q-56.5 -50 -154 -50t-152.5 55q-42 42 -42 107q0 20 4 42l37 209h-65l15 84h244l-15 -84h-69l-39 -220q-3 -15 -3 -36.5t19 -44.5t66 -23t80.5 24t41.5 68l41 232h-71l15 84h240l-15 -84h-65l-40 -225q-16 -88 -72.5 -138zM204 547l14 79h270l-14 -79h-270z" />
    <glyph glyph-name="Uogonek.smcp" unicode="&#xf6a2;" horiz-adv-x="593" 
d="M358 -186q-48 -18 -91 -18t-68 18.5t-25 55.5q0 67 85 120q-98 2 -151 56q-40 42 -40 105q0 20 4 43l37 209h-65l15 84h244l-15 -84h-69l-39 -220q-3 -15 -3 -36.5t19 -44.5t66 -23t80.5 24t41.5 68l41 232h-71l15 84h240l-15 -84h-65l-40 -225q-14 -82 -58 -122
q-33 -31 -73 -51t-65 -51t-25 -60q0 -32 34 -32q28 0 61 13z" />
    <glyph glyph-name="Uring.smcp" unicode="&#xf6a3;" horiz-adv-x="592" 
d="M416.5 40q-56.5 -50 -154 -50t-152.5 55q-42 42 -42 107q0 20 4 42l37 209h-65l15 84h244l-15 -84h-69l-39 -220q-3 -15 -3 -36.5t19 -44.5t66 -23t80.5 24t41.5 68l41 232h-71l15 84h240l-15 -84h-65l-40 -225q-16 -88 -72.5 -138zM443 565q-34 -35 -91.5 -35
t-86.5 25.5t-29 70t35 80t92 35.5t85.5 -25.5t28.5 -70.5t-34 -80zM349 587q22 0 35.5 17.5t13.5 40.5q0 37 -34 37q-21 0 -34.5 -17.5t-13.5 -39.5q0 -38 33 -38z" />
    <glyph glyph-name="Utilde.smcp" unicode="&#xf6a4;" horiz-adv-x="592" 
d="M416.5 40q-56.5 -50 -154 -50t-152.5 55q-42 42 -42 107q0 20 4 42l37 209h-65l15 84h244l-15 -84h-69l-39 -220q-3 -15 -3 -36.5t19 -44.5t66 -23t80.5 24t41.5 68l41 232h-71l15 84h240l-15 -84h-65l-40 -225q-16 -88 -72.5 -138zM253.5 655.5q21.5 12.5 45 12.5
t62.5 -22t59.5 -22t35 8t21 16t16.5 23l35 -21q-12 -23 -27 -45t-43.5 -45.5t-54 -23.5t-67 22t-62.5 22q-33 0 -66 -46l-35 20q15 34 37 61.5t43.5 40z" />
    <glyph glyph-name="Wcircumflex.smcp" unicode="&#xf6a6;" horiz-adv-x="807" 
d="M159 0l-67 403h-64l15 84h237l-14 -80h-71l38 -286l141 263l-4 23h-64l14 80h236l-14 -80h-70l42 -285l141 284h-69l14 81h241l-15 -84h-65l-210 -403h-106l-45 244l-135 -244h-106zM303 530l-20 31l154 131h70l103 -131l-25 -31l-131 63z" />
    <glyph glyph-name="Ycircumflex.smcp" unicode="&#xf6a9;" horiz-adv-x="550" 
d="M97 0l15 84h76l15 84l-113 235h-61l15 84h238l-15 -82h-66l69 -142l119 142h-66l15 82h245l-15 -84h-60l-197 -236l-14 -83h76l-15 -84h-261zM177 530l-20 31l154 131h70l103 -131l-25 -31l-131 63z" />
    <glyph glyph-name="Zacute.smcp" unicode="&#xf6ab;" horiz-adv-x="509" 
d="M10 0l-22 45l336 357h-150l-15 -86h-101l30 171h392l27 -41l-341 -361h173l15 86h100l-30 -171h-414zM255 530l-33 41l168 157l60 -76z" />
    <glyph glyph-name="Zdotaccent.smcp" unicode="&#xf6ac;" horiz-adv-x="509" 
d="M10 0l-22 45l336 357h-150l-15 -86h-101l30 171h392l27 -41l-341 -361h173l15 86h100l-30 -171h-414zM305 533q-27 0 -46.5 19.5t-19.5 46.5t19.5 46.5t46.5 19.5t46.5 -19.5t19.5 -46.5t-19.5 -46.5t-46.5 -19.5z" />
    <glyph glyph-name="Idotaccent.smcp" unicode="&#xf6ad;" horiz-adv-x="324" 
d="M-5 0l15 84h67l56 319h-67l15 84h244l-15 -84h-67l-56 -319h67l-15 -84h-244zM219 533q-27 0 -46.5 19.5t-19.5 46.5t19.5 46.5t46.5 19.5t46.5 -19.5t19.5 -46.5t-19.5 -46.5t-46.5 -19.5z" />
    <glyph glyph-name="parenleft.cap" unicode="&#xf6ae;" horiz-adv-x="294" 
d="M31 202q0 148 62 291t173 263h116q-243 -277 -243 -560q0 -85 21 -177.5t63 -167.5h-113q-38 76 -58.5 171.5t-20.5 179.5z" />
    <glyph glyph-name="parenright.cap" unicode="&#xf6af;" horiz-adv-x="294" 
d="M172 411q0 85 -21 177.5t-63 167.5h113q38 -76 58.5 -171.5t20.5 -179.5q0 -148 -62 -291t-173 -263h-116q243 277 243 560z" />
    <glyph glyph-name="bracketleft.cap" unicode="&#xf6b0;" horiz-adv-x="310" 
d="M3 -149l160 905h217l-14 -77h-113l-132 -751h113l-14 -77h-217z" />
    <glyph glyph-name="bracketright.cap" unicode="&#xf6b1;" horiz-adv-x="310" 
d="M-53 -149l14 77h113l132 751h-113l14 77h217l-160 -905h-217z" />
    <glyph glyph-name="braceleft.cap" unicode="&#xf6b2;" horiz-adv-x="322" 
d="M262 605l3 -103q0 -114 -44 -158q-34 -34 -85 -45q73 -19 73 -119q0 -52 -32.5 -130t-32.5 -105q0 -34 41 -34q23 0 55 6l-12 -69q-40 -10 -68 -10q-60 0 -89 31t-29 72t33 120.5t33 116.5q0 77 -99 84l14 82q53 4 90 28q24 16 39 58q9 25 9 74l-2 77q0 90 34.5 138.5
t120.5 48.5q39 0 74 -11l-11 -67q-22 7 -46.5 7t-38.5 -7.5t-20 -21.5q-10 -25 -10 -63z" />
    <glyph glyph-name="braceright.cap" unicode="&#xf6b3;" horiz-adv-x="323" 
d="M178 104l2 -78q0 -90 -34.5 -138.5t-120.5 -48.5q-39 0 -74 11l11 67q22 -7 46.5 -7t38.5 7.5t20 22.5q10 24 10 62l-3 103q0 114 44 158q34 34 85 45q-73 19 -73 119q0 52 32.5 130t32.5 105q0 34 -41 34q-23 0 -55 -6l12 69q40 10 68 10q60 0 89 -31t29 -72t-33 -120.5
t-33 -116.5q0 -77 99 -84l-14 -82q-53 -4 -90 -28q-24 -16 -39 -58q-9 -25 -9 -73z" />
    <glyph glyph-name="exclamdown.cap" unicode="&#xf6b4;" horiz-adv-x="266" 
d="M27 0l94 433h88l-58 -433h-124zM182 481q-28 0 -48.5 20.5t-20.5 48.5t20.5 48.5t48.5 20.5t48.5 -20.5t20.5 -48.5t-20.5 -48.5t-48.5 -20.5z" />
    <glyph glyph-name="questiondown.cap" unicode="&#xf6b5;" horiz-adv-x="387" 
d="M314 7q-73 -21 -139 -21t-113 34t-47 98q0 42 22 78.5t52 63t60 52.5q62 52 62 106q0 8 -1 15h101q2 -11 2 -32t-14.5 -53.5t-42 -60t-56.5 -51.5q-69 -60 -69 -110q0 -55 76 -55q49 0 122 21zM271 481q-29 0 -49 20.5t-20 48.5t20 48.5t49 20.5t49 -20.5t20 -48.5
t-20 -48.5t-49 -20.5z" />
    <glyph glyph-name="guillemotleft.cap" unicode="&#xf6b6;" horiz-adv-x="597" 
d="M166 114l-122 188l1 4l188 188h130l-205 -200l123 -180h-115zM405 114l-122 188l1 4l188 188h130l-205 -200l123 -180h-115z" />
    <glyph glyph-name="guillemotright.cap" unicode="&#xf6b7;" horiz-adv-x="597" 
d="M251 114l205 200l-123 180h115l122 -188l-1 -4l-188 -188h-130zM12 114l205 200l-123 180h115l122 -188l-1 -4l-188 -188h-130z" />
    <glyph glyph-name="guilsinglleft.cap" unicode="&#xf6b8;" horiz-adv-x="358" 
d="M166 114l-122 188l1 4l188 188h130l-205 -200l123 -180h-115z" />
    <glyph glyph-name="guilsinglright.cap" unicode="&#xf6b9;" horiz-adv-x="358" 
d="M12 114l205 200l-123 180h115l122 -188l-1 -4l-188 -188h-130z" />
    <glyph glyph-name="hyphen.cap" unicode="&#xf6ba;" horiz-adv-x="395" 
d="M53 257l17 95h288l-17 -95h-288z" />
    <glyph glyph-name="endash.cap" unicode="&#xf6bb;" horiz-adv-x="656" 
d="M53 257l17 95h549l-17 -95h-549z" />
    <glyph glyph-name="emdash.cap" unicode="&#xf6bc;" horiz-adv-x="881" 
d="M53 257l17 95h774l-17 -95h-774z" />
    <glyph glyph-name="periodcentered.cap" unicode="&#xf6bd;" horiz-adv-x="229" 
d="M121 235q-29 0 -49 20.5t-20 48.5t20 48.5t49 20.5t49 -20.5t20 -48.5t-20 -48.5t-49 -20.5z" />
    <glyph glyph-name="acute.cap" unicode="&#xf6c9;" horiz-adv-x="346" 
d="M83 660l-35 44l177 167l63 -81z" />
    <glyph glyph-name="caron.cap" unicode="&#xf6ca;" horiz-adv-x="436" 
d="M167 660l-108 139l27 33l137 -67l160 67l21 -33l-163 -139h-74z" />
    <glyph glyph-name="dieresis.cap" unicode="&#xf6cb;" horiz-adv-x="436" 
d="M118 664q-27 0 -46 19t-19 46t19 46t46 19t46 -19t19 -46t-19 -46t-46 -19zM312 664q-27 0 -46 19t-19 46t19 46t46 19t46 -19t19 -46t-19 -46t-46 -19z" />
    <glyph glyph-name="grave.cap" unicode="&#xf6ce;" horiz-adv-x="346" 
d="M238 660l-174 134l72 78l144 -167z" />
    <glyph glyph-name="hungarumlaut.cap" unicode="&#xf6cf;" horiz-adv-x="515" 
d="M92 660l-33 35l150 180l66 -74zM260 660l-33 35l150 180l66 -74z" />
    <glyph glyph-name="macron.cap" unicode="&#xf6d0;" horiz-adv-x="419" 
d="M58 670l15 84h284l-15 -84h-284z" />
    <glyph glyph-name="breve.smcp" unicode="&#xf6f4;" horiz-adv-x="359" 
d="M289.5 577.5q-44.5 -40.5 -114 -40.5t-99 37.5t-29.5 84.5q0 12 2 24h77v-6q0 -59 61 -59t84 65h77q-14 -65 -58.5 -105.5z" />
    <glyph glyph-name="caron.smcp" unicode="&#xf6f5;" horiz-adv-x="405" 
d="M159 536l-103 130l26 31l130 -63l152 63l20 -31l-155 -130h-70z" />
    <glyph glyph-name="circumflex.smcp" unicode="&#xf6f6;" horiz-adv-x="404" 
d="M63 530l-20 31l154 131h70l103 -131l-25 -31l-131 63z" />
    <glyph glyph-name="dotaccent.smcp" unicode="&#xf6f7;" horiz-adv-x="222" 
d="M113 533q-27 0 -46.5 19.5t-19.5 46.5t19.5 46.5t46.5 19.5t46.5 -19.5t19.5 -46.5t-19.5 -46.5t-46.5 -19.5z" />
    <glyph glyph-name="hungarumlaut.smcp" unicode="&#xf6f8;" horiz-adv-x="479" 
d="M87 530l-31 33l143 169l62 -70zM247 530l-31 33l142 169l63 -70z" />
    <glyph glyph-name="Lslash.smcp" unicode="&#xf6f9;" horiz-adv-x="481" 
d="M48 175l-14 53l74 29l26 146h-67l15 84h253l-15 -84h-76l-18 -100l142 55l14 -53l-167 -65l-27 -155h145l13 73h101l-28 -158h-423l15 84h67l19 110z" />
    <glyph glyph-name="ogonek.smcp" unicode="&#xf6fb;" horiz-adv-x="276" 
d="M224 -186q-48 -18 -91 -18t-68 18.5t-25 55.5q0 96 170 161l25 -20q-41 -23 -71 -55.5t-30 -63t31 -30.5t64 13z" />
    <glyph glyph-name="ring.smcp" unicode="&#xf6fc;" horiz-adv-x="327" 
d="M260 565q-34 -35 -91.5 -35t-86.5 25.5t-29 70t35 80t92 35.5t85.5 -25.5t28.5 -70.5t-34 -80zM166 587q22 0 35.5 17.5t13.5 40.5q0 37 -34 37q-21 0 -34.5 -17.5t-13.5 -39.5q0 -38 33 -38z" />
    <glyph glyph-name="Scaron.smcp" unicode="&#xf6fd;" horiz-adv-x="455" 
d="M341.5 29q-54.5 -39 -148.5 -39t-189 29l23 135h100l-11 -71q34 -9 67.5 -9t52.5 4t36 18t17 38.5t-23.5 41.5t-56.5 28t-66.5 25t-57 44.5t-23.5 75.5q0 69 51.5 108.5t143.5 39.5t179 -29l-23 -131h-101l12 70q-37 7 -71 7t-59.5 -14t-25.5 -39.5t23.5 -41t57 -26.5
t67 -26t57 -46.5t23.5 -78.5q0 -74 -54.5 -113zM244 541l-103 130l26 31l130 -63l152 63l20 -31l-155 -130h-70z" />
    <glyph glyph-name="tilde.smcp" unicode="&#xf6fe;" horiz-adv-x="433" 
d="M124.5 655.5q21.5 12.5 45 12.5t62.5 -22t59.5 -22t35 8t21 16t16.5 23l35 -21q-12 -23 -27 -45t-43.5 -45.5t-54 -23.5t-67 22t-62.5 22q-33 0 -66 -46l-35 20q15 34 37 61.5t43.5 40z" />
    <glyph glyph-name="Zcaron.smcp" unicode="&#xf6ff;" horiz-adv-x="509" 
d="M10 0l-22 45l336 357h-150l-15 -86h-101l30 171h392l27 -41l-341 -361h173l15 86h100l-30 -171h-414zM260 536l-103 130l26 31l130 -63l152 63l20 -31l-155 -130h-70z" />
    <glyph glyph-name="exclam.smcp" unicode="&#xf721;" horiz-adv-x="256" 
d="M66 144l44 343h117l-77 -343h-84zM132.5 9q-17.5 -17 -42 -17t-42 17t-17.5 41.5t17.5 41.5t42 17t42 -17t17.5 -41.5t-17.5 -41.5z" />
    <glyph glyph-name="ampersand.smcp" unicode="&#xf726;" horiz-adv-x="558" 
d="M319 33q-68 -43 -144.5 -43t-116 35t-39.5 95q0 93 111 158q-31 43 -31 96.5t44 88t106.5 34.5t93.5 -29.5t31 -73t-28.5 -73t-80.5 -57.5l78 -99q41 52 60 135h124l-14 -78h-45q-28 -73 -72 -124q22 -26 50 -26t46 5l-14 -76q-25 -9 -60 -9q-61 0 -99 41zM187 75
q42 0 82 23l-92 119q-59 -38 -59 -85q0 -57 69 -57zM274 414.5q-9 10.5 -29 10.5t-33 -16t-13 -38.5t20 -47.5q32 17 48 32.5t16 32t-9 27z" />
    <glyph glyph-name="question.smcp" unicode="&#xf73f;" horiz-adv-x="344" 
d="M79 144q0 57 47 108q20 21 40 40q47 46 47 85q0 42 -58 42q-35 0 -97 -14l13 78q61 14 102 14q69 0 109 -27.5t40 -82.5q0 -60 -50 -109q-22 -20 -43 -40q-50 -46 -52 -94h-98zM156.5 9q-17.5 -17 -42 -17t-42 17t-17.5 41.5t17.5 41.5t42 17t42 -17t17.5 -41.5
t-17.5 -41.5z" />
    <glyph glyph-name="grave.smcp" unicode="&#xf760;" horiz-adv-x="322" 
d="M226 530l-165 126l68 73l137 -157z" />
    <glyph glyph-name="A.smcp" unicode="&#xf761;" horiz-adv-x="586" 
d="M-34 0l15 84h59l184 319h-61l15 84h225l92 -403h60l-15 -84h-233l15 84h68l-13 61h-192l-33 -61h68l-15 -84h-239zM231 229h129l-35 170z" />
    <glyph glyph-name="B.smcp" unicode="&#xf762;" horiz-adv-x="533" 
d="M329 487q76 0 123.5 -31.5t47.5 -89.5q0 -43 -28 -74.5t-83 -43.5q39 -10 63 -37.5t24 -67.5q0 -60 -52 -101.5t-152 -41.5h-277l15 83h66l56 321h-66l15 83h248zM274 83q43 0 68.5 20t25.5 47q0 57 -76 57h-87l-21 -124h90zM296 287q45 0 70 19t25 44.5t-17.5 39.5
t-51.5 14h-82l-20 -117h76z" />
    <glyph glyph-name="C.smcp" unicode="&#xf763;" horiz-adv-x="531" 
d="M455 35q-90 -45 -190.5 -45t-167.5 56t-67 167q0 129 88.5 206.5t220.5 77.5q99 0 191 -39l-25 -144h-105l15 86q-36 9 -75 9q-87 0 -141.5 -52.5t-54.5 -137.5q0 -65 36 -102t106.5 -37t184.5 50z" />
    <glyph glyph-name="D.smcp" unicode="&#xf764;" horiz-adv-x="588" 
d="M304 487q120 0 184 -57t64 -160q0 -107 -70 -184q-35 -40 -98 -63t-147 -23h-242l15 84h67l56 319h-67l15 84h223zM241 85q100 0 148.5 52t48.5 133q0 132 -141 132h-54l-56 -317h54z" />
    <glyph glyph-name="E.smcp" unicode="&#xf765;" horiz-adv-x="514" 
d="M-5 0l15 84h67l56 319h-67l15 84h427l-26 -149h-101l11 64h-149l-20 -114h173l-15 -85h-173l-21 -118h152l12 68h102l-27 -153h-431z" />
    <glyph glyph-name="F.smcp" unicode="&#xf766;" horiz-adv-x="481" 
d="M-5 0l15 84h67l56 319h-67l15 84h419l-28 -158h-101l13 72h-141l-23 -129h163l-16 -88h-163l-17 -100h77l-15 -84h-254z" />
    <glyph glyph-name="G.smcp" unicode="&#xf767;" 
d="M283 -10q-115 0 -183.5 56t-68.5 175.5t88 197.5t234 78q111 0 199 -37l-24 -133h-102l13 71q-44 10 -86 10q-91 0 -149.5 -49t-58.5 -138q0 -65 35.5 -103.5t113.5 -38.5q46 0 103 16l16 93h-97l14 82h232l-14 -82h-34l-27 -154q-117 -44 -204 -44z" />
    <glyph glyph-name="H.smcp" unicode="&#xf768;" horiz-adv-x="657" 
d="M-5 0l15 84h67l56 319h-67l15 84h244l-15 -84h-67l-20 -115h223l20 115h-67l15 84h244l-15 -84h-67l-56 -319h67l-15 -84h-244l15 84h67l21 118h-223l-21 -118h67l-15 -84h-244z" />
    <glyph glyph-name="I.smcp" unicode="&#xf769;" horiz-adv-x="324" 
d="M-5 0l15 84h67l56 319h-67l15 84h244l-15 -84h-67l-56 -319h67l-15 -84h-244z" />
    <glyph glyph-name="J.smcp" unicode="&#xf76a;" horiz-adv-x="306" 
d="M-20 -149l-26 74q38 13 67.5 37.5t35.5 56.5l68 384h-68l15 84h245l-15 -84h-67l-68 -388q-6 -35 -23 -62.5t-32.5 -42.5t-46 -29t-42.5 -17.5t-43 -12.5z" />
    <glyph glyph-name="K.smcp" unicode="&#xf76b;" horiz-adv-x="602" 
d="M387 0l-157 239v1l189 164h-63l15 83h245l-15 -84h-51l-193 -168l103 -151h87l-15 -84h-145zM-5 0l15 84h67l56 319h-67l15 84h244l-15 -84h-67l-56 -319h67l-15 -84h-244z" />
    <glyph glyph-name="L.smcp" unicode="&#xf76c;" horiz-adv-x="480" 
d="M-5 0l15 84h67l56 319h-67l15 84h253l-15 -84h-76l-56 -318h145l13 73h101l-28 -158h-423z" />
    <glyph glyph-name="M.smcp" unicode="&#xf76d;" horiz-adv-x="765" 
d="M-4 0l15 84h59l67 321h-60l15 82h213l63 -315l160 315h228l-15 -82h-60l-48 -321h59l-15 -84h-221l15 84h67l43 304l-192 -353h-82l-75 353l-63 -304h68l-15 -84h-226z" />
    <glyph glyph-name="N.smcp" unicode="&#xf76e;" horiz-adv-x="641" 
d="M-5 0l15 84h67l56 319h-67l15 84h163l183 -337l43 253h-75l15 84h242l-15 -84h-67l-71 -403h-93l-185 336l-44 -252h76l-15 -84h-243z" />
    <glyph glyph-name="O.smcp" unicode="&#xf76f;" horiz-adv-x="605" 
d="M268 -10q-109 0 -173.5 58t-64.5 163q0 122 85.5 204t217.5 82q108 0 173 -58.5t65 -163.5q0 -122 -85.5 -203.5t-217.5 -81.5zM273 79q75 0 129.5 54t54.5 128.5t-35 110.5t-102 36t-121.5 -54.5t-54.5 -137.5q0 -65 35.5 -101t93.5 -36z" />
    <glyph glyph-name="P.smcp" unicode="&#xf770;" horiz-adv-x="513" 
d="M312 487q96 0 144 -42.5t48 -105.5t-48 -113q-25 -27 -71.5 -43t-109.5 -16h-74l-14 -83h85l-15 -84h-262l15 84h67l56 319h-67l15 84h231zM282 250q58 0 84.5 27t26.5 57t-19.5 49t-64.5 19h-66l-27 -152h66z" />
    <glyph glyph-name="Q.smcp" unicode="&#xf771;" horiz-adv-x="605" 
d="M30 211q0 122 85.5 204t217.5 82q108 0 173 -58.5t65 -159.5t-55.5 -174.5t-148.5 -101.5l74 -46l-75 -80l-135 115q-93 9 -147 66t-54 153zM273 79q75 0 129.5 54t54.5 128.5t-35 110.5t-102 36t-121.5 -54.5t-54.5 -137.5q0 -65 35.5 -101t93.5 -36z" />
    <glyph glyph-name="R.smcp" unicode="&#xf772;" horiz-adv-x="557" 
d="M325 487q95 0 142.5 -40.5t47.5 -101.5t-35.5 -99t-92.5 -56l44 -108h66l-14 -82h-134l-66 171h-81l-15 -87h67l-15 -84h-244l15 84h67l56 319h-67l15 84h244zM294 255q58 0 84 25.5t26 55.5t-20 48t-65 18h-76l-26 -147h77z" />
    <glyph glyph-name="S.smcp" unicode="&#xf773;" horiz-adv-x="455" 
d="M341.5 29q-54.5 -39 -148.5 -39t-189 29l23 135h100l-11 -71q34 -9 67.5 -9t52.5 4t36 18t17 38.5t-23.5 41.5t-56.5 28t-66.5 25t-57 44.5t-23.5 75.5q0 69 51.5 108.5t143.5 39.5t179 -29l-23 -131h-101l12 70q-37 7 -71 7t-59.5 -14t-25.5 -39.5t23.5 -41t57 -26.5
t67 -26t57 -46.5t23.5 -78.5q0 -74 -54.5 -113z" />
    <glyph glyph-name="T.smcp" unicode="&#xf774;" horiz-adv-x="510" 
d="M79 0l15 84h76l56 318h-79l-13 -75h-99l28 160h466l-28 -160h-99l13 75h-79l-56 -318h76l-15 -84h-262z" />
    <glyph glyph-name="U.smcp" unicode="&#xf775;" horiz-adv-x="592" 
d="M416.5 40q-56.5 -50 -154 -50t-152.5 55q-42 42 -42 107q0 20 4 42l37 209h-65l15 84h244l-15 -84h-69l-39 -220q-3 -15 -3 -36.5t19 -44.5t66 -23t80.5 24t41.5 68l41 232h-71l15 84h240l-15 -84h-65l-40 -225q-16 -88 -72.5 -138z" />
    <glyph glyph-name="V.smcp" unicode="&#xf776;" horiz-adv-x="571" 
d="M185 0l-98 403h-61l15 84h249l-15 -83h-79l60 -281l159 281h-79l15 83h254l-15 -84h-61l-240 -403h-104z" />
    <glyph glyph-name="W.smcp" unicode="&#xf777;" horiz-adv-x="807" 
d="M159 0l-67 403h-64l15 84h237l-14 -80h-71l38 -286l141 263l-4 23h-64l14 80h236l-14 -80h-70l42 -285l141 284h-69l14 81h241l-15 -84h-65l-210 -403h-106l-45 244l-135 -244h-106z" />
    <glyph glyph-name="X.smcp" unicode="&#xf778;" horiz-adv-x="569" 
d="M-23 0l15 84h54l178 164l-106 155h-55l15 84h227l-14 -81h-60l64 -93l101 93h-60l14 81h236l-15 -85h-54l-173 -160l111 -159h51l-15 -83h-229l14 81h62l-65 95l-103 -95h59l-14 -81h-238z" />
    <glyph glyph-name="Y.smcp" unicode="&#xf779;" horiz-adv-x="550" 
d="M97 0l15 84h76l15 84l-113 235h-61l15 84h238l-15 -82h-66l69 -142l119 142h-66l15 82h245l-15 -84h-60l-197 -236l-14 -83h76l-15 -84h-261z" />
    <glyph glyph-name="Z.smcp" unicode="&#xf77a;" horiz-adv-x="509" 
d="M10 0l-22 45l336 357h-150l-15 -86h-101l30 171h392l27 -41l-341 -361h173l15 86h100l-30 -171h-414z" />
    <glyph glyph-name="exclamdown.smcp" unicode="&#xf7a1;" horiz-adv-x="257" 
d="M25 0l77 343h84l-44 -343h-117zM203.5 395q-17.5 -17 -42 -17t-42 17t-17.5 41.5t17.5 41.5t42 17t42 -17t17.5 -41.5t-17.5 -41.5z" />
    <glyph glyph-name="dieresis.smcp" unicode="&#xf7a8;" horiz-adv-x="405" 
d="M108 533q-26 0 -43.5 17.5t-17.5 43.5t17.5 43.5t43.5 17.5t43.5 -17.5t17.5 -43.5t-17.5 -43.5t-43.5 -17.5zM293 533q-25 0 -43 17.5t-18 43.5t18 43.5t43 17.5t43 -17.5t18 -43.5t-18 -43.5t-43 -17.5z" />
    <glyph glyph-name="macron.smcp" unicode="&#xf7af;" horiz-adv-x="390" 
d="M55 547l14 79h270l-14 -79h-270z" />
    <glyph glyph-name="acute.smcp" unicode="&#xf7b4;" horiz-adv-x="322" 
d="M79 530l-33 41l168 157l60 -76z" />
    <glyph glyph-name="cedilla.smcp" unicode="&#xf7b8;" horiz-adv-x="283" 
d="M206 -182q-38 -22 -92 -22t-92 14l18 56q34 -12 65 -12q45 0 45 26q0 32 -65 32l6 20l73 105l50 -11l-39 -74q69 -13 69 -70q0 -42 -38 -64z" />
    <glyph glyph-name="questiondown.smcp" unicode="&#xf7bf;" horiz-adv-x="343" 
d="M166 -10q-69 0 -109 27.5t-40 82.5q0 60 51 108q21 21 42 40q50 47 52 95h98q0 -57 -48 -108q-19 -21 -39 -41q-47 -45 -47 -84q0 -42 58 -42q35 0 97 14l-13 -78q-61 -14 -102 -14zM266.5 395q-17.5 -17 -42 -17t-42 17t-17.5 41.5t17.5 41.5t42 17t42 -17t17.5 -41.5
t-17.5 -41.5z" />
    <glyph glyph-name="Agrave.smcp" unicode="&#xf7e0;" horiz-adv-x="586" 
d="M-34 0l15 84h59l184 319h-61l15 84h225l92 -403h60l-15 -84h-233l15 84h68l-13 61h-192l-33 -61h68l-15 -84h-239zM231 229h129l-35 170zM357 530l-165 126l68 73l137 -157z" />
    <glyph glyph-name="Aacute.smcp" unicode="&#xf7e1;" horiz-adv-x="586" 
d="M-34 0l15 84h59l184 319h-61l15 84h225l92 -403h60l-15 -84h-233l15 84h68l-13 61h-192l-33 -61h68l-15 -84h-239zM231 229h129l-35 170zM271 530l-33 41l168 157l60 -76z" />
    <glyph glyph-name="Acircumflex.smcp" unicode="&#xf7e2;" horiz-adv-x="586" 
d="M-34 0l15 84h59l184 319h-61l15 84h225l92 -403h60l-15 -84h-233l15 84h68l-13 61h-192l-33 -61h68l-15 -84h-239zM231 229h129l-35 170zM187 530l-20 31l154 131h70l103 -131l-25 -31l-131 63z" />
    <glyph glyph-name="Atilde.smcp" unicode="&#xf7e3;" horiz-adv-x="586" 
d="M-34 0l15 84h59l184 319h-61l15 84h225l92 -403h60l-15 -84h-233l15 84h68l-13 61h-192l-33 -61h68l-15 -84h-239zM231 229h129l-35 170zM236.5 655.5q21.5 12.5 45 12.5t62.5 -22t59.5 -22t35 8t21 16t16.5 23l35 -21q-12 -23 -27 -45t-43.5 -45.5t-54 -23.5t-67 22
t-62.5 22q-33 0 -66 -46l-35 20q15 34 37 61.5t43.5 40z" />
    <glyph glyph-name="Adieresis.smcp" unicode="&#xf7e4;" horiz-adv-x="586" 
d="M-34 0l15 84h59l184 319h-61l15 84h225l92 -403h60l-15 -84h-233l15 84h68l-13 61h-192l-33 -61h68l-15 -84h-239zM231 229h129l-35 170zM241 533q-25 0 -43 17.5t-18 43.5t18 43.5t43 17.5t43 -17.5t18 -43.5t-18 -43.5t-43 -17.5zM426 533q-26 0 -43.5 17.5t-17.5 43.5
t17.5 43.5t43.5 17.5t43.5 -17.5t17.5 -43.5t-17.5 -43.5t-43.5 -17.5z" />
    <glyph glyph-name="Aring.smcp" unicode="&#xf7e5;" horiz-adv-x="586" 
d="M-34 0l15 84h59l184 319h-61l15 84h225l92 -403h60l-15 -84h-233l15 84h68l-13 61h-192l-33 -61h68l-15 -84h-239zM231 229h129l-35 170zM431 565q-34 -35 -91.5 -35t-86.5 25.5t-29 70t35 80t92 35.5t85.5 -25.5t28.5 -70.5t-34 -80zM337 587q22 0 35.5 17.5t13.5 40.5
q0 37 -34 37q-21 0 -34.5 -17.5t-13.5 -39.5q0 -38 33 -38z" />
    <glyph glyph-name="AE.smcp" unicode="&#xf7e6;" horiz-adv-x="823" 
d="M-35 0l15 84h60l278 320h-61l14 83h545l-26 -149h-99l11 64h-149l-20 -114h173l-15 -85h-173l-21 -118h152l16 68h100l-31 -153h-422l15 84h67l11 62h-191l-51 -62h70l-15 -84h-253zM280 226h139l31 177h-23z" />
    <glyph glyph-name="Ccedilla.smcp" unicode="&#xf7e7;" horiz-adv-x="531" 
d="M295 -182q-38 -22 -91.5 -22t-92.5 14l18 56q34 -12 65 -12q45 0 45 26q0 32 -65 32l6 20l42 61q-87 12 -139.5 67t-52.5 153q0 129 88.5 206.5t220.5 77.5q99 0 191 -39l-25 -144h-105l15 86q-36 9 -75 9q-87 0 -141.5 -52.5t-54.5 -137.5q0 -65 36 -102t106.5 -37
t184.5 50l-16 -95q-85 -43 -171 -45l-20 -38q69 -13 69 -70q0 -42 -38 -64z" />
    <glyph glyph-name="Egrave.smcp" unicode="&#xf7e8;" horiz-adv-x="514" 
d="M-5 0l15 84h67l56 319h-67l15 84h427l-26 -149h-101l11 64h-149l-20 -114h173l-15 -85h-173l-21 -118h152l12 68h102l-27 -153h-431zM338 530l-165 126l68 73l137 -157z" />
    <glyph glyph-name="Eacute.smcp" unicode="&#xf7e9;" horiz-adv-x="514" 
d="M-5 0l15 84h67l56 319h-67l15 84h427l-26 -149h-101l11 64h-149l-20 -114h173l-15 -85h-173l-21 -118h152l12 68h102l-27 -153h-431zM261 530l-33 41l168 157l60 -76z" />
    <glyph glyph-name="Ecircumflex.smcp" unicode="&#xf7ea;" horiz-adv-x="514" 
d="M-5 0l15 84h67l56 319h-67l15 84h427l-26 -149h-101l11 64h-149l-20 -114h173l-15 -85h-173l-21 -118h152l12 68h102l-27 -153h-431zM163 530l-20 31l154 131h70l103 -131l-25 -31l-131 63z" />
    <glyph glyph-name="Edieresis.smcp" unicode="&#xf7eb;" horiz-adv-x="514" 
d="M-5 0l15 84h67l56 319h-67l15 84h427l-26 -149h-101l11 64h-149l-20 -114h173l-15 -85h-173l-21 -118h152l12 68h102l-27 -153h-431zM214 533q-26 0 -43.5 17.5t-17.5 43.5t17.5 43.5t43.5 17.5t43.5 -17.5t17.5 -43.5t-17.5 -43.5t-43.5 -17.5zM399 533q-25 0 -43 17.5
t-18 43.5t18 43.5t43 17.5t43 -17.5t18 -43.5t-18 -43.5t-43 -17.5z" />
    <glyph glyph-name="Igrave.smcp" unicode="&#xf7ec;" horiz-adv-x="324" 
d="M-5 0l15 84h67l56 319h-67l15 84h244l-15 -84h-67l-56 -319h67l-15 -84h-244zM255 530l-165 126l68 73l137 -157z" />
    <glyph glyph-name="Iacute.smcp" unicode="&#xf7ed;" horiz-adv-x="324" 
d="M-5 0l15 84h67l56 319h-67l15 84h244l-15 -84h-67l-56 -319h67l-15 -84h-244zM171 530l-33 41l168 157l60 -76z" />
    <glyph glyph-name="Icircumflex.smcp" unicode="&#xf7ee;" horiz-adv-x="324" 
d="M-5 0l15 84h67l56 319h-67l15 84h244l-15 -84h-67l-56 -319h67l-15 -84h-244zM67 530l-20 31l154 131h70l103 -131l-25 -31l-131 63z" />
    <glyph glyph-name="Idieresis.smcp" unicode="&#xf7ef;" horiz-adv-x="324" 
d="M-5 0l15 84h67l56 319h-67l15 84h244l-15 -84h-67l-56 -319h67l-15 -84h-244zM123 533q-25 0 -43 17.5t-18 43.5t18 43.5t43 17.5t43 -17.5t18 -43.5t-18 -43.5t-43 -17.5zM308 533q-26 0 -43.5 17.5t-17.5 43.5t17.5 43.5t43.5 17.5t43.5 -17.5t17.5 -43.5t-17.5 -43.5
t-43.5 -17.5z" />
    <glyph glyph-name="Eth.smcp" unicode="&#xf7f0;" horiz-adv-x="589" 
d="M305 487q120 0 184 -57t64 -160q0 -107 -69 -184q-36 -40 -99 -63t-147 -23h-242l15 84h67l21 122h-60l14 79h60l21 118h-67l15 84h223zM242 85q100 0 148.5 52t48.5 133q0 132 -141 132h-54l-21 -117h119l-14 -79h-119l-21 -121h54z" />
    <glyph glyph-name="Ntilde.smcp" unicode="&#xf7f1;" horiz-adv-x="641" 
d="M-5 0l15 84h67l56 319h-67l15 84h163l183 -337l43 253h-75l15 84h242l-15 -84h-67l-71 -403h-93l-185 336l-44 -252h76l-15 -84h-243zM278.5 655.5q21.5 12.5 45 12.5t62.5 -22t59.5 -22t35 8t21 16t16.5 23l35 -21q-12 -23 -27 -45t-43.5 -45.5t-54 -23.5t-67 22
t-62.5 22q-33 0 -66 -46l-35 20q15 34 37 61.5t43.5 40z" />
    <glyph glyph-name="Ograve.smcp" unicode="&#xf7f2;" horiz-adv-x="605" 
d="M268 -10q-109 0 -173.5 58t-64.5 163q0 122 85.5 204t217.5 82q108 0 173 -58.5t65 -163.5q0 -122 -85.5 -203.5t-217.5 -81.5zM273 79q75 0 129.5 54t54.5 128.5t-35 110.5t-102 36t-121.5 -54.5t-54.5 -137.5q0 -65 35.5 -101t93.5 -36zM382 535l-165 126l68 73
l137 -157z" />
    <glyph glyph-name="Oacute.smcp" unicode="&#xf7f3;" horiz-adv-x="605" 
d="M268 -10q-109 0 -173.5 58t-64.5 163q0 122 85.5 204t217.5 82q108 0 173 -58.5t65 -163.5q0 -122 -85.5 -203.5t-217.5 -81.5zM273 79q75 0 129.5 54t54.5 128.5t-35 110.5t-102 36t-121.5 -54.5t-54.5 -137.5q0 -65 35.5 -101t93.5 -36zM319 535l-33 41l168 157l60 -76
z" />
    <glyph glyph-name="Ocircumflex.smcp" unicode="&#xf7f4;" horiz-adv-x="605" 
d="M268 -10q-109 0 -173.5 58t-64.5 163q0 122 85.5 204t217.5 82q108 0 173 -58.5t65 -163.5q0 -122 -85.5 -203.5t-217.5 -81.5zM273 79q75 0 129.5 54t54.5 128.5t-35 110.5t-102 36t-121.5 -54.5t-54.5 -137.5q0 -65 35.5 -101t93.5 -36zM212 535l-20 31l154 131h70
l103 -131l-25 -31l-131 63z" />
    <glyph glyph-name="Otilde.smcp" unicode="&#xf7f5;" horiz-adv-x="605" 
d="M268 -10q-109 0 -173.5 58t-64.5 163q0 122 85.5 204t217.5 82q108 0 173 -58.5t65 -163.5q0 -122 -85.5 -203.5t-217.5 -81.5zM273 79q75 0 129.5 54t54.5 128.5t-35 110.5t-102 36t-121.5 -54.5t-54.5 -137.5q0 -65 35.5 -101t93.5 -36zM263.5 660.5q21.5 12.5 45 12.5
t62.5 -22t59.5 -22t35 8t21 16t16.5 23l35 -21q-12 -23 -27 -45t-43.5 -45.5t-54 -23.5t-67 22t-62.5 22q-33 0 -66 -46l-35 20q15 34 37 61.5t43.5 40z" />
    <glyph glyph-name="Odieresis.smcp" unicode="&#xf7f6;" horiz-adv-x="605" 
d="M268 -10q-109 0 -173.5 58t-64.5 163q0 122 85.5 204t217.5 82q108 0 173 -58.5t65 -163.5q0 -122 -85.5 -203.5t-217.5 -81.5zM273 79q75 0 129.5 54t54.5 128.5t-35 110.5t-102 36t-121.5 -54.5t-54.5 -137.5q0 -65 35.5 -101t93.5 -36zM266 538q-26 0 -43.5 18
t-17.5 43t17.5 43t43.5 18t43.5 -18t17.5 -43t-17.5 -43t-43.5 -18zM451 538q-25 0 -43 18t-18 43t18 43t43 18t43 -18t18 -43t-18 -43t-43 -18z" />
    <glyph glyph-name="Oslash.smcp" unicode="&#xf7f8;" horiz-adv-x="604" 
d="M267 -10q-98 0 -159 46l-56 -53l-30 29l56 52q-49 57 -49 147q0 122 85.5 204t217.5 82q95 0 159 -47l57 53l30 -29l-57 -53q49 -57 49 -146q0 -122 -85.5 -203.5t-217.5 -81.5zM272 79q75 0 129.5 54t54.5 137q0 41 -16 75l-255 -237q34 -29 87 -29zM327 408
q-75 0 -129.5 -54.5t-54.5 -137.5q0 -45 16 -76l255 238q-33 30 -87 30z" />
    <glyph glyph-name="Ugrave.smcp" unicode="&#xf7f9;" horiz-adv-x="592" 
d="M416.5 40q-56.5 -50 -154 -50t-152.5 55q-42 42 -42 107q0 20 4 42l37 209h-65l15 84h244l-15 -84h-69l-39 -220q-3 -15 -3 -36.5t19 -44.5t66 -23t80.5 24t41.5 68l41 232h-71l15 84h240l-15 -84h-65l-40 -225q-16 -88 -72.5 -138zM375 530l-165 126l68 73l137 -157z
" />
    <glyph glyph-name="Uacute.smcp" unicode="&#xf7fa;" horiz-adv-x="592" 
d="M416.5 40q-56.5 -50 -154 -50t-152.5 55q-42 42 -42 107q0 20 4 42l37 209h-65l15 84h244l-15 -84h-69l-39 -220q-3 -15 -3 -36.5t19 -44.5t66 -23t80.5 24t41.5 68l41 232h-71l15 84h240l-15 -84h-65l-40 -225q-16 -88 -72.5 -138zM307 530l-33 41l168 157l60 -76z" />
    <glyph glyph-name="Ucircumflex.smcp" unicode="&#xf7fb;" horiz-adv-x="592" 
d="M416.5 40q-56.5 -50 -154 -50t-152.5 55q-42 42 -42 107q0 20 4 42l37 209h-65l15 84h244l-15 -84h-69l-39 -220q-3 -15 -3 -36.5t19 -44.5t66 -23t80.5 24t41.5 68l41 232h-71l15 84h240l-15 -84h-65l-40 -225q-16 -88 -72.5 -138zM199 530l-20 31l154 131h70l103 -131
l-25 -31l-131 63z" />
    <glyph glyph-name="Udieresis.smcp" unicode="&#xf7fc;" horiz-adv-x="592" 
d="M416.5 40q-56.5 -50 -154 -50t-152.5 55q-42 42 -42 107q0 20 4 42l37 209h-65l15 84h244l-15 -84h-69l-39 -220q-3 -15 -3 -36.5t19 -44.5t66 -23t80.5 24t41.5 68l41 232h-71l15 84h240l-15 -84h-65l-40 -225q-16 -88 -72.5 -138zM255 533q-25 0 -43 17.5t-18 43.5
t18 43.5t43 17.5t43 -17.5t18 -43.5t-18 -43.5t-43 -17.5zM440 533q-26 0 -43.5 17.5t-17.5 43.5t17.5 43.5t43.5 17.5t43.5 -17.5t17.5 -43.5t-17.5 -43.5t-43.5 -17.5z" />
    <glyph glyph-name="Yacute.smcp" unicode="&#xf7fd;" horiz-adv-x="550" 
d="M97 0l15 84h76l15 84l-113 235h-61l15 84h238l-15 -82h-66l69 -142l119 142h-66l15 82h245l-15 -84h-60l-197 -236l-14 -83h76l-15 -84h-261zM284 530l-33 41l168 157l60 -76z" />
    <glyph glyph-name="Thorn.smcp" unicode="&#xf7fe;" horiz-adv-x="504" 
d="M305 383q90 0 132.5 -36t42.5 -98q0 -50 -34 -91q-20 -24 -64.5 -38.5t-109.5 -14.5h-85l-4 -21h78l-15 -84h-248l15 84h60l56 319h-60l15 84h248l-15 -85h-78l-3 -19h69zM282 188q86 0 86 59q0 52 -67 52h-80l-20 -111h81z" />
    <glyph glyph-name="Ydieresis.smcp" unicode="&#xf7ff;" horiz-adv-x="550" 
d="M97 0l15 84h76l15 84l-113 235h-61l15 84h238l-15 -82h-66l69 -142l119 142h-66l15 82h245l-15 -84h-60l-197 -236l-14 -83h76l-15 -84h-261zM231 533q-25 0 -43 17.5t-18 43.5t18 43.5t43 17.5t43 -17.5t18 -43.5t-18 -43.5t-43 -17.5zM416 533q-26 0 -43.5 17.5
t-17.5 43.5t17.5 43.5t43.5 17.5t43.5 -17.5t17.5 -43.5t-17.5 -43.5t-43.5 -17.5z" />
    <glyph glyph-name="s_t" unicode="&#xfb06;" horiz-adv-x="747" 
d="M574 106q0 -30 46 -30q28 0 85 20l-15 -83q-52 -24 -117.5 -24t-92.5 38q-20 27 -20 66q0 16 3 33l38 217h-74l16 89h74l16 96h-122q-53 0 -82.5 -18t-33.5 -75q28 -6 60 -17l-14 -80q-62 24 -117 24q-74 0 -74 -42q0 -19 20 -32t48.5 -23t57 -23.5t48.5 -41t20 -59.5
t-7.5 -54t-26.5 -46q-41 -52 -156 -52q-84 0 -154 31l14 83q73 -31 138 -31q80 0 80 45q0 38 -97 67q-36 10 -66.5 40.5t-30.5 83t43 92t125 43.5q6 86 64.5 124t148.5 38h242l-31 -173h115l-16 -89h-114l-40 -227q-1 -6 -1 -10z" />
    <glyph glyph-name="glyph19" horiz-adv-x="425" 
d="M0 0l107 609h425l-107 -609h-425zM66 42h306l-113 226zM465 567h-306l113 -227zM475 520l-184 -216l108 -216zM58 88l184 216l-108 216z" />
    <glyph glyph-name="zero.lf" horiz-adv-x="555" 
d="M375.5 25q-59.5 -37 -146.5 -37t-135 56q-49 57 -49 184q0 109 35 202q20 55 52 96.5t84.5 68t119.5 26.5q93 0 142 -56t49 -183q0 -143 -61 -260q-31 -60 -90.5 -97zM251 75q42 0 74.5 31t50.5 80q34 95 34 199q0 149 -88 149q-43 0 -76 -32t-50 -82q-34 -96 -34 -197
q0 -148 89 -148z" />
    <glyph glyph-name="one.lf" horiz-adv-x="391" 
d="M206 515q-42 -38 -80 -38t-50 22q-6 10 -6 23.5t8 31.5l158 55h99l-92 -524h85l-15 -85h-304l15 85h107z" />
    <glyph glyph-name="two.lf" horiz-adv-x="531" 
d="M111.5 6q-15.5 -17 -46 -17t-48 18t-17.5 54t31 68q36 37 150 112q92 60 109 75.5t34.5 31.5t25 27t16.5 26q15 25 15 60q0 73 -84 73q-46 0 -84 -17q4 -9 4 -28t-17.5 -37.5t-49.5 -18.5t-48 18t-16 44q0 56 65.5 91t156 35t140 -42.5t49.5 -114.5q0 -45 -20.5 -87
t-51 -73t-72 -61.5t-77.5 -50.5q-99 -55 -129 -78q5 1 23 1t67.5 -13t67 -13t31.5 7.5t21 15t13 24.5t11 40h102q-11 -73 -40 -124q-35 -62 -124 -62q-51 0 -109 27.5t-79 27.5h-1q-3 -22 -18.5 -39z" />
    <glyph glyph-name="three.lf" horiz-adv-x="516" 
d="M219 -12q-83 0 -147 28.5t-64 84.5q0 30 19.5 49.5t49 19.5t47 -15t17.5 -34.5t-6 -34.5q36 -14 74 -14q65 0 100 31.5t35 77.5t-35.5 68.5t-94.5 22.5h-33l16 82h29q73 0 111.5 29.5t38.5 77.5q0 75 -88 75q-44 0 -75 -14q4 -9 4 -20q0 -26 -19 -44.5t-49.5 -18.5
t-46.5 18t-16 44q0 56 66 88t151 32t137 -38t52 -103q0 -124 -137 -165q106 -40 106 -141q0 -77 -63 -131.5t-179 -54.5z" />
    <glyph glyph-name="four.lf" horiz-adv-x="511" 
d="M242 616q18 6 34 6t29 -7q25 -14 25 -52q0 -64 -66 -165t-134 -161h164l11 61q34 42 80 128h48l-34 -189h81l-14 -82h-78l-13 -76h77l-14 -79h-282l14 79h92l13 76h-248l-27 75q88 86 156.5 193t85.5 193z" />
    <glyph glyph-name="five.lf" horiz-adv-x="525" 
d="M237 -12q-85 0 -149 35t-64 92q0 31 19 50.5t50 19.5t46.5 -17.5t15.5 -37.5t-6 -35q33 -20 88 -20t92.5 35.5t37.5 90t-27.5 80.5t-70 26t-77.5 -18t-55 -41l-73 35q53 127 87 326h348q4 -19 4 -34q0 -74 -91 -74q-26 0 -96.5 7.5t-87.5 8.5q-13 -79 -41 -155
q52 31 119.5 31t122 -47t54.5 -139t-66.5 -155.5t-179.5 -63.5z" />
    <glyph glyph-name="six.lf" horiz-adv-x="536" 
d="M421.5 53.5q-66.5 -65.5 -169.5 -65.5t-157.5 53.5t-54.5 170.5q0 141 72 268q36 63 96 102t133 39t122.5 -32t49.5 -80q0 -28 -17 -48.5t-48 -20.5t-49.5 16.5t-18.5 36.5t9 36q-23 9 -46 9q-67 0 -111.5 -60.5t-62.5 -144.5q57 57 141.5 57t131 -46t46.5 -135.5
t-66.5 -155zM174 99.5q24 -26.5 75.5 -26.5t86.5 40t35 93q0 105 -88 105q-56 0 -94.5 -40t-38.5 -92.5t24 -79z" />
    <glyph glyph-name="seven.lf" horiz-adv-x="486" 
d="M203 -13q-61 0 -61 60q0 75 74.5 206.5t168.5 250.5q-11 -2 -29 -2t-59.5 10.5t-73.5 10.5q-63 0 -77 -89h-95l31 175h85l-11 -61q15 31 35.5 48t54.5 17t80.5 -21.5t74.5 -21.5h2q17 50 66 50q28 0 42.5 -15.5t14.5 -40.5t-28 -62q-64 -86 -93 -128t-68 -110t-58.5 -131
t-27.5 -138q-26 -8 -48 -8z" />
    <glyph glyph-name="eight.lf" horiz-adv-x="541" 
d="M419.5 44q-68.5 -56 -180.5 -56t-164.5 44.5t-52.5 114.5t42 114.5t106 63.5q-75 36 -75 114.5t60 130t162 51.5t149.5 -40.5t47.5 -98.5t-32 -100.5t-93 -61.5q99 -37 99 -138q0 -82 -68.5 -138zM137 159q0 -88 107 -88q56 0 92.5 34t36.5 81q0 92 -101 92
q-60 0 -97.5 -33t-37.5 -86zM403 468q0 72 -89 72q-46 0 -77.5 -27.5t-31.5 -67.5t22 -61t67 -21t77 30.5t32 74.5z" />
    <glyph glyph-name="nine.lf" horiz-adv-x="541" 
d="M370.5 29.5q-58.5 -41.5 -134 -41.5t-136 29t-60.5 84q0 31 19.5 49t48 18t45.5 -17t17 -36.5t-4 -30.5q27 -12 64 -12q124 0 158 213q-56 -66 -141 -66t-133 47.5t-48 137.5t66.5 153.5t171.5 63.5q210 0 210 -236q0 -127 -56 -249q-29 -65 -87.5 -106.5zM379 506.5
q-25 28.5 -76.5 28.5t-86 -40t-34.5 -90.5t23 -78t73 -27.5t88 41t38 89.5t-25 77z" />
    <glyph glyph-name="a.alt" horiz-adv-x="483" 
d="M275 47q-72 -58 -137.5 -58t-103 31.5t-37.5 97t57.5 101.5t157.5 36h83l5 27q2 13 2 29.5t-15 31t-74 14.5t-140 -23l15 85q82 24 166 24t128 -40q34 -30 34 -83q0 -17 -3 -36l-29 -164q-1 -7 -1 -14q0 -32 35 -32q22 0 44 8l-14 -83q-38 -10 -72 -10q-81 0 -101 58z
M112 119q0 -47 49 -47t110 46l11 67h-65q-105 0 -105 -66z" />
    <glyph glyph-name="agrave.alt" horiz-adv-x="483" 
d="M275 47q-72 -58 -137.5 -58t-103 31.5t-37.5 97t57.5 101.5t157.5 36h83l5 27q2 13 2 29.5t-15 31t-74 14.5t-140 -23l15 85q82 24 166 24t128 -40q34 -30 34 -83q0 -17 -3 -36l-29 -164q-1 -7 -1 -14q0 -32 35 -32q22 0 44 8l-14 -83q-38 -10 -72 -10q-81 0 -101 58z
M112 119q0 -47 49 -47t110 46l11 67h-65q-105 0 -105 -66zM310 503l-174 134l72 78l144 -167z" />
    <glyph glyph-name="aacute.alt" horiz-adv-x="483" 
d="M275 47q-72 -58 -137.5 -58t-103 31.5t-37.5 97t57.5 101.5t157.5 36h83l5 27q2 13 2 29.5t-15 31t-74 14.5t-140 -23l15 85q82 24 166 24t128 -40q34 -30 34 -83q0 -17 -3 -36l-29 -164q-1 -7 -1 -14q0 -32 35 -32q22 0 44 8l-14 -83q-38 -10 -72 -10q-81 0 -101 58z
M112 119q0 -47 49 -47t110 46l11 67h-65q-105 0 -105 -66zM234 503l-35 44l177 167l63 -81z" />
    <glyph glyph-name="acircumflex.alt" horiz-adv-x="483" 
d="M275 47q-72 -58 -137.5 -58t-103 31.5t-37.5 97t57.5 101.5t157.5 36h83l5 27q2 13 2 29.5t-15 31t-74 14.5t-140 -23l15 85q82 24 166 24t128 -40q34 -30 34 -83q0 -17 -3 -36l-29 -164q-1 -7 -1 -14q0 -32 35 -32q22 0 44 8l-14 -83q-38 -10 -72 -10q-81 0 -101 58z
M112 119q0 -47 49 -47t110 46l11 67h-65q-105 0 -105 -66zM122 498l-21 33l162 139h74l109 -139l-27 -33l-138 67z" />
    <glyph glyph-name="atilde.alt" horiz-adv-x="483" 
d="M275 47q-72 -58 -137.5 -58t-103 31.5t-37.5 97t57.5 101.5t157.5 36h83l5 27q2 13 2 29.5t-15 31t-74 14.5t-140 -23l15 85q82 24 166 24t128 -40q34 -30 34 -83q0 -17 -3 -36l-29 -164q-1 -7 -1 -14q0 -32 35 -32q22 0 44 8l-14 -83q-38 -10 -72 -10q-81 0 -101 58z
M112 119q0 -47 49 -47t110 46l11 67h-65q-105 0 -105 -66zM168.5 620.5q29.5 24.5 58 24.5t70 -23.5t63 -23.5t36 8.5t21.5 17t18 24.5l37 -22q-13 -25 -28.5 -48.5t-45.5 -48.5t-57 -25t-70.5 23.5t-65.5 23.5q-36 0 -70 -49l-37 21q11 25 26 49t44.5 48.5z" />
    <glyph glyph-name="adieresis.alt" horiz-adv-x="483" 
d="M275 47q-72 -58 -137.5 -58t-103 31.5t-37.5 97t57.5 101.5t157.5 36h83l5 27q2 13 2 29.5t-15 31t-74 14.5t-140 -23l15 85q82 24 166 24t128 -40q34 -30 34 -83q0 -17 -3 -36l-29 -164q-1 -7 -1 -14q0 -32 35 -32q22 0 44 8l-14 -83q-38 -10 -72 -10q-81 0 -101 58z
M112 119q0 -47 49 -47t110 46l11 67h-65q-105 0 -105 -66zM182 501q-27 0 -46 19t-19 46t19 46t46 19t46 -19t19 -46t-19 -46t-46 -19zM376 501q-27 0 -46 19t-19 46t19 46t46 19t46 -19t19 -46t-19 -46t-46 -19z" />
    <glyph glyph-name="aring.alt" horiz-adv-x="483" 
d="M275 47q-72 -58 -137.5 -58t-103 31.5t-37.5 97t57.5 101.5t157.5 36h83l5 27q2 13 2 29.5t-15 31t-74 14.5t-140 -23l15 85q82 24 166 24t128 -40q34 -30 34 -83q0 -17 -3 -36l-29 -164q-1 -7 -1 -14q0 -32 35 -32q22 0 44 8l-14 -83q-38 -10 -72 -10q-81 0 -101 58z
M112 119q0 -47 49 -47t110 46l11 67h-65q-105 0 -105 -66zM374 535q-36 -37 -96.5 -37t-91 27t-30.5 75t36.5 85t97 37t90.5 -27t30 -75t-36 -85zM275 559q23 0 37 18.5t14 42.5q0 40 -35 40q-23 0 -37 -18.5t-14 -42.5q0 -40 35 -40z" />
    <glyph glyph-name="amacron.alt" horiz-adv-x="483" 
d="M275 47q-72 -58 -137.5 -58t-103 31.5t-37.5 97t57.5 101.5t157.5 36h83l5 27q2 13 2 29.5t-15 31t-74 14.5t-140 -23l15 85q82 24 166 24t128 -40q34 -30 34 -83q0 -17 -3 -36l-29 -164q-1 -7 -1 -14q0 -32 35 -32q22 0 44 8l-14 -83q-38 -10 -72 -10q-81 0 -101 58z
M112 119q0 -47 49 -47t110 46l11 67h-65q-105 0 -105 -66zM126 517l15 84h284l-15 -84h-284z" />
    <glyph glyph-name="abreve.alt" horiz-adv-x="483" 
d="M275 47q-72 -58 -137.5 -58t-103 31.5t-37.5 97t57.5 101.5t157.5 36h83l5 27q2 13 2 29.5t-15 31t-74 14.5t-140 -23l15 85q82 24 166 24t128 -40q34 -30 34 -83q0 -17 -3 -36l-29 -164q-1 -7 -1 -14q0 -32 35 -32q22 0 44 8l-14 -83q-38 -10 -72 -10q-81 0 -101 58z
M112 119q0 -47 49 -47t110 46l11 67h-65q-105 0 -105 -66zM389.5 549q-46.5 -43 -120 -43t-107.5 44q-27 36 -27 85q0 13 2 27h81v-8q0 -29 13.5 -45t48.5 -16q67 0 90 69h81q-15 -70 -61.5 -113z" />
    <glyph glyph-name="aogonek.alt" horiz-adv-x="483" 
d="M320 -208q-96 0 -96 79q0 74 92 129q-29 14 -41 47q-72 -58 -137.5 -58t-103 31.5t-37.5 97t57.5 101.5t157.5 36h83l5 27q2 13 2 29.5t-15 31t-74 14.5t-140 -23l15 85q82 24 166 24t128 -40q34 -30 34 -83q0 -17 -3 -36l-29 -164q-1 -7 -1 -14q0 -32 35 -32q22 0 44 8
l-14 -83q-38 -9 -65 -10q-60 -49 -60 -94q0 -33 34 -33t66 14l-5 -65q-47 -19 -98 -19zM112 119q0 -47 49 -47t110 46l11 67h-65q-105 0 -105 -66z" />
    <glyph glyph-name="g.alt" horiz-adv-x="519" 
d="M314 53q-55 -55 -128 -55t-118.5 50.5t-45.5 152t64 172t158 70.5t133 -81l13 70h104l-85 -479q-15 -84 -73 -123.5t-152.5 -39.5t-174.5 35l16 89q81 -35 155 -35q102 0 117 79zM224 84q56 0 90.5 47t34.5 108q0 119 -87 119q-56 0 -90 -47.5t-34 -108.5q0 -118 86 -118
z" />
    <glyph glyph-name="gcircumflex.alt" horiz-adv-x="519" 
d="M314 53q-55 -55 -128 -55t-118.5 50.5t-45.5 152t64 172t158 70.5t133 -81l13 70h104l-85 -479q-15 -84 -73 -123.5t-152.5 -39.5t-174.5 35l16 89q81 -35 155 -35q102 0 117 79zM224 84q56 0 90.5 47t34.5 108q0 119 -87 119q-56 0 -90 -47.5t-34 -108.5q0 -118 86 -118
zM141 498l-21 33l162 139h74l109 -139l-27 -33l-138 67z" />
    <glyph glyph-name="gbreve.alt" horiz-adv-x="519" 
d="M314 53q-55 -55 -128 -55t-118.5 50.5t-45.5 152t64 172t158 70.5t133 -81l13 70h104l-85 -479q-15 -84 -73 -123.5t-152.5 -39.5t-174.5 35l16 89q81 -35 155 -35q102 0 117 79zM224 84q56 0 90.5 47t34.5 108q0 119 -87 119q-56 0 -90 -47.5t-34 -108.5q0 -118 86 -118
zM400.5 549q-46.5 -43 -120 -43t-107.5 44q-27 36 -27 85q0 13 2 27h81v-8q0 -29 13.5 -45t48.5 -16q67 0 90 69h81q-15 -70 -61.5 -113z" />
    <glyph glyph-name="gdotaccent.alt" horiz-adv-x="519" 
d="M314 53q-55 -55 -128 -55t-118.5 50.5t-45.5 152t64 172t158 70.5t133 -81l13 70h104l-85 -479q-15 -84 -73 -123.5t-152.5 -39.5t-174.5 35l16 89q81 -35 155 -35q102 0 117 79zM224 84q56 0 90.5 47t34.5 108q0 119 -87 119q-56 0 -90 -47.5t-34 -108.5q0 -118 86 -118
zM331.5 521.5q-20.5 -20.5 -50 -20.5t-50 20.5t-20.5 49.5t20.5 49.5t49.5 20.5t50 -20.5t21 -49.5t-20.5 -49.5z" />
    <glyph glyph-name="uni0123.alt" horiz-adv-x="519" 
d="M350 524q-37 -22 -70 -22t-48 18t-15 45q0 81 133 173l41 -37q-22 -22 -32 -32.5t-23 -34t-13 -52.5t28 -52zM314 53q-55 -55 -128 -55t-118.5 50.5t-45.5 152t64 172t158 70.5t133 -81l13 70h104l-85 -479q-15 -84 -73 -123.5t-152.5 -39.5t-174.5 35l16 89
q81 -35 155 -35q102 0 117 79zM224 84q56 0 90.5 47t34.5 108q0 119 -87 119q-56 0 -90 -47.5t-34 -108.5q0 -118 86 -118z" />
    <glyph glyph-name="ampersand.alt" horiz-adv-x="561" 
d="M395.5 39q-60.5 -52 -162 -52t-158 41.5t-56.5 121.5q0 128 150 172q-74 36 -74 118t66.5 130.5t170.5 48.5t197 -31l-25 -141h-101l13 77q-40 8 -89.5 8t-85 -23.5t-35.5 -69.5q0 -84 115 -84h239l-14 -83h-57l-16 -89q-17 -92 -77.5 -144zM231 76q116 0 135 107l16 89
h-79q-78 0 -123 -29.5t-45 -86.5q0 -80 96 -80z" />
    <glyph glyph-name="slash.cap" horiz-adv-x="549" 
d="M-48 -149l556 905h105l-555 -905h-106z" />
    <glyph glyph-name="backslash.cap" horiz-adv-x="532" 
d="M339 -149l-235 905h105l236 -905h-106z" />
    <glyph glyph-name="bar.cap" horiz-adv-x="253" 
d="M3 -149l160 905h104l-160 -905h-104z" />
    <glyph glyph-name="brokenbar.cap" horiz-adv-x="257" 
d="M102 401l63 355h104l-63 -355h-104zM5 -149l72 408h104l-72 -408h-104z" />
    <glyph glyph-name="bullet.cap" horiz-adv-x="364" 
d="M189 184q-50 0 -85.5 35.5t-35.5 85.5t35.5 85.5t85.5 35.5t85.5 -35.5t35.5 -85.5t-35.5 -85.5t-85.5 -35.5z" />
    <glyph glyph-name="parenleft.smcp" horiz-adv-x="283" 
d="M29 172q0 229 199 433h105q-102 -109 -152 -213t-50 -224q0 -162 74 -287h-105q-34 63 -52.5 142t-18.5 149z" />
    <glyph glyph-name="parenright.smcp" horiz-adv-x="282" 
d="M147 318q0 162 -74 287h105q34 -63 52.5 -142t18.5 -149q0 -229 -199 -433h-105q102 109 152 213t50 224z" />
    <glyph glyph-name="braceleft.smcp" horiz-adv-x="312" 
d="M232 471l3 -82q0 -64 -19 -94q-26 -41 -80 -59q29 -11 42 -39t13 -61.5t-25.5 -93.5t-25.5 -78q0 -29 34 -29q24 0 49 5l-11 -61q-35 -8 -62 -8q-56 0 -81 28t-25 64t26 93t26 85q0 59 -80 66l13 71q57 5 87 35q11 11 16 33q6 25 6 45l-2 70q0 153 139 153q29 0 65 -9
l-10 -62q-25 5 -50.5 5t-36.5 -18t-11 -59z" />
    <glyph glyph-name="braceright.smcp" horiz-adv-x="311" 
d="M169 94l2 -70q0 -153 -139 -153q-29 0 -65 9l10 62q25 -5 50.5 -5t36.5 18t11 59l-3 82q0 64 19 94q26 41 80 59q-29 11 -42 39t-13 61.5t25.5 93.5t25.5 78q0 29 -34 29q-24 0 -49 -5l11 61q35 8 62 8q56 0 81 -28t25 -64t-26 -93t-26 -85q0 -59 80 -66l-13 -71
q-57 -5 -87 -35q-11 -11 -16 -33q-6 -25 -6 -45z" />
    <glyph glyph-name="bracketleft.smcp" horiz-adv-x="299" 
d="M16 -119l128 724h187l-13 -71h-90l-103 -583h90l-12 -70h-187z" />
    <glyph glyph-name="bracketright.smcp" horiz-adv-x="299" 
d="M-36 -119l12 70h90l103 583h-90l13 71h187l-128 -724h-187z" />
    <glyph glyph-name="bar.smcp" horiz-adv-x="261" 
d="M16 -119l128 724h97l-128 -724h-97z" />
    <glyph glyph-name="at.smcp" horiz-adv-x="639" 
d="M261 87q-46 0 -74.5 30t-28.5 80q0 71 52.5 126t122 55t91.5 -54h3q3 8 22 41h56q-62 -138 -62 -192q0 -40 27 -40q32 0 62 42.5t30 106.5q0 83 -53.5 131.5t-140.5 48.5q-112 0 -200.5 -75.5t-88.5 -183.5q0 -84 56.5 -138.5t138.5 -54.5t155 40l19 -41
q-91 -46 -165 -46q-114 0 -183.5 68t-69.5 172q0 130 103.5 218.5t234.5 88.5q107 0 174.5 -63.5t67.5 -157.5t-46 -148t-109 -54q-38 0 -54.5 19t-16.5 42h-3q-49 -61 -120 -61zM282 146q40 0 73 37.5t33 86.5t-48 49q-41 0 -73 -36.5t-32 -86.5t47 -50z" />
    <glyph glyph-name="ampersand.alt.smcp" horiz-adv-x="488" 
d="M333 34q-53 -44 -136.5 -44t-132.5 34t-49 98q0 100 123 137q-60 30 -60 94t56.5 104t141.5 40t165 -25l-21 -119h-95l10 60q-24 4 -52 4q-100 0 -100 -66q0 -62 92 -62h193l-13 -76h-45l-11 -61q-13 -74 -66 -118zM195 72q89 0 103 79l11 62h-52q-133 0 -133 -83
q0 -58 71 -58z" />
    <glyph glyph-name="uni021A.smcp" horiz-adv-x="510" 
d="M136 -67q33 20 62.5 20t43.5 -15.5t14 -40.5q0 -70 -120 -154l-37 33q43 41 52.5 62t9.5 45t-26 46zM79 0l15 84h76l56 318h-79l-13 -75h-99l28 160h466l-28 -160h-99l13 75h-79l-56 -318h76l-15 -84h-262z" />
    <glyph glyph-name="T_h" horiz-adv-x="1069" 
d="M727 376q80 67 147 67t100 -39q23 -29 23 -72q0 -16 -3 -34l-32 -178q-1 -7 -1 -14q0 -32 35 -32q22 0 44 8l-14 -83q-38 -10 -72 -10q-69 0 -91 39q-15 26 -15 52.5t3 44.5l30 165q2 11 2 21q0 43 -42 43q-54 0 -131 -73l-50 -281h-113l90 517h-239l-75 -425h90l-16 -92
h-296l16 92h90l75 425h-114l-16 -93h-105l33 185h581l38 98h86z" />
    <glyph glyph-name="c_t" horiz-adv-x="794" 
d="M621 106q0 -30 46 -30q28 0 85 20l-15 -83q-52 -24 -117.5 -24t-93.5 38q-19 27 -19 66q0 16 3 33l38 217h-74l16 89h74l16 96h-121q-53 0 -82.5 -17.5t-33.5 -73.5q39 -8 66 -17l-16 -83q-52 21 -105 21q-74 0 -112 -47t-38 -117q0 -120 116 -120q58 0 110 20l-16 -88
q-55 -17 -121 -17q-97 0 -151.5 51t-54.5 150.5t61 172.5t172 79q6 87 64.5 125t148.5 38h242l-32 -173h115l-16 -89h-114l-40 -227q-1 -6 -1 -10z" />
    </font>
</defs>
</svg>
