<?xml version="1.0" standalone="no"?>
<!DOCTYPE svg PUBLIC "-//W3C//DTD SVG 1.1//EN" "http://www.w3.org/Graphics/SVG/1.1/DTD/svg11.dtd" >
<svg>
<metadata>
Created by FontForge 20120731 at Mon Oct 31 23:20:53 2016
 By ,,,
Copyright (c) 2014 Monotype Imaging Inc. All rights reserved.
</metadata>
<defs>
<font id="FuturaLTPro-Light" horiz-adv-x="620" >
  <font-face 
    font-family="Futura LT Pro Light"
    font-weight="300"
    font-stretch="normal"
    units-per-em="1000"
    panose-1="2 11 4 2 2 2 4 2 3 3"
    ascent="825"
    descent="-175"
    x-height="462"
    cap-height="754"
    bbox="-175 -302 1127 1019"
    underline-thickness="50"
    underline-position="-75"
    unicode-range="U+000D-FB02"
  />
<missing-glyph horiz-adv-x="512" 
d="M512 718v-718h-512v718h512zM462 50v617h-412v-617h412zM383 478q0 -61 -46 -103l-27 -25q-28 -26 -33.5 -43t-5.5 -73h-46l-2 19q0 86 54 133q55 46 55 88q0 36 -22.5 60.5t-53.5 24.5q-70 0 -82 -95l-50 8q6 66 41 101.5t94 35.5q55 0 89.5 -36t34.5 -95zM222 184h56
v-67h-56v67z" />
    <glyph glyph-name="IJ" unicode="IJ" horiz-adv-x="421" 
d="M81 754h48v-754h-48v754zM292 754h48v-745q0 -86 -32 -126.5t-101 -40.5q-41 0 -74.5 22t-50.5 60l36 27q13 -28 38.5 -46t54.5 -18q42 0 61.5 29t19.5 93v745z" />
    <glyph glyph-name="ij" unicode="ij" horiz-adv-x="425" 
d="M158 616q0 -17 -12 -29t-29 -12t-29 12t-12 29t12 29t29 12t29 -12t12 -29zM94 462h45v-462h-45v462zM349 616q0 -17 -12 -29t-29 -12t-29 12t-12 29t12 29t29 12t29 -12t12 -29zM285 462h45v-732h-45v732z" />
    <glyph glyph-name="napostrophe" unicode="&#x22;n" horiz-adv-x="490" 
d="M100 754l55 -14l-89 -168l-35 14zM413 0h-45v285q0 82 -26.5 113.5t-84.5 31.5q-135 0 -135 -197v-233h-45v462h45v-72h2q21 38 56.5 60t80.5 22q78 0 115 -45t37 -144v-283z" />
    <glyph glyph-name="fi" unicode="fi" horiz-adv-x="475" 
d="M238 790q-27 6 -37 6q-41 0 -60 -28.5t-19 -101.5v-204h116v-42h-116v-420h-45v420h-51v42h51v213q0 65 13 96t42 49t66 18q23 0 40 -7v-41zM399 616q0 -17 -12 -29t-29 -12t-29 12t-12 29t12 29t29 12t29 -12t12 -29zM335 462h45v-462h-45v462z" />
    <glyph glyph-name="fl" unicode="fl" horiz-adv-x="439" 
d="M238 790q-27 6 -37 6q-41 0 -60 -28.5t-19 -101.5v-204h116v-42h-116v-420h-45v420h-51v42h51v213q0 65 13 96t42 49t66 18q23 0 40 -7v-41zM317 825h45v-825h-45v825z" />
    <glyph glyph-name=".notdef" horiz-adv-x="512" 
d="M512 718v-718h-512v718h512zM462 50v617h-412v-617h412zM383 478q0 -61 -46 -103l-27 -25q-28 -26 -33.5 -43t-5.5 -73h-46l-2 19q0 86 54 133q55 46 55 88q0 36 -22.5 60.5t-53.5 24.5q-70 0 -82 -95l-50 8q6 66 41 101.5t94 35.5q55 0 89.5 -36t34.5 -95zM222 184h56
v-67h-56v67z" />
    <glyph glyph-name=".null" horiz-adv-x="0" 
 />
    <glyph glyph-name="nonmarkingreturn" unicode="&#xd;" horiz-adv-x="310" 
 />
    <glyph glyph-name="NULL" horiz-adv-x="0" 
 />
    <glyph glyph-name="NULL" horiz-adv-x="0" 
 />
    <glyph glyph-name="space" unicode=" " horiz-adv-x="310" 
 />
    <glyph glyph-name="exclam" unicode="!" horiz-adv-x="320" 
d="M136 754h48v-611h-48v611zM201 31q0 -17 -12 -29t-29 -12t-29 12t-12 29t12 29t29 12t29 -12t12 -29z" />
    <glyph glyph-name="quotedbl" unicode="&#x22;" horiz-adv-x="278" 
d="M58 754h48l-11 -240h-27zM172 754h48l-11 -240h-27z" />
    <glyph glyph-name="numbersign" unicode="#" 
d="M249 698h50l-32 -212h136l32 212h50l-33 -212h110v-48h-118l-26 -162h118v-48h-126l-37 -228h-46l36 228h-135l-33 -228h-48l33 228h-121v48h128l23 162h-123v48h130zM235 276h136l24 162h-136z" />
    <glyph glyph-name="dollar" unicode="$" 
d="M302 869h45v-107q49 -6 89.5 -33.5t63.5 -70.5l-37 -30q-24 40 -52 61t-64 27v-300l33 -16q61 -30 92.5 -55t48 -58t16.5 -77q0 -79 -55.5 -141t-134.5 -77v-113h-45v111q-79 3 -135.5 45.5t-83.5 117.5l41 19q23 -62 68.5 -98t103.5 -36h6v346q-32 15 -63.5 32
t-56.5 38.5t-40.5 50t-15.5 68.5q0 80 49 132.5t127 58.5v105zM302 716q-33 0 -63 -19.5t-47.5 -52.5t-17.5 -69q0 -29 12.5 -50.5t34 -39t81.5 -48.5v279zM347 40q61 16 101.5 64t40.5 110q0 31 -15 55t-40.5 44t-86.5 49v-322z" />
    <glyph glyph-name="percent" unicode="%" horiz-adv-x="664" 
d="M538 771l33 -17l-448 -771l-31 18zM332 612q0 -63 -44 -105t-108 -42q-65 0 -108.5 42t-43.5 105q0 65 43.5 107t108.5 42q64 0 108 -42t44 -107zM180 507q46 0 78 31t32 74t-32.5 75t-78.5 32q-43 0 -76 -32t-33 -75t32.5 -74t77.5 -31zM636 140q0 -40 -20 -74
t-55.5 -53.5t-76.5 -19.5q-66 0 -109 42.5t-43 104.5q0 64 43 106.5t109 42.5q64 0 108 -42t44 -107zM484 35q45 0 77.5 31t32.5 74q0 44 -32.5 75.5t-78.5 31.5q-45 0 -77 -32t-32 -75q0 -42 32 -73.5t78 -31.5z" />
    <glyph glyph-name="ampersand" unicode="&#x26;" horiz-adv-x="642" 
d="M456 628q0 -52 -34 -95.5t-107 -90.5l186 -254l96 105l37 -20l-105 -120l115 -153h-52l-95 125q-87 -73 -153.5 -106.5t-124.5 -33.5q-53 0 -99 27t-72 73t-26 99q0 75 53.5 138t175.5 136q-43 57 -61 93t-18 72q0 60 43.5 102.5t103.5 42.5q57 0 97 -40.5t40 -99.5z
M287 479l49 36q39 29 55.5 55.5t16.5 58.5q0 38 -26.5 66t-66.5 28q-38 0 -66.5 -31t-28.5 -74q0 -22 9.5 -45.5t33.5 -57.5zM219 30q50 0 109 32t141 101l-190 257q-105 -70 -119.5 -81t-28.5 -25q-36 -37 -48.5 -65t-12.5 -60q0 -67 43 -113t106 -46z" />
    <glyph glyph-name="quotesingle" unicode="'" horiz-adv-x="222" 
d="M87 754h48l-11 -240h-27z" />
    <glyph glyph-name="parenleft" unicode="(" horiz-adv-x="240" 
d="M174 754q-63 -222 -63 -459q0 -214 63 -447l-37 -25q-31 77 -51 209t-20 264q0 137 19 270t52 214z" />
    <glyph glyph-name="parenright" unicode=")" horiz-adv-x="240" 
d="M103 780q33 -81 52 -212.5t19 -271.5q0 -123 -19 -258t-52 -215l-37 25q63 235 63 447q0 235 -63 459z" />
    <glyph glyph-name="asterisk" unicode="*" horiz-adv-x="619" 
d="M285 754h49l-4 -150l142 50l15 -47l-144 -43l92 -119l-40 -29l-85 124l-86 -124l-39 28l91 120l-144 43l15 47l142 -50z" />
    <glyph glyph-name="plus" unicode="+" 
d="M286 512h48v-232h232v-48h-232v-232h-48v232h-232v48h232v232z" />
    <glyph glyph-name="comma" unicode="," horiz-adv-x="310" 
d="M153 74l45 -14l-83 -226l-30 11z" />
    <glyph glyph-name="hyphen" unicode="-" horiz-adv-x="190" 
d="M190 342v-45h-190v45h190z" />
    <glyph glyph-name="period" unicode="." horiz-adv-x="310" 
d="M196 31q0 -17 -12 -29t-29 -12t-29 12t-12 29t12 29t29 12t29 -12t12 -29z" />
    <glyph glyph-name="slash" unicode="/" horiz-adv-x="640" 
d="M570 825l35 -18l-533 -949l-37 19z" />
    <glyph glyph-name="zero" unicode="0" 
d="M584 382q0 -72 -21 -147.5t-58 -130.5t-87 -84.5t-108 -29.5q-76 0 -137.5 50t-99 145.5t-37.5 196.5q0 98 38 191.5t99 142t137 48.5t137 -48.5t99 -142t38 -191.5zM310 35q64 0 115 45t81 127.5t30 174.5q0 84 -32 168t-82.5 126.5t-112.5 42.5q-60 0 -110 -42.5
t-82.5 -126.5t-32.5 -168q0 -90 30.5 -173.5t81 -128.5t114.5 -45z" />
    <glyph glyph-name="one" unicode="1" 
d="M356 754v-754h-48v709h-119l23 45h144z" />
    <glyph glyph-name="two" unicode="2" 
d="M537 543q0 -94 -96 -203l-265 -295h358v-45h-465l281 309q60 66 86 102.5t39.5 69t13.5 65.5q0 47 -24 87.5t-65.5 63t-88.5 22.5q-76 0 -127 -48.5t-51 -125.5v-4h-48q2 68 26 112.5t81 77.5t119 33q61 0 113.5 -28.5t82.5 -80t30 -112.5z" />
    <glyph glyph-name="three" unicode="3" 
d="M510 570q0 -59 -30 -105.5t-83 -69.5q55 -21 89.5 -71t34.5 -112q0 -61 -29.5 -113t-80.5 -80.5t-111 -28.5q-58 0 -106 25.5t-75.5 70.5t-27.5 99h48q6 -68 50 -109t110 -41q46 0 86 24t64 64.5t24 85.5q0 70 -48.5 115.5t-122.5 45.5v45q71 2 115.5 46.5t44.5 110.5
q0 60 -44 103.5t-105 43.5q-63 0 -102.5 -37.5t-43.5 -105.5h-48q6 87 57 137.5t138 50.5q53 0 98.5 -26t71.5 -71t26 -97z" />
    <glyph glyph-name="four" unicode="4" 
d="M461 780h6v-592h106v-45h-106v-143h-48v143h-407v6zM100 194v-6h319v446h-6z" />
    <glyph glyph-name="five" unicode="5" 
d="M531 754v-45h-252l-63 -204q26 8 57 8q69 0 128.5 -34t93.5 -93.5t34 -129.5q0 -73 -35.5 -134.5t-98.5 -96.5t-138 -35q-69 0 -128 33.5t-95 91.5l44 18q29 -44 78 -71t102 -27q61 0 113 29t81 79.5t29 113.5q0 56 -29.5 105.5t-80.5 77.5t-110 28q-60 0 -115 -34
l98 320h287z" />
    <glyph glyph-name="six" unicode="6" 
d="M340 764l39 -29l-166 -235l2 -2q50 20 100 20q69 0 130 -35.5t97 -97t36 -132.5q0 -70 -38.5 -133.5t-99 -96.5t-131.5 -33t-133 35t-98 96t-36 132q0 87 53 163zM310 35q59 0 109.5 29t80.5 80.5t30 109.5t-30 109t-81 80.5t-110 29.5q-58 0 -109 -29t-80.5 -80
t-29.5 -110t29.5 -109.5t80.5 -80t110 -29.5z" />
    <glyph glyph-name="seven" unicode="7" 
d="M617 754l-540 -762l-37 29l488 688h-458v45h547z" />
    <glyph glyph-name="eight" unicode="8" 
d="M512 565q0 -56 -29 -102.5t-77 -69.5q123 -61 123 -196q0 -57 -29 -104.5t-79.5 -75t-110.5 -27.5q-59 0 -109.5 27t-80 75.5t-29.5 104.5q0 135 123 196q-47 23 -76.5 69.5t-29.5 102.5q0 55 26.5 101t73 72t102.5 26q55 0 101.5 -26t73.5 -72t27 -101zM310 414
q41 0 76.5 20t56.5 55t21 77q0 40 -21 76t-57 56.5t-77 20.5q-40 0 -76 -20.5t-56.5 -56t-20.5 -76.5q0 -42 20.5 -77t57 -55t76.5 -20zM310 35q45 0 85 22.5t63 61.5t23 83q0 45 -22.5 83.5t-63 61t-86.5 22.5q-44 0 -84 -22.5t-63 -61.5t-23 -83q0 -45 23.5 -83.5t63 -61
t84.5 -22.5z" />
    <glyph glyph-name="nine" unicode="9" 
d="M578 497q0 -83 -55 -161l-243 -344l-39 29l167 235l-2 2q-49 -20 -101 -20q-72 0 -132.5 36.5t-95.5 97.5t-35 130q0 70 36.5 131t99 96t133.5 35q74 0 136 -35.5t96.5 -96.5t34.5 -135zM311 283q59 0 109.5 29.5t80 80t29.5 108.5t-29.5 108.5t-81 80t-109.5 29.5
q-57 0 -108.5 -29t-81.5 -80t-30 -109t30 -108.5t81.5 -80t109.5 -29.5z" />
    <glyph glyph-name="colon" unicode=":" horiz-adv-x="310" 
d="M196 431q0 -17 -12 -29t-29 -12t-29 12t-12 29t12 29t29 12t29 -12t12 -29zM196 31q0 -17 -12 -29t-29 -12t-29 12t-12 29t12 29t29 12t29 -12t12 -29z" />
    <glyph glyph-name="semicolon" unicode=";" horiz-adv-x="310" 
d="M202 431q0 -17 -12 -29t-29 -12t-29 12t-12 29t12 29t29 12t29 -12t12 -29zM153 74l45 -14l-83 -226l-30 11z" />
    <glyph glyph-name="less" unicode="&#x3c;" 
d="M566 506v-46l-460 -204l460 -215v-46l-512 235v53z" />
    <glyph glyph-name="equal" unicode="=" 
d="M566 365v-48h-512v48h512zM566 195v-48h-512v48h512z" />
    <glyph glyph-name="greater" unicode="&#x3e;" 
d="M54 506l512 -223v-53l-512 -235v46l460 215l-460 204v46z" />
    <glyph glyph-name="question" unicode="?" horiz-adv-x="491" 
d="M425 584q0 -77 -42 -119t-136 -63q-59 -14 -85 -39t-26 -69q0 -47 31.5 -77t80.5 -30q46 0 76 32.5t30 83.5h48v-9q0 -65 -43.5 -108.5t-112.5 -43.5q-68 0 -113 43.5t-45 105.5q0 63 38 100t115 56q79 19 107.5 48.5t28.5 86.5q0 60 -38 98.5t-95 38.5t-93.5 -37
t-36.5 -91q0 -29 5 -52h-46q-7 39 -7 64q0 67 51.5 114t127.5 47q80 0 130 -50.5t50 -129.5zM284 31q0 -17 -12 -29t-29 -12t-29 12t-12 29t12 29t29 12t29 -12t12 -29z" />
    <glyph glyph-name="at" unicode="@" horiz-adv-x="800" 
d="M760 441q0 -72 -32.5 -138.5t-88.5 -109t-112 -42.5q-27 0 -47 12.5t-28 36.5q-58 -49 -130 -49q-60 0 -96.5 40t-36.5 107q0 76 34 150.5t89 117t119 42.5q35 0 67 -17.5t53 -49.5l15 47h44l-100 -315q-12 -37 -12 -48q0 -32 43 -32q39 0 81.5 40t69 100t26.5 112
q0 74 -40.5 138.5t-110.5 101.5t-150 37q-88 0 -166 -47.5t-123.5 -128.5t-45.5 -173q0 -91 47 -170t125 -125t165 -46q88 0 161 36.5t112 99.5h56q-44 -83 -131.5 -130.5t-197.5 -47.5q-103 0 -190.5 51.5t-138 141.5t-50.5 197q0 101 50 190.5t137 141.5t188 52
q96 0 175.5 -42t124.5 -116.5t45 -164.5zM332 193q33 0 62 16.5t51 44t33 58.5l47 147q2 5 2 14q0 20 -14 42.5t-37.5 36.5t-53.5 14q-44 0 -87.5 -38t-73.5 -102t-30 -122q0 -48 29 -79.5t72 -31.5z" />
    <glyph glyph-name="A" unicode="A" horiz-adv-x="641" 
d="M321 779l315 -779h-49l-101 248h-331l-101 -248h-49zM173 293h295l-147 364z" />
    <glyph glyph-name="B" unicode="B" horiz-adv-x="565" 
d="M237 754q62 0 98.5 -13.5t64.5 -42t39.5 -66t11.5 -78.5q0 -106 -87 -154q71 -15 113.5 -67t42.5 -123q0 -91 -63.5 -150.5t-170.5 -59.5h-205v754h156zM248 412q36 0 64.5 10t51.5 32t31 48t8 59t-11.5 62.5t-35 49.5t-53.5 28t-85 8h-89v-297h119zM263 45
q62 0 94.5 9.5t58.5 32.5t41 55t15 66q0 50 -26 89t-72 54.5t-119 15.5h-126v-322h134z" />
    <glyph glyph-name="C" unicode="C" horiz-adv-x="739" 
d="M680 600q-43 53 -113 86t-140 33q-92 0 -171.5 -48t-125.5 -128.5t-46 -170.5q0 -89 48 -166t129 -124t166 -47q68 0 139.5 32.5t113.5 82.5v-66q-115 -94 -251 -94q-102 0 -193.5 52.5t-145.5 142t-54 191.5q0 103 52.5 192.5t144.5 142.5t197 53q67 0 132.5 -26
t117.5 -72v-66z" />
    <glyph glyph-name="D" unicode="D" horiz-adv-x="652" 
d="M223 754q128 0 210.5 -47.5t133 -135t50.5 -195.5q0 -75 -26 -142t-79 -123t-123 -83.5t-166 -27.5h-142v754h142zM222 45q107 0 181 41t120 119t46 171q0 71 -25.5 133t-75 109.5t-107 69t-139.5 21.5h-93v-664h93z" />
    <glyph glyph-name="E" unicode="E" horiz-adv-x="507" 
d="M441 754v-45h-312v-274h304v-45h-304v-345h312v-45h-360v754h360z" />
    <glyph glyph-name="F" unicode="F" horiz-adv-x="444" 
d="M385 754v-45h-256v-274h249v-45h-249v-390h-48v754h304z" />
    <glyph glyph-name="G" unicode="G" horiz-adv-x="824" 
d="M717 557q-53 78 -127.5 120t-163.5 42q-91 0 -170.5 -48.5t-125.5 -128t-46 -165.5q0 -91 46.5 -170.5t125.5 -125.5t170 -46q78 0 155 39t116.5 98t42.5 146h-270v45h318v-16q0 -89 -24 -148.5t-76 -107.5t-122 -74.5t-143 -26.5q-101 0 -190 51.5t-143 140.5t-54 192
q0 105 52.5 194.5t143.5 142.5t197 53q98 0 181 -45t146 -131z" />
    <glyph glyph-name="H" unicode="H" horiz-adv-x="716" 
d="M81 754h48v-320h458v320h48v-754h-48v389h-458v-389h-48v754z" />
    <glyph glyph-name="I" unicode="I" horiz-adv-x="210" 
d="M81 754h48v-754h-48v754z" />
    <glyph glyph-name="J" unicode="J" horiz-adv-x="218" 
d="M89 754h48v-745q0 -86 -32 -126.5t-101 -40.5q-41 0 -74.5 22t-50.5 60l36 27q13 -28 38.5 -46t54.5 -18q42 0 61.5 29t19.5 93v745z" />
    <glyph glyph-name="K" unicode="K" horiz-adv-x="569" 
d="M81 754h48v-352l358 352h64l-369 -363l392 -391h-63l-362 360l-20 -20v-340h-48v754z" />
    <glyph glyph-name="L" unicode="L" horiz-adv-x="327" 
d="M81 754h48v-709h192v-45h-240v754z" />
    <glyph glyph-name="M" unicode="M" horiz-adv-x="897" 
d="M448 93l278 686l162 -779h-46l-129 624h-2l-263 -649l-262 649h-2l-129 -624h-46l162 779z" />
    <glyph glyph-name="N" unicode="N" horiz-adv-x="843" 
d="M81 764l633 -668v658h48v-779l-633 673v-648h-48v764z" />
    <glyph glyph-name="O" unicode="O" horiz-adv-x="854" 
d="M818 377q0 -103 -54.5 -193.5t-144.5 -142t-192 -51.5q-104 0 -195 53t-143.5 142.5t-52.5 191.5q0 105 54 195t144.5 141t192.5 51q103 0 193.5 -52t144 -141.5t53.5 -193.5zM427 35q90 0 169.5 46t126.5 125.5t47 170.5q0 90 -46.5 169.5t-126.5 126t-171 46.5
t-171 -47t-125.5 -126.5t-45.5 -168.5q0 -92 47.5 -172t127 -125t168.5 -45z" />
    <glyph glyph-name="P" unicode="P" horiz-adv-x="472" 
d="M232 754q71 0 114.5 -23.5t71 -70t27.5 -105.5t-27 -105.5t-76.5 -69t-117.5 -22.5h-95v-358h-48v754h151zM226 403q52 0 90.5 19.5t59.5 55t21 79.5q0 30 -11.5 60.5t-33.5 51.5t-51.5 30.5t-86.5 9.5h-85v-306h97z" />
    <glyph glyph-name="Q" unicode="Q" horiz-adv-x="854" 
d="M818 380q0 -146 -110 -273l99 -107h-65l-68 80q-51 -42 -115.5 -66t-131.5 -24q-104 0 -194 50.5t-143.5 140t-53.5 196.5q0 105 53.5 194.5t144 141t194.5 51.5q103 0 193 -51.5t143.5 -140.5t53.5 -192zM430 35q108 0 210 79l-188 195h68l153 -166q97 104 97 228
q0 92 -44.5 172.5t-124.5 128t-174 47.5q-88 0 -167.5 -45t-127.5 -124t-48 -173q0 -90 45.5 -169.5t126 -126t174.5 -46.5z" />
    <glyph glyph-name="R" unicode="R" horiz-adv-x="488" 
d="M183 754q69 0 105.5 -10t68.5 -36t49 -65.5t17 -88.5q0 -93 -56.5 -145t-156.5 -52h-3l247 -357h-55l-246 357h-24v-357h-48v754h102zM195 402q50 0 81.5 9.5t56 35.5t33.5 53t9 56q0 25 -7.5 49.5t-20 43t-30.5 31t-35.5 18.5t-40.5 8.5t-83 2.5h-29v-307h66z" />
    <glyph glyph-name="S" unicode="S" horiz-adv-x="544" 
d="M430 630q-55 89 -153 89q-60 0 -101 -41.5t-41 -102.5q0 -39 24.5 -68.5t72.5 -53.5l175 -90q45 -23 69.5 -63t24.5 -88q0 -61 -32.5 -112t-87 -80.5t-116.5 -29.5q-76 0 -135.5 43t-86.5 119l42 19q26 -67 72.5 -101.5t109.5 -34.5q49 0 92.5 24t68.5 65.5t25 88.5
q0 78 -102 128q-45 22 -178 93q-86 45 -86 139q0 85 54 138t139 53q58 0 108 -29.5t76 -76.5z" />
    <glyph glyph-name="T" unicode="T" horiz-adv-x="450" 
d="M444 754v-45h-195v-709h-48v709h-195v45h438z" />
    <glyph glyph-name="U" unicode="U" horiz-adv-x="660" 
d="M74 754h48v-474q0 -88 19 -136.5t72.5 -78.5t116.5 -30q36 0 71.5 11t64 31t44 47.5t22 61.5t6.5 104v464h48v-478q0 -68 -5.5 -98.5t-20.5 -60.5q-27 -56 -91 -91.5t-139 -35.5q-79 0 -141 36t-88.5 89t-26.5 148v491z" />
    <glyph glyph-name="V" unicode="V" horiz-adv-x="555" 
d="M53 754l224 -644h2l223 644h48l-274 -779l-271 779h48z" />
    <glyph glyph-name="W" unicode="W" horiz-adv-x="1105" 
d="M554 792l282 -686l209 648h48l-254 -779l-288 697l-287 -697l-252 779h48l212 -648z" />
    <glyph glyph-name="X" unicode="X" horiz-adv-x="494" 
d="M20 754h53l173 -324l173 324h53l-197 -369l207 -385h-52l-184 341l-182 -341h-52l206 385z" />
    <glyph glyph-name="Y" unicode="Y" horiz-adv-x="559" 
d="M4 754h53l222 -382l222 382h53l-251 -432v-322h-48v322z" />
    <glyph glyph-name="Z" unicode="Z" horiz-adv-x="568" 
d="M556 754l-460 -709h447v-45h-531l460 709h-416v45h500z" />
    <glyph glyph-name="bracketleft" unicode="[" horiz-adv-x="300" 
d="M235 754v-51h-122v-855h122v-51h-170v957h170z" />
    <glyph glyph-name="backslash" unicode="\" horiz-adv-x="640" 
d="M70 825l535 -806l-37 -19l-533 807z" />
    <glyph glyph-name="bracketright" unicode="]" horiz-adv-x="300" 
d="M235 754v-957h-170v51h122v855h-122v51h170z" />
    <glyph glyph-name="asciicircum" unicode="^" 
d="M284 754h52l230 -453h-46l-210 408l-209 -408h-47z" />
    <glyph glyph-name="underscore" unicode="_" horiz-adv-x="500" 
d="M500 -75v-50h-500v50h500z" />
    <glyph glyph-name="grave" unicode="`" horiz-adv-x="313" 
d="M136 714l101 -147l-38 -17l-124 145z" />
    <glyph glyph-name="a" unicode="a" horiz-adv-x="560" 
d="M438 382v80h45v-462h-45v83h-2q-25 -42 -73 -67.5t-103 -25.5q-66 0 -118 31t-81 87.5t-29 125.5q0 104 62.5 171t163.5 67q55 0 102.5 -24t75.5 -66h2zM259 32q81 0 131.5 57.5t50.5 149.5q0 84 -52.5 137.5t-133.5 53.5q-48 0 -89 -26t-65 -72t-24 -98q0 -56 24 -102.5
t65.5 -73t92.5 -26.5z" />
    <glyph glyph-name="b" unicode="b" horiz-adv-x="560" 
d="M77 825h45v-443h2q28 42 75.5 66t102.5 24q65 0 117 -30t80.5 -85t28.5 -123q0 -107 -64 -175.5t-164 -68.5q-57 0 -104.5 26t-71.5 67h-2v-83h-45v825zM301 32q51 0 93 26t65.5 73t23.5 103q0 53 -24 98t-66 71.5t-91 26.5q-81 0 -132 -54t-51 -143t51 -145t131 -56z
" />
    <glyph glyph-name="c" unicode="c" horiz-adv-x="477" 
d="M431 355q-70 75 -163 75q-51 0 -95 -26.5t-70 -73t-26 -98.5q0 -53 26 -99.5t70 -73.5t94 -27q46 0 90 20.5t80 62.5v-61q-32 -29 -77 -46.5t-91 -17.5q-66 0 -120.5 32t-85.5 88t-31 122t31.5 121.5t86.5 87t120 31.5q92 0 161 -57v-60z" />
    <glyph glyph-name="d" unicode="d" horiz-adv-x="560" 
d="M438 825h45v-825h-45v83h-2q-26 -42 -73 -67.5t-103 -25.5q-66 0 -118 31t-81 87t-29 126q0 104 62.5 171t163.5 67q55 0 102.5 -24t75.5 -66h2v443zM259 32q81 0 131.5 57.5t50.5 149.5q0 84 -52.5 137.5t-133.5 53.5q-47 0 -88.5 -26.5t-65.5 -72.5t-24 -97
q0 -56 24 -102.5t65.5 -73t92.5 -26.5z" />
    <glyph glyph-name="e" unicode="e" horiz-adv-x="510" 
d="M77 227v-6q0 -82 51.5 -135.5t133.5 -53.5q51 0 93.5 27t69.5 78l38 -22q-32 -60 -84.5 -92.5t-122.5 -32.5q-63 0 -114.5 31.5t-80.5 87t-29 123.5q0 67 29 122t81 86.5t114 31.5q99 0 160.5 -69t61.5 -176h-401zM433 269q-9 69 -59.5 115t-117.5 46q-44 0 -84.5 -22
t-66 -60t-28.5 -79h356z" />
    <glyph glyph-name="f" unicode="f" horiz-adv-x="240" 
d="M238 790q-27 6 -37 6q-41 0 -60 -28.5t-19 -101.5v-204h116v-42h-116v-420h-45v420h-51v42h51v213q0 65 13 96t42 49t66 18q23 0 40 -7v-41z" />
    <glyph glyph-name="g" unicode="g" horiz-adv-x="567" 
d="M445 382v80h45v-448q0 -85 -16.5 -131.5t-48 -79t-74 -49.5t-91.5 -17q-98 0 -160.5 54.5t-67.5 143.5h45q4 -69 54 -112.5t125 -43.5q93 0 141 60t48 173v68h-2q-31 -41 -79.5 -65.5t-100.5 -24.5q-63 0 -114.5 32.5t-80.5 88.5t-29 121q0 67 30.5 122.5t83.5 86.5
t116 31q108 0 174 -90h2zM266 32q81 0 131.5 57.5t50.5 149.5q0 84 -52 137.5t-134 53.5q-47 0 -88.5 -26.5t-65.5 -72.5t-24 -97q0 -56 23.5 -102.5t65.5 -73t93 -26.5z" />
    <glyph glyph-name="h" unicode="h" horiz-adv-x="490" 
d="M77 825h45v-435h2q21 38 56.5 60t80.5 22q80 0 116 -46.5t36 -141.5v-284h-45v285q0 79 -25.5 112t-85.5 33q-135 0 -135 -196v-234h-45v825z" />
    <glyph glyph-name="i" unicode="i" horiz-adv-x="234" 
d="M158 616q0 -17 -12 -29t-29 -12t-29 12t-12 29t12 29t29 12t29 -12t12 -29zM94 462h45v-462h-45v462z" />
    <glyph glyph-name="j" unicode="j" horiz-adv-x="234" 
d="M158 616q0 -17 -12 -29t-29 -12t-29 12t-12 29t12 29t29 12t29 -12t12 -29zM94 462h45v-732h-45v732z" />
    <glyph glyph-name="k" unicode="k" horiz-adv-x="427" 
d="M77 825h45v-559l190 196h58l-194 -200l259 -262h-59l-229 231l-25 -26v-205h-45v825z" />
    <glyph glyph-name="l" unicode="l" horiz-adv-x="199" 
d="M77 825h45v-825h-45v825z" />
    <glyph glyph-name="m" unicode="m" horiz-adv-x="725" 
d="M370 388q18 41 54 62.5t81 21.5q74 0 108.5 -43t34.5 -134v-295h-45v301q0 69 -23 99t-76 30q-58 0 -88.5 -41t-30.5 -119v-270h-45v290q0 72 -25 106t-78 34q-55 0 -85 -44t-30 -127v-259h-45v462h45v-58h2q14 30 45.5 49t70.5 19q45 0 79 -22t51 -62z" />
    <glyph glyph-name="n" unicode="n" horiz-adv-x="490" 
d="M413 0h-45v285q0 82 -26.5 113.5t-84.5 31.5q-135 0 -135 -197v-233h-45v462h45v-72h2q21 38 56.5 60t80.5 22q78 0 115 -45t37 -144v-283z" />
    <glyph glyph-name="o" unicode="o" horiz-adv-x="547" 
d="M515 231q0 -66 -32 -122t-88 -87.5t-123 -31.5q-64 0 -120 32.5t-88 88.5t-32 119q0 65 32.5 121.5t88 88.5t119.5 32q67 0 123 -31.5t88 -87.5t32 -122zM269 32q55 0 101.5 26t73 72t26.5 100q0 84 -58 142t-144 58q-51 0 -95 -26.5t-70 -73t-26 -100.5q0 -52 25.5 -98
t70.5 -73t96 -27z" />
    <glyph glyph-name="p" unicode="p" horiz-adv-x="560" 
d="M528 227q0 -68 -28 -122.5t-80 -84.5t-118 -30q-57 0 -104 24t-74 66h-2v-350h-45v732h45v-83h2q24 42 73 67.5t103 25.5q66 0 118.5 -31.5t81 -88t28.5 -125.5zM303 32q77 0 128.5 56t51.5 138q0 57 -23 103.5t-65.5 73.5t-94.5 27q-79 0 -130 -58t-51 -151
q0 -84 51.5 -136.5t132.5 -52.5z" />
    <glyph glyph-name="q" unicode="q" horiz-adv-x="560" 
d="M438 379v83h45v-732h-45v350h-2q-27 -42 -74 -66t-104 -24q-101 0 -163.5 66t-62.5 170q0 70 28.5 126.5t81 88t118.5 31.5q53 0 101.5 -24.5t74.5 -68.5h2zM261 32q50 0 91.5 26t65 71t23.5 97q0 57 -23 103.5t-65.5 73.5t-94.5 27q-80 0 -130.5 -58t-50.5 -151
q0 -84 51.5 -136.5t132.5 -52.5z" />
    <glyph glyph-name="r" unicode="r" horiz-adv-x="278" 
d="M249 421q-16 9 -32 9q-50 0 -72.5 -39t-22.5 -136v-255h-45v462h45v-60h2q31 70 100 70q23 0 49 -11z" />
    <glyph glyph-name="s" unicode="s" horiz-adv-x="375" 
d="M271 378q-11 24 -32.5 38t-48.5 14q-31 0 -55 -21.5t-24 -50.5q0 -20 8.5 -33t24.5 -24t60 -27q24 -9 47 -18.5t42 -25t31 -38.5t12 -58q0 -62 -43 -103t-106 -41q-60 0 -102.5 33t-56.5 89l44 14q30 -94 115 -94q43 0 73.5 30t30.5 74q0 58 -67 82l-34 13
q-71 26 -97.5 55t-26.5 69q0 49 36 83t90 34q35 0 69.5 -21t48.5 -53z" />
    <glyph glyph-name="t" unicode="t" horiz-adv-x="209" 
d="M82 627h45v-165h81v-42h-81v-420h-45v420h-51v42h51v165z" />
    <glyph glyph-name="u" unicode="u" horiz-adv-x="472" 
d="M70 462h45v-263q0 -69 12 -100.5t37.5 -49t71.5 -17.5q64 0 92.5 36t28.5 127v267h45v-284q0 -46 -3.5 -66t-11.5 -38q-15 -36 -56.5 -60t-94.5 -24q-31 0 -58 8.5t-49.5 24t-35 36.5t-18 45.5t-5.5 73.5v284z" />
    <glyph glyph-name="v" unicode="v" horiz-adv-x="433" 
d="M5 462h46l167 -381l164 381h46l-211 -487z" />
    <glyph glyph-name="w" unicode="w" horiz-adv-x="752" 
d="M377 487l164 -404l160 379h46l-209 -487l-163 399l-162 -399l-208 487h46l163 -379z" />
    <glyph glyph-name="x" unicode="x" horiz-adv-x="443" 
d="M20 462h54l147 -187l148 187h54l-172 -218l188 -244h-53l-165 212l-164 -212h-53l188 244z" />
    <glyph glyph-name="y" unicode="y" horiz-adv-x="460" 
d="M-7 462h47l197 -418l177 418h46l-310 -732h-46l111 262z" />
    <glyph glyph-name="z" unicode="z" horiz-adv-x="480" 
d="M475 462l-377 -420h375v-42h-470l378 420h-317v42h411z" />
    <glyph glyph-name="braceleft" unicode="{" horiz-adv-x="300" 
d="M259 708q-51 0 -74 -19.5t-23 -57.5v-194q0 -62 -16 -96.5t-57 -61.5v-5q40 -25 56.5 -62t16.5 -102v-192q0 -77 97 -77v-44q-80 2 -112.5 37.5t-32.5 120.5v184q0 35 -16.5 61t-56.5 55v44q41 28 57 52t16 60v184q0 61 13.5 93.5t44.5 48t87 17.5v-46z" />
    <glyph glyph-name="bar" unicode="|" horiz-adv-x="320" 
d="M136 786h48v-1000h-48v1000z" />
    <glyph glyph-name="braceright" unicode="}" horiz-adv-x="300" 
d="M41 754q81 -2 113 -37t32 -122v-184q0 -35 17 -61t56 -51v-44q-38 -26 -55.5 -52.5t-17.5 -63.5v-184q0 -84 -32.5 -120t-112.5 -38v44q97 0 97 78v193q0 61 15 98t58 64v5q-31 20 -45 39.5t-21 48t-7 70.5v193q0 37 -22.5 57.5t-74.5 20.5v46z" />
    <glyph glyph-name="asciitilde" unicode="~" 
d="M566 295q-36 -57 -70.5 -83t-75.5 -26q-27 0 -54.5 11.5t-54 26t-55.5 26.5t-55 12t-49 -16t-51 -58l-47 23q43 57 76 80t71 23q43 0 121 -38q53 -26 70.5 -32t28.5 -6q28 0 51.5 19.5t45.5 60.5z" />
    <glyph glyph-name="uni00A0" unicode="&#xa0;" horiz-adv-x="310" 
 />
    <glyph glyph-name="exclamdown" unicode="&#xa1;" horiz-adv-x="320" 
d="M201 431q0 -17 -12 -29t-29 -12t-29 12t-12 29t12 29t29 12t29 -12t12 -29zM136 321h48v-611h-48v611z" />
    <glyph glyph-name="cent" unicode="&#xa2;" 
d="M316 742h45v-116q84 -5 145 -58v-60q-64 70 -145 76v-399q45 4 83.5 26.5t65.5 56.5h2v-61q-69 -59 -151 -64v-128h-45v129q-56 5 -104.5 38t-76.5 85.5t-28 111.5q0 97 58.5 166.5t150.5 79.5v117zM316 582q-70 -11 -117 -67.5t-47 -130.5t47 -130.5t117 -67.5v396z" />
    <glyph glyph-name="sterling" unicode="&#xa3;" 
d="M457 565q0 68 -41.5 111t-108.5 43q-60 0 -103.5 -44.5t-43.5 -104.5q0 -25 10.5 -52t50.5 -89q61 -97 78 -142h136v-45h-127l2 -34q0 -31 -15 -64.5t-42 -60.5q17 -4 37.5 -12.5t42 -16t41.5 -13.5t35 -6q61 0 106 82l41 -24q-31 -53 -68 -78t-73 -25q-22 0 -47.5 7
t-64.5 23q-72 29 -103 29q-29 0 -54 -14.5t-55 -44.5l-27 39q27 30 63 47.5t68 17.5h3q31 26 47.5 57.5t16.5 60.5l-3 30h-124v45h112l-82 139q-37 62 -45 88.5t-8 60.5q0 51 27 94.5t73.5 69t100.5 25.5q52 0 97 -26.5t70 -70.5t25 -92v-10h-48z" />
    <glyph glyph-name="currency" unicode="&#xa4;" 
d="M516 534l36 -36l-40 -40q29 -45 41 -81t12 -77q0 -39 -11.5 -75t-41.5 -83l40 -40l-36 -36l-42 42q-46 -33 -83.5 -45.5t-80.5 -12.5q-42 0 -79.5 12.5t-84.5 45.5l-42 -42l-36 36l40 40q-26 40 -39.5 77t-13.5 81t13.5 81t39.5 77l-40 40l36 36l42 -42q43 31 81.5 44.5
t82.5 13.5t83 -13.5t81 -44.5zM310 98q54 0 102 28t76.5 76t28.5 103q0 54 -28 99.5t-76.5 71.5t-103.5 26q-54 0 -102 -26.5t-76 -72t-28 -98.5q0 -54 28 -102t76 -76.5t103 -28.5z" />
    <glyph glyph-name="yen" unicode="&#xa5;" 
d="M35 754h58l217 -377l217 377h58l-181 -312h134v-45h-160l-44 -75h204v-45h-204v-277h-48v277h-204v45h204l-43 75h-161v45h134z" />
    <glyph glyph-name="brokenbar" unicode="&#xa6;" horiz-adv-x="320" 
d="M136 661h48v-250h-48v250zM136 161h48v-250h-48v250z" />
    <glyph glyph-name="section" unicode="&#xa7;" 
d="M438 583q0 136 -124 136q-55 0 -88.5 -33t-33.5 -86q0 -33 12 -54t32.5 -35.5t48 -24.5t58.5 -20q80 -27 114.5 -68t34.5 -114q0 -52 -27.5 -95.5t-85.5 -71.5q54 -20 80.5 -61t26.5 -94q0 -72 -47.5 -113.5t-130.5 -41.5q-85 0 -124.5 40t-39.5 127v15h48v-12
q0 -64 28 -94.5t89 -30.5q59 0 94 31.5t35 85.5q0 33 -13.5 55t-40 39t-92.5 39q-90 30 -127.5 71.5t-37.5 110.5q0 59 29.5 104t83.5 68q-50 24 -73 59t-23 91q0 72 48 115t127 43q56 0 90.5 -17.5t52.5 -55.5t24 -108h-48zM310 155q55 0 94.5 39.5t39.5 92.5q0 34 -18 65
t-50 50t-67 19q-54 0 -94 -39.5t-40 -94.5t39.5 -93.5t95.5 -38.5z" />
    <glyph glyph-name="dieresis" unicode="&#xa8;" horiz-adv-x="421" 
d="M157 634q0 -16 -11.5 -28t-28.5 -12q-15 0 -27.5 11.5t-12.5 28.5t12 28.5t28 11.5t28 -11.5t12 -28.5zM344 634q0 -16 -11.5 -28t-28.5 -12q-15 0 -27.5 11.5t-12.5 28.5q0 16 12 28t28 12q17 0 28.5 -12t11.5 -28z" />
    <glyph glyph-name="copyright" unicode="&#xa9;" horiz-adv-x="800" 
d="M787 378q0 -104 -51.5 -194t-141 -142t-193.5 -52t-194 52t-142 142t-52 194t52.5 193.5t142 141t193.5 51.5q105 0 195.5 -53t140.5 -141.5t50 -191.5zM401 38q90 0 168 44t124 122.5t46 173.5q0 94 -45.5 171.5t-123.5 122t-170 44.5q-90 0 -168.5 -44.5t-124.5 -122.5
t-46 -171q0 -92 45 -171t124 -124t171 -45zM549 457q-7 44 -45 71t-88 27q-72 0 -118 -48.5t-46 -124.5q0 -73 47.5 -124.5t118.5 -51.5q51 0 88 29t43 73h48q-6 -65 -57 -107.5t-122 -42.5q-61 0 -110 28.5t-76.5 80t-27.5 114.5q0 99 58 160.5t153 61.5q73 0 122 -39.5
t60 -106.5h-48z" />
    <glyph glyph-name="ordfeminine" unicode="&#xaa;" horiz-adv-x="336" 
d="M286 710v48h29v-277h-29v50h-2q-17 -26 -48 -41t-66 -15q-66 0 -107 41.5t-41 104.5q0 65 41 104t106 39q34 0 65 -14t50 -40h2zM165 509q50 0 83 32t33 82q0 45 -33.5 76t-84.5 31q-45 0 -76 -32.5t-31 -77.5q0 -47 31 -79t78 -32z" />
    <glyph glyph-name="guillemotleft" unicode="&#xab;" horiz-adv-x="397" 
d="M181 489l29 -27l-121 -142l121 -142l-29 -27l-146 169zM301 489l29 -27l-121 -142l121 -142l-29 -27l-146 169z" />
    <glyph glyph-name="logicalnot" unicode="&#xac;" 
d="M518 317h-464v48h512v-266h-48v218z" />
    <glyph glyph-name="uni00AD" unicode="&#xad;" horiz-adv-x="190" 
d="M190 342v-45h-190v45h190z" />
    <glyph glyph-name="registered" unicode="&#xae;" horiz-adv-x="800" 
d="M450 581q145 0 145 -112q0 -110 -133 -116l128 -195h-62l-121 195h-99v-195h-48v423h190zM445 401q102 0 102 69q0 63 -109 63h-130v-132h137zM787 378q0 -104 -51.5 -194t-141 -142t-193.5 -52t-194 52t-142 142t-52 194t52.5 193.5t142 141t193.5 51.5q105 0 195.5 -53
t140.5 -141.5t50 -191.5zM401 38q90 0 168 44t124 122.5t46 173.5q0 94 -45.5 171.5t-123.5 122t-170 44.5q-90 0 -168.5 -44.5t-124.5 -122.5t-46 -171q0 -92 45 -171t124 -124t171 -45z" />
    <glyph glyph-name="macron" unicode="&#xaf;" horiz-adv-x="456" 
d="M380 674v-45h-305v45h305z" />
    <glyph glyph-name="degree" unicode="&#xb0;" horiz-adv-x="400" 
d="M350 614q0 -40 -20 -75t-55 -55t-75 -20q-61 0 -105.5 43.5t-44.5 108.5q0 60 44.5 104t105.5 44q40 0 74.5 -20t55 -55.5t20.5 -74.5zM199 722q-44 0 -75.5 -31t-31.5 -77t31.5 -77t76.5 -31t76.5 31.5t31.5 76.5t-31.5 76.5t-77.5 31.5z" />
    <glyph glyph-name="plusminus" unicode="&#xb1;" 
d="M286 512h48v-192h232v-48h-232v-192h-48v192h-232v48h232v192zM566 48v-48h-512v48h512z" />
    <glyph glyph-name="twosuperior" unicode="&#xb2;" horiz-adv-x="372" 
d="M338 632q0 -38 -22 -73.5t-58 -72.5l-144 -146h222v-34h-302l182 185q47 48 67.5 80.5t20.5 62.5q0 40 -32 68t-81 28q-51 0 -82 -27t-31 -72h-34q1 46 22 74t56.5 43.5t68.5 15.5q61 0 104 -38t43 -94z" />
    <glyph glyph-name="threesuperior" unicode="&#xb3;" horiz-adv-x="372" 
d="M319 648q0 -37 -20.5 -64t-53.5 -41q38 -13 59.5 -44t21.5 -66q0 -58 -41.5 -95.5t-102.5 -37.5q-58 0 -97 33.5t-39 83.5h34q5 -40 31 -61.5t70 -21.5q46 0 78.5 27.5t32.5 69.5t-30 68t-79 26v34q45 0 73.5 25t28.5 65q0 36 -26.5 58.5t-68.5 22.5q-46 0 -68 -21.5
t-24 -56.5h-34q5 55 39 83.5t88 28.5q52 0 90 -33.5t38 -82.5z" />
    <glyph glyph-name="acute" unicode="&#xb4;" horiz-adv-x="313" 
d="M176 714l61 -19l-124 -145l-38 17z" />
    <glyph glyph-name="mu" unicode="&#xb5;" horiz-adv-x="472" 
d="M70 -270v732h45v-228q0 -97 30.5 -149.5t90.5 -52.5q45 0 71 17.5t38 49.5t12 102v261h45v-277q0 -56 -5 -79.5t-14 -40.5t-24.5 -31t-34.5 -23.5t-42.5 -15t-45.5 -5.5q-37 0 -71.5 23t-47.5 59h-2v-342h-45z" />
    <glyph glyph-name="paragraph" unicode="&#xb6;" 
d="M510 754v-45h-40v-887h-48v887h-92v-887h-48v548q-48 0 -87.5 25t-62 69t-22.5 96q0 98 52 146t147 48h201z" />
    <glyph glyph-name="periodcentered" unicode="&#xb7;" horiz-adv-x="310" 
d="M196 256q0 -17 -12 -29t-29 -12t-29 12t-12 29t12 29t29 12t29 -12t12 -29z" />
    <glyph glyph-name="cedilla" unicode="&#xb8;" horiz-adv-x="299" 
d="M168 -20l56 -22l-111 -141l-38 19z" />
    <glyph glyph-name="onesuperior" unicode="&#xb9;" horiz-adv-x="372" 
d="M244 754v-448h-34v414h-76l15 34h95z" />
    <glyph glyph-name="ordmasculine" unicode="&#xba;" horiz-adv-x="328" 
d="M321 620q0 -61 -46 -103t-112 -42q-65 0 -110.5 42.5t-45.5 101.5q0 60 46 102.5t110 42.5q43 0 79.5 -19t57.5 -52.5t21 -72.5zM161 509q50 0 85.5 32t35.5 77q0 47 -34.5 79.5t-87.5 32.5q-47 0 -80.5 -34t-33.5 -78q0 -45 35 -77t80 -32z" />
    <glyph glyph-name="guillemotright" unicode="&#xbb;" horiz-adv-x="397" 
d="M96 489l146 -169l-146 -169l-29 27l121 142l-121 142zM216 489l146 -169l-146 -169l-29 27l121 142l-121 142z" />
    <glyph glyph-name="onequarter" unicode="&#xbc;" horiz-adv-x="930" 
d="M758 468h6v-352h66v-34h-66v-82h-34v82h-259v4zM539 120v-4h191v251h-5zM210 754v-448h-34v414h-76l15 34h95zM649 772l32 -18l-447 -771l-32 18z" />
    <glyph glyph-name="onehalf" unicode="&#xbd;" horiz-adv-x="930" 
d="M211 754v-448h-34v414h-76l15 34h95zM605 772l32 -18l-447 -771l-32 18zM830 326q0 -38 -22 -73.5t-58 -72.5l-144 -146h222v-34h-302l182 185q47 48 67.5 80.5t20.5 62.5q0 40 -32 68t-81 28q-51 0 -82 -27t-31 -72h-34q1 46 22 74t56.5 43.5t68.5 15.5q61 0 104 -38
t43 -94z" />
    <glyph glyph-name="threequarters" unicode="&#xbe;" horiz-adv-x="930" 
d="M798 468h6v-352h66v-34h-66v-82h-34v82h-259v4zM579 120v-4h191v251h-5zM333 648q0 -37 -20.5 -64t-53.5 -41q38 -13 59.5 -44t21.5 -66q0 -58 -41.5 -95.5t-102.5 -37.5q-58 0 -97 33.5t-39 83.5h34q5 -40 31 -61.5t70 -21.5q46 0 78.5 27.5t32.5 69.5t-29.5 68
t-79.5 26v34q45 0 73.5 25t28.5 65q0 36 -26.5 58.5t-68.5 22.5q-46 0 -68 -21.5t-24 -56.5h-34q5 55 39 83.5t88 28.5q52 0 90 -33.5t38 -82.5zM702 772l32 -18l-447 -771l-32 18z" />
    <glyph glyph-name="questiondown" unicode="&#xbf;" horiz-adv-x="491" 
d="M289 431q0 -17 -12 -29t-29 -12t-29 12t-12 29t12 29t29 12t29 -12t12 -29zM403 171q0 -61 -35.5 -98t-118.5 -58q-75 -18 -105 -47.5t-30 -87.5t38 -97.5t95 -39.5q56 0 93 36t37 92q0 32 -5 52h46q7 -42 7 -64q0 -67 -52 -114t-127 -47q-79 0 -129.5 50t-50.5 130
q0 73 38 115t125 63q72 17 99 42t27 70q0 47 -31.5 77t-80.5 30q-46 0 -76 -33t-30 -83h-48v9q0 67 44 109.5t112 42.5q67 0 112.5 -43t45.5 -106z" />
    <glyph glyph-name="Agrave" unicode="&#xc0;" horiz-adv-x="641" 
d="M321 779l315 -779h-49l-101 248h-331l-101 -248h-49zM173 293h295l-147 364zM300 971l101 -147l-38 -17l-124 145z" />
    <glyph glyph-name="Aacute" unicode="&#xc1;" horiz-adv-x="641" 
d="M321 779l315 -779h-49l-101 248h-331l-101 -248h-49zM173 293h295l-147 364zM340 971l61 -19l-124 -145l-38 17z" />
    <glyph glyph-name="Acircumflex" unicode="&#xc2;" horiz-adv-x="641" 
d="M321 779l315 -779h-49l-101 248h-331l-101 -248h-49zM173 293h295l-147 364zM321 951l138 -106l-38 -29l-100 77l-102 -77l-36 29z" />
    <glyph glyph-name="Atilde" unicode="&#xc3;" horiz-adv-x="641" 
d="M321 779l315 -779h-49l-101 248h-331l-101 -248h-49zM173 293h295l-147 364zM464 909q-8 -29 -31 -47t-50 -18q-22 0 -65 20q-42 20 -68 20q-31 0 -44 -41l-30 22q12 29 33 46.5t45 17.5q16 0 34.5 -6t36.5 -13.5t34 -13.5t28 -6q17 0 29.5 11.5t18.5 29.5z" />
    <glyph glyph-name="Adieresis" unicode="&#xc4;" horiz-adv-x="641" 
d="M321 779l315 -779h-49l-101 248h-331l-101 -248h-49zM173 293h295l-147 364zM267 891q0 -17 -11.5 -28.5t-28.5 -11.5t-28.5 11.5t-11.5 28.5t11.5 28.5t28.5 11.5t28.5 -11.5t11.5 -28.5zM454 891q0 -17 -11.5 -28.5t-28.5 -11.5t-28.5 11.5t-11.5 28.5t11.5 28.5
t28.5 11.5t28.5 -11.5t11.5 -28.5z" />
    <glyph glyph-name="Aring" unicode="&#xc5;" horiz-adv-x="641" 
d="M321 779l315 -779h-49l-101 248h-331l-101 -248h-49zM173 293h295l-147 364zM408 884q0 -36 -25 -61.5t-62 -25.5q-36 0 -61.5 25t-25.5 62q0 35 25 61t62 26t62 -26t25 -61zM321 837q21 0 34 13t13 34q0 20 -13 33.5t-34 13.5q-20 0 -33.5 -13.5t-13.5 -33.5
q0 -21 13.5 -34t33.5 -13z" />
    <glyph glyph-name="AE" unicode="&#xc6;" horiz-adv-x="942" 
d="M638 754l17 -45h-311l112 -274h303l19 -45h-303l140 -345h312l18 -45h-365l-100 248h-323l-98 -248h-54l304 754h329zM176 293h285l-144 355z" />
    <glyph glyph-name="Ccedilla" unicode="&#xc7;" horiz-adv-x="739" 
d="M680 600q-43 53 -113 86t-140 33q-92 0 -171.5 -48t-125.5 -128.5t-46 -170.5q0 -89 48 -166t129 -124t166 -47q68 0 139.5 32.5t113.5 82.5v-66q-115 -94 -251 -94q-102 0 -193.5 52.5t-145.5 142t-54 191.5q0 103 52.5 192.5t144.5 142.5t197 53q67 0 132.5 -26
t117.5 -72v-66zM388 -20l56 -22l-111 -141l-38 19z" />
    <glyph glyph-name="Egrave" unicode="&#xc8;" horiz-adv-x="507" 
d="M441 754v-45h-312v-274h304v-45h-304v-345h312v-45h-360v754h360zM233 971l101 -147l-38 -17l-124 145z" />
    <glyph glyph-name="Eacute" unicode="&#xc9;" horiz-adv-x="507" 
d="M441 754v-45h-312v-274h304v-45h-304v-345h312v-45h-360v754h360zM293 971l61 -19l-124 -145l-38 17z" />
    <glyph glyph-name="Ecircumflex" unicode="&#xca;" horiz-adv-x="507" 
d="M441 754v-45h-312v-274h304v-45h-304v-345h312v-45h-360v754h360zM254 951l138 -106l-38 -29l-100 77l-102 -77l-36 29z" />
    <glyph glyph-name="Edieresis" unicode="&#xcb;" horiz-adv-x="507" 
d="M441 754v-45h-312v-274h304v-45h-304v-345h312v-45h-360v754h360zM200 891q0 -17 -11.5 -28.5t-28.5 -11.5t-28.5 11.5t-11.5 28.5t11.5 28.5t28.5 11.5t28.5 -11.5t11.5 -28.5zM387 891q0 -17 -11.5 -28.5t-28.5 -11.5t-28.5 11.5t-11.5 28.5t11.5 28.5t28.5 11.5
t28.5 -11.5t11.5 -28.5z" />
    <glyph glyph-name="Igrave" unicode="&#xcc;" horiz-adv-x="210" 
d="M81 754h48v-754h-48v754zM87 971l101 -147l-38 -17l-124 145z" />
    <glyph glyph-name="Iacute" unicode="&#xcd;" horiz-adv-x="210" 
d="M81 754h48v-754h-48v754zM127 971l61 -19l-124 -145l-38 17z" />
    <glyph glyph-name="Icircumflex" unicode="&#xce;" horiz-adv-x="210" 
d="M81 754h48v-754h-48v754zM107 951l138 -106l-38 -29l-100 77l-102 -77l-36 29z" />
    <glyph glyph-name="Idieresis" unicode="&#xcf;" horiz-adv-x="210" 
d="M81 754h48v-754h-48v754zM54 891q0 -17 -11.5 -28.5t-28.5 -11.5t-28.5 11.5t-11.5 28.5t11.5 28.5t28.5 11.5t28.5 -11.5t11.5 -28.5zM241 891q0 -17 -11.5 -28.5t-28.5 -11.5t-28.5 11.5t-11.5 28.5t11.5 28.5t28.5 11.5t28.5 -11.5t11.5 -28.5z" />
    <glyph glyph-name="Eth" unicode="&#xd0;" horiz-adv-x="652" 
d="M223 754q128 0 210.5 -47t133 -135t50.5 -196q0 -77 -26.5 -143.5t-79.5 -123t-123 -83t-165 -26.5h-142v389h-81v45h81v320h142zM222 45q85 0 147.5 25t109 75.5t68.5 109t22 121.5q0 69 -24.5 130.5t-74 110t-108 70.5t-142.5 22h-91v-275h173v-45h-173v-344h93z" />
    <glyph glyph-name="Ntilde" unicode="&#xd1;" horiz-adv-x="843" 
d="M81 764l633 -668v658h48v-779l-633 673v-648h-48v764zM565 909q-8 -29 -31 -47t-50 -18q-22 0 -65 20q-42 20 -68 20q-31 0 -44 -41l-30 22q12 29 33 46.5t45 17.5q16 0 34.5 -6t36.5 -13.5t34 -13.5t28 -6q17 0 29.5 11.5t18.5 29.5z" />
    <glyph glyph-name="Ograve" unicode="&#xd2;" horiz-adv-x="854" 
d="M818 377q0 -103 -54.5 -193.5t-144.5 -142t-192 -51.5q-104 0 -195 53t-143.5 142.5t-52.5 191.5q0 105 54 195t144.5 141t192.5 51q103 0 193.5 -52t144 -141.5t53.5 -193.5zM427 35q90 0 169.5 46t126.5 125.5t47 170.5q0 90 -46.5 169.5t-126.5 126t-171 46.5
t-171 -47t-125.5 -126.5t-45.5 -168.5q0 -92 47.5 -172t127 -125t168.5 -45zM407 971l101 -147l-38 -17l-124 145z" />
    <glyph glyph-name="Oacute" unicode="&#xd3;" horiz-adv-x="854" 
d="M818 377q0 -103 -54.5 -193.5t-144.5 -142t-192 -51.5q-104 0 -195 53t-143.5 142.5t-52.5 191.5q0 105 54 195t144.5 141t192.5 51q103 0 193.5 -52t144 -141.5t53.5 -193.5zM427 35q90 0 169.5 46t126.5 125.5t47 170.5q0 90 -46.5 169.5t-126.5 126t-171 46.5
t-171 -47t-125.5 -126.5t-45.5 -168.5q0 -92 47.5 -172t127 -125t168.5 -45zM447 971l61 -19l-124 -145l-38 17z" />
    <glyph glyph-name="Ocircumflex" unicode="&#xd4;" horiz-adv-x="854" 
d="M818 377q0 -103 -54.5 -193.5t-144.5 -142t-192 -51.5q-104 0 -195 53t-143.5 142.5t-52.5 191.5q0 105 54 195t144.5 141t192.5 51q103 0 193.5 -52t144 -141.5t53.5 -193.5zM427 35q90 0 169.5 46t126.5 125.5t47 170.5q0 90 -46.5 169.5t-126.5 126t-171 46.5
t-171 -47t-125.5 -126.5t-45.5 -168.5q0 -92 47.5 -172t127 -125t168.5 -45zM427 951l138 -106l-38 -29l-100 77l-102 -77l-36 29z" />
    <glyph glyph-name="Otilde" unicode="&#xd5;" horiz-adv-x="854" 
d="M818 377q0 -103 -54.5 -193.5t-144.5 -142t-192 -51.5q-104 0 -195 53t-143.5 142.5t-52.5 191.5q0 105 54 195t144.5 141t192.5 51q103 0 193.5 -52t144 -141.5t53.5 -193.5zM427 35q90 0 169.5 46t126.5 125.5t47 170.5q0 90 -46.5 169.5t-126.5 126t-171 46.5
t-171 -47t-125.5 -126.5t-45.5 -168.5q0 -92 47.5 -172t127 -125t168.5 -45zM571 909q-8 -29 -31 -47t-50 -18q-22 0 -65 20q-42 20 -68 20q-31 0 -44 -41l-30 22q12 29 33 46.5t45 17.5q16 0 34.5 -6t36.5 -13.5t34 -13.5t28 -6q17 0 29.5 11.5t18.5 29.5z" />
    <glyph glyph-name="Odieresis" unicode="&#xd6;" horiz-adv-x="854" 
d="M818 377q0 -103 -54.5 -193.5t-144.5 -142t-192 -51.5q-104 0 -195 53t-143.5 142.5t-52.5 191.5q0 105 54 195t144.5 141t192.5 51q103 0 193.5 -52t144 -141.5t53.5 -193.5zM427 35q90 0 169.5 46t126.5 125.5t47 170.5q0 90 -46.5 169.5t-126.5 126t-171 46.5
t-171 -47t-125.5 -126.5t-45.5 -168.5q0 -92 47.5 -172t127 -125t168.5 -45zM374 891q0 -17 -11.5 -28.5t-28.5 -11.5t-28.5 11.5t-11.5 28.5t11.5 28.5t28.5 11.5t28.5 -11.5t11.5 -28.5zM561 891q0 -17 -11.5 -28.5t-28.5 -11.5t-28.5 11.5t-11.5 28.5t11.5 28.5
t28.5 11.5t28.5 -11.5t11.5 -28.5z" />
    <glyph glyph-name="multiply" unicode="&#xd7;" 
d="M84 512l226 -226l226 226l30 -34l-224 -222l224 -224l-30 -32l-226 225l-225 -225l-31 32l225 224l-225 222z" />
    <glyph glyph-name="Oslash" unicode="&#xd8;" horiz-adv-x="854" 
d="M776 756l29 -26l-92 -92q105 -112 105 -261q0 -101 -52.5 -191t-143.5 -143t-195 -53q-73 0 -141.5 26.5t-118.5 74.5l-91 -91l-27 29l90 90q-103 111 -103 258q0 101 51.5 190t142.5 143t197 54q71 0 139 -26.5t119 -72.5zM652 632q-46 42 -104.5 64.5t-121.5 22.5
q-91 0 -171 -47t-125.5 -126.5t-45.5 -168.5q0 -61 21.5 -119.5t65.5 -106.5zM199 123q49 -42 106.5 -65t121.5 -23q90 0 170 46.5t126.5 126t46.5 169.5q0 129 -90 228z" />
    <glyph glyph-name="Ugrave" unicode="&#xd9;" horiz-adv-x="660" 
d="M74 754h48v-474q0 -88 19 -136.5t72.5 -78.5t116.5 -30q36 0 71.5 11t64 31t44 47.5t22 61.5t6.5 104v464h48v-478q0 -68 -5.5 -98.5t-20.5 -60.5q-27 -56 -91 -91.5t-139 -35.5q-79 0 -141 36t-88.5 89t-26.5 148v491zM295 971l101 -147l-38 -17l-124 145z" />
    <glyph glyph-name="Uacute" unicode="&#xda;" horiz-adv-x="660" 
d="M74 754h48v-474q0 -88 19 -136.5t72.5 -78.5t116.5 -30q36 0 71.5 11t64 31t44 47.5t22 61.5t6.5 104v464h48v-478q0 -68 -5.5 -98.5t-20.5 -60.5q-27 -56 -91 -91.5t-139 -35.5q-79 0 -141 36t-88.5 89t-26.5 148v491zM365 971l61 -19l-124 -145l-38 17z" />
    <glyph glyph-name="Ucircumflex" unicode="&#xdb;" horiz-adv-x="660" 
d="M74 754h48v-474q0 -88 19 -136.5t72.5 -78.5t116.5 -30q36 0 71.5 11t64 31t44 47.5t22 61.5t6.5 104v464h48v-478q0 -68 -5.5 -98.5t-20.5 -60.5q-27 -56 -91 -91.5t-139 -35.5q-79 0 -141 36t-88.5 89t-26.5 148v491zM330 951l138 -106l-38 -29l-100 77l-102 -77
l-36 29z" />
    <glyph glyph-name="Udieresis" unicode="&#xdc;" horiz-adv-x="660" 
d="M74 754h48v-474q0 -88 19 -136.5t72.5 -78.5t116.5 -30q36 0 71.5 11t64 31t44 47.5t22 61.5t6.5 104v464h48v-478q0 -68 -5.5 -98.5t-20.5 -60.5q-27 -56 -91 -91.5t-139 -35.5q-79 0 -141 36t-88.5 89t-26.5 148v491zM277 891q0 -17 -11.5 -28.5t-28.5 -11.5
t-28.5 11.5t-11.5 28.5t11.5 28.5t28.5 11.5t28.5 -11.5t11.5 -28.5zM464 891q0 -17 -11.5 -28.5t-28.5 -11.5t-28.5 11.5t-11.5 28.5t11.5 28.5t28.5 11.5t28.5 -11.5t11.5 -28.5z" />
    <glyph glyph-name="Yacute" unicode="&#xdd;" horiz-adv-x="559" 
d="M4 754h53l222 -382l222 382h53l-251 -432v-322h-48v322zM329 971l61 -19l-124 -145l-38 17z" />
    <glyph glyph-name="Thorn" unicode="&#xde;" horiz-adv-x="472" 
d="M81 754h48v-160h91q73 0 118 -19.5t76 -68t31 -111.5q0 -54 -24.5 -100.5t-73 -71.5t-128.5 -25h-90v-198h-48v754zM227 243q52 0 90 20t59 55t21 79q0 45 -21 81t-56 53.5t-92 17.5h-99v-306h98z" />
    <glyph glyph-name="germandbls" unicode="&#xdf;" horiz-adv-x="534" 
d="M403 676q0 -47 -24.5 -84t-63.5 -52v-2q82 -23 134.5 -96t52.5 -164q0 -72 -36.5 -135.5t-99.5 -103t-135 -45.5v42q63 9 115 43.5t81.5 86.5t29.5 112q0 97 -62 161t-164 75v42q58 1 92.5 34.5t34.5 90.5q0 50 -34.5 82.5t-86.5 32.5q-33 0 -62.5 -16t-41 -47.5
t-11.5 -84.5v-648h-45v420h-49v42h49v198q0 60 18 97t58.5 59t90.5 22q69 0 114 -46.5t45 -115.5z" />
    <glyph glyph-name="agrave" unicode="&#xe0;" horiz-adv-x="560" 
d="M438 382v80h45v-462h-45v83h-2q-25 -42 -73 -67.5t-103 -25.5q-66 0 -118 31t-81 87.5t-29 125.5q0 104 62.5 171t163.5 67q55 0 102.5 -24t75.5 -66h2zM259 32q81 0 131.5 57.5t50.5 149.5q0 84 -52.5 137.5t-133.5 53.5q-48 0 -89 -26t-65 -72t-24 -98q0 -56 24 -102.5
t65.5 -73t92.5 -26.5zM245 714l101 -147l-38 -17l-124 145z" />
    <glyph glyph-name="aacute" unicode="&#xe1;" horiz-adv-x="560" 
d="M438 382v80h45v-462h-45v83h-2q-25 -42 -73 -67.5t-103 -25.5q-66 0 -118 31t-81 87.5t-29 125.5q0 104 62.5 171t163.5 67q55 0 102.5 -24t75.5 -66h2zM259 32q81 0 131.5 57.5t50.5 149.5q0 84 -52.5 137.5t-133.5 53.5q-48 0 -89 -26t-65 -72t-24 -98q0 -56 24 -102.5
t65.5 -73t92.5 -26.5zM315 714l61 -19l-124 -145l-38 17z" />
    <glyph glyph-name="acircumflex" unicode="&#xe2;" horiz-adv-x="560" 
d="M438 382v80h45v-462h-45v83h-2q-25 -42 -73 -67.5t-103 -25.5q-66 0 -118 31t-81 87.5t-29 125.5q0 104 62.5 171t163.5 67q55 0 102.5 -24t75.5 -66h2zM259 32q81 0 131.5 57.5t50.5 149.5q0 84 -52.5 137.5t-133.5 53.5q-48 0 -89 -26t-65 -72t-24 -98q0 -56 24 -102.5
t65.5 -73t92.5 -26.5zM280 694l138 -106l-38 -29l-100 77l-102 -77l-36 29z" />
    <glyph glyph-name="atilde" unicode="&#xe3;" horiz-adv-x="560" 
d="M439 382v80h45v-462h-45v83h-2q-25 -42 -73 -67.5t-103 -25.5q-66 0 -118 31t-81 87.5t-29 125.5q0 104 62.5 171t163.5 67q55 0 102.5 -24t75.5 -66h2zM260 32q81 0 131.5 57.5t50.5 149.5q0 84 -52.5 137.5t-133.5 53.5q-48 0 -89 -26t-65 -72t-24 -98q0 -56 24 -102.5
t65.5 -73t92.5 -26.5zM424 652q-7 -27 -30 -46t-51 -19q-12 0 -30 6.5t-34.5 13.5t-35.5 13.5t-33 6.5q-31 0 -44 -41l-30 22q12 29 33 46.5t45 17.5q16 0 35 -6t36.5 -13.5t33.5 -13.5t28 -6q17 0 29.5 12t18.5 29z" />
    <glyph glyph-name="adieresis" unicode="&#xe4;" horiz-adv-x="560" 
d="M438 382v80h45v-462h-45v83h-2q-25 -42 -73 -67.5t-103 -25.5q-66 0 -118 31t-81 87.5t-29 125.5q0 104 62.5 171t163.5 67q55 0 102.5 -24t75.5 -66h2zM259 32q81 0 131.5 57.5t50.5 149.5q0 84 -52.5 137.5t-133.5 53.5q-48 0 -89 -26t-65 -72t-24 -98q0 -56 24 -102.5
t65.5 -73t92.5 -26.5zM227 634q0 -16 -11.5 -28t-28.5 -12q-15 0 -27.5 11.5t-12.5 28.5t12 28.5t28 11.5t28 -11.5t12 -28.5zM414 634q0 -16 -11.5 -28t-28.5 -12q-15 0 -27.5 11.5t-12.5 28.5q0 16 12 28t28 12q17 0 28.5 -12t11.5 -28z" />
    <glyph glyph-name="aring" unicode="&#xe5;" horiz-adv-x="560" 
d="M438 382v80h45v-462h-45v83h-2q-25 -42 -73 -67.5t-103 -25.5q-66 0 -118 31t-81 87.5t-29 125.5q0 104 62.5 171t163.5 67q55 0 102.5 -24t75.5 -66h2zM259 32q81 0 131.5 57.5t50.5 149.5q0 84 -52.5 137.5t-133.5 53.5q-48 0 -89 -26t-65 -72t-24 -98q0 -56 24 -102.5
t65.5 -73t92.5 -26.5zM367 627q0 -36 -25.5 -61.5t-61.5 -25.5q-35 0 -61 25.5t-26 61.5q0 35 25.5 61t61.5 26q35 0 61 -25.5t26 -61.5zM280 580q21 0 34 13t13 34q0 20 -13 33.5t-34 13.5q-20 0 -33.5 -13.5t-13.5 -33.5q0 -21 13.5 -34t33.5 -13z" />
    <glyph glyph-name="ae" unicode="&#xe6;" horiz-adv-x="849" 
d="M397 344q23 56 78 92t118 36q64 0 115 -32t79.5 -89t29.5 -125h-401q1 -53 25 -98t65.5 -70.5t91.5 -25.5q49 0 92.5 27.5t72.5 76.5l39 -26q-37 -57 -90 -88.5t-116 -31.5t-114.5 31.5t-74.5 82.5h-2q-14 -52 -66 -83t-126 -31q-83 0 -137.5 40.5t-54.5 103.5
q0 64 56.5 104.5t144.5 40.5q93 0 149 -49q0 97 -42.5 148.5t-121.5 51.5q-31 0 -64.5 -8t-90.5 -34v46q38 19 76.5 28.5t86.5 9.5q67 0 113.5 -33.5t68.5 -94.5zM772 268q-5 43 -31 81t-64.5 59.5t-81.5 21.5q-44 0 -83.5 -21.5t-65.5 -59.5t-30 -81h356zM217 32
q41 0 77 13t56.5 36t20.5 54q0 47 -40 74.5t-110 27.5t-112.5 -27.5t-42.5 -74.5q0 -49 39 -76t112 -27z" />
    <glyph glyph-name="ccedilla" unicode="&#xe7;" horiz-adv-x="477" 
d="M431 355q-70 75 -163 75q-51 0 -95 -26.5t-70 -73t-26 -98.5q0 -53 26 -99.5t70 -73.5t94 -27q46 0 90 20.5t80 62.5v-61q-32 -29 -77 -46.5t-91 -17.5q-66 0 -120.5 32t-85.5 88t-31 122t31.5 121.5t86.5 87t120 31.5q92 0 161 -57v-60zM257 -20l56 -22l-111 -141
l-38 19z" />
    <glyph glyph-name="egrave" unicode="&#xe8;" horiz-adv-x="510" 
d="M77 227v-6q0 -82 51.5 -135.5t133.5 -53.5q51 0 93.5 27t69.5 78l38 -22q-32 -60 -84.5 -92.5t-122.5 -32.5q-63 0 -114.5 31.5t-80.5 87t-29 123.5q0 67 29 122t81 86.5t114 31.5q99 0 160.5 -69t61.5 -176h-401zM433 269q-9 69 -59.5 115t-117.5 46q-44 0 -84.5 -22
t-66 -60t-28.5 -79h356zM220 714l101 -147l-38 -17l-124 145z" />
    <glyph glyph-name="eacute" unicode="&#xe9;" horiz-adv-x="510" 
d="M77 227v-6q0 -82 51.5 -135.5t133.5 -53.5q51 0 93.5 27t69.5 78l38 -22q-32 -60 -84.5 -92.5t-122.5 -32.5q-63 0 -114.5 31.5t-80.5 87t-29 123.5q0 67 29 122t81 86.5t114 31.5q99 0 160.5 -69t61.5 -176h-401zM433 269q-9 69 -59.5 115t-117.5 46q-44 0 -84.5 -22
t-66 -60t-28.5 -79h356zM290 714l61 -19l-124 -145l-38 17z" />
    <glyph glyph-name="ecircumflex" unicode="&#xea;" horiz-adv-x="510" 
d="M77 227v-6q0 -82 51.5 -135.5t133.5 -53.5q51 0 93.5 27t69.5 78l38 -22q-32 -60 -84.5 -92.5t-122.5 -32.5q-63 0 -114.5 31.5t-80.5 87t-29 123.5q0 67 29 122t81 86.5t114 31.5q99 0 160.5 -69t61.5 -176h-401zM433 269q-9 69 -59.5 115t-117.5 46q-44 0 -84.5 -22
t-66 -60t-28.5 -79h356zM255 694l138 -106l-38 -29l-100 77l-102 -77l-36 29z" />
    <glyph glyph-name="edieresis" unicode="&#xeb;" horiz-adv-x="510" 
d="M77 227v-6q0 -82 51.5 -135.5t133.5 -53.5q51 0 93.5 27t69.5 78l38 -22q-32 -60 -84.5 -92.5t-122.5 -32.5q-63 0 -114.5 31.5t-80.5 87t-29 123.5q0 67 29 122t81 86.5t114 31.5q99 0 160.5 -69t61.5 -176h-401zM433 269q-9 69 -59.5 115t-117.5 46q-44 0 -84.5 -22
t-66 -60t-28.5 -79h356zM202 634q0 -16 -11.5 -28t-28.5 -12q-15 0 -27.5 11.5t-12.5 28.5t12 28.5t28 11.5t28 -11.5t12 -28.5zM389 634q0 -16 -11.5 -28t-28.5 -12q-15 0 -27.5 11.5t-12.5 28.5q0 16 12 28t28 12q17 0 28.5 -12t11.5 -28z" />
    <glyph glyph-name="igrave" unicode="&#xec;" horiz-adv-x="234" 
d="M94 462h45v-462h-45v462zM83 714l101 -147l-38 -17l-124 145z" />
    <glyph glyph-name="iacute" unicode="&#xed;" horiz-adv-x="234" 
d="M94 462h45v-462h-45v462zM153 714l61 -19l-124 -145l-38 17z" />
    <glyph glyph-name="icircumflex" unicode="&#xee;" horiz-adv-x="234" 
d="M94 462h45v-462h-45v462zM118 694l138 -106l-38 -29l-100 77l-102 -77l-36 29z" />
    <glyph glyph-name="idieresis" unicode="&#xef;" horiz-adv-x="234" 
d="M94 462h45v-462h-45v462zM65 634q0 -16 -11.5 -28t-28.5 -12q-15 0 -27.5 11.5t-12.5 28.5t12 28.5t28 11.5t28 -11.5t12 -28.5zM252 634q0 -16 -11.5 -28t-28.5 -12q-15 0 -27.5 11.5t-12.5 28.5q0 16 12 28t28 12q17 0 28.5 -12t11.5 -28z" />
    <glyph glyph-name="eth" unicode="&#xf0;" horiz-adv-x="547" 
d="M121 828q70 -40 139 -95l155 87l25 -33l-147 -82q108 -96 165 -210t57 -235q0 -82 -30.5 -143t-86 -94t-126.5 -33q-64 0 -120 32.5t-88 88.5t-32 120q0 63 33 120t89 89.5t121 32.5q49 0 89.5 -17t79.5 -53q-32 90 -72 148t-119 131l-146 -82l-25 34l137 75
q-44 37 -130 89zM269 32q55 0 101.5 26t73 72t26.5 100q0 84 -58 142t-144 58q-51 0 -95 -26.5t-70 -73t-26 -100.5q0 -52 25.5 -98t70.5 -73t96 -27z" />
    <glyph glyph-name="ntilde" unicode="&#xf1;" horiz-adv-x="490" 
d="M413 0h-45v285q0 82 -26.5 113.5t-84.5 31.5q-135 0 -135 -197v-233h-45v462h45v-72h2q21 38 56.5 60t80.5 22q78 0 115 -45t37 -144v-283zM389 652q-7 -27 -30 -46t-51 -19q-12 0 -30 6.5t-34.5 13.5t-35.5 13.5t-33 6.5q-31 0 -44 -41l-30 22q12 29 33 46.5t45 17.5
q16 0 35 -6t36.5 -13.5t33.5 -13.5t28 -6q17 0 29.5 12t18.5 29z" />
    <glyph glyph-name="ograve" unicode="&#xf2;" horiz-adv-x="547" 
d="M515 231q0 -66 -32 -122t-88 -87.5t-123 -31.5q-64 0 -120 32.5t-88 88.5t-32 119q0 65 32.5 121.5t88 88.5t119.5 32q67 0 123 -31.5t88 -87.5t32 -122zM269 32q55 0 101.5 26t73 72t26.5 100q0 84 -58 142t-144 58q-51 0 -95 -26.5t-70 -73t-26 -100.5q0 -52 25.5 -98
t70.5 -73t96 -27zM238 714l101 -147l-38 -17l-124 145z" />
    <glyph glyph-name="oacute" unicode="&#xf3;" horiz-adv-x="547" 
d="M515 231q0 -66 -32 -122t-88 -87.5t-123 -31.5q-64 0 -120 32.5t-88 88.5t-32 119q0 65 32.5 121.5t88 88.5t119.5 32q67 0 123 -31.5t88 -87.5t32 -122zM269 32q55 0 101.5 26t73 72t26.5 100q0 84 -58 142t-144 58q-51 0 -95 -26.5t-70 -73t-26 -100.5q0 -52 25.5 -98
t70.5 -73t96 -27zM308 714l61 -19l-124 -145l-38 17z" />
    <glyph glyph-name="ocircumflex" unicode="&#xf4;" horiz-adv-x="547" 
d="M515 231q0 -66 -32 -122t-88 -87.5t-123 -31.5q-64 0 -120 32.5t-88 88.5t-32 119q0 65 32.5 121.5t88 88.5t119.5 32q67 0 123 -31.5t88 -87.5t32 -122zM269 32q55 0 101.5 26t73 72t26.5 100q0 84 -58 142t-144 58q-51 0 -95 -26.5t-70 -73t-26 -100.5q0 -52 25.5 -98
t70.5 -73t96 -27zM274 694l138 -106l-38 -29l-100 77l-102 -77l-36 29z" />
    <glyph glyph-name="otilde" unicode="&#xf5;" horiz-adv-x="547" 
d="M515 231q0 -66 -32 -122t-88 -87.5t-123 -31.5q-64 0 -120 32.5t-88 88.5t-32 119q0 65 32.5 121.5t88 88.5t119.5 32q67 0 123 -31.5t88 -87.5t32 -122zM269 32q55 0 101.5 26t73 72t26.5 100q0 84 -58 142t-144 58q-51 0 -95 -26.5t-70 -73t-26 -100.5q0 -52 25.5 -98
t70.5 -73t96 -27zM417 652q-7 -27 -30 -46t-51 -19q-12 0 -30 6.5t-34.5 13.5t-35.5 13.5t-33 6.5q-31 0 -44 -41l-30 22q12 29 33 46.5t45 17.5q16 0 35 -6t36.5 -13.5t33.5 -13.5t28 -6q17 0 29.5 12t18.5 29z" />
    <glyph glyph-name="odieresis" unicode="&#xf6;" horiz-adv-x="547" 
d="M515 231q0 -66 -32 -122t-88 -87.5t-123 -31.5q-64 0 -120 32.5t-88 88.5t-32 119q0 65 32.5 121.5t88 88.5t119.5 32q67 0 123 -31.5t88 -87.5t32 -122zM269 32q55 0 101.5 26t73 72t26.5 100q0 84 -58 142t-144 58q-51 0 -95 -26.5t-70 -73t-26 -100.5q0 -52 25.5 -98
t70.5 -73t96 -27zM220 634q0 -16 -11.5 -28t-28.5 -12q-15 0 -27.5 11.5t-12.5 28.5t12 28.5t28 11.5t28 -11.5t12 -28.5zM407 634q0 -16 -11.5 -28t-28.5 -12q-15 0 -27.5 11.5t-12.5 28.5q0 16 12 28t28 12q17 0 28.5 -12t11.5 -28z" />
    <glyph glyph-name="divide" unicode="&#xf7;" 
d="M351 471q0 -17 -12 -29t-29 -12t-29 12t-12 29t12 29t29 12t29 -12t12 -29zM566 280v-48h-512v48h512zM351 41q0 -17 -12 -29t-29 -12t-29 12t-12 29t12 29t29 12t29 -12t12 -29z" />
    <glyph glyph-name="oslash" unicode="&#xf8;" horiz-adv-x="547" 
d="M491 480l28 -29l-62 -62q29 -32 43.5 -73.5t14.5 -84.5q0 -66 -32 -122t-88 -87.5t-123 -31.5q-44 0 -87 16.5t-70 43.5l-60 -60l-27 27l60 60q-56 65 -56 153q0 65 32.5 121.5t88 88.5t119.5 32q89 0 156 -55zM397 386q-55 44 -129 44q-51 0 -95 -26.5t-70 -73
t-26 -100.5q0 -67 42 -122zM145 80q52 -48 124 -48q55 0 101.5 26t73 72t26.5 100q0 40 -11.5 70t-33.5 57z" />
    <glyph glyph-name="ugrave" unicode="&#xf9;" horiz-adv-x="472" 
d="M70 462h45v-263q0 -69 12 -100.5t37.5 -49t71.5 -17.5q64 0 92.5 36t28.5 127v267h45v-284q0 -46 -3.5 -66t-11.5 -38q-15 -36 -56.5 -60t-94.5 -24q-31 0 -58 8.5t-49.5 24t-35 36.5t-18 45.5t-5.5 73.5v284zM191 714l101 -147l-38 -17l-124 145z" />
    <glyph glyph-name="uacute" unicode="&#xfa;" horiz-adv-x="472" 
d="M70 462h45v-263q0 -69 12 -100.5t37.5 -49t71.5 -17.5q64 0 92.5 36t28.5 127v267h45v-284q0 -46 -3.5 -66t-11.5 -38q-15 -36 -56.5 -60t-94.5 -24q-31 0 -58 8.5t-49.5 24t-35 36.5t-18 45.5t-5.5 73.5v284zM281 714l61 -19l-124 -145l-38 17z" />
    <glyph glyph-name="ucircumflex" unicode="&#xfb;" horiz-adv-x="472" 
d="M70 462h45v-263q0 -69 12 -100.5t37.5 -49t71.5 -17.5q64 0 92.5 36t28.5 127v267h45v-284q0 -46 -3.5 -66t-11.5 -38q-15 -36 -56.5 -60t-94.5 -24q-31 0 -58 8.5t-49.5 24t-35 36.5t-18 45.5t-5.5 73.5v284zM236 694l138 -106l-38 -29l-100 77l-102 -77l-36 29z" />
    <glyph glyph-name="udieresis" unicode="&#xfc;" horiz-adv-x="472" 
d="M70 462h45v-263q0 -69 12 -100.5t37.5 -49t71.5 -17.5q64 0 92.5 36t28.5 127v267h45v-284q0 -46 -3.5 -66t-11.5 -38q-15 -36 -56.5 -60t-94.5 -24q-31 0 -58 8.5t-49.5 24t-35 36.5t-18 45.5t-5.5 73.5v284zM183 634q0 -16 -11.5 -28t-28.5 -12q-15 0 -27.5 11.5
t-12.5 28.5t12 28.5t28 11.5t28 -11.5t12 -28.5zM370 634q0 -16 -11.5 -28t-28.5 -12q-15 0 -27.5 11.5t-12.5 28.5q0 16 12 28t28 12q17 0 28.5 -12t11.5 -28z" />
    <glyph glyph-name="yacute" unicode="&#xfd;" horiz-adv-x="460" 
d="M-7 462h47l197 -418l177 418h46l-310 -732h-46l111 262zM280 714l61 -19l-124 -145l-38 17z" />
    <glyph glyph-name="thorn" unicode="&#xfe;" horiz-adv-x="560" 
d="M77 825h45v-446h2q25 42 73.5 67.5t102.5 25.5q65 0 117.5 -31t81.5 -87.5t29 -126.5q0 -68 -28 -122.5t-80 -84.5t-118 -30q-55 0 -103 24t-75 66h-2v-350h-45v1095zM303 32q77 0 128.5 56t51.5 138q0 57 -23 103.5t-65.5 73.5t-94.5 27q-79 0 -130 -58t-51 -151
q0 -84 51.5 -136.5t132.5 -52.5z" />
    <glyph glyph-name="ydieresis" unicode="&#xff;" horiz-adv-x="460" 
d="M-7 462h47l197 -418l177 418h46l-310 -732h-46l111 262zM182 634q0 -16 -11.5 -28t-28.5 -12q-15 0 -27.5 11.5t-12.5 28.5t12 28.5t28 11.5t28 -11.5t12 -28.5zM369 634q0 -16 -11.5 -28t-28.5 -12q-15 0 -27.5 11.5t-12.5 28.5q0 16 12 28t28 12q17 0 28.5 -12
t11.5 -28z" />
    <glyph glyph-name="Amacron" unicode="&#x100;" horiz-adv-x="641" 
d="M321 779l315 -779h-49l-101 248h-331l-101 -248h-49zM173 293h295l-147 364zM476 931v-45h-305v45h305z" />
    <glyph glyph-name="amacron" unicode="&#x101;" horiz-adv-x="560" 
d="M438 382v80h45v-462h-45v83h-2q-25 -42 -73 -67.5t-103 -25.5q-66 0 -118 31t-81 87.5t-29 125.5q0 104 62.5 171t163.5 67q55 0 102.5 -24t75.5 -66h2zM259 32q81 0 131.5 57.5t50.5 149.5q0 84 -52.5 137.5t-133.5 53.5q-48 0 -89 -26t-65 -72t-24 -98q0 -56 24 -102.5
t65.5 -73t92.5 -26.5zM427 674v-45h-305v45h305z" />
    <glyph glyph-name="Abreve" unicode="&#x102;" horiz-adv-x="641" 
d="M321 779l315 -779h-49l-101 248h-331l-101 -248h-49zM173 293h295l-147 364zM225 931q9 -29 34.5 -45t63.5 -16t63.5 16t34.5 45h43q-5 -47 -44.5 -76.5t-96.5 -29.5q-58 0 -98 30.5t-44 75.5h44z" />
    <glyph glyph-name="abreve" unicode="&#x103;" horiz-adv-x="560" 
d="M438 382v80h45v-462h-45v83h-2q-25 -42 -73 -67.5t-103 -25.5q-66 0 -118 31t-81 87.5t-29 125.5q0 104 62.5 171t163.5 67q55 0 102.5 -24t75.5 -66h2zM259 32q81 0 131.5 57.5t50.5 149.5q0 84 -52.5 137.5t-133.5 53.5q-48 0 -89 -26t-65 -72t-24 -98q0 -56 24 -102.5
t65.5 -73t92.5 -26.5zM175 674q10 -29 34.5 -45t63.5 -16q76 0 98 61h43q-6 -48 -45 -77t-96 -29q-58 0 -97.5 30t-44.5 76h44z" />
    <glyph glyph-name="Aogonek" unicode="&#x104;" horiz-adv-x="641" 
d="M321 779l315 -779h-4q-36 -26 -56.5 -54t-20.5 -51q0 -28 19 -43.5t49 -15.5q24 0 58 12l-10 -44q-29 -9 -52 -9q-46 0 -77 27.5t-31 68.5q0 30 20 59t56 50l-101 248h-331l-101 -248h-49zM173 293h295l-147 364z" />
    <glyph glyph-name="aogonek" unicode="&#x105;" horiz-adv-x="560" 
d="M438 382v80h45v-462h-3q-36 -27 -56.5 -54.5t-20.5 -50.5q0 -28 19 -43.5t49 -15.5q28 0 58 12l-10 -44q-29 -9 -52 -9q-46 0 -77 27.5t-31 68.5q0 29 20.5 58t58.5 53v81h-2q-25 -42 -73 -67.5t-103 -25.5q-66 0 -118 31t-81 87t-29 126q0 104 62.5 171t163.5 67
q57 0 104 -24t74 -66h2zM259 32q81 0 131.5 57.5t50.5 149.5q0 84 -52.5 137.5t-133.5 53.5q-48 0 -89 -26t-65 -71.5t-24 -98.5q0 -88 52 -145t130 -57z" />
    <glyph glyph-name="Cacute" unicode="&#x106;" horiz-adv-x="739" 
d="M680 600q-43 53 -113 86t-140 33q-92 0 -171.5 -48t-125.5 -128.5t-46 -170.5q0 -89 48 -166t129 -124t166 -47q68 0 139.5 32.5t113.5 82.5v-66q-115 -94 -251 -94q-102 0 -193.5 52.5t-145.5 142t-54 191.5q0 103 52.5 192.5t144.5 142.5t197 53q67 0 132.5 -26
t117.5 -72v-66zM489 971l61 -19l-124 -145l-38 17z" />
    <glyph glyph-name="cacute" unicode="&#x107;" horiz-adv-x="477" 
d="M431 355q-70 75 -163 75q-51 0 -95 -26.5t-70 -73t-26 -98.5q0 -53 26 -99.5t70 -73.5t94 -27q46 0 90 20.5t80 62.5v-61q-32 -29 -77 -46.5t-91 -17.5q-66 0 -120.5 32t-85.5 88t-31 122t31.5 121.5t86.5 87t120 31.5q92 0 161 -57v-60zM344 714l61 -19l-124 -145
l-38 17z" />
    <glyph glyph-name="Ccircumflex" unicode="&#x108;" horiz-adv-x="739" 
d="M680 600q-43 53 -113 86t-140 33q-92 0 -171.5 -48t-125.5 -128.5t-46 -170.5q0 -89 48 -166t129 -124t166 -47q68 0 139.5 32.5t113.5 82.5v-66q-115 -94 -251 -94q-102 0 -193.5 52.5t-145.5 142t-54 191.5q0 103 52.5 192.5t144.5 142.5t197 53q67 0 132.5 -26
t117.5 -72v-66zM412 951l138 -106l-38 -29l-100 77l-102 -77l-36 29z" />
    <glyph glyph-name="ccircumflex" unicode="&#x109;" horiz-adv-x="477" 
d="M431 355q-70 75 -163 75q-51 0 -95 -26.5t-70 -73t-26 -98.5q0 -53 26 -99.5t70 -73.5t94 -27q46 0 90 20.5t80 62.5v-61q-32 -29 -77 -46.5t-91 -17.5q-66 0 -120.5 32t-85.5 88t-31 122t31.5 121.5t86.5 87t120 31.5q92 0 161 -57v-60zM260 694l138 -106l-38 -29
l-100 77l-102 -77l-36 29z" />
    <glyph glyph-name="Cdotaccent" unicode="&#x10a;" horiz-adv-x="739" 
d="M680 600q-43 53 -113 86t-140 33q-92 0 -171.5 -48t-125.5 -128.5t-46 -170.5q0 -89 48 -166t129 -124t166 -47q68 0 139.5 32.5t113.5 82.5v-66q-115 -94 -251 -94q-102 0 -193.5 52.5t-145.5 142t-54 191.5q0 103 52.5 192.5t144.5 142.5t197 53q67 0 132.5 -26
t117.5 -72v-66zM450 891q0 -17 -11.5 -28.5t-28.5 -11.5t-28.5 11.5t-11.5 28.5t11.5 28.5t28.5 11.5t28.5 -11.5t11.5 -28.5z" />
    <glyph glyph-name="cdotaccent" unicode="&#x10b;" horiz-adv-x="477" 
d="M431 355q-70 75 -163 75q-51 0 -95 -26.5t-70 -73t-26 -98.5q0 -53 26 -99.5t70 -73.5t94 -27q46 0 90 20.5t80 62.5v-61q-32 -29 -77 -46.5t-91 -17.5q-66 0 -120.5 32t-85.5 88t-31 122t31.5 121.5t86.5 87t120 31.5q92 0 161 -57v-60zM299 634q0 -17 -11.5 -28.5
t-28.5 -11.5t-28.5 11.5t-11.5 28.5t11.5 28.5t28.5 11.5t28.5 -11.5t11.5 -28.5z" />
    <glyph glyph-name="Ccaron" unicode="&#x10c;" horiz-adv-x="739" 
d="M680 600q-43 53 -113 86t-140 33q-92 0 -171.5 -48t-125.5 -128.5t-46 -170.5q0 -89 48 -166t129 -124t166 -47q68 0 139.5 32.5t113.5 82.5v-66q-115 -94 -251 -94q-102 0 -193.5 52.5t-145.5 142t-54 191.5q0 103 52.5 192.5t144.5 142.5t197 53q67 0 132.5 -26
t117.5 -72v-66zM321 951l100 -76l102 76l36 -28l-138 -107l-138 107z" />
    <glyph glyph-name="ccaron" unicode="&#x10d;" horiz-adv-x="477" 
d="M431 355q-70 75 -163 75q-51 0 -95 -26.5t-70 -73t-26 -98.5q0 -53 26 -99.5t70 -73.5t94 -27q46 0 90 20.5t80 62.5v-61q-32 -29 -77 -46.5t-91 -17.5q-66 0 -120.5 32t-85.5 88t-31 122t31.5 121.5t86.5 87t120 31.5q92 0 161 -57v-60zM161 694l100 -76l102 76l36 -28
l-138 -107l-138 107z" />
    <glyph glyph-name="Dcaron" unicode="&#x10e;" horiz-adv-x="652" 
d="M223 754q128 0 210.5 -47.5t133 -135t50.5 -195.5q0 -75 -26 -142t-79 -123t-123 -83.5t-166 -27.5h-142v754h142zM222 45q107 0 181 41t120 119t46 171q0 71 -25.5 133t-75 109.5t-107 69t-139.5 21.5h-93v-664h93zM142 951l100 -76l102 76l36 -28l-138 -107l-138 107z
" />
    <glyph glyph-name="dcaron" unicode="&#x10f;" horiz-adv-x="560" 
d="M438 825h45v-825h-45v83h-2q-26 -42 -73 -67.5t-103 -25.5q-66 0 -118 31t-81 87t-29 126q0 104 62.5 171t163.5 67q55 0 102.5 -24t75.5 -66h2v443zM259 32q81 0 131.5 57.5t50.5 149.5q0 84 -52.5 137.5t-133.5 53.5q-47 0 -88.5 -26.5t-65.5 -72.5t-24 -97
q0 -56 24 -102.5t65.5 -73t92.5 -26.5zM609 754l55 -14l-89 -168l-35 14z" />
    <glyph glyph-name="Dcroat" unicode="&#x110;" horiz-adv-x="652" 
d="M223 754q128 0 210.5 -47t133 -135t50.5 -196q0 -77 -26.5 -143.5t-79.5 -123t-123 -83t-165 -26.5h-142v389h-81v45h81v320h142zM222 45q85 0 147.5 25t109 75.5t68.5 109t22 121.5q0 69 -24.5 130.5t-74 110t-108 70.5t-142.5 22h-91v-275h173v-45h-173v-344h93z" />
    <glyph glyph-name="dcroat" unicode="&#x111;" horiz-adv-x="560" 
d="M438 825h45v-186h61v-34h-61v-605h-45v83h-2q-25 -42 -73 -67.5t-103 -25.5q-66 0 -118 31t-81 87t-29 126q0 104 62.5 171t163.5 67q54 0 101.5 -23t76.5 -67h2v223h-133v34h133v186zM259 32q81 0 131.5 57.5t50.5 149.5q0 84 -52.5 137.5t-133.5 53.5q-48 0 -89 -26
t-65 -71.5t-24 -98.5q0 -56 24 -102.5t65.5 -73t92.5 -26.5z" />
    <glyph glyph-name="Emacron" unicode="&#x112;" horiz-adv-x="507" 
d="M441 754v-45h-312v-274h304v-45h-304v-345h312v-45h-360v754h360zM412 931v-45h-305v45h305z" />
    <glyph glyph-name="emacron" unicode="&#x113;" horiz-adv-x="510" 
d="M77 227v-6q0 -82 51.5 -135.5t133.5 -53.5q51 0 93.5 27t69.5 78l38 -22q-32 -60 -84.5 -92.5t-122.5 -32.5q-63 0 -114.5 31.5t-80.5 87t-29 123.5q0 67 29 122t81 86.5t114 31.5q99 0 160.5 -69t61.5 -176h-401zM433 269q-9 69 -59.5 115t-117.5 46q-44 0 -84.5 -22
t-66 -60t-28.5 -79h356zM409 674v-45h-305v45h305z" />
    <glyph glyph-name="Ebreve" unicode="&#x114;" horiz-adv-x="507" 
d="M441 754v-45h-312v-274h304v-45h-304v-345h312v-45h-360v754h360zM164 931q9 -29 34.5 -45t63.5 -16t63.5 16t34.5 45h43q-5 -47 -44.5 -76.5t-96.5 -29.5q-58 0 -98 30.5t-44 75.5h44z" />
    <glyph glyph-name="ebreve" unicode="&#x115;" horiz-adv-x="510" 
d="M77 227v-6q0 -82 51.5 -135.5t133.5 -53.5q51 0 93.5 27t69.5 78l38 -22q-32 -60 -84.5 -92.5t-122.5 -32.5q-63 0 -114.5 31.5t-80.5 87t-29 123.5q0 67 29 122t81 86.5t114 31.5q99 0 160.5 -69t61.5 -176h-401zM433 269q-9 69 -59.5 115t-117.5 46q-44 0 -84.5 -22
t-66 -60t-28.5 -79h356zM157 674q10 -29 34.5 -45t63.5 -16q76 0 98 61h43q-6 -48 -45 -77t-96 -29q-58 0 -97.5 30t-44.5 76h44z" />
    <glyph glyph-name="Edotaccent" unicode="&#x116;" horiz-adv-x="507" 
d="M441 754v-45h-312v-274h304v-45h-304v-345h312v-45h-360v754h360zM308 891q0 -17 -11.5 -28.5t-28.5 -11.5t-28.5 11.5t-11.5 28.5t11.5 28.5t28.5 11.5t28.5 -11.5t11.5 -28.5z" />
    <glyph glyph-name="edotaccent" unicode="&#x117;" horiz-adv-x="510" 
d="M77 227v-6q0 -82 51.5 -135.5t133.5 -53.5q51 0 93.5 27t69.5 78l38 -22q-32 -60 -84.5 -92.5t-122.5 -32.5q-63 0 -114.5 31.5t-80.5 87t-29 123.5q0 67 29 122t81 86.5t114 31.5q99 0 160.5 -69t61.5 -176h-401zM433 269q-9 69 -59.5 115t-117.5 46q-44 0 -84.5 -22
t-66 -60t-28.5 -79h356zM308 634q0 -17 -11.5 -28.5t-28.5 -11.5t-28.5 11.5t-11.5 28.5t11.5 28.5t28.5 11.5t28.5 -11.5t11.5 -28.5z" />
    <glyph glyph-name="Eogonek" unicode="&#x118;" horiz-adv-x="507" 
d="M441 754v-45h-312v-274h304v-45h-304v-345h312v-45h-43q-36 -27 -56.5 -54.5t-20.5 -50.5q0 -28 19 -43.5t49 -15.5q28 0 58 12l-10 -44q-29 -9 -52 -9q-45 0 -76.5 27t-31.5 69q0 59 75 109h-271v754h360z" />
    <glyph glyph-name="eogonek" unicode="&#x119;" horiz-adv-x="510" 
d="M77 227q0 -61 24 -104.5t65.5 -67t95.5 -23.5t96 28.5t67 76.5l38 -22q-52 -99 -159 -120q-69 -57 -69 -100q0 -28 19 -43.5t49 -15.5q24 0 58 12l-10 -44q-29 -9 -52 -9q-46 0 -77 27.5t-31 68.5q0 52 60 99q-62 1 -112 32.5t-78.5 87.5t-28.5 122q0 67 29 122t81 86.5
t114 31.5q99 0 160.5 -69t61.5 -176h-401zM433 269q-5 43 -30 80.5t-64 59t-83 21.5t-84 -22t-65.5 -59t-29.5 -80h356z" />
    <glyph glyph-name="Ecaron" unicode="&#x11a;" horiz-adv-x="507" 
d="M441 754v-45h-312v-274h304v-45h-304v-345h312v-45h-360v754h360zM163 951l100 -76l102 76l36 -28l-138 -107l-138 107z" />
    <glyph glyph-name="ecaron" unicode="&#x11b;" horiz-adv-x="510" 
d="M77 227v-6q0 -82 51.5 -135.5t133.5 -53.5q51 0 93.5 27t69.5 78l38 -22q-32 -60 -84.5 -92.5t-122.5 -32.5q-63 0 -114.5 31.5t-80.5 87t-29 123.5q0 67 29 122t81 86.5t114 31.5q99 0 160.5 -69t61.5 -176h-401zM433 269q-9 69 -59.5 115t-117.5 46q-44 0 -84.5 -22
t-66 -60t-28.5 -79h356zM160 694l100 -76l102 76l36 -28l-138 -107l-138 107z" />
    <glyph glyph-name="Gcircumflex" unicode="&#x11c;" horiz-adv-x="824" 
d="M717 557q-53 78 -127.5 120t-163.5 42q-91 0 -170.5 -48.5t-125.5 -128t-46 -165.5q0 -91 46.5 -170.5t125.5 -125.5t170 -46q78 0 155 39t116.5 98t42.5 146h-270v45h318v-16q0 -89 -24 -148.5t-76 -107.5t-122 -74.5t-143 -26.5q-101 0 -190 51.5t-143 140.5t-54 192
q0 105 52.5 194.5t143.5 142.5t197 53q98 0 181 -45t146 -131zM426 951l138 -106l-38 -29l-100 77l-102 -77l-36 29z" />
    <glyph glyph-name="gcircumflex" unicode="&#x11d;" horiz-adv-x="567" 
d="M445 382v80h45v-448q0 -85 -16.5 -131.5t-48 -79t-74 -49.5t-91.5 -17q-98 0 -160.5 54.5t-67.5 143.5h45q4 -69 54 -112.5t125 -43.5q93 0 141 60t48 173v68h-2q-31 -41 -79.5 -65.5t-100.5 -24.5q-63 0 -114.5 32.5t-80.5 88.5t-29 121q0 67 30.5 122.5t83.5 86.5
t116 31q108 0 174 -90h2zM266 32q81 0 131.5 57.5t50.5 149.5q0 84 -52 137.5t-134 53.5q-47 0 -88.5 -26.5t-65.5 -72.5t-24 -97q0 -56 23.5 -102.5t65.5 -73t93 -26.5zM273 694l138 -106l-38 -29l-100 77l-102 -77l-36 29z" />
    <glyph glyph-name="Gbreve" unicode="&#x11e;" horiz-adv-x="824" 
d="M717 557q-53 78 -127.5 120t-163.5 42q-91 0 -170.5 -48.5t-125.5 -128t-46 -165.5q0 -91 46.5 -170.5t125.5 -125.5t170 -46q78 0 155 39t116.5 98t42.5 146h-270v45h318v-16q0 -89 -24 -148.5t-76 -107.5t-122 -74.5t-143 -26.5q-101 0 -190 51.5t-143 140.5t-54 192
q0 105 52.5 194.5t143.5 142.5t197 53q98 0 181 -45t146 -131zM333 931q9 -29 34.5 -45t63.5 -16t63.5 16t34.5 45h43q-5 -47 -44.5 -76.5t-96.5 -29.5q-58 0 -98 30.5t-44 75.5h44z" />
    <glyph glyph-name="gbreve" unicode="&#x11f;" horiz-adv-x="567" 
d="M445 382v80h45v-448q0 -85 -16.5 -131.5t-48 -79t-74 -49.5t-91.5 -17q-98 0 -160.5 54.5t-67.5 143.5h45q4 -69 54 -112.5t125 -43.5q93 0 141 60t48 173v68h-2q-31 -41 -79.5 -65.5t-100.5 -24.5q-63 0 -114.5 32.5t-80.5 88.5t-29 121q0 67 30.5 122.5t83.5 86.5
t116 31q108 0 174 -90h2zM266 32q81 0 131.5 57.5t50.5 149.5q0 84 -52 137.5t-134 53.5q-47 0 -88.5 -26.5t-65.5 -72.5t-24 -97q0 -56 23.5 -102.5t65.5 -73t93 -26.5zM182 674q10 -29 34.5 -45t63.5 -16q76 0 98 61h43q-6 -48 -45 -77t-96 -29q-58 0 -97.5 30t-44.5 76
h44z" />
    <glyph glyph-name="Gdotaccent" unicode="&#x120;" horiz-adv-x="824" 
d="M717 557q-53 78 -127.5 120t-163.5 42q-91 0 -170.5 -48.5t-125.5 -128t-46 -165.5q0 -91 46.5 -170.5t125.5 -125.5t170 -46q78 0 155 39t116.5 98t42.5 146h-270v45h318v-16q0 -89 -24 -148.5t-76 -107.5t-122 -74.5t-143 -26.5q-101 0 -190 51.5t-143 140.5t-54 192
q0 105 52.5 194.5t143.5 142.5t197 53q98 0 181 -45t146 -131zM451 891q0 -17 -11.5 -28.5t-28.5 -11.5t-28.5 11.5t-11.5 28.5t11.5 28.5t28.5 11.5t28.5 -11.5t11.5 -28.5z" />
    <glyph glyph-name="gdotaccent" unicode="&#x121;" horiz-adv-x="567" 
d="M445 382v80h45v-448q0 -85 -16.5 -131.5t-48 -79t-74 -49.5t-91.5 -17q-98 0 -160.5 54.5t-67.5 143.5h45q4 -69 54 -112.5t125 -43.5q93 0 141 60t48 173v68h-2q-31 -41 -79.5 -65.5t-100.5 -24.5q-63 0 -114.5 32.5t-80.5 88.5t-29 121q0 67 30.5 122.5t83.5 86.5
t116 31q108 0 174 -90h2zM266 32q81 0 131.5 57.5t50.5 149.5q0 84 -52 137.5t-134 53.5q-47 0 -88.5 -26.5t-65.5 -72.5t-24 -97q0 -56 23.5 -102.5t65.5 -73t93 -26.5zM314 634q0 -17 -11.5 -28.5t-28.5 -11.5t-28.5 11.5t-11.5 28.5t11.5 28.5t28.5 11.5t28.5 -11.5
t11.5 -28.5z" />
    <glyph glyph-name="Gcommaaccent" unicode="&#x122;" horiz-adv-x="824" 
d="M717 557q-53 78 -127.5 120t-163.5 42q-91 0 -170.5 -48.5t-125.5 -128t-46 -165.5q0 -91 46.5 -170.5t125.5 -125.5t170 -46q78 0 155 39t116.5 98t42.5 146h-270v45h318v-16q0 -89 -24 -148.5t-76 -107.5t-122 -74.5t-143 -26.5q-101 0 -190 51.5t-143 140.5t-54 192
q0 105 52.5 194.5t143.5 142.5t197 53q98 0 181 -45t146 -131zM470 -57v-69q0 -58 -26 -92t-73 -39v33q63 10 63 94h-47v73h83z" />
    <glyph glyph-name="gcommaaccent" unicode="&#x123;" horiz-adv-x="567" 
d="M445 382v80h45v-448q0 -85 -16.5 -131.5t-48 -79t-74 -49.5t-91.5 -17q-98 0 -160.5 54.5t-67.5 143.5h45q4 -69 54 -112.5t125 -43.5q93 0 141 60t48 173v68h-2q-31 -41 -79.5 -65.5t-100.5 -24.5q-63 0 -114.5 32.5t-80.5 88.5t-29 121q0 67 30.5 122.5t83.5 86.5
t116 31q108 0 174 -90h2zM266 32q81 0 131.5 57.5t50.5 149.5q0 84 -52 137.5t-134 53.5q-47 0 -88.5 -26.5t-65.5 -72.5t-24 -97q0 -56 23.5 -102.5t65.5 -73t93 -26.5zM320 735q-63 -10 -63 -94h47v-73h-83v68q0 58 25 91.5t74 40.5v-33z" />
    <glyph glyph-name="Hcircumflex" unicode="&#x124;" horiz-adv-x="716" 
d="M81 754h48v-320h458v320h48v-754h-48v389h-458v-389h-48v754zM353 951l138 -106l-38 -29l-100 77l-102 -77l-36 29z" />
    <glyph glyph-name="hcircumflex" unicode="&#x125;" horiz-adv-x="490" 
d="M77 825h45v-435h2q21 38 56.5 60t80.5 22q80 0 116 -46.5t36 -141.5v-284h-45v285q0 79 -25.5 112t-85.5 33q-135 0 -135 -196v-234h-45v825zM140 997l138 -106l-38 -29l-100 77l-102 -77l-36 29z" />
    <glyph glyph-name="Hbar" unicode="&#x126;" horiz-adv-x="716" 
d="M81 754h48v-158h458v158h48v-754h-48v389h-458v-389h-48v754zM587 434v128h-458v-128h458z" />
    <glyph glyph-name="hbar" unicode="&#x127;" horiz-adv-x="490" 
d="M77 825h45v-186h145v-34h-145v-215h2q21 38 56.5 60t80.5 22q80 0 116 -46.5t36 -141.5v-284h-45v292q0 72 -25 105t-86 33q-135 0 -135 -196v-234h-45v605h-49v34h49v186z" />
    <glyph glyph-name="Itilde" unicode="&#x128;" horiz-adv-x="210" 
d="M81 754h48v-754h-48v754zM252 909q-8 -29 -31 -47t-50 -18q-22 0 -65 20q-42 20 -68 20q-31 0 -44 -41l-30 22q12 29 33 46.5t45 17.5q16 0 34.5 -6t36.5 -13.5t34 -13.5t28 -6q17 0 29.5 11.5t18.5 29.5z" />
    <glyph glyph-name="itilde" unicode="&#x129;" horiz-adv-x="234" 
d="M94 462h45v-462h-45v462zM262 652q-7 -27 -30 -46t-51 -19q-12 0 -30 6.5t-34.5 13.5t-35.5 13.5t-33 6.5q-31 0 -44 -41l-30 22q12 29 33 46.5t45 17.5q16 0 35 -6t36.5 -13.5t33.5 -13.5t28 -6q17 0 29.5 12t18.5 29z" />
    <glyph glyph-name="Imacron" unicode="&#x12a;" horiz-adv-x="210" 
d="M81 754h48v-754h-48v754zM259 931v-45h-305v45h305z" />
    <glyph glyph-name="imacron" unicode="&#x12b;" horiz-adv-x="234" 
d="M220 674v-45h-205v45h205zM94 462h45v-462h-45v462z" />
    <glyph glyph-name="Iogonek" unicode="&#x12e;" horiz-adv-x="210" 
d="M81 754h48v-754h-2q-36 -27 -56.5 -54.5t-20.5 -50.5q0 -28 19 -43.5t49 -15.5q28 0 58 12l-10 -44q-29 -9 -52 -9q-45 0 -76.5 27t-31.5 69q0 28 18.5 56.5t56.5 52.5v754z" />
    <glyph glyph-name="iogonek" unicode="&#x12f;" horiz-adv-x="234" 
d="M158 616q0 -17 -12 -29t-29 -12t-29 12t-12 29t12 29t29 12t29 -12t12 -29zM94 462h45v-462h-4q-36 -26 -56.5 -54t-20.5 -51q0 -28 19 -43.5t49 -15.5q28 0 58 12l-10 -44q-28 -9 -52 -9q-46 0 -77 27.5t-31 68.5q0 31 23 61.5t57 47.5v462z" />
    <glyph glyph-name="Idotaccent" unicode="&#x130;" horiz-adv-x="210" 
d="M81 754h48v-754h-48v754zM147 891q0 -17 -11.5 -28.5t-28.5 -11.5t-28.5 11.5t-11.5 28.5t11.5 28.5t28.5 11.5t28.5 -11.5t11.5 -28.5z" />
    <glyph glyph-name="dotlessi" unicode="&#x131;" horiz-adv-x="234" 
d="M94 462h45v-462h-45v462z" />
    <glyph glyph-name="Jcircumflex" unicode="&#x134;" horiz-adv-x="218" 
d="M89 754h48v-745q0 -86 -32 -126.5t-101 -40.5q-41 0 -74.5 22t-50.5 60l36 27q13 -28 38.5 -46t54.5 -18q42 0 61.5 29t19.5 93v745zM114 951l138 -106l-38 -29l-100 77l-102 -77l-36 29z" />
    <glyph glyph-name="jcircumflex" unicode="&#x135;" horiz-adv-x="234" 
d="M94 462h45v-732h-45v732zM118 699l138 -106l-38 -29l-100 77l-102 -77l-36 29z" />
    <glyph glyph-name="Kcommaaccent" unicode="&#x136;" horiz-adv-x="569" 
d="M81 754h48v-352l358 352h64l-369 -363l392 -391h-63l-362 360l-20 -20v-340h-48v754zM325 -57v-69q0 -58 -26 -92t-73 -39v33q63 10 63 94h-47v73h83z" />
    <glyph glyph-name="kcommaaccent" unicode="&#x137;" horiz-adv-x="427" 
d="M77 825h45v-559l190 196h58l-194 -200l259 -262h-59l-229 231l-25 -26v-205h-45v825zM265 -57v-69q0 -58 -26 -92t-73 -39v33q63 10 63 94h-47v73h83z" />
    <glyph glyph-name="Lacute" unicode="&#x139;" horiz-adv-x="327" 
d="M81 754h48v-709h192v-45h-240v754zM200 971l61 -19l-124 -145l-38 17z" />
    <glyph glyph-name="lacute" unicode="&#x13a;" horiz-adv-x="199" 
d="M77 825h45v-825h-45v825zM175 1019l61 -19l-124 -145l-38 17z" />
    <glyph glyph-name="Lcommaaccent" unicode="&#x13b;" horiz-adv-x="327" 
d="M81 754h48v-709h192v-45h-240v754zM236 -57v-69q0 -58 -26 -92t-73 -39v33q63 10 63 94h-47v73h83z" />
    <glyph glyph-name="lcommaaccent" unicode="&#x13c;" horiz-adv-x="199" 
d="M77 825h45v-825h-45v825zM145 -57v-69q0 -58 -26 -92t-73 -39v33q63 10 63 94h-47v73h83z" />
    <glyph glyph-name="Lcaron" unicode="&#x13d;" horiz-adv-x="327" 
d="M81 754h48v-709h192v-45h-240v754zM311 754l55 -14l-89 -168l-35 14z" />
    <glyph glyph-name="lcaron" unicode="&#x13e;" horiz-adv-x="199" 
d="M77 825h45v-825h-45v825zM246 754l55 -14l-89 -168l-35 14z" />
    <glyph glyph-name="Ldot" unicode="&#x13f;" horiz-adv-x="327" 
d="M81 754h48v-709h192v-45h-240v754zM316 447q0 -17 -11.5 -28.5t-28.5 -11.5t-28.5 11.5t-11.5 28.5t11.5 28.5t28.5 11.5t28.5 -11.5t11.5 -28.5z" />
    <glyph glyph-name="ldot" unicode="&#x140;" horiz-adv-x="279" 
d="M77 825h45v-825h-45v825zM284 465q0 -17 -11.5 -28.5t-28.5 -11.5t-28.5 11.5t-11.5 28.5t11.5 28.5t28.5 11.5t28.5 -11.5t11.5 -28.5z" />
    <glyph glyph-name="Lslash" unicode="&#x141;" horiz-adv-x="327" 
d="M81 754h48v-318l128 89v-49l-128 -89v-342h192v-45h-240v354l-81 -57v49l81 57v351z" />
    <glyph glyph-name="lslash" unicode="&#x142;" horiz-adv-x="229" 
d="M92 825h45v-357l75 53v-45l-75 -53v-423h-45v391l-75 -54v45l75 54v389z" />
    <glyph glyph-name="Nacute" unicode="&#x143;" horiz-adv-x="843" 
d="M81 764l633 -668v658h48v-779l-633 673v-648h-48v764zM499 971l61 -19l-124 -145l-38 17z" />
    <glyph glyph-name="nacute" unicode="&#x144;" horiz-adv-x="490" 
d="M413 0h-45v285q0 82 -26.5 113.5t-84.5 31.5q-135 0 -135 -197v-233h-45v462h45v-72h2q21 38 56.5 60t80.5 22q78 0 115 -45t37 -144v-283zM314 714l61 -19l-124 -145l-38 17z" />
    <glyph glyph-name="Ncommaaccent" unicode="&#x145;" horiz-adv-x="843" 
d="M81 764l633 -668v658h48v-779l-633 673v-648h-48v764zM455 -57v-69q0 -58 -26 -92t-73 -39v33q63 10 63 94h-47v73h83z" />
    <glyph glyph-name="ncommaaccent" unicode="&#x146;" horiz-adv-x="490" 
d="M413 0h-45v285q0 82 -26.5 113.5t-84.5 31.5q-135 0 -135 -197v-233h-45v462h45v-72h2q21 38 56.5 60t80.5 22q78 0 115 -45t37 -144v-283zM284 -57v-69q0 -58 -26 -92t-73 -39v33q63 10 63 94h-47v73h83z" />
    <glyph glyph-name="Ncaron" unicode="&#x147;" horiz-adv-x="843" 
d="M81 764l633 -668v658h48v-779l-633 673v-648h-48v764zM323 951l100 -76l102 76l36 -28l-138 -107l-138 107z" />
    <glyph glyph-name="ncaron" unicode="&#x148;" horiz-adv-x="490" 
d="M413 0h-45v285q0 82 -26.5 113.5t-84.5 31.5q-135 0 -135 -197v-233h-45v462h45v-72h2q21 38 56.5 60t80.5 22q78 0 115 -45t37 -144v-283zM149 694l100 -76l102 76l36 -28l-138 -107l-138 107z" />
    <glyph glyph-name="Omacron" unicode="&#x14c;" horiz-adv-x="854" 
d="M818 377q0 -103 -54.5 -193.5t-144.5 -142t-192 -51.5q-104 0 -195 53t-143.5 142.5t-52.5 191.5q0 105 54 195t144.5 141t192.5 51q103 0 193.5 -52t144 -141.5t53.5 -193.5zM427 35q90 0 169.5 46t126.5 125.5t47 170.5q0 90 -46.5 169.5t-126.5 126t-171 46.5
t-171 -47t-125.5 -126.5t-45.5 -168.5q0 -92 47.5 -172t127 -125t168.5 -45zM580 931v-45h-305v45h305z" />
    <glyph glyph-name="omacron" unicode="&#x14d;" horiz-adv-x="547" 
d="M515 231q0 -66 -32 -122t-88 -87.5t-123 -31.5q-64 0 -120 32.5t-88 88.5t-32 119q0 65 32.5 121.5t88 88.5t119.5 32q67 0 123 -31.5t88 -87.5t32 -122zM269 32q55 0 101.5 26t73 72t26.5 100q0 84 -58 142t-144 58q-51 0 -95 -26.5t-70 -73t-26 -100.5q0 -52 25.5 -98
t70.5 -73t96 -27zM427 674v-45h-305v45h305z" />
    <glyph glyph-name="Obreve" unicode="&#x14e;" horiz-adv-x="854" 
d="M818 377q0 -103 -54.5 -193.5t-144.5 -142t-192 -51.5q-104 0 -195 53t-143.5 142.5t-52.5 191.5q0 105 54 195t144.5 141t192.5 51q103 0 193.5 -52t144 -141.5t53.5 -193.5zM427 35q90 0 169.5 46t126.5 125.5t47 170.5q0 90 -46.5 169.5t-126.5 126t-171 46.5
t-171 -47t-125.5 -126.5t-45.5 -168.5q0 -92 47.5 -172t127 -125t168.5 -45zM329 931q9 -29 34.5 -45t63.5 -16t63.5 16t34.5 45h43q-5 -47 -44.5 -76.5t-96.5 -29.5q-58 0 -98 30.5t-44 75.5h44z" />
    <glyph glyph-name="obreve" unicode="&#x14f;" horiz-adv-x="547" 
d="M515 231q0 -66 -32 -122t-88 -87.5t-123 -31.5q-64 0 -120 32.5t-88 88.5t-32 119q0 65 32.5 121.5t88 88.5t119.5 32q67 0 123 -31.5t88 -87.5t32 -122zM269 32q55 0 101.5 26t73 72t26.5 100q0 84 -58 142t-144 58q-51 0 -95 -26.5t-70 -73t-26 -100.5q0 -52 25.5 -98
t70.5 -73t96 -27zM177 674q10 -29 34.5 -45t63.5 -16q76 0 98 61h43q-6 -48 -45 -77t-96 -29q-58 0 -97.5 30t-44.5 76h44z" />
    <glyph glyph-name="Ohungarumlaut" unicode="&#x150;" horiz-adv-x="854" 
d="M818 377q0 -103 -54.5 -193.5t-144.5 -142t-192 -51.5q-104 0 -195 53t-143.5 142.5t-52.5 191.5q0 105 54 195t144.5 141t192.5 51q103 0 193.5 -52t144 -141.5t53.5 -193.5zM427 35q90 0 169.5 46t126.5 125.5t47 170.5q0 90 -46.5 169.5t-126.5 126t-171 46.5
t-171 -47t-125.5 -126.5t-45.5 -168.5q0 -92 47.5 -172t127 -125t168.5 -45zM439 971l61 -19l-124 -145l-38 17zM572 971l61 -19l-124 -145l-38 17z" />
    <glyph glyph-name="ohungarumlaut" unicode="&#x151;" horiz-adv-x="547" 
d="M515 231q0 -66 -32 -122t-88 -87.5t-123 -31.5q-64 0 -120 32.5t-88 88.5t-32 119q0 65 32.5 121.5t88 88.5t119.5 32q67 0 123 -31.5t88 -87.5t32 -122zM269 32q55 0 101.5 26t73 72t26.5 100q0 84 -58 142t-144 58q-51 0 -95 -26.5t-70 -73t-26 -100.5q0 -52 25.5 -98
t70.5 -73t96 -27zM284 714l61 -19l-124 -145l-38 17zM417 714l61 -19l-124 -145l-38 17z" />
    <glyph glyph-name="OE" unicode="&#x152;" horiz-adv-x="1193" 
d="M767 558v196h360v-45h-312v-274h305v-45h-305v-345h312v-45h-360v194h-2q-44 -92 -137.5 -148t-201.5 -56q-101 0 -191 51t-144.5 141t-54.5 195q0 103 52.5 192.5t144 142t197.5 52.5t197.5 -56.5t137.5 -149.5h2zM427 35q89 0 168 45t125 124.5t46 172.5
q0 92 -45.5 171t-123.5 125t-169 46q-90 0 -170 -47t-127 -126.5t-47 -168.5q0 -92 47.5 -171t126.5 -125t169 -46z" />
    <glyph glyph-name="oe" unicode="&#x153;" horiz-adv-x="945" 
d="M491 338q23 61 76.5 97.5t123.5 36.5q100 0 161 -67t61 -178h-399v-10q0 -50 24 -93t66.5 -67.5t91.5 -24.5q56 0 97.5 27.5t65.5 79.5l38 -23q-30 -61 -83 -93.5t-122 -32.5q-67 0 -122 37t-79 99q-30 -63 -88.5 -99.5t-127.5 -36.5q-66 0 -122 32t-88.5 87.5
t-32.5 120.5q0 66 33 122t89.5 88t122.5 32q67 0 125.5 -36t88.5 -98zM271 32q53 0 99 26.5t72.5 72t26.5 99.5q0 53 -25.5 99.5t-71 73.5t-97.5 27q-54 0 -99.5 -26.5t-72 -73.5t-26.5 -103q0 -51 27 -96.5t72 -72t95 -26.5zM868 269q-9 68 -59.5 114.5t-117.5 46.5
q-68 0 -119.5 -47t-57.5 -114h354z" />
    <glyph glyph-name="Racute" unicode="&#x154;" horiz-adv-x="488" 
d="M183 754q69 0 105.5 -10t68.5 -36t49 -65.5t17 -88.5q0 -93 -56.5 -145t-156.5 -52h-3l247 -357h-55l-246 357h-24v-357h-48v754h102zM195 402q50 0 81.5 9.5t56 35.5t33.5 53t9 56q0 25 -7.5 49.5t-20 43t-30.5 31t-35.5 18.5t-40.5 8.5t-83 2.5h-29v-307h66zM274 971
l61 -19l-124 -145l-38 17z" />
    <glyph glyph-name="racute" unicode="&#x155;" horiz-adv-x="278" 
d="M249 421q-16 9 -32 9q-50 0 -72.5 -39t-22.5 -136v-255h-45v462h45v-60h2q31 70 100 70q23 0 49 -11zM216 714l61 -19l-124 -145l-38 17z" />
    <glyph glyph-name="Rcommaaccent" unicode="&#x156;" horiz-adv-x="488" 
d="M183 754q69 0 105.5 -10t68.5 -36t49 -65.5t17 -88.5q0 -93 -56.5 -145t-156.5 -52h-3l247 -357h-55l-246 357h-24v-357h-48v754h102zM195 402q50 0 81.5 9.5t56 35.5t33.5 53t9 56q0 25 -7.5 49.5t-20 43t-30.5 31t-35.5 18.5t-40.5 8.5t-83 2.5h-29v-307h66zM281 -57
v-69q0 -58 -26 -92t-73 -39v33q63 10 63 94h-47v73h83z" />
    <glyph glyph-name="rcommaaccent" unicode="&#x157;" horiz-adv-x="278" 
d="M249 421q-16 9 -32 9q-50 0 -72.5 -39t-22.5 -136v-255h-45v462h45v-60h2q31 70 100 70q23 0 49 -11zM153 -57v-69q0 -58 -26 -92t-73 -39v33q63 10 63 94h-47v73h83z" />
    <glyph glyph-name="Rcaron" unicode="&#x158;" horiz-adv-x="488" 
d="M183 754q69 0 105.5 -10t68.5 -36t49 -65.5t17 -88.5q0 -93 -56.5 -145t-156.5 -52h-3l247 -357h-55l-246 357h-24v-357h-48v754h102zM195 402q50 0 81.5 9.5t56 35.5t33.5 53t9 56q0 25 -7.5 49.5t-20 43t-30.5 31t-35.5 18.5t-40.5 8.5t-83 2.5h-29v-307h66zM135 951
l100 -76l102 76l36 -28l-138 -107l-138 107z" />
    <glyph glyph-name="rcaron" unicode="&#x159;" horiz-adv-x="278" 
d="M249 421q-16 9 -32 9q-50 0 -72.5 -39t-22.5 -136v-255h-45v462h45v-60h2q31 70 100 70q23 0 49 -11zM37 694l100 -76l102 76l36 -28l-138 -107l-138 107z" />
    <glyph glyph-name="Sacute" unicode="&#x15a;" horiz-adv-x="544" 
d="M430 630q-55 89 -153 89q-60 0 -101 -41.5t-41 -102.5q0 -39 24.5 -68.5t72.5 -53.5l175 -90q45 -23 69.5 -63t24.5 -88q0 -61 -32.5 -112t-87 -80.5t-116.5 -29.5q-76 0 -135.5 43t-86.5 119l42 19q26 -67 72.5 -101.5t109.5 -34.5q49 0 92.5 24t68.5 65.5t25 88.5
q0 78 -102 128q-45 22 -178 93q-86 45 -86 139q0 85 54 138t139 53q58 0 108 -29.5t76 -76.5zM350 971l61 -19l-124 -145l-38 17z" />
    <glyph glyph-name="sacute" unicode="&#x15b;" horiz-adv-x="375" 
d="M271 378q-11 24 -32.5 38t-48.5 14q-31 0 -55 -21.5t-24 -50.5q0 -20 8.5 -33t24.5 -24t60 -27q24 -9 47 -18.5t42 -25t31 -38.5t12 -58q0 -62 -43 -103t-106 -41q-60 0 -102.5 33t-56.5 89l44 14q30 -94 115 -94q43 0 73.5 30t30.5 74q0 58 -67 82l-34 13
q-71 26 -97.5 55t-26.5 69q0 49 36 83t90 34q35 0 69.5 -21t48.5 -53zM253 714l61 -19l-124 -145l-38 17z" />
    <glyph glyph-name="Scircumflex" unicode="&#x15c;" horiz-adv-x="544" 
d="M430 630q-55 89 -153 89q-60 0 -101 -41.5t-41 -102.5q0 -39 24.5 -68.5t72.5 -53.5l175 -90q45 -23 69.5 -63t24.5 -88q0 -61 -32.5 -112t-87 -80.5t-116.5 -29.5q-76 0 -135.5 43t-86.5 119l42 19q26 -67 72.5 -101.5t109.5 -34.5q49 0 92.5 24t68.5 65.5t25 88.5
q0 78 -102 128q-45 22 -178 93q-86 45 -86 139q0 85 54 138t139 53q58 0 108 -29.5t76 -76.5zM291 951l138 -106l-38 -29l-100 77l-102 -77l-36 29z" />
    <glyph glyph-name="scircumflex" unicode="&#x15d;" horiz-adv-x="375" 
d="M271 378q-11 24 -32.5 38t-48.5 14q-31 0 -55 -21.5t-24 -50.5q0 -20 8.5 -33t24.5 -24t60 -27q24 -9 47 -18.5t42 -25t31 -38.5t12 -58q0 -62 -43 -103t-106 -41q-60 0 -102.5 33t-56.5 89l44 14q30 -94 115 -94q43 0 73.5 30t30.5 74q0 58 -67 82l-34 13
q-71 26 -97.5 55t-26.5 69q0 49 36 83t90 34q35 0 69.5 -21t48.5 -53zM196 694l138 -106l-38 -29l-100 77l-102 -77l-36 29z" />
    <glyph glyph-name="Scedilla" unicode="&#x15e;" horiz-adv-x="544" 
d="M430 630q-55 89 -153 89q-60 0 -101 -41.5t-41 -102.5q0 -39 24.5 -68.5t72.5 -53.5l175 -90q45 -23 69.5 -63t24.5 -88q0 -61 -32.5 -112t-87 -80.5t-116.5 -29.5q-76 0 -135.5 43t-86.5 119l42 19q26 -67 72.5 -101.5t109.5 -34.5q49 0 92.5 24t68.5 65.5t25 88.5
q0 78 -102 128q-45 22 -178 93q-86 45 -86 139q0 85 54 138t139 53q58 0 108 -29.5t76 -76.5zM270 -20l56 -22l-111 -141l-38 19z" />
    <glyph glyph-name="scedilla" unicode="&#x15f;" horiz-adv-x="375" 
d="M271 378q-11 24 -32.5 38t-48.5 14q-31 0 -55 -21.5t-24 -50.5q0 -20 8.5 -33t24.5 -24t60 -27q24 -9 47 -18.5t42 -25t31 -38.5t12 -58q0 -62 -43 -103t-106 -41q-60 0 -102.5 33t-56.5 89l44 14q30 -94 115 -94q43 0 73.5 30t30.5 74q0 58 -67 82l-34 13
q-71 26 -97.5 55t-26.5 69q0 49 36 83t90 34q35 0 69.5 -21t48.5 -53zM185 -20l56 -22l-111 -141l-38 19z" />
    <glyph glyph-name="Scaron" unicode="&#x160;" horiz-adv-x="544" 
d="M430 630q-55 89 -153 89q-60 0 -101 -41.5t-41 -102.5q0 -39 24.5 -68.5t72.5 -53.5l175 -90q45 -23 69.5 -63t24.5 -88q0 -61 -32.5 -112t-87 -80.5t-116.5 -29.5q-76 0 -135.5 43t-86.5 119l42 19q26 -67 72.5 -101.5t109.5 -34.5q49 0 92.5 24t68.5 65.5t25 88.5
q0 78 -102 128q-45 22 -178 93q-86 45 -86 139q0 85 54 138t139 53q58 0 108 -29.5t76 -76.5zM182 951l100 -76l102 76l36 -28l-138 -107l-138 107z" />
    <glyph glyph-name="scaron" unicode="&#x161;" horiz-adv-x="375" 
d="M271 378q-11 24 -32.5 38t-48.5 14q-31 0 -55 -21.5t-24 -50.5q0 -20 8.5 -33t24.5 -24t60 -27q24 -9 47 -18.5t42 -25t31 -38.5t12 -58q0 -62 -43 -103t-106 -41q-60 0 -102.5 33t-56.5 89l44 14q30 -94 115 -94q43 0 73.5 30t30.5 74q0 58 -67 82l-34 13
q-71 26 -97.5 55t-26.5 69q0 49 36 83t90 34q35 0 69.5 -21t48.5 -53zM90 694l100 -76l102 76l36 -28l-138 -107l-138 107z" />
    <glyph glyph-name="Tcommaaccent" unicode="&#x162;" horiz-adv-x="450" 
d="M444 754v-45h-195v-709h-48v709h-195v45h438zM274 -57v-69q0 -58 -26 -92t-73 -39v33q63 10 63 94h-47v73h83z" />
    <glyph glyph-name="tcommaaccent" unicode="&#x163;" horiz-adv-x="209" 
d="M82 627h45v-165h81v-42h-81v-420h-45v420h-51v42h51v165zM153 -57v-69q0 -58 -26 -92t-73 -39v33q63 10 63 94h-47v73h83z" />
    <glyph glyph-name="Tcaron" unicode="&#x164;" horiz-adv-x="450" 
d="M444 754v-45h-195v-709h-48v709h-195v45h438zM125 951l100 -76l102 76l36 -28l-138 -107l-138 107z" />
    <glyph glyph-name="tcaron" unicode="&#x165;" horiz-adv-x="209" 
d="M82 627h45v-165h81v-42h-81v-420h-45v420h-51v42h51v165zM264 754l55 -14l-89 -168l-35 14z" />
    <glyph glyph-name="Tbar" unicode="&#x166;" horiz-adv-x="450" 
d="M444 754v-45h-195v-213h94v-34h-94v-462h-48v462h-97v34h97v213h-195v45h438z" />
    <glyph glyph-name="tbar" unicode="&#x167;" horiz-adv-x="209" 
d="M82 627h45v-165h81v-42h-81v-116h74v-34h-74v-270h-45v270h-40v34h40v116h-51v42h51v165z" />
    <glyph glyph-name="Utilde" unicode="&#x168;" horiz-adv-x="660" 
d="M74 754h48v-474q0 -88 19 -136.5t72.5 -78.5t116.5 -30q36 0 71.5 11t64 31t44 47.5t22 61.5t6.5 104v464h48v-478q0 -68 -5.5 -98.5t-20.5 -60.5q-27 -56 -91 -91.5t-139 -35.5q-79 0 -141 36t-88.5 89t-26.5 148v491zM494 909q-8 -29 -31 -47t-50 -18q-22 0 -65 20
q-42 20 -68 20q-31 0 -44 -41l-30 22q12 29 33 46.5t45 17.5q16 0 34.5 -6t36.5 -13.5t34 -13.5t28 -6q17 0 29.5 11.5t18.5 29.5z" />
    <glyph glyph-name="utilde" unicode="&#x169;" horiz-adv-x="472" 
d="M70 462h45v-263q0 -69 12 -100.5t37.5 -49t71.5 -17.5q64 0 92.5 36t28.5 127v267h45v-284q0 -46 -3.5 -66t-11.5 -38q-15 -36 -56.5 -60t-94.5 -24q-31 0 -58 8.5t-49.5 24t-35 36.5t-18 45.5t-5.5 73.5v284zM382 652q-7 -27 -30 -46t-51 -19q-12 0 -30 6.5t-34.5 13.5
t-35.5 13.5t-33 6.5q-31 0 -44 -41l-30 22q12 29 33 46.5t45 17.5q16 0 35 -6t36.5 -13.5t33.5 -13.5t28 -6q17 0 29.5 12t18.5 29z" />
    <glyph glyph-name="Umacron" unicode="&#x16a;" horiz-adv-x="660" 
d="M74 754h48v-474q0 -88 19 -136.5t72.5 -78.5t116.5 -30q36 0 71.5 11t64 31t44 47.5t22 61.5t6.5 104v464h48v-478q0 -68 -5.5 -98.5t-20.5 -60.5q-27 -56 -91 -91.5t-139 -35.5q-79 0 -141 36t-88.5 89t-26.5 148v491zM487 931v-45h-305v45h305z" />
    <glyph glyph-name="umacron" unicode="&#x16b;" horiz-adv-x="472" 
d="M70 462h45v-263q0 -69 12 -100.5t37.5 -49t71.5 -17.5q64 0 92.5 36t28.5 127v267h45v-284q0 -46 -3.5 -66t-11.5 -38q-15 -36 -56.5 -60t-94.5 -24q-31 0 -58 8.5t-49.5 24t-35 36.5t-18 45.5t-5.5 73.5v284zM388 674v-45h-305v45h305z" />
    <glyph glyph-name="Ubreve" unicode="&#x16c;" horiz-adv-x="660" 
d="M74 754h48v-474q0 -88 19 -136.5t72.5 -78.5t116.5 -30q36 0 71.5 11t64 31t44 47.5t22 61.5t6.5 104v464h48v-478q0 -68 -5.5 -98.5t-20.5 -60.5q-27 -56 -91 -91.5t-139 -35.5q-79 0 -141 36t-88.5 89t-26.5 148v491zM238 931q9 -29 34.5 -45t63.5 -16t63.5 16t34.5 45
h43q-5 -47 -44.5 -76.5t-96.5 -29.5q-58 0 -98 30.5t-44 75.5h44z" />
    <glyph glyph-name="ubreve" unicode="&#x16d;" horiz-adv-x="472" 
d="M70 462h45v-263q0 -69 12 -100.5t37.5 -49t71.5 -17.5q64 0 92.5 36t28.5 127v267h45v-284q0 -46 -3.5 -66t-11.5 -38q-15 -36 -56.5 -60t-94.5 -24q-31 0 -58 8.5t-49.5 24t-35 36.5t-18 45.5t-5.5 73.5v284zM140 674q10 -29 34.5 -45t63.5 -16q76 0 98 61h43
q-6 -48 -45 -77t-96 -29q-58 0 -97.5 30t-44.5 76h44z" />
    <glyph glyph-name="Uring" unicode="&#x16e;" horiz-adv-x="660" 
d="M74 754h48v-474q0 -88 19 -136.5t72.5 -78.5t116.5 -30q36 0 71.5 11t64 31t44 47.5t22 61.5t6.5 104v464h48v-478q0 -68 -5.5 -98.5t-20.5 -60.5q-27 -56 -91 -91.5t-139 -35.5q-79 0 -141 36t-88.5 89t-26.5 148v491zM420 884q0 -36 -25 -61.5t-62 -25.5
q-36 0 -61.5 25t-25.5 62q0 35 25 61t62 26t62 -26t25 -61zM333 837q21 0 34 13t13 34q0 20 -13 33.5t-34 13.5q-20 0 -33.5 -13.5t-13.5 -33.5q0 -21 13.5 -34t33.5 -13z" />
    <glyph glyph-name="uring" unicode="&#x16f;" horiz-adv-x="472" 
d="M70 462h45v-263q0 -69 12 -100.5t37.5 -49t71.5 -17.5q64 0 92.5 36t28.5 127v267h45v-284q0 -46 -3.5 -66t-11.5 -38q-15 -36 -56.5 -60t-94.5 -24q-31 0 -58 8.5t-49.5 24t-35 36.5t-18 45.5t-5.5 73.5v284zM321 627q0 -36 -25.5 -61.5t-61.5 -25.5q-35 0 -61 25.5
t-26 61.5q0 35 25.5 61t61.5 26q35 0 61 -25.5t26 -61.5zM234 580q21 0 34 13t13 34q0 20 -13 33.5t-34 13.5q-20 0 -33.5 -13.5t-13.5 -33.5q0 -21 13.5 -34t33.5 -13z" />
    <glyph glyph-name="Uhungarumlaut" unicode="&#x170;" horiz-adv-x="660" 
d="M74 754h48v-474q0 -88 19 -136.5t72.5 -78.5t116.5 -30q36 0 71.5 11t64 31t44 47.5t22 61.5t6.5 104v464h48v-478q0 -68 -5.5 -98.5t-20.5 -60.5q-27 -56 -91 -91.5t-139 -35.5q-79 0 -141 36t-88.5 89t-26.5 148v491zM323 971l61 -19l-124 -145l-38 17zM456 971l61 -19
l-124 -145l-38 17z" />
    <glyph glyph-name="uhungarumlaut" unicode="&#x171;" horiz-adv-x="472" 
d="M70 462h45v-263q0 -69 12 -100.5t37.5 -49t71.5 -17.5q64 0 92.5 36t28.5 127v267h45v-284q0 -46 -3.5 -66t-11.5 -38q-15 -36 -56.5 -60t-94.5 -24q-31 0 -58 8.5t-49.5 24t-35 36.5t-18 45.5t-5.5 73.5v284zM218 714l61 -19l-124 -145l-38 17zM351 714l61 -19
l-124 -145l-38 17z" />
    <glyph glyph-name="Uogonek" unicode="&#x172;" horiz-adv-x="660" 
d="M74 754h48v-464q0 -87 13 -129.5t41 -69t69.5 -41.5t84.5 -15q48 0 95 20t70.5 48t33 67.5t9.5 119.5v464h48v-478q0 -71 -7.5 -106t-24 -64t-45 -53.5t-66 -40t-77.5 -20.5q-66 -54 -66 -97q0 -28 19 -43.5t49 -15.5q26 0 58 12l-10 -44q-29 -9 -52 -9q-45 0 -76.5 27.5
t-31.5 68.5q0 52 60 99q-38 2 -72.5 12.5t-63.5 28t-51 42.5t-33.5 53t-16.5 58.5t-5 91.5v478z" />
    <glyph glyph-name="uogonek" unicode="&#x173;" horiz-adv-x="472" 
d="M70 462h45v-270q0 -86 28 -123t93 -37t93 36.5t28 128.5v265h45v-284q0 -55 -7 -81t-22.5 -47t-42 -35.5t-57.5 -20.5q-68 -56 -68 -99q0 -28 19 -43.5t49 -15.5q24 0 58 12l-10 -44q-28 -9 -52 -9q-46 0 -77 27.5t-31 68.5q0 54 61 100q-41 4 -71 18t-49 38t-25.5 51
t-6.5 71v293z" />
    <glyph glyph-name="Wcircumflex" unicode="&#x174;" horiz-adv-x="1105" 
d="M554 792l282 -686l209 648h48l-254 -779l-288 697l-287 -697l-252 779h48l212 -648zM556 951l138 -106l-38 -29l-100 77l-102 -77l-36 29z" />
    <glyph glyph-name="wcircumflex" unicode="&#x175;" horiz-adv-x="752" 
d="M377 487l164 -404l160 379h46l-209 -487l-163 399l-162 -399l-208 487h46l163 -379zM376 694l138 -106l-38 -29l-100 77l-102 -77l-36 29z" />
    <glyph glyph-name="Ycircumflex" unicode="&#x176;" horiz-adv-x="559" 
d="M4 754h53l222 -382l222 382h53l-251 -432v-322h-48v322zM278 951l138 -106l-38 -29l-100 77l-102 -77l-36 29z" />
    <glyph glyph-name="ycircumflex" unicode="&#x177;" horiz-adv-x="460" 
d="M-7 462h47l197 -418l177 418h46l-310 -732h-46l111 262zM231 694l138 -106l-38 -29l-100 77l-102 -77l-36 29z" />
    <glyph glyph-name="Ydieresis" unicode="&#x178;" horiz-adv-x="559" 
d="M4 754h53l222 -382l222 382h53l-251 -432v-322h-48v322zM238 891q0 -17 -11.5 -28.5t-28.5 -11.5t-28.5 11.5t-11.5 28.5t11.5 28.5t28.5 11.5t28.5 -11.5t11.5 -28.5zM425 891q0 -17 -11.5 -28.5t-28.5 -11.5t-28.5 11.5t-11.5 28.5t11.5 28.5t28.5 11.5t28.5 -11.5
t11.5 -28.5z" />
    <glyph glyph-name="Zacute" unicode="&#x179;" horiz-adv-x="568" 
d="M556 754l-460 -709h447v-45h-531l460 709h-416v45h500zM367 971l61 -19l-124 -145l-38 17z" />
    <glyph glyph-name="zacute" unicode="&#x17a;" horiz-adv-x="480" 
d="M475 462l-377 -420h375v-42h-470l378 420h-317v42h411zM334 714l61 -19l-124 -145l-38 17z" />
    <glyph glyph-name="Zdotaccent" unicode="&#x17b;" horiz-adv-x="568" 
d="M556 754l-460 -709h447v-45h-531l460 709h-416v45h500zM339 891q0 -17 -11.5 -28.5t-28.5 -11.5t-28.5 11.5t-11.5 28.5t11.5 28.5t28.5 11.5t28.5 -11.5t11.5 -28.5z" />
    <glyph glyph-name="zdotaccent" unicode="&#x17c;" horiz-adv-x="480" 
d="M475 462l-377 -420h375v-42h-470l378 420h-317v42h411zM303 634q0 -17 -11.5 -28.5t-28.5 -11.5t-28.5 11.5t-11.5 28.5t11.5 28.5t28.5 11.5t28.5 -11.5t11.5 -28.5z" />
    <glyph glyph-name="Zcaron" unicode="&#x17d;" horiz-adv-x="568" 
d="M556 754l-460 -709h447v-45h-531l460 709h-416v45h500zM196 951l100 -76l102 76l36 -28l-138 -107l-138 107z" />
    <glyph glyph-name="zcaron" unicode="&#x17e;" horiz-adv-x="480" 
d="M475 462l-377 -420h375v-42h-470l378 420h-317v42h411zM165 694l100 -76l102 76l36 -28l-138 -107l-138 107z" />
    <glyph glyph-name="florin" unicode="&#x192;" 
d="M542 782q-23 11 -52 11q-33 0 -52 -18t-28 -62l-41 -227h116l-9 -45h-115l-82 -434q-14 -75 -45 -111t-84 -36q-38 0 -80 17l9 42q36 -14 67 -14t45.5 10.5t24.5 36t20 78.5l79 411h-69l9 45h68l44 232q12 69 43.5 94.5t75.5 25.5q34 0 65 -15z" />
    <glyph glyph-name="Scommaaccent" unicode="&#x218;" horiz-adv-x="544" 
d="M430 630q-55 89 -153 89q-60 0 -101 -41.5t-41 -102.5q0 -39 24.5 -68.5t72.5 -53.5l175 -90q45 -23 69.5 -63t24.5 -88q0 -61 -32.5 -112t-87 -80.5t-116.5 -29.5q-76 0 -135.5 43t-86.5 119l42 19q26 -67 72.5 -101.5t109.5 -34.5q49 0 92.5 24t68.5 65.5t25 88.5
q0 78 -102 128q-45 22 -178 93q-86 45 -86 139q0 85 54 138t139 53q58 0 108 -29.5t76 -76.5zM311 -57v-69q0 -58 -26 -92t-73 -39v33q63 10 63 94h-47v73h83z" />
    <glyph glyph-name="scommaaccent" unicode="&#x219;" horiz-adv-x="375" 
d="M271 378q-11 24 -32.5 38t-48.5 14q-31 0 -55 -21.5t-24 -50.5q0 -20 8.5 -33t24.5 -24t60 -27q24 -9 47 -18.5t42 -25t31 -38.5t12 -58q0 -62 -43 -103t-106 -41q-60 0 -102.5 33t-56.5 89l44 14q30 -94 115 -94q43 0 73.5 30t30.5 74q0 58 -67 82l-34 13
q-71 26 -97.5 55t-26.5 69q0 49 36 83t90 34q35 0 69.5 -21t48.5 -53zM228 -57v-69q0 -58 -26 -92t-73 -39v33q63 10 63 94h-47v73h83z" />
    <glyph glyph-name="uni021A" unicode="&#x21a;" horiz-adv-x="450" 
d="M444 754v-45h-195v-709h-48v709h-195v45h438zM274 -57v-69q0 -58 -26 -92t-73 -39v33q63 10 63 94h-47v73h83z" />
    <glyph glyph-name="uni021B" unicode="&#x21b;" horiz-adv-x="209" 
d="M82 627h45v-165h81v-42h-81v-420h-45v420h-51v42h51v165zM153 -57v-69q0 -58 -26 -92t-73 -39v33q63 10 63 94h-47v73h83z" />
    <glyph glyph-name="dotlessj" unicode="&#x237;" horiz-adv-x="234" 
d="M94 462h45v-732h-45v732z" />
    <glyph glyph-name="circumflex" unicode="&#x2c6;" horiz-adv-x="426" 
d="M213 694l138 -106l-38 -29l-100 77l-102 -77l-36 29z" />
    <glyph glyph-name="caron" unicode="&#x2c7;" horiz-adv-x="426" 
d="M113 694l100 -76l102 76l36 -28l-138 -107l-138 107z" />
    <glyph glyph-name="uni02C9" unicode="&#x2c9;" horiz-adv-x="456" 
d="M380 674v-45h-305v45h305z" />
    <glyph glyph-name="breve" unicode="&#x2d8;" horiz-adv-x="434" 
d="M119 674q10 -29 34.5 -45t63.5 -16q76 0 98 61h43q-6 -48 -45 -77t-96 -29q-58 0 -97.5 30t-44.5 76h44z" />
    <glyph glyph-name="dotaccent" unicode="&#x2d9;" horiz-adv-x="313" 
d="M197 634q0 -17 -11.5 -28.5t-28.5 -11.5t-28.5 11.5t-11.5 28.5t11.5 28.5t28.5 11.5t28.5 -11.5t11.5 -28.5z" />
    <glyph glyph-name="ring" unicode="&#x2da;" horiz-adv-x="324" 
d="M249 627q0 -36 -25.5 -61.5t-61.5 -25.5q-35 0 -61 25.5t-26 61.5q0 35 25.5 61t61.5 26q35 0 61 -25.5t26 -61.5zM162 580q21 0 34 13t13 34q0 20 -13 33.5t-34 13.5q-20 0 -33.5 -13.5t-13.5 -33.5q0 -21 13.5 -34t33.5 -13z" />
    <glyph glyph-name="ogonek" unicode="&#x2db;" horiz-adv-x="321" 
d="M196 2v-2q-34 -25 -55.5 -53t-21.5 -52q0 -28 19 -43.5t49 -15.5q25 0 58 12l-10 -44q-28 -9 -52 -9q-46 0 -77 27.5t-31 68.5q0 26 19 55.5t59 55.5h43z" />
    <glyph glyph-name="tilde" unicode="&#x2dc;" horiz-adv-x="439" 
d="M363 652q-7 -27 -30 -46t-51 -19q-12 0 -30 6.5t-34.5 13.5t-35.5 13.5t-33 6.5q-31 0 -44 -41l-30 22q12 29 33 46.5t45 17.5q16 0 35 -6t36.5 -13.5t33.5 -13.5t28 -6q17 0 29.5 12t18.5 29z" />
    <glyph glyph-name="hungarumlaut" unicode="&#x2dd;" horiz-adv-x="446" 
d="M177 714l61 -19l-124 -145l-38 17zM310 714l61 -19l-124 -145l-38 17z" />
    <glyph glyph-name="uni0394" unicode="&#x394;" horiz-adv-x="718" 
d="M17 0l315 775h45l321 -775h-681zM355 720l-273 -676h550z" />
    <glyph glyph-name="uni03A9" unicode="&#x3a9;" horiz-adv-x="817" 
d="M489 0v194q95 14 153 89.5t58 182.5q0 81 -39 148.5t-108 106t-149 38.5q-83 0 -151 -39t-106 -107.5t-38 -147.5q0 -71 27 -131.5t75.5 -97t109.5 -42.5v-194h-258v42h219v119q-100 26 -159.5 108.5t-59.5 195.5q0 92 44 169t124.5 122.5t173.5 45.5t171.5 -44.5
t124.5 -121.5t46 -168q0 -113 -56 -193.5t-163 -113.5v-119h219v-42h-258z" />
    <glyph glyph-name="uni03BC" unicode="&#x3bc;" horiz-adv-x="472" 
d="M70 -270v732h45v-228q0 -97 30.5 -149.5t90.5 -52.5q45 0 71 17.5t38 49.5t12 102v261h45v-277q0 -56 -5 -79.5t-14 -40.5t-24.5 -31t-34.5 -23.5t-42.5 -15t-45.5 -5.5q-37 0 -71.5 23t-47.5 59h-2v-342h-45z" />
    <glyph glyph-name="pi" unicode="&#x3c0;" horiz-adv-x="565" 
d="M532 9q-28 -14 -54 -14t-41 10t-21.5 31t-6.5 64v370h-280v-470h-39v470h-72v36h508v-36h-78v-393q0 -46 39 -46q25 0 45 12v-34z" />
    <glyph glyph-name="uni1E9E" unicode="&#x1e9e;" horiz-adv-x="617" 
d="M500 709q-81 0 -131.5 -34.5t-50.5 -91.5q0 -29 9.5 -51.5t29 -43t80.5 -62.5q47 -34 82 -70.5t50 -73.5t15 -91q0 -91 -54 -146t-143 -55q-73 0 -122 33.5t-73 105.5l41 20q23 -58 59.5 -86t94.5 -28q71 0 110 41t39 116q0 57 -29.5 103t-100.5 96q-60 43 -86 70
t-38 55.5t-12 64.5q0 44 25.5 80.5t71.5 55.5q-28 2 -57 2q-100 0 -140.5 -36.5t-40.5 -121.5v-561h-48v561q0 106 54 154.5t174 48.5q69 0 191 -10v-45z" />
    <glyph glyph-name="endash" unicode="&#x2013;" horiz-adv-x="500" 
d="M500 342v-45h-500v45h500z" />
    <glyph glyph-name="emdash" unicode="&#x2014;" horiz-adv-x="1000" 
d="M870 342v-45h-740v45h740z" />
    <glyph glyph-name="quoteleft" unicode="&#x2018;" horiz-adv-x="259" 
d="M156 764l30 -11l-68 -229l-45 13z" />
    <glyph glyph-name="quoteright" unicode="&#x2019;" horiz-adv-x="259" 
d="M141 764l45 -13l-83 -227l-30 11z" />
    <glyph glyph-name="quotesinglbase" unicode="&#x201a;" horiz-adv-x="259" 
d="M141 74l45 -14l-83 -226l-30 11z" />
    <glyph glyph-name="quotedblleft" unicode="&#x201c;" horiz-adv-x="390" 
d="M156 764l30 -11l-68 -229l-45 13zM287 764l30 -11l-68 -229l-45 13z" />
    <glyph glyph-name="quotedblright" unicode="&#x201d;" horiz-adv-x="390" 
d="M141 764l45 -13l-83 -227l-30 11zM272 764l45 -13l-83 -227l-30 11z" />
    <glyph glyph-name="quotedblbase" unicode="&#x201e;" horiz-adv-x="390" 
d="M141 74l45 -14l-83 -226l-30 11zM272 74l45 -14l-83 -226l-30 11z" />
    <glyph glyph-name="dagger" unicode="&#x2020;" 
d="M286 754h48v-199h181v-45h-181v-688h-48v688h-181v45h181v199z" />
    <glyph glyph-name="daggerdbl" unicode="&#x2021;" 
d="M286 754h48v-199h181v-45h-181v-428h181v-45h-181v-215h-48v215h-181v45h181v428h-181v45h181v199z" />
    <glyph glyph-name="bullet" unicode="&#x2022;" 
d="M499 377q0 -51 -25 -94.5t-68.5 -68.5t-94.5 -25t-94.5 24.5t-69 68.5t-25.5 95t24.5 94.5t69 69t95.5 25.5t94.5 -25t68.5 -68.5t25 -95.5z" />
    <glyph glyph-name="ellipsis" unicode="&#x2026;" horiz-adv-x="1000" 
d="M208 34q0 -17 -12 -29t-29 -12t-29 12t-12 29t12 29t29 12t29 -12t12 -29zM541 34q0 -17 -12 -29t-29 -12t-29 12t-12 29t12 29t29 12t29 -12t12 -29zM874 34q0 -17 -12 -29t-29 -12t-29 12t-12 29t12 29t29 12t29 -12t12 -29z" />
    <glyph glyph-name="perthousand" unicode="&#x2030;" horiz-adv-x="1034" 
d="M538 771l33 -17l-448 -771l-31 18zM332 612q0 -63 -44 -105t-108 -42q-65 0 -108.5 42t-43.5 105t43 106t109 43q64 0 108 -42t44 -107zM180 507q46 0 78 31t32 74t-32.5 75t-78.5 32q-44 0 -76.5 -32t-32.5 -75t32.5 -74t77.5 -31zM636 140q0 -40 -20 -74t-55.5 -53.5
t-76.5 -19.5q-66 0 -109 42.5t-43 104.5q0 63 43 106t109 43q64 0 108 -42.5t44 -106.5zM1006 140q0 -63 -44 -105t-108 -42q-65 0 -108.5 42.5t-43.5 104.5q0 64 43.5 106.5t108.5 42.5q64 0 108 -42t44 -107zM484 35q45 0 77.5 31t32.5 74q0 44 -32.5 75.5t-78.5 31.5
q-45 0 -77 -31.5t-32 -75.5q0 -42 32 -73.5t78 -31.5zM854 35q46 0 78 31.5t32 73.5q0 45 -32.5 76t-78.5 31q-44 0 -76.5 -31.5t-32.5 -75.5q0 -42 32.5 -73.5t77.5 -31.5z" />
    <glyph glyph-name="guilsinglleft" unicode="&#x2039;" horiz-adv-x="277" 
d="M181 489l29 -27l-121 -142l121 -142l-29 -27l-146 169z" />
    <glyph glyph-name="guilsinglright" unicode="&#x203a;" horiz-adv-x="277" 
d="M96 489l146 -169l-146 -169l-29 27l121 142l-121 142z" />
    <glyph glyph-name="fraction" unicode="&#x2044;" horiz-adv-x="129" 
d="M272 772l32 -18l-447 -771l-32 18z" />
    <glyph glyph-name="Euro" unicode="&#x20ac;" 
d="M550 693q-54 27 -130 27q-94 0 -161.5 -68.5t-91.5 -190.5h322l-13 -42h-313q-4 -22 -4 -55q0 -24 3 -48h269l-13 -42h-252q9 -68 44.5 -122.5t89.5 -84.5t118 -30q84 0 143 39l21 -41q-63 -43 -172 -43q-75 0 -139 35.5t-105.5 99.5t-53.5 147h-76l13 42h57q-2 16 -2 49
q0 37 4 54h-71l13 42h62q25 138 111 221t200 83q37 0 76 -7.5t70 -20.5z" />
    <glyph glyph-name="uni20B9" unicode="&#x20b9;" 
d="M111 605h289q-12 54 -49.5 79t-91.5 25h-148v45h479v-45h-202q48 -34 61 -104h141v-45h-137v-5q0 -92 -57.5 -140t-164.5 -48h-56l316 -367h-65l-315 367v45h116q89 0 133.5 36t44.5 106v6h-294v45z" />
    <glyph glyph-name="uni20BA" unicode="&#x20ba;" 
d="M159 328l-100 -44v49l100 44v113l-100 -44v49l100 44v215h48v-194l230 101v-49l-230 -101v-113l230 101v-49l-230 -101v-310q42 -4 57 -4q71 0 127 40t91.5 119t41.5 178h48q-6 -112 -47 -200.5t-108 -135t-153 -46.5q-44 0 -105 10v328z" />
    <glyph glyph-name="uni20BC" unicode="&#x20bc;" horiz-adv-x="643" 
d="M346 70h-48v509q-106 -8 -167.5 -166t-61.5 -346v-67h-48v76q0 213 74.5 378t202.5 173v127h48v-127q127 -7 201.5 -171.5t74.5 -379.5v-76h-48v67q0 186 -60.5 345t-167.5 167v-509z" />
    <glyph glyph-name="uni20BD" unicode="&#x20bd;" 
d="M212 0h-48v248h-101v45h101v88h-101v45h101l1 328h168q113 0 173 -47.5t60 -137.5t-62.5 -139t-170.5 -49h-121v-88h208v-45h-208v-248zM212 426h130q81 0 128.5 37t47.5 106q0 66 -47 103t-130 37h-129v-283z" />
    <glyph glyph-name="afii61289" unicode="&#x2113;" horiz-adv-x="500" 
d="M417 46q-62 -56 -134 -56q-115 0 -115 133v130l-66 -72l-25 33l91 89v279q0 89 30.5 136t86.5 47q52 0 83 -36t31 -97q0 -79 -46 -162t-137 -176v-159q0 -102 80 -102q22 0 48.5 11.5t49.5 31.5zM349 627q0 46 -17 70.5t-47 24.5q-31 0 -50 -35t-19 -93v-249
q63 74 98 143.5t35 138.5z" />
    <glyph glyph-name="trademark" unicode="&#x2122;" horiz-adv-x="940" 
d="M378 754v-42h-139v-379h-42v379h-139v42h320zM533 754l137 -327h2l139 327h72v-421h-42v379h-4l-165 -379h-2l-163 379h-4v-379h-42v421h72z" />
    <glyph glyph-name="Omega" unicode="&#x2126;" horiz-adv-x="817" 
d="M489 0v194q95 14 153 89.5t58 182.5q0 81 -39 148.5t-108 106t-149 38.5q-83 0 -151 -39t-106 -107.5t-38 -147.5q0 -71 27 -131.5t75.5 -97t109.5 -42.5v-194h-258v42h219v119q-100 26 -159.5 108.5t-59.5 195.5q0 92 44 169t124.5 122.5t173.5 45.5t171.5 -44.5
t124.5 -121.5t46 -168q0 -113 -56 -193.5t-163 -113.5v-119h219v-42h-258z" />
    <glyph glyph-name="estimated" unicode="&#x212e;" horiz-adv-x="903" 
d="M215 330q-5 0 -5 -5v-176q0 -20 7 -28q38 -47 97.5 -73t134.5 -26q69 0 128 25t121 83h67q-62 -74 -133.5 -103.5t-179.5 -29.5q-112 0 -199 43t-135 120.5t-48 171.5q0 96 50 178t136.5 127.5t193.5 45.5q117 0 202.5 -40.5t132.5 -122.5t47 -190h-617zM692 535
q0 21 -37.5 54t-92 51.5t-115.5 18.5q-64 0 -124 -26t-104 -71q-9 -8 -9 -26v-181q0 -5 5 -5h472q5 0 5 5v180z" />
    <glyph glyph-name="partialdiff" unicode="&#x2202;" horiz-adv-x="477" 
d="M434 365q0 -116 -26.5 -202.5t-75 -130.5t-114.5 -44q-52 0 -94 29t-66 80.5t-24 111.5q0 91 51.5 150.5t132.5 59.5q102 0 173 -95v49q0 142 -49.5 223.5t-135.5 81.5q-30 0 -55 -9.5t-58 -35.5l-23 28q32 26 64 39.5t71 13.5q106 0 167.5 -96t61.5 -253zM386 281
q-34 51 -77 76t-88 25q-65 0 -106 -49t-41 -125q0 -49 19 -92t52.5 -68t73.5 -25q45 0 84 34t61 93.5t22 130.5z" />
    <glyph glyph-name="Delta" unicode="&#x2206;" horiz-adv-x="718" 
d="M17 0l315 775h45l321 -775h-681zM355 720l-273 -676h550z" />
    <glyph glyph-name="product" unicode="&#x220f;" horiz-adv-x="713" 
d="M587 -214v960h-461v-960h-42v1000h544v-1000h-41z" />
    <glyph glyph-name="summation" unicode="&#x2211;" horiz-adv-x="603" 
d="M37 -214v37l336 467l-321 459v37h502v-40h-450l320 -456l-336 -464h477v-40h-528z" />
    <glyph glyph-name="minus" unicode="&#x2212;" 
d="M566 280v-48h-512v48h512z" />
    <glyph glyph-name="uni2215" unicode="&#x2215;" horiz-adv-x="129" 
d="M272 772l32 -18l-447 -771l-32 18z" />
    <glyph glyph-name="uni2219" unicode="&#x2219;" horiz-adv-x="310" 
d="M196 256q0 -17 -12 -29t-29 -12t-29 12t-12 29t12 29t29 12t29 -12t12 -29z" />
    <glyph glyph-name="radical" unicode="&#x221a;" horiz-adv-x="476" 
d="M263 -216h-38l-176 362l-44 -22l-16 32l79 38l170 -354l200 942h39z" />
    <glyph glyph-name="infinity" unicode="&#x221e;" horiz-adv-x="734" 
d="M684 247q0 -61 -34.5 -98t-93.5 -37q-31 0 -56 10t-64.5 39t-68.5 59l-53 -44q-40 -36 -69.5 -50t-64.5 -14q-58 0 -94 37.5t-36 96.5q0 58 35.5 96t90.5 38q42 0 88 -27t103 -84q64 61 107 86.5t81 25.5q54 0 91.5 -38.5t37.5 -95.5zM647 245q0 44 -25 71t-65 27
q-21 0 -42 -8.5t-44 -24.5t-79 -66l10 -9q40 -39 78.5 -62.5t75.5 -23.5q42 0 66.5 27t24.5 69zM342 244q-46 47 -91 73t-77 26q-37 0 -62 -27.5t-25 -70.5t25 -69t67 -26q32 0 66 18t97 76z" />
    <glyph glyph-name="integral" unicode="&#x222b;" horiz-adv-x="544" 
d="M384 747q0 -12 -8 -20t-21 -8q-10 0 -16 5t-10.5 11.5t-8 11.5t-9.5 5q-14 0 -23 -20t-13.5 -62.5t-4.5 -140.5v-506q0 -93 -10.5 -140.5t-33 -72t-60.5 -24.5q-20 0 -33 11t-13 27q0 12 8 19.5t19 7.5q9 0 15.5 -5t11 -10.5t8 -10.5t7.5 -5q19 0 29.5 46t10.5 125v565
q0 93 10 139t32 68.5t61 22.5q22 0 37 -10.5t15 -28.5z" />
    <glyph glyph-name="approxequal" unicode="&#x2248;" 
d="M529 396q-5 -54 -33 -85.5t-72 -31.5q-26 0 -56.5 9.5t-62.5 22.5q-31 11 -58.5 20.5t-50.5 9.5q-26 0 -44 -18.5t-23 -49.5h-39q7 56 34.5 87t71.5 31q27 0 57 -9.5t60 -20.5q32 -12 60 -22t52 -10q53 0 67 67h37zM529 251q-8 -58 -35.5 -87.5t-70.5 -29.5
q-27 0 -57 9.5t-61 21.5q-32 12 -59.5 21.5t-49.5 9.5q-26 0 -44 -18.5t-23 -49.5h-39q8 58 35 88.5t70 30.5q27 0 56.5 -9.5t61.5 -21.5q31 -12 59.5 -21.5t52.5 -9.5q52 0 66 66h38z" />
    <glyph glyph-name="notequal" unicode="&#x2260;" 
d="M265 144l-84 -157l-36 20l73 137h-179v41h201l86 163h-287v42h311l83 158l37 -20l-74 -138h185v-42h-207l-86 -163h293v-41h-316z" />
    <glyph glyph-name="lessequal" unicode="&#x2264;" 
d="M39 288v45l542 218v-45l-487 -195l487 -194v-47zM39 -18v42h542v-42h-542z" />
    <glyph glyph-name="greaterequal" unicode="&#x2265;" 
d="M39 70v47l485 194l-485 195v45l542 -218v-45zM39 -18v42h542v-42h-542z" />
    <glyph glyph-name="lozenge" unicode="&#x25ca;" horiz-adv-x="600" 
d="M318 -38h-36l-169 391l169 390h36l170 -390zM299 694l-145 -341l145 -343l147 343z" />
    <glyph glyph-name="uniF8FF" unicode="&#xf8ff;" horiz-adv-x="512" 
d="M512 718v-718h-512v718h512zM462 50v617h-412v-617h412zM383 478q0 -61 -46 -103l-27 -25q-28 -26 -33.5 -43t-5.5 -73h-46l-2 19q0 86 54 133q55 46 55 88q0 36 -22.5 60.5t-53.5 24.5q-70 0 -82 -95l-50 8q6 66 41 101.5t94 35.5q55 0 89.5 -36t34.5 -95zM222 184h56
v-67h-56v67z" />
    <glyph glyph-name="grave.cap" horiz-adv-x="313" 
d="M136 971l101 -147l-38 -17l-124 145z" />
    <glyph glyph-name="acute.cap" horiz-adv-x="313" 
d="M176 971l61 -19l-124 -145l-38 17z" />
    <glyph glyph-name="circumflex.cap" horiz-adv-x="426" 
d="M213 951l138 -106l-38 -29l-100 77l-102 -77l-36 29z" />
    <glyph glyph-name="caron.cap" horiz-adv-x="426" 
d="M113 951l100 -76l102 76l36 -28l-138 -107l-138 107z" />
    <glyph glyph-name="caron.alt" horiz-adv-x="313" 
d="M166 754l55 -14l-89 -168l-35 14z" />
    <glyph glyph-name="tilde.cap" horiz-adv-x="439" 
d="M363 909q-8 -29 -31 -47t-50 -18q-22 0 -65 20q-42 20 -68 20q-31 0 -44 -41l-30 22q12 29 33 46.5t45 17.5q16 0 34.5 -6t36.5 -13.5t34 -13.5t28 -6q17 0 29.5 11.5t18.5 29.5z" />
    <glyph glyph-name="dieresis.cap" horiz-adv-x="421" 
d="M157 891q0 -17 -11.5 -28.5t-28.5 -11.5t-28.5 11.5t-11.5 28.5t11.5 28.5t28.5 11.5t28.5 -11.5t11.5 -28.5zM344 891q0 -17 -11.5 -28.5t-28.5 -11.5t-28.5 11.5t-11.5 28.5t11.5 28.5t28.5 11.5t28.5 -11.5t11.5 -28.5z" />
    <glyph glyph-name="macron.cap" horiz-adv-x="456" 
d="M380 931v-45h-305v45h305z" />
    <glyph glyph-name="breve.cap" horiz-adv-x="434" 
d="M119 931q9 -29 34.5 -45t63.5 -16t63.5 16t34.5 45h43q-5 -47 -44.5 -76.5t-96.5 -29.5q-58 0 -98 30.5t-44 75.5h44z" />
    <glyph glyph-name="ring.cap" horiz-adv-x="324" 
d="M249 884q0 -36 -25 -61.5t-62 -25.5q-36 0 -61.5 25t-25.5 62q0 35 25 61t62 26t62 -26t25 -61zM162 837q21 0 34 13t13 34q0 20 -13 33.5t-34 13.5q-20 0 -33.5 -13.5t-13.5 -33.5q0 -21 13.5 -34t33.5 -13z" />
    <glyph glyph-name="hungarumlaut.cap" horiz-adv-x="446" 
d="M177 971l61 -19l-124 -145l-38 17zM310 971l61 -19l-124 -145l-38 17z" />
    <glyph glyph-name="dotaccent.cap" horiz-adv-x="313" 
d="M197 891q0 -17 -11.5 -28.5t-28.5 -11.5t-28.5 11.5t-11.5 28.5t11.5 28.5t28.5 11.5t28.5 -11.5t11.5 -28.5z" />
    <glyph glyph-name="commaaccent" horiz-adv-x="330" 
d="M207 -57v-69q0 -58 -26 -92t-73 -39v33q63 10 63 94h-47v73h83z" />
    <glyph glyph-name="commaaccent.alt" horiz-adv-x="330" 
d="M222 735q-63 -10 -63 -94h47v-73h-83v68q0 58 25 91.5t74 40.5v-33z" />
    </font>
</defs>
</svg>
