<?xml version="1.0" standalone="no"?>
<!DOCTYPE svg PUBLIC "-//W3C//DTD SVG 1.1//EN" "http://www.w3.org/Graphics/SVG/1.1/DTD/svg11.dtd" >
<svg>
<metadata>
Created by FontForge 20120731 at Tue Nov  1 00:00:27 2016
 By ,,,
</metadata>
<defs>
<font id="KlinicSlab-Book" horiz-adv-x="496" >
  <font-face 
    font-family="Klinic Slab Book"
    font-weight="400"
    font-stretch="normal"
    units-per-em="1000"
    panose-1="0 0 0 0 0 0 0 0 0 0"
    ascent="750"
    descent="-250"
    x-height="424"
    cap-height="609"
    bbox="-43 -271 1121 943"
    underline-thickness="50"
    underline-position="-50"
    unicode-range="U+000D-FB06"
  />
<missing-glyph horiz-adv-x="425" 
d="M0 0v609h425v-609h-425zM59 42h306l-153 226zM365 567h-306l153 -227zM383 520l-146 -216l146 -216v432zM42 88l146 216l-146 216v-432z" />
    <glyph glyph-name="f_f" unicode="ff" horiz-adv-x="604" 
d="M34 0v47h81v329h-90v48h90v130q0 78 47 116.5t117 38.5t156 -32q37 41 112 41q36 0 73 -8v-45q-38 6 -61 6q-99 0 -99 -91v-156h123v-48h-123v-329h97v-47h-235v47h81v329h-231v-329h97v-47h-235zM291 661q-119 0 -119 -110v-127h231v158q0 33 8 56q-65 23 -120 23z" />
    <glyph glyph-name="fi" unicode="fi" horiz-adv-x="557" 
d="M34 0v47h81v329h-90v48h90v151q0 143 167 143q62 0 144 -21l-8 -43q-72 17 -127.5 17t-87 -21.5t-31.5 -76.5v-149h288v-377h80v-47h-214v47h77v329h-231v-329h97v-47h-235z" />
    <glyph glyph-name="fl" unicode="fl" horiz-adv-x="557" 
d="M34 0v47h81v329h-90v48h90v151q0 143 167 143q47 0 102 -11h76v-660h80v-47h-217v47h80v610q-64 14 -116 14t-83.5 -21.5t-31.5 -76.5v-149h123v-48h-123v-329h97v-47h-235z" />
    <glyph glyph-name="f_f_i" unicode="ffi" horiz-adv-x="845" 
d="M34 0v47h81v329h-90v48h90v130q0 78 47 116.5t114.5 38.5t162.5 -33q42 42 132 42q61 0 143 -21l-8 -43q-70 17 -126 17t-88 -21.5t-32 -76.5v-149h289v-377h79v-47h-214v47h77v329h-231v-329h97v-47h-235v47h81v329h-231v-329h97v-47h-235zM291 661q-119 0 -119 -110
v-127h231v151q0 39 11 62q-65 24 -123 24z" />
    <glyph glyph-name="f_f_l" unicode="ffl" horiz-adv-x="845" 
d="M322 0v47h81v329h-231v-329h97v-47h-235v47h81v329h-90v48h90v130q0 78 47 116.5t114.5 38.5t162.5 -33q42 42 132 42q46 0 101 -11h77v-660h79v-47h-216v47h79v610q-64 14 -115.5 14t-83.5 -21.5t-32 -76.5v-149h123v-48h-123v-329h97v-47h-235zM172 424h231v151
q0 39 11 62q-65 24 -123 24q-119 0 -119 -110v-127z" />
    <glyph glyph-name="f_t" unicode="ft" horiz-adv-x="604" 
d="M512 -11q-121 0 -121 122v265h-219v-329h97v-47h-235v47h81v329h-90v48h90v158q0 69 38 102.5t106 33.5q37 0 72 -8v-45q-36 6 -60 6q-99 0 -99 -91v-156h219v110h57v-110h137v-48h-137v-262q0 -41 18.5 -59.5t57 -18.5t67.5 11v-45q-39 -13 -79 -13z" />
    <glyph glyph-name="f_f_b" unicode="ffb" horiz-adv-x="1109" 
d="M322 0v47h81v329h-231v-329h97v-47h-235v47h81v329h-90v48h90v130q0 78 47 116.5t114.5 38.5t162.5 -33q42 42 132 42q46 0 101 -11h77v-321q67 49 145 49t127 -59.5t49 -163.5t-63 -163.5t-171 -59.5q-69 0 -145 19v649q-64 14 -115.5 14t-83.5 -21.5t-32 -76.5v-149
h123v-48h-123v-329h97v-47h-235zM834 36q86 0 131.5 49t45.5 130t-35 127t-98.5 46t-128.5 -49v-293q48 -10 85 -10zM172 424h231v151q0 39 11 62q-65 24 -123 24q-119 0 -119 -110v-127z" />
    <glyph glyph-name="f_f_h" unicode="ffh" horiz-adv-x="1134" 
d="M322 0v47h81v329h-231v-329h97v-47h-235v47h81v329h-90v48h90v130q0 78 47 116.5t114.5 38.5t162.5 -33q42 42 132 42q46 0 101 -11h77v-348q81 76 169 76q58 0 91 -35.5t33 -102.5v-250h79v-47h-216v47h79v243q0 96 -81 96q-72 0 -154 -74v-265h79v-47h-216v47h79v610
q-64 14 -115.5 14t-83.5 -21.5t-32 -76.5v-149h123v-48h-123v-329h97v-47h-235zM172 551v-127h231v151q0 39 11 62q-65 24 -123 24q-119 0 -119 -110z" />
    <glyph glyph-name="f_f_j" unicode="ffj" horiz-adv-x="821" 
d="M34 0v47h81v329h-90v48h90v130q0 78 47 116.5t114.5 38.5t162.5 -33q42 42 132 42q61 0 143 -21l-8 -43q-70 17 -126 17t-88 -21.5t-32 -76.5v-149h289v-494q0 -101 -123 -148l-20 38q43 23 64 49t21 63v444h-231v-329h97v-47h-235v47h81v329h-231v-329h97v-47h-235z
M291 661q-119 0 -119 -110v-127h231v151q0 39 11 62q-65 24 -123 24z" />
    <glyph glyph-name="f_f_k" unicode="ffk" horiz-adv-x="1098" 
d="M322 0v47h81v329h-231v-329h97v-47h-235v47h81v329h-90v48h90v130q0 78 47 116.5t114.5 38.5t162.5 -33q42 42 132 42q46 0 101 -11h77v-660h77v-47h-214v47h79v610q-64 14 -115.5 14t-83.5 -21.5t-32 -76.5v-149h123v-48h-123v-329h97v-47h-235zM172 551v-127h231v151
q0 39 11 62q-65 24 -123 24q-119 0 -119 -110zM1036 -11q-67 0 -136 84l-112 137v3l161 165h-77v46h205v-47h-64l-158 -164l90 -109q55 -67 103 -67q14 0 26 5v-46q-21 -7 -38 -7z" />
    <glyph glyph-name="f_f_t" unicode="fft" horiz-adv-x="892" 
d="M322 0v47h81v329h-231v-329h97v-47h-235v47h81v329h-90v48h90v130q0 78 47 116.5t117 38.5t156 -32q37 41 112 41q36 0 73 -8v-45q-38 6 -61 6q-99 0 -99 -91v-156h219v110h58v-110h137v-48h-137v-262q0 -41 18.5 -59.5t57.5 -18.5t66 11v-45q-39 -13 -79 -13
q-121 0 -121 122v265h-219v-329h97v-47h-235zM172 551v-127h231v158q0 33 8 56q-65 23 -120 23q-119 0 -119 -110z" />
    <glyph glyph-name="f_b" unicode="fb" horiz-adv-x="821" 
d="M547 -11q-68 0 -144 19v649q-64 14 -116 14t-83.5 -21.5t-31.5 -76.5v-149h123v-49h-123v-328h97v-47h-235v47h81v328h-90v49h90v151q0 143 167 143q47 0 102 -11h76v-321q69 49 146.5 49t126.5 -59.5t49 -163.5t-63.5 -163.5t-171.5 -59.5zM546 36q86 0 131.5 49
t45.5 130t-35 127t-99 46t-129 -49v-293q50 -10 86 -10z" />
    <glyph glyph-name="f_h" unicode="fh" horiz-adv-x="846" 
d="M323 0v47h80v610q-64 14 -116 14t-83.5 -21.5t-31.5 -76.5v-149h123v-48h-123v-329h97v-47h-235v47h81v329h-90v48h90v151q0 143 167 143q47 0 102 -11h76v-348q83 76 169 76q59 0 91.5 -35.5t32.5 -102.5v-250h80v-47h-217v47h80v243q0 96 -81 96q-73 0 -155 -74v-265
h80v-47h-217z" />
    <glyph glyph-name="f_j" unicode="fj" horiz-adv-x="533" 
d="M34 0v47h81v329h-90v48h90v151q0 143 167 143q62 0 144 -21l-8 -43q-72 17 -127.5 17t-87 -21.5t-31.5 -76.5v-149h288v-494q0 -101 -122 -148l-20 38q42 23 63.5 49.5t21.5 62.5v444h-231v-329h97v-47h-235z" />
    <glyph glyph-name="f_k" unicode="fk" horiz-adv-x="810" 
d="M323 0v47h80v610q-64 14 -116 14t-83.5 -21.5t-31.5 -76.5v-149h123v-48h-123v-329h97v-47h-235v47h81v329h-90v48h90v151q0 143 167 143q47 0 102 -11h76v-660h78v-47h-215zM748 -11q-67 0 -136 84l-112 137v3l160 165h-77v46h206v-47h-64l-158 -164l90 -109
q55 -67 103 -67q14 0 26 5v-46q-21 -7 -38 -7z" />
    <glyph glyph-name="t_t" unicode="tt" horiz-adv-x="618" 
d="M525 -11q-121 0 -121 122v266h-255v-263q0 -41 18.5 -59.5t57 -18.5t67.5 11v-45q-39 -13 -80 -13q-121 0 -121 122v266h-73v47h73v110h58v-110h255v110h58v-110h137v-47h-137v-263q0 -41 18.5 -59.5t57 -18.5t66.5 11v-45q-38 -13 -79 -13z" />
    <glyph glyph-name=".notdef" horiz-adv-x="425" 
d="M0 0v609h425v-609h-425zM59 42h306l-153 226zM365 567h-306l153 -227zM383 520l-146 -216l146 -216v432zM42 88l146 216l-146 216v-432z" />
    <glyph glyph-name=".null" horiz-adv-x="0" 
 />
    <glyph glyph-name=".null" horiz-adv-x="0" 
 />
    <glyph glyph-name="nonmarkingreturn" unicode="&#xd;" horiz-adv-x="333" 
 />
    <glyph glyph-name="exclam" unicode="!" horiz-adv-x="235" 
d="M97 158l-12 451h65l-11 -451h-42zM118 -9q-18 0 -31 13t-13 31.5t13 31.5t31 13t30.5 -13t12.5 -31.5t-12.5 -31.5t-30.5 -13z" />
    <glyph glyph-name="quotedbl" unicode="&#x22;" horiz-adv-x="324" 
d="M62 415v207h55v-207h-55zM207 415v207h54v-207h-54z" />
    <glyph glyph-name="numbersign" unicode="#" horiz-adv-x="553" 
d="M40 134v40h105l24 167h-100v41h106l18 122h46l-18 -122h144l18 122h47l-18 -122h100v-41h-106l-25 -167h103v-40h-109l-17 -122h-47l18 122h-144l-18 -122h-46l18 122h-99zM191 174h144l24 167h-143z" />
    <glyph glyph-name="dollar" unicode="$" horiz-adv-x="437" 
d="M212 -109v101q-68 3 -122 28t-54 62q0 16 11 28t28.5 12t28.5 -11t11 -24.5t-7 -25.5q40 -22 104 -25v185q-122 38 -148 85q-12 24 -12 55q0 60 45.5 93.5t114.5 35.5v72h21v-72q61 -3 107 -27.5t46 -57.5q0 -16 -10.5 -27.5t-28 -11.5t-29.5 10.5t-12 25t8 24.5
q-33 19 -81 20v-178q96 -30 128 -62q34 -34 34 -89t-45.5 -89t-116.5 -36v-101h-21zM233 215v-179q48 2 79 23.5t31 60.5t-31.5 59t-78.5 36zM137 308q25 -16 75 -33v171q-51 -2 -80.5 -22.5t-29.5 -57.5t35 -58z" />
    <glyph glyph-name="percent" unicode="%" horiz-adv-x="621" 
d="M127 2l-30 27l400 448l30 -27zM549 33q-29 -34 -80.5 -34t-81 34t-29.5 89t29.5 89t81 34t80.5 -34t29 -89t-29 -89zM422 59.5q16 -23.5 46.5 -23.5t46.5 23.5t16 63t-16 62.5t-47 23t-46.5 -23t-15.5 -62.5t16 -63zM155 234q-52 0 -81 34t-29 89t29 89t81 34t81 -34
t29 -89t-29 -89t-81 -34zM155 271q31 0 47 23.5t16 62.5t-16 62.5t-47 23.5t-47 -23t-16 -63t16 -63t47 -23z" />
    <glyph glyph-name="ampersand" unicode="&#x26;" horiz-adv-x="644" 
d="M239 -12q-86 0 -140.5 42.5t-54.5 112.5t36.5 113t105.5 86l-10 13q-23 30 -34 47q-32 47 -32 95t36.5 85.5t101 37.5t98 -37.5t33.5 -87.5t-29.5 -86t-85.5 -74l163 -192q48 68 61 177h-75v45h197v-45h-70q-16 -133 -78 -218q58 -64 98 -64q16 0 31 7v-49q-24 -8 -43 -8
q-55 0 -122 74q-79 -74 -187 -74zM306.5 551.5q-20.5 23.5 -58 23.5t-60 -21.5t-22.5 -61.5t54 -105l13 -15q45 29 69.5 57.5t24.5 63.5t-20.5 58.5zM242 38q86 0 150 62l-174 205q-90 -57 -109 -103q-9 -21 -9 -47q0 -57 40.5 -87t101.5 -30z" />
    <glyph glyph-name="quotesingle" unicode="'" horiz-adv-x="179" 
d="M62 415v207h55v-207h-55z" />
    <glyph glyph-name="parenleft" unicode="(" horiz-adv-x="247" 
d="M38 254q0 114 37 235t104 218h61q-69 -96 -107 -215.5t-38 -237.5t38 -237.5t107 -214.5h-61q-68 98 -104.5 218t-36.5 234z" />
    <glyph glyph-name="parenright" unicode=")" horiz-adv-x="247" 
d="M152 254q0 119 -37.5 238t-107.5 215h62q67 -97 103.5 -218t36.5 -234.5t-36.5 -234t-103.5 -218.5h-62q70 95 107.5 214t37.5 238z" />
    <glyph glyph-name="asterisk" unicode="*" horiz-adv-x="394" 
d="M197 329q-13 0 -23 9t-10 22t5 29.5t13 41.5t12 42h6q4 -17 12 -42q17 -53 17 -68.5t-9.5 -24.5t-22.5 -9zM197 647q13 0 22.5 -9t9.5 -22t-4.5 -29.5t-12.5 -41.5t-12 -42h-6q-4 17 -12 42q-18 56 -18 70t10 23t23 9zM125 415.5q-12 -12.5 -21.5 -18t-21.5 -5.5t-20 13
t-8 25.5t20 23.5q7 4 24 8q63 15 84 21l3 -5q-12 -12 -30 -31t-30 -31.5zM334 567q5 -6 5 -12.5t-2 -15.5t-13 -15t-28 -10l-42 -10q-26 -6 -43 -11l-2 5q12 12 29 31q40 43 50.5 49t23 6t22.5 -17zM296 462q44 -10 44 -32q0 -12 -8 -25t-20.5 -13t-22 5.5t-21.5 18
t-29.5 31.5t-29.5 31l2 5q17 -5 43 -11zM59 567q11 17 23.5 17t21.5 -5.5t21 -18t30 -31.5t30 -31l-3 -5q-21 6 -61 15.5t-51 15.5q-16 9 -16 23t5 20z" />
    <glyph glyph-name="plus" unicode="+" horiz-adv-x="475" 
d="M213 33v178h-177v47h177v178h48v-178h178v-47h-178v-178h-48z" />
    <glyph glyph-name="comma" unicode="," horiz-adv-x="217" 
d="M76.5 67.5q12.5 12.5 33 12.5t32 -14t11.5 -42t-22.5 -71.5t-55.5 -74.5l-26 21q41 48 50 99q-16 1 -25.5 12.5t-9.5 28t12.5 29z" />
    <glyph glyph-name="hyphen" unicode="-" horiz-adv-x="379" 
d="M60 205v51h259v-51h-259z" />
    <glyph glyph-name="period" unicode="." horiz-adv-x="200" 
d="M100 -9q-18 0 -31 13t-13 31.5t13 31.5t31 13t31 -13t13 -31.5t-13 -31.5t-31 -13z" />
    <glyph glyph-name="slash" unicode="/" horiz-adv-x="531" 
d="M20 -198l437 905h56l-436 -905h-57z" />
    <glyph glyph-name="zero" unicode="0" horiz-adv-x="531" 
d="M426 58q-53 -69 -160.5 -69t-160.5 69t-53 176.5t53 176.5t160.5 69t160.5 -69t53 -176.5t-53 -176.5zM265 36q79 0 116.5 55t37.5 143.5t-37.5 143t-116.5 54.5t-116 -54t-37 -143.5t37 -144t116 -54.5z" />
    <glyph glyph-name="one" unicode="1" horiz-adv-x="330" 
d="M52 0v46h104v372q-67 -35 -91 -35q-32 0 -32 28q0 5 1 10l129 48h51v-423h95v-46h-257z" />
    <glyph glyph-name="two" unicode="2" horiz-adv-x="454" 
d="M314.5 264.5q20.5 38.5 20.5 79.5t-30 65t-84 24t-97 -23q8 -10 8 -25.5t-11 -27.5t-31 -12t-31 11.5t-11 29.5q0 37 54 65.5t127 28.5t118.5 -35.5t45.5 -100.5q0 -145 -252 -293h271v-51h-351l-10 43q12 9 58 38.5t77.5 53t69.5 57.5t58.5 72.5z" />
    <glyph glyph-name="three" unicode="3" horiz-adv-x="480" 
d="M374 -94q-60 -46 -137.5 -46t-136.5 27t-59 68q0 18 13.5 31t33 13t31.5 -13t12 -28t-9 -28q44 -24 106 -24t104.5 33.5t42.5 94.5t-44 92.5t-119 31.5h-49v45h50q69 0 108 30.5t39 86.5t-36 84.5t-97 28.5t-100 -22q9 -9 9 -25.5t-12.5 -29.5t-32 -13t-32 13t-12.5 31
q1 39 57 66t134 27t129 -42t51 -113q0 -52 -28.5 -88.5t-77.5 -53.5q122 -37 122 -151q0 -80 -60 -126z" />
    <glyph glyph-name="four" unicode="4" horiz-adv-x="483" 
d="M216 -129v45h99v124h-296v40q75 86 124.5 192t61.5 206q10 2 19 2q32 0 32 -37q0 -59 -52 -171t-118 -186h231v95q23 47 34 86h21v-181h86v-46h-85v-124h80v-45h-237z" />
    <glyph glyph-name="five" unicode="5" horiz-adv-x="477" 
d="M350 411l-209 10q-8 -143 -29 -222q60 48 139.5 48t134.5 -50t55 -141.5t-59.5 -143.5t-142.5 -52t-144.5 34t-61.5 74q0 19 12.5 31.5t31.5 12.5t31.5 -13t12.5 -28.5t-10 -28.5q44 -34 112 -34t113.5 36t45.5 108t-39.5 110t-94 38t-94 -20.5t-61.5 -51.5l-41 19
q39 144 41 322h321q4 -14 4 -22q0 -36 -68 -36z" />
    <glyph glyph-name="six" unicode="6" horiz-adv-x="505" 
d="M407.5 43q-54.5 -54 -149 -54t-152 69t-57.5 210q0 195 98 289q54 52 124.5 52t116.5 -27t46 -63q0 -18 -12 -31t-30.5 -13t-31 12t-12.5 26t10 28q-27 21 -78 21q-87 0 -128.5 -78.5t-47.5 -202.5q19 43 64.5 72.5t107.5 29.5q82 0 134 -53.5t52 -143t-54.5 -143.5z
M154 80.5q39 -44.5 105.5 -44.5t105 40.5t38.5 108t-37 110.5t-101.5 43t-107 -40.5t-42.5 -106.5t39 -110.5z" />
    <glyph glyph-name="seven" unicode="7" horiz-adv-x="468" 
d="M259 -136q-10 -4 -26 -4t-25.5 13t-9.5 50q0 91 53 231.5t124 250.5q-25 -9 -52 -9t-81.5 15.5t-89.5 15.5q-70 0 -76 -98h-49v140h46v-54q21 61 86 61q31 0 86.5 -19.5t79.5 -19.5t39 5q2 17 13 27t29.5 10t30 -11.5t11.5 -28t-20 -46.5q-70 -109 -120 -240.5
t-50 -246.5q0 -32 1 -42z" />
    <glyph glyph-name="eight" unicode="8" horiz-adv-x="516" 
d="M413 35q-57 -46 -154.5 -46t-155 46t-57.5 123q0 61 36 102t97 56q-47 14 -77.5 50.5t-30.5 88.5q0 67 51.5 110.5t135.5 43.5t136 -43.5t52 -110.5q0 -52 -31 -88t-77 -51q60 -15 96 -56t36 -102q0 -77 -57 -123zM258 36q73 0 113 36t40 92t-40.5 92t-112.5 36
t-112.5 -36t-40.5 -92t40 -92t113 -36zM258 563q-60 0 -95 -30.5t-35 -79t35.5 -81.5t94.5 -33t94.5 33t35.5 81.5t-35 79t-95 30.5z" />
    <glyph glyph-name="nine" unicode="9" horiz-adv-x="502" 
d="M350.5 388.5q-37.5 43.5 -104 43.5t-106.5 -42.5t-40 -107t38.5 -105t102 -40.5t105.5 38.5t42 104t-37.5 109zM325.5 -117.5q-40.5 -22.5 -99 -22.5t-112 29t-53.5 66q0 18 13 30.5t31.5 12.5t31 -12t12.5 -27t-10 -29q37 -23 91 -23q88 0 126 74t44 210
q-18 -43 -64.5 -71.5t-106.5 -28.5q-82 0 -135 51.5t-53 138t55.5 143t149.5 56.5q208 0 208 -286q0 -93 -20.5 -156.5t-44 -98t-64 -57z" />
    <glyph glyph-name="colon" unicode=":" horiz-adv-x="208" 
d="M104 -9q-18 0 -31 13t-13 31.5t13 31.5t31 13t31 -13t13 -31.5t-13 -31.5t-31 -13zM104 306q-18 0 -31 13t-13 31t13 31t31 13t31 -13t13 -31t-13 -31t-31 -13z" />
    <glyph glyph-name="semicolon" unicode=";" horiz-adv-x="228" 
d="M118 306q-18 0 -31 13t-13 31t13 31t31 13t30.5 -13t12.5 -31t-12.5 -31t-30.5 -13zM117 80q20 0 32 -14.5t12 -41.5t-23 -70.5t-55 -75.5l-27 21q41 48 50 99q-15 1 -24.5 12.5t-9.5 28t12.5 29t32.5 12.5z" />
    <glyph glyph-name="less" unicode="&#x3c;" horiz-adv-x="442" 
d="M389 33l-360 186v30l360 185v-54l-292 -146l292 -147v-54z" />
    <glyph glyph-name="equal" unicode="=" horiz-adv-x="530" 
d="M63 94v48h404v-48h-404zM63 325v48h404v-48h-404z" />
    <glyph glyph-name="greater" unicode="&#x3e;" horiz-adv-x="442" 
d="M52 33v54l293 147l-293 146v54l360 -185v-30z" />
    <glyph glyph-name="question" unicode="?" horiz-adv-x="366" 
d="M33 598q59 21 130 21t116.5 -36.5t45.5 -105.5q0 -72 -52 -125q-22 -23 -44 -44q-52 -50 -52 -97q0 -27 12 -53h-55q-10 19 -10 52t14.5 61t35.5 49.5t42 43.5q50 51 50 110q0 98 -116 98q-52 0 -117 -21v47zM161 -9q-18 0 -31 13t-13 31.5t13 31.5t31 13t30.5 -13
t12.5 -31.5t-12.5 -31.5t-30.5 -13z" />
    <glyph glyph-name="at" unicode="@" horiz-adv-x="759" 
d="M340 53q-64 0 -99.5 43t-35.5 116.5t52 133.5t134 60t109 -76h2q6 31 19 60h40q-43 -146 -43 -229q0 -37 11 -56.5t40 -19.5q45 0 75.5 46t30.5 124q0 128 -81.5 209t-209 81t-219 -93.5t-91.5 -221.5t89.5 -218.5t217.5 -90.5q92 0 167 52l19 -27q-87 -57 -187 -57
q-144 0 -241 99.5t-97 245t103.5 244.5t242 99t229 -90t90.5 -233q0 -94 -41 -147.5t-104 -53.5q-33 0 -53.5 16t-25 30t-6.5 29h-3q-51 -75 -134 -75zM349 93q57 0 94 48.5t37 117.5q0 107 -88 107q-58 0 -98 -47.5t-40 -106t26 -89t69 -30.5z" />
    <glyph glyph-name="A" unicode="A" horiz-adv-x="679" 
d="M-4 0v50h85l206 509h-91v50h180l225 -559h86v-50h-248v50h100l-61 151h-277l-60 -151h100v-50h-245zM221 252h238l-119 299z" />
    <glyph glyph-name="B" unicode="B" horiz-adv-x="601" 
d="M36 0v49h97v511h-97v49h276q99 0 159.5 -40.5t60.5 -114.5q0 -110 -123 -142q75 -14 111 -55t36 -97q0 -76 -62 -118t-165 -42h-293zM192 49h135q79 0 124.5 30t45.5 87.5t-47 88.5t-127 31h-131v-237zM192 333h108q81 0 127 29.5t46 85t-43.5 84t-117.5 28.5h-120v-227z
" />
    <glyph glyph-name="C" unicode="C" horiz-adv-x="616" 
d="M365 -12q-141 0 -231 84.5t-90 229t86 232t237 87.5q114 0 208 -46v-144h-57v112q-65 26 -148 26q-118 0 -191 -69t-73 -196.5t75.5 -195.5t185.5 -68t210 59v-57q-94 -54 -212 -54z" />
    <glyph glyph-name="D" unicode="D" horiz-adv-x="675" 
d="M36 0v50h97v509h-97v50h274q140 0 230 -79t90 -226t-90 -225.5t-230 -78.5h-274zM193 50h118q117 0 187 67.5t70 187t-70 187t-187 67.5h-118v-509z" />
    <glyph glyph-name="E" unicode="E" horiz-adv-x="574" 
d="M36 0v50h97v509h-97v50h485v-164h-56v114h-272v-227h275v-50h-275v-232h274v114h56v-164h-487z" />
    <glyph glyph-name="F" unicode="F" horiz-adv-x="544" 
d="M36 0v50h97v509h-97v50h480v-174h-55v124h-268v-239h255v-50h-255v-220h112v-50h-269z" />
    <glyph glyph-name="G" unicode="G" horiz-adv-x="688" 
d="M369 -12q-152 0 -238.5 86t-86.5 227.5t86.5 230.5t240.5 89q113 0 223 -46v-137h-57v104q-88 28 -164 28q-125 0 -197 -73t-72 -193t68.5 -192.5t195.5 -72.5q84 0 176 37v187h-157v49h276v-49h-63v-219q-114 -56 -231 -56z" />
    <glyph glyph-name="H" unicode="H" horiz-adv-x="750" 
d="M36 0v50h97v509h-97v50h254v-50h-97v-226h364v226h-97v50h254v-50h-97v-509h97v-50h-254v50h97v231h-364v-231h97v-50h-254z" />
    <glyph glyph-name="I" unicode="I" horiz-adv-x="326" 
d="M36 0v50h97v509h-97v50h254v-50h-97v-509h97v-50h-254z" />
    <glyph glyph-name="J" unicode="J" horiz-adv-x="303" 
d="M122 5v554h-94v50h247v-50h-93v-556q0 -46 -22 -81.5t-48 -52.5t-66 -35l-22 42q98 51 98 129z" />
    <glyph glyph-name="K" unicode="K" horiz-adv-x="662" 
d="M396 560v49h246v-50h-84l-240 -249l235 -260h96v-50h-132l-272 305v6l243 249h-92zM36 0v50h97v509h-97v50h253v-50h-96v-509h100v-50h-257z" />
    <glyph glyph-name="L" unicode="L" horiz-adv-x="546" 
d="M36 0v50h97v509h-97v50h265v-50h-108v-509h276v120h56v-170h-489z" />
    <glyph glyph-name="M" unicode="M" horiz-adv-x="894" 
d="M30 0v50h95l20 509h-95v50h188l209 -494l208 494h189v-50h-95l20 -509h94v-50h-244v50h94l-19 504l-224 -520h-47l-223 520l-20 -504h95v-50h-245z" />
    <glyph glyph-name="N" unicode="N" horiz-adv-x="741" 
d="M36 0v50h97v509h-97v50h159l367 -512v462h-97v50h250v-50h-97v-559h-54l-374 521v-471h97v-50h-251z" />
    <glyph glyph-name="O" unicode="O" horiz-adv-x="705" 
d="M576 77.5q-85 -89.5 -224 -89.5t-224 89.5t-85 227t85 227t224 89.5t224 -89.5t85 -227t-85 -227zM173 112q68 -73 179 -73t179.5 74t68.5 192.5t-68 191t-179 72.5t-179.5 -73t-68.5 -192t68 -192z" />
    <glyph glyph-name="P" unicode="P" horiz-adv-x="570" 
d="M36 0v50h97v509h-97v50h268q92 0 160 -42q35 -21 56 -58.5t21 -95.5t-37 -102q-66 -78 -200 -78h-111v-183h115v-50h-272zM193 559v-276h112q87 0 131 37t44 101t-44 101t-131 37h-112z" />
    <glyph glyph-name="Q" unicode="Q" horiz-adv-x="705" 
d="M44 305q0 137 85 226.5t224 89.5t224 -89.5t85 -226.5q0 -118 -64 -202.5t-174 -105.5l149 -85l-32 -47l-194 123q-138 2 -220.5 91t-82.5 226zM173 112q68 -73 179 -73t179.5 73.5t68.5 192.5t-68 191.5t-179 72.5t-179.5 -73t-68.5 -192t68 -192z" />
    <glyph glyph-name="R" unicode="R" horiz-adv-x="628" 
d="M36 0v50h97v509h-97v50h277q134 0 199 -75q38 -42 38 -107.5t-39 -109t-107 -60.5l114 -207h93v-50h-132l-133 243h-153v-193h97v-50h-254zM193 292h121q87 0 131 34.5t44 98.5t-44 99t-131 35h-121v-267z" />
    <glyph glyph-name="S" unicode="S" horiz-adv-x="511" 
d="M409 28.5q-58 -40.5 -158.5 -40.5t-202.5 31v133h55v-94q69 -20 145 -20t118 28.5t42 78t-36 79.5t-87 47t-102 36t-87 57.5t-36 105t53.5 109t146 42.5t185.5 -28v-132h-56v94q-58 15 -127 15t-106.5 -28.5t-37.5 -74t36 -74.5t87 -46t102.5 -37t87.5 -60t36 -101
q0 -80 -58 -120.5z" />
    <glyph glyph-name="T" unicode="T" horiz-adv-x="577" 
d="M156 0v50h103v509h-182v-110h-55v160h533v-160h-55v110h-181v-509h102v-50h-265z" />
    <glyph glyph-name="U" unicode="U" horiz-adv-x="693" 
d="M349 -12q-104 0 -168.5 54.5t-64.5 156.5v360h-97v50h254v-50h-97v-356q0 -82 49 -121.5t125 -39.5t123 40t47 121v356h-97v50h250v-50h-96v-358q0 -102 -62 -157.5t-166 -55.5z" />
    <glyph glyph-name="V" unicode="V" horiz-adv-x="654" 
d="M-8 559v50h249v-50h-100l187 -488l187 488h-101v50h247v-50h-85l-218 -559h-62l-218 559h-86z" />
    <glyph glyph-name="W" unicode="W" horiz-adv-x="932" 
d="M-5 559v50h245v-50h-102l152 -480l149 425l-19 55h-86v50h245v-50h-102l165 -478l152 478h-102v50h245v-50h-84l-182 -559h-55l-149 424l-152 -424h-55l-182 559h-83z" />
    <glyph glyph-name="X" unicode="X" horiz-adv-x="639" 
d="M11 0v49h82l193 260l-183 251h-82v49h245v-49h-96l150 -209l152 209h-95v49h243v-50h-83l-186 -250l191 -260h84v-49h-245v49h94l-157 218l-159 -218h96v-49h-244z" />
    <glyph glyph-name="Y" unicode="Y" horiz-adv-x="627" 
d="M186 0v50h98v177l-206 332h-85v50h252v-50h-101l170 -278l170 278h-100v50h249v-50h-85l-204 -330v-179h98v-50h-256z" />
    <glyph glyph-name="Z" unicode="Z" horiz-adv-x="557" 
d="M42 0v50l385 507h-322v-112h-58v164h453v-52l-385 -506h345v120h57v-171h-475z" />
    <glyph glyph-name="bracketleft" unicode="[" horiz-adv-x="283" 
d="M82 -198v905h184v-41h-131v-823h131v-41h-184z" />
    <glyph glyph-name="backslash" unicode="\" horiz-adv-x="531" 
d="M455 -198l-437 905h56l437 -905h-56z" />
    <glyph glyph-name="bracketright" unicode="]" horiz-adv-x="283" 
d="M17 -198v41h131v823h-131v41h184v-905h-184z" />
    <glyph glyph-name="asciicircum" unicode="^" horiz-adv-x="434" 
d="M40 338l161 286h32l161 -286h-56l-121 222l-122 -222h-55z" />
    <glyph glyph-name="underscore" unicode="_" horiz-adv-x="507" 
d="M59 -77v41h389v-41h-389z" />
    <glyph glyph-name="grave" unicode="`" horiz-adv-x="316" 
d="M238 506l-176 122l40 50l156 -148z" />
    <glyph glyph-name="a" unicode="a" horiz-adv-x="463" 
d="M163 -11q-57 0 -95 32t-38 92q0 38 17.5 65t47.5 40q54 25 127 25h95v40q0 57 -24 80.5t-90.5 23.5t-137.5 -28v47q73 29 154 29t118.5 -35.5t37.5 -112.5v-240h77v-47h-133v55q-75 -66 -156 -66zM177 35q69 0 140 65v101h-94q-134 0 -134 -87q0 -37 24 -58t64 -21z" />
    <glyph glyph-name="b" unicode="b" horiz-adv-x="488" 
d="M215 -11q-69 0 -145 19v652h-79v47h137v-321q67 49 145.5 49t127 -59.5t48.5 -163.5t-63 -163.5t-171 -59.5zM213 36q86 0 131.5 49t45.5 130t-35 127t-98.5 46t-128.5 -49v-293q48 -10 85 -10z" />
    <glyph glyph-name="c" unicode="c" horiz-adv-x="439" 
d="M254 -11q-100 0 -157.5 59.5t-57.5 163t58.5 163.5t158.5 60q72 0 145 -29v-121h-50v88q-46 14 -92 14q-79 0 -120 -47t-41 -127.5t43 -128t117.5 -47.5t143.5 43v-49q-67 -42 -148 -42z" />
    <glyph glyph-name="d" unicode="d" horiz-adv-x="522" 
d="M373 61q-63 -72 -149.5 -72t-135.5 64t-49 159.5t51.5 159t135.5 63.5t144 -58v282h-93v48h150v-660h80v-47h-134v61zM132.5 86.5q34.5 -50.5 102 -50.5t135.5 68v225q-58 58 -127.5 58t-107 -48.5t-37.5 -125t34.5 -127z" />
    <glyph glyph-name="e" unicode="e" horiz-adv-x="453" 
d="M249 -11q-100 0 -155 60.5t-55 161t53.5 162.5t143.5 62t136 -63t46 -146q0 -19 -2 -28h-319q3 -76 44 -119t114 -43t142 43v-50q-70 -40 -148 -40zM328 346.5q-31 42.5 -91.5 42.5t-96.5 -40.5t-42 -106.5h264q-3 62 -34 104.5z" />
    <glyph glyph-name="f" unicode="f" horiz-adv-x="316" 
d="M34 0v47h81v329h-90v48h90v158q0 69 38 102.5t106 33.5q37 0 72 -8v-45q-36 6 -60 6q-99 0 -99 -91v-156h123v-48h-123v-329h97v-47h-235z" />
    <glyph glyph-name="g" unicode="g" horiz-adv-x="452" 
d="M213 -210q-97 0 -144.5 33.5t-47.5 87.5q0 69 75 114q-35 18 -35 55.5t50 72.5q-63 43 -63 126q0 63 43 109.5t125 46.5q38 0 69 -11h159v-47l-99 2q39 -39 39 -101t-43 -108t-125 -46q-43 0 -73 12q-30 -21 -30 -41.5t31.5 -30.5t76.5 -15.5t90 -15t76.5 -37t31.5 -74.5
q0 -63 -54.5 -97.5t-151.5 -34.5zM300.5 358q-29.5 32 -84 32t-84.5 -32t-30 -79t30 -79t84.5 -32t84 32t29.5 79t-29.5 79zM108.5 -142.5q35.5 -22.5 104.5 -22.5t109 23.5t40 61.5q0 44 -54 61q-35 11 -92 18t-78 12q-65 -36 -65 -92q0 -39 35.5 -61.5z" />
    <glyph glyph-name="h" unicode="h" horiz-adv-x="539" 
d="M17 0v47h79v613h-79v47h137v-348q81 76 169 76q58 0 91 -35.5t33 -102.5v-250h79v-47h-216v47h79v243q0 96 -81 96q-72 0 -154 -74v-265h79v-47h-216z" />
    <glyph glyph-name="i" unicode="i" horiz-adv-x="263" 
d="M30 0v47h79v329h-79v48h137v-377h79v-47h-216zM85 580q0 19 13.5 32.5t32.5 13.5t33 -13.5t14 -33t-14 -33t-33 -13.5t-32.5 14t-13.5 33z" />
    <glyph glyph-name="j" unicode="j" horiz-adv-x="227" 
d="M97 -68v444h-83v48h141v-494q0 -101 -123 -148l-19 38q84 46 84 112zM86 546.5q-14 13.5 -14 33t14 33t33 13.5t32.5 -13.5t13.5 -32.5t-13.5 -33t-32.5 -14t-33 13.5z" />
    <glyph glyph-name="k" unicode="k" horiz-adv-x="503" 
d="M17 0v47h79v613h-79v47h137v-660h77v-47h-214zM441 -11q-67 0 -136 84l-112 137v3l161 165h-77v46h205v-47h-64l-158 -164l91 -109q53 -67 102 -67q15 0 26 5v-46q-21 -7 -38 -7z" />
    <glyph glyph-name="l" unicode="l" horiz-adv-x="250" 
d="M17 0v47h79v612h-79v48h137v-660h79v-47h-216z" />
    <glyph glyph-name="m" unicode="m" horiz-adv-x="799" 
d="M31 0v47h77v329h-77v48h132v-61q76 72 159 72t106 -77q79 77 159 77q53 0 86 -31t33 -101v-256h77v-47h-211v47h77v250q0 90 -76 90q-64 0 -139 -68q1 -6 1 -19v-253h78v-47h-212v47h77v250q0 90 -76 90q-64 0 -137 -68v-272h77v-47h-211z" />
    <glyph glyph-name="n" unicode="n" horiz-adv-x="552" 
d="M30 0v47h79v329h-79v48h136v-66q82 77 170 77q58 0 91 -35.5t33 -102.5v-250h79v-47h-216v47h79v243q0 96 -81 96q-72 0 -154 -74v-265h79v-47h-216z" />
    <glyph glyph-name="o" unicode="o" horiz-adv-x="494" 
d="M398 49q-58 -60 -150.5 -60t-150.5 60t-58 163t58 163t150.5 60t150.5 -60t58 -163t-58 -163zM247 36q69 0 109 47.5t40 128.5t-40 128t-109 47t-109 -47.5t-40 -128t40 -128t109 -47.5z" />
    <glyph glyph-name="p" unicode="p" horiz-adv-x="523" 
d="M16 -199v48h80v527h-80v48h135v-61q63 72 149.5 72t135 -63.5t48.5 -159.5t-51 -159.5t-136 -63.5t-144 57v-197h92v-48h-229zM390.5 337q-34.5 50 -103 50t-134.5 -68v-225q58 -58 128 -58t107 49.5t37 125.5t-34.5 126z" />
    <glyph glyph-name="q" unicode="q" 
d="M274 -199v48h92v197q-62 -57 -141.5 -57t-132.5 62t-53 162t54.5 161t137.5 61t141 -60l6 49h45v-575h80v-48h-229zM242 387q-67 0 -105.5 -47.5t-38.5 -125t38 -128t104 -50.5t126 56v240q-57 55 -124 55z" />
    <glyph glyph-name="r" unicode="r" horiz-adv-x="351" 
d="M30 0v47h79v329h-79v48h136v-89q67 100 162 100h10v-58h-11q-85 0 -160 -77v-253h88v-47h-225z" />
    <glyph glyph-name="s" unicode="s" horiz-adv-x="396" 
d="M316 20q-43 -31 -120.5 -31t-154.5 25v104h49v-68q54 -15 103.5 -15t80 17t30.5 49.5t-26.5 51.5t-63.5 29.5t-74.5 23t-64 40.5t-26.5 77t40.5 80.5t110 31.5t141.5 -22v-104h-50v69q-44 11 -89.5 11t-71.5 -18.5t-26 -49.5t26.5 -49.5t63.5 -29t74.5 -23t64 -40.5
t26.5 -78t-43 -81z" />
    <glyph glyph-name="t" unicode="t" horiz-adv-x="305" 
d="M213 -11q-121 0 -121 122v265h-74v48h74v110h58v-110h137v-48h-137v-262q0 -41 18.5 -59.5t57 -18.5t66.5 11v-45q-38 -13 -79 -13z" />
    <glyph glyph-name="u" unicode="u" horiz-adv-x="537" 
d="M215 -11q-58 0 -91 35t-33 102v250h-80v48h137v-290q0 -97 81 -97q71 0 155 74v265h-82v48h139v-377h80v-47h-136v64q-84 -75 -170 -75z" />
    <glyph glyph-name="v" unicode="v" horiz-adv-x="523" 
d="M7 377v47h202v-46h-80l133 -314l134 314h-79v46h198v-47h-62l-165 -377h-53l-164 377h-64z" />
    <glyph glyph-name="w" unicode="w" horiz-adv-x="731" 
d="M10 377v47h201v-47h-83l94 -298l119 345h51l119 -346l94 299h-83v47h199v-47h-64l-122 -377h-47l-123 342l-120 -342h-48l-125 377h-62z" />
    <glyph glyph-name="x" unicode="x" horiz-adv-x="508" 
d="M20 0v46h62l139 170l-129 162h-64v46h203v-45h-75l101 -128l102 128h-75v45h197v-46h-63l-131 -162l138 -170h62v-46h-197v44h70l-109 138l-107 -138h70v-44h-194z" />
    <glyph glyph-name="y" unicode="y" horiz-adv-x="513" 
d="M131 -210q-47 0 -96 29l17 42q39 -24 73 -24q62 0 88 67l35 96h-46l-126 376h-63v48h203v-47h-80l117 -364l134 364h-80v47h201v-48h-63l-183 -488q-36 -98 -131 -98z" />
    <glyph glyph-name="z" unicode="z" horiz-adv-x="421" 
d="M40 0v39l264 341h-211v-83h-51v127h333v-38l-265 -341h221v89h50v-134h-341z" />
    <glyph glyph-name="braceleft" unicode="{" horiz-adv-x="279" 
d="M198 -212q-48 0 -72 26t-24 61t15 111.5t15 115.5q0 121 -124 127v49q124 6 124 127q0 39 -15 115.5t-15 111.5t24 61t72 26q25 0 55 -10v-37q-27 8 -44 8q-54 0 -54 -59q0 -23 15 -102t15 -121q0 -125 -112 -144q112 -20 112 -145q0 -42 -15 -121t-15 -101q0 -60 54 -60
q17 0 44 8v-37q-30 -10 -55 -10z" />
    <glyph glyph-name="bar" unicode="|" horiz-adv-x="217" 
d="M82 -198v905h53v-905h-53z" />
    <glyph glyph-name="braceright" unicode="}" horiz-adv-x="279" 
d="M81 -212q-25 0 -55 10v37q27 -8 44 -8q54 0 54 60q0 22 -15 101t-15 121q0 125 112 145q-112 19 -112 144q0 42 15 121t15 102q0 59 -54 59q-17 0 -44 -8v37q30 10 55 10q47 0 71.5 -26t24.5 -61t-15 -111.5t-15 -115.5q0 -121 124 -127v-49q-124 -6 -124 -127
q0 -39 15 -115.5t15 -111.5t-24.5 -61t-71.5 -26z" />
    <glyph glyph-name="asciitilde" unicode="~" horiz-adv-x="585" 
d="M197 329q36 0 74 -24t72 -48t56 -24t36.5 8t26.5 23q19 23 36 62l33 -16q-23 -58 -52.5 -94t-73.5 -36q-26 0 -55.5 15t-51.5 33q-58 49 -98 49t-64 -26t-45 -70l-33 16q55 132 139 132z" />
    <glyph glyph-name="exclamdown" unicode="&#xa1;" horiz-adv-x="212" 
d="M127 268l12 -451h-65l11 451h42zM106 435q18 0 31 -13t13 -31.5t-13 -31.5t-31 -13t-31 13t-13 31.5t13 31.5t31 13z" />
    <glyph glyph-name="cent" unicode="&#xa2;" horiz-adv-x="434" 
d="M231 47q-31 0 -53 7l-44 -127l-23 7l43 128q-52 21 -80.5 70t-28.5 127t48.5 134.5t136.5 56.5q28 0 54 -8l29 84l23 -8l-29 -84q68 -30 88 -118h-48q-13 52 -53 78l-104 -301q19 -6 43 -6q50 0 79 27.5t37 74.5h47q-12 -68 -53.5 -105t-111.5 -37zM231 410
q-62 0 -99 -44.5t-37 -115.5q0 -108 74 -147l102 301q-18 6 -40 6z" />
    <glyph glyph-name="sterling" unicode="&#xa3;" horiz-adv-x="514" 
d="M330 -8q-32 0 -90 12t-91.5 12t-78.5 -17l-12 32q45 14 71.5 43t26.5 59t-27 88h-86v29h74q-24 54 -24 91q0 61 44.5 105t133.5 44q49 0 86 -14.5t57 -37.5q35 -42 39 -93h-54q-2 38 -32 70t-93.5 32t-94 -29.5t-30.5 -70.5t25 -97h186v-29h-173q23 -52 23 -79
q0 -50 -40 -87h18l60 -9l73 -9q79 0 119 56l33 -33q-50 -68 -143 -68z" />
    <glyph glyph-name="currency" unicode="&#xa4;" horiz-adv-x="565" 
d="M411 110q-57 -47 -128.5 -47t-128.5 47l-66 -67l-30 30l67 66q-47 57 -47 128.5t47 128.5l-67 66l30 30l66 -67q57 47 128.5 47t128.5 -47l66 67l30 -30l-67 -66q47 -57 47 -128.5t-47 -128.5l67 -66l-30 -30zM171 155.5q46 -46.5 111.5 -46.5t112 46.5t46.5 112
t-46.5 112t-112 46.5t-111.5 -46.5t-46 -112t46 -112z" />
    <glyph glyph-name="yen" unicode="&#xa5;" horiz-adv-x="571" 
d="M173 0v41h85v91h-159v30h159v23l-38 60h-121v30h102l-101 163h-72v43h212v-43h-81l127 -212l127 212h-81v43h210v-43h-71l-103 -163h105v-30h-124l-37 -60v-23h161v-30h-161v-91h85v-41h-224z" />
    <glyph glyph-name="brokenbar" unicode="&#xa6;" horiz-adv-x="220" 
d="M83 334v373h54v-373h-54zM83 -198v392h54v-392h-54z" />
    <glyph glyph-name="section" unicode="&#xa7;" horiz-adv-x="420" 
d="M310.5 -62q-38.5 -26 -98.5 -26t-109 26t-49 59q0 16 10.5 27.5t28.5 11.5t29.5 -11.5t11.5 -25.5t-10 -26q36 -23 80.5 -23t69 16t24.5 44.5t-25.5 49.5t-62 35t-72.5 30.5t-61.5 44.5t-25.5 67q0 64 70 101q-47 35 -47 86.5t40 77.5t95.5 26t102 -23.5t46.5 -58.5
q0 -15 -10.5 -27t-28.5 -12t-29.5 11.5t-11.5 24.5t10 27q-30 20 -72.5 20t-66.5 -16.5t-24 -45t25.5 -49.5t61.5 -35.5t72.5 -30.5t62 -43.5t25.5 -66.5q0 -65 -73 -101q50 -36 50 -87t-38.5 -77zM322 196q0 24 -17.5 43.5t-37.5 29t-55.5 25t-53.5 24.5q-58 -27 -58 -75
q0 -39 38 -63q20 -13 65 -32t61 -27q58 26 58 75z" />
    <glyph glyph-name="dieresis" unicode="&#xa8;" horiz-adv-x="395" 
d="M116 517q-17 0 -29 12t-12 29t12 28.5t29 11.5t28.5 -11.5t11.5 -28.5t-11.5 -29t-28.5 -12zM286 517q-17 0 -28.5 12t-11.5 29t11.5 28.5t28.5 11.5t29 -11.5t12 -28.5t-12 -29t-29 -12z" />
    <glyph glyph-name="copyright" unicode="&#xa9;" horiz-adv-x="721" 
d="M361 -53q-131 0 -224 92.5t-93 224.5t93 224.5t224 92.5t224 -92.5t93 -224.5t-93 -224.5t-224 -92.5zM361 -19q118 0 200.5 82.5t82.5 200.5t-82.5 201t-200.5 83t-201 -83t-83 -201t83 -200.5t201 -82.5zM490 115q-57 -34 -129 -34t-121.5 52t-49.5 132t48.5 131
t133.5 51q62 0 116 -26v-89h-39v64q-40 14 -74 14q-65 0 -102.5 -39.5t-37.5 -103t36 -105.5t99.5 -42t119.5 35v-40z" />
    <glyph glyph-name="ordfeminine" unicode="&#xaa;" horiz-adv-x="387" 
d="M61 211v34h273v-34h-273zM144 295q-39 0 -64.5 22t-25.5 63q0 88 129 88h61v24q0 37 -15.5 51.5t-56 14.5t-95.5 -19v38q52 19 106.5 19t81 -24t26.5 -76v-156h47v-38h-92v36q-47 -43 -102 -43zM156 330q44 0 88 42v63h-59q-84 0 -84 -54q0 -23 15 -37t40 -14z" />
    <glyph glyph-name="guillemotleft" unicode="&#xab;" horiz-adv-x="502" 
d="M394 83l-147 175v4l147 176h67l-151 -178l151 -177h-67zM185 83l-148 175v4l148 176h66l-151 -178l151 -177h-66z" />
    <glyph glyph-name="logicalnot" unicode="&#xac;" horiz-adv-x="500" 
d="M391 129v153h-328v44h372v-197h-44z" />
    <glyph glyph-name="uni00AD" unicode="&#xad;" horiz-adv-x="379" 
d="M60 205v51h259v-51h-259z" />
    <glyph glyph-name="registered" unicode="&#xae;" horiz-adv-x="411" 
d="M318 322q-47 -47 -113 -47t-112.5 47t-46.5 113.5t46.5 113t112.5 46.5t113 -46.5t47 -113t-47 -113.5zM109 339q40 -40 96.5 -40t96.5 40t40 96.5t-40 96.5t-96.5 40t-96.5 -40t-40 -96.5t40 -96.5zM133 357v19h22v118h-22v20h82q29 0 45 -13t16 -32.5t-12 -31.5
t-26 -15l26 -46h24v-19h-41l-34 60h-33v-41h24v-19h-71zM180 437h33q37 0 37 28.5t-36 28.5h-34v-57z" />
    <glyph glyph-name="macron" unicode="&#xaf;" horiz-adv-x="403" 
d="M71 527v46h257v-46h-257z" />
    <glyph glyph-name="degree" unicode="&#xb0;" horiz-adv-x="364" 
d="M282 400.5q-42 -41.5 -100.5 -41.5t-100.5 41.5t-42 100.5t42 101t101 42t100.5 -42t41.5 -101t-42 -100.5zM182 401q42 0 71.5 29.5t29.5 71t-29.5 71t-71.5 29.5t-71.5 -29.5t-29.5 -71t29.5 -71t71.5 -29.5z" />
    <glyph glyph-name="plusminus" unicode="&#xb1;" horiz-adv-x="528" 
d="M239 128v153h-177v46h177v154h48v-154h179v-46h-179v-153h-48zM62 27v46h404v-46h-404z" />
    <glyph glyph-name="twosuperior" unicode="&#xb2;" horiz-adv-x="379" 
d="M250.5 618.5q15.5 29.5 15.5 62t-22.5 51.5t-64.5 19t-69 -16q5 -7 5 -20.5t-9.5 -22.5t-25 -9t-25 10.5t-9.5 24.5q0 31 42 52.5t100 21.5t93.5 -28t35.5 -82q0 -116 -190 -235h204v-44h-273l-10 37q10 8 45.5 32t59.5 43t53 46.5t44.5 57z" />
    <glyph glyph-name="threesuperior" unicode="&#xb3;" horiz-adv-x="361" 
d="M277.5 423.5q-41.5 -29.5 -97 -29.5t-99.5 18t-44 49q0 15 10.5 25t26.5 10t25.5 -10t9.5 -19.5t-4 -19.5q28 -13 68.5 -13t67 19.5t26.5 55t-30 53.5t-80 18h-32v39h32q46 0 72 17.5t26 49.5t-22.5 48.5t-60 16.5t-65.5 -12q5 -6 5 -17.5t-10 -22t-25.5 -10.5
t-25.5 10.5t-10 24.5q0 29 40 48.5t96.5 19.5t93.5 -27.5t37 -72.5q0 -70 -79 -90q90 -22 90 -97q0 -52 -41.5 -81.5z" />
    <glyph glyph-name="acute" unicode="&#xb4;" horiz-adv-x="324" 
d="M77 506l-19 24l155 148l40 -50z" />
    <glyph glyph-name="mu" unicode="&#xb5;" horiz-adv-x="572" 
d="M109 -199v575h-80v48h137v-290q0 -97 81 -97q71 0 155 74v265h-82v48h139v-377h80v-47h-136v64q-84 -75 -170 -75q-47 0 -71 27l4 -215h-57z" />
    <glyph glyph-name="paragraph" unicode="&#xb6;" horiz-adv-x="570" 
d="M168 -75v38h104v182h-49q-79 0 -135.5 54t-56.5 131.5t56.5 131.5t135.5 54h301v-38h-88v-515h88v-38h-356zM316 478v-515h76v515h-76z" />
    <glyph glyph-name="periodcentered" unicode="&#xb7;" horiz-adv-x="205" 
d="M102 209q-18 0 -31 13t-13 31.5t13 31.5t31 13t31 -13t13 -31.5t-13 -31.5t-31 -13z" />
    <glyph glyph-name="cedilla" unicode="&#xb8;" horiz-adv-x="293" 
d="M194.5 -173.5q-35.5 -19.5 -76.5 -19.5t-64 5l9 37q36 -3 41 -3q74 0 74 41.5t-83 41.5v19l38 77l33 -11l-22 -54q35 -3 60.5 -20.5t25.5 -55.5t-35.5 -57.5z" />
    <glyph glyph-name="onesuperior" unicode="&#xb9;" horiz-adv-x="300" 
d="M55 403v43h87v292q-48 -29 -72 -29q-29 0 -29 28v6l106 40h46v-337h75v-43h-213z" />
    <glyph glyph-name="ordmasculine" unicode="&#xba;" horiz-adv-x="389" 
d="M65 211v34h259v-34h-259zM299 335.5q-40 -40.5 -104.5 -40.5t-104.5 40.5t-40 109.5t40 110t104.5 41t104.5 -40.5t40 -110t-40 -110zM124.5 362.5q25.5 -30.5 70 -30.5t70 31t25.5 82.5t-25.5 82.5t-70 31t-70 -31t-25.5 -83t25.5 -82.5z" />
    <glyph glyph-name="guillemotright" unicode="&#xbb;" horiz-adv-x="502" 
d="M42 83l150 177l-150 178h66l147 -176v-4l-147 -175h-66zM251 83l151 177l-151 178h67l147 -176v-4l-147 -175h-67z" />
    <glyph glyph-name="onequarter" unicode="&#xbc;" horiz-adv-x="765" 
d="M51 248v39h79v279q-46 -27 -67 -27q-26 0 -26 26v6l98 38h44v-322h70v-39h-198zM232 -8l-36 19l354 606l37 -20zM571 0v35h64v63h-184v34q45 51 76 115.5t38 119.5q9 2 16 2q25 0 25 -31.5t-32 -96t-70 -106.5h134v49q16 28 26 61h19v-110h51v-37h-50v-63h48v-35h-161z
" />
    <glyph glyph-name="onehalf" unicode="&#xbd;" horiz-adv-x="790" 
d="M48 248v39h80v280q-46 -27 -67 -27q-28 0 -27 31l99 38h43v-322h70v-39h-198zM695 263q0 68 -78 68q-36 0 -66 -15q5 -7 5 -20.5t-9 -22t-23.5 -8.5t-23.5 10t-9 23q0 30 40.5 51t94.5 21t86.5 -26.5t32.5 -77.5q0 -113 -180 -224h194v-42h-257l-8 36q8 6 43.5 31t56 42
t47.5 43q54 52 54 111zM226 -8l-37 20l354 605l37 -19z" />
    <glyph glyph-name="threequarters" unicode="&#xbe;" horiz-adv-x="794" 
d="M267 267.5q-39 -27.5 -91.5 -27.5t-94 17t-41.5 45q0 14 10 24t24.5 10t23.5 -9t9 -18t-4 -19q30 -13 67 -13t61.5 19t24.5 52q0 68 -102 68h-31v37h31q43 0 67.5 16.5t24.5 47.5q0 62 -81 62q-36 0 -60 -12q5 -5 5 -16t-9 -20.5t-23.5 -9.5t-24 10t-9.5 23q0 28 38 46
t91 18t87.5 -25.5t34.5 -69.5q0 -65 -69 -87q80 -19 80 -91q0 -50 -39 -77.5zM262 -8l-37 19l355 606l36 -20zM601 0v35h63v63h-184v34q45 52 76.5 116t37.5 119q9 2 16 2q26 0 26 -31.5t-32.5 -96t-70.5 -106.5h134v49q14 23 26 61h19v-110h52v-37h-51v-63h48v-35h-160z
" />
    <glyph glyph-name="questiondown" unicode="&#xbf;" horiz-adv-x="359" 
d="M328 -172q-62 -22 -131.5 -22t-115.5 37t-46 106q0 46 23.5 85.5t51 62.5t51 54.5t23.5 61t-12 55.5h55q10 -23 10 -54t-14.5 -59.5t-35.5 -49.5t-42 -43q-50 -51 -50 -110q0 -98 116 -98q50 0 117 21v-47zM200 435q18 0 31 -13t13 -31.5t-13 -31.5t-31 -13t-31 13
t-13 31.5t13 31.5t31 13z" />
    <glyph glyph-name="Agrave" unicode="&#xc0;" horiz-adv-x="679" 
d="M-4 0v50h85l206 509h-91v50h180l225 -559h86v-50h-248v50h100l-61 151h-277l-60 -151h100v-50h-245zM221 252h238l-119 299zM385 671l-185 128l41 52l164 -156z" />
    <glyph glyph-name="Aacute" unicode="&#xc1;" horiz-adv-x="679" 
d="M-4 0v50h85l206 509h-91v50h180l225 -559h86v-50h-248v50h100l-61 151h-277l-60 -151h100v-50h-245zM221 252h238l-119 299zM258 671l-20 24l164 156l41 -52z" />
    <glyph glyph-name="Acircumflex" unicode="&#xc2;" horiz-adv-x="679" 
d="M-4 0v50h85l206 509h-91v50h180l225 -559h86v-50h-248v50h100l-61 151h-277l-60 -151h100v-50h-245zM221 252h238l-119 299zM181 671l-17 21l141 134h37l141 -134l-17 -21l-143 94z" />
    <glyph glyph-name="Atilde" unicode="&#xc3;" horiz-adv-x="679" 
d="M-4 0v50h85l206 509h-91v50h180l225 -559h86v-50h-248v50h100l-61 151h-277l-60 -151h100v-50h-245zM221 252h238l-119 299zM216 776q15 9 38.5 9t71.5 -28t71 -28q37 0 66 60l27 -14q-13 -30 -21.5 -46t-29.5 -34.5t-47.5 -18.5t-75 28t-68.5 28q-36 0 -66 -59l-26 13
q31 75 60 90z" />
    <glyph glyph-name="Adieresis" unicode="&#xc4;" horiz-adv-x="679" 
d="M-4 0v50h85l206 509h-91v50h180l225 -559h86v-50h-248v50h100l-61 151h-277l-60 -151h100v-50h-245zM221 252h238l-119 299zM240 677q-17 0 -29.5 12.5t-12.5 30t12.5 29.5t29.5 12t29 -12t12 -29.5t-12 -30t-29 -12.5zM439.5 689.5q-12.5 -12.5 -30 -12.5t-29.5 12.5
t-12 30t12 29.5t29.5 12t30 -12t12.5 -29.5t-12.5 -30z" />
    <glyph glyph-name="Aring" unicode="&#xc5;" horiz-adv-x="679" 
d="M-4 0v50h85l206 509h-91v50h180l225 -559h86v-50h-248v50h100l-61 151h-277l-60 -151h100v-50h-245zM221 252h238l-119 299zM325 663q-49 0 -78 29.5t-29 72.5t29 72.5t78 29.5t78.5 -29.5t29.5 -72.5t-29.5 -72.5t-78.5 -29.5zM325 699q29 0 45 19.5t16 46.5t-16 46.5
t-45 19.5t-45 -19.5t-16 -46.5t16 -46.5t45 -19.5z" />
    <glyph glyph-name="AE" unicode="&#xc6;" horiz-adv-x="918" 
d="M-7 0v51h80l343 508h-79v50h528v-162h-56v112h-257v-227h261v-50h-261v-232h259v112h56v-162h-469v50h96v152h-254l-102 -152h84v-50h-229zM494 252v307h-16l-205 -307h221z" />
    <glyph glyph-name="Ccedilla" unicode="&#xc7;" horiz-adv-x="615" 
d="M412.5 -173.5q-35.5 -19.5 -76.5 -19.5t-64 5l9 37q36 -3 41 -3q74 0 74 41.5t-83 41.5v19l20 41q-130 10 -210.5 93t-80.5 223.5t86.5 228t236.5 87.5q115 0 209 -46v-144h-58v112q-63 26 -148 26q-117 0 -190.5 -69t-73.5 -196.5t76 -195.5t185.5 -68t210.5 59v-57
q-87 -51 -202 -54l-11 -28q34 -3 59.5 -20.5t25.5 -55.5t-35.5 -57.5z" />
    <glyph glyph-name="Egrave" unicode="&#xc8;" horiz-adv-x="574" 
d="M36 0v50h97v509h-97v50h485v-164h-56v114h-272v-227h275v-50h-275v-232h274v114h56v-164h-487zM353 671l-185 128l41 52l164 -156z" />
    <glyph glyph-name="Eacute" unicode="&#xc9;" horiz-adv-x="574" 
d="M36 0v50h97v509h-97v50h485v-164h-56v114h-272v-227h275v-50h-275v-232h274v114h56v-164h-487zM243 671l-19 24l164 156l41 -52z" />
    <glyph glyph-name="Ecircumflex" unicode="&#xca;" horiz-adv-x="574" 
d="M36 0v50h97v509h-97v50h485v-164h-56v114h-272v-227h275v-50h-275v-232h274v114h56v-164h-487zM156 671l-17 21l141 134h38l141 -134l-17 -21l-143 94z" />
    <glyph glyph-name="Edieresis" unicode="&#xcb;" horiz-adv-x="574" 
d="M36 0v50h97v509h-97v50h485v-164h-56v114h-272v-227h275v-50h-275v-232h274v114h56v-164h-487zM219 677q-17 0 -29.5 12.5t-12.5 30t12.5 29.5t29.5 12t29.5 -12t12.5 -29.5t-12.5 -30t-29.5 -12.5zM418.5 689.5q-12.5 -12.5 -30 -12.5t-29.5 12.5t-12 30t12 29.5
t29.5 12t30 -12t12.5 -29.5t-12.5 -30z" />
    <glyph glyph-name="Igrave" unicode="&#xcc;" horiz-adv-x="326" 
d="M36 0v50h97v509h-97v50h254v-50h-97v-509h97v-50h-254zM235 671l-185 128l41 52l164 -156z" />
    <glyph glyph-name="Iacute" unicode="&#xcd;" horiz-adv-x="326" 
d="M36 0v50h97v509h-97v50h254v-50h-97v-509h97v-50h-254zM95 671l-19 24l164 156l41 -52z" />
    <glyph glyph-name="Icircumflex" unicode="&#xce;" horiz-adv-x="326" 
d="M36 0v50h97v509h-97v50h254v-50h-97v-509h97v-50h-254zM21 671l-17 21l140 134h38l141 -134l-17 -21l-143 94z" />
    <glyph glyph-name="Idieresis" unicode="&#xcf;" horiz-adv-x="326" 
d="M36 0v50h97v509h-97v50h254v-50h-97v-509h97v-50h-254zM78 677q-17 0 -29.5 12.5t-12.5 30t12.5 29.5t29.5 12t29.5 -12t12.5 -29.5t-12.5 -30t-29.5 -12.5zM278 689.5q-12 -12.5 -29.5 -12.5t-30 12.5t-12.5 30t12.5 29.5t30 12t29.5 -12t12 -29.5t-12 -30z" />
    <glyph glyph-name="Eth" unicode="&#xd0;" horiz-adv-x="676" 
d="M46 282v50h88v227h-97v50h274q140 0 230 -79t90 -226t-90 -225.5t-230 -78.5h-274v50h97v232h-88zM194 50h118q117 0 187 67.5t70 187t-70 187t-187 67.5h-118v-227h174v-50h-174v-232z" />
    <glyph glyph-name="Ntilde" unicode="&#xd1;" horiz-adv-x="741" 
d="M36 0v50h97v509h-97v50h159l367 -512v462h-97v50h250v-50h-97v-559h-54l-374 521v-471h97v-50h-251zM449 729q38 0 67 60l26 -14q-19 -41 -32 -61q-25 -38 -58.5 -38t-82.5 28t-68 28q-36 0 -67 -59l-26 13q26 60 46 79.5t48.5 19.5t76.5 -28t70 -28z" />
    <glyph glyph-name="Ograve" unicode="&#xd2;" horiz-adv-x="705" 
d="M576 77.5q-85 -89.5 -224 -89.5t-224 89.5t-85 227t85 227t224 89.5t224 -89.5t85 -227t-85 -227zM173 112q68 -73 179 -73t179.5 74t68.5 192.5t-68 191t-179 72.5t-179.5 -73t-68.5 -192t68 -192zM393 675l-185 128l41 52l164 -156z" />
    <glyph glyph-name="Oacute" unicode="&#xd3;" horiz-adv-x="705" 
d="M576 77.5q-85 -89.5 -224 -89.5t-224 89.5t-85 227t85 227t224 89.5t224 -89.5t85 -227t-85 -227zM173 112q68 -73 179 -73t179.5 74t68.5 192.5t-68 191t-179 72.5t-179.5 -73t-68.5 -192t68 -192zM283 675l-19 24l164 156l41 -52z" />
    <glyph glyph-name="Ocircumflex" unicode="&#xd4;" horiz-adv-x="705" 
d="M576 77.5q-85 -89.5 -224 -89.5t-224 89.5t-85 227t85 227t224 89.5t224 -89.5t85 -227t-85 -227zM173 112q68 -73 179 -73t179.5 74t68.5 192.5t-68 191t-179 72.5t-179.5 -73t-68.5 -192t68 -192zM210 674l-17 21l140 134h38l141 -134l-17 -21l-143 94z" />
    <glyph glyph-name="Otilde" unicode="&#xd5;" horiz-adv-x="705" 
d="M576 77.5q-85 -89.5 -224 -89.5t-224 89.5t-85 227t85 227t224 89.5t224 -89.5t85 -227t-85 -227zM173 112q68 -73 179 -73t179.5 74t68.5 192.5t-68 191t-179 72.5t-179.5 -73t-68.5 -192t68 -192zM242 780q16 8 39.5 8t71.5 -28t71 -28q37 0 66 60l27 -14
q-13 -30 -21.5 -46t-29.5 -34.5t-47.5 -18.5t-75 28t-68.5 28q-37 0 -66 -59l-26 13q31 75 59 91z" />
    <glyph glyph-name="Odieresis" unicode="&#xd6;" horiz-adv-x="705" 
d="M576 77.5q-85 -89.5 -224 -89.5t-224 89.5t-85 227t85 227t224 89.5t224 -89.5t85 -227t-85 -227zM173 112q68 -73 179 -73t179.5 74t68.5 192.5t-68 191t-179 72.5t-179.5 -73t-68.5 -192t68 -192zM267 680q-17 0 -29.5 12.5t-12.5 30t12.5 29.5t29.5 12t29.5 -12
t12.5 -29.5t-12.5 -30t-29.5 -12.5zM467 692.5q-12 -12.5 -29.5 -12.5t-30 12.5t-12.5 30t12.5 29.5t30 12t29.5 -12t12 -29.5t-12 -30z" />
    <glyph glyph-name="multiply" unicode="&#xd7;" horiz-adv-x="466" 
d="M79 47l-33 33l154 154l-154 154l33 33l154 -155l154 155l33 -33l-155 -154l155 -154l-33 -33l-154 154z" />
    <glyph glyph-name="Oslash" unicode="&#xd8;" horiz-adv-x="705" 
d="M353 -12q-112 0 -191 59l-50 -62l-26 21l51 63q-94 88 -94 230.5t85 232t225 89.5q108 0 188 -59l52 62l26 -22l-51 -62q93 -90 93 -232t-85 -231t-223 -89zM198 89q62 -50 163.5 -50t170 73t68.5 191t-69 192zM353 569q-111 0 -179.5 -73t-68.5 -192.5t68 -190.5
l334 405q-65 51 -154 51z" />
    <glyph glyph-name="Ugrave" unicode="&#xd9;" horiz-adv-x="693" 
d="M349 -12q-104 0 -168.5 54.5t-64.5 156.5v360h-97v50h254v-50h-97v-356q0 -82 49 -121.5t125 -39.5t123 40t47 121v356h-97v50h250v-50h-96v-358q0 -102 -62 -157.5t-166 -55.5zM389 671l-184 128l41 52l164 -156z" />
    <glyph glyph-name="Uacute" unicode="&#xda;" horiz-adv-x="693" 
d="M349 -12q-104 0 -168.5 54.5t-64.5 156.5v360h-97v50h254v-50h-97v-356q0 -82 49 -121.5t125 -39.5t123 40t47 121v356h-97v50h250v-50h-96v-358q0 -102 -62 -157.5t-166 -55.5zM294 671l-19 24l164 156l41 -52z" />
    <glyph glyph-name="Ucircumflex" unicode="&#xdb;" horiz-adv-x="693" 
d="M349 -12q-104 0 -168.5 54.5t-64.5 156.5v360h-97v50h254v-50h-97v-356q0 -82 49 -121.5t125 -39.5t123 40t47 121v356h-97v50h250v-50h-96v-358q0 -102 -62 -157.5t-166 -55.5zM204 671l-17 21l140 134h38l141 -134l-17 -21l-143 94z" />
    <glyph glyph-name="Udieresis" unicode="&#xdc;" horiz-adv-x="693" 
d="M349 -12q-104 0 -168.5 54.5t-64.5 156.5v360h-97v50h254v-50h-97v-356q0 -82 49 -121.5t125 -39.5t123 40t47 121v356h-97v50h250v-50h-96v-358q0 -102 -62 -157.5t-166 -55.5zM261 677q-17 0 -29.5 12.5t-12.5 30t12.5 29.5t29.5 12t29.5 -12t12.5 -29.5t-12.5 -30
t-29.5 -12.5zM461 689.5q-12 -12.5 -29.5 -12.5t-30 12.5t-12.5 30t12.5 29.5t30 12t29.5 -12t12 -29.5t-12 -30z" />
    <glyph glyph-name="Yacute" unicode="&#xdd;" horiz-adv-x="627" 
d="M186 0v50h98v177l-206 332h-85v50h252v-50h-101l170 -278l170 278h-100v50h249v-50h-85l-204 -330v-179h98v-50h-256zM254 671l-19 24l163 156l42 -52z" />
    <glyph glyph-name="Thorn" unicode="&#xde;" horiz-adv-x="562" 
d="M36 0v49h98v511h-98v49h271v-48h-113v-74h100q94 0 160 -37q36 -19 56.5 -55t20.5 -85.5t-20.5 -86t-56.5 -55.5q-67 -36 -160 -36h-100v-84h113v-48h-271zM194 181h101q175 0 175 128t-175 128h-101v-256z" />
    <glyph glyph-name="germandbls" unicode="&#xdf;" horiz-adv-x="538" 
d="M33 0v47h81v329h-89v48h89v111q0 80 46.5 131.5t125.5 51.5t125.5 -36.5t46.5 -105.5q0 -44 -21.5 -80t-42.5 -66t-21 -57t20.5 -56.5t44.5 -52.5t44.5 -61t20.5 -80q0 -65 -42 -98t-101 -33t-110 16v48q53 -17 95.5 -17t71.5 20.5t29 60t-20.5 72t-44.5 54t-44.5 55
t-20.5 66t13.5 59.5t28.5 45q43 49 43 99t-29 75.5t-86 25.5t-85.5 -39.5t-28.5 -95.5v-536h-139z" />
    <glyph glyph-name="agrave" unicode="&#xe0;" horiz-adv-x="463" 
d="M163 -11q-57 0 -95 32t-38 92q0 38 17.5 65t47.5 40q54 25 127 25h95v40q0 57 -24 80.5t-90.5 23.5t-137.5 -28v47q73 29 154 29t118.5 -35.5t37.5 -112.5v-240h77v-47h-133v55q-75 -66 -156 -66zM177 35q69 0 140 65v101h-94q-134 0 -134 -87q0 -37 24 -58t64 -21z
M272 506l-175 122l39 50l156 -148z" />
    <glyph glyph-name="aacute" unicode="&#xe1;" horiz-adv-x="463" 
d="M163 -11q-57 0 -95 32t-38 92q0 38 17.5 65t47.5 40q54 25 127 25h95v40q0 57 -24 80.5t-90.5 23.5t-137.5 -28v47q73 29 154 29t118.5 -35.5t37.5 -112.5v-240h77v-47h-133v55q-75 -66 -156 -66zM177 35q69 0 140 65v101h-94q-134 0 -134 -87q0 -37 24 -58t64 -21z
M153 506l-20 24l156 148l39 -50z" />
    <glyph glyph-name="acircumflex" unicode="&#xe2;" horiz-adv-x="463" 
d="M163 -11q-57 0 -95 32t-38 92q0 38 17.5 65t47.5 40q54 25 127 25h95v40q0 57 -24 80.5t-90.5 23.5t-137.5 -28v47q73 29 154 29t118.5 -35.5t37.5 -112.5v-240h77v-47h-133v55q-75 -66 -156 -66zM177 35q69 0 140 65v101h-94q-134 0 -134 -87q0 -37 24 -58t64 -21z
M76 505l-16 20l134 127h36l134 -127l-17 -20l-135 89z" />
    <glyph glyph-name="atilde" unicode="&#xe3;" horiz-adv-x="463" 
d="M163 -11q-57 0 -95 32t-38 92q0 38 17.5 65t47.5 40q54 25 127 25h95v40q0 57 -24 80.5t-90.5 23.5t-137.5 -28v47q73 29 154 29t118.5 -35.5t37.5 -112.5v-240h77v-47h-133v55q-75 -66 -156 -66zM177 35q69 0 140 65v101h-94q-134 0 -134 -87q0 -37 24 -58t64 -21z
M100.5 603.5q19.5 16.5 44.5 16.5t70.5 -27.5t67.5 -27.5q33 0 62 56l27 -14q-33 -70 -60 -85q-15 -8 -37.5 -8t-68 28t-65.5 28q-34 0 -62 -55l-27 13q12 27 20.5 43t28 32.5z" />
    <glyph glyph-name="adieresis" unicode="&#xe4;" horiz-adv-x="463" 
d="M163 -11q-57 0 -95 32t-38 92q0 38 17.5 65t47.5 40q54 25 127 25h95v40q0 57 -24 80.5t-90.5 23.5t-137.5 -28v47q73 29 154 29t118.5 -35.5t37.5 -112.5v-240h77v-47h-133v55q-75 -66 -156 -66zM177 35q69 0 140 65v101h-94q-134 0 -134 -87q0 -37 24 -58t64 -21z
M128 517q-17 0 -29 12t-12 29t12 28.5t29 11.5t28.5 -11.5t11.5 -28.5t-11.5 -29t-28.5 -12zM298 517q-17 0 -28.5 12t-11.5 29t11.5 28.5t28.5 11.5t29 -11.5t12 -28.5t-12 -29t-29 -12z" />
    <glyph glyph-name="aring" unicode="&#xe5;" horiz-adv-x="463" 
d="M163 -11q-57 0 -95 32t-38 92q0 38 17.5 65t47.5 40q54 25 127 25h95v40q0 57 -24 80.5t-90.5 23.5t-137.5 -28v47q73 29 154 29t118.5 -35.5t37.5 -112.5v-240h77v-47h-133v55q-75 -66 -156 -66zM177 35q69 0 140 65v101h-94q-134 0 -134 -87q0 -37 24 -58t64 -21z
M212 503q-49 0 -78 29.5t-29 72.5t29 72.5t78 29.5t78.5 -29.5t29.5 -72.5t-29.5 -72.5t-78.5 -29.5zM168 558.5q16 -19.5 44.5 -19.5t44.5 19.5t16 46.5t-16 46.5t-44.5 19.5t-44.5 -19.5t-16 -46.5t16 -46.5z" />
    <glyph glyph-name="ae" unicode="&#xe6;" horiz-adv-x="724" 
d="M172 -11q-63 0 -102.5 32t-39.5 91q0 129 191 129h96v42q0 57 -24 80.5t-88.5 23.5t-139.5 -29v47q76 30 153 30q114 0 139 -84q50 84 146 84t141 -63t45 -146q0 -19 -2 -28h-317q2 -76 43 -119t113 -43t143 43v-50q-72 -40 -148 -40q-110 0 -162 74q-88 -74 -187 -74z
M182 36q81 0 157 61q-21 48 -21 103h-95q-135 0 -135 -86q0 -37 25 -57.5t69 -20.5zM600 347.5q-31 42.5 -91.5 42.5t-96.5 -41t-42 -107h264q-3 63 -34 105.5z" />
    <glyph glyph-name="ccedilla" unicode="&#xe7;" horiz-adv-x="439" 
d="M298.5 -173.5q-35.5 -19.5 -76 -19.5t-65.5 5l10 37q36 -3 41 -3q73 0 73 41.5t-83 41.5v19l22 43q-85 10 -133 68t-48 157t58.5 159t158.5 60q72 0 145 -29v-121h-50v88q-46 14 -92 14q-79 0 -120 -47t-41 -127.5t43 -128t117.5 -47.5t143.5 43v-49q-66 -41 -143 -42
l-11 -29q35 -3 60.5 -20.5t25.5 -55.5t-35.5 -57.5z" />
    <glyph glyph-name="egrave" unicode="&#xe8;" horiz-adv-x="453" 
d="M249 -11q-100 0 -155 60.5t-55 161t53.5 162.5t143.5 62t136 -63t46 -146q0 -19 -2 -28h-319q3 -76 44 -119t114 -43t142 43v-50q-70 -40 -148 -40zM328 346.5q-31 42.5 -91.5 42.5t-96.5 -40.5t-42 -106.5h264q-3 62 -34 104.5zM284 506l-176 122l40 50l155 -148z" />
    <glyph glyph-name="eacute" unicode="&#xe9;" horiz-adv-x="453" 
d="M249 -11q-100 0 -155 60.5t-55 161t53.5 162.5t143.5 62t136 -63t46 -146q0 -19 -2 -28h-319q3 -76 44 -119t114 -43t142 43v-50q-70 -40 -148 -40zM328 346.5q-31 42.5 -91.5 42.5t-96.5 -40.5t-42 -106.5h264q-3 62 -34 104.5zM174 506l-20 24l156 148l40 -50z" />
    <glyph glyph-name="ecircumflex" unicode="&#xea;" horiz-adv-x="453" 
d="M249 -11q-100 0 -155 60.5t-55 161t53.5 162.5t143.5 62t136 -63t46 -146q0 -19 -2 -28h-319q3 -76 44 -119t114 -43t142 43v-50q-70 -40 -148 -40zM328 346.5q-31 42.5 -91.5 42.5t-96.5 -40.5t-42 -106.5h264q-3 62 -34 104.5zM93 505l-17 20l134 127h36l134 -127
l-16 -20l-136 89z" />
    <glyph glyph-name="edieresis" unicode="&#xeb;" horiz-adv-x="453" 
d="M249 -11q-100 0 -155 60.5t-55 161t53.5 162.5t143.5 62t136 -63t46 -146q0 -19 -2 -28h-319q3 -76 44 -119t114 -43t142 43v-50q-70 -40 -148 -40zM328 346.5q-31 42.5 -91.5 42.5t-96.5 -40.5t-42 -106.5h264q-3 62 -34 104.5zM144 517q-17 0 -29 12t-12 29t12 28.5
t28.5 11.5t28.5 -12t12 -28.5t-11.5 -28.5t-28.5 -12zM314 517q-17 0 -29 12t-12 29t12 28.5t28.5 11.5t28.5 -12t12 -28.5t-11.5 -28.5t-28.5 -12z" />
    <glyph glyph-name="igrave" unicode="&#xec;" horiz-adv-x="263" 
d="M182 506l-176 122l40 50l155 -148zM30 0v47h79v329h-79v48h137v-377h79v-47h-216z" />
    <glyph glyph-name="iacute" unicode="&#xed;" horiz-adv-x="263" 
d="M55 506l-19 24l155 148l40 -50zM30 0v47h79v329h-79v48h137v-377h79v-47h-216z" />
    <glyph glyph-name="icircumflex" unicode="&#xee;" horiz-adv-x="263" 
d="M-12 505l-16 20l133 127h36l134 -127l-16 -20l-136 89zM30 0v47h79v329h-79v48h137v-377h79v-47h-216z" />
    <glyph glyph-name="idieresis" unicode="&#xef;" horiz-adv-x="263" 
d="M38 517q-17 0 -28.5 12t-11.5 28.5t12 28.5t28.5 12t28.5 -11.5t12 -28.5t-12 -29t-29 -12zM208 517q-17 0 -28.5 12t-11.5 28.5t12 28.5t28.5 12t28.5 -11.5t12 -28.5t-12 -29t-29 -12zM30 0v47h79v329h-79v48h137v-377h79v-47h-216z" />
    <glyph glyph-name="eth" unicode="&#xf0;" horiz-adv-x="489" 
d="M388 56q-50 -67 -147 -67t-149.5 59.5t-52.5 153.5t52.5 155t140.5 61t134 -63q-24 130 -134 239l-101 -84l-21 26l97 81q-36 33 -92 69l32 32q56 -32 101 -70l76 62l20 -26l-71 -59q165 -162 165 -385q0 -117 -50 -184zM239 35q63 0 101.5 45.5t38.5 123t-38 123
t-102 45.5t-102.5 -46.5t-38.5 -123.5t39 -122t102 -45z" />
    <glyph glyph-name="ntilde" unicode="&#xf1;" horiz-adv-x="552" 
d="M30 0v47h79v329h-79v48h136v-66q82 77 170 77q58 0 91 -35.5t33 -102.5v-250h79v-47h-216v47h79v243q0 96 -81 96q-72 0 -154 -74v-265h79v-47h-216zM178 612q15 8 37.5 8t67.5 -27.5t67 -27.5q34 0 63 56l26 -14q-12 -26 -21 -42.5t-29 -33.5t-44.5 -17t-70.5 28t-66 28
q-33 0 -61 -55l-27 13q31 69 58 84z" />
    <glyph glyph-name="ograve" unicode="&#xf2;" horiz-adv-x="494" 
d="M398 49q-58 -60 -150.5 -60t-150.5 60t-58 163t58 163t150.5 60t150.5 -60t58 -163t-58 -163zM247 36q69 0 109 47.5t40 128.5t-40 128t-109 47t-109 -47.5t-40 -128t40 -128t109 -47.5zM294 506l-175 122l39 50l156 -148z" />
    <glyph glyph-name="oacute" unicode="&#xf3;" horiz-adv-x="494" 
d="M398 49q-58 -60 -150.5 -60t-150.5 60t-58 163t58 163t150.5 60t150.5 -60t58 -163t-58 -163zM247 36q69 0 109 47.5t40 128.5t-40 128t-109 47t-109 -47.5t-40 -128t40 -128t109 -47.5zM186 506l-20 24l156 148l39 -50z" />
    <glyph glyph-name="ocircumflex" unicode="&#xf4;" horiz-adv-x="494" 
d="M398 49q-58 -60 -150.5 -60t-150.5 60t-58 163t58 163t150.5 60t150.5 -60t58 -163t-58 -163zM247 36q69 0 109 47.5t40 128.5t-40 128t-109 47t-109 -47.5t-40 -128t40 -128t109 -47.5zM112 505l-17 20l134 127h36l134 -127l-16 -20l-136 89z" />
    <glyph glyph-name="otilde" unicode="&#xf5;" horiz-adv-x="494" 
d="M398 49q-58 -60 -150.5 -60t-150.5 60t-58 163t58 163t150.5 60t150.5 -60t58 -163t-58 -163zM247 36q69 0 109 47.5t40 128.5t-40 128t-109 47t-109 -47.5t-40 -128t40 -128t109 -47.5zM141 612q15 8 37 8t67.5 -27.5t67.5 -27.5q33 0 62 56l26 -14q-30 -67 -59 -85
q-15 -8 -37.5 -8t-68 28t-65.5 28q-34 0 -62 -55l-27 13q31 69 59 84z" />
    <glyph glyph-name="odieresis" unicode="&#xf6;" horiz-adv-x="494" 
d="M398 49q-58 -60 -150.5 -60t-150.5 60t-58 163t58 163t150.5 60t150.5 -60t58 -163t-58 -163zM247 36q69 0 109 47.5t40 128.5t-40 128t-109 47t-109 -47.5t-40 -128t40 -128t109 -47.5zM162 517q-17 0 -28.5 12t-11.5 29t11.5 28.5t28.5 11.5t29 -11.5t12 -28.5t-12 -29
t-29 -12zM332 517q-17 0 -28.5 12t-11.5 28.5t12 28.5t28.5 12t28.5 -11.5t12 -28.5t-12 -29t-29 -12z" />
    <glyph glyph-name="divide" unicode="&#xf7;" horiz-adv-x="519" 
d="M290.5 55.5q-12.5 -12.5 -30.5 -12.5t-31 12.5t-13 31t13 31.5t31 13t30.5 -13t12.5 -31.5t-12.5 -31zM290.5 351.5q-12.5 -12.5 -30.5 -12.5t-31 12.5t-13 31t13 31.5t31 13t30.5 -13t12.5 -31.5t-12.5 -31zM58 212v45h403v-45h-403z" />
    <glyph glyph-name="oslash" unicode="&#xf8;" horiz-adv-x="497" 
d="M399 49q-58 -60 -144.5 -60t-139.5 45l-42 -49l-22 18l43 50q-54 60 -54 161t58 161t151 60q75 0 133 -45l42 49l21 -19l-42 -50q54 -60 54 -160.5t-58 -160.5zM149 73q39 -37 104 -37t104.5 47.5t39.5 123t-31 120.5zM348 350q-39 37 -103.5 37t-104.5 -47t-40 -124
t31 -120z" />
    <glyph glyph-name="ugrave" unicode="&#xf9;" horiz-adv-x="537" 
d="M215 -11q-58 0 -91 35t-33 102v250h-80v48h137v-290q0 -97 81 -97q71 0 155 74v265h-82v48h139v-377h80v-47h-136v64q-84 -75 -170 -75zM287 506l-176 122l40 50l155 -148z" />
    <glyph glyph-name="uacute" unicode="&#xfa;" horiz-adv-x="537" 
d="M215 -11q-58 0 -91 35t-33 102v250h-80v48h137v-290q0 -97 81 -97q71 0 155 74v265h-82v48h139v-377h80v-47h-136v64q-84 -75 -170 -75zM201 506l-19 24l155 148l40 -50z" />
    <glyph glyph-name="ucircumflex" unicode="&#xfb;" horiz-adv-x="537" 
d="M215 -11q-58 0 -91 35t-33 102v250h-80v48h137v-290q0 -97 81 -97q71 0 155 74v265h-82v48h139v-377h80v-47h-136v64q-84 -75 -170 -75zM114 505l-17 20l134 127h36l134 -127l-16 -20l-136 89z" />
    <glyph glyph-name="udieresis" unicode="&#xfc;" horiz-adv-x="537" 
d="M215 -11q-58 0 -91 35t-33 102v250h-80v48h137v-290q0 -97 81 -97q71 0 155 74v265h-82v48h139v-377h80v-47h-136v64q-84 -75 -170 -75zM164 517q-17 0 -29 12t-12 29t12 28.5t28.5 11.5t28.5 -12t12 -28.5t-11.5 -28.5t-28.5 -12zM334 517q-17 0 -29 12t-12 29t12 28.5
t29 11.5t28.5 -11.5t11.5 -28.5t-11.5 -29t-28.5 -12z" />
    <glyph glyph-name="yacute" unicode="&#xfd;" horiz-adv-x="513" 
d="M131 -210q-47 0 -96 29l17 42q39 -24 73 -24q62 0 88 67l35 96h-46l-126 376h-63v48h203v-47h-80l117 -364l134 364h-80v47h201v-48h-63l-183 -488q-36 -98 -131 -98zM212 506l-20 24l156 148l39 -50z" />
    <glyph glyph-name="thorn" unicode="&#xfe;" 
d="M-11 -199v48h79v811h-79v47h137v-342q63 70 148.5 70t134 -63.5t48.5 -159.5t-51 -159.5t-136 -63.5t-144 57v-197h92v-48h-229zM363.5 337q-34.5 50 -104 50t-133.5 -68v-225q58 -58 127.5 -58t107 49.5t37.5 125.5t-34.5 126z" />
    <glyph glyph-name="ydieresis" unicode="&#xff;" horiz-adv-x="513" 
d="M131 -210q-47 0 -96 29l17 42q39 -24 73 -24q62 0 88 67l35 96h-46l-126 376h-63v48h203v-47h-80l117 -364l134 364h-80v47h201v-48h-63l-183 -488q-36 -98 -131 -98zM177 517q-17 0 -28.5 12t-11.5 29t11.5 28.5t28.5 11.5t29 -11.5t12 -28.5t-12 -29t-29 -12zM347 517
q-17 0 -28.5 12t-11.5 28.5t11.5 28.5t28.5 12t29 -11.5t12 -28.5t-12 -29t-29 -12z" />
    <glyph glyph-name="Amacron" unicode="&#x100;" horiz-adv-x="679" 
d="M-4 0v50h85l206 509h-91v50h180l225 -559h86v-50h-248v50h100l-61 151h-277l-60 -151h100v-50h-245zM221 252h238l-119 299zM193 679v47h257v-47h-257z" />
    <glyph glyph-name="amacron" unicode="&#x101;" horiz-adv-x="463" 
d="M163 -11q-57 0 -95 32t-38 92q0 38 17.5 65t47.5 40q54 25 127 25h95v40q0 57 -24 80.5t-90.5 23.5t-137.5 -28v47q73 29 154 29t118.5 -35.5t37.5 -112.5v-240h77v-47h-133v55q-75 -66 -156 -66zM177 35q69 0 140 65v101h-94q-134 0 -134 -87q0 -37 24 -58t64 -21z
M81 527v46h257v-46h-257z" />
    <glyph glyph-name="Abreve" unicode="&#x102;" horiz-adv-x="679" 
d="M-4 0v50h85l206 509h-91v50h180l225 -559h86v-50h-248v50h100l-61 151h-277l-60 -151h100v-50h-245zM221 252h238l-119 299zM424 701.5q-39 -35.5 -97.5 -35.5t-97 35.5t-43.5 101.5h47q8 -87 94 -87q39 0 64.5 21.5t29.5 65.5h47q-5 -66 -44 -101.5z" />
    <glyph glyph-name="abreve" unicode="&#x103;" horiz-adv-x="463" 
d="M163 -11q-57 0 -95 32t-38 92q0 38 17.5 65t47.5 40q54 25 127 25h95v40q0 57 -24 80.5t-90.5 23.5t-137.5 -28v47q73 29 154 29t118.5 -35.5t37.5 -112.5v-240h77v-47h-133v55q-75 -66 -156 -66zM177 35q69 0 140 65v101h-94q-134 0 -134 -87q0 -37 24 -58t64 -21z
M211 512q-56 0 -93 33.5t-42 96.5h45q8 -81 89.5 -81t89.5 81h45q-5 -63 -41.5 -96.5t-92.5 -33.5z" />
    <glyph glyph-name="Aogonek" unicode="&#x104;" horiz-adv-x="679" 
d="M676 -182q-36 -18 -79.5 -18t-69.5 19.5t-26 59.5q0 66 77 121h-139v50h100l-61 151h-277l-60 -151h100v-50h-245v50h85l206 509h-91v50h180l225 -559h86v-50h-56q-75 -54 -75 -112q0 -47 54 -47q31 0 63 15zM221 252h238l-119 299z" />
    <glyph glyph-name="aogonek" unicode="&#x105;" horiz-adv-x="463" 
d="M467 -176q-38 -17 -77.5 -17t-64.5 18.5t-25 56.5q0 66 77 118h-58v55q-75 -66 -156 -66q-57 0 -95 32t-38 92q0 38 17.5 65t47.5 40q54 25 127 25h95v40q0 57 -24 80.5t-90.5 23.5t-137.5 -28v47q73 29 154 29t118.5 -35.5t37.5 -112.5v-240h77v-47h-24
q-75 -52 -75 -109q0 -44 51 -44q30 0 60 14zM177 35q69 0 140 65v101h-94q-134 0 -134 -87q0 -37 24 -58t64 -21z" />
    <glyph glyph-name="Cacute" unicode="&#x106;" horiz-adv-x="616" 
d="M365 -12q-141 0 -231 84.5t-90 229t86 232t237 87.5q114 0 208 -46v-144h-57v112q-65 26 -148 26q-118 0 -191 -69t-73 -196.5t75.5 -195.5t185.5 -68t210 59v-57q-94 -54 -212 -54zM285 675l-20 24l164 156l41 -52z" />
    <glyph glyph-name="cacute" unicode="&#x107;" horiz-adv-x="439" 
d="M254 -11q-100 0 -157.5 59.5t-57.5 163t58.5 163.5t158.5 60q72 0 145 -29v-121h-50v88q-46 14 -92 14q-79 0 -120 -47t-41 -127.5t43 -128t117.5 -47.5t143.5 43v-49q-67 -42 -148 -42zM181 506l-19 24l155 148l40 -50z" />
    <glyph glyph-name="Ccircumflex" unicode="&#x108;" horiz-adv-x="616" 
d="M365 -12q-141 0 -231 84.5t-90 229t86 232t237 87.5q114 0 208 -46v-144h-57v112q-65 26 -148 26q-118 0 -191 -69t-73 -196.5t75.5 -195.5t185.5 -68t210 59v-57q-94 -54 -212 -54zM212 674l-17 21l140 134h38l141 -134l-17 -21l-143 94z" />
    <glyph glyph-name="ccircumflex" unicode="&#x109;" horiz-adv-x="439" 
d="M254 -11q-100 0 -157.5 59.5t-57.5 163t58.5 163.5t158.5 60q72 0 145 -29v-121h-50v88q-46 14 -92 14q-79 0 -120 -47t-41 -127.5t43 -128t117.5 -47.5t143.5 43v-49q-67 -42 -148 -42zM109 505l-17 20l134 127h36l134 -127l-16 -20l-136 89z" />
    <glyph glyph-name="Cdotaccent" unicode="&#x10a;" horiz-adv-x="616" 
d="M365 -12q-141 0 -231 84.5t-90 229t86 232t237 87.5q114 0 208 -46v-144h-57v112q-65 26 -148 26q-118 0 -191 -69t-73 -196.5t75.5 -195.5t185.5 -68t210 59v-57q-94 -54 -212 -54zM355 677q-19 0 -32 13.5t-13 32t13 31.5t32 13t32 -13t13 -31.5t-13 -32t-32 -13.5z
" />
    <glyph glyph-name="cdotaccent" unicode="&#x10b;" horiz-adv-x="439" 
d="M254 -11q-100 0 -157.5 59.5t-57.5 163t58.5 163.5t158.5 60q72 0 145 -29v-121h-50v88q-46 14 -92 14q-79 0 -120 -47t-41 -127.5t43 -128t117.5 -47.5t143.5 43v-49q-67 -42 -148 -42zM246 518q-18 0 -31 13t-13 31t13 31t31 13t31 -13t13 -31t-13 -31t-31 -13z" />
    <glyph glyph-name="Ccaron" unicode="&#x10c;" horiz-adv-x="616" 
d="M365 -12q-141 0 -231 84.5t-90 229t86 232t237 87.5q114 0 208 -46v-144h-57v112q-65 26 -148 26q-118 0 -191 -69t-73 -196.5t75.5 -195.5t185.5 -68t210 59v-57q-94 -54 -212 -54zM335 677l-140 135l17 20l142 -94l143 94l17 -20l-141 -135h-38z" />
    <glyph glyph-name="ccaron" unicode="&#x10d;" horiz-adv-x="439" 
d="M254 -11q-100 0 -157.5 59.5t-57.5 163t58.5 163.5t158.5 60q72 0 145 -29v-121h-50v88q-46 14 -92 14q-79 0 -120 -47t-41 -127.5t43 -128t117.5 -47.5t143.5 43v-49q-67 -42 -148 -42zM225 511l-134 128l16 19l136 -88l135 88l17 -19l-134 -128h-36z" />
    <glyph glyph-name="Dcaron" unicode="&#x10e;" horiz-adv-x="675" 
d="M36 0v50h97v509h-97v50h274q140 0 230 -79t90 -226t-90 -225.5t-230 -78.5h-274zM193 50h118q117 0 187 67.5t70 187t-70 187t-187 67.5h-118v-509zM310 676l-140 135l17 20l142 -94l143 94l17 -20l-141 -135h-38z" />
    <glyph glyph-name="dcaron" unicode="&#x10f;" horiz-adv-x="522" 
d="M487 698q17 15 39 15t35.5 -15t13.5 -45t-19 -67t-52 -66l-28 21q44 54 44 97t-33 53v7zM373 61q-63 -72 -149.5 -72t-135.5 64t-49 159.5t51.5 159t135.5 63.5t144 -58v282h-93v48h150v-660h80v-47h-134v61zM132.5 86.5q34.5 -50.5 102 -50.5t135.5 68v225
q-58 58 -127.5 58t-107 -48.5t-37.5 -125t34.5 -127z" />
    <glyph glyph-name="Dcroat" unicode="&#x110;" horiz-adv-x="676" 
d="M46 282v50h88v227h-97v50h274q140 0 230 -79t90 -226t-90 -225.5t-230 -78.5h-274v50h97v232h-88zM194 50h118q117 0 187 67.5t70 187t-70 187t-187 67.5h-118v-227h174v-50h-174v-232z" />
    <glyph glyph-name="dcroat" unicode="&#x111;" horiz-adv-x="522" 
d="M216 520v43h154v96h-93v48h150v-144h73v-43h-73v-473h80v-47h-134v61q-63 -72 -149.5 -72t-135.5 64t-49 159.5t51.5 159t135.5 63.5t144 -58v143h-154zM132.5 86.5q34.5 -50.5 102 -50.5t135.5 68v225q-58 58 -127.5 58t-107 -48.5t-37.5 -125t34.5 -127z" />
    <glyph glyph-name="Emacron" unicode="&#x112;" horiz-adv-x="574" 
d="M36 0v50h97v509h-97v50h485v-164h-56v114h-272v-227h275v-50h-275v-232h274v114h56v-164h-487zM176 679v47h256v-47h-256z" />
    <glyph glyph-name="emacron" unicode="&#x113;" horiz-adv-x="453" 
d="M249 -11q-100 0 -155 60.5t-55 161t53.5 162.5t143.5 62t136 -63t46 -146q0 -19 -2 -28h-319q3 -76 44 -119t114 -43t142 43v-50q-70 -40 -148 -40zM328 346.5q-31 42.5 -91.5 42.5t-96.5 -40.5t-42 -106.5h264q-3 62 -34 104.5zM102 527v46h257v-46h-257z" />
    <glyph glyph-name="Ebreve" unicode="&#x114;" horiz-adv-x="574" 
d="M36 0v50h97v509h-97v50h485v-164h-56v114h-272v-227h275v-50h-275v-232h274v114h56v-164h-487zM402 701.5q-39 -35.5 -97.5 -35.5t-97 35.5t-43.5 101.5h47q8 -87 94 -87q39 0 64.5 21.5t29.5 65.5h47q-5 -66 -44 -101.5z" />
    <glyph glyph-name="ebreve" unicode="&#x115;" horiz-adv-x="453" 
d="M249 -11q-100 0 -155 60.5t-55 161t53.5 162.5t143.5 62t136 -63t46 -146q0 -19 -2 -28h-319q3 -76 44 -119t114 -43t142 43v-50q-70 -40 -148 -40zM328 346.5q-31 42.5 -91.5 42.5t-96.5 -40.5t-42 -106.5h264q-3 62 -34 104.5zM230 512q-56 0 -93 33.5t-42 96.5h46
q7 -81 89 -81t89 81h46q-5 -63 -42 -96.5t-93 -33.5z" />
    <glyph glyph-name="Edotaccent" unicode="&#x116;" horiz-adv-x="574" 
d="M36 0v50h97v509h-97v50h485v-164h-56v114h-272v-227h275v-50h-275v-232h274v114h56v-164h-487zM306 671q-19 0 -32 13t-13 32t13 32t32 13t32 -13t13 -32t-13 -32t-32 -13z" />
    <glyph glyph-name="edotaccent" unicode="&#x117;" horiz-adv-x="453" 
d="M249 -11q-100 0 -155 60.5t-55 161t53.5 162.5t143.5 62t136 -63t46 -146q0 -19 -2 -28h-319q3 -76 44 -119t114 -43t142 43v-50q-70 -40 -148 -40zM328 346.5q-31 42.5 -91.5 42.5t-96.5 -40.5t-42 -106.5h264q-3 62 -34 104.5zM261 531q-13 -13 -31.5 -13t-31 13
t-12.5 31t12.5 31t31 13t31.5 -13t13 -31t-13 -31z" />
    <glyph glyph-name="Eogonek" unicode="&#x118;" horiz-adv-x="574" 
d="M36 0v50h97v509h-97v50h485v-164h-56v114h-272v-227h275v-50h-275v-232h274v114h56v-164h-28q-75 -54 -75 -112q0 -47 54 -47q31 0 63 15l4 -38q-38 -18 -80.5 -18t-69 19.5t-26.5 59.5q0 66 77 121h-406z" />
    <glyph glyph-name="eogonek" unicode="&#x119;" horiz-adv-x="453" 
d="M331 -193q-40 0 -65 19t-25 57q0 60 63 112q-26 -6 -55 -6q-100 0 -155 60.5t-55 161t53.5 162.5t143.5 62t136 -63t46 -146q0 -19 -2 -28h-319q3 -76 44 -119t114 -43t142 43v-50q-42 -25 -72.5 -61t-30.5 -75q0 -46 51 -46q32 0 60 14l4 -37q-38 -17 -78 -17z
M328 346.5q-31 42.5 -91.5 42.5t-96.5 -40.5t-42 -106.5h264q-3 62 -34 104.5z" />
    <glyph glyph-name="Ecaron" unicode="&#x11a;" horiz-adv-x="574" 
d="M36 0v50h97v509h-97v50h485v-164h-56v114h-272v-227h275v-50h-275v-232h274v114h56v-164h-487zM289 676l-140 135l17 20l142 -94l143 94l17 -20l-141 -135h-38z" />
    <glyph glyph-name="ecaron" unicode="&#x11b;" horiz-adv-x="453" 
d="M249 -11q-100 0 -155 60.5t-55 161t53.5 162.5t143.5 62t136 -63t46 -146q0 -19 -2 -28h-319q3 -76 44 -119t114 -43t142 43v-50q-70 -40 -148 -40zM328 346.5q-31 42.5 -91.5 42.5t-96.5 -40.5t-42 -106.5h264q-3 62 -34 104.5zM212 511l-134 128l16 19l136 -88l135 88
l17 -19l-134 -128h-36z" />
    <glyph glyph-name="Gcircumflex" unicode="&#x11c;" horiz-adv-x="688" 
d="M369 -12q-152 0 -238.5 86t-86.5 227.5t86.5 230.5t240.5 89q113 0 223 -46v-137h-57v104q-88 28 -164 28q-125 0 -197 -73t-72 -193t68.5 -192.5t195.5 -72.5q84 0 176 37v187h-157v49h276v-49h-63v-219q-114 -56 -231 -56zM217 674l-17 21l140 134h38l141 -134l-17 -21
l-143 94z" />
    <glyph glyph-name="gcircumflex" unicode="&#x11d;" horiz-adv-x="452" 
d="M213 -210q-97 0 -144.5 33.5t-47.5 87.5q0 69 75 114q-35 18 -35 55.5t50 72.5q-63 43 -63 126q0 63 43 109.5t125 46.5q38 0 69 -11h159v-47l-99 2q39 -39 39 -101t-43 -108t-125 -46q-43 0 -73 12q-30 -21 -30 -41.5t31.5 -30.5t76.5 -15.5t90 -15t76.5 -37t31.5 -74.5
q0 -63 -54.5 -97.5t-151.5 -34.5zM300.5 358q-29.5 32 -84 32t-84.5 -32t-30 -79t30 -79t84.5 -32t84 32t29.5 79t-29.5 79zM108.5 -142.5q35.5 -22.5 104.5 -22.5t109 23.5t40 61.5q0 44 -54 61q-35 11 -92 18t-78 12q-65 -36 -65 -92q0 -39 35.5 -61.5zM80 505l-16 20
l134 127h36l134 -127l-16 -20l-136 89z" />
    <glyph glyph-name="Gbreve" unicode="&#x11e;" horiz-adv-x="688" 
d="M369 -12q-152 0 -238.5 86t-86.5 227.5t86.5 230.5t240.5 89q113 0 223 -46v-137h-57v104q-88 28 -164 28q-125 0 -197 -73t-72 -193t68.5 -192.5t195.5 -72.5q84 0 176 37v187h-157v49h276v-49h-63v-219q-114 -56 -231 -56zM457 705.5q-39 -35.5 -97.5 -35.5t-97.5 35.5
t-43 101.5h46q10 -87 94 -87q39 0 64.5 21.5t29.5 65.5h47q-4 -66 -43 -101.5z" />
    <glyph glyph-name="gbreve" unicode="&#x11f;" horiz-adv-x="452" 
d="M213 -210q-97 0 -144.5 33.5t-47.5 87.5q0 69 75 114q-35 18 -35 55.5t50 72.5q-63 43 -63 126q0 63 43 109.5t125 46.5q38 0 69 -11h159v-47l-99 2q39 -39 39 -101t-43 -108t-125 -46q-43 0 -73 12q-30 -21 -30 -41.5t31.5 -30.5t76.5 -15.5t90 -15t76.5 -37t31.5 -74.5
q0 -63 -54.5 -97.5t-151.5 -34.5zM300.5 358q-29.5 32 -84 32t-84.5 -32t-30 -79t30 -79t84.5 -32t84 32t29.5 79t-29.5 79zM108.5 -142.5q35.5 -22.5 104.5 -22.5t109 23.5t40 61.5q0 44 -54 61q-35 11 -92 18t-78 12q-65 -36 -65 -92q0 -39 35.5 -61.5zM216 512
q-56 0 -93 33.5t-42 96.5h45q8 -81 89.5 -81t89.5 81h45q-5 -63 -41.5 -96.5t-92.5 -33.5z" />
    <glyph glyph-name="Gdotaccent" unicode="&#x120;" horiz-adv-x="688" 
d="M369 -12q-152 0 -238.5 86t-86.5 227.5t86.5 230.5t240.5 89q113 0 223 -46v-137h-57v104q-88 28 -164 28q-125 0 -197 -73t-72 -193t68.5 -192.5t195.5 -72.5q84 0 176 37v187h-157v49h276v-49h-63v-219q-114 -56 -231 -56zM395 690.5q-13 -13.5 -31.5 -13.5t-31.5 13.5
t-13 32t13 31.5t32 13t31.5 -13t12.5 -31.5t-13 -32z" />
    <glyph glyph-name="gdotaccent" unicode="&#x121;" horiz-adv-x="452" 
d="M213 -210q-97 0 -144.5 33.5t-47.5 87.5q0 69 75 114q-35 18 -35 55.5t50 72.5q-63 43 -63 126q0 63 43 109.5t125 46.5q38 0 69 -11h159v-47l-99 2q39 -39 39 -101t-43 -108t-125 -46q-43 0 -73 12q-30 -21 -30 -41.5t31.5 -30.5t76.5 -15.5t90 -15t76.5 -37t31.5 -74.5
q0 -63 -54.5 -97.5t-151.5 -34.5zM300.5 358q-29.5 32 -84 32t-84.5 -32t-30 -79t30 -79t84.5 -32t84 32t29.5 79t-29.5 79zM108.5 -142.5q35.5 -22.5 104.5 -22.5t109 23.5t40 61.5q0 44 -54 61q-35 11 -92 18t-78 12q-65 -36 -65 -92q0 -39 35.5 -61.5zM247 531
q-13 -13 -31.5 -13t-31.5 13t-13 31t13 31t31.5 13t31.5 -13t13 -31t-13 -31z" />
    <glyph glyph-name="Gcommaaccent" unicode="&#x122;" horiz-adv-x="688" 
d="M319 -93q17 15 39.5 15t36 -15t13.5 -45t-19.5 -67t-52.5 -66l-28 22q45 54 45 96.5t-34 52.5v7zM369 -12q-152 0 -238.5 86t-86.5 227.5t86.5 230.5t240.5 89q113 0 223 -46v-137h-57v104q-88 28 -164 28q-125 0 -197 -73t-72 -193t68.5 -192.5t195.5 -72.5q84 0 176 37
v187h-157v49h276v-49h-63v-219q-114 -56 -231 -56z" />
    <glyph glyph-name="gcommaaccent" unicode="&#x123;" horiz-adv-x="452" 
d="M257 519q-19 -15 -40.5 -15t-35 15t-13.5 45t19.5 67.5t52.5 66.5l28 -22q-45 -54 -45 -97.5t34 -51.5v-8zM213 -210q-97 0 -144.5 33.5t-47.5 87.5q0 69 75 114q-35 18 -35 55.5t50 72.5q-63 43 -63 126q0 63 43 109.5t125 46.5q38 0 69 -11h159v-47l-99 2
q39 -39 39 -101t-43 -108t-125 -46q-43 0 -73 12q-30 -21 -30 -41.5t31.5 -30.5t76.5 -15.5t90 -15t76.5 -37t31.5 -74.5q0 -63 -54.5 -97.5t-151.5 -34.5zM300.5 358q-29.5 32 -84 32t-84.5 -32t-30 -79t30 -79t84.5 -32t84 32t29.5 79t-29.5 79zM108.5 -142.5
q35.5 -22.5 104.5 -22.5t109 23.5t40 61.5q0 44 -54 61q-35 11 -92 18t-78 12q-65 -36 -65 -92q0 -39 35.5 -61.5z" />
    <glyph glyph-name="Hcircumflex" unicode="&#x124;" horiz-adv-x="750" 
d="M36 0v50h97v509h-97v50h254v-50h-97v-226h364v226h-97v50h254v-50h-97v-509h97v-50h-254v50h97v231h-364v-231h97v-50h-254zM233 671l-17 21l140 134h38l141 -134l-17 -21l-143 94z" />
    <glyph glyph-name="hcircumflex" unicode="&#x125;" horiz-adv-x="539" 
d="M17 0v47h79v613h-79v47h137v-348q81 76 169 76q58 0 91 -35.5t33 -102.5v-250h79v-47h-216v47h79v243q0 96 -81 96q-72 0 -154 -74v-265h79v-47h-216zM-25 767l-17 20l134 128h36l134 -128l-16 -20l-136 89z" />
    <glyph glyph-name="Hbar" unicode="&#x126;" horiz-adv-x="752" 
d="M48 430v38h86v91h-97v50h254v-50h-97v-91h364v91h-97v50h253v-50h-96v-91h85v-38h-85v-380h96v-50h-253v50h97v231h-364v-231h97v-50h-254v50h97v380h-86zM194 333h364v99h-364v-99z" />
    <glyph glyph-name="hbar" unicode="&#x127;" horiz-adv-x="539" 
d="M22 520v43h74v97h-79v47h137v-144h141v-43h-141v-161q81 76 169 76q58 0 91 -35.5t33 -102.5v-250h79v-47h-216v47h79v243q0 96 -81 96q-72 0 -154 -74v-265h79v-47h-216v47h79v473h-74z" />
    <glyph glyph-name="Itilde" unicode="&#x128;" horiz-adv-x="326" 
d="M36 0v50h97v509h-97v50h254v-50h-97v-509h97v-50h-254zM54 776q15 9 38.5 9t71.5 -28t71 -28q37 0 66 60l27 -14q-13 -30 -21.5 -46t-29.5 -34.5t-47.5 -18.5t-75 28t-68.5 28q-36 0 -66 -59l-26 13q31 75 60 90z" />
    <glyph glyph-name="itilde" unicode="&#x129;" horiz-adv-x="263" 
d="M20 612q14 8 36.5 8t68 -27.5t67.5 -27.5q33 0 62 56l26 -14q-31 -68 -60 -85q-15 -8 -37.5 -8t-67.5 28t-65 28q-34 0 -62 -55l-27 13q31 69 59 84zM30 0v47h79v329h-79v48h137v-377h79v-47h-216z" />
    <glyph glyph-name="Imacron" unicode="&#x12a;" horiz-adv-x="326" 
d="M36 0v50h97v509h-97v50h254v-50h-97v-509h97v-50h-254zM35 679v47h257v-47h-257z" />
    <glyph glyph-name="imacron" unicode="&#x12b;" horiz-adv-x="263" 
d="M-7 527v46h257v-46h-257zM30 0v47h79v329h-79v48h137v-377h79v-47h-216z" />
    <glyph glyph-name="Ibreve" unicode="&#x12c;" horiz-adv-x="326" 
d="M36 0v50h97v509h-97v50h254v-50h-97v-509h97v-50h-254zM260 701.5q-39 -35.5 -97.5 -35.5t-97 35.5t-43.5 101.5h47q8 -87 94 -87q39 0 64.5 21.5t29.5 65.5h47q-5 -66 -44 -101.5z" />
    <glyph glyph-name="ibreve" unicode="&#x12d;" horiz-adv-x="263" 
d="M123 512q-56 0 -93 33.5t-42 96.5h46q7 -81 89 -81t89 81h46q-5 -63 -42 -96.5t-93 -33.5zM30 0v47h79v329h-79v48h137v-377h79v-47h-216z" />
    <glyph glyph-name="Iogonek" unicode="&#x12e;" horiz-adv-x="326" 
d="M36 0v50h97v509h-97v50h254v-50h-97v-509h97v-50h-76q-75 -54 -75 -112q0 -47 55 -47q30 0 62 15l4 -38q-38 -18 -80.5 -18t-69 19.5t-26.5 59.5q0 67 78 121h-126z" />
    <glyph glyph-name="iogonek" unicode="&#x12f;" horiz-adv-x="263" 
d="M30 0v47h79v329h-79v48h137v-377h79v-47h-62q-75 -54 -75 -109q0 -44 51 -44q32 0 60 14l4 -37q-38 -17 -78 -17t-65 18.5t-25 56.5q0 66 77 118h-103zM85 580q0 19 13.5 32.5t32.5 13.5t33 -13.5t14 -33t-14 -33t-33 -13.5t-32.5 14t-13.5 33z" />
    <glyph glyph-name="Idotaccent" unicode="&#x130;" horiz-adv-x="326" 
d="M36 0v50h97v509h-97v50h254v-50h-97v-509h97v-50h-254zM163 671q-19 0 -32 13t-13 32t13 32t32 13t32 -13t13 -32t-13 -32t-32 -13z" />
    <glyph glyph-name="dotlessi" unicode="&#x131;" horiz-adv-x="263" 
d="M30 0v47h79v329h-79v48h137v-377h79v-47h-216z" />
    <glyph glyph-name="Jcircumflex" unicode="&#x134;" horiz-adv-x="303" 
d="M122 5v554h-94v50h247v-50h-93v-556q0 -46 -22 -81.5t-48 -52.5t-66 -35l-22 42q98 51 98 129zM8 671l-17 21l140 134h38l141 -134l-17 -21l-143 94z" />
    <glyph glyph-name="jcircumflex" unicode="&#x135;" horiz-adv-x="227" 
d="M97 -68v444h-83v48h141v-494q0 -101 -123 -148l-19 38q84 46 84 112zM-26 505l-17 20l134 127h36l134 -127l-16 -20l-136 89z" />
    <glyph glyph-name="Kcommaaccent" unicode="&#x136;" horiz-adv-x="662" 
d="M333 -88q19 15 40.5 15t34.5 -15t13 -43q0 -71 -71 -136l-28 22q44 53 44 97t-33 52v8zM396 560v49h246v-50h-84l-240 -249l235 -260h96v-50h-132l-272 305v6l243 249h-92zM36 0v50h97v509h-97v50h253v-50h-96v-509h100v-50h-257z" />
    <glyph glyph-name="kcommaaccent" unicode="&#x137;" horiz-adv-x="503" 
d="M239 -88q21 15 41.5 15t34 -15t13.5 -43q0 -71 -71 -136l-28 22q44 55 44 98t-34 51v8zM17 0v47h79v613h-79v47h137v-660h77v-47h-214zM441 -11q-67 0 -136 84l-112 137v3l161 165h-77v46h205v-47h-64l-158 -164l91 -109q53 -67 102 -67q15 0 26 5v-46q-21 -7 -38 -7z
" />
    <glyph glyph-name="kgreenlandic" unicode="&#x138;" horiz-adv-x="517" 
d="M30 0v47h79v329h-79v48h137v-377h78v-47h-215zM454 -11q-67 0 -136 84l-111 137v3l160 165h-77v46h206v-47h-65l-158 -164l91 -109q55 -67 103 -67q13 0 26 5v-46q-23 -7 -39 -7z" />
    <glyph glyph-name="Lacute" unicode="&#x139;" horiz-adv-x="546" 
d="M36 0v50h97v509h-97v50h265v-50h-108v-509h276v120h56v-170h-489zM125 671l-19 24l164 156l41 -52z" />
    <glyph glyph-name="lacute" unicode="&#x13a;" horiz-adv-x="250" 
d="M17 0v47h79v612h-79v48h137v-660h79v-47h-216zM54 771l-19 24l155 148l40 -50z" />
    <glyph glyph-name="Lcommaaccent" unicode="&#x13b;" horiz-adv-x="546" 
d="M271 -88q21 15 41.5 15t34 -15t13.5 -43q0 -71 -71 -136l-28 22q44 55 44 98t-34 51v8zM36 0v50h97v509h-97v50h265v-50h-108v-509h276v120h56v-170h-489z" />
    <glyph glyph-name="lcommaaccent" unicode="&#x13c;" horiz-adv-x="250" 
d="M82 -88q19 15 40.5 15t35 -15t13.5 -45t-19.5 -67t-52.5 -67l-28 22q44 53 44 97t-33 52v8zM17 0v47h79v612h-79v48h137v-660h79v-47h-216z" />
    <glyph glyph-name="Lcaron" unicode="&#x13d;" horiz-adv-x="548" 
d="M373 600q17 15 39.5 15t36 -15t13.5 -45t-19.5 -67t-51.5 -66l-29 21q45 55 45 97.5t-34 52.5v7zM36 0v50h97v509h-97v50h265v-50h-108v-509h276v120h56v-170h-489z" />
    <glyph glyph-name="lcaron" unicode="&#x13e;" horiz-adv-x="250" 
d="M213 698q17 15 39.5 15t36 -15t13.5 -45t-19.5 -67t-52.5 -66l-28 21q45 55 45 97.5t-34 52.5v7zM17 0v47h79v612h-79v48h137v-660h79v-47h-216z" />
    <glyph glyph-name="Ldot" unicode="&#x13f;" horiz-adv-x="546" 
d="M36 0v50h97v509h-97v50h265v-50h-108v-509h276v120h56v-170h-489zM422 293q-19 0 -31.5 13t-12.5 32t12.5 32t31.5 13t32 -13t13 -32t-13 -32t-32 -13z" />
    <glyph glyph-name="ldot" unicode="&#x140;" horiz-adv-x="307" 
d="M17 0v47h79v612h-79v48h137v-660h79v-47h-216zM274 295q-18 0 -31 13t-13 31t13 31t31 13t31 -13t13 -31t-13 -31t-31 -13z" />
    <glyph glyph-name="Lslash" unicode="&#x141;" horiz-adv-x="547" 
d="M134 559h-97v50h265v-50h-108v-221l179 100l19 -37l-198 -109v-242h276v120h56v-170h-489v50h97v211l-79 -45l-19 37l98 55v251z" />
    <glyph glyph-name="lslash" unicode="&#x142;" horiz-adv-x="270" 
d="M102 659h-79v48h137v-326l98 55l20 -35l-118 -66v-288h79v-47h-216v47h79v257l-77 -43l-20 35l97 54v309z" />
    <glyph glyph-name="Nacute" unicode="&#x143;" horiz-adv-x="741" 
d="M36 0v50h97v509h-97v50h159l367 -512v462h-97v50h250v-50h-97v-559h-54l-374 521v-471h97v-50h-251zM323 671l-20 24l164 156l41 -52z" />
    <glyph glyph-name="nacute" unicode="&#x144;" horiz-adv-x="552" 
d="M30 0v47h79v329h-79v48h136v-66q82 77 170 77q58 0 91 -35.5t33 -102.5v-250h79v-47h-216v47h79v243q0 96 -81 96q-72 0 -154 -74v-265h79v-47h-216zM216 506l-20 24l156 148l39 -50z" />
    <glyph glyph-name="Ncommaaccent" unicode="&#x145;" horiz-adv-x="741" 
d="M352 -88q21 15 41.5 15t34 -15t13.5 -43q0 -71 -71 -136l-28 22q44 55 44 98t-34 51v8zM36 0v50h97v509h-97v50h159l367 -512v462h-97v50h250v-50h-97v-559h-54l-374 521v-471h97v-50h-251z" />
    <glyph glyph-name="ncommaaccent" unicode="&#x146;" horiz-adv-x="552" 
d="M245 -88q19 15 40.5 15t35 -15t13.5 -45t-19.5 -67t-52.5 -67l-28 22q45 54 45 97.5t-34 51.5v8zM30 0v47h79v329h-79v48h136v-66q82 77 170 77q58 0 91 -35.5t33 -102.5v-250h79v-47h-216v47h79v243q0 96 -81 96q-72 0 -154 -74v-265h79v-47h-216z" />
    <glyph glyph-name="Ncaron" unicode="&#x147;" horiz-adv-x="741" 
d="M36 0v50h97v509h-97v50h159l367 -512v462h-97v50h250v-50h-97v-559h-54l-374 521v-471h97v-50h-251zM352 676l-141 135l17 20l143 -94l142 94l17 -20l-141 -135h-37z" />
    <glyph glyph-name="ncaron" unicode="&#x148;" horiz-adv-x="552" 
d="M30 0v47h79v329h-79v48h136v-66q82 77 170 77q58 0 91 -35.5t33 -102.5v-250h79v-47h-216v47h79v243q0 96 -81 96q-72 0 -154 -74v-265h79v-47h-216zM259 511l-134 128l16 19l136 -88l135 88l17 -19l-134 -128h-36z" />
    <glyph glyph-name="napostrophe" unicode="&#x149;" horiz-adv-x="552" 
d="M56 665q17 15 39.5 15t36 -15t13.5 -45t-19.5 -67t-51.5 -66l-29 22q45 54 45 96.5t-34 52.5v7zM30 0v47h79v329h-79v48h136v-66q82 77 170 77q58 0 91 -35.5t33 -102.5v-250h79v-47h-216v47h79v243q0 96 -81 96q-72 0 -154 -74v-265h79v-47h-216z" />
    <glyph glyph-name="Eng" unicode="&#x14a;" horiz-adv-x="741" 
d="M558 5v14l-368 502v-471h97v-50h-251v50h97v509h-97v50h159l367 -501v451h-97v50h250v-50h-97v-556q0 -67 -36.5 -104.5t-98.5 -64.5l-22 42q97 51 97 129z" />
    <glyph glyph-name="eng" unicode="&#x14b;" horiz-adv-x="525" 
d="M402 -68v358q0 96 -81 96q-72 0 -154 -74v-265h79v-47h-216v47h79v329h-79v48h136v-66q82 77 170 77q58 0 91 -35.5t33 -102.5v-367q0 -101 -122 -148l-20 38q84 46 84 112z" />
    <glyph glyph-name="Omacron" unicode="&#x14c;" horiz-adv-x="705" 
d="M576 77.5q-85 -89.5 -224 -89.5t-224 89.5t-85 227t85 227t224 89.5t224 -89.5t85 -227t-85 -227zM173 112q68 -73 179 -73t179.5 74t68.5 192.5t-68 191t-179 72.5t-179.5 -73t-68.5 -192t68 -192zM224 683v47h257v-47h-257z" />
    <glyph glyph-name="omacron" unicode="&#x14d;" horiz-adv-x="494" 
d="M398 49q-58 -60 -150.5 -60t-150.5 60t-58 163t58 163t150.5 60t150.5 -60t58 -163t-58 -163zM247 36q69 0 109 47.5t40 128.5t-40 128t-109 47t-109 -47.5t-40 -128t40 -128t109 -47.5zM119 527v46h257v-46h-257z" />
    <glyph glyph-name="Obreve" unicode="&#x14e;" horiz-adv-x="705" 
d="M576 77.5q-85 -89.5 -224 -89.5t-224 89.5t-85 227t85 227t224 89.5t224 -89.5t85 -227t-85 -227zM173 112q68 -73 179 -73t179.5 74t68.5 192.5t-68 191t-179 72.5t-179.5 -73t-68.5 -192t68 -192zM449 705.5q-39 -35.5 -97.5 -35.5t-97 35.5t-43.5 101.5h47
q8 -87 94 -87q39 0 64.5 21.5t29.5 65.5h47q-5 -66 -44 -101.5z" />
    <glyph glyph-name="obreve" unicode="&#x14f;" horiz-adv-x="494" 
d="M398 49q-58 -60 -150.5 -60t-150.5 60t-58 163t58 163t150.5 60t150.5 -60t58 -163t-58 -163zM247 36q69 0 109 47.5t40 128.5t-40 128t-109 47t-109 -47.5t-40 -128t40 -128t109 -47.5zM247 512q-56 0 -93 33.5t-41 96.5h45q7 -81 89 -81t89 81h46q-5 -63 -42 -96.5
t-93 -33.5z" />
    <glyph glyph-name="Ohungarumlaut" unicode="&#x150;" horiz-adv-x="705" 
d="M576 77.5q-85 -89.5 -224 -89.5t-224 89.5t-85 227t85 227t224 89.5t224 -89.5t85 -227t-85 -227zM173 112q68 -73 179 -73t179.5 74t68.5 192.5t-68 191t-179 72.5t-179.5 -73t-68.5 -192t68 -192zM243 676l-22 18l126 171l44 -41zM397 676l-21 18l125 171l45 -41z" />
    <glyph glyph-name="ohungarumlaut" unicode="&#x151;" horiz-adv-x="494" 
d="M398 49q-58 -60 -150.5 -60t-150.5 60t-58 163t58 163t150.5 60t150.5 -60t58 -163t-58 -163zM247 36q69 0 109 47.5t40 128.5t-40 128t-109 47t-109 -47.5t-40 -128t40 -128t109 -47.5zM142 506l-21 18l125 171l45 -42zM297 506l-21 18l125 171l45 -42z" />
    <glyph glyph-name="OE" unicode="&#x152;" horiz-adv-x="860" 
d="M352 0q-142 0 -224.5 83.5t-82.5 220.5t82 221t225 84h455v-162h-56v112h-257v-227h261v-50h-261v-232h259v113h56v-163h-457zM352 51h84v507h-84q-113 0 -179 -67.5t-66 -186t66 -186t179 -67.5z" />
    <glyph glyph-name="oe" unicode="&#x153;" horiz-adv-x="806" 
d="M243 -11q-90 0 -147 60t-57 163t57 163t148 60q127 0 178 -117q21 55 64.5 86t104.5 31t103 -33q77 -59 77 -176q0 -19 -1 -28h-318q3 -76 43.5 -119t113.5 -43t142 43v-50q-70 -40 -147 -40q-138 0 -183 115q-23 -55 -69.5 -85t-108.5 -30zM246 36q69 0 108 47.5
t39 128.5t-39 128t-108 47t-108.5 -47t-39.5 -128t39.5 -128.5t108.5 -47.5zM682 346.5q-31 42.5 -91.5 42.5t-96.5 -40.5t-42 -106.5h264q-3 62 -34 104.5z" />
    <glyph glyph-name="Racute" unicode="&#x154;" horiz-adv-x="628" 
d="M36 0v50h97v509h-97v50h277q134 0 199 -75q38 -42 38 -107.5t-39 -109t-107 -60.5l114 -207h93v-50h-132l-133 244q-12 -1 -34 -1h-119v-193h97v-50h-254zM193 292h121q87 0 131 34.5t44 98.5t-44 99t-131 35h-121v-267zM248 671l-19 24l163 156l42 -52z" />
    <glyph glyph-name="racute" unicode="&#x155;" horiz-adv-x="351" 
d="M30 0v47h79v329h-79v48h136v-89q67 100 162 100h10v-58h-11q-85 0 -160 -77v-253h88v-47h-225zM139 506l-20 24l156 148l39 -50z" />
    <glyph glyph-name="Rcommaaccent" unicode="&#x156;" horiz-adv-x="628" 
d="M313 -88q19 15 40.5 15t35 -15t13.5 -45t-19.5 -67t-52.5 -67l-28 22q45 54 45 97.5t-34 51.5v8zM36 0v50h97v509h-97v50h277q134 0 199 -75q38 -42 38 -107.5t-39 -109t-107 -60.5l114 -207h93v-50h-132l-133 244q-12 -1 -34 -1h-119v-193h97v-50h-254zM193 292h121
q87 0 131 34.5t44 98.5t-44 99t-131 35h-121v-267z" />
    <glyph glyph-name="rcommaaccent" unicode="&#x157;" horiz-adv-x="351" 
d="M97 -88q19 15 40.5 15t35 -15t13.5 -45t-19.5 -67t-51.5 -67l-29 22q45 54 45 97.5t-34 51.5v8zM30 0v47h79v329h-79v48h136v-89q67 100 162 100h10v-58h-11q-85 0 -160 -77v-253h88v-47h-225z" />
    <glyph glyph-name="Rcaron" unicode="&#x158;" horiz-adv-x="628" 
d="M36 0v50h97v509h-97v50h277q134 0 199 -75q38 -42 38 -107.5t-39 -109t-107 -60.5l114 -207h93v-50h-132l-133 244q-12 -1 -34 -1h-119v-193h97v-50h-254zM193 292h121q87 0 131 34.5t44 98.5t-44 99t-131 35h-121v-267zM289 676l-140 135l17 20l142 -94l143 94l17 -20
l-141 -135h-38z" />
    <glyph glyph-name="rcaron" unicode="&#x159;" horiz-adv-x="351" 
d="M30 0v47h79v329h-79v48h136v-89q67 100 162 100h10v-58h-11q-85 0 -160 -77v-253h88v-47h-225zM175 511l-133 128l16 19l135 -88l136 88l16 -19l-134 -128h-36z" />
    <glyph glyph-name="Sacute" unicode="&#x15a;" horiz-adv-x="511" 
d="M409 28.5q-58 -40.5 -158.5 -40.5t-202.5 31v133h55v-94q69 -20 145 -20t118 28.5t42 78t-36 79.5t-87 47t-102 36t-87 57.5t-36 105t53.5 109t146 42.5t185.5 -28v-132h-56v94q-58 15 -127 15t-106.5 -28.5t-37.5 -74t36 -74.5t87 -46t102.5 -37t87.5 -60t36 -101
q0 -80 -58 -120.5zM205 675l-20 24l164 156l41 -52z" />
    <glyph glyph-name="sacute" unicode="&#x15b;" horiz-adv-x="396" 
d="M316 20q-43 -31 -120.5 -31t-154.5 25v104h49v-68q54 -15 103.5 -15t80 17t30.5 49.5t-26.5 51.5t-63.5 29.5t-74.5 23t-64 40.5t-26.5 77t40.5 80.5t110 31.5t141.5 -22v-104h-50v69q-44 11 -89.5 11t-71.5 -18.5t-26 -49.5t26.5 -49.5t63.5 -29t74.5 -23t64 -40.5
t26.5 -78t-43 -81zM145 506l-19 24l155 148l40 -50z" />
    <glyph glyph-name="Scircumflex" unicode="&#x15c;" horiz-adv-x="511" 
d="M409 28.5q-58 -40.5 -158.5 -40.5t-202.5 31v133h55v-94q69 -20 145 -20t118 28.5t42 78t-36 79.5t-87 47t-102 36t-87 57.5t-36 105t53.5 109t146 42.5t185.5 -28v-132h-56v94q-58 15 -127 15t-106.5 -28.5t-37.5 -74t36 -74.5t87 -46t102.5 -37t87.5 -60t36 -101
q0 -80 -58 -120.5zM122 674l-17 21l140 134h38l141 -134l-17 -21l-143 94z" />
    <glyph glyph-name="scircumflex" unicode="&#x15d;" horiz-adv-x="396" 
d="M316 20q-43 -31 -120.5 -31t-154.5 25v104h49v-68q54 -15 103.5 -15t80 17t30.5 49.5t-26.5 51.5t-63.5 29.5t-74.5 23t-64 40.5t-26.5 77t40.5 80.5t110 31.5t141.5 -22v-104h-50v69q-44 11 -89.5 11t-71.5 -18.5t-26 -49.5t26.5 -49.5t63.5 -29t74.5 -23t64 -40.5
t26.5 -78t-43 -81zM70 505l-16 20l133 127h37l134 -127l-17 -20l-135 89z" />
    <glyph glyph-name="Scedilla" unicode="&#x15e;" horiz-adv-x="511" 
d="M308.5 -173.5q-35.5 -19.5 -76.5 -19.5t-64 5l9 37q36 -3 41 -3q74 0 74 41.5t-83 41.5v19l20 40q-99 5 -181 31v133h55v-94q69 -20 145 -20t118 28.5t42 78t-36 79.5t-87 47t-102 36t-87 57.5t-36 105t53.5 109t146 42.5t185.5 -28v-132h-56v94q-58 15 -127 15
t-106.5 -28.5t-37.5 -74t36 -74.5t87 -46t102.5 -37t87.5 -60t36 -108t-52.5 -109t-144.5 -45l-11 -28q34 -3 59.5 -20.5t25.5 -55.5t-35.5 -57.5z" />
    <glyph glyph-name="scedilla" unicode="&#x15f;" horiz-adv-x="396" 
d="M249.5 -173.5q-35.5 -19.5 -76 -19.5t-65.5 5l10 37q36 -3 41 -3q73 0 73 41.5t-83 41.5v19l21 42q-71 5 -129 24v104h49v-68q54 -15 103.5 -15t80 17t30.5 49.5t-26.5 51.5t-63.5 29.5t-74.5 23t-64 40.5t-26.5 77t40.5 80.5t110 31.5t141.5 -22v-104h-50v69
q-44 11 -89.5 11t-71.5 -18.5t-26 -49.5t26.5 -49.5t63.5 -29t74.5 -23t64 -40.5t26.5 -77t-39 -79t-110 -34l-11 -29q35 -3 60.5 -20.5t25.5 -55.5t-35.5 -57.5z" />
    <glyph glyph-name="Scaron" unicode="&#x160;" horiz-adv-x="511" 
d="M409 28.5q-58 -40.5 -158.5 -40.5t-202.5 31v133h55v-94q69 -20 145 -20t118 28.5t42 78t-36 79.5t-87 47t-102 36t-87 57.5t-36 105t53.5 109t146 42.5t185.5 -28v-132h-56v94q-58 15 -127 15t-106.5 -28.5t-37.5 -74t36 -74.5t87 -46t102.5 -37t87.5 -60t36 -101
q0 -80 -58 -120.5zM247 677l-141 135l17 20l142 -94l143 94l17 -20l-141 -135h-37z" />
    <glyph glyph-name="scaron" unicode="&#x161;" horiz-adv-x="396" 
d="M316 20q-43 -31 -120.5 -31t-154.5 25v104h49v-68q54 -15 103.5 -15t80 17t30.5 49.5t-26.5 51.5t-63.5 29.5t-74.5 23t-64 40.5t-26.5 77t40.5 80.5t110 31.5t141.5 -22v-104h-50v69q-44 11 -89.5 11t-71.5 -18.5t-26 -49.5t26.5 -49.5t63.5 -29t74.5 -23t64 -40.5
t26.5 -78t-43 -81zM186 511l-134 128l17 19l135 -88l136 88l16 -19l-134 -128h-36z" />
    <glyph glyph-name="Tcommaaccent" unicode="&#x162;" horiz-adv-x="577" 
d="M246 -88q19 15 40.5 15t35 -15t13.5 -45t-19.5 -67t-51.5 -67l-28 22q44 55 44 98t-34 51v8zM156 0v50h103v509h-182v-110h-55v160h533v-160h-55v110h-181v-509h102v-50h-265z" />
    <glyph glyph-name="tcommaaccent" unicode="&#x163;" horiz-adv-x="305" 
d="M146 -88q19 15 40.5 15t35 -15t13.5 -45t-19.5 -67t-51.5 -67l-28 22q44 55 44 98t-34 51v8zM213 -11q-121 0 -121 122v265h-74v48h74v110h58v-110h137v-48h-137v-262q0 -41 18.5 -59.5t57 -18.5t66.5 11v-45q-38 -13 -79 -13z" />
    <glyph glyph-name="Tcaron" unicode="&#x164;" horiz-adv-x="577" 
d="M156 0v50h103v509h-182v-110h-55v160h533v-160h-55v110h-181v-509h102v-50h-265zM270 676l-141 135l17 20l143 -94l142 94l17 -20l-141 -135h-37z" />
    <glyph glyph-name="tcaron" unicode="&#x165;" horiz-adv-x="305" 
d="M226 669q19 15 40.5 15t34.5 -15t13 -45.5t-19 -67.5t-52 -66l-28 22q44 53 44 97t-33 52v8zM213 -11q-121 0 -121 122v265h-74v48h74v110h58v-110h137v-48h-137v-262q0 -41 18.5 -59.5t57 -18.5t66.5 11v-45q-38 -13 -79 -13z" />
    <glyph glyph-name="Tbar" unicode="&#x166;" horiz-adv-x="582" 
d="M117 278v44h144v237h-181v-110h-55v160h533v-160h-56v110h-181v-237h144v-44h-144v-228h103v-50h-266v50h103v228h-144z" />
    <glyph glyph-name="tbar" unicode="&#x167;" horiz-adv-x="308" 
d="M28 212v43h65v121h-73v48h73v110h58v-110h137v-48h-137v-121h120v-43h-120v-98q0 -41 18.5 -59.5t57.5 -18.5t66 11v-45q-38 -13 -79 -13q-121 0 -121 122v101h-65z" />
    <glyph glyph-name="Utilde" unicode="&#x168;" horiz-adv-x="693" 
d="M349 -12q-104 0 -168.5 54.5t-64.5 156.5v360h-97v50h254v-50h-97v-356q0 -82 49 -121.5t125 -39.5t123 40t47 121v356h-97v50h250v-50h-96v-358q0 -102 -62 -157.5t-166 -55.5zM242 776q16 9 39.5 9t71.5 -28t71 -28q37 0 66 60l27 -14q-13 -30 -21.5 -46t-29.5 -34.5
t-47.5 -18.5t-75 28t-68.5 28q-37 0 -66 -59l-26 13q31 75 59 90z" />
    <glyph glyph-name="utilde" unicode="&#x169;" horiz-adv-x="537" 
d="M215 -11q-58 0 -91 35t-33 102v250h-80v48h137v-290q0 -97 81 -97q71 0 155 74v265h-82v48h139v-377h80v-47h-136v64q-84 -75 -170 -75zM137.5 603.5q19.5 16.5 44.5 16.5t70.5 -27.5t67.5 -27.5q33 0 62 56l27 -14q-33 -70 -61 -85q-14 -8 -36.5 -8t-68 28t-65.5 28
q-34 0 -62 -55l-27 13q12 27 20.5 43t28 32.5z" />
    <glyph glyph-name="Umacron" unicode="&#x16a;" horiz-adv-x="693" 
d="M349 -12q-104 0 -168.5 54.5t-64.5 156.5v360h-97v50h254v-50h-97v-356q0 -82 49 -121.5t125 -39.5t123 40t47 121v356h-97v50h250v-50h-96v-358q0 -102 -62 -157.5t-166 -55.5zM218 679v47h257v-47h-257z" />
    <glyph glyph-name="umacron" unicode="&#x16b;" horiz-adv-x="537" 
d="M215 -11q-58 0 -91 35t-33 102v250h-80v48h137v-290q0 -97 81 -97q71 0 155 74v265h-82v48h139v-377h80v-47h-136v64q-84 -75 -170 -75zM114 527v46h256v-46h-256z" />
    <glyph glyph-name="Ubreve" unicode="&#x16c;" horiz-adv-x="693" 
d="M349 -12q-104 0 -168.5 54.5t-64.5 156.5v360h-97v50h254v-50h-97v-356q0 -82 49 -121.5t125 -39.5t123 40t47 121v356h-97v50h250v-50h-96v-358q0 -102 -62 -157.5t-166 -55.5zM446 701.5q-39 -35.5 -97.5 -35.5t-97.5 35.5t-43 101.5h46q10 -87 94 -87q39 0 64.5 21.5
t29.5 65.5h47q-4 -66 -43 -101.5z" />
    <glyph glyph-name="ubreve" unicode="&#x16d;" horiz-adv-x="537" 
d="M215 -11q-58 0 -91 35t-33 102v250h-80v48h137v-290q0 -97 81 -97q71 0 155 74v265h-82v48h139v-377h80v-47h-136v64q-84 -75 -170 -75zM246 512q-56 0 -93 33.5t-41 96.5h45q8 -81 89.5 -81t89.5 81h45q-5 -63 -42 -96.5t-93 -33.5z" />
    <glyph glyph-name="Uring" unicode="&#x16e;" horiz-adv-x="693" 
d="M349 -12q-104 0 -168.5 54.5t-64.5 156.5v360h-97v50h254v-50h-97v-356q0 -82 49 -121.5t125 -39.5t123 40t47 121v356h-97v50h250v-50h-96v-358q0 -102 -62 -157.5t-166 -55.5zM349 663q-49 0 -78 29.5t-29 72.5t29 72.5t78 29.5t78.5 -29.5t29.5 -72.5t-29.5 -72.5
t-78.5 -29.5zM349 699q29 0 45 19.5t16 46.5t-16 46.5t-45 19.5t-45 -19.5t-16 -46.5t16 -46.5t45 -19.5z" />
    <glyph glyph-name="uring" unicode="&#x16f;" horiz-adv-x="537" 
d="M215 -11q-58 0 -91 35t-33 102v250h-80v48h137v-290q0 -97 81 -97q71 0 155 74v265h-82v48h139v-377h80v-47h-136v64q-84 -75 -170 -75zM247 503q-49 0 -78.5 29.5t-29.5 72.5t29.5 72.5t78.5 29.5t78 -29.5t29 -72.5t-29 -72.5t-78 -29.5zM202 558.5
q16 -19.5 44.5 -19.5t44.5 19.5t16 46.5t-16 46.5t-44.5 19.5t-44.5 -19.5t-16 -46.5t16 -46.5z" />
    <glyph glyph-name="Uhungarumlaut" unicode="&#x170;" horiz-adv-x="693" 
d="M349 -12q-104 0 -168.5 54.5t-64.5 156.5v360h-97v50h254v-50h-97v-356q0 -82 49 -121.5t125 -39.5t123 40t47 121v356h-97v50h250v-50h-96v-358q0 -102 -62 -157.5t-166 -55.5zM246 673l-21 18l126 170l44 -41zM401 673l-21 18l125 170l45 -41z" />
    <glyph glyph-name="uhungarumlaut" unicode="&#x171;" horiz-adv-x="537" 
d="M215 -11q-58 0 -91 35t-33 102v250h-80v48h137v-290q0 -97 81 -97q71 0 155 74v265h-82v48h139v-377h80v-47h-136v64q-84 -75 -170 -75zM140 506l-21 18l126 171l44 -42zM295 506l-21 18l125 171l45 -42z" />
    <glyph glyph-name="Uogonek" unicode="&#x172;" horiz-adv-x="695" 
d="M502 -182q-36 -18 -79.5 -18t-70 19.5t-26.5 59.5q0 62 66 112q-19 -3 -44 -3q-103 0 -167.5 55t-64.5 156v360h-97v50h254v-50h-97v-356q0 -82 49 -121.5t125 -39.5t123 40t47 121v356h-97v50h250v-50h-96v-358q0 -122 -97 -182q-70 -45 -88 -85q-10 -20 -10 -43
q0 -50 53 -50q31 0 63 15z" />
    <glyph glyph-name="uogonek" unicode="&#x173;" horiz-adv-x="537" 
d="M536 -176q-38 -17 -77.5 -17t-64.5 18.5t-25 56.5q0 67 76 118h-60v64q-84 -75 -170 -75q-58 0 -91 35t-33 102v250h-80v48h137v-290q0 -97 81 -97q71 0 155 74v265h-82v48h139v-377h80v-47h-25q-74 -53 -74 -109q0 -44 50 -44q32 0 60 14z" />
    <glyph glyph-name="Wcircumflex" unicode="&#x174;" horiz-adv-x="932" 
d="M-5 559v50h245v-50h-102l152 -480l149 425l-19 55h-86v50h245v-50h-102l165 -478l152 478h-102v50h245v-50h-84l-182 -559h-55l-149 424l-152 -424h-55l-182 559h-83zM318 671l-17 21l141 134h37l141 -134l-17 -21l-143 94z" />
    <glyph glyph-name="wcircumflex" unicode="&#x175;" horiz-adv-x="731" 
d="M10 377v47h201v-47h-83l94 -298l119 345h51l119 -346l94 299h-83v47h199v-47h-64l-122 -377h-47l-123 342l-120 -342h-48l-125 377h-62zM230 505l-16 20l134 127h36l134 -127l-17 -20l-135 89z" />
    <glyph glyph-name="Ycircumflex" unicode="&#x176;" horiz-adv-x="627" 
d="M186 0v50h98v177l-206 332h-85v50h252v-50h-101l170 -278l170 278h-100v50h249v-50h-85l-204 -330v-179h98v-50h-256zM172 671l-17 21l141 134h37l141 -134l-17 -21l-143 94z" />
    <glyph glyph-name="ycircumflex" unicode="&#x177;" horiz-adv-x="513" 
d="M131 -210q-47 0 -96 29l17 42q39 -24 73 -24q62 0 88 67l35 96h-46l-126 376h-63v48h203v-47h-80l117 -364l134 364h-80v47h201v-48h-63l-183 -488q-36 -98 -131 -98zM126 505l-16 20l133 127h37l134 -127l-17 -20l-135 89z" />
    <glyph glyph-name="Ydieresis" unicode="&#x178;" horiz-adv-x="627" 
d="M186 0v50h98v177l-206 332h-85v50h252v-50h-101l170 -278l170 278h-100v50h249v-50h-85l-204 -330v-179h98v-50h-256zM230 677q-17 0 -29.5 12.5t-12.5 30t12.5 29.5t29.5 12t29 -12t12 -29.5t-12 -30t-29 -12.5zM429.5 689.5q-12.5 -12.5 -30 -12.5t-29.5 12.5t-12 30
t12 29.5t29.5 12t30 -12t12.5 -29.5t-12.5 -30z" />
    <glyph glyph-name="Zacute" unicode="&#x179;" horiz-adv-x="557" 
d="M42 0v50l385 507h-322v-112h-58v164h453v-52l-385 -506h345v120h57v-171h-475zM217 671l-19 24l164 156l41 -52z" />
    <glyph glyph-name="zacute" unicode="&#x17a;" horiz-adv-x="421" 
d="M40 0v39l264 341h-211v-83h-51v127h333v-38l-265 -341h221v89h50v-134h-341zM156 506l-19 24l155 148l40 -50z" />
    <glyph glyph-name="Zdotaccent" unicode="&#x17b;" horiz-adv-x="557" 
d="M42 0v50l385 507h-322v-112h-58v164h453v-52l-385 -506h345v120h57v-171h-475zM278 671q-19 0 -32 13t-13 32t13 32t32 13t32 -13t13 -32t-13 -32t-32 -13z" />
    <glyph glyph-name="zdotaccent" unicode="&#x17c;" horiz-adv-x="421" 
d="M40 0v39l264 341h-211v-83h-51v127h333v-38l-265 -341h221v89h50v-134h-341zM211 518q-18 0 -31 13t-13 31t13 31t31 13t31 -13t13 -31t-13 -31t-31 -13z" />
    <glyph glyph-name="Zcaron" unicode="&#x17d;" horiz-adv-x="557" 
d="M42 0v50l385 507h-322v-112h-58v164h453v-52l-385 -506h345v120h57v-171h-475zM261 676l-141 135l17 20l143 -94l142 94l17 -20l-140 -135h-38z" />
    <glyph glyph-name="zcaron" unicode="&#x17e;" horiz-adv-x="421" 
d="M40 0v39l264 341h-211v-83h-51v127h333v-38l-265 -341h221v89h50v-134h-341zM193 511l-134 128l17 19l135 -88l136 88l16 -19l-134 -128h-36z" />
    <glyph glyph-name="longs" unicode="&#x17f;" horiz-adv-x="277" 
d="M34 0v47h81v329h-90v48h90v158q0 69 38 102.5t106 33.5q37 0 72 -8v-45q-36 6 -60 6q-99 0 -99 -91v-533h97v-47h-235z" />
    <glyph glyph-name="AEacute" unicode="&#x1fc;" horiz-adv-x="918" 
d="M-7 0v51h80l343 508h-79v50h528v-162h-56v112h-257v-227h261v-50h-261v-232h259v112h56v-162h-469v50h96v152h-254l-102 -152h84v-50h-229zM494 252v307h-16l-205 -307h221zM529 671l-20 24l164 156l41 -52z" />
    <glyph glyph-name="aeacute" unicode="&#x1fd;" horiz-adv-x="724" 
d="M172 -11q-63 0 -102.5 32t-39.5 91q0 129 191 129h96v42q0 57 -24 80.5t-88.5 23.5t-139.5 -29v47q76 30 153 30q114 0 139 -84q50 84 146 84t141 -63t45 -146q0 -19 -2 -28h-317q2 -76 43 -119t113 -43t143 43v-50q-72 -40 -148 -40q-110 0 -162 74q-88 -74 -187 -74z
M182 36q81 0 157 61q-21 48 -21 103h-95q-135 0 -135 -86q0 -37 25 -57.5t69 -20.5zM600 347.5q-31 42.5 -91.5 42.5t-96.5 -41t-42 -107h264q-3 63 -34 105.5zM326 506l-20 24l156 148l39 -50z" />
    <glyph glyph-name="Oslashacute" unicode="&#x1fe;" horiz-adv-x="705" 
d="M353 -12q-112 0 -191 59l-50 -62l-26 21l51 63q-94 88 -94 230.5t85 232t225 89.5q108 0 188 -59l52 62l26 -22l-51 -62q93 -90 93 -232t-85 -231t-223 -89zM198 89q62 -50 163.5 -50t170 73t68.5 191t-69 192zM353 569q-111 0 -179.5 -73t-68.5 -192.5t68 -190.5
l334 405q-65 51 -154 51zM283 675l-19 24l164 156l41 -52z" />
    <glyph glyph-name="oslashacute" unicode="&#x1ff;" 
d="M399 49q-58 -60 -144.5 -60t-139.5 45l-42 -49l-22 18l43 50q-54 60 -54 161t58 161t151 60q75 0 133 -45l42 49l21 -19l-42 -50q54 -60 54 -160.5t-58 -160.5zM149 73q39 -37 104 -37t104.5 47.5t39.5 123t-31 120.5zM348 350q-39 37 -103.5 37t-104.5 -47t-40 -124
t31 -120zM187 506l-19 24l155 148l40 -50z" />
    <glyph glyph-name="Scommaaccent" unicode="&#x218;" horiz-adv-x="511" 
d="M227 -93q18 15 40 15t35.5 -15t13.5 -45t-19 -67t-52 -66l-28 22q44 55 44 97t-34 52v7zM409 28.5q-58 -40.5 -158.5 -40.5t-202.5 31v133h55v-94q69 -20 145 -20t118 28.5t42 78t-36 79.5t-87 47t-102 36t-87 57.5t-36 105t53.5 109t146 42.5t185.5 -28v-132h-56v94
q-58 15 -127 15t-106.5 -28.5t-37.5 -74t36 -74.5t87 -46t102.5 -37t87.5 -60t36 -101q0 -80 -58 -120.5z" />
    <glyph glyph-name="scommaaccent" unicode="&#x219;" horiz-adv-x="396" 
d="M164 -93q17 15 39.5 15t36 -15t13.5 -45t-19.5 -67t-52.5 -66l-28 22q45 54 45 96.5t-34 52.5v7zM316 20q-43 -31 -120.5 -31t-154.5 25v104h49v-68q54 -15 103.5 -15t80 17t30.5 49.5t-26.5 51.5t-63.5 29.5t-74.5 23t-64 40.5t-26.5 77t40.5 80.5t110 31.5t141.5 -22
v-104h-50v69q-44 11 -89.5 11t-71.5 -18.5t-26 -49.5t26.5 -49.5t63.5 -29t74.5 -23t64 -40.5t26.5 -78t-43 -81z" />
    <glyph glyph-name="uni021A" unicode="&#x21a;" horiz-adv-x="577" 
d="M246 -88q19 15 40.5 15t35 -15t13.5 -45t-19.5 -67t-51.5 -67l-28 22q44 55 44 98t-34 51v8zM156 0v50h103v509h-182v-110h-55v160h533v-160h-55v110h-181v-509h102v-50h-265z" />
    <glyph glyph-name="uni021B" unicode="&#x21b;" horiz-adv-x="305" 
d="M146 -88q19 15 40.5 15t35 -15t13.5 -45t-19.5 -67t-51.5 -67l-28 22q44 55 44 98t-34 51v8zM213 -11q-121 0 -121 122v265h-74v48h74v110h58v-110h137v-48h-137v-262q0 -41 18.5 -59.5t57 -18.5t66.5 11v-45q-38 -13 -79 -13z" />
    <glyph glyph-name="dotlessj" unicode="&#x237;" horiz-adv-x="227" 
d="M97 -68v444h-83v48h141v-494q0 -101 -123 -148l-19 38q84 46 84 112z" />
    <glyph glyph-name="circumflex" unicode="&#x2c6;" horiz-adv-x="434" 
d="M81 505l-16 20l134 127h36l134 -127l-17 -20l-135 89z" />
    <glyph glyph-name="caron" unicode="&#x2c7;" horiz-adv-x="442" 
d="M198 511l-133 128l16 19l136 -88l135 88l17 -19l-134 -128h-37z" />
    <glyph glyph-name="breve" unicode="&#x2d8;" horiz-adv-x="368" 
d="M180 512q-56 0 -93 33.5t-42 96.5h46q7 -81 89 -81t89 81h46q-5 -63 -42 -96.5t-93 -33.5z" />
    <glyph glyph-name="dotaccent" unicode="&#x2d9;" horiz-adv-x="241" 
d="M151 531q-13 -13 -31.5 -13t-31 13t-12.5 31t12.5 31t31 13t31.5 -13t13 -31t-13 -31z" />
    <glyph glyph-name="ring" unicode="&#x2da;" horiz-adv-x="361" 
d="M183 503q-49 0 -78 29.5t-29 72.5t29 72.5t78 29.5t78.5 -29.5t29.5 -72.5t-29.5 -72.5t-78.5 -29.5zM183 539q29 0 45 19.5t16 46.5t-16 46.5t-45 19.5t-45 -19.5t-16 -46.5t16 -46.5t45 -19.5z" />
    <glyph glyph-name="ogonek" unicode="&#x2db;" horiz-adv-x="275" 
d="M226 -176q-38 -17 -77.5 -17t-64.5 18.5t-25 56.5q0 77 114 140l23 -15q-30 -19 -57 -50.5t-27 -65.5q0 -44 51 -44q30 0 60 14z" />
    <glyph glyph-name="tilde" unicode="&#x2dc;" horiz-adv-x="461" 
d="M118.5 603.5q19.5 16.5 44.5 16.5t70.5 -27.5t67.5 -27.5q33 0 62 56l27 -14q-12 -26 -21 -42.5t-29 -33.5t-45 -17t-70.5 28t-65.5 28q-32 0 -62 -55l-27 13q12 27 20.5 43t28 32.5z" />
    <glyph glyph-name="hungarumlaut" unicode="&#x2dd;" horiz-adv-x="462" 
d="M86 506l-21 18l125 171l45 -42zM241 506l-22 18l126 171l45 -42z" />
    <glyph glyph-name="endash" unicode="&#x2013;" horiz-adv-x="586" 
d="M60 205v51h466v-51h-466z" />
    <glyph glyph-name="emdash" unicode="&#x2014;" horiz-adv-x="781" 
d="M60 205v51h661v-51h-661z" />
    <glyph glyph-name="quoteleft" unicode="&#x2018;" horiz-adv-x="192" 
d="M122.5 448.5q-12.5 -12.5 -33 -12.5t-32 14t-11.5 41.5t22.5 71t55.5 74.5l26 -20q-41 -48 -50 -100q16 -1 25.5 -12t9.5 -27.5t-12.5 -29z" />
    <glyph glyph-name="quoteright" unicode="&#x2019;" horiz-adv-x="189" 
d="M73.5 625.5q12.5 12.5 33 12.5t32 -14t11.5 -41.5t-22.5 -71.5t-55.5 -75l-26 21q41 48 50 99q-16 2 -25.5 13t-9.5 27.5t12.5 29z" />
    <glyph glyph-name="quotesinglbase" unicode="&#x201a;" horiz-adv-x="217" 
d="M76.5 67.5q12.5 12.5 33 12.5t32 -14t11.5 -42t-22.5 -71.5t-55.5 -74.5l-26 21q41 48 50 99q-16 1 -25.5 12.5t-9.5 28t12.5 29z" />
    <glyph glyph-name="quotedblleft" unicode="&#x201c;" horiz-adv-x="355" 
d="M285.5 448.5q-12.5 -12.5 -33 -12.5t-32 14t-11.5 41.5t22.5 71t55.5 74.5l26 -20q-41 -48 -50 -100q16 -1 25.5 -12t9.5 -27.5t-12.5 -29zM122.5 448.5q-12.5 -12.5 -33 -12.5t-32 14t-11.5 41.5t22.5 71t55.5 74.5l26 -20q-41 -48 -50 -100q16 -1 25.5 -12t9.5 -27.5
t-12.5 -29z" />
    <glyph glyph-name="quotedblright" unicode="&#x201d;" horiz-adv-x="352" 
d="M73.5 625.5q12.5 12.5 33 12.5t32 -14t11.5 -41.5t-22.5 -71.5t-55.5 -75l-26 21q41 48 50 99q-16 2 -25.5 13t-9.5 27.5t12.5 29zM237 625.5q12 12.5 32.5 12.5t32.5 -14t12 -41.5t-23 -71t-56 -75.5l-26 21q41 48 50 99q-34 5 -34 39q0 18 12 30.5z" />
    <glyph glyph-name="quotedblbase" unicode="&#x201e;" horiz-adv-x="380" 
d="M76.5 67.5q12.5 12.5 33 12.5t32 -14t11.5 -41.5t-22.5 -71.5t-55.5 -75l-26 21q41 48 50 99q-16 2 -25.5 13t-9.5 27.5t12.5 29zM240 67.5q12 12.5 32.5 12.5t32.5 -14t12 -41.5t-23 -71t-56 -75.5l-26 21q41 48 50 99q-34 5 -34 39q0 18 12 30.5z" />
    <glyph glyph-name="dagger" unicode="&#x2020;" horiz-adv-x="445" 
d="M238 -27q0 -30 -15.5 -30t-15.5 29v17q0 226 -25 307q27 45 27 69.5t-14.5 39t-35.5 14.5t-49.5 -8t-41.5 -8q-42 0 -42 28.5t42 28.5q13 0 41.5 -8t49.5 -8t35.5 15.5t14.5 36t-8 48.5t-8 45.5t9 28t20 10.5q29 0 29 -43q0 -13 -8 -41t-8 -48.5t15 -36t35.5 -15.5
t49.5 8t42 8q41 0 41 -28.5t-41 -28.5q-13 0 -42 8t-49.5 8t-35.5 -14.5t-15 -39t27 -69.5q-24 -78 -24 -307v-16z" />
    <glyph glyph-name="daggerdbl" unicode="&#x2021;" horiz-adv-x="478" 
d="M239 -57q-29 0 -29 43q0 13 8 41.5t8 48.5t-15 35.5t-35.5 15.5t-49 -8t-41.5 -8q-42 0 -42 28.5t42 28.5q13 0 41.5 -8t49 -8t35.5 14.5t15 44.5t-27 75q27 43 27 73.5t-15 45t-35.5 14.5t-49 -8t-41.5 -8q-42 0 -42 28.5t42 28.5q13 0 41.5 -8t49 -8t35.5 15.5t15 36
t-8 48.5t-8 41q0 43 29 43t29 -43q0 -13 -8 -41t-8 -48.5t15 -36t35.5 -15.5t49 8t41.5 8q42 0 42 -28.5t-42 -28.5q-13 0 -41.5 8t-49 8t-35.5 -14.5t-15 -45t27 -73.5q-27 -45 -27 -75t15 -44.5t35.5 -14.5t49 8t41.5 8q42 0 42 -28.5t-42 -28.5q-13 0 -41.5 8t-49 8
t-35.5 -15.5t-15 -35.5t8 -48.5t8 -41.5q0 -43 -29 -43z" />
    <glyph glyph-name="bullet" unicode="&#x2022;" horiz-adv-x="350" 
d="M175 191q-42 0 -71.5 29.5t-29.5 71.5t29.5 71.5t71.5 29.5t71.5 -29.5t29.5 -71.5t-29.5 -71.5t-71.5 -29.5z" />
    <glyph glyph-name="ellipsis" unicode="&#x2026;" horiz-adv-x="776" 
d="M100 -9q-18 0 -31 13t-13 31.5t13 31.5t31 13t31 -13t13 -31.5t-13 -31.5t-31 -13zM388 -9q-18 0 -31 13t-13 31.5t13 31.5t31 13t30.5 -13t12.5 -31.5t-12.5 -31.5t-30.5 -13zM675 -9q-18 0 -31 13t-13 31.5t13 31.5t31 13t31 -13t13 -31.5t-13 -31.5t-31 -13z" />
    <glyph glyph-name="perthousand" unicode="&#x2030;" horiz-adv-x="856" 
d="M532.5 33q-29.5 -34 -81 -34t-80.5 34t-29 89t29 89t80.5 34t81 -34t29.5 -89t-29.5 -89zM405 59.5q16 -23.5 46.5 -23.5t46.5 23.5t16 63t-15.5 62.5t-46.5 23t-47 -23t-16 -62.5t16 -63zM158 234q-52 0 -81 34t-29 89t29 89t81 34t81 -34t29 -89t-29 -89t-81 -34z
M158 271q31 0 47 23t16 63t-16 63t-47 23t-47 -23.5t-16 -62.5t16 -62.5t47 -23.5zM715 -1q-52 0 -81 34t-29 89t29 89t81 34t81 -34t29 -89t-29 -89t-81 -34zM715 36q31 0 47 23.5t16 62.5t-16 62.5t-47 23.5t-47 -23t-16 -62.5t16 -63t47 -23.5zM120 2l-31 27l400 448
l30 -27z" />
    <glyph glyph-name="guilsinglleft" unicode="&#x2039;" horiz-adv-x="293" 
d="M185 83l-148 175v4l148 176h66l-151 -178l151 -177h-66z" />
    <glyph glyph-name="guilsinglright" unicode="&#x203a;" horiz-adv-x="293" 
d="M42 83l150 177l-150 178h66l147 -176v-4l-147 -175h-66z" />
    <glyph glyph-name="fraction" unicode="&#x2044;" horiz-adv-x="380" 
d="M32 -8l-37 20l354 605l36 -19z" />
    <glyph glyph-name="Euro" unicode="&#x20ac;" horiz-adv-x="562" 
d="M500 37q-73 -44 -163.5 -44t-151.5 52.5t-77 137.5h-75l10 27h61q-2 16 -2 33t3 36h-72l10 27h66q18 82 79 132.5t150.5 50.5t159.5 -34v-101h-50v71q-50 18 -111.5 18t-108.5 -37t-63 -100h197l-9 -27h-192q-3 -19 -3 -38.5t2 -30.5h172l-9 -27h-158q16 -65 62 -104
t122 -39t151 47v-50z" />
    <glyph glyph-name="numero" unicode="&#x2116;" horiz-adv-x="1041" 
d="M949 202.5q-44 -44.5 -113.5 -44.5t-114 44.5t-44.5 121t44.5 121t114 44.5t113.5 -44.5t44 -121t-44 -121zM759.5 237q29.5 -32 76 -32t76 32t29.5 86.5t-30 87t-76 32.5t-75.5 -32.5t-29.5 -87t29.5 -86.5zM682 42v46h307v-46h-307zM38 0v49h96v511h-96v49h153
l322 -510v461h-96v49h245v-49h-96v-560h-50l-329 520v-471h96v-49h-245z" />
    <glyph glyph-name="trademark" unicode="&#x2122;" horiz-adv-x="710" 
d="M322 364v24h36l9 197h-35v24h73l80 -183l82 183h73v-25h-36l10 -196h35v-24h-103v24h38l-7 177l-82 -176h-20l-82 177l-7 -178h38v-24h-102zM120 364v24h41v196h-65v-49h-28v74h218v-74h-28v49h-65v-196h41v-24h-114z" />
    <glyph glyph-name="minus" unicode="&#x2212;" horiz-adv-x="530" 
d="M63 211v47h404v-47h-404z" />
    <glyph glyph-name="approxequal" unicode="&#x2248;" horiz-adv-x="587" 
d="M59 294q55 132 132 132q43 0 81 -24t72 -48t63.5 -24t50.5 25.5t40 67.5l33 -16q-50 -130 -126 -130q-33 0 -70 24.5t-73 48.5t-68.5 24t-56.5 -26t-45 -70zM59 102q54 133 132 133q43 0 81 -24t72 -48t63.5 -24t51 25.5t39.5 67.5l33 -17q-49 -129 -126 -129
q-33 0 -70 24t-73 48.5t-66 24.5q-58 0 -104 -97z" />
    <glyph glyph-name="notequal" unicode="&#x2260;" horiz-adv-x="579" 
d="M87 94v48h139l85 183h-224v48h248l79 169l31 -15l-72 -154h118v-48h-140l-85 -183h225v-48h-248l-79 -168l-31 15l71 153h-117z" />
    <glyph glyph-name="lessequal" unicode="&#x2264;" horiz-adv-x="490" 
d="M59 37v41h367v-41h-367zM426 123l-367 145v32l367 146v-49l-296 -113l296 -114v-47z" />
    <glyph glyph-name="greaterequal" unicode="&#x2265;" horiz-adv-x="490" 
d="M63 37v41h368v-41h-368zM63 123v47l297 114l-297 113v49l368 -146v-32z" />
    <glyph glyph-name="OE.smcp" unicode="&#xe04a;" horiz-adv-x="734" 
d="M299 0q-118 0 -187 66.5t-69 177t68.5 177t187.5 66.5h384v-133h-53v87h-208v-173h211v-45h-211v-177h209v88h53v-134h-385zM299 47h67v393h-67q-91 0 -144 -52.5t-53 -144t53 -144t144 -52.5z" />
    <glyph glyph-name="dotaccent.cap" unicode="&#xefed;" horiz-adv-x="239" 
d="M118 671q-19 0 -32 13t-13 32t13 32t32 13t32 -13t13 -32t-13 -32t-32 -13z" />
    <glyph glyph-name="breve.cap" unicode="&#xefee;" horiz-adv-x="386" 
d="M289 701.5q-39 -35.5 -97.5 -35.5t-97 35.5t-43.5 101.5h47q8 -87 94 -87q39 0 64 21.5t29 65.5h48q-5 -66 -44 -101.5z" />
    <glyph glyph-name="ogonek.cap" unicode="&#xeff1;" horiz-adv-x="297" 
d="M239 -182q-36 -18 -79 -18t-69.5 19.5t-26.5 59.5q0 81 120 147l23 -17q-33 -21 -60.5 -53.5t-27.5 -67.5q0 -47 54 -47q31 0 63 15z" />
    <glyph glyph-name="cedilla.cap" unicode="&#xeff2;" horiz-adv-x="304" 
d="M194.5 -173.5q-35.5 -19.5 -76.5 -19.5t-64 5l9 37q36 -3 41 -3q74 0 74 41.5t-83 41.5v19l38 77l33 -11l-22 -54q35 -3 60.5 -20.5t25.5 -55.5t-35.5 -57.5z" />
    <glyph glyph-name="ring.cap" unicode="&#xeff3;" horiz-adv-x="352" 
d="M174 663q-49 0 -78 29.5t-29 72.5t29 72.5t78 29.5t78.5 -29.5t29.5 -72.5t-29.5 -72.5t-78.5 -29.5zM174 699q29 0 45 19.5t16 46.5t-16 46.5t-45 19.5t-45 -19.5t-16 -46.5t16 -46.5t45 -19.5z" />
    <glyph glyph-name="tilde.cap" unicode="&#xeff5;" horiz-adv-x="466" 
d="M121 777q15 8 39 8t72 -28t70 -28q38 0 67 60l26 -14q-32 -75 -61 -91q-16 -8 -39.5 -8t-72 28t-68.5 28q-36 0 -67 -59l-25 13q30 76 59 91z" />
    <glyph glyph-name="circumflex.cap" unicode="&#xeff7;" horiz-adv-x="434" 
d="M74 671l-17 21l141 134h37l141 -134l-17 -21l-142 94z" />
    <glyph glyph-name="at.cap" unicode="&#xf633;" horiz-adv-x="742" 
d="M341 123q-64 0 -99.5 43t-35.5 116.5t52 133.5t134 60t109 -76h2q3 23 18 60h41q-43 -146 -43 -225.5t51 -79.5q45 0 75.5 46t30.5 124q0 128 -81.5 209t-209 81t-219 -93t-91.5 -221.5t89.5 -219t217.5 -90.5q92 0 167 52l19 -27q-87 -57 -187 -57q-144 0 -241 100
t-97 245.5t103.5 244t242 98.5t229 -90t90.5 -232q0 -95 -41 -148.5t-104 -53.5q-33 0 -53.5 16t-25 30t-6.5 29h-3q-51 -75 -134 -75zM280.5 193.5q25.5 -30.5 76 -30.5t87.5 48.5t37 117.5q0 107 -88 107q-58 0 -98 -47.5t-40 -106t25.5 -89z" />
    <glyph glyph-name="Abreve.smcp" unicode="&#xf66d;" horiz-adv-x="581" 
d="M5 0v46h70l165 395h-73v46h159l183 -441h71v-46h-212v46h83l-48 115h-225l-47 -115h82v-46h-208zM196 207h190l-94 229zM367.5 576.5q-34.5 -31.5 -88 -31.5t-88.5 31.5t-38 87.5h44q7 -72 82.5 -72t82.5 72h44q-4 -56 -38.5 -87.5z" />
    <glyph glyph-name="Amacron.smcp" unicode="&#xf66e;" horiz-adv-x="581" 
d="M5 0v46h70l165 395h-73v46h159l183 -441h71v-46h-212v46h83l-48 115h-225l-47 -115h82v-46h-208zM196 207h190l-94 229zM161 560v45h230v-45h-230z" />
    <glyph glyph-name="Aogonek.smcp" unicode="&#xf66f;" horiz-adv-x="581" 
d="M573 -162q-36 -15 -73.5 -15t-61.5 17t-24 51q0 60 74 109h-120v46h83l-48 115h-225l-47 -115h82v-46h-208v46h70l165 395h-73v46h159l183 -441h71v-46h-45q-68 -45 -68 -98q0 -41 47 -41q27 0 55 13zM196 207h190l-94 229z" />
    <glyph glyph-name="AEacute.smcp" unicode="&#xf670;" horiz-adv-x="788" 
d="M5 0v47h65l278 394h-63v46h452v-133h-53v87h-208v-173h211v-45h-211v-177h209v88h53v-134h-394v46h76v114h-207l-80 -114h70v-46h-198zM420 205v236h-12l-166 -236h178zM448 544l-19 23l144 135l40 -48z" />
    <glyph glyph-name="Cacute.smcp" unicode="&#xf671;" horiz-adv-x="526" 
d="M488 34q-75 -44 -186 -44t-185.5 67t-74.5 183.5t73 186.5t196 70q88 0 175 -37v-119h-55v89q-53 20 -117 20q-96 0 -154.5 -54t-58.5 -152.5t60 -152t151 -53.5t176 47v-51zM243 548l-19 23l145 136l39 -49z" />
    <glyph glyph-name="Ccaron.smcp" unicode="&#xf672;" horiz-adv-x="526" 
d="M488 34q-75 -44 -186 -44t-185.5 67t-74.5 183.5t73 186.5t196 70q88 0 175 -37v-119h-55v89q-53 20 -117 20q-96 0 -154.5 -54t-58.5 -152.5t60 -152t151 -53.5t176 47v-51zM283 553l-125 118l16 18l127 -79l128 79l16 -18l-125 -118h-37z" />
    <glyph glyph-name="Ccircumflex.smcp" unicode="&#xf673;" horiz-adv-x="526" 
d="M488 34q-75 -44 -186 -44t-185.5 67t-74.5 183.5t73 186.5t196 70q88 0 175 -37v-119h-55v89q-53 20 -117 20q-96 0 -154.5 -54t-58.5 -152.5t60 -152t151 -53.5t176 47v-51zM172 548l-16 19l124 117h38l125 -117l-16 -19l-128 79z" />
    <glyph glyph-name="Cdotaccent.smcp" unicode="&#xf674;" horiz-adv-x="526" 
d="M488 34q-75 -44 -186 -44t-185.5 67t-74.5 183.5t73 186.5t196 70q88 0 175 -37v-119h-55v89q-53 20 -117 20q-96 0 -154.5 -54t-58.5 -152.5t60 -152t151 -53.5t176 47v-51zM330.5 565.5q-12.5 -12.5 -30 -12.5t-29.5 12.5t-12 30t12 29.5t29.5 12t30 -12t12.5 -29.5
t-12.5 -30z" />
    <glyph glyph-name="Dcaron.smcp" unicode="&#xf675;" horiz-adv-x="576" 
d="M39 0v46h78v395h-78v46h224q120 0 194.5 -64t74.5 -180t-74.5 -179.5t-194.5 -63.5h-224zM175 46h90q95 0 151.5 52.5t56.5 145t-56 145t-152 52.5h-90v-395zM262 548l-124 118l15 18l128 -79l127 79l16 -18l-124 -118h-38z" />
    <glyph glyph-name="Dcroat.smcp" unicode="&#xf676;" horiz-adv-x="577" 
d="M46 224v43h72v174h-78v46h224q119 0 194 -64t75 -180t-75 -179.5t-194 -63.5h-224v46h78v178h-72zM175 46h91q95 0 151.5 52.5t56.5 145t-56 145t-152 52.5h-91v-174h139v-43h-139v-178z" />
    <glyph glyph-name="Ebreve.smcp" unicode="&#xf677;" 
d="M39 0v46h78v395h-78v46h406v-133h-53v87h-217v-173h221v-45h-221v-177h219v88h53v-134h-408zM350.5 576.5q-34.5 -31.5 -88 -31.5t-88 31.5t-38.5 87.5h44q7 -72 82.5 -72t82.5 72h44q-4 -56 -38.5 -87.5z" />
    <glyph glyph-name="Ecaron.smcp" unicode="&#xf678;" 
d="M39 0v46h78v395h-78v46h406v-133h-53v87h-217v-173h221v-45h-221v-177h219v88h53v-134h-408zM246 548l-124 118l15 18l128 -79l127 79l16 -18l-125 -118h-37z" />
    <glyph glyph-name="Edotaccent.smcp" unicode="&#xf679;" 
d="M39 0v46h78v395h-78v46h406v-133h-53v87h-217v-173h221v-45h-221v-177h219v88h53v-134h-408zM293 561.5q-12 -12.5 -29.5 -12.5t-30 12.5t-12.5 29.5t12.5 29.5t30 12.5t29.5 -12.5t12 -29.5t-12 -29.5z" />
    <glyph glyph-name="Emacron.smcp" unicode="&#xf67a;" 
d="M39 0v46h78v395h-78v46h406v-133h-53v87h-217v-173h221v-45h-221v-177h219v88h53v-134h-408zM146 560v45h230v-45h-230z" />
    <glyph glyph-name="Eng.smcp" unicode="&#xf67b;" horiz-adv-x="635" 
d="M470 7v10l-299 390v-361h81v-46h-214v46h80v395h-80v46h137l298 -391v345h-82v46h214v-46h-79v-436q0 -61 -42 -95q-33 -28 -77 -46l-20 39q83 40 83 104z" />
    <glyph glyph-name="Eogonek.smcp" unicode="&#xf67c;" 
d="M39 0v46h78v395h-78v46h406v-133h-53v87h-217v-173h221v-45h-221v-177h219v88h53v-134h-23q-69 -46 -69 -98q0 -41 47 -41q28 0 56 13l3 -36q-36 -15 -73.5 -15t-61.5 17t-24 51q0 60 75 109h-338z" />
    <glyph glyph-name="Gbreve.smcp" unicode="&#xf67d;" horiz-adv-x="587" 
d="M314 -10q-130 0 -201 69t-71 184t74 184.5t202 69.5q96 0 184 -36v-112h-54v80q-64 20 -128 20q-101 0 -160.5 -55t-59.5 -147.5t54.5 -151t159.5 -58.5q64 0 143 29v142h-126v45h228v-45h-48v-173q-109 -45 -197 -45zM398.5 580.5q-34.5 -31.5 -88 -31.5t-88.5 31.5
t-38 88.5h44q7 -73 82.5 -73t82.5 73h44q-4 -57 -38.5 -88.5z" />
    <glyph glyph-name="Gcircumflex.smcp" unicode="&#xf67e;" horiz-adv-x="587" 
d="M314 -10q-130 0 -201 69t-71 184t74 184.5t202 69.5q96 0 184 -36v-112h-54v80q-64 20 -128 20q-101 0 -160.5 -55t-59.5 -147.5t54.5 -151t159.5 -58.5q64 0 143 29v142h-126v45h228v-45h-48v-173q-109 -45 -197 -45zM180 549l-16 18l125 118h37l125 -118l-16 -18
l-127 79z" />
    <glyph glyph-name="Gcommaaccent.smcp" unicode="&#xf67f;" horiz-adv-x="587" 
d="M271 -88q18 14 37 14t32 -14.5t13 -41.5t-18 -61.5t-47 -60.5l-27 20q41 50 41 89.5t-31 46.5v8zM314 -10q-130 0 -201 69t-71 184t74 184.5t202 69.5q96 0 184 -36v-112h-54v80q-64 20 -128 20q-101 0 -160.5 -55t-59.5 -147.5t54.5 -151t159.5 -58.5q64 0 143 29v142
h-126v45h228v-45h-48v-173q-109 -45 -197 -45z" />
    <glyph glyph-name="Gdotaccent.smcp" unicode="&#xf680;" horiz-adv-x="587" 
d="M314 -10q-130 0 -201 69t-71 184t74 184.5t202 69.5q96 0 184 -36v-112h-54v80q-64 20 -128 20q-101 0 -160.5 -55t-59.5 -147.5t54.5 -151t159.5 -58.5q64 0 143 29v142h-126v45h228v-45h-48v-173q-109 -45 -197 -45zM342 565.5q-12 -12.5 -29.5 -12.5t-30 12.5
t-12.5 30t12.5 29.5t30 12t29.5 -12t12 -29.5t-12 -30z" />
    <glyph glyph-name="Hbar.smcp" unicode="&#xf681;" horiz-adv-x="641" 
d="M47 342v31h70v68h-78v46h213v-46h-78v-68h293v68h-79v46h214v-46h-78v-68h70v-31h-70v-296h78v-46h-214v46h79v177h-293v-177h78v-46h-213v46h78v296h-70zM174 270h293v73h-293v-73z" />
    <glyph glyph-name="Hcircumflex.smcp" unicode="&#xf682;" horiz-adv-x="641" 
d="M39 0v46h78v395h-78v46h214v-46h-78v-171h292v171h-78v46h214v-46h-79v-395h79v-46h-214v46h78v177h-292v-177h78v-46h-214zM193 544l-16 18l125 118h37l125 -118l-16 -18l-127 79z" />
    <glyph glyph-name="Ibreve.smcp" unicode="&#xf683;" horiz-adv-x="292" 
d="M39 0v46h78v395h-78v46h214v-46h-78v-395h78v-46h-214zM233.5 576.5q-34.5 -31.5 -88 -31.5t-88.5 31.5t-38 87.5h44q7 -72 82.5 -72t82.5 72h44q-4 -56 -38.5 -87.5z" />
    <glyph glyph-name="Imacron.smcp" unicode="&#xf685;" horiz-adv-x="292" 
d="M39 0v46h78v395h-78v46h214v-46h-78v-395h78v-46h-214zM31 560v45h230v-45h-230z" />
    <glyph glyph-name="Iogonek.smcp" unicode="&#xf686;" horiz-adv-x="292" 
d="M39 0v46h78v395h-78v46h214v-46h-78v-395h78v-46h-60q-69 -46 -69 -98q0 -41 47 -41q28 0 56 13l3 -36q-36 -15 -73.5 -15t-61.5 17t-24 51q0 60 75 109h-107z" />
    <glyph glyph-name="Itilde.smcp" unicode="&#xf687;" horiz-adv-x="292" 
d="M39 0v46h78v395h-78v46h214v-46h-78v-395h78v-46h-214zM48 640q14 7 35.5 7t64 -24t62.5 -24q33 0 59 51l24 -13q-10 -24 -18.5 -39.5t-27 -31.5t-42.5 -16t-66.5 23.5t-60.5 23.5q-34 0 -59 -50l-24 12q27 66 53 81z" />
    <glyph glyph-name="Jcircumflex.smcp" unicode="&#xf688;" horiz-adv-x="272" 
d="M107 7v434h-78v46h214v-46h-78v-439q0 -60 -43 -93q-34 -27 -77 -45l-20 39q82 40 82 104zM8 544l-16 18l124 118h38l124 -118l-15 -18l-128 79z" />
    <glyph glyph-name="Kcommaaccent.smcp" unicode="&#xf689;" horiz-adv-x="571" 
d="M285 -83q20 14 38.5 14t31.5 -14.5t13 -41.5t-18 -61.5t-48 -60.5l-26 20q41 52 41 90.5t-32 45.5v8zM335 442v45h209v-46h-67l-196 -192l189 -203h81v-46h-115l-222 243v4l199 195h-78zM39 0v46h78v395h-78v46h214v-46h-78v-395h78v-46h-214z" />
    <glyph glyph-name="Lacute.smcp" unicode="&#xf68a;" horiz-adv-x="471" 
d="M39 0v46h78v395h-78v46h222v-46h-86v-395h219v93h53v-139h-408zM115 544l-19 23l144 135l40 -48z" />
    <glyph glyph-name="Lcaron.smcp" unicode="&#xf68b;" horiz-adv-x="474" 
d="M316 478q18 14 37.5 14t32.5 -14t13 -41.5t-18 -61.5t-47 -60l-27 20q41 49 41 88.5t-32 46.5v8zM39 0v46h78v395h-78v46h222v-46h-86v-395h219v93h53v-139h-408z" />
    <glyph glyph-name="Lcommaaccent.smcp" unicode="&#xf68c;" horiz-adv-x="471" 
d="M232 -83q20 14 38.5 14t31.5 -14.5t13 -41.5t-18 -61.5t-48 -60.5l-26 20q41 52 41 90.5t-32 45.5v8zM39 0v46h78v395h-78v46h222v-46h-86v-395h219v93h53v-139h-408z" />
    <glyph glyph-name="Ldot.smcp" unicode="&#xf68d;" horiz-adv-x="472" 
d="M39 0v46h78v395h-78v46h222v-46h-86v-395h219v93h53v-139h-408zM394.5 245.5q-12.5 -12.5 -30 -12.5t-29.5 12.5t-12 30t12 29.5t29.5 12t30 -12t12.5 -29.5t-12.5 -30z" />
    <glyph glyph-name="Nacute.smcp" unicode="&#xf68e;" horiz-adv-x="635" 
d="M38 0v46h80v395h-80v46h137l298 -401v355h-82v46h214v-46h-79v-441h-50l-305 407v-361h81v-46h-214zM275 544l-19 23l145 135l39 -48z" />
    <glyph glyph-name="Ncaron.smcp" unicode="&#xf68f;" horiz-adv-x="635" 
d="M38 0v46h80v395h-80v46h137l298 -401v355h-82v46h214v-46h-79v-441h-50l-305 407v-361h81v-46h-214zM301 548l-124 118l16 18l127 -79l128 79l16 -18l-125 -118h-38z" />
    <glyph glyph-name="Ncommaaccent.smcp" unicode="&#xf690;" horiz-adv-x="635" 
d="M295 -83q20 14 38.5 14t31.5 -14.5t13 -41.5t-18 -61.5t-48 -60.5l-26 20q41 52 41 90.5t-32 45.5v8zM38 0v46h80v395h-80v46h137l298 -401v355h-82v46h214v-46h-79v-441h-50l-305 407v-361h81v-46h-214z" />
    <glyph glyph-name="Obreve.smcp" unicode="&#xf691;" horiz-adv-x="601" 
d="M300 -10q-117 0 -187.5 71.5t-70.5 182.5t70.5 182t187.5 71t188 -71t71 -182t-71 -182.5t-188 -71.5zM300 38q89 0 144.5 56.5t55.5 149.5t-55 149t-145 56t-145 -56t-55 -149t55.5 -149.5t144.5 -56.5zM387.5 580.5q-34.5 -31.5 -88 -31.5t-88 31.5t-38.5 88.5h44
q7 -73 82.5 -73t82.5 73h44q-4 -57 -38.5 -88.5z" />
    <glyph glyph-name="Ohungarumlaut.smcp" unicode="&#xf692;" horiz-adv-x="601" 
d="M300 -10q-117 0 -187.5 71.5t-70.5 182.5t70.5 182t187.5 71t188 -71t71 -182t-71 -182.5t-188 -71.5zM300 38q89 0 144.5 56.5t55.5 149.5t-55 149t-145 56t-145 -56t-55 -149t55.5 -149.5t144.5 -56.5zM202 548l-19 16l111 149l42 -39zM342 548l-19 16l111 149l41 -39z
" />
    <glyph glyph-name="Omacron.smcp" unicode="&#xf693;" horiz-adv-x="601" 
d="M300 -10q-117 0 -187.5 71.5t-70.5 182.5t70.5 182t187.5 71t188 -71t71 -182t-71 -182.5t-188 -71.5zM300 38q89 0 144.5 56.5t55.5 149.5t-55 149t-145 56t-145 -56t-55 -149t55.5 -149.5t144.5 -56.5zM186 564v45h230v-45h-230z" />
    <glyph glyph-name="Oslashacute.smcp" unicode="&#xf694;" horiz-adv-x="599" 
d="M299 -10q-95 0 -161 49l-43 -48l-23 20l42 47q-73 71 -73 184t70.5 184t187.5 71q96 0 162 -49l43 48l23 -19l-43 -49q74 -71 74 -183t-71 -183.5t-188 -71.5zM426 408q-50 41 -133.5 41t-138.5 -56t-55 -147t51 -148zM173 78q51 -40 133 -40t137.5 56.5t55.5 148
t-51 145.5zM246 548l-19 23l144 136l40 -49z" />
    <glyph glyph-name="Racute.smcp" unicode="&#xf695;" horiz-adv-x="541" 
d="M39 0v46h78v395h-78v46h233q81 0 139 -37t58 -110q0 -51 -31 -86t-88 -49l91 -159h78v-46h-116l-107 192q-10 -1 -28 -1h-93v-145h78v-46h-214zM175 236h97q70 0 105 27.5t35 75.5t-35 75t-105 27h-97v-205zM211 544l-19 23l144 135l40 -48z" />
    <glyph glyph-name="Rcaron.smcp" unicode="&#xf696;" horiz-adv-x="541" 
d="M39 0v46h78v395h-78v46h233q81 0 139 -37t58 -110q0 -51 -31 -86t-88 -49l91 -159h78v-46h-116l-107 192q-10 -1 -28 -1h-93v-145h78v-46h-214zM175 236h97q70 0 105 27.5t35 75.5t-35 75t-105 27h-97v-205zM246 548l-125 118l16 18l128 -79l127 79l16 -18l-125 -118h-37
z" />
    <glyph glyph-name="Rcommaaccent.smcp" unicode="&#xf697;" horiz-adv-x="541" 
d="M265 -83q18 14 37.5 14t32 -14.5t12.5 -42t-17.5 -61.5t-47.5 -60l-27 20q41 50 41 89.5t-31 46.5v8zM39 0v46h78v395h-78v46h233q81 0 139 -37t58 -110q0 -51 -31 -86t-88 -49l91 -159h78v-46h-116l-107 192q-10 -1 -28 -1h-93v-145h78v-46h-214zM175 236h97
q70 0 105 27.5t35 75.5t-35 75t-105 27h-97v-205z" />
    <glyph glyph-name="Sacute.smcp" unicode="&#xf698;" horiz-adv-x="440" 
d="M348.5 22.5q-48.5 -32.5 -132 -32.5t-169.5 25v112h52v-76q58 -15 115.5 -15t92 21t34.5 59.5t-29.5 61.5t-71 36.5t-83 28.5t-71 46.5t-29.5 85.5t44.5 88t124.5 34t153 -23v-110h-53v75q-52 12 -103 12t-81 -22t-30 -57t29.5 -57t71 -36t83.5 -30t71.5 -48t29.5 -81
q0 -65 -48.5 -97.5zM174 549l-19 23l145 135l39 -48z" />
    <glyph glyph-name="Scedilla.smcp" unicode="&#xf699;" horiz-adv-x="440" 
d="M266.5 -160.5q-32.5 -17.5 -68.5 -17.5t-60 4l9 35q30 -3 38 -3q63 0 63 35q0 37 -73 37v16l23 44q-78 3 -151 25v112h52v-76q58 -15 115.5 -15t92 21t34.5 59.5t-29.5 61.5t-71 36.5t-83 28.5t-71 46.5t-29.5 85.5t44.5 88t124.5 34t153 -23v-110h-53v75q-52 12 -103 12
t-81 -22t-30 -57t29.5 -57t71 -36t83.5 -30t71.5 -48t29.5 -87t-42.5 -87t-118.5 -36l-14 -32q31 -3 54 -19.5t23 -49.5t-32.5 -50.5z" />
    <glyph glyph-name="Scircumflex.smcp" unicode="&#xf69a;" horiz-adv-x="440" 
d="M348.5 22.5q-48.5 -32.5 -132 -32.5t-169.5 25v112h52v-76q58 -15 115.5 -15t92 21t34.5 59.5t-29.5 61.5t-71 36.5t-83 28.5t-71 46.5t-29.5 85.5t44.5 88t124.5 34t153 -23v-110h-53v75q-52 12 -103 12t-81 -22t-30 -57t29.5 -57t71 -36t83.5 -30t71.5 -48t29.5 -81
q0 -65 -48.5 -97.5zM101 548l-16 19l125 117h37l125 -117l-16 -19l-127 79z" />
    <glyph glyph-name="Scommaaccent.smcp" unicode="&#xf69b;" horiz-adv-x="440" 
d="M229 -74q19 0 32 -14.5t13 -41.5t-18 -61.5t-47 -60.5l-27 20q41 50 41 89.5t-31 46.5v8q18 14 37 14zM348.5 22.5q-48.5 -32.5 -132 -32.5t-169.5 25v112h52v-76q58 -15 115.5 -15t92 21t34.5 59.5t-29.5 61.5t-71 36.5t-83 28.5t-71 46.5t-29.5 85.5t44.5 88t124.5 34
t153 -23v-110h-53v75q-52 12 -103 12t-81 -22t-30 -57t29.5 -57t71 -36t83.5 -30t71.5 -48t29.5 -81q0 -65 -48.5 -97.5z" />
    <glyph glyph-name="Tbar.smcp" unicode="&#xf69c;" horiz-adv-x="501" 
d="M102 217v39h120v185h-142v-87h-53v133h447v-133h-53v87h-142v-185h120v-39h-120v-171h86v-46h-228v46h85v171h-120z" />
    <glyph glyph-name="Tcaron.smcp" unicode="&#xf69d;" horiz-adv-x="499" 
d="M136 0v46h85v395h-142v-87h-53v133h447v-133h-53v87h-142v-395h86v-46h-228zM230 548l-124 118l16 18l127 -79l128 79l16 -18l-125 -118h-38z" />
    <glyph glyph-name="Tcommaaccent.smcp" unicode="&#xf69e;" horiz-adv-x="499" 
d="M212 -83q20 14 38.5 14t31 -14.5t12.5 -42t-17.5 -61.5t-47.5 -60l-26 20q40 51 40 90t-31 46v8zM136 0v46h85v395h-142v-87h-53v133h447v-133h-53v87h-142v-395h86v-46h-228z" />
    <glyph glyph-name="Ubreve.smcp" unicode="&#xf69f;" horiz-adv-x="595" 
d="M440 35q-52 -45 -140 -45t-142.5 43.5t-54.5 126.5v281h-78v46h214v-46h-78v-279q0 -64 38.5 -94t100 -30t99.5 30.5t38 93.5v279h-79v46h212v-46h-78v-278q0 -83 -52 -128zM299 545q-54 0 -88.5 31.5t-37.5 87.5h43q8 -72 83.5 -72t82.5 72h44q-4 -56 -38.5 -87.5
t-88.5 -31.5z" />
    <glyph glyph-name="Uhungarumlaut.smcp" unicode="&#xf6a0;" horiz-adv-x="595" 
d="M440 35q-52 -45 -140 -45t-142.5 43.5t-54.5 126.5v281h-78v46h214v-46h-78v-279q0 -64 38.5 -94t100 -30t99.5 30.5t38 93.5v279h-79v46h212v-46h-78v-278q0 -83 -52 -128zM209 543l-19 17l111 149l41 -40zM349 543l-19 17l111 149l41 -40z" />
    <glyph glyph-name="Umacron.smcp" unicode="&#xf6a1;" horiz-adv-x="595" 
d="M440 35q-52 -45 -140 -45t-142.5 43.5t-54.5 126.5v281h-78v46h214v-46h-78v-279q0 -64 38.5 -94t100 -30t99.5 30.5t38 93.5v279h-79v46h212v-46h-78v-278q0 -83 -52 -128zM182 560v45h230v-45h-230z" />
    <glyph glyph-name="Uogonek.smcp" unicode="&#xf6a2;" horiz-adv-x="595" 
d="M432 -162q-39 -15 -75.5 -15t-60.5 17t-24 51q0 54 62 101q-24 -2 -36 -2q-86 0 -140.5 43.5t-54.5 126.5v281h-78v46h214v-46h-78v-279q0 -64 38.5 -94t100 -30t99.5 30.5t38 93.5v279h-79v46h212v-46h-78v-278q0 -58 -23 -91.5t-62 -58.5q-82 -56 -82 -109
q0 -43 48 -43q27 0 55 13z" />
    <glyph glyph-name="Uring.smcp" unicode="&#xf6a3;" horiz-adv-x="595" 
d="M440 35q-52 -45 -140 -45t-142.5 43.5t-54.5 126.5v281h-78v46h214v-46h-78v-279q0 -64 38.5 -94t100 -30t99.5 30.5t38 93.5v279h-79v46h212v-46h-78v-278q0 -83 -52 -128zM301 540q-45 0 -70.5 25.5t-25.5 64t25.5 64t70.5 25.5t70 -25.5t25 -64t-25 -64t-70 -25.5z
M301 575q25 0 38.5 15.5t13.5 39t-13.5 39t-38.5 15.5t-39 -15t-14 -39t14 -39.5t39 -15.5z" />
    <glyph glyph-name="Utilde.smcp" unicode="&#xf6a4;" horiz-adv-x="595" 
d="M440 35q-52 -45 -140 -45t-142.5 43.5t-54.5 126.5v281h-78v46h214v-46h-78v-279q0 -64 38.5 -94t100 -30t99.5 30.5t38 93.5v279h-79v46h212v-46h-78v-278q0 -83 -52 -128zM192 630.5q18 16.5 42 16.5t67 -24t62 -24q34 0 60 51l24 -13q-36 -87 -88 -87
q-25 0 -67.5 23.5t-60.5 23.5q-33 0 -58 -50l-25 12q12 28 19 41.5t25 30z" />
    <glyph glyph-name="Wcircumflex.smcp" unicode="&#xf6a6;" horiz-adv-x="796" 
d="M4 441v46h210v-44h-83l123 -372l120 327l-18 45h-71v44h211v-44h-84l134 -371l122 370h-83v45h208v-46h-70l-152 -441h-53l-119 326l-121 -326h-53l-151 441h-70zM264 544l-16 18l124 118h38l124 -118l-15 -18l-128 79z" />
    <glyph glyph-name="Ycircumflex.smcp" unicode="&#xf6a9;" horiz-adv-x="540" 
d="M159 0v46h82v135l-167 260h-71v46h213v-45h-81l136 -211l136 212h-80v44h210v-46h-72l-167 -260v-135h82v-46h-221zM143 544l-16 18l125 118h37l125 -118l-16 -18l-128 79z" />
    <glyph glyph-name="Zacute.smcp" unicode="&#xf6ab;" horiz-adv-x="482" 
d="M42 0v46l316 394h-256v-90h-55v137h380v-47l-316 -394h277v96h53v-142h-399zM190 544l-19 23l144 135l40 -48z" />
    <glyph glyph-name="Zdotaccent.smcp" unicode="&#xf6ac;" horiz-adv-x="482" 
d="M42 0v46l316 394h-256v-90h-55v137h380v-47l-316 -394h277v96h53v-142h-399zM273.5 561.5q-12.5 -12.5 -30 -12.5t-29.5 12.5t-12 29.5t12 29.5t29.5 12.5t30 -12.5t12.5 -29.5t-12.5 -29.5z" />
    <glyph glyph-name="Idotaccent.smcp" unicode="&#xf6ad;" horiz-adv-x="292" 
d="M39 0v46h78v395h-78v46h214v-46h-78v-395h78v-46h-214zM175 561.5q-12 -12.5 -29.5 -12.5t-29.5 12.5t-12 29.5t12 29.5t29.5 12.5t29.5 -12.5t12 -29.5t-12 -29.5z" />
    <glyph glyph-name="parenleft.cap" unicode="&#xf6ae;" horiz-adv-x="248" 
d="M74.5 69.5q-36.5 120.5 -36.5 234t37 235t104 218.5h61q-69 -96 -107 -215.5t-38 -237.5t38 -237.5t107 -214.5h-61q-68 97 -104.5 217.5z" />
    <glyph glyph-name="parenright.cap" unicode="&#xf6af;" horiz-adv-x="248" 
d="M153 304q0 118 -38 237.5t-107 215.5h62q67 -98 103.5 -219t36.5 -234.5t-36.5 -234t-103.5 -217.5h-62q69 95 107 214.5t38 237.5z" />
    <glyph glyph-name="bracketleft.cap" unicode="&#xf6b0;" horiz-adv-x="283" 
d="M82 -148v905h184v-42h-131v-822h131v-41h-184z" />
    <glyph glyph-name="bracketright.cap" unicode="&#xf6b1;" horiz-adv-x="283" 
d="M18 -148v41h130v822h-130v42h184v-905h-184z" />
    <glyph glyph-name="braceleft.cap" unicode="&#xf6b2;" horiz-adv-x="279" 
d="M198 -161q-48 0 -72 26t-24 61t15 111.5t15 115.5q0 121 -124 127v49q124 6 124 127q0 39 -15 115.5t-15 111.5t24 61t72 26q25 0 55 -10v-37q-27 8 -44 8q-54 0 -54 -59q0 -23 15 -102t15 -121q0 -125 -112 -144q112 -20 112 -145q0 -42 -15 -121t-15 -101q0 -60 54 -60
q17 0 44 8v-37q-30 -10 -55 -10z" />
    <glyph glyph-name="braceright.cap" unicode="&#xf6b3;" horiz-adv-x="279" 
d="M81 -161q-25 0 -55 10v37q27 -8 44 -8q54 0 54 60q0 22 -15 101t-15 121q0 125 112 145q-112 19 -112 144q0 42 15 121t15 102q0 59 -54 59q-17 0 -44 -8v37q30 10 55 10q47 0 71.5 -26t24.5 -61t-15 -111.5t-15 -115.5q0 -121 124 -127v-49q-124 -6 -124 -127
q0 -39 15 -115.5t15 -111.5t-24.5 -61t-71.5 -26z" />
    <glyph glyph-name="exclamdown.cap" unicode="&#xf6b4;" horiz-adv-x="234" 
d="M138 451l12 -451h-66l12 451h42zM117 618q18 0 31 -13t13 -31.5t-13 -31.5t-31 -13t-31 13t-13 31.5t13 31.5t31 13z" />
    <glyph glyph-name="questiondown.cap" unicode="&#xf6b5;" horiz-adv-x="366" 
d="M334 11q-62 -22 -131.5 -22t-115.5 37t-46 106q0 46 23.5 85.5t51 62.5t51 54.5t23.5 61t-12 55.5h55q10 -23 10 -54t-14.5 -59.5t-35.5 -50t-42 -42.5q-50 -50 -50 -110q0 -98 116 -98q50 0 117 21v-47zM206 618q18 0 31 -13t13 -31.5t-13 -31.5t-31 -13t-31 13
t-13 31.5t13 31.5t31 13z" />
    <glyph glyph-name="guillemotleft.cap" unicode="&#xf6b6;" horiz-adv-x="527" 
d="M405 127l-147 176v4l147 175h66l-150 -177l150 -178h-66zM195 127l-147 176v4l147 175h67l-151 -177l151 -178h-67z" />
    <glyph glyph-name="guillemotright.cap" unicode="&#xf6b7;" horiz-adv-x="527" 
d="M55 127l151 178l-151 177h67l147 -175v-4l-147 -176h-67zM265 127l151 178l-151 177h66l147 -175v-4l-147 -176h-66z" />
    <glyph glyph-name="guilsinglleft.cap" unicode="&#xf6b8;" horiz-adv-x="317" 
d="M195 127l-147 176v4l147 175h67l-151 -177l151 -178h-67z" />
    <glyph glyph-name="guilsinglright.cap" unicode="&#xf6b9;" horiz-adv-x="317" 
d="M55 127l151 178l-151 177h67l147 -175v-4l-147 -176h-67z" />
    <glyph glyph-name="hyphen.cap" unicode="&#xf6ba;" horiz-adv-x="379" 
d="M60 279v51h259v-51h-259z" />
    <glyph glyph-name="endash.cap" unicode="&#xf6bb;" horiz-adv-x="586" 
d="M60 279v51h466v-51h-466z" />
    <glyph glyph-name="emdash.cap" unicode="&#xf6bc;" horiz-adv-x="781" 
d="M60 279v51h661v-51h-661z" />
    <glyph glyph-name="periodcentered.cap" unicode="&#xf6bd;" horiz-adv-x="203" 
d="M102 258q-18 0 -31 13t-13 31.5t13 31t31 12.5t30.5 -12.5t12.5 -31t-12.5 -31.5t-30.5 -13z" />
    <glyph glyph-name="acute.cap" unicode="&#xf6c9;" horiz-adv-x="346" 
d="M82 671l-19 24l164 156l41 -52z" />
    <glyph glyph-name="caron.cap" unicode="&#xf6ca;" horiz-adv-x="436" 
d="M199 676l-140 135l17 20l142 -94l143 94l17 -20l-141 -135h-38z" />
    <glyph glyph-name="dieresis.cap" unicode="&#xf6cb;" horiz-adv-x="436" 
d="M128 677q-17 0 -29.5 12.5t-12.5 30t12.5 29.5t29.5 12t29.5 -12t12.5 -29.5t-12.5 -30t-29.5 -12.5zM298 677q-17 0 -29.5 12.5t-12.5 30t12.5 29.5t29.5 12t29.5 -12t12.5 -29.5t-12.5 -30t-29.5 -12.5z" />
    <glyph glyph-name="grave.cap" unicode="&#xf6ce;" horiz-adv-x="346" 
d="M255 671l-185 128l41 52l164 -156z" />
    <glyph glyph-name="hungarumlaut.cap" unicode="&#xf6cf;" horiz-adv-x="515" 
d="M103 673l-22 18l126 170l45 -41zM258 673l-22 18l126 170l44 -41z" />
    <glyph glyph-name="macron.cap" unicode="&#xf6d0;" horiz-adv-x="419" 
d="M81 679v47h257v-47h-257z" />
    <glyph glyph-name="breve.smcp" unicode="&#xf6f4;" horiz-adv-x="316" 
d="M248.5 576.5q-34.5 -31.5 -88 -31.5t-88 31.5t-38.5 87.5h44q7 -72 82.5 -72t82.5 72h44q-4 -56 -38.5 -87.5z" />
    <glyph glyph-name="caron.smcp" unicode="&#xf6f5;" horiz-adv-x="377" 
d="M164 548l-124 118l16 18l127 -79l128 79l16 -18l-125 -118h-38z" />
    <glyph glyph-name="circumflex.smcp" unicode="&#xf6f6;" horiz-adv-x="371" 
d="M57 544l-16 18l125 118h37l125 -118l-16 -18l-127 79z" />
    <glyph glyph-name="dotaccent.smcp" unicode="&#xf6f7;" horiz-adv-x="204" 
d="M131.5 561.5q-12.5 -12.5 -30 -12.5t-29.5 12.5t-12 29.5t12 29.5t29.5 12.5t30 -12.5t12.5 -29.5t-12.5 -29.5z" />
    <glyph glyph-name="hungarumlaut.smcp" unicode="&#xf6f8;" horiz-adv-x="400" 
d="M72 543l-19 17l111 149l42 -40zM212 543l-19 17l111 149l42 -40z" />
    <glyph glyph-name="Lslash.smcp" unicode="&#xf6f9;" horiz-adv-x="471" 
d="M117 441h-78v46h222v-46h-86v-167l148 77l16 -33l-164 -86v-186h219v93h53v-139h-408v46h78v158l-61 -32l-18 33l79 41v195z" />
    <glyph glyph-name="ogonek.smcp" unicode="&#xf6fb;" horiz-adv-x="237" 
d="M204 -162q-36 -15 -73.5 -15t-61.5 17t-24 51q0 73 108 129l23 -14q-78 -52 -78 -104q0 -41 47 -41q27 0 55 13z" />
    <glyph glyph-name="ring.smcp" unicode="&#xf6fc;" horiz-adv-x="307" 
d="M152 540q-45 0 -70.5 26t-25.5 64t25.5 63.5t71 25.5t70.5 -25.5t25 -64t-25.5 -64t-70.5 -25.5zM152 575q25 0 39 15.5t14 39.5t-14 39t-39 15t-38.5 -15.5t-13.5 -39t13.5 -39t38.5 -15.5z" />
    <glyph glyph-name="Scaron.smcp" unicode="&#xf6fd;" horiz-adv-x="440" 
d="M348.5 22.5q-48.5 -32.5 -132 -32.5t-169.5 25v112h52v-76q58 -15 115.5 -15t92 21t34.5 59.5t-29.5 61.5t-71 36.5t-83 28.5t-71 46.5t-29.5 85.5t44.5 88t124.5 34t153 -23v-110h-53v75q-52 12 -103 12t-81 -22t-30 -57t29.5 -57t71 -36t83.5 -30t71.5 -48t29.5 -81
q0 -65 -48.5 -97.5zM210 552l-124 118l15 18l128 -79l127 79l16 -18l-125 -118h-37z" />
    <glyph glyph-name="tilde.smcp" unicode="&#xf6fe;" horiz-adv-x="394" 
d="M98 630.5q18 16.5 42 16.5t66.5 -24t62.5 -24q34 0 60 51l24 -13q-36 -87 -88 -87q-25 0 -67.5 23.5t-60.5 23.5q-33 0 -58 -50l-25 12q12 28 19 41.5t25 30z" />
    <glyph glyph-name="Zcaron.smcp" unicode="&#xf6ff;" horiz-adv-x="482" 
d="M42 0v46l316 394h-256v-90h-55v137h380v-47l-316 -394h277v96h53v-142h-399zM225 548l-125 118l16 18l127 -79l128 79l16 -18l-125 -118h-37z" />
    <glyph glyph-name="exclam.smcp" unicode="&#xf721;" horiz-adv-x="229" 
d="M94 129l-10 358h61l-10 -358h-41zM143 4.5q-12 -11.5 -28.5 -11.5t-28.5 11.5t-12 28.5t11.5 28.5t28.5 11.5t29 -11.5t12 -28.5t-12 -28.5z" />
    <glyph glyph-name="ampersand.smcp" unicode="&#xf726;" horiz-adv-x="554" 
d="M209 -9q-73 0 -118.5 34t-45.5 90.5t29 90.5t84 69l-6 8q-53 59 -53 105.5t31 77t85.5 30.5t83.5 -29.5t29 -70t-25 -69.5t-69 -57l131 -146q37 53 47 129h-63v41h169v-41h-57q-12 -97 -62 -166q46 -49 80 -49q13 0 27 6v-47q-20 -6 -39 -6q-48 0 -103 57
q-62 -57 -155 -57zM214 36q69 0 118 47l-142 157q-44 -27 -67.5 -52t-23.5 -65t32.5 -63.5t82.5 -23.5zM262.5 438.5q-16.5 17.5 -45.5 17.5t-47 -17t-18 -45.5t43 -80.5l9 -10q75 48 75 93q0 25 -16.5 42.5z" />
    <glyph glyph-name="question.smcp" unicode="&#xf73f;" horiz-adv-x="328" 
d="M35 480q56 16 113 16t96 -29t39 -84q0 -37 -19.5 -68.5t-42.5 -50.5q-62 -49 -62 -93q0 -22 10 -42h-53q-8 16 -8 44t18.5 55.5t40 45.5t40 46t18.5 58q0 75 -93 75q-41 0 -97 -16v43zM143 -7q-17 0 -28.5 11.5t-11.5 28.5t11.5 28.5t28.5 11.5t28.5 -11.5t11.5 -28.5
t-11.5 -28.5t-28.5 -11.5z" />
    <glyph glyph-name="grave.smcp" unicode="&#xf760;" horiz-adv-x="272" 
d="M214 544l-165 110l40 48l144 -135z" />
    <glyph glyph-name="A.smcp" unicode="&#xf761;" horiz-adv-x="581" 
d="M5 0v46h70l165 395h-73v46h159l183 -441h71v-46h-212v46h83l-48 115h-225l-47 -115h82v-46h-208zM196 207h190l-94 229z" />
    <glyph glyph-name="B.smcp" unicode="&#xf762;" horiz-adv-x="517" 
d="M39 0v45h78v397h-78v45h232q81 0 131.5 -32.5t50.5 -91.5q0 -88 -102 -113q63 -11 93 -44t30 -78q0 -60 -51.5 -94t-137.5 -34h-246zM174 45h109q62 0 98 23t36 66.5t-37 67.5t-102 24h-104v-181zM174 269h88q64 0 100 23t36 64.5t-34 63.5t-94 22h-96v-173z" />
    <glyph glyph-name="C.smcp" unicode="&#xf763;" horiz-adv-x="526" 
d="M488 34q-75 -44 -186 -44t-185.5 67t-74.5 183.5t73 186.5t196 70q88 0 175 -37v-119h-55v89q-53 20 -117 20q-96 0 -154.5 -54t-58.5 -152.5t60 -152t151 -53.5t176 47v-51z" />
    <glyph glyph-name="D.smcp" unicode="&#xf764;" horiz-adv-x="576" 
d="M39 0v46h78v395h-78v46h224q120 0 194.5 -64t74.5 -180t-74.5 -179.5t-194.5 -63.5h-224zM175 46h90q95 0 151.5 52.5t56.5 145t-56 145t-152 52.5h-90v-395z" />
    <glyph glyph-name="E.smcp" unicode="&#xf765;" 
d="M39 0v46h78v395h-78v46h406v-133h-53v87h-217v-173h221v-45h-221v-177h219v88h53v-134h-408z" />
    <glyph glyph-name="F.smcp" unicode="&#xf766;" horiz-adv-x="469" 
d="M39 0v46h78v395h-78v46h402v-143h-53v97h-213v-184h205v-46h-205v-165h91v-46h-227z" />
    <glyph glyph-name="G.smcp" unicode="&#xf767;" horiz-adv-x="587" 
d="M314 -10q-130 0 -201 69t-71 184t74 184.5t202 69.5q96 0 184 -36v-112h-54v80q-64 20 -128 20q-101 0 -160.5 -55t-59.5 -147.5t54.5 -151t159.5 -58.5q64 0 143 29v142h-126v45h228v-45h-48v-173q-109 -45 -197 -45z" />
    <glyph glyph-name="H.smcp" unicode="&#xf768;" horiz-adv-x="641" 
d="M39 0v46h78v395h-78v46h214v-46h-78v-171h292v171h-78v46h214v-46h-79v-395h79v-46h-214v46h78v177h-292v-177h78v-46h-214z" />
    <glyph glyph-name="I.smcp" unicode="&#xf769;" horiz-adv-x="292" 
d="M39 0v46h78v395h-78v46h214v-46h-78v-395h78v-46h-214z" />
    <glyph glyph-name="J.smcp" unicode="&#xf76a;" horiz-adv-x="272" 
d="M107 7v434h-78v46h214v-46h-78v-439q0 -60 -43 -93q-34 -27 -77 -45l-20 39q82 40 82 104z" />
    <glyph glyph-name="K.smcp" unicode="&#xf76b;" horiz-adv-x="571" 
d="M335 442v45h209v-46h-67l-196 -192l189 -203h81v-46h-115l-222 243v4l199 195h-78zM39 0v46h78v395h-78v46h214v-46h-78v-395h78v-46h-214z" />
    <glyph glyph-name="L.smcp" unicode="&#xf76c;" horiz-adv-x="471" 
d="M39 0v46h78v395h-78v46h222v-46h-86v-395h219v93h53v-139h-408z" />
    <glyph glyph-name="M.smcp" unicode="&#xf76d;" horiz-adv-x="756" 
d="M34 0v46h77l15 396h-76v45h162l166 -382l167 382h162v-45h-76l15 -396h76v-46h-206v46h79l-16 390l-181 -408h-39l-181 408l-15 -390h78v-46h-207z" />
    <glyph glyph-name="N.smcp" unicode="&#xf76e;" horiz-adv-x="635" 
d="M38 0v46h80v395h-80v46h137l298 -401v355h-82v46h214v-46h-79v-441h-50l-305 407v-361h81v-46h-214z" />
    <glyph glyph-name="O.smcp" unicode="&#xf76f;" horiz-adv-x="601" 
d="M300 -10q-117 0 -187.5 71.5t-70.5 182.5t70.5 182t187.5 71t188 -71t71 -182t-71 -182.5t-188 -71.5zM300 38q89 0 144.5 56.5t55.5 149.5t-55 149t-145 56t-145 -56t-55 -149t55.5 -149.5t144.5 -56.5z" />
    <glyph glyph-name="P.smcp" unicode="&#xf770;" horiz-adv-x="490" 
d="M39 0v46h78v395h-78v46h224q82 0 140 -38.5t58 -113.5t-58 -113t-140 -38h-88v-138h94v-46h-230zM175 441v-212h89q70 0 105 28.5t35 77.5t-35 77.5t-105 28.5h-89z" />
    <glyph glyph-name="Q.smcp" unicode="&#xf771;" horiz-adv-x="601" 
d="M110.5 63q-68.5 71 -68.5 181.5t70.5 181.5t187.5 71t188 -71t71 -173.5t-52 -169t-141 -84.5l118 -65l-29 -45l-161 101q-115 2 -183.5 73zM300 38q89 0 144.5 56.5t55.5 149.5t-55 149t-145 56t-145 -56t-55 -149t55.5 -149.5t144.5 -56.5z" />
    <glyph glyph-name="R.smcp" unicode="&#xf772;" horiz-adv-x="541" 
d="M39 0v46h78v395h-78v46h233q81 0 139 -37t58 -110q0 -51 -31 -86t-88 -49l91 -159h78v-46h-116l-107 192q-10 -1 -28 -1h-93v-145h78v-46h-214zM175 236h97q70 0 105 27.5t35 75.5t-35 75t-105 27h-97v-205z" />
    <glyph glyph-name="S.smcp" unicode="&#xf773;" horiz-adv-x="440" 
d="M348.5 22.5q-48.5 -32.5 -132 -32.5t-169.5 25v112h52v-76q58 -15 115.5 -15t92 21t34.5 59.5t-29.5 61.5t-71 36.5t-83 28.5t-71 46.5t-29.5 85.5t44.5 88t124.5 34t153 -23v-110h-53v75q-52 12 -103 12t-81 -22t-30 -57t29.5 -57t71 -36t83.5 -30t71.5 -48t29.5 -81
q0 -65 -48.5 -97.5z" />
    <glyph glyph-name="T.smcp" unicode="&#xf774;" horiz-adv-x="499" 
d="M136 0v46h85v395h-142v-87h-53v133h447v-133h-53v87h-142v-395h86v-46h-228z" />
    <glyph glyph-name="U.smcp" unicode="&#xf775;" horiz-adv-x="595" 
d="M440 35q-52 -45 -140 -45t-142.5 43.5t-54.5 126.5v281h-78v46h214v-46h-78v-279q0 -64 38.5 -94t100 -30t99.5 30.5t38 93.5v279h-79v46h212v-46h-78v-278q0 -83 -52 -128z" />
    <glyph glyph-name="V.smcp" unicode="&#xf776;" horiz-adv-x="563" 
d="M2 441v46h215v-45h-86l151 -377l152 377h-86v45h213v-46h-70l-182 -441h-55l-182 441h-70z" />
    <glyph glyph-name="W.smcp" unicode="&#xf777;" horiz-adv-x="796" 
d="M4 441v46h210v-44h-83l123 -372l120 327l-18 45h-71v44h211v-44h-84l134 -371l122 370h-83v45h208v-46h-70l-152 -441h-53l-119 326l-121 -326h-53l-151 441h-70z" />
    <glyph glyph-name="X.smcp" unicode="&#xf778;" horiz-adv-x="551" 
d="M19 0v45h66l158 201l-149 195h-68v46h208v-44h-78l120 -158l122 158h-77v44h205v-46h-68l-153 -194l156 -202h69v-45h-209v45h77l-125 163l-127 -163h78v-45h-205z" />
    <glyph glyph-name="Y.smcp" unicode="&#xf779;" horiz-adv-x="540" 
d="M159 0v46h82v135l-167 260h-71v46h213v-45h-81l136 -211l136 212h-80v44h210v-46h-72l-167 -260v-135h82v-46h-221z" />
    <glyph glyph-name="Z.smcp" unicode="&#xf77a;" horiz-adv-x="482" 
d="M42 0v46l316 394h-256v-90h-55v137h380v-47l-316 -394h277v96h53v-142h-399z" />
    <glyph glyph-name="exclamdown.smcp" unicode="&#xf7a1;" horiz-adv-x="227" 
d="M134 358l10 -358h-61l10 358h41zM114 494q17 0 28.5 -12t11.5 -28.5t-11.5 -28t-28.5 -11.5t-29 11.5t-12 28t12 28.5t29 12z" />
    <glyph glyph-name="dieresis.smcp" unicode="&#xf7a8;" horiz-adv-x="340" 
d="M94 553q-16 0 -27.5 11.5t-11.5 27.5t11.5 27.5t27.5 11.5t27.5 -11.5t11.5 -27.5t-11.5 -27.5t-27.5 -11.5zM247 553q-17 0 -28 11.5t-11 27.5t11 27.5t28 11.5t28 -11.5t11 -27.5t-11 -27.5t-28 -11.5z" />
    <glyph glyph-name="macron.smcp" unicode="&#xf7af;" horiz-adv-x="345" 
d="M57 560v45h230v-45h-230z" />
    <glyph glyph-name="acute.smcp" unicode="&#xf7b4;" horiz-adv-x="279" 
d="M67 544l-19 23l145 135l39 -48z" />
    <glyph glyph-name="cedilla.smcp" unicode="&#xf7b8;" horiz-adv-x="250" 
d="M168.5 -160.5q-32.5 -17.5 -68.5 -17.5t-60 4l9 35q30 -3 38 -3q63 0 63 35q0 37 -73 37v16l38 73l30 -10l-21 -50q31 -3 54 -19.5t23 -49.5t-32.5 -50.5z" />
    <glyph glyph-name="questiondown.smcp" unicode="&#xf7bf;" horiz-adv-x="329" 
d="M295 7q-56 -16 -113.5 -16t-96.5 29t-39 84q0 37 19.5 68.5t42.5 49.5q62 50 62 94q0 20 -10 42h54q7 -17 7 -42t-12 -47t-29 -39.5t-34 -34.5q-41 -41 -41 -86q0 -75 93 -75q47 0 97 16v-43zM186 494q17 0 29 -12t12 -28.5t-12 -28t-29 -11.5t-28.5 11.5t-11.5 28
t11.5 28.5t28.5 12z" />
    <glyph glyph-name="Agrave.smcp" unicode="&#xf7e0;" horiz-adv-x="581" 
d="M5 0v46h70l165 395h-73v46h159l183 -441h71v-46h-212v46h83l-48 115h-225l-47 -115h82v-46h-208zM196 207h190l-94 229zM333 544l-166 110l40 48l145 -135z" />
    <glyph glyph-name="Aacute.smcp" unicode="&#xf7e1;" horiz-adv-x="581" 
d="M5 0v46h70l165 395h-73v46h159l183 -441h71v-46h-212v46h83l-48 115h-225l-47 -115h82v-46h-208zM196 207h190l-94 229zM219 544l-19 23l145 135l40 -48z" />
    <glyph glyph-name="Acircumflex.smcp" unicode="&#xf7e2;" horiz-adv-x="581" 
d="M5 0v46h70l165 395h-73v46h159l183 -441h71v-46h-212v46h83l-48 115h-225l-47 -115h82v-46h-208zM196 207h190l-94 229zM150 544l-16 18l124 118h38l124 -118l-15 -18l-128 79z" />
    <glyph glyph-name="Atilde.smcp" unicode="&#xf7e3;" horiz-adv-x="581" 
d="M5 0v46h70l165 395h-73v46h159l183 -441h71v-46h-212v46h83l-48 115h-225l-47 -115h82v-46h-208zM196 207h190l-94 229zM182 640q14 7 35.5 7t64 -24t62.5 -24q33 0 59 51l24 -13q-10 -24 -18.5 -39.5t-27 -31.5t-42.5 -16t-66.5 23.5t-60.5 23.5q-34 0 -59 -50l-24 12
q27 66 53 81z" />
    <glyph glyph-name="Adieresis.smcp" unicode="&#xf7e4;" horiz-adv-x="581" 
d="M5 0v46h70l165 395h-73v46h159l183 -441h71v-46h-212v46h83l-48 115h-225l-47 -115h82v-46h-208zM196 207h190l-94 229zM201 553q-17 0 -28 11.5t-11 27.5t11 27.5t28 11.5t28 -11.5t11 -27.5t-11 -27.5t-28 -11.5zM354 553q-16 0 -27.5 11.5t-11.5 27.5t11.5 27.5
t27.5 11.5t27.5 -11.5t11.5 -27.5t-11.5 -27.5t-27.5 -11.5z" />
    <glyph glyph-name="Aring.smcp" unicode="&#xf7e5;" horiz-adv-x="581" 
d="M5 0v46h70l165 395h-73v46h159l183 -441h71v-46h-212v46h83l-48 115h-225l-47 -115h82v-46h-208zM196 207h190l-94 229zM280 540q-45 0 -70.5 26t-25.5 64t25.5 63.5t71 25.5t70.5 -25.5t25 -64t-25.5 -64t-70.5 -25.5zM280 575q25 0 39 15.5t14 39.5t-14 39t-39 15
t-38.5 -15.5t-13.5 -39t13.5 -39t38.5 -15.5z" />
    <glyph glyph-name="AE.smcp" unicode="&#xf7e6;" horiz-adv-x="788" 
d="M5 0v47h65l278 394h-63v46h452v-133h-53v87h-208v-173h211v-45h-211v-177h209v88h53v-134h-394v46h76v114h-207l-80 -114h70v-46h-198zM420 205v236h-12l-166 -236h178z" />
    <glyph glyph-name="Ccedilla.smcp" unicode="&#xf7e7;" horiz-adv-x="526" 
d="M352 -160.5q-32 -17.5 -67.5 -17.5t-61.5 4l10 35q30 -3 38 -3q62 0 62 35q0 37 -73 37v16l24 45q-108 7 -175 73t-67 179.5t73 183.5t196 70q88 0 175 -37v-119h-55v89q-53 20 -117 20q-96 0 -154.5 -54t-58.5 -152.5t60 -152t151 -53.5t176 47v-51q-72 -41 -167 -44
l-14 -31q31 -3 54 -19.5t23 -49.5t-32 -50.5z" />
    <glyph glyph-name="Egrave.smcp" unicode="&#xf7e8;" 
d="M39 0v46h78v395h-78v46h406v-133h-53v87h-217v-173h221v-45h-221v-177h219v88h53v-134h-408zM307 544l-165 110l40 48l144 -135z" />
    <glyph glyph-name="Eacute.smcp" unicode="&#xf7e9;" 
d="M39 0v46h78v395h-78v46h406v-133h-53v87h-217v-173h221v-45h-221v-177h219v88h53v-134h-408zM206 544l-19 23l144 135l40 -48z" />
    <glyph glyph-name="Ecircumflex.smcp" unicode="&#xf7ea;" 
d="M39 0v46h78v395h-78v46h406v-133h-53v87h-217v-173h221v-45h-221v-177h219v88h53v-134h-408zM130 544l-16 18l125 118h37l125 -118l-16 -18l-128 79z" />
    <glyph glyph-name="Edieresis.smcp" unicode="&#xf7eb;" 
d="M39 0v46h78v395h-78v46h406v-133h-53v87h-217v-173h221v-45h-221v-177h219v88h53v-134h-408zM184 553q-16 0 -27.5 11.5t-11.5 27.5t11.5 27.5t27.5 11.5t27.5 -11.5t11.5 -27.5t-11.5 -27.5t-27.5 -11.5zM337 553q-17 0 -28 11.5t-11 27.5t11 27.5t28 11.5t28 -11.5
t11 -27.5t-11 -27.5t-28 -11.5z" />
    <glyph glyph-name="Igrave.smcp" unicode="&#xf7ec;" horiz-adv-x="292" 
d="M39 0v46h78v395h-78v46h214v-46h-78v-395h78v-46h-214zM210 544l-165 110l40 48l144 -135z" />
    <glyph glyph-name="Iacute.smcp" unicode="&#xf7ed;" horiz-adv-x="292" 
d="M39 0v46h78v395h-78v46h214v-46h-78v-395h78v-46h-214zM86 544l-19 23l145 135l39 -48z" />
    <glyph glyph-name="Icircumflex.smcp" unicode="&#xf7ee;" horiz-adv-x="292" 
d="M39 0v46h78v395h-78v46h214v-46h-78v-395h78v-46h-214zM18 544l-16 18l125 118h37l125 -118l-16 -18l-128 79z" />
    <glyph glyph-name="Idieresis.smcp" unicode="&#xf7ef;" horiz-adv-x="292" 
d="M39 0v46h78v395h-78v46h214v-46h-78v-395h78v-46h-214zM69 553q-17 0 -28 11.5t-11 27.5t11 27.5t28 11.5t28 -11.5t11 -27.5t-11 -27.5t-28 -11.5zM222 553q-16 0 -27.5 11.5t-11.5 27.5t11.5 27.5t27.5 11.5t27.5 -11.5t11.5 -27.5t-11.5 -27.5t-27.5 -11.5z" />
    <glyph glyph-name="Eth.smcp" unicode="&#xf7f0;" horiz-adv-x="577" 
d="M46 224v43h72v174h-78v46h224q119 0 194 -64t75 -180t-75 -179.5t-194 -63.5h-224v46h78v178h-72zM175 46h91q95 0 151.5 52.5t56.5 145t-56 145t-152 52.5h-91v-174h139v-43h-139v-178z" />
    <glyph glyph-name="Ntilde.smcp" unicode="&#xf7f1;" horiz-adv-x="635" 
d="M38 0v46h80v395h-80v46h137l298 -401v355h-82v46h214v-46h-79v-441h-50l-305 407v-361h81v-46h-214zM225 640q14 7 35.5 7t64 -24t62.5 -24q33 0 59 51l24 -13q-10 -24 -18.5 -39.5t-27 -31.5t-42.5 -16t-66.5 23.5t-60.5 23.5q-34 0 -59 -50l-24 12q27 66 53 81z" />
    <glyph glyph-name="Ograve.smcp" unicode="&#xf7f2;" horiz-adv-x="601" 
d="M300 -10q-117 0 -187.5 71.5t-70.5 182.5t70.5 182t187.5 71t188 -71t71 -182t-71 -182.5t-188 -71.5zM300 38q89 0 144.5 56.5t55.5 149.5t-55 149t-145 56t-145 -56t-55 -149t55.5 -149.5t144.5 -56.5zM337 548l-165 110l39 49l145 -136z" />
    <glyph glyph-name="Oacute.smcp" unicode="&#xf7f3;" horiz-adv-x="601" 
d="M300 -10q-117 0 -187.5 71.5t-70.5 182.5t70.5 182t187.5 71t188 -71t71 -182t-71 -182.5t-188 -71.5zM300 38q89 0 144.5 56.5t55.5 149.5t-55 149t-145 56t-145 -56t-55 -149t55.5 -149.5t144.5 -56.5zM247 548l-19 23l144 136l40 -49z" />
    <glyph glyph-name="Ocircumflex.smcp" unicode="&#xf7f4;" horiz-adv-x="601" 
d="M300 -10q-117 0 -187.5 71.5t-70.5 182.5t70.5 182t187.5 71t188 -71t71 -182t-71 -182.5t-188 -71.5zM300 38q89 0 144.5 56.5t55.5 149.5t-55 149t-145 56t-145 -56t-55 -149t55.5 -149.5t144.5 -56.5zM173 548l-16 19l125 117h37l125 -117l-16 -19l-128 79z" />
    <glyph glyph-name="Otilde.smcp" unicode="&#xf7f5;" horiz-adv-x="601" 
d="M300 -10q-117 0 -187.5 71.5t-70.5 182.5t70.5 182t187.5 71t188 -71t71 -182t-71 -182.5t-188 -71.5zM300 38q89 0 144.5 56.5t55.5 149.5t-55 149t-145 56t-145 -56t-55 -149t55.5 -149.5t144.5 -56.5zM202 644q14 7 36 7t64 -23.5t62 -23.5q32 0 60 51l24 -14
q-36 -87 -88 -87q-25 0 -67.5 23.5t-60.5 23.5q-34 0 -58 -49l-25 11q27 66 53 81z" />
    <glyph glyph-name="Odieresis.smcp" unicode="&#xf7f6;" horiz-adv-x="601" 
d="M300 -10q-117 0 -187.5 71.5t-70.5 182.5t70.5 182t187.5 71t188 -71t71 -182t-71 -182.5t-188 -71.5zM300 38q89 0 144.5 56.5t55.5 149.5t-55 149t-145 56t-145 -56t-55 -149t55.5 -149.5t144.5 -56.5zM224 557q-16 0 -27.5 11.5t-11.5 27.5t11.5 27.5t27.5 11.5
t27.5 -11.5t11.5 -27.5t-11.5 -27.5t-27.5 -11.5zM377 557q-17 0 -28 11.5t-11 27.5t11 27.5t28 11.5t28 -11.5t11 -27.5t-11 -27.5t-28 -11.5z" />
    <glyph glyph-name="Oslash.smcp" unicode="&#xf7f8;" horiz-adv-x="599" 
d="M299 -10q-95 0 -161 49l-43 -48l-23 20l42 47q-73 71 -73 184t70.5 184t187.5 71q96 0 162 -49l43 48l23 -19l-43 -49q74 -71 74 -183t-71 -183.5t-188 -71.5zM426 408q-50 41 -133.5 41t-138.5 -56t-55 -147t51 -148zM173 78q51 -40 133 -40t137.5 56.5t55.5 148
t-51 145.5z" />
    <glyph glyph-name="Ugrave.smcp" unicode="&#xf7f9;" horiz-adv-x="595" 
d="M440 35q-52 -45 -140 -45t-142.5 43.5t-54.5 126.5v281h-78v46h214v-46h-78v-279q0 -64 38.5 -94t100 -30t99.5 30.5t38 93.5v279h-79v46h212v-46h-78v-278q0 -83 -52 -128zM336 544l-165 110l40 48l144 -135z" />
    <glyph glyph-name="Uacute.smcp" unicode="&#xf7fa;" horiz-adv-x="595" 
d="M440 35q-52 -45 -140 -45t-142.5 43.5t-54.5 126.5v281h-78v46h214v-46h-78v-279q0 -64 38.5 -94t100 -30t99.5 30.5t38 93.5v279h-79v46h212v-46h-78v-278q0 -83 -52 -128zM252 544l-19 23l145 135l39 -48z" />
    <glyph glyph-name="Ucircumflex.smcp" unicode="&#xf7fb;" horiz-adv-x="595" 
d="M440 35q-52 -45 -140 -45t-142.5 43.5t-54.5 126.5v281h-78v46h214v-46h-78v-279q0 -64 38.5 -94t100 -30t99.5 30.5t38 93.5v279h-79v46h212v-46h-78v-278q0 -83 -52 -128zM173 544l-16 18l124 118h38l124 -118l-15 -18l-128 79z" />
    <glyph glyph-name="Udieresis.smcp" unicode="&#xf7fc;" horiz-adv-x="595" 
d="M440 35q-52 -45 -140 -45t-142.5 43.5t-54.5 126.5v281h-78v46h214v-46h-78v-279q0 -64 38.5 -94t100 -30t99.5 30.5t38 93.5v279h-79v46h212v-46h-78v-278q0 -83 -52 -128zM223 553q-17 0 -28 11.5t-11 27.5t11 27.5t28 11.5t28 -11.5t11 -27.5t-11 -27.5t-28 -11.5z
M376 553q-16 0 -27.5 11.5t-11.5 27.5t11.5 27.5t27.5 11.5t27.5 -11.5t11.5 -27.5t-11.5 -27.5t-27.5 -11.5z" />
    <glyph glyph-name="Yacute.smcp" unicode="&#xf7fd;" horiz-adv-x="540" 
d="M159 0v46h82v135l-167 260h-71v46h213v-45h-81l136 -211l136 212h-80v44h210v-46h-72l-167 -260v-135h82v-46h-221zM218 544l-19 23l145 135l40 -48z" />
    <glyph glyph-name="Thorn.smcp" unicode="&#xf7fe;" horiz-adv-x="482" 
d="M40 0v46h76v395h-76v46h226v-46h-93v-52h87q82 0 136.5 -34t54.5 -107.5t-54 -107.5t-137 -34h-87v-60h93v-46h-226zM173 151h88q133 0 133 96t-133 96h-88v-192z" />
    <glyph glyph-name="Ydieresis.smcp" unicode="&#xf7ff;" horiz-adv-x="540" 
d="M159 0v46h82v135l-167 260h-71v46h213v-45h-81l136 -211l136 212h-80v44h210v-46h-72l-167 -260v-135h82v-46h-221zM222.5 564.5q-11.5 -11.5 -28 -11.5t-28 11.5t-11.5 27.5t11.5 27.5t28 11.5t28 -11.5t11.5 -27.5t-11.5 -27.5zM375.5 564.5q-11.5 -11.5 -28 -11.5
t-28 11.5t-11.5 27.5t11.5 27.5t28 11.5t28 -11.5t11.5 -27.5t-11.5 -27.5z" />
    <glyph glyph-name="s_t" unicode="&#xfb06;" horiz-adv-x="713" 
d="M316 20q-43 -31 -120.5 -31t-154.5 25v104h49v-68q54 -15 103.5 -15t80 17t30.5 49.5t-26.5 51.5t-63.5 29.5t-74.5 23t-64 40.5t-26.5 77t40.5 80.5t115.5 31.5q31 0 89 -10v38q0 56 32.5 88.5t98.5 32.5h132v-160h137v-48h-137v-262q0 -41 18.5 -59.5t57.5 -18.5t66 11
v-45q-38 -13 -79 -13q-121 0 -121 122v265h-73v48h73v116h-73q-85 0 -85 -82v-147h-50v67q-53 11 -93.5 11t-67 -18.5t-26.5 -49.5t26.5 -49.5t63.5 -29t74.5 -23t64 -40.5t26.5 -78t-43 -81z" />
    <glyph glyph-name="glyph19" horiz-adv-x="425" 
d="M0 0v609h425v-609h-425zM59 42h306l-153 226zM365 567h-306l153 -227zM383 520l-146 -216l146 -216v432zM42 88l146 216l-146 216v-432z" />
    <glyph glyph-name="zero.lf" horiz-adv-x="532" 
d="M266 -12q-215 0 -215 316.5t215 316.5t215 -316.5t-215 -316.5zM266 36q82 0 118.5 67.5t36.5 201t-36.5 201t-118.5 67.5t-118.5 -67.5t-36.5 -201.5t36.5 -201t118.5 -67z" />
    <glyph glyph-name="one.lf" horiz-adv-x="332" 
d="M48 0v47h108v511q-59 -36 -93 -36t-34 28q0 5 1 10l133 49h51v-562h98v-47h-264z" />
    <glyph glyph-name="two.lf" horiz-adv-x="494" 
d="M109 2q-11 -13 -31.5 -13t-32 12.5t-11.5 31t13.5 40.5t46.5 52q37 34 109.5 93t116.5 115t44 116t-34 92.5t-94.5 32.5t-108.5 -24q10 -12 10 -28.5t-12.5 -28.5t-33.5 -12t-32.5 13t-11.5 30q0 40 57.5 68.5t139 28.5t129.5 -46t48 -115t-38 -129.5t-84 -99t-105.5 -86
t-83.5 -74.5q11 2 35.5 2t87.5 -15.5t86 -15.5q84 0 86 114h52q-5 -165 -127 -165q-38 0 -103 21t-97 21q-5 0 -10 -1q0 -17 -11 -30z" />
    <glyph glyph-name="three.lf" horiz-adv-x="486" 
d="M377 35.5q-60 -47.5 -138.5 -47.5t-137.5 27.5t-59 68.5q0 19 13 32t32.5 13t31.5 -13t12 -28.5t-9 -28.5q46 -24 108 -24t105 34t43 96.5t-44 95t-120 32.5h-50v45h51q69 0 108.5 31.5t39.5 88.5t-36 86.5t-97 29.5t-103 -23q10 -10 10 -26.5t-13 -29.5t-32 -13
t-31.5 13t-12.5 32q0 39 56.5 66.5t135.5 27.5t130.5 -43t51.5 -116q0 -53 -29 -90t-79 -54q57 -17 90 -56.5t33 -97.5q0 -81 -60 -128.5z" />
    <glyph glyph-name="four.lf" horiz-adv-x="491" 
d="M215 0v45h101v128h-299v40q76 88 126 196t62 210q10 2 19 2q32 0 32 -37q0 -60 -52.5 -174.5t-118.5 -190.5h232v97q22 43 35 88h21v-185h87v-46h-86v-128h81v-45h-240z" />
    <glyph glyph-name="five.lf" horiz-adv-x="492" 
d="M360 551l-212 10q-8 -148 -30 -227q60 49 141 49t136.5 -51t55.5 -144t-60 -146.5t-144 -53.5t-146 35t-62 75q0 20 12.5 32t32.5 12t32 -12.5t12 -28.5t-11 -29q44 -36 113.5 -36t115.5 37t46 110.5t-40.5 113t-95.5 39.5t-94.5 -21t-62.5 -53l-41 20q41 150 42 327h324
q4 -14 4 -22q0 -36 -68 -36z" />
    <glyph glyph-name="six.lf" horiz-adv-x="508" 
d="M411 43.5q-55 -55.5 -150.5 -55.5t-153.5 70t-58 215q0 137 53 237q27 51 73.5 81t107.5 30t107.5 -28t46.5 -64q0 -18 -12 -31.5t-30.5 -13.5t-31 12.5t-12.5 27t10 28.5q-29 21 -77 21t-82 -23.5t-54 -65.5q-38 -78 -44 -198q19 43 65.5 74t107.5 31q83 0 136 -55
t53 -146t-55 -146.5zM154 81q39 -46 106.5 -46t106.5 41.5t39 111t-37 113.5t-102.5 44t-108.5 -41.5t-43 -109t39 -113.5z" />
    <glyph glyph-name="seven.lf" horiz-adv-x="463" 
d="M257 -9q-12 -4 -27 -4q-34 0 -34 64q0 94 53 237.5t125 256.5q-24 -10 -51.5 -10t-83 16t-90.5 16q-71 0 -77 -101h-49v143h46v-54q21 61 86 61q32 0 88 -20t79 -20t40 6q5 37 43 37q19 0 30.5 -11.5t11.5 -28.5t-20 -47q-70 -110 -120.5 -245t-50.5 -253q0 -32 1 -43z
" />
    <glyph glyph-name="eight.lf" horiz-adv-x="520" 
d="M415.5 35q-57.5 -47 -156 -47t-156 47t-57.5 117.5t36.5 112.5t96.5 57q-47 15 -78 52t-31 97.5t52 105t137.5 44.5t137.5 -44.5t52 -105t-31 -98t-79 -51.5q61 -15 97.5 -57t36.5 -112.5t-57.5 -117.5zM145.5 72q40.5 -37 114 -37t114 37t40.5 94.5t-41 94.5t-113 37
t-113.5 -37t-41.5 -94.5t40.5 -94.5zM260 574q-61 0 -97 -31.5t-36 -81t37 -83.5t96 -34t95 34t36 83.5t-35 81t-96 31.5z" />
    <glyph glyph-name="nine.lf" horiz-adv-x="511" 
d="M357 528.5q-38 44.5 -105 44.5t-107.5 -43.5t-40.5 -110t38.5 -107.5t103 -41t107 39.5t42.5 106.5t-38 111.5zM331.5 11q-40.5 -23 -100 -23t-113.5 29.5t-54 67.5q0 18 13 31t32 13t31.5 -13t12.5 -28.5t-11 -28.5q41 -24 97.5 -24t94.5 39.5t53.5 100.5t19.5 152
q-19 -45 -65.5 -74t-106.5 -29q-83 0 -137 53t-54 141t56 145.5t151 57.5q210 0 210 -291q0 -95 -20.5 -160t-44.5 -100.5t-64.5 -58.5z" />
    <glyph glyph-name="a.alt" horiz-adv-x="518" 
d="M373 56q-62 -67 -148.5 -67t-136 63.5t-49.5 159.5t51.5 159.5t136 63.5t145.5 -59v48h55v-377h79v-47h-133v56zM238 36q69 0 132 63v229q-65 59 -130.5 59t-103.5 -48.5t-38 -125t35.5 -127t104.5 -50.5z" />
    <glyph glyph-name="agrave.alt" horiz-adv-x="518" 
d="M373 56q-62 -67 -148.5 -67t-136 63.5t-49.5 159.5t51.5 159.5t136 63.5t145.5 -59v48h55v-377h79v-47h-133v56zM238 36q69 0 132 63v229q-65 59 -130.5 59t-103.5 -48.5t-38 -125t35.5 -127t104.5 -50.5zM309 506l-176 122l40 50l155 -148z" />
    <glyph glyph-name="aacute.alt" horiz-adv-x="518" 
d="M373 56q-62 -67 -148.5 -67t-136 63.5t-49.5 159.5t51.5 159.5t136 63.5t145.5 -59v48h55v-377h79v-47h-133v56zM238 36q69 0 132 63v229q-65 59 -130.5 59t-103.5 -48.5t-38 -125t35.5 -127t104.5 -50.5zM193 506l-20 24l156 148l40 -50z" />
    <glyph glyph-name="acircumflex.alt" horiz-adv-x="518" 
d="M373 56q-62 -67 -148.5 -67t-136 63.5t-49.5 159.5t51.5 159.5t136 63.5t145.5 -59v48h55v-377h79v-47h-133v56zM238 36q69 0 132 63v229q-65 59 -130.5 59t-103.5 -48.5t-38 -125t35.5 -127t104.5 -50.5zM114 505l-16 20l133 127h36l134 -127l-16 -20l-136 89z" />
    <glyph glyph-name="atilde.alt" horiz-adv-x="518" 
d="M373 56q-62 -67 -148.5 -67t-136 63.5t-49.5 159.5t51.5 159.5t136 63.5t145.5 -59v48h55v-377h79v-47h-133v56zM238 36q69 0 132 63v229q-65 59 -130.5 59t-103.5 -48.5t-38 -125t35.5 -127t104.5 -50.5zM134.5 603.5q19.5 16.5 44.5 16.5t70.5 -27.5t67.5 -27.5
q33 0 62 56l27 -14q-12 -26 -21 -42.5t-29 -33.5t-45 -17t-70.5 28t-65.5 28q-32 0 -62 -55l-27 13q12 27 20.5 43t28 32.5z" />
    <glyph glyph-name="adieresis.alt" horiz-adv-x="518" 
d="M373 56q-62 -67 -148.5 -67t-136 63.5t-49.5 159.5t51.5 159.5t136 63.5t145.5 -59v48h55v-377h79v-47h-133v56zM238 36q69 0 132 63v229q-65 59 -130.5 59t-103.5 -48.5t-38 -125t35.5 -127t104.5 -50.5zM161 517q-17 0 -29 12t-12 29t12 28.5t29 11.5t28.5 -12
t11.5 -28.5t-11.5 -28.5t-28.5 -12zM331 517q-17 0 -29 12t-12 29t12 28.5t29 11.5t28.5 -11.5t11.5 -28.5t-11.5 -29t-28.5 -12z" />
    <glyph glyph-name="aring.alt" horiz-adv-x="518" 
d="M373 56q-62 -67 -148.5 -67t-136 63.5t-49.5 159.5t51.5 159.5t136 63.5t145.5 -59v48h55v-377h79v-47h-133v56zM238 36q69 0 132 63v229q-65 59 -130.5 59t-103.5 -48.5t-38 -125t35.5 -127t104.5 -50.5zM244 503q-49 0 -78.5 29.5t-29.5 72.5t29.5 72.5t78.5 29.5
t78 -29.5t29 -72.5t-29 -72.5t-78 -29.5zM244 539q29 0 45 19.5t16 46.5t-16 46.5t-45 19.5t-45 -19.5t-16 -46.5t16 -46.5t45 -19.5z" />
    <glyph glyph-name="amacron.alt" horiz-adv-x="518" 
d="M373 56q-62 -67 -148.5 -67t-136 63.5t-49.5 159.5t51.5 159.5t136 63.5t145.5 -59v48h55v-377h79v-47h-133v56zM238 36q69 0 132 63v229q-65 59 -130.5 59t-103.5 -48.5t-38 -125t35.5 -127t104.5 -50.5zM115 527v46h257v-46h-257z" />
    <glyph glyph-name="abreve.alt" horiz-adv-x="518" 
d="M373 56q-62 -67 -148.5 -67t-136 63.5t-49.5 159.5t51.5 159.5t136 63.5t145.5 -59v48h55v-377h79v-47h-133v56zM238 36q69 0 132 63v229q-65 59 -130.5 59t-103.5 -48.5t-38 -125t35.5 -127t104.5 -50.5zM242 512q-56 0 -93 33.5t-42 96.5h45q8 -81 89.5 -81t89.5 81h45
q-5 -63 -41.5 -96.5t-92.5 -33.5z" />
    <glyph glyph-name="aogonek.alt" horiz-adv-x="518" 
d="M521 -176q-36 -17 -76.5 -17t-65.5 18.5t-25 56.5q0 66 77 118h-58v56q-62 -67 -148.5 -67t-136 63.5t-49.5 159.5t51.5 159.5t136 63.5t145.5 -59v48h55v-377h79v-47h-24q-75 -54 -75 -109q0 -44 51 -44q32 0 60 14zM238 36q69 0 132 63v229q-65 59 -130.5 59
t-103.5 -48.5t-38 -125t35.5 -127t104.5 -50.5z" />
    <glyph glyph-name="g.alt" horiz-adv-x="517" 
d="M375.5 -172.5q-48.5 -37.5 -130 -37.5t-156.5 29v48q78 -30 146 -30q131 0 131 108v112q-61 -57 -141 -57t-132.5 59.5t-52.5 159t54 158t135 58.5t141 -58v47h126v-48h-72v-436q0 -75 -48.5 -112.5zM366 332q-57 55 -123.5 55t-105 -45t-38.5 -122t37.5 -125t103.5 -48
t126 56v229z" />
    <glyph glyph-name="gcircumflex.alt" horiz-adv-x="517" 
d="M375.5 -172.5q-48.5 -37.5 -130 -37.5t-156.5 29v48q78 -30 146 -30q131 0 131 108v112q-61 -57 -141 -57t-132.5 59.5t-52.5 159t54 158t135 58.5t141 -58v47h126v-48h-72v-436q0 -75 -48.5 -112.5zM366 332q-57 55 -123.5 55t-105 -45t-38.5 -122t37.5 -125t103.5 -48
t126 56v229zM110 505l-16 20l133 127h37l134 -127l-17 -20l-135 89z" />
    <glyph glyph-name="gbreve.alt" horiz-adv-x="517" 
d="M375.5 -172.5q-48.5 -37.5 -130 -37.5t-156.5 29v48q78 -30 146 -30q131 0 131 108v112q-61 -57 -141 -57t-132.5 59.5t-52.5 159t54 158t135 58.5t141 -58v47h126v-48h-72v-436q0 -75 -48.5 -112.5zM366 332q-57 55 -123.5 55t-105 -45t-38.5 -122t37.5 -125t103.5 -48
t126 56v229zM243 512q-56 0 -93 33.5t-42 96.5h45q8 -81 89.5 -81t89.5 81h45q-5 -63 -41.5 -96.5t-92.5 -33.5z" />
    <glyph glyph-name="gdotaccent.alt" horiz-adv-x="517" 
d="M375.5 -172.5q-48.5 -37.5 -130 -37.5t-156.5 29v48q78 -30 146 -30q131 0 131 108v112q-61 -57 -141 -57t-132.5 59.5t-52.5 159t54 158t135 58.5t141 -58v47h126v-48h-72v-436q0 -75 -48.5 -112.5zM366 332q-57 55 -123.5 55t-105 -45t-38.5 -122t37.5 -125t103.5 -48
t126 56v229zM272.5 531q-12.5 -13 -31 -13t-31.5 13t-13 31t13 31t31.5 13t31 -13t12.5 -31t-12.5 -31z" />
    <glyph glyph-name="uni0123.alt" horiz-adv-x="517" 
d="M284 519q-19 -15 -40.5 -15t-35 15t-13.5 45t19.5 67.5t52.5 66.5l28 -22q-45 -54 -45 -97t34 -52v-8zM375.5 -172.5q-48.5 -37.5 -130 -37.5t-156.5 29v48q78 -30 146 -30q131 0 131 108v112q-61 -57 -141 -57t-132.5 59.5t-52.5 159t54 158t135 58.5t141 -58v47h126
v-48h-72v-436q0 -75 -48.5 -112.5zM366 332q-57 55 -123.5 55t-105 -45t-38.5 -122t37.5 -125t103.5 -48t126 56v229z" />
    <glyph glyph-name="ampersand.alt" horiz-adv-x="530" 
d="M393.5 40.5q-54.5 -50.5 -144.5 -50.5t-147 44t-57 124q0 59 32 99.5t90 57.5q-105 39 -105 146q0 72 54.5 114t142 42t173.5 -27v-115h-53v80q-56 14 -118 14t-101.5 -28t-39.5 -84t38.5 -88t103.5 -32h245v-45h-59v-125q0 -76 -54.5 -126.5zM142.5 69.5
q39.5 -31.5 107 -31.5t105.5 38t38 91v125h-128q-74 0 -118 -33.5t-44 -95.5t39.5 -93.5z" />
    <glyph glyph-name="slash.cap" horiz-adv-x="532" 
d="M20 -148l436 905h56l-436 -905h-56z" />
    <glyph glyph-name="backslash.cap" horiz-adv-x="532" 
d="M456 -148l-437 905h56l437 -905h-56z" />
    <glyph glyph-name="bar.cap" horiz-adv-x="217" 
d="M82 -148v905h53v-905h-53z" />
    <glyph glyph-name="brokenbar.cap" horiz-adv-x="219" 
d="M83 383v374h53v-374h-53zM83 -148v392h53v-392h-53z" />
    <glyph glyph-name="bullet.cap" horiz-adv-x="348" 
d="M174 203q-42 0 -71.5 29.5t-29.5 71.5t29.5 71.5t71.5 29.5t71.5 -29.5t29.5 -71.5t-29.5 -71.5t-71.5 -29.5z" />
    <glyph glyph-name="parenleft.smcp" horiz-adv-x="241" 
d="M44 244q0 90 31 187t87 175h57q-58 -77 -90 -172.5t-32 -189.5t31.5 -189.5t90.5 -172.5h-57q-57 79 -87.5 175.5t-30.5 186.5z" />
    <glyph glyph-name="parenright.smcp" horiz-adv-x="241" 
d="M112.5 54q31.5 95 31.5 189.5t-31.5 190t-89.5 172.5h57q56 -79 87 -176t31 -186.5t-31 -185.5t-87 -176h-57q58 77 89.5 172z" />
    <glyph glyph-name="braceleft.smcp" horiz-adv-x="271" 
d="M186 -129q-42 0 -63 22.5t-21 50.5t12 88t12 90q0 95 -102 100v43q102 5 102 100q0 29 -12 90t-12 89t21 50t63 22q18 0 48 -8v-34q-18 6 -37 6q-45 0 -45 -47q0 -18 12.5 -80.5t12.5 -95.5q0 -97 -91 -113q91 -16 91 -114q0 -33 -12.5 -95.5t-12.5 -80.5q0 -47 45 -47
q19 0 37 6v-34q-30 -8 -48 -8z" />
    <glyph glyph-name="braceright.smcp" horiz-adv-x="271" 
d="M85 -129q-16 0 -48 8v34q18 -6 38 -6q44 0 44 47q0 18 -12 80.5t-12 95.5q0 98 91 114q-91 16 -91 113q0 33 12 95.5t12 80.5q0 47 -44 47q-20 0 -38 -6v34q32 8 48 8q42 0 63.5 -22t21.5 -50t-12.5 -89t-12.5 -90q0 -95 102 -100v-43q-102 -5 -102 -100q0 -29 12.5 -89
t12.5 -88.5t-21.5 -51t-63.5 -22.5z" />
    <glyph glyph-name="bracketleft.smcp" horiz-adv-x="269" 
d="M88 -118v724h158v-38h-107v-649h107v-37h-158z" />
    <glyph glyph-name="bracketright.smcp" horiz-adv-x="269" 
d="M24 -118v37h106v649h-106v38h157v-724h-157z" />
    <glyph glyph-name="bar.smcp" horiz-adv-x="226" 
d="M88 -118v724h50v-724h-50z" />
    <glyph glyph-name="at.smcp" horiz-adv-x="630" 
d="M289 92q-53 0 -82.5 34.5t-29.5 93.5t43 107t111 48t91 -60h2q6 28 15 47h36q-36 -120 -36 -181t42 -61q37 0 62 36t25 97q0 102 -67 166t-171.5 64t-181.5 -72t-77 -177t73.5 -174.5t179.5 -69.5q80 0 139 42l17 -25q-75 -46 -157 -46q-120 0 -201 78t-81 196t86 197
t202 79t192 -72t76 -186q0 -76 -34.5 -118.5t-80.5 -42.5t-61.5 20t-16.5 40h-3q-42 -60 -112 -60zM242 150.5q21 -23.5 61.5 -23.5t70.5 38.5t30 92.5q0 82 -71 82q-47 0 -79.5 -37t-32.5 -83t21 -69.5z" />
    <glyph glyph-name="ampersand.alt.smcp" horiz-adv-x="464" 
d="M343 31.5q-46 -40.5 -123 -40.5t-125.5 36t-48.5 101q0 46 27 78.5t76 46.5q-88 33 -88 116q0 58 46.5 92.5t121.5 34.5t146 -21v-96h-51v62q-40 12 -91 12t-83.5 -22t-32.5 -66t31.5 -68.5t86.5 -24.5h202v-42h-48v-97q0 -61 -46 -101.5zM134 59.5q32 -24.5 87 -24.5
t85 29t30 71v95h-102q-60 0 -96 -25.5t-36 -73t32 -72z" />
    <glyph glyph-name="uni021A.smcp" horiz-adv-x="499" 
d="M212 -83q20 14 38.5 14t31 -14.5t12.5 -42t-17.5 -61.5t-47.5 -60l-26 20q40 51 40 90t-31 46v8zM136 0v46h85v395h-142v-87h-53v133h447v-133h-53v87h-142v-395h86v-46h-228z" />
    <glyph glyph-name="T_h" horiz-adv-x="1054" 
d="M532 0v47h79v512h-292v-509h102v-50h-265v50h103v509h-182v-110h-55v160h592l9 98h46v-348q81 76 169 76q58 0 91 -35.5t33 -102.5v-250h79v-47h-216v47h79v243q0 96 -81 96q-72 0 -154 -74v-265h79v-47h-216z" />
    <glyph glyph-name="c_t" horiz-adv-x="772" 
d="M254 -11q-100 0 -157.5 59.5t-57.5 163t58.5 163.5t158.5 60q44 0 98 -15v43q0 56 33 88.5t98 32.5h132v-160h136v-48h-136v-262q0 -41 18.5 -59.5t56.5 -18.5t67 11v-45q-39 -13 -79 -13q-121 0 -121 122v265h-74v48h74v116h-73q-85 0 -85 -82v-173h-50v88
q-46 14 -92 14q-79 0 -120 -47t-41 -127.5t43 -128t117.5 -47.5t143.5 43v-49q-67 -42 -148 -42z" />
    </font>
</defs>
</svg>
