<?xml version="1.0" standalone="no"?>
<!DOCTYPE svg PUBLIC "-//W3C//DTD SVG 1.1//EN" "http://www.w3.org/Graphics/SVG/1.1/DTD/svg11.dtd" >
<svg>
<metadata>
Created by FontForge 20120731 at Mon Oct 31 23:59:57 2016
 By ,,,
Joe Prince A^(c)2013. All Rights Reserved.
</metadata>
<defs>
<font id="KlinicSlab-Medium" horiz-adv-x="584" >
  <font-face 
    font-family="Klinic Slab Medium"
    font-weight="400"
    font-stretch="normal"
    units-per-em="1000"
    panose-1="0 0 0 0 0 0 0 0 0 0"
    ascent="750"
    descent="-250"
    x-height="428"
    cap-height="609"
    bbox="-42 -285 1159 954"
    underline-thickness="50"
    underline-position="-50"
    unicode-range="U+0020-FB06"
  />
<missing-glyph horiz-adv-x="425" 
d="M0 0v609h425v-609h-425zM59 42h306l-153 226zM365 567h-306l153 -227zM383 520l-146 -216l146 -216v432zM42 88l146 216l-146 216v-432z" />
    <glyph glyph-name="f_f" unicode="ff" horiz-adv-x="635" 
d="M36 0v68h76v291h-86v69h86v111q0 86 50.5 128t125.5 42t164 -29q39 38 114 38q29 0 79 -8v-64q-30 5 -58 5q-90 0 -90 -82v-141h115v-69h-115v-291h92v-68h-253v68h76v291h-215v-291h92v-68h-253zM311 642q-114 0 -114 -103v-111h215v143q0 31 7 52q-61 19 -108 19z" />
    <glyph glyph-name="fi" unicode="fi" horiz-adv-x="589" 
d="M36 0v68h76v291h-86v69h86v131q0 159 183 159q67 0 155 -22l-10 -63q-79 18 -130.5 18t-82 -20.5t-30.5 -72.5v-130h300v-360h73v-68h-226v68h68v292h-215v-292h92v-68h-253z" />
    <glyph glyph-name="fl" unicode="fl" horiz-adv-x="589" 
d="M36 0v68h76v291h-86v69h86v131q0 159 183 159q45 0 105 -11h97v-639h73v-68h-231v68h73v571q-51 12 -102.5 12t-82 -20.5t-30.5 -72.5v-130h115v-69h-115v-291h92v-68h-253z" />
    <glyph glyph-name="f_f_i" unicode="ffi" horiz-adv-x="889" 
d="M36 0v68h76v291h-86v69h86v111q0 86 50.5 128t125.5 42t170 -31q47 40 125.5 40t166.5 -22l-10 -63q-79 18 -130.5 18t-82 -20.5t-30.5 -72.5v-130h300v-360h73v-68h-226v68h68v292h-215v-292h92v-68h-253v68h76v291h-215v-291h92v-68h-253zM311 642q-114 0 -114 -103
v-111h215v131q0 36 9 63q-58 20 -110 20z" />
    <glyph glyph-name="f_f_l" unicode="ffl" horiz-adv-x="889" 
d="M336 0v68h76v291h-215v-291h92v-68h-253v68h76v291h-86v69h86v111q0 86 50.5 128t125.5 42t170 -31q47 40 137 40q45 0 105 -11h97v-639h73v-68h-231v68h73v571q-51 12 -102.5 12t-82 -20.5t-30.5 -72.5v-130h115v-69h-115v-291h92v-68h-253zM197 428h215v131q0 36 9 63
q-58 20 -110 20q-114 0 -114 -103v-111z" />
    <glyph glyph-name="f_f_b" unicode="ffb" horiz-adv-x="1147" 
d="M336 0v68h76v291h-215v-291h92v-68h-253v68h76v291h-86v69h86v111q0 86 50.5 128t125.5 42t170 -31q47 40 137 40q45 0 105 -11h97v-307q62 39 128 39q88 0 137.5 -58.5t49.5 -165.5t-66 -166.5t-183 -59.5q-74 0 -151 17v633q-51 12 -102.5 12t-82 -20.5t-30.5 -72.5
v-130h115v-69h-115v-291h92v-68h-253zM860 55q82 0 123.5 43.5t41.5 117t-30 115.5t-85.5 42t-112.5 -36v-276q38 -6 63 -6zM197 428h215v131q0 36 9 63q-58 20 -110 20q-114 0 -114 -103v-111z" />
    <glyph glyph-name="f_f_h" unicode="ffh" horiz-adv-x="1174" 
d="M336 0v68h76v291h-215v-291h92v-68h-253v68h76v291h-86v69h86v111q0 86 50.5 128t125.5 42t170 -31q47 40 137 40q45 0 105 -11h97v-337q80 69 163 69q60 0 93.5 -35t33.5 -101v-235h72v-68h-230v68h72v226q0 76 -67 76q-61 0 -137 -62v-240h73v-68h-231v68h73v571
q-51 12 -102.5 12t-82 -20.5t-30.5 -72.5v-130h115v-69h-115v-291h92v-68h-253zM197 539v-111h215v131q0 36 9 63q-58 20 -110 20q-114 0 -114 -103z" />
    <glyph glyph-name="f_f_j" unicode="ffj" horiz-adv-x="864" 
d="M36 0v68h76v291h-86v69h86v111q0 86 50.5 128t125.5 42t170 -31q47 40 125.5 40t166.5 -22l-10 -63q-79 18 -130.5 18t-82 -20.5t-30.5 -72.5v-130h300v-482q0 -69 -37.5 -105t-107.5 -62l-26 56q42 23 64 48.5t22 64.5v412h-215v-292h92v-68h-253v68h76v291h-215v-291
h92v-68h-253zM311 642q-114 0 -114 -103v-111h215v131q0 36 9 63q-58 20 -110 20z" />
    <glyph glyph-name="f_f_k" unicode="ffk" horiz-adv-x="1142" 
d="M336 0v68h76v291h-215v-291h92v-68h-253v68h76v291h-86v69h86v111q0 86 50.5 128t125.5 42t170 -31q47 40 137 40q45 0 105 -11h97v-639h69v-68h-227v68h73v571q-51 12 -102.5 12t-82 -20.5t-30.5 -72.5v-130h115v-69h-115v-291h92v-68h-253zM197 539v-111h215v131
q0 36 9 63q-58 20 -110 20q-114 0 -114 -103zM1072 -10q-76 0 -144 89l-102 131v4l143 149h-69v65h220v-66h-61l-139 -147l73 -91q26 -33 48 -50t42 -17t35 3v-63q-24 -7 -46 -7z" />
    <glyph glyph-name="f_f_t" unicode="fft" horiz-adv-x="935" 
d="M336 0v68h76v291h-215v-291h92v-68h-253v68h76v291h-86v69h86v111q0 86 50.5 128t125.5 42t164 -29q39 38 114 38q29 0 79 -8v-64q-30 5 -58 5q-90 0 -90 -82v-141h203v110h85v-110h128v-69h-128v-239q0 -35 16.5 -49.5t52.5 -14.5t65 11v-64q-45 -14 -91 -14
q-128 0 -128 126v244h-203v-291h92v-68h-253zM197 539v-111h215v143q0 31 7 52q-61 19 -108 19q-114 0 -114 -103z" />
    <glyph glyph-name="f_b" unicode="fb" horiz-adv-x="846" 
d="M563 -11q-74 0 -151 17v633q-51 12 -102.5 12t-82 -20.5t-30.5 -72.5v-130h115v-70h-115v-290h92v-68h-253v68h76v290h-86v70h86v131q0 159 183 159q45 0 105 -11h97v-307q62 39 128 39q88 0 137.5 -58.5t49.5 -165.5t-66 -166.5t-183 -59.5zM560 55q82 0 123.5 43.5
t41.5 117t-30 115.5t-85.5 42t-112.5 -36v-276q38 -6 63 -6z" />
    <glyph glyph-name="f_h" unicode="fh" horiz-adv-x="874" 
d="M339 0v68h73v571q-51 12 -102.5 12t-82 -20.5t-30.5 -72.5v-130h115v-69h-115v-291h92v-68h-253v68h76v291h-86v69h86v131q0 159 183 159q45 0 105 -11h97v-337q80 69 163 69q60 0 93.5 -35t33.5 -101v-235h72v-68h-230v68h72v226q0 76 -67 76q-61 0 -137 -62v-240h73
v-68h-231z" />
    <glyph glyph-name="f_j" unicode="fj" horiz-adv-x="564" 
d="M36 0v68h76v291h-86v69h86v131q0 159 183 159q67 0 155 -22l-10 -63q-79 18 -130.5 18t-82 -20.5t-30.5 -72.5v-130h300v-482q0 -69 -37.5 -105t-107.5 -62l-26 56q42 23 64 48.5t22 64.5v412h-215v-292h92v-68h-253z" />
    <glyph glyph-name="f_k" unicode="fk" horiz-adv-x="841" 
d="M339 0v68h73v571q-51 12 -102.5 12t-82 -20.5t-30.5 -72.5v-130h115v-69h-115v-291h92v-68h-253v68h76v291h-86v69h86v131q0 159 183 159q45 0 105 -11h97v-639h69v-68h-227zM772 -10q-76 0 -144 89l-102 131v4l143 149h-69v65h220v-66h-61l-139 -147l73 -91
q26 -33 48 -50t42.5 -17t33.5 3v-63q-23 -7 -45 -7z" />
    <glyph glyph-name="f_t" unicode="ft" horiz-adv-x="635" 
d="M528 -11q-128 0 -128 126v244h-203v-291h92v-68h-253v68h76v291h-86v69h86v143q0 76 41.5 111.5t112.5 35.5q27 0 79 -8v-64q-30 5 -58 5q-90 0 -90 -82v-141h203v110h85v-110h128v-69h-128v-239q0 -35 16.5 -49.5t52.5 -14.5t65 11v-64q-45 -14 -91 -14z" />
    <glyph glyph-name="t_t" unicode="tt" horiz-adv-x="643" 
d="M536 -11q-128 0 -128 126v245h-235v-240q0 -35 16.5 -49.5t52 -14.5t64.5 11v-64q-46 -14 -91 -14q-128 0 -128 126v245h-74v68h74v110h86v-110h235v110h85v-110h128v-68h-128v-240q0 -35 16.5 -49.5t52.5 -14.5t65 11v-64q-45 -14 -91 -14z" />
    <glyph glyph-name=".notdef" horiz-adv-x="425" 
d="M0 0v609h425v-609h-425zM59 42h306l-153 226zM365 567h-306l153 -227zM383 520l-146 -216l146 -216v432zM42 88l146 216l-146 216v-432z" />
    <glyph glyph-name=".null" horiz-adv-x="0" 
 />
    <glyph glyph-name="nonmarkingreturn" horiz-adv-x="333" 
 />
    <glyph glyph-name="space" unicode=" " horiz-adv-x="218" 
 />
    <glyph glyph-name="exclam" unicode="!" horiz-adv-x="249" 
d="M92 167l-15 442h95l-15 -442h-65zM124 -9q-23 0 -39.5 16.5t-16.5 39.5t16.5 40t39.5 17t40 -17t17 -40t-17 -39.5t-40 -16.5z" />
    <glyph glyph-name="quotedbl" unicode="&#x22;" horiz-adv-x="354" 
d="M59 399v223h78v-223h-78zM217 399v223h78v-223h-78z" />
    <glyph glyph-name="numbersign" unicode="#" horiz-adv-x="563" 
d="M40 128v56h99l21 147h-93v56h102l16 117h66l-17 -117h128l17 117h67l-17 -117h94v-56h-103l-21 -147h97v-56h-104l-17 -116h-67l17 116h-128l-16 -116h-66l16 116h-91zM206 184h128l20 147h-127z" />
    <glyph glyph-name="dollar" unicode="$" horiz-adv-x="461" 
d="M222 -106v98q-71 2 -129.5 30.5t-58.5 71.5q0 20 14 35t35.5 15t35 -12.5t13.5 -28.5t-6 -28q36 -20 96 -22v162q-130 36 -158 87q-14 26 -14 61q0 64 48.5 100t123.5 38v68h24v-68q66 -3 115 -30.5t49 -64.5q0 -20 -12.5 -35t-34.5 -15t-36.5 13t-14.5 29.5t6 26.5
q-33 15 -72 16v-155q39 -12 63.5 -21t54.5 -27q58 -36 58 -103.5t-50 -104t-126 -38.5v-98h-24zM320 73.5q27 18.5 27 51.5t-25.5 50.5t-75.5 33.5v-156q47 2 74 20.5zM124 371q0 -22 15.5 -37.5t31 -22t51.5 -18.5v148q-98 -6 -98 -70z" />
    <glyph glyph-name="percent" unicode="%" horiz-adv-x="640" 
d="M141 -1l-41 35l401 450l40 -35zM568 34q-31 -34 -86.5 -34t-86 34t-30.5 91.5t30.5 91.5t86 34t86.5 -34.5t31 -91.5t-31 -91zM427 125q0 -78 54.5 -78t54.5 78t-54.5 78t-54.5 -78zM245.5 267q-30.5 -34 -86 -34t-86.5 34.5t-31 91.5t31 91t86.5 34t86 -34t30.5 -91.5
t-30.5 -91.5zM105 359q0 -78 54.5 -78t54.5 78t-54.5 78t-54.5 -78z" />
    <glyph glyph-name="ampersand" unicode="&#x26;" horiz-adv-x="647" 
d="M423 54q-78 -66 -176 -66t-152.5 43t-54.5 121q0 59 32.5 100.5t99.5 84.5l-8 10q-34 43 -49 73t-15 63q0 58 42 97t110.5 39t106 -38.5t37.5 -90t-28 -87t-83 -73.5l142 -163q38 61 47 141h-62v64h200v-65h-62q-17 -119 -73 -196q49 -51 90 -51q17 0 34 6v-69
q-25 -8 -53 -8q-62 0 -125 65zM304.5 537q-17.5 20 -49.5 20t-52.5 -18.5t-20.5 -53t47 -92.5l12 -14q81 54 81 109q0 29 -17.5 49zM157 84.5q34 -26.5 98 -26.5t119 48l-157 179q-31 -20 -47.5 -33.5t-31.5 -38t-15 -53.5q0 -49 34 -75.5z" />
    <glyph glyph-name="quotesingle" unicode="'" horiz-adv-x="196" 
d="M59 399v223h78v-223h-78z" />
    <glyph glyph-name="parenleft" unicode="(" horiz-adv-x="269" 
d="M72 23q-38 120 -38 231.5t38 232t107 220.5h87q-73 -98 -111.5 -218t-38.5 -234.5t38.5 -234.5t111.5 -218h-87q-69 101 -107 221z" />
    <glyph glyph-name="parenright" unicode=")" horiz-adv-x="269" 
d="M153 255q0 114 -39 234t-112 218h87q69 -100 107.5 -220.5t38.5 -232t-38 -231.5t-108 -221h-87q73 98 112 218.5t39 234.5z" />
    <glyph glyph-name="asterisk" unicode="*" horiz-adv-x="396" 
d="M198 318q-14 0 -24.5 9.5t-10.5 24t5.5 32.5t14.5 42.5t13 41.5h4q4 -17 13 -42q20 -54 20 -71.5t-10.5 -27t-24.5 -9.5zM198 646q14 0 24.5 -9.5t10.5 -23.5t-5.5 -32t-14.5 -43t-13 -41h-4q-4 16 -13 41q-20 56 -20 72.5t10.5 26t24.5 9.5zM127.5 407
q-12.5 -14 -22.5 -19.5t-23.5 -5.5t-22.5 14.5t-9 28t15.5 22t58 17t60.5 13.5l3 -4q-13 -12 -30 -32t-29.5 -34zM340 564q5 -7 5 -14q0 -34 -47 -44q-18 -4 -44 -9t-42 -9l-3 4q13 13 41.5 45.5t39.5 39t24.5 6.5t25.5 -19zM324 450q22 -12 22 -25.5t-9 -28t-22.5 -14.5
t-23.5 5.5t-22.5 19.5t-29.5 34t-30 32l3 4q17 -5 59.5 -13t52.5 -14zM56 564q12 18 25.5 18t24.5 -6t39.5 -38.5t41.5 -45.5l-3 -4q-16 4 -42 9q-61 12 -74 19q-17 10 -17 25.5t5 22.5z" />
    <glyph glyph-name="plus" unicode="+" horiz-adv-x="480" 
d="M205 30v174h-172v66h172v175h69v-175h174v-66h-174v-174h-69z" />
    <glyph glyph-name="comma" unicode="," horiz-adv-x="220" 
d="M110 104q25 0 40.5 -18t15.5 -50t-28 -81t-66 -81l-35 30q43 49 54 95q-17 4 -27.5 17t-10.5 34.5t16 37.5t41 16z" />
    <glyph glyph-name="hyphen" unicode="-" horiz-adv-x="386" 
d="M56 195v74h274v-74h-274z" />
    <glyph glyph-name="period" unicode="." horiz-adv-x="210" 
d="M105 -9q-23 0 -39.5 16.5t-16.5 39.5t16.5 40t39.5 17t39.5 -17t16.5 -40t-16.5 -39.5t-39.5 -16.5z" />
    <glyph glyph-name="slash" unicode="/" horiz-adv-x="534" 
d="M20 -198l416 905h80l-415 -905h-81z" />
    <glyph glyph-name="zero" unicode="0" horiz-adv-x="529" 
d="M265 -11q-111 0 -166 69.5t-55 178t55 177.5t166 69t166 -69.5t55 -177.5t-55 -177.5t-166 -69.5zM164.5 104.5q32.5 -48.5 100 -48.5t100 48.5t32.5 131.5t-32.5 132t-100 49t-100 -49t-32.5 -132t32.5 -131.5z" />
    <glyph glyph-name="one" unicode="1" horiz-adv-x="354" 
d="M54 0v66h102v334q-42 -35 -82 -35q-24 0 -34 12.5t-10 23t2 17.5l134 54h75v-406h88v-66h-275z" />
    <glyph glyph-name="two" unicode="2" horiz-adv-x="461" 
d="M298.5 269.5q19.5 34.5 19.5 69t-23.5 57t-69 22.5t-86.5 -19q6 -11 6 -28t-14 -31.5t-38 -14.5t-38 14.5t-14 36.5q0 44 57 75.5t134 31.5t124.5 -35t47.5 -109t-64.5 -140t-166.5 -125h249v-74h-361l-14 60q14 11 56.5 38.5t73.5 51t66.5 54.5t55 65.5z" />
    <glyph glyph-name="three" unicode="3" horiz-adv-x="490" 
d="M389.5 -93q-61.5 -47 -146 -47t-146 29.5t-61.5 77.5q0 24 16 40t41 16t39.5 -15.5t14.5 -31.5t-7 -32q42 -18 97 -18t91 29.5t36 82.5q0 112 -155 112h-41v64h40q65 0 102 27t37 77t-31 75t-82 25t-89 -19q7 -8 7 -27t-15.5 -34.5t-39.5 -15.5t-39.5 15.5t-15.5 38.5
q1 47 59 77t141 30t137 -41.5t54 -115.5q0 -51 -27.5 -87t-76.5 -53q122 -34 122 -150q0 -82 -61.5 -129z" />
    <glyph glyph-name="four" unicode="4" horiz-adv-x="491" 
d="M206 -129v62h96v99h-285v58q73 84 124.5 191t62.5 200q13 3 27.5 3t26.5 -8q20 -12 20 -44q0 -60 -54 -164.5t-114 -171.5h195v81q24 42 46 104h34v-185h83v-64h-81v-99h79v-62h-260z" />
    <glyph glyph-name="five" unicode="5" horiz-adv-x="491" 
d="M397.5 -86.5q-61.5 -53.5 -149 -53.5t-151.5 36.5t-64 84.5q0 23 15 38.5t39 15.5t39.5 -15.5t15.5 -32.5t-8 -31q39 -29 99.5 -29t99.5 33t39 96t-35.5 97.5t-86 34.5t-86 -19t-55.5 -46l-59 27q40 146 43 322h336q5 -17 5 -29q0 -54 -85 -54q-28 0 -97.5 6t-91.5 7
q-5 -113 -27 -188q57 41 135.5 41t134.5 -52.5t56 -144t-61.5 -145z" />
    <glyph glyph-name="six" unicode="6" horiz-adv-x="518" 
d="M420.5 44q-57.5 -55 -157.5 -55t-159 71.5t-59 212.5q0 198 104 289q56 50 131 50t122 -31t47 -70q0 -21 -13.5 -37.5t-37.5 -16.5t-39 14.5t-15 30.5t7 28q-24 16 -68 16q-143 0 -155 -245q21 36 63.5 60t97.5 24q84 0 136.5 -54t52.5 -143t-57.5 -144zM171 93.5
q34 -38.5 93 -38.5t92 36t33 95.5t-32 98t-89.5 38.5t-94 -36.5t-36.5 -95.5t34 -97.5z" />
    <glyph glyph-name="seven" unicode="7" horiz-adv-x="475" 
d="M275 -134q-15 -6 -38.5 -6t-37.5 15.5t-14 57.5q0 84 52 216t120 239q-18 -6 -39.5 -6t-70.5 13.5t-74 13.5q-77 0 -82 -93h-68v156h63v-56q20 62 85 62q32 0 83.5 -20.5t70 -20.5t30.5 3q9 42 53 42q22 0 36.5 -14t14.5 -34.5t-19 -51.5q-166 -269 -166 -473
q0 -34 1 -43z" />
    <glyph glyph-name="eight" unicode="8" horiz-adv-x="527" 
d="M426 35q-59 -46 -162.5 -46t-162.5 46t-59 125q0 61 35.5 101.5t94.5 56.5q-46 15 -75.5 50t-29.5 88q0 68 52.5 112t144 44t144.5 -44t53 -112q0 -52 -30 -87.5t-76 -50.5q60 -16 95 -56.5t35 -101.5q0 -79 -59 -125zM264 54q64 0 99 31.5t35 83.5t-36 83.5t-98.5 31.5
t-98.5 -31.5t-36 -83.5t35.5 -83.5t99.5 -31.5zM264 549q-52 0 -83 -26.5t-31 -70.5t31 -73t82.5 -29t82.5 29t31 73t-30.5 70.5t-82.5 26.5z" />
    <glyph glyph-name="nine" unicode="9" horiz-adv-x="510" 
d="M344 377.5q-33 39.5 -91.5 39.5t-93.5 -38.5t-35 -95t33.5 -93.5t90 -37t93 36t36.5 92.5t-33 96zM347 -111.5q-46 -28.5 -111.5 -28.5t-123 30.5t-57.5 75.5q0 23 15.5 38.5t39.5 15.5t39 -14.5t15 -33t-8 -29.5q34 -18 80 -18q75 0 110.5 63.5t40.5 186.5
q-22 -37 -64.5 -61t-98.5 -24q-83 0 -135.5 53t-52.5 140.5t59 143.5t159 56t158 -71t58 -217q0 -134 -51 -229q-26 -49 -72 -77.5z" />
    <glyph glyph-name="colon" unicode=":" horiz-adv-x="226" 
d="M113 -9q-23 0 -40 16.5t-17 39.5t17 40t40 17t39.5 -17t16.5 -40t-16.5 -39.5t-39.5 -16.5zM113 294q-23 0 -40 16.5t-17 40t17 40t40 16.5t39.5 -16.5t16.5 -40t-16.5 -40t-39.5 -16.5z" />
    <glyph glyph-name="semicolon" unicode=";" horiz-adv-x="238" 
d="M121 294q-23 0 -40 16.5t-17 40t17 40t40 16.5t39.5 -16.5t16.5 -40t-16.5 -40t-39.5 -16.5zM121 104q25 0 40.5 -18t15.5 -50t-28 -81t-66 -81l-35 30q43 49 54 95q-17 4 -28 17t-11 34.5t16.5 37.5t41.5 16z" />
    <glyph glyph-name="less" unicode="&#x3c;" horiz-adv-x="451" 
d="M399 28l-370 189v39l370 189v-75l-272 -133l272 -133v-76z" />
    <glyph glyph-name="equal" unicode="=" horiz-adv-x="533" 
d="M59 89v69h415v-69h-415zM59 315v69h415v-69h-415z" />
    <glyph glyph-name="greater" unicode="&#x3e;" horiz-adv-x="451" 
d="M52 28v76l272 133l-272 133v75l370 -189v-39z" />
    <glyph glyph-name="question" unicode="?" horiz-adv-x="376" 
d="M31 601q64 20 137 20t122 -36.5t49 -106.5q0 -71 -51 -124q-22 -22 -43 -42q-51 -50 -51 -94q0 -20 11 -51h-81q-9 23 -9 53t14 57t33.5 47.5t39.5 41.5q48 50 48 105q0 84 -103 84q-50 0 -116 -18v64zM165 -9q-23 0 -40 16.5t-17 39.5t17 40t40 17t39.5 -17t16.5 -40
t-16.5 -39.5t-39.5 -16.5z" />
    <glyph glyph-name="at" unicode="@" horiz-adv-x="758" 
d="M336 50q-65 0 -101.5 43t-36.5 118.5t52.5 135.5t132 60t111.5 -71h2q6 21 18 55h51q-39 -151 -39 -225t47 -74q40 0 68 43.5t28 116.5q0 126 -79.5 204t-204.5 78t-214.5 -88.5t-89.5 -215t86.5 -213t212.5 -86.5q89 0 168 52l23 -36q-94 -58 -193 -58
q-145 0 -242.5 100t-97.5 244.5t104 243.5t244.5 99t232.5 -91t92 -234q0 -95 -42 -148t-107 -53q-46 0 -66.5 23.5t-23.5 50.5h-4q-50 -74 -132 -74zM287 130q23 -27 68.5 -27t80 45t34.5 100q0 107 -81 107q-53 0 -89 -44t-36 -99t23 -82z" />
    <glyph glyph-name="A" unicode="A" horiz-adv-x="682" 
d="M-1 0v71h78l189 467h-87v71h214l218 -538h79v-71h-261v71h91l-47 117h-263l-46 -117h90v-71h-255zM238 259h208l-104 265z" />
    <glyph glyph-name="B" unicode="B" horiz-adv-x="612" 
d="M38 0v71h90v467h-90v71h290q101 0 162 -41.5t61 -115.5q0 -106 -119 -140q71 -15 105.5 -55t34.5 -95q0 -76 -61 -119t-169 -43h-304zM214 70h126q67 0 106 26t39 75.5t-39.5 76.5t-109.5 27h-122v-205zM214 343h103q70 0 108.5 26t38.5 73t-36.5 72t-99.5 25h-114v-196z
" />
    <glyph glyph-name="C" unicode="C" horiz-adv-x="619" 
d="M364 -12q-146 0 -235.5 84t-89.5 230t88 232.5t236 86.5q120 0 218 -47v-160h-85v112q-60 21 -129 21q-106 0 -171.5 -63.5t-65.5 -179t68 -178t172.5 -62.5t210.5 61v-84q-99 -53 -217 -53z" />
    <glyph glyph-name="D" unicode="D" horiz-adv-x="684" 
d="M38 0v71h90v467h-90v71h282q150 0 236.5 -80.5t86.5 -224t-86.5 -224t-236.5 -80.5h-282zM216 71h104q111 0 172 61t61 172t-61 172.5t-172 61.5h-104v-467z" />
    <glyph glyph-name="E" unicode="E" horiz-adv-x="581" 
d="M38 0v71h90v467h-90v71h493v-171h-81v100h-234v-196h252v-71h-252v-200h236v103h82v-174h-496z" />
    <glyph glyph-name="F" unicode="F" horiz-adv-x="548" 
d="M38 0v71h90v467h-90v71h487v-181h-81v109h-228v-208h235v-73h-235v-185h99v-71h-277z" />
    <glyph glyph-name="G" unicode="G" horiz-adv-x="684" 
d="M368 -12q-152 0 -240 84t-88 228.5t87 232.5t242 88q127 0 231 -50v-147h-82v99q-78 24 -146 24q-115 0 -179.5 -65.5t-64.5 -178.5t64 -176.5t178 -63.5q73 0 151 29v158h-142v70h280v-70h-56v-204q-109 -58 -235 -58z" />
    <glyph glyph-name="H" unicode="H" horiz-adv-x="758" 
d="M38 0v71h90v467h-90v71h268v-71h-90v-195h326v195h-90v71h267v-71h-89v-467h89v-71h-267v71h90v198h-326v-198h90v-71h-268z" />
    <glyph glyph-name="I" unicode="I" horiz-adv-x="343" 
d="M38 0v71h90v467h-90v71h267v-71h-89v-467h89v-71h-267z" />
    <glyph glyph-name="J" unicode="J" horiz-adv-x="317" 
d="M114 9v529h-83v71h254v-71h-83v-530q0 -84 -50 -124q-25 -20 -46 -31t-58 -26l-29 61q95 51 95 121z" />
    <glyph glyph-name="K" unicode="K" horiz-adv-x="676" 
d="M398 539v70h256v-71h-77l-215 -228l209 -239h92v-71h-146l-261 302v6l221 231h-79zM38 0v71h90v467h-90v71h265v-71h-87v-467h95v-71h-273z" />
    <glyph glyph-name="L" unicode="L" horiz-adv-x="551" 
d="M38 0v71h90v467h-90v71h280v-71h-102v-467h236v109h82v-180h-496z" />
    <glyph glyph-name="M" unicode="M" horiz-adv-x="903" 
d="M34 0v71h85l17 467h-85v71h222l178 -449l179 449h222v-71h-86l18 -467h85v-71h-251v71h85l-17 456l-199 -483h-71l-199 483l-17 -456h85v-71h-251z" />
    <glyph glyph-name="N" unicode="N" horiz-adv-x="748" 
d="M38 0v71h90v467h-90v71h180l329 -467v396h-89v71h262v-71h-89v-538h-79l-341 481v-410h89v-71h-262z" />
    <glyph glyph-name="O" unicode="O" horiz-adv-x="702" 
d="M351 -12q-139 0 -226 88.5t-87 227.5t87 228t226 89t226 -89t87 -228t-87 -227.5t-226 -88.5zM190.5 128q61.5 -66 160 -66t161 66.5t62.5 176t-62 176t-160.5 66.5t-160.5 -67t-62 -176.5t61.5 -175.5z" />
    <glyph glyph-name="P" unicode="P" horiz-adv-x="581" 
d="M38 0v71h90v467h-90v71h276q111 0 177 -52.5t66 -140.5t-66 -140.5t-177 -52.5h-98v-152h108v-71h-286zM216 538v-244h100q77 0 114.5 33.5t37.5 88.5t-37.5 88.5t-114.5 33.5h-100z" />
    <glyph glyph-name="Q" unicode="Q" horiz-adv-x="704" 
d="M122.5 80q-83.5 88 -83.5 225.5t87 226.5t226 89t226 -89t87 -228q0 -112 -58.5 -193.5t-159.5 -108.5l128 -75l-47 -67l-187 128q-135 4 -218.5 92zM191 128q62 -66 160.5 -66t161 66.5t62.5 176t-62 176t-161 66.5t-161 -67t-62 -176.5t62 -175.5z" />
    <glyph glyph-name="R" unicode="R" horiz-adv-x="639" 
d="M38 0v71h90v467h-90v71h285q110 0 176.5 -50.5t66.5 -135.5q0 -61 -35 -105t-99 -62l103 -185h84v-71h-144l-129 233h-130v-162h89v-71h-267zM216 302h109q77 0 114.5 32t37.5 86t-37.5 86t-114.5 32h-109v-236z" />
    <glyph glyph-name="S" unicode="S" horiz-adv-x="520" 
d="M416.5 29.5q-61.5 -41.5 -159.5 -41.5t-212 32v142h80v-87q60 -16 125 -16t104 23t39 67.5t-35 71t-84.5 42t-99 33.5t-84.5 57t-35 100q0 82 59 125t156.5 43t188.5 -31v-140h-81v88q-52 12 -108.5 12t-93 -23.5t-36.5 -64.5t35 -66t84.5 -40.5t99 -35t84.5 -60
t35 -103.5q0 -86 -61.5 -127.5z" />
    <glyph glyph-name="T" unicode="T" 
d="M152 0v71h96v467h-148v-101h-80v172h544v-172h-81v101h-147v-467h96v-71h-280z" />
    <glyph glyph-name="U" unicode="U" horiz-adv-x="696" 
d="M522.5 46.5q-64.5 -58.5 -171 -58.5t-174.5 54.5t-68 160.5v335h-89v71h266v-71h-89v-328q0 -73 43 -108t111.5 -35t111 35t42.5 109v327h-92v71h263v-71h-89v-329q0 -104 -64.5 -162.5z" />
    <glyph glyph-name="V" unicode="V" horiz-adv-x="655" 
d="M-6 538v71h263v-71h-91l163 -434l163 434h-91v71h260v-71h-79l-210 -538h-89l-210 538h-79z" />
    <glyph glyph-name="W" unicode="W" horiz-adv-x="935" 
d="M-3 538v71h256v-71h-94l135 -431l135 390l-14 41h-82v71h260v-71h-95l143 -429l134 429h-94v71h257v-71h-76l-175 -538h-84l-133 380l-138 -380h-84l-175 538h-76z" />
    <glyph glyph-name="X" unicode="X" horiz-adv-x="649" 
d="M13 0v70h75l188 239l-177 230h-75v70h261v-69h-86l127 -171l131 171h-85v69h255v-70h-75l-179 -228l187 -242h76v-69h-263v69h86l-136 181l-139 -181h86v-69h-257z" />
    <glyph glyph-name="Y" unicode="Y" horiz-adv-x="632" 
d="M181 0v71h92v148l-201 319h-78v71h268v-70h-94l149 -241l149 241h-93v70h263v-71h-76l-199 -315v-152h92v-71h-272z" />
    <glyph glyph-name="Z" unicode="Z" horiz-adv-x="570" 
d="M40 0v75l368 459h-278v-104h-82v179h467v-77l-367 -458h301v111h82v-185h-491z" />
    <glyph glyph-name="bracketleft" unicode="[" horiz-adv-x="296" 
d="M78 -198v905h200v-59h-121v-787h121v-59h-200z" />
    <glyph glyph-name="backslash" unicode="\" horiz-adv-x="534" 
d="M433 -198l-415 905h80l416 -905h-81z" />
    <glyph glyph-name="bracketright" unicode="]" horiz-adv-x="296" 
d="M18 -198v59h121v787h-121v59h200v-905h-200z" />
    <glyph glyph-name="asciicircum" unicode="^" horiz-adv-x="441" 
d="M36 338l161 290h47l161 -290h-79l-106 205l-105 -205h-79z" />
    <glyph glyph-name="underscore" unicode="_" horiz-adv-x="523" 
d="M55 -88v55h412v-55h-412z" />
    <glyph glyph-name="grave" unicode="`" horiz-adv-x="331" 
d="M244 505l-186 119l57 72l157 -156z" />
    <glyph glyph-name="a" unicode="a" horiz-adv-x="472" 
d="M163 -11q-60 0 -98.5 33.5t-38.5 94.5q0 132 196 132h84v33q0 49 -22 69.5t-85 20.5t-138 -25v66q78 26 162.5 26t126 -36t41.5 -117v-218h71v-68h-153v52q-65 -63 -146 -63zM187 52q59 0 119 56v85h-80q-114 0 -114 -73q0 -31 19 -49.5t56 -18.5z" />
    <glyph glyph-name="b" unicode="b" horiz-adv-x="500" 
d="M217 -11q-74 0 -151 17v633h-73v68h158v-307q62 39 128 39q88 0 137.5 -58.5t49.5 -165.5t-66 -166.5t-183 -59.5zM214 55q81 0 123 43.5t42 117t-30 115.5t-86.5 42t-111.5 -36v-276q36 -6 63 -6z" />
    <glyph glyph-name="c" unicode="c" horiz-adv-x="442" 
d="M406 28q-67 -39 -160.5 -39t-152.5 59t-59 165.5t60.5 166t162.5 59.5q71 0 151 -29v-134h-73v86q-35 11 -70 11q-70 0 -106.5 -42t-36.5 -115.5t37.5 -116.5t105.5 -43t141 41v-69z" />
    <glyph glyph-name="d" unicode="d" horiz-adv-x="532" 
d="M364 54q-58 -65 -143 -65t-136 63.5t-51 162.5t53.5 161.5t144.5 62.5q71 0 126 -46v246h-87v68h172v-639h73v-68h-152v54zM152.5 101q30.5 -45 90.5 -45t115 51v223q-50 42 -110 42t-93 -42.5t-33 -113t30.5 -115.5z" />
    <glyph glyph-name="e" unicode="e" horiz-adv-x="458" 
d="M252 -11q-105 0 -161.5 61.5t-56.5 162.5t54.5 163.5t149 62.5t142.5 -61.5t48 -150.5q0 -25 -2 -38h-306q13 -133 144 -133q67 0 141 41v-68q-69 -40 -153 -40zM319 339.5q-26 35.5 -79 35.5t-83.5 -34.5t-36.5 -89.5h228q-3 53 -29 88.5z" />
    <glyph glyph-name="f" unicode="f" horiz-adv-x="335" 
d="M36 0v68h76v291h-86v69h86v143q0 76 41.5 111.5t112.5 35.5q27 0 79 -8v-64q-30 5 -58 5q-90 0 -90 -82v-141h115v-69h-115v-291h92v-68h-253z" />
    <glyph glyph-name="g" unicode="g" horiz-adv-x="468" 
d="M381.5 -171q-53.5 -39 -160.5 -39t-155.5 33.5t-48.5 92.5t68 101q-31 20 -31 58t52 75q-62 43 -62 128q0 67 45.5 114t131.5 47q40 0 73 -11h165v-68l-88 4q28 -39 28 -86q0 -67 -46 -114t-132 -47q-40 0 -73 11q-19 -14 -19 -29q0 -19 31.5 -27.5t76.5 -13t90 -13.5
t76.5 -38t31.5 -77q0 -62 -53.5 -101zM221 377q-44 0 -71 -26.5t-27 -72.5t27 -73t71 -27t71 26.5t27 73t-27 73t-71 26.5zM93 -74q0 -72 131 -72q64 0 95.5 21.5t31.5 45.5t-13 36t-37.5 18.5t-48.5 9.5t-58 7t-55 8q-46 -31 -46 -74z" />
    <glyph glyph-name="h" unicode="h" horiz-adv-x="554" 
d="M19 0v68h73v571h-73v68h158v-337q80 69 163 69q59 0 92.5 -35t33.5 -101v-235h73v-68h-231v68h73v226q0 76 -67 76q-63 0 -137 -62v-240h73v-68h-231z" />
    <glyph glyph-name="i" unicode="i" horiz-adv-x="281" 
d="M32 0v68h72v292h-72v68h158v-360h72v-68h-230zM78 576q0 26 18.5 44t44 18t44 -18t18.5 -44t-18.5 -44t-44 -18t-44 18t-18.5 44z" />
    <glyph glyph-name="j" unicode="j" horiz-adv-x="244" 
d="M93 -52v412h-77v68h162v-482q0 -69 -37.5 -104.5t-107.5 -62.5l-27 56q42 22 64.5 48t22.5 65zM67 576q0 26 18.5 44t43.5 18t43.5 -18t18.5 -44t-18.5 -44t-43.5 -18t-43.5 18t-18.5 44z" />
    <glyph glyph-name="k" unicode="k" horiz-adv-x="521" 
d="M19 0v68h73v571h-73v68h158v-639h69v-68h-227zM451 -10q-77 0 -143 89l-102 131v4l143 149h-69v65h219v-66h-60l-140 -147l73 -91q26 -33 48.5 -50t43 -17t33.5 3v-63q-23 -7 -46 -7z" />
    <glyph glyph-name="l" unicode="l" horiz-adv-x="268" 
d="M19 0v68h73v571h-73v68h158v-639h73v-68h-231z" />
    <glyph glyph-name="m" unicode="m" horiz-adv-x="802" 
d="M33 0v67h67v294h-67v67h147v-55q74 66 148 66q86 0 111 -71q77 71 154 71q54 0 87 -32.5t33 -99.5v-240h68v-67h-220v67h68v233q0 72 -63 72q-56 0 -117 -54v-251h68v-67h-220v67h68v233q0 72 -63 72q-55 0 -118 -55v-250h68v-67h-219z" />
    <glyph glyph-name="n" unicode="n" horiz-adv-x="567" 
d="M32 0v68h72v292h-72v68h156v-60q80 71 165 71q59 0 92.5 -35t33.5 -101v-235h73v-68h-231v68h73v226q0 76 -67 76q-63 0 -137 -62v-240h72v-68h-230z" />
    <glyph glyph-name="o" unicode="o" horiz-adv-x="504" 
d="M252 -11q-100 0 -159 61t-59 163.5t59 164t159 61.5t159 -61.5t59 -164t-59 -163.5t-159 -61zM252 55q62 0 96 43.5t34 115.5t-34 115.5t-96 43.5t-96 -43.5t-34 -115.5t34 -115.5t96 -43.5z" />
    <glyph glyph-name="p" unicode="p" horiz-adv-x="534" 
d="M18 -199v68h73v491h-73v68h153v-54q59 65 143.5 65t135 -62.5t50.5 -161.5t-53.5 -162.5t-144.5 -63.5q-71 0 -126 46v-166h86v-68h-244zM382.5 327q-30.5 45 -92 45t-114.5 -53v-221q44 -42 107 -42t96.5 43t33.5 113t-30.5 115z" />
    <glyph glyph-name="q" unicode="q" horiz-adv-x="507" 
d="M270 -199v68h85v172q-55 -52 -135.5 -52t-133 62.5t-52.5 163.5t55.5 162.5t137.5 61.5t140 -54l7 43h66v-559h73v-68h-243zM355 328q-46 44 -105.5 44t-93.5 -41.5t-34 -112.5t32.5 -116.5t92 -45.5t108.5 45v227z" />
    <glyph glyph-name="r" unicode="r" horiz-adv-x="362" 
d="M32 0v68h72v292h-72v68h155v-84q57 95 152 95h10v-86h-15q-84 0 -144 -52v-233h81v-68h-239z" />
    <glyph glyph-name="s" unicode="s" horiz-adv-x="406" 
d="M330.5 23q-41.5 -34 -128 -34t-164.5 24v114h69v-61q46 -13 90 -13t68.5 14.5t24.5 40.5t-25.5 42t-61.5 26t-72 23t-61.5 41.5t-25.5 79.5t42.5 85t120 34t146.5 -23v-113h-70v64q-34 8 -74 8q-83 0 -83 -54q0 -46 87 -69q36 -9 72 -22t61.5 -42t25.5 -80t-41.5 -85z
" />
    <glyph glyph-name="t" unicode="t" horiz-adv-x="322" 
d="M216 -11q-128 0 -128 126v244h-75v69h75v110h85v-110h127v-69h-127v-239q0 -35 16.5 -49.5t51.5 -14.5t66 11v-64q-47 -14 -91 -14z" />
    <glyph glyph-name="u" unicode="u" horiz-adv-x="553" 
d="M213 -11q-59 0 -92.5 35t-33.5 101v235h-73v68h158v-294q0 -76 66 -76t138 61v241h-78v68h164v-360h72v-68h-156v59q-79 -70 -165 -70z" />
    <glyph glyph-name="v" unicode="v" horiz-adv-x="524" 
d="M6 361v67h214v-64h-70l114 -275l114 274h-70v65h209v-67h-58l-156 -361h-82l-157 361h-58z" />
    <glyph glyph-name="w" unicode="w" horiz-adv-x="734" 
d="M8 362v66h212v-66h-75l80 -257l106 323h75l108 -323l78 257h-74v66h207v-66h-60l-115 -362h-73l-111 311l-106 -311h-74l-120 362h-58z" />
    <glyph glyph-name="x" unicode="x" horiz-adv-x="521" 
d="M22 0v64h54l135 154l-127 146h-56v64h217v-62h-65l87 -103l85 103h-64v62h207v-64h-54l-130 -149l132 -151h55v-64h-211v62h62l-94 109l-90 -109h63v-62h-206z" />
    <glyph glyph-name="y" unicode="y" horiz-adv-x="516" 
d="M151 -210q-56 0 -109 31l25 58q42 -23 73 -23q57 0 77 59l29 85h-65l-113 361h-57v67h215v-68h-70l99 -333l116 333h-69v68h209v-67h-56l-164 -461q-38 -110 -140 -110z" />
    <glyph glyph-name="z" unicode="z" horiz-adv-x="434" 
d="M37 0v55l246 312h-170v-81h-72v142h348v-53l-248 -313h185v87h71v-149h-360z" />
    <glyph glyph-name="braceleft" unicode="{" horiz-adv-x="300" 
d="M213 -212q-58 0 -86.5 30.5t-28.5 77.5q0 25 14.5 98.5t14.5 109.5q0 109 -119 117v65q66 4 92.5 34.5t26.5 74.5t-14.5 117t-14.5 99q0 47 28.5 77.5t86.5 30.5q30 0 63 -10v-52q-26 6 -47 6q-53 0 -53 -57q0 -23 15 -99t15 -116q0 -115 -105 -138q105 -23 105 -137
q0 -40 -15 -116t-15 -100q0 -57 53 -57q17 0 47 7v-52q-33 -10 -63 -10z" />
    <glyph glyph-name="bar" unicode="|" horiz-adv-x="234" 
d="M78 -198v905h79v-905h-79z" />
    <glyph glyph-name="braceright" unicode="}" horiz-adv-x="300" 
d="M87 -212q-30 0 -63 10v52q30 -7 47 -7q53 0 53 57q0 24 -15 100t-15 116q0 114 105 137q-105 23 -105 138q0 40 15 116t15 99q0 57 -53 57q-21 0 -47 -6v52q33 10 63 10q58 0 86.5 -30.5t28.5 -77.5q0 -26 -14.5 -99t-14.5 -117t26.5 -74.5t92.5 -34.5v-65
q-119 -8 -119 -117q0 -36 14.5 -109.5t14.5 -98.5q0 -47 -28.5 -77.5t-86.5 -30.5z" />
    <glyph glyph-name="asciitilde" unicode="~" horiz-adv-x="589" 
d="M200 336q36 0 74 -21.5t72 -43t61 -21.5q53 0 91 86l44 -22q-40 -102 -88 -128q-23 -12 -56 -12t-99.5 44t-101.5 44q-60 0 -102 -89l-44 21q26 64 60.5 103t88.5 39z" />
    <glyph glyph-name="exclamdown" unicode="&#xa1;" horiz-adv-x="229" 
d="M147 263l15 -443h-95l15 443h65zM115 439q23 0 39.5 -17t16.5 -40t-16.5 -39.5t-39.5 -16.5t-40 16.5t-17 39.5t17 40t40 17z" />
    <glyph glyph-name="cent" unicode="&#xa2;" horiz-adv-x="443" 
d="M233 47q-32 0 -51 5l-43 -122l-28 8l42 123q-53 22 -82.5 71t-29.5 117q0 90 51 145.5t141 55.5q29 0 52 -6l29 85l28 -10l-29 -83q76 -33 94 -128h-68q-10 49 -44 73l-96 -277q18 -5 37 -5q46 0 72 27t33 70h68q-22 -149 -176 -149zM234 398q-58 0 -89.5 -41.5
t-31.5 -107.5q0 -94 60 -131l94 275q-17 5 -33 5z" />
    <glyph glyph-name="sterling" unicode="&#xa3;" horiz-adv-x="528" 
d="M340 -8q-33 0 -92 11.5t-93 11.5t-81 -17l-18 42q44 15 68 43t24 56t-23 84h-85v35h71q-22 51 -22 90q0 64 49 108.5t142 44.5q53 0 92 -15.5t59 -40.5q38 -47 40 -98h-78q-2 38 -28 67t-83 29t-84 -27t-27 -66t22 -92h174v-35h-160q20 -52 20 -74q0 -42 -33 -78
q21 0 62.5 -8.5t67.5 -8.5q77 0 118 60l51 -43q-54 -79 -153 -79z" />
    <glyph glyph-name="currency" unicode="&#xa4;" horiz-adv-x="574" 
d="M414 98q-56 -43 -127.5 -43t-127.5 43l-65 -68l-42 42l68 65q-43 57 -43 128t43 127l-68 66l42 42l65 -68q58 43 127.5 43t127.5 -43l66 68l42 -42l-68 -66q43 -58 43 -126.5t-43 -128.5l68 -65l-42 -42zM185 162q42 -42 101.5 -42t102 42t42.5 102.5t-42.5 102.5
t-102 42t-101.5 -42t-42 -102.5t42 -102.5z" />
    <glyph glyph-name="yen" unicode="&#xa5;" horiz-adv-x="601" 
d="M181 0v57h79v71h-159v37h159v17l-39 59h-120v36h96l-101 154h-66v60h227v-60h-74l120 -189l119 189h-74v60h222v-60h-65l-101 -154h97v-36h-121l-39 -59v-17h160v-37h-160v-71h79v-57h-239z" />
    <glyph glyph-name="brokenbar" unicode="&#xa6;" horiz-adv-x="237" 
d="M79 343v364h79v-364h-79zM79 -198v400h79v-400h-79z" />
    <glyph glyph-name="section" unicode="&#xa7;" horiz-adv-x="432" 
d="M324.5 -59q-41.5 -29 -106 -29t-116.5 27t-52 66q0 18 12.5 32.5t34.5 14.5t35 -13.5t13 -28t-8 -28.5q30 -19 70.5 -19t63.5 14t23 39.5t-25.5 44.5t-62 32.5t-72.5 29t-61.5 43.5t-25.5 67q0 65 71 101q-48 34 -48 89t44 83.5t101.5 28.5t106.5 -24t49 -64
q0 -20 -12 -34t-34 -14t-34.5 12.5t-12.5 27.5t7 29q-27 15 -63 15t-57.5 -14.5t-21.5 -40t25 -44.5t61 -32t72.5 -28.5t61.5 -43.5t25 -67q0 -67 -73 -100q51 -36 51 -89.5t-41.5 -82.5zM280 256q-20 14 -58.5 29.5t-52.5 22.5q-51 -19 -51 -63q0 -34 34 -56
q27 -16 64 -30.5t51 -21.5q47 22 47 60t-34 59z" />
    <glyph glyph-name="dieresis" unicode="&#xa8;" horiz-adv-x="415" 
d="M117 509q-22 0 -37.5 15.5t-15.5 37.5t15.5 37.5t37.5 15.5t37.5 -15.5t15.5 -37.5t-15.5 -37.5t-37.5 -15.5zM299 509q-22 0 -37.5 15.5t-15.5 37.5t15.5 37.5t37.5 15.5t37.5 -15.5t15.5 -37.5t-15.5 -37.5t-37.5 -15.5z" />
    <glyph glyph-name="copyright" unicode="&#xa9;" horiz-adv-x="714" 
d="M357 -53q-131 0 -224 93t-93 224t93 224t224 93t224 -93t93 -224t-93 -224t-224 -93zM357 -13q115 0 196 81t81 196t-81 196t-196 81t-196 -81t-81 -196t81 -196t196 -81zM487 114q-53 -31 -128 -31t-125 49t-50 132t50.5 132.5t133.5 49.5q59 0 120 -26v-98h-54v64
q-28 10 -62 10q-58 0 -92 -34.5t-34 -94t33 -96.5t91 -37t117 34v-54z" />
    <glyph glyph-name="ordfeminine" unicode="&#xaa;" horiz-adv-x="369" 
d="M50 202v43h276v-43h-276zM228 336q-43 -41 -89.5 -41t-72.5 23t-26 64q0 88 132 88h52v21q0 30 -14.5 42.5t-52.5 12.5t-93 -19v50q50 19 108.5 19t87.5 -24t29 -79v-140h41v-51h-102v34zM152 341q37 0 72 35v53h-50q-69 0 -69 -45q0 -19 12 -31t35 -12z" />
    <glyph glyph-name="guillemotleft" unicode="&#xab;" horiz-adv-x="537" 
d="M408 75l-151 182v4l151 181h93l-156 -183l156 -184h-93zM183 75l-151 182v4l151 181h94l-156 -183l156 -184h-94z" />
    <glyph glyph-name="logicalnot" unicode="&#xac;" horiz-adv-x="504" 
d="M385 132v144h-326v57h382v-201h-56z" />
    <glyph glyph-name="uni00AD" unicode="&#xad;" horiz-adv-x="386" 
d="M56 195v74h274v-74h-274z" />
    <glyph glyph-name="registered" unicode="&#xae;" horiz-adv-x="417" 
d="M327 309q-49 -49 -118.5 -49t-118 49t-48.5 118.5t48.5 118t118 48.5t118.5 -48.5t49 -118t-49 -118.5zM209 288q58 0 99 40.5t41 98.5t-41 99.5t-99 41.5t-99 -41.5t-41 -99.5t41 -98.5t99 -40.5zM131 348v23h24v112h-24v24h86q30 0 47 -14t17 -35q0 -35 -35 -45l25 -42
h24v-23h-45l-34 59h-30v-36h24v-23h-79zM186 431h30q33 0 33 27q0 25 -33 25h-30v-52z" />
    <glyph glyph-name="macron" unicode="&#xaf;" horiz-adv-x="411" 
d="M69 522v65h270v-65h-270z" />
    <glyph glyph-name="degree" unicode="&#xb0;" horiz-adv-x="366" 
d="M183 348q-61 0 -104.5 43.5t-43.5 104.5t43.5 104.5t104.5 43.5t104.5 -43.5t43.5 -104.5t-43.5 -104.5t-104.5 -43.5zM183 403q39 0 66 27t27 66t-27 66.5t-66 27.5t-66 -27.5t-27 -66.5t27 -66t66 -27z" />
    <glyph glyph-name="plusminus" unicode="&#xb1;" horiz-adv-x="530" 
d="M230 137v142h-172v64h172v144h69v-144h173v-64h-173v-142h-69zM58 24v65h414v-65h-414z" />
    <glyph glyph-name="twosuperior" unicode="&#xb2;" horiz-adv-x="389" 
d="M244.5 622q14.5 27 14.5 55t-18.5 45.5t-55.5 17.5t-65 -13q5 -10 5 -24.5t-11.5 -24.5t-30.5 -10t-30 12.5t-11 30.5q0 37 44 60.5t106.5 23.5t100.5 -28.5t38 -84.5q0 -113 -181 -223h195v-60h-287l-13 51q12 9 47.5 33.5t59 42.5t51 43.5t42 52.5z" />
    <glyph glyph-name="threesuperior" unicode="&#xb3;" horiz-adv-x="366" 
d="M59 422q-26 17 -26 39.5t12 35t31 12.5t30.5 -12t11.5 -22.5t-3 -19.5q23 -10 60 -10t58.5 17t21.5 47q0 65 -99 65h-31v52h28q41 0 65 15.5t24 42.5t-19 41.5t-49 14.5t-57 -9q3 -6 3 -18t-11.5 -24t-30.5 -12t-30.5 12t-11.5 30q0 34 41 55t101 21t99 -27.5t39 -74.5
q0 -67 -73 -89q86 -25 86 -98q0 -53 -43 -84t-112.5 -31t-114.5 31z" />
    <glyph glyph-name="acute" unicode="&#xb4;" horiz-adv-x="335" 
d="M83 505l-29 35l158 156l57 -72z" />
    <glyph glyph-name="mu" unicode="&#xb5;" horiz-adv-x="588" 
d="M104 -199v559h-73v68h158v-294q0 -76 66.5 -76t137.5 61v241h-78v68h164v-360h72v-68h-156v59q-79 -70 -165 -70q-32 0 -51 15l10 -203h-85z" />
    <glyph glyph-name="paragraph" unicode="&#xb6;" horiz-adv-x="591" 
d="M171 -76v50h100v174h-45q-81 0 -138.5 54.5t-57.5 133t57.5 133.5t138.5 55h320v-51h-86v-499h86v-50h-375zM330 473v-499h71v499h-71z" />
    <glyph glyph-name="periodcentered" unicode="&#xb7;" horiz-adv-x="219" 
d="M110 196q-23 0 -40 16.5t-17 39.5t17 40t40 17t39.5 -17t16.5 -40t-16.5 -39.5t-39.5 -16.5z" />
    <glyph glyph-name="cedilla" unicode="&#xb8;" horiz-adv-x="298" 
d="M202 -179q-37 -21 -83.5 -21t-74.5 5l12 51q23 -5 49 -5q59 0 59 34q0 38 -76 38v19l48 95l45 -12l-28 -63q36 -2 61 -22.5t25 -59t-37 -59.5z" />
    <glyph glyph-name="onesuperior" unicode="&#xb9;" horiz-adv-x="317" 
d="M55 399v58h87v267q-38 -30 -63 -30q-43 0 -43 37q0 5 1 10l113 46h65v-330h71v-58h-231z" />
    <glyph glyph-name="ordmasculine" unicode="&#xba;" horiz-adv-x="369" 
d="M48 202v43h273v-43h-273zM293.5 335.5q-40.5 -40.5 -109 -40.5t-109 40.5t-40.5 109.5t40.5 110t108.5 41t109 -40.5t41 -110t-40.5 -110zM124 372q21 -28 60.5 -28t60.5 27.5t21 73.5t-21 74t-60.5 28t-60.5 -27.5t-21 -73.5t21 -74z" />
    <glyph glyph-name="guillemotright" unicode="&#xbb;" horiz-adv-x="537" 
d="M35 75l157 184l-157 183h94l151 -181v-4l-151 -182h-94zM260 75l156 184l-156 183h93l151 -181v-4l-151 -182h-93z" />
    <glyph glyph-name="onequarter" unicode="&#xbc;" horiz-adv-x="772" 
d="M50 248v51h79v254q-33 -27 -56 -27q-39 0 -39 34v7l102 42h58v-310h65v-51h-209zM249 -15l-49 27l346 611l48 -26zM566 0v45h64v49h-172v44q43 52 74.5 115t35.5 113q11 2 20 2q35 0 35 -35t-32 -94t-65 -97h110v38q20 32 31 70h26v-108h49v-48h-47v-49h46v-45h-175z" />
    <glyph glyph-name="onehalf" unicode="&#xbd;" horiz-adv-x="805" 
d="M49 249v51h78v253q-35 -27 -61 -27q-34 0 -34 32q0 4 1 9l102 42h58v-309h64v-51h-208zM695 259q0 59 -68 59q-31 0 -59 -13q5 -7 5 -22t-10.5 -25.5t-28 -10.5t-28 11.5t-10.5 28.5q0 34 42 57.5t98 23.5t89.5 -26.5t33.5 -83.5t-46 -107t-121 -97h182v-54h-263l-11 47
q152 101 182 162q13 25 13 50zM246 -14l-49 26l345 612l49 -27z" />
    <glyph glyph-name="threequarters" unicode="&#xbe;" horiz-adv-x="794" 
d="M269.5 269.5q-39.5 -28.5 -92 -28.5t-96.5 18t-44 51q0 17 11.5 28t28 11t26.5 -10.5t10 -22t-2 -16.5q22 -10 57 -10t55 16t20 45q0 61 -90 61h-32v46h30q38 0 59 14.5t21 41t-18 40.5t-48 14t-52 -10q3 -6 3 -17t-10 -21.5t-27.5 -10.5t-28 11t-10.5 27q0 32 39 51
t93.5 19t89.5 -25t35 -70q0 -61 -65 -84q77 -21 77 -90q0 -50 -39.5 -78.5zM272 -15l-49 27l346 611l49 -26zM589 0v45h63v49h-171v44q42 52 73.5 115t36.5 113q11 2 20 2q35 0 35 -35t-32 -94t-65 -97h110v38q20 33 30 70h26v-108h49v-48h-47v-49h46v-45h-174z" />
    <glyph glyph-name="questiondown" unicode="&#xbf;" horiz-adv-x="368" 
d="M339 -171q-67 -21 -138.5 -21t-120.5 36.5t-49 107.5t51 124q21 22 42 42q52 50 52 94q0 18 -11 51h80q10 -23 10 -53t-14 -57t-33.5 -48t-39.5 -42q-48 -50 -48 -105q0 -84 102 -84q54 0 117 19v-64zM205 439q23 0 39.5 -17t16.5 -40t-16.5 -39.5t-39.5 -16.5
t-39.5 16.5t-16.5 39.5t16.5 40t39.5 17z" />
    <glyph glyph-name="Agrave" unicode="&#xc0;" horiz-adv-x="682" 
d="M-1 0v71h78l189 467h-87v71h214l218 -538h79v-71h-261v71h91l-47 117h-263l-46 -117h90v-71h-255zM238 259h208l-104 265zM384 666l-190 122l57 73l162 -160z" />
    <glyph glyph-name="Aacute" unicode="&#xc1;" horiz-adv-x="682" 
d="M-1 0v71h78l189 467h-87v71h214l218 -538h79v-71h-261v71h91l-47 117h-263l-46 -117h90v-71h-255zM238 259h208l-104 265zM261 666l-28 35l162 160l57 -73z" />
    <glyph glyph-name="Acircumflex" unicode="&#xc2;" horiz-adv-x="682" 
d="M-1 0v71h78l189 467h-87v71h214l218 -538h79v-71h-261v71h91l-47 117h-263l-46 -117h90v-71h-255zM238 259h208l-104 265zM180 666l-20 26l137 137h56l139 -137l-21 -26l-146 80z" />
    <glyph glyph-name="Atilde" unicode="&#xc3;" horiz-adv-x="682" 
d="M-1 0v71h78l189 467h-87v71h214l218 -538h79v-71h-261v71h91l-47 117h-263l-46 -117h90v-71h-255zM238 259h208l-104 265zM216 786q17 10 41 10t70.5 -25.5t68.5 -25.5q39 0 67 54l33 -18q-36 -82 -69 -101q-17 -9 -40.5 -9t-70.5 25.5t-66 25.5q-38 0 -65 -53l-33 16
q31 82 64 101z" />
    <glyph glyph-name="Adieresis" unicode="&#xc4;" horiz-adv-x="682" 
d="M-1 0v71h78l189 467h-87v71h214l218 -538h79v-71h-261v71h91l-47 117h-263l-46 -117h90v-71h-255zM238 259h208l-104 265zM274.5 686.5q-15.5 -15.5 -38 -15.5t-38 15.5t-15.5 37.5t15.5 38t38 16t38 -16t15.5 -38t-15.5 -37.5zM419 671q-23 0 -38.5 15.5t-15.5 37.5
t15.5 38t38 16t38 -15.5t15.5 -38t-15 -38t-38 -15.5z" />
    <glyph glyph-name="Aring" unicode="&#xc5;" horiz-adv-x="682" 
d="M-1 0v71h78l189 467h-87v71h214l218 -538h79v-71h-261v71h91l-47 117h-263l-46 -117h90v-71h-255zM238 259h208l-104 265zM328 659q-54 0 -85 31t-31 76.5t31 76.5t85 31t85 -31t31 -76.5t-31 -76.5t-85 -31zM290.5 725q13.5 -17 38 -17t38 17t13.5 41.5t-14 41.5t-38 17
t-37.5 -17t-13.5 -41.5t13.5 -41.5z" />
    <glyph glyph-name="AE" unicode="&#xc6;" horiz-adv-x="925" 
d="M-5 0v72h74l312 467h-71v70h566v-167h-81v96h-220v-196h237v-71h-237v-200h222v98h82v-169h-478v71h88v122h-246l-81 -122h71v-71h-238zM489 263v275h-18l-182 -275h200z" />
    <glyph glyph-name="Ccedilla" unicode="&#xc7;" horiz-adv-x="619" 
d="M415.5 -179q-36.5 -21 -82.5 -21t-76 5l12 51q23 -5 49 -5q60 0 60 34q0 38 -76 38v19l24 48q-131 11 -209.5 93.5t-78.5 223t88 227.5t236 87q120 0 218 -47v-160h-84v112q-61 21 -129 21q-107 0 -172.5 -63.5t-65.5 -179t68 -178t172.5 -62.5t210.5 61v-84
q-90 -49 -202 -52l-11 -27q35 -2 60 -22.5t25 -59t-36.5 -59.5z" />
    <glyph glyph-name="Egrave" unicode="&#xc8;" horiz-adv-x="581" 
d="M38 0v71h90v467h-90v71h493v-171h-81v100h-234v-196h252v-71h-252v-200h236v103h82v-174h-496zM357 666l-190 122l58 73l161 -160z" />
    <glyph glyph-name="Eacute" unicode="&#xc9;" horiz-adv-x="581" 
d="M38 0v71h90v467h-90v71h493v-171h-81v100h-234v-196h252v-71h-252v-200h236v103h82v-174h-496zM246 666l-28 35l161 160l58 -73z" />
    <glyph glyph-name="Ecircumflex" unicode="&#xca;" horiz-adv-x="581" 
d="M38 0v71h90v467h-90v71h493v-171h-81v100h-234v-196h252v-71h-252v-200h236v103h82v-174h-496zM158 666l-20 26l138 137h55l139 -137l-21 -26l-146 80z" />
    <glyph glyph-name="Edieresis" unicode="&#xcb;" horiz-adv-x="581" 
d="M38 0v71h90v467h-90v71h493v-171h-81v100h-234v-196h252v-71h-252v-200h236v103h82v-174h-496zM215 671q-23 0 -38.5 15.5t-15.5 37.5t15.5 38t38 16t38 -15.5t15.5 -38t-15 -38t-38 -15.5zM397 671q-23 0 -38.5 15.5t-15.5 37.5t15.5 38t38 16t38 -15.5t15.5 -38
t-15 -38t-38 -15.5z" />
    <glyph glyph-name="Igrave" unicode="&#xcc;" horiz-adv-x="343" 
d="M38 0v71h90v467h-90v71h267v-71h-89v-467h89v-71h-267zM239 666l-190 122l58 73l161 -160z" />
    <glyph glyph-name="Iacute" unicode="&#xcd;" horiz-adv-x="343" 
d="M38 0v71h90v467h-90v71h267v-71h-89v-467h89v-71h-267zM108 666l-29 35l162 160l57 -73z" />
    <glyph glyph-name="Icircumflex" unicode="&#xce;" horiz-adv-x="343" 
d="M38 0v71h90v467h-90v71h267v-71h-89v-467h89v-71h-267zM26 666l-20 26l138 137h55l139 -137l-21 -26l-145 80z" />
    <glyph glyph-name="Idieresis" unicode="&#xcf;" horiz-adv-x="343" 
d="M38 0v71h90v467h-90v71h267v-71h-89v-467h89v-71h-267zM118.5 686.5q-15.5 -15.5 -38 -15.5t-38 15.5t-15.5 37.5t15.5 38t38 16t38 -16t15.5 -38t-15.5 -37.5zM300.5 686.5q-15.5 -15.5 -38 -15.5t-38 15.5t-15.5 37.5t15.5 38t38 16t38 -16t15.5 -38t-15.5 -37.5z" />
    <glyph glyph-name="Eth" unicode="&#xd0;" horiz-adv-x="684" 
d="M46 271v72h82v195h-89v71h281q150 0 236.5 -80.5t86.5 -224t-86.5 -224t-236.5 -80.5h-281v71h89v200h-82zM216 71h105q111 0 171.5 61t60.5 172t-60.5 172.5t-171.5 61.5h-105v-195h169v-72h-169v-200z" />
    <glyph glyph-name="Ntilde" unicode="&#xd1;" horiz-adv-x="748" 
d="M38 0v71h90v467h-90v71h180l329 -467v396h-89v71h262v-71h-89v-538h-79l-341 481v-410h89v-71h-262zM270 786q16 10 40 10t70 -25.5t69 -25.5q40 0 66 54l34 -18q-36 -82 -69 -101q-17 -9 -40.5 -9t-70.5 25.5t-66 25.5q-37 0 -66 -53l-33 16q33 83 66 101z" />
    <glyph glyph-name="Ograve" unicode="&#xd2;" horiz-adv-x="702" 
d="M351 -12q-139 0 -226 88.5t-87 227.5t87 228t226 89t226 -89t87 -228t-87 -227.5t-226 -88.5zM190.5 128q61.5 -66 160 -66t161 66.5t62.5 176t-62 176t-160.5 66.5t-160.5 -67t-62 -176.5t61.5 -175.5zM398 669l-190 123l58 73l161 -161z" />
    <glyph glyph-name="Oacute" unicode="&#xd3;" horiz-adv-x="702" 
d="M351 -12q-139 0 -226 88.5t-87 227.5t87 228t226 89t226 -89t87 -228t-87 -227.5t-226 -88.5zM190.5 128q61.5 -66 160 -66t161 66.5t62.5 176t-62 176t-160.5 66.5t-160.5 -67t-62 -176.5t61.5 -175.5zM285 669l-29 35l162 161l57 -73z" />
    <glyph glyph-name="Ocircumflex" unicode="&#xd4;" horiz-adv-x="702" 
d="M351 -12q-139 0 -226 88.5t-87 227.5t87 228t226 89t226 -89t87 -228t-87 -227.5t-226 -88.5zM190.5 128q61.5 -66 160 -66t161 66.5t62.5 176t-62 176t-160.5 66.5t-160.5 -67t-62 -176.5t61.5 -175.5zM206 669l-21 26l138 137h56l138 -137l-20 -26l-146 80z" />
    <glyph glyph-name="Otilde" unicode="&#xd5;" horiz-adv-x="702" 
d="M351 -12q-139 0 -226 88.5t-87 227.5t87 228t226 89t226 -89t87 -228t-87 -227.5t-226 -88.5zM190.5 128q61.5 -66 160 -66t161 66.5t62.5 176t-62 176t-160.5 66.5t-160.5 -67t-62 -176.5t61.5 -175.5zM240 790q17 9 41 9t70 -25.5t69 -25.5q40 0 66 54l34 -18
q-13 -31 -24 -50.5t-33.5 -39.5t-49 -20t-73.5 25.5t-66 25.5q-37 0 -66 -53l-33 16q33 83 65 102z" />
    <glyph glyph-name="Odieresis" unicode="&#xd6;" horiz-adv-x="702" 
d="M351 -12q-139 0 -226 88.5t-87 227.5t87 228t226 89t226 -89t87 -228t-87 -227.5t-226 -88.5zM190.5 128q61.5 -66 160 -66t161 66.5t62.5 176t-62 176t-160.5 66.5t-160.5 -67t-62 -176.5t61.5 -175.5zM260 674q-22 0 -37.5 15.5t-15.5 37.5t15.5 38t37.5 16t37.5 -15.5
t15.5 -38.5t-15.5 -38t-37.5 -15zM480.5 689.5q-15.5 -15.5 -38 -15.5t-38 15t-15.5 38t15.5 38.5t37.5 15.5t38 -15.5t16 -38t-15.5 -38z" />
    <glyph glyph-name="multiply" unicode="&#xd7;" horiz-adv-x="479" 
d="M89 39l-47 47l150 151l-150 151l47 48l150 -152l151 152l48 -48l-151 -151l151 -151l-48 -47l-151 151z" />
    <glyph glyph-name="Oslash" unicode="&#xd8;" horiz-adv-x="702" 
d="M351 -12q-107 0 -187 55l-51 -63l-33 26l52 63q-94 91 -94 232.5t87 230.5t226 89q108 0 186 -56l53 64l32 -26l-52 -64q94 -89 94 -231.5t-87 -231t-226 -88.5zM351 62q99 0 161 66t62 173t-58 173l-301 -369q57 -43 136 -43zM351 547q-98 0 -160 -66.5t-62 -174
t56 -172.5l301 369q-57 44 -135 44z" />
    <glyph glyph-name="Ugrave" unicode="&#xd9;" horiz-adv-x="696" 
d="M522.5 46.5q-64.5 -58.5 -171 -58.5t-174.5 54.5t-68 160.5v335h-89v71h266v-71h-89v-328q0 -73 43 -108t111.5 -35t111 35t42.5 109v327h-92v71h263v-71h-89v-329q0 -104 -64.5 -162.5zM391 666l-190 122l57 73l162 -160z" />
    <glyph glyph-name="Uacute" unicode="&#xda;" horiz-adv-x="696" 
d="M522.5 46.5q-64.5 -58.5 -171 -58.5t-174.5 54.5t-68 160.5v335h-89v71h266v-71h-89v-328q0 -73 43 -108t111.5 -35t111 35t42.5 109v327h-92v71h263v-71h-89v-329q0 -104 -64.5 -162.5zM295 666l-29 35l162 160l57 -73z" />
    <glyph glyph-name="Ucircumflex" unicode="&#xdb;" horiz-adv-x="696" 
d="M522.5 46.5q-64.5 -58.5 -171 -58.5t-174.5 54.5t-68 160.5v335h-89v71h266v-71h-89v-328q0 -73 43 -108t111.5 -35t111 35t42.5 109v327h-92v71h263v-71h-89v-329q0 -104 -64.5 -162.5zM202 666l-20 26l138 137h55l139 -137l-21 -26l-145 80z" />
    <glyph glyph-name="Udieresis" unicode="&#xdc;" horiz-adv-x="696" 
d="M522.5 46.5q-64.5 -58.5 -171 -58.5t-174.5 54.5t-68 160.5v335h-89v71h266v-71h-89v-328q0 -73 43 -108t111.5 -35t111 35t42.5 109v327h-92v71h263v-71h-89v-329q0 -104 -64.5 -162.5zM294.5 686.5q-15.5 -15.5 -38 -15.5t-38 15.5t-15.5 37.5t15.5 38t38 16t38 -16
t15.5 -38t-15.5 -37.5zM476.5 686.5q-15.5 -15.5 -38 -15.5t-38 15.5t-15.5 37.5t15.5 38t38 16t38 -16t15.5 -38t-15.5 -37.5z" />
    <glyph glyph-name="Yacute" unicode="&#xdd;" horiz-adv-x="632" 
d="M181 0v71h92v148l-201 319h-78v71h268v-70h-94l149 -241l149 241h-93v70h263v-71h-76l-199 -315v-152h92v-71h-272zM260 666l-28 35l161 160l58 -73z" />
    <glyph glyph-name="Thorn" unicode="&#xde;" horiz-adv-x="573" 
d="M38 0v69h91v471h-91v69h283v-67h-104v-58h88q113 0 178 -45t65 -131.5t-65 -131.5t-178 -45h-88v-64h104v-67h-283zM217 201h91q151 0 151 107t-151 107h-91v-214z" />
    <glyph glyph-name="germandbls" unicode="&#xdf;" horiz-adv-x="567" 
d="M35 0v68h76v291h-85v69h85v96q0 88 50 141t138.5 53t138 -39t49.5 -113q0 -42 -18.5 -77t-37 -63t-18.5 -53t19.5 -54.5t42.5 -53.5t42.5 -62.5t19.5 -79.5q0 -64 -42 -97.5t-106.5 -33.5t-120.5 18v68q49 -21 99 -21q84 0 84 68q0 31 -19.5 62t-42.5 53.5t-42.5 56.5
t-19.5 72t38.5 93.5t38.5 98.5t-26 67t-78 24t-78 -35.5t-26 -88.5v-528h-161z" />
    <glyph glyph-name="agrave" unicode="&#xe0;" horiz-adv-x="472" 
d="M163 -11q-60 0 -98.5 33.5t-38.5 94.5q0 132 196 132h84v33q0 49 -22 69.5t-85 20.5t-138 -25v66q78 26 162.5 26t126 -36t41.5 -117v-218h71v-68h-153v52q-65 -63 -146 -63zM187 52q59 0 119 56v85h-80q-114 0 -114 -73q0 -31 19 -49.5t56 -18.5zM278 505l-186 119
l57 72l157 -156z" />
    <glyph glyph-name="aacute" unicode="&#xe1;" horiz-adv-x="472" 
d="M163 -11q-60 0 -98.5 33.5t-38.5 94.5q0 132 196 132h84v33q0 49 -22 69.5t-85 20.5t-138 -25v66q78 26 162.5 26t126 -36t41.5 -117v-218h71v-68h-153v52q-65 -63 -146 -63zM187 52q59 0 119 56v85h-80q-114 0 -114 -73q0 -31 19 -49.5t56 -18.5zM156 505l-28 35
l157 156l57 -72z" />
    <glyph glyph-name="acircumflex" unicode="&#xe2;" horiz-adv-x="472" 
d="M163 -11q-60 0 -98.5 33.5t-38.5 94.5q0 132 196 132h84v33q0 49 -22 69.5t-85 20.5t-138 -25v66q78 26 162.5 26t126 -36t41.5 -117v-218h71v-68h-153v52q-65 -63 -146 -63zM187 52q59 0 119 56v85h-80q-114 0 -114 -73q0 -31 19 -49.5t56 -18.5zM77 501l-21 27l135 133
h55l135 -133l-20 -27l-143 78z" />
    <glyph glyph-name="atilde" unicode="&#xe3;" horiz-adv-x="472" 
d="M163 -11q-60 0 -98.5 33.5t-38.5 94.5q0 132 196 132h84v33q0 49 -22 69.5t-85 20.5t-138 -25v66q78 26 162.5 26t126 -36t41.5 -117v-218h71v-68h-153v52q-65 -63 -146 -63zM187 52q59 0 119 56v85h-80q-114 0 -114 -73q0 -31 19 -49.5t56 -18.5zM114 624q16 9 39.5 9
t68 -25.5t66.5 -25.5q38 0 65 53l33 -18q-19 -47 -43 -77.5t-55.5 -30.5t-77.5 25.5t-65 25.5q-36 0 -63 -52l-34 17q33 80 66 99z" />
    <glyph glyph-name="adieresis" unicode="&#xe4;" horiz-adv-x="472" 
d="M163 -11q-60 0 -98.5 33.5t-38.5 94.5q0 132 196 132h84v33q0 49 -22 69.5t-85 20.5t-138 -25v66q78 26 162.5 26t126 -36t41.5 -117v-218h71v-68h-153v52q-65 -63 -146 -63zM187 52q59 0 119 56v85h-80q-114 0 -114 -73q0 -31 19 -49.5t56 -18.5zM128 509
q-22 0 -37.5 15.5t-15.5 37.5t15.5 37.5t37.5 15.5t37.5 -15.5t15.5 -37.5t-15.5 -37.5t-37.5 -15.5zM310 509q-22 0 -37.5 15.5t-15.5 37.5t15.5 37.5t37.5 15.5t37.5 -15.5t15.5 -37.5t-15.5 -37.5t-37.5 -15.5z" />
    <glyph glyph-name="aring" unicode="&#xe5;" horiz-adv-x="472" 
d="M163 -11q-60 0 -98.5 33.5t-38.5 94.5q0 132 196 132h84v33q0 49 -22 69.5t-85 20.5t-138 -25v66q78 26 162.5 26t126 -36t41.5 -117v-218h71v-68h-153v52q-65 -63 -146 -63zM187 52q59 0 119 56v85h-80q-114 0 -114 -73q0 -31 19 -49.5t56 -18.5zM218 500
q-54 0 -85.5 31t-31.5 76.5t31.5 76.5t85.5 31t85 -31t31 -76.5t-31 -76.5t-85 -31zM179.5 566q13.5 -17 38 -17t38 17t13.5 41.5t-13.5 41.5t-38 17t-38 -17t-13.5 -41.5t13.5 -41.5z" />
    <glyph glyph-name="ae" unicode="&#xe6;" horiz-adv-x="722" 
d="M174 -11q-67 0 -107.5 33.5t-40.5 94.5q0 131 196 131h83v34q0 49 -22.5 70t-84 21t-137.5 -30v68q78 28 158 28q107 0 142 -68q53 68 144.5 68t139 -62t47.5 -150q0 -25 -3 -38h-303q5 -64 41.5 -98.5t102.5 -34.5t138 41v-68q-67 -40 -150 -40q-110 0 -166 71
q-83 -71 -178 -71zM192 54q69 0 134 53q-15 33 -18 85h-83q-114 0 -114 -71q0 -31 20.5 -49t60.5 -18zM583.5 339.5q-25.5 36.5 -79 36.5t-83 -35t-35.5 -92h225q-2 54 -27.5 90.5z" />
    <glyph glyph-name="ccedilla" unicode="&#xe7;" horiz-adv-x="442" 
d="M303.5 -179q-36.5 -21 -83.5 -21t-75 5l12 51q23 -5 49 -5q60 0 60 34q0 38 -76 38v19l25 50q-85 11 -133 68.5t-48 158.5t60.5 160.5t162.5 59.5q71 0 151 -29v-134h-73v86q-35 11 -70 11q-70 0 -106.5 -42t-36.5 -115.5t37.5 -116.5t105.5 -43t141 41v-69
q-60 -36 -140 -39l-11 -27q35 -2 60 -22.5t25 -59t-36.5 -59.5z" />
    <glyph glyph-name="egrave" unicode="&#xe8;" horiz-adv-x="458" 
d="M252 -11q-105 0 -161.5 61.5t-56.5 162.5t54.5 163.5t149 62.5t142.5 -61.5t48 -150.5q0 -25 -2 -38h-306q13 -133 144 -133q67 0 141 41v-68q-69 -40 -153 -40zM319 339.5q-26 35.5 -79 35.5t-83.5 -34.5t-36.5 -89.5h228q-3 53 -29 88.5zM291 505l-186 119l57 72
l157 -156z" />
    <glyph glyph-name="eacute" unicode="&#xe9;" horiz-adv-x="458" 
d="M252 -11q-105 0 -161.5 61.5t-56.5 162.5t54.5 163.5t149 62.5t142.5 -61.5t48 -150.5q0 -25 -2 -38h-306q13 -133 144 -133q67 0 141 41v-68q-69 -40 -153 -40zM319 339.5q-26 35.5 -79 35.5t-83.5 -34.5t-36.5 -89.5h228q-3 53 -29 88.5zM175 505l-28 35l157 156
l57 -72z" />
    <glyph glyph-name="ecircumflex" unicode="&#xea;" horiz-adv-x="458" 
d="M252 -11q-105 0 -161.5 61.5t-56.5 162.5t54.5 163.5t149 62.5t142.5 -61.5t48 -150.5q0 -25 -2 -38h-306q13 -133 144 -133q67 0 141 41v-68q-69 -40 -153 -40zM319 339.5q-26 35.5 -79 35.5t-83.5 -34.5t-36.5 -89.5h228q-3 53 -29 88.5zM91 501l-20 27l135 133h55
l135 -133l-21 -27l-142 78z" />
    <glyph glyph-name="edieresis" unicode="&#xeb;" horiz-adv-x="458" 
d="M252 -11q-105 0 -161.5 61.5t-56.5 162.5t54.5 163.5t149 62.5t142.5 -61.5t48 -150.5q0 -25 -2 -38h-306q13 -133 144 -133q67 0 141 41v-68q-69 -40 -153 -40zM319 339.5q-26 35.5 -79 35.5t-83.5 -34.5t-36.5 -89.5h228q-3 53 -29 88.5zM178.5 524.5
q-15.5 -15.5 -38 -15.5t-37.5 15.5t-15 37.5t15.5 37.5t37.5 15.5t37.5 -15.5t15.5 -37.5t-15.5 -37.5zM323 509q-22 0 -37.5 15.5t-15.5 37.5t15.5 37.5t37.5 15.5t37.5 -15.5t15.5 -37.5t-15.5 -37.5t-37.5 -15.5z" />
    <glyph glyph-name="igrave" unicode="&#xec;" horiz-adv-x="281" 
d="M189 505l-186 119l57 72l158 -156zM32 0v68h72v292h-72v68h158v-360h72v-68h-230z" />
    <glyph glyph-name="iacute" unicode="&#xed;" horiz-adv-x="281" 
d="M65 505l-28 35l157 156l57 -72zM32 0v68h72v292h-72v68h158v-360h72v-68h-230z" />
    <glyph glyph-name="icircumflex" unicode="&#xee;" horiz-adv-x="281" 
d="M-9 501l-20 27l135 133h55l135 -133l-20 -27l-143 78zM32 0v68h72v292h-72v68h158v-360h72v-68h-230z" />
    <glyph glyph-name="idieresis" unicode="&#xef;" horiz-adv-x="281" 
d="M42 509q-22 0 -37.5 15.5t-15.5 37.5t15.5 37.5t37.5 15.5t37.5 -15.5t15.5 -37.5t-15.5 -37.5t-37.5 -15.5zM224 509q-22 0 -37.5 15.5t-15.5 37.5t15.5 37.5t37.5 15.5t37.5 -15.5t15.5 -37.5t-15.5 -37.5t-37.5 -15.5zM32 0v68h72v292h-72v68h158v-360h72v-68h-230z
" />
    <glyph glyph-name="eth" unicode="&#xf0;" horiz-adv-x="505" 
d="M407 58q-56 -69 -158 -69t-158.5 59.5t-56.5 155.5t53.5 156.5t140.5 60.5t135 -58q-20 117 -123 218l-106 -81l-24 34l99 76q-39 33 -91 65l44 49q64 -35 109 -72l81 62l25 -33l-75 -57q161 -159 161 -374q0 -123 -56 -192zM249 55q58 0 92 41.5t34 109.5t-33.5 109.5
t-92.5 41.5t-93 -42t-34 -110.5t34.5 -109t92.5 -40.5z" />
    <glyph glyph-name="ntilde" unicode="&#xf1;" horiz-adv-x="567" 
d="M32 0v68h72v292h-72v68h156v-60q80 71 165 71q59 0 92.5 -35t33.5 -101v-235h73v-68h-231v68h73v226q0 76 -67 76q-63 0 -137 -62v-240h72v-68h-230zM182 624q17 9 40 9t68 -25.5t67 -25.5q37 0 64 53l34 -18q-13 -30 -24 -50t-33.5 -39t-48 -19t-71 25.5t-64.5 25.5
q-36 0 -63 -52l-34 17q33 81 65 99z" />
    <glyph glyph-name="ograve" unicode="&#xf2;" horiz-adv-x="504" 
d="M252 -11q-100 0 -159 61t-59 163.5t59 164t159 61.5t159 -61.5t59 -164t-59 -163.5t-159 -61zM252 55q62 0 96 43.5t34 115.5t-34 115.5t-96 43.5t-96 -43.5t-34 -115.5t34 -115.5t96 -43.5zM304 505l-186 119l57 72l157 -156z" />
    <glyph glyph-name="oacute" unicode="&#xf3;" horiz-adv-x="504" 
d="M252 -11q-100 0 -159 61t-59 163.5t59 164t159 61.5t159 -61.5t59 -164t-59 -163.5t-159 -61zM252 55q62 0 96 43.5t34 115.5t-34 115.5t-96 43.5t-96 -43.5t-34 -115.5t34 -115.5t96 -43.5zM189 505l-28 35l157 156l57 -72z" />
    <glyph glyph-name="ocircumflex" unicode="&#xf4;" horiz-adv-x="504" 
d="M252 -11q-100 0 -159 61t-59 163.5t59 164t159 61.5t159 -61.5t59 -164t-59 -163.5t-159 -61zM252 55q62 0 96 43.5t34 115.5t-34 115.5t-96 43.5t-96 -43.5t-34 -115.5t34 -115.5t96 -43.5zM110 501l-20 27l135 133h55l135 -133l-21 -27l-142 78z" />
    <glyph glyph-name="otilde" unicode="&#xf5;" horiz-adv-x="504" 
d="M252 -11q-100 0 -159 61t-59 163.5t59 164t159 61.5t159 -61.5t59 -164t-59 -163.5t-159 -61zM252 55q62 0 96 43.5t34 115.5t-34 115.5t-96 43.5t-96 -43.5t-34 -115.5t34 -115.5t96 -43.5zM144 624q17 9 40.5 9t68 -25.5t66.5 -25.5q38 0 65 53l33 -18
q-19 -47 -43 -77.5t-55.5 -30.5t-77.5 25.5t-65 25.5q-36 0 -63 -52l-34 17q33 80 65 99z" />
    <glyph glyph-name="odieresis" unicode="&#xf6;" horiz-adv-x="504" 
d="M252 -11q-100 0 -159 61t-59 163.5t59 164t159 61.5t159 -61.5t59 -164t-59 -163.5t-159 -61zM252 55q62 0 96 43.5t34 115.5t-34 115.5t-96 43.5t-96 -43.5t-34 -115.5t34 -115.5t96 -43.5zM161 509q-22 0 -37.5 15.5t-15.5 37.5t15.5 37.5t37.5 15.5t37.5 -15.5
t15.5 -37.5t-15.5 -37.5t-37.5 -15.5zM343 509q-22 0 -37.5 15.5t-15.5 37.5t15.5 37.5t37.5 15.5t37.5 -15.5t15.5 -37.5t-15.5 -37.5t-37.5 -15.5z" />
    <glyph glyph-name="divide" unicode="&#xf7;" horiz-adv-x="508" 
d="M293.5 45q-16.5 -16 -39 -16t-39 16.5t-16.5 39t16 39t39 16.5t39.5 -16.5t16.5 -39.5t-16.5 -39zM293.5 355q-16.5 -16 -39 -16t-39 16.5t-16.5 39t16 39t39 16.5t39.5 -16.5t16.5 -39.5t-16.5 -39zM47 208v63h415v-63h-415z" />
    <glyph glyph-name="oslash" unicode="&#xf8;" horiz-adv-x="504" 
d="M252 -11q-81 0 -136 41l-42 -49l-27 22l43 50q-56 59 -56 161t59 163.5t159 61.5q81 0 135 -42l42 49l26 -22l-42 -49q57 -62 57 -163t-59 -162t-159 -61zM166 87q32 -32 90 -32t92 43.5t34 108.5t-23 105zM338 340q-35 33 -91.5 33t-90.5 -43.5t-34 -108.5t23 -105z" />
    <glyph glyph-name="ugrave" unicode="&#xf9;" horiz-adv-x="553" 
d="M213 -11q-59 0 -92.5 35t-33.5 101v235h-73v68h158v-294q0 -76 66 -76t138 61v241h-78v68h164v-360h72v-68h-156v59q-79 -70 -165 -70zM300 505l-186 119l57 72l158 -156z" />
    <glyph glyph-name="uacute" unicode="&#xfa;" horiz-adv-x="553" 
d="M213 -11q-59 0 -92.5 35t-33.5 101v235h-73v68h158v-294q0 -76 66 -76t138 61v241h-78v68h164v-360h72v-68h-156v59q-79 -70 -165 -70zM204 505l-29 35l158 156l56 -72z" />
    <glyph glyph-name="ucircumflex" unicode="&#xfb;" horiz-adv-x="553" 
d="M213 -11q-59 0 -92.5 35t-33.5 101v235h-73v68h158v-294q0 -76 66 -76t138 61v241h-78v68h164v-360h72v-68h-156v59q-79 -70 -165 -70zM114 501l-20 27l134 133h56l134 -133l-20 -27l-142 78z" />
    <glyph glyph-name="udieresis" unicode="&#xfc;" horiz-adv-x="553" 
d="M213 -11q-59 0 -92.5 35t-33.5 101v235h-73v68h158v-294q0 -76 66 -76t138 61v241h-78v68h164v-360h72v-68h-156v59q-79 -70 -165 -70zM162 509q-22 0 -37 15.5t-15 37.5t15 37.5t37 15.5t37.5 -15.5t15.5 -37.5t-15.5 -37.5t-37.5 -15.5zM344 509q-22 0 -37 15.5
t-15 37.5t15 37.5t37 15.5t37.5 -15.5t15.5 -37.5t-15.5 -37.5t-37.5 -15.5z" />
    <glyph glyph-name="yacute" unicode="&#xfd;" horiz-adv-x="516" 
d="M151 -210q-56 0 -109 31l25 58q42 -23 73 -23q57 0 77 59l29 85h-65l-113 361h-57v67h215v-68h-70l99 -333l116 333h-69v68h209v-67h-56l-164 -461q-38 -110 -140 -110zM212 505l-28 35l157 156l57 -72z" />
    <glyph glyph-name="thorn" unicode="&#xfe;" horiz-adv-x="506" 
d="M-9 -199v68h72v770h-72v68h158v-328q56 60 139.5 60t134 -62.5t50.5 -161.5t-53.5 -162.5t-144.5 -63.5q-73 0 -126 46v-166h85v-68h-243zM262 372q-62 0 -113 -53v-221q44 -42 106.5 -42t96 43t33.5 113t-30.5 115t-92.5 45z" />
    <glyph glyph-name="ydieresis" unicode="&#xff;" horiz-adv-x="516" 
d="M151 -210q-56 0 -109 31l25 58q42 -23 73 -23q57 0 77 59l29 85h-65l-113 361h-57v67h215v-68h-70l99 -333l116 333h-69v68h209v-67h-56l-164 -461q-38 -110 -140 -110zM210 524.5q-15 -15.5 -37.5 -15.5t-37.5 15.5t-15 37.5t15.5 37.5t37.5 15.5t37 -15.5t15 -37.5
t-15 -37.5zM392 524.5q-15 -15.5 -37.5 -15.5t-37.5 15.5t-15 37.5t15.5 37.5t37.5 15.5t37 -15.5t15 -37.5t-15 -37.5z" />
    <glyph glyph-name="Amacron" unicode="&#x100;" horiz-adv-x="682" 
d="M-1 0v71h78l189 467h-87v71h214l218 -538h79v-71h-261v71h91l-47 117h-263l-46 -117h90v-71h-255zM238 259h208l-104 265zM187 675v65h270v-65h-270z" />
    <glyph glyph-name="amacron" unicode="&#x101;" horiz-adv-x="472" 
d="M163 -11q-60 0 -98.5 33.5t-38.5 94.5q0 132 196 132h84v33q0 49 -22 69.5t-85 20.5t-138 -25v66q78 26 162.5 26t126 -36t41.5 -117v-218h71v-68h-153v52q-65 -63 -146 -63zM187 52q59 0 119 56v85h-80q-114 0 -114 -73q0 -31 19 -49.5t56 -18.5zM81 522v65h270v-65
h-270z" />
    <glyph glyph-name="Abreve" unicode="&#x102;" horiz-adv-x="682" 
d="M-1 0v71h78l189 467h-87v71h214l218 -538h79v-71h-261v71h91l-47 117h-263l-46 -117h90v-71h-255zM238 259h208l-104 265zM330 663q-63 0 -104 40t-45 106h63q10 -76 85.5 -76t84.5 76h64q-4 -66 -44.5 -106t-103.5 -40z" />
    <glyph glyph-name="abreve" unicode="&#x103;" horiz-adv-x="472" 
d="M163 -11q-60 0 -98.5 33.5t-38.5 94.5q0 132 196 132h84v33q0 49 -22 69.5t-85 20.5t-138 -25v66q78 26 162.5 26t126 -36t41.5 -117v-218h71v-68h-153v52q-65 -63 -146 -63zM187 52q59 0 119 56v85h-80q-114 0 -114 -73q0 -31 19 -49.5t56 -18.5zM217 509
q-62 0 -101.5 39t-43.5 104h63q9 -73 82.5 -73t82.5 73h63q-4 -65 -44 -104t-102 -39z" />
    <glyph glyph-name="Aogonek" unicode="&#x104;" horiz-adv-x="682" 
d="M678 -186q-44 -18 -88.5 -18t-73.5 21t-29 62q0 67 80 121h-138v71h91l-47 117h-263l-46 -117h90v-71h-255v71h78l189 467h-87v71h214l218 -538h79v-71h-59q-66 -54 -66 -107q0 -42 48 -42q27 0 59 15zM238 259h208l-104 265z" />
    <glyph glyph-name="aogonek" unicode="&#x105;" horiz-adv-x="472" 
d="M477 -182q-42 -18 -86.5 -18t-72.5 20.5t-28 60.5q0 65 79 119h-60v52q-65 -63 -146 -63q-60 0 -98.5 33.5t-38.5 94.5q0 132 196 132h84v33q0 49 -22 69.5t-85 20.5t-138 -25v66q78 26 162.5 26t126 -36t41.5 -117v-218h71v-68h-29q-66 -52 -66 -105q0 -41 46 -41
q28 0 58 15zM187 52q59 0 119 56v85h-80q-114 0 -114 -73q0 -31 19 -49.5t56 -18.5z" />
    <glyph glyph-name="Cacute" unicode="&#x106;" horiz-adv-x="619" 
d="M364 -12q-146 0 -235.5 84t-89.5 230t88 232.5t236 86.5q120 0 218 -47v-160h-85v112q-60 21 -129 21q-106 0 -171.5 -63.5t-65.5 -179t68 -178t172.5 -62.5t210.5 61v-84q-99 -53 -217 -53zM286 669l-28 35l161 161l58 -73z" />
    <glyph glyph-name="cacute" unicode="&#x107;" horiz-adv-x="442" 
d="M406 28q-67 -39 -160.5 -39t-152.5 59t-59 165.5t60.5 166t162.5 59.5q71 0 151 -29v-134h-73v86q-35 11 -70 11q-70 0 -106.5 -42t-36.5 -115.5t37.5 -116.5t105.5 -43t141 41v-69zM183 505l-28 35l157 156l57 -72z" />
    <glyph glyph-name="Ccircumflex" unicode="&#x108;" horiz-adv-x="619" 
d="M364 -12q-146 0 -235.5 84t-89.5 230t88 232.5t236 86.5q120 0 218 -47v-160h-85v112q-60 21 -129 21q-106 0 -171.5 -63.5t-65.5 -179t68 -178t172.5 -62.5t210.5 61v-84q-99 -53 -217 -53zM209 669l-21 26l138 137h56l138 -137l-20 -26l-146 80z" />
    <glyph glyph-name="ccircumflex" unicode="&#x109;" horiz-adv-x="442" 
d="M406 28q-67 -39 -160.5 -39t-152.5 59t-59 165.5t60.5 166t162.5 59.5q71 0 151 -29v-134h-73v86q-35 11 -70 11q-70 0 -106.5 -42t-36.5 -115.5t37.5 -116.5t105.5 -43t141 41v-69zM104 501l-20 27l134 133h55l135 -133l-20 -27l-142 78z" />
    <glyph glyph-name="Cdotaccent" unicode="&#x10a;" horiz-adv-x="619" 
d="M364 -12q-146 0 -235.5 84t-89.5 230t88 232.5t236 86.5q120 0 218 -47v-160h-85v112q-60 21 -129 21q-106 0 -171.5 -63.5t-65.5 -179t68 -178t172.5 -62.5t210.5 61v-84q-99 -53 -217 -53zM350 672q-24 0 -41 17t-17 41t17 40.5t41 16.5t40.5 -16.5t16.5 -40.5
t-16.5 -41t-40.5 -17z" />
    <glyph glyph-name="cdotaccent" unicode="&#x10b;" horiz-adv-x="442" 
d="M406 28q-67 -39 -160.5 -39t-152.5 59t-59 165.5t60.5 166t162.5 59.5q71 0 151 -29v-134h-73v86q-35 11 -70 11q-70 0 -106.5 -42t-36.5 -115.5t37.5 -116.5t105.5 -43t141 41v-69zM245 509q-24 0 -40.5 17t-16.5 40.5t16.5 40t40.5 16.5t40.5 -16.5t16.5 -40
t-16.5 -40.5t-40.5 -17z" />
    <glyph glyph-name="Ccaron" unicode="&#x10c;" horiz-adv-x="619" 
d="M364 -12q-146 0 -235.5 84t-89.5 230t88 232.5t236 86.5q120 0 218 -47v-160h-85v112q-60 21 -129 21q-106 0 -171.5 -63.5t-65.5 -179t68 -178t172.5 -62.5t210.5 61v-84q-99 -53 -217 -53zM323 670l-138 137l20 27l145 -81l146 81l21 -27l-139 -137h-55z" />
    <glyph glyph-name="ccaron" unicode="&#x10d;" horiz-adv-x="442" 
d="M406 28q-67 -39 -160.5 -39t-152.5 59t-59 165.5t60.5 166t162.5 59.5q71 0 151 -29v-134h-73v86q-35 11 -70 11q-70 0 -106.5 -42t-36.5 -115.5t37.5 -116.5t105.5 -43t141 41v-69zM214 507l-134 134l20 26l141 -78l143 78l20 -26l-135 -134h-55z" />
    <glyph glyph-name="Dcaron" unicode="&#x10e;" horiz-adv-x="684" 
d="M38 0v71h90v467h-90v71h282q150 0 236.5 -80.5t86.5 -224t-86.5 -224t-236.5 -80.5h-282zM216 71h104q111 0 172 61t61 172t-61 172.5t-172 61.5h-104v-467zM306 668l-138 137l21 27l145 -81l146 81l20 -27l-138 -137h-56z" />
    <glyph glyph-name="dcaron" unicode="&#x10f;" horiz-adv-x="532" 
d="M491 696q25 19 54.5 19t44.5 -18.5t15 -51.5t-24 -73t-63 -72l-38 29q47 56 47 99.5t-36 60.5v7zM364 54q-58 -65 -143 -65t-136 63.5t-51 162.5t53.5 161.5t144.5 62.5q71 0 126 -46v246h-87v68h172v-639h73v-68h-152v54zM152.5 101q30.5 -45 90.5 -45t115 51v223
q-50 42 -110 42t-93 -42.5t-33 -113t30.5 -115.5z" />
    <glyph glyph-name="Dcroat" unicode="&#x110;" horiz-adv-x="684" 
d="M46 271v72h82v195h-89v71h281q150 0 236.5 -80.5t86.5 -224t-86.5 -224t-236.5 -80.5h-281v71h89v200h-82zM216 71h105q111 0 171.5 61t60.5 172t-60.5 172.5t-171.5 61.5h-105v-195h169v-72h-169v-200z" />
    <glyph glyph-name="dcroat" unicode="&#x111;" horiz-adv-x="532" 
d="M210 509v58h148v72h-87v68h172v-140h66v-58h-66v-441h73v-68h-152v54q-58 -65 -143 -65t-136 63.5t-51 162.5t53.5 161.5t144.5 62.5q71 0 126 -46v116h-148zM152.5 101q30.5 -45 90.5 -45t115 51v223q-50 42 -110 42t-93 -42.5t-33 -113t30.5 -115.5z" />
    <glyph glyph-name="Emacron" unicode="&#x112;" horiz-adv-x="581" 
d="M38 0v71h90v467h-90v71h493v-171h-81v100h-234v-196h252v-71h-252v-200h236v103h82v-174h-496zM173 675v65h270v-65h-270z" />
    <glyph glyph-name="emacron" unicode="&#x113;" horiz-adv-x="458" 
d="M252 -11q-105 0 -161.5 61.5t-56.5 162.5t54.5 163.5t149 62.5t142.5 -61.5t48 -150.5q0 -25 -2 -38h-306q13 -133 144 -133q67 0 141 41v-68q-69 -40 -153 -40zM319 339.5q-26 35.5 -79 35.5t-83.5 -34.5t-36.5 -89.5h228q-3 53 -29 88.5zM98 522v65h271v-65h-271z" />
    <glyph glyph-name="Ebreve" unicode="&#x114;" horiz-adv-x="581" 
d="M38 0v71h90v467h-90v71h493v-171h-81v100h-234v-196h252v-71h-252v-200h236v103h82v-174h-496zM308 663q-63 0 -104 40t-45 106h63q10 -76 85.5 -76t84.5 76h64q-4 -66 -44.5 -106t-103.5 -40z" />
    <glyph glyph-name="ebreve" unicode="&#x115;" horiz-adv-x="458" 
d="M252 -11q-105 0 -161.5 61.5t-56.5 162.5t54.5 163.5t149 62.5t142.5 -61.5t48 -150.5q0 -25 -2 -38h-306q13 -133 144 -133q67 0 141 41v-68q-69 -40 -153 -40zM319 339.5q-26 35.5 -79 35.5t-83.5 -34.5t-36.5 -89.5h228q-3 53 -29 88.5zM233 509q-62 0 -102 39
t-44 104h63q9 -73 82.5 -73t82.5 73h63q-4 -65 -43.5 -104t-101.5 -39z" />
    <glyph glyph-name="Edotaccent" unicode="&#x116;" horiz-adv-x="581" 
d="M38 0v71h90v467h-90v71h493v-171h-81v100h-234v-196h252v-71h-252v-200h236v103h82v-174h-496zM309 667q-24 0 -40.5 17t-16.5 41t16.5 40.5t40.5 16.5t41 -16.5t17 -40.5t-17 -41t-41 -17z" />
    <glyph glyph-name="edotaccent" unicode="&#x117;" horiz-adv-x="458" 
d="M252 -11q-105 0 -161.5 61.5t-56.5 162.5t54.5 163.5t149 62.5t142.5 -61.5t48 -150.5q0 -25 -2 -38h-306q13 -133 144 -133q67 0 141 41v-68q-69 -40 -153 -40zM319 339.5q-26 35.5 -79 35.5t-83.5 -34.5t-36.5 -89.5h228q-3 53 -29 88.5zM273 526q-17 -17 -40.5 -17
t-40 17t-16.5 40.5t16.5 40t40 16.5t40.5 -16.5t17 -40t-17 -40.5z" />
    <glyph glyph-name="Eogonek" unicode="&#x118;" horiz-adv-x="581" 
d="M38 0v71h90v467h-90v71h493v-171h-81v100h-234v-196h252v-71h-252v-200h236v103h82v-174h-29q-66 -54 -66 -107q0 -42 48 -42q28 0 60 15l5 -52q-42 -18 -87.5 -18t-74.5 21t-29 62q0 66 80 121h-403z" />
    <glyph glyph-name="eogonek" unicode="&#x119;" horiz-adv-x="458" 
d="M416 -182q-42 -18 -86.5 -18t-72 20.5t-27.5 61.5q0 61 66 111q-28 -4 -44 -4q-105 0 -161.5 61.5t-56.5 162.5t54.5 163.5t149 62.5t142.5 -61.5t48 -150.5q0 -25 -2 -38h-306q13 -133 144 -133q67 0 141 41v-68q-98 -63 -98 -132q0 -43 46 -43q26 0 58 15zM319 339.5
q-26 35.5 -79 35.5t-83.5 -34.5t-36.5 -89.5h228q-3 53 -29 88.5z" />
    <glyph glyph-name="Ecaron" unicode="&#x11a;" horiz-adv-x="581" 
d="M38 0v71h90v467h-90v71h493v-171h-81v100h-234v-196h252v-71h-252v-200h236v103h82v-174h-496zM282 668l-138 137l20 27l146 -81l145 81l21 -27l-139 -137h-55z" />
    <glyph glyph-name="ecaron" unicode="&#x11b;" horiz-adv-x="458" 
d="M252 -11q-105 0 -161.5 61.5t-56.5 162.5t54.5 163.5t149 62.5t142.5 -61.5t48 -150.5q0 -25 -2 -38h-306q13 -133 144 -133q67 0 141 41v-68q-69 -40 -153 -40zM319 339.5q-26 35.5 -79 35.5t-83.5 -34.5t-36.5 -89.5h228q-3 53 -29 88.5zM204 507l-134 134l20 26
l142 -78l142 78l20 -26l-135 -134h-55z" />
    <glyph glyph-name="Gcircumflex" unicode="&#x11c;" horiz-adv-x="684" 
d="M368 -12q-152 0 -240 84t-88 228.5t87 232.5t242 88q127 0 231 -50v-147h-82v99q-78 24 -146 24q-115 0 -179.5 -65.5t-64.5 -178.5t64 -176.5t178 -63.5q73 0 151 29v158h-142v70h280v-70h-56v-204q-109 -58 -235 -58zM209 669l-20 26l138 137h55l139 -137l-21 -26
l-145 80z" />
    <glyph glyph-name="gcircumflex" unicode="&#x11d;" horiz-adv-x="468" 
d="M381.5 -171q-53.5 -39 -160.5 -39t-155.5 33.5t-48.5 92.5t68 101q-31 20 -31 58t52 75q-62 43 -62 128q0 67 45.5 114t131.5 47q40 0 73 -11h165v-68l-88 4q28 -39 28 -86q0 -67 -46 -114t-132 -47q-40 0 -73 11q-19 -14 -19 -29q0 -19 31.5 -27.5t76.5 -13t90 -13.5
t76.5 -38t31.5 -77q0 -62 -53.5 -101zM221 377q-44 0 -71 -26.5t-27 -72.5t27 -73t71 -27t71 26.5t27 73t-27 73t-71 26.5zM93 -74q0 -72 131 -72q64 0 95.5 21.5t31.5 45.5t-13 36t-37.5 18.5t-48.5 9.5t-58 7t-55 8q-46 -31 -46 -74zM79 501l-20 27l134 133h55l135 -133
l-20 -27l-143 78z" />
    <glyph glyph-name="Gbreve" unicode="&#x11e;" horiz-adv-x="684" 
d="M368 -12q-152 0 -240 84t-88 228.5t87 232.5t242 88q127 0 231 -50v-147h-82v99q-78 24 -146 24q-115 0 -179.5 -65.5t-64.5 -178.5t64 -176.5t178 -63.5q73 0 151 29v158h-142v70h280v-70h-56v-204q-109 -58 -235 -58zM454.5 706q-41.5 -40 -104 -40t-103.5 40t-45 107
h64q9 -76 84.5 -76t84.5 76h65q-4 -67 -45.5 -107z" />
    <glyph glyph-name="gbreve" unicode="&#x11f;" horiz-adv-x="468" 
d="M381.5 -171q-53.5 -39 -160.5 -39t-155.5 33.5t-48.5 92.5t68 101q-31 20 -31 58t52 75q-62 43 -62 128q0 67 45.5 114t131.5 47q40 0 73 -11h165v-68l-88 4q28 -39 28 -86q0 -67 -46 -114t-132 -47q-40 0 -73 11q-19 -14 -19 -29q0 -19 31.5 -27.5t76.5 -13t90 -13.5
t76.5 -38t31.5 -77q0 -62 -53.5 -101zM221 377q-44 0 -71 -26.5t-27 -72.5t27 -73t71 -27t71 26.5t27 73t-27 73t-71 26.5zM93 -74q0 -72 131 -72q64 0 95.5 21.5t31.5 45.5t-13 36t-37.5 18.5t-48.5 9.5t-58 7t-55 8q-46 -31 -46 -74zM220 509q-62 0 -102 39t-44 104h63
q9 -73 82.5 -73t82.5 73h64q-4 -65 -44 -104t-102 -39z" />
    <glyph glyph-name="Gdotaccent" unicode="&#x120;" horiz-adv-x="684" 
d="M368 -12q-152 0 -240 84t-88 228.5t87 232.5t242 88q127 0 231 -50v-147h-82v99q-78 24 -146 24q-115 0 -179.5 -65.5t-64.5 -178.5t64 -176.5t178 -63.5q73 0 151 29v158h-142v70h280v-70h-56v-204q-109 -58 -235 -58zM356 672q-24 0 -40.5 17t-16.5 41t16.5 40.5
t40.5 16.5t41 -16.5t17 -40.5t-17 -41t-41 -17z" />
    <glyph glyph-name="gdotaccent" unicode="&#x121;" horiz-adv-x="468" 
d="M381.5 -171q-53.5 -39 -160.5 -39t-155.5 33.5t-48.5 92.5t68 101q-31 20 -31 58t52 75q-62 43 -62 128q0 67 45.5 114t131.5 47q40 0 73 -11h165v-68l-88 4q28 -39 28 -86q0 -67 -46 -114t-132 -47q-40 0 -73 11q-19 -14 -19 -29q0 -19 31.5 -27.5t76.5 -13t90 -13.5
t76.5 -38t31.5 -77q0 -62 -53.5 -101zM221 377q-44 0 -71 -26.5t-27 -72.5t27 -73t71 -27t71 26.5t27 73t-27 73t-71 26.5zM93 -74q0 -72 131 -72q64 0 95.5 21.5t31.5 45.5t-13 36t-37.5 18.5t-48.5 9.5t-58 7t-55 8q-46 -31 -46 -74zM260 526q-17 -17 -40.5 -17t-40 17
t-16.5 40.5t16.5 40t40 16.5t40.5 -16.5t17 -40t-17 -40.5z" />
    <glyph glyph-name="Gcommaaccent" unicode="&#x122;" horiz-adv-x="684" 
d="M301 -89q25 19 54.5 19t44.5 -18.5t15 -51t-24 -72.5t-63 -73l-38 29q46 57 46 100t-35 60v7zM368 -12q-152 0 -240 84t-88 228.5t87 232.5t242 88q127 0 231 -50v-147h-82v99q-78 24 -146 24q-115 0 -179.5 -65.5t-64.5 -178.5t64 -176.5t178 -63.5q73 0 151 29v158
h-142v70h280v-70h-56v-204q-109 -58 -235 -58z" />
    <glyph glyph-name="gcommaaccent" unicode="&#x123;" horiz-adv-x="468" 
d="M274 521q-25 -18 -54.5 -18t-45 18.5t-15.5 51t24 72.5t63 72l38 -29q-46 -55 -46 -98.5t36 -61.5v-7zM381.5 -171q-53.5 -39 -160.5 -39t-155.5 33.5t-48.5 92.5t68 101q-31 20 -31 58t52 75q-62 43 -62 128q0 67 45.5 114t131.5 47q40 0 73 -11h165v-68l-88 4
q28 -39 28 -86q0 -67 -46 -114t-132 -47q-40 0 -73 11q-19 -14 -19 -29q0 -19 31.5 -27.5t76.5 -13t90 -13.5t76.5 -38t31.5 -77q0 -62 -53.5 -101zM221 377q-44 0 -71 -26.5t-27 -72.5t27 -73t71 -27t71 26.5t27 73t-27 73t-71 26.5zM93 -74q0 -72 131 -72q64 0 95.5 21.5
t31.5 45.5t-13 36t-37.5 18.5t-48.5 9.5t-58 7t-55 8q-46 -31 -46 -74z" />
    <glyph glyph-name="Hcircumflex" unicode="&#x124;" horiz-adv-x="758" 
d="M38 0v71h90v467h-90v71h268v-71h-90v-195h326v195h-90v71h267v-71h-89v-467h89v-71h-267v71h90v198h-326v-198h90v-71h-268zM233 666l-20 26l138 137h55l139 -137l-21 -26l-146 80z" />
    <glyph glyph-name="hcircumflex" unicode="&#x125;" horiz-adv-x="554" 
d="M19 0v68h73v571h-73v68h158v-337q80 69 163 69q59 0 92.5 -35t33.5 -101v-235h73v-68h-231v68h73v226q0 76 -67 76q-63 0 -137 -62v-240h73v-68h-231zM-21 761l-20 26l134 133h55l135 -133l-20 -26l-143 77z" />
    <glyph glyph-name="Hbar" unicode="&#x126;" horiz-adv-x="758" 
d="M48 418v48h80v72h-89v71h267v-71h-90v-72h326v72h-90v71h268v-71h-90v-72h81v-48h-81v-347h90v-71h-268v71h90v198h-326v-198h90v-71h-267v71h89v347h-80zM216 343h326v78h-326v-78z" />
    <glyph glyph-name="hbar" unicode="&#x127;" horiz-adv-x="554" 
d="M25 509v58h67v72h-73v68h158v-140h139v-58h-139v-139q80 69 163 69q59 0 92.5 -35t33.5 -101v-235h73v-68h-231v68h73v226q0 76 -67 76q-63 0 -137 -62v-240h73v-68h-231v68h73v441h-67z" />
    <glyph glyph-name="Itilde" unicode="&#x128;" horiz-adv-x="343" 
d="M38 0v71h90v467h-90v71h267v-71h-89v-467h89v-71h-267zM62 786q16 10 40 10t70.5 -25.5t68.5 -25.5q39 0 67 54l33 -18q-36 -82 -69 -101q-17 -9 -40.5 -9t-70.5 25.5t-66 25.5q-38 0 -65 -53l-33 16q31 82 65 101z" />
    <glyph glyph-name="itilde" unicode="&#x129;" horiz-adv-x="281" 
d="M24 624q17 9 40.5 9t68 -25.5t66.5 -25.5q38 0 65 53l33 -18q-19 -47 -43 -77.5t-55.5 -30.5t-77.5 25.5t-65 25.5q-36 0 -63 -52l-34 17q33 80 65 99zM32 0v68h72v292h-72v68h158v-360h72v-68h-230z" />
    <glyph glyph-name="Imacron" unicode="&#x12a;" horiz-adv-x="343" 
d="M38 0v71h90v467h-90v71h267v-71h-89v-467h89v-71h-267zM37 675v65h270v-65h-270z" />
    <glyph glyph-name="imacron" unicode="&#x12b;" horiz-adv-x="281" 
d="M-5 522v65h271v-65h-271zM32 0v68h72v292h-72v68h158v-360h72v-68h-230z" />
    <glyph glyph-name="Ibreve" unicode="&#x12c;" horiz-adv-x="343" 
d="M38 0v71h90v467h-90v71h267v-71h-89v-467h89v-71h-267zM172 663q-63 0 -104 40t-45 106h63q10 -76 85.5 -76t84.5 76h65q-4 -66 -45 -106t-104 -40z" />
    <glyph glyph-name="ibreve" unicode="&#x12d;" horiz-adv-x="281" 
d="M133 509q-62 0 -102 39t-44 104h63q9 -73 82.5 -73t82.5 73h63q-4 -65 -43.5 -104t-101.5 -39zM32 0v68h72v292h-72v68h158v-360h72v-68h-230z" />
    <glyph glyph-name="Iogonek" unicode="&#x12e;" horiz-adv-x="343" 
d="M38 0v71h90v467h-90v71h267v-71h-89v-467h89v-71h-74q-67 -53 -67 -107q0 -42 48 -42q28 0 60 15l5 -52q-42 -18 -87.5 -18t-74 21t-28.5 62q0 66 79 121h-128z" />
    <glyph glyph-name="iogonek" unicode="&#x12f;" horiz-adv-x="281" 
d="M32 0v68h72v292h-72v68h158v-360h72v-68h-63q-67 -51 -67 -105q0 -41 46 -41q27 0 59 15l5 -51q-42 -18 -86.5 -18t-72 20.5t-27.5 60.5q0 66 79 119h-103zM78 576q0 26 18.5 44t44 18t44 -18t18.5 -44t-18.5 -44t-44 -18t-44 18t-18.5 44z" />
    <glyph glyph-name="Idotaccent" unicode="&#x130;" horiz-adv-x="343" 
d="M38 0v71h90v467h-90v71h267v-71h-89v-467h89v-71h-267zM172 667q-24 0 -41 17t-17 41t17 40.5t41 16.5t40.5 -16.5t16.5 -40.5t-16.5 -41t-40.5 -17z" />
    <glyph glyph-name="dotlessi" unicode="&#x131;" horiz-adv-x="281" 
d="M32 0v68h72v292h-72v68h158v-360h72v-68h-230z" />
    <glyph glyph-name="Jcircumflex" unicode="&#x134;" horiz-adv-x="317" 
d="M114 9v529h-83v71h254v-71h-83v-530q0 -84 -50 -124q-25 -20 -46 -31t-58 -26l-29 61q95 51 95 121zM12 666l-20 26l138 137h56l138 -137l-21 -26l-145 80z" />
    <glyph glyph-name="jcircumflex" unicode="&#x135;" horiz-adv-x="244" 
d="M93 -52v412h-77v68h162v-482q0 -69 -37.5 -104.5t-107.5 -62.5l-27 56q42 22 64.5 48t22.5 65zM-22 501l-20 27l134 133h55l135 -133l-20 -27l-143 78z" />
    <glyph glyph-name="Kcommaaccent" unicode="&#x136;" horiz-adv-x="676" 
d="M326 -85q24 18 54 18t45.5 -18.5t15.5 -51t-24.5 -72.5t-63.5 -72l-37 29q46 55 46 98.5t-36 61.5v7zM398 539v70h256v-71h-77l-215 -228l209 -239h92v-71h-146l-261 302v6l221 231h-79zM38 0v71h90v467h-90v71h265v-71h-87v-467h95v-71h-273z" />
    <glyph glyph-name="kcommaaccent" unicode="&#x137;" horiz-adv-x="521" 
d="M234 -85q24 18 54 18t45.5 -18.5t15.5 -51t-24.5 -72.5t-63.5 -72l-37 29q46 55 46 98.5t-36 61.5v7zM19 0v68h73v571h-73v68h158v-639h69v-68h-227zM451 -10q-77 0 -143 89l-102 131v4l143 149h-69v65h219v-66h-60l-140 -147l73 -91q26 -33 48.5 -50t43 -17t33.5 3v-63
q-23 -7 -46 -7z" />
    <glyph glyph-name="kgreenlandic" unicode="&#x138;" horiz-adv-x="534" 
d="M32 0v68h72v292h-72v68h158v-360h68v-68h-226zM464 -10q-76 0 -144 89l-102 131v4l144 149h-69v65h219v-66h-60l-140 -147l73 -91q26 -33 48 -50t42 -17t35 3v-63q-25 -7 -46 -7z" />
    <glyph glyph-name="Lacute" unicode="&#x139;" horiz-adv-x="551" 
d="M38 0v71h90v467h-90v71h280v-71h-102v-467h236v109h82v-180h-496zM140 666l-29 35l162 160l57 -73z" />
    <glyph glyph-name="lacute" unicode="&#x13a;" horiz-adv-x="268" 
d="M19 0v68h73v571h-73v68h158v-639h73v-68h-231zM70 763l-29 35l158 156l56 -72z" />
    <glyph glyph-name="Lcommaaccent" unicode="&#x13b;" horiz-adv-x="551" 
d="M263 -85q24 18 54 18t45 -18.5t15 -51t-24 -72.5t-63 -72l-38 29q47 56 47 98.5t-36 61.5v7zM38 0v71h90v467h-90v71h280v-71h-102v-467h236v109h82v-180h-496z" />
    <glyph glyph-name="lcommaaccent" unicode="&#x13c;" horiz-adv-x="268" 
d="M78 -85q24 18 54 18t45 -18.5t15 -51t-24 -72.5t-63 -72l-38 29q47 56 47 98.5t-36 61.5v7zM19 0v68h73v571h-73v68h158v-639h73v-68h-231z" />
    <glyph glyph-name="Lcaron" unicode="&#x13d;" horiz-adv-x="554" 
d="M378 598q25 19 54.5 19t45 -19t15.5 -51.5t-24.5 -72.5t-63.5 -72l-37 29q46 55 46 99t-36 61v7zM38 0v71h90v467h-90v71h280v-71h-102v-467h236v109h82v-180h-496z" />
    <glyph glyph-name="lcaron" unicode="&#x13e;" horiz-adv-x="268" 
d="M224 696q25 19 54.5 19t45 -19t15.5 -51.5t-24 -72.5t-63 -72l-38 29q46 55 46 99.5t-36 60.5v7zM19 0v68h73v571h-73v68h158v-639h73v-68h-231z" />
    <glyph glyph-name="Ldot" unicode="&#x13f;" horiz-adv-x="552" 
d="M38 0v71h90v467h-90v71h280v-71h-102v-467h236v109h82v-180h-496zM421 275q-24 0 -41 17t-17 41t17 40.5t41 16.5t40.5 -16.5t16.5 -40.5t-16.5 -41t-40.5 -17z" />
    <glyph glyph-name="ldot" unicode="&#x140;" horiz-adv-x="341" 
d="M19 0v68h73v571h-73v68h158v-639h73v-68h-231zM300 278q-24 0 -40.5 17t-16.5 40.5t16.5 40.5t40.5 17t40.5 -17t16.5 -40.5t-16.5 -40.5t-40.5 -17z" />
    <glyph glyph-name="Lslash" unicode="&#x141;" horiz-adv-x="552" 
d="M129 538h-90v71h280v-71h-102v-180l167 86l25 -50l-192 -98v-225h236v109h82v-180h-496v71h90v182l-71 -36l-25 50l96 48v223z" />
    <glyph glyph-name="lslash" unicode="&#x142;" horiz-adv-x="292" 
d="M98 639h-73v68h158v-313l94 51l26 -48l-120 -66v-263h73v-68h-231v68h73v218l-73 -40l-26 49l99 53v291z" />
    <glyph glyph-name="Nacute" unicode="&#x143;" horiz-adv-x="748" 
d="M38 0v71h90v467h-90v71h180l329 -467v396h-89v71h262v-71h-89v-538h-79l-341 481v-410h89v-71h-262zM327 666l-28 35l162 160l57 -73z" />
    <glyph glyph-name="nacute" unicode="&#x144;" horiz-adv-x="567" 
d="M32 0v68h72v292h-72v68h156v-60q80 71 165 71q59 0 92.5 -35t33.5 -101v-235h73v-68h-231v68h73v226q0 76 -67 76q-63 0 -137 -62v-240h72v-68h-230zM222 505l-28 35l157 156l57 -72z" />
    <glyph glyph-name="Ncommaaccent" unicode="&#x145;" horiz-adv-x="748" 
d="M340 -85q24 18 54 18t45.5 -18.5t15.5 -51t-24.5 -72.5t-63.5 -72l-37 29q46 55 46 98.5t-36 61.5v7zM38 0v71h90v467h-90v71h180l329 -467v396h-89v71h262v-71h-89v-538h-79l-341 481v-410h89v-71h-262z" />
    <glyph glyph-name="ncommaaccent" unicode="&#x146;" horiz-adv-x="567" 
d="M236 -85q24 18 54 18t45.5 -18.5t15.5 -51t-24 -72.5t-63 -72l-38 29q46 55 46 98.5t-36 61.5v7zM32 0v68h72v292h-72v68h156v-60q80 71 165 71q59 0 92.5 -35t33.5 -101v-235h73v-68h-231v68h73v226q0 76 -67 76q-63 0 -137 -62v-240h72v-68h-230z" />
    <glyph glyph-name="Ncaron" unicode="&#x147;" horiz-adv-x="748" 
d="M38 0v71h90v467h-90v71h180l329 -467v396h-89v71h262v-71h-89v-538h-79l-341 481v-410h89v-71h-262zM346 668l-138 137l21 27l145 -81l146 81l20 -27l-138 -137h-56z" />
    <glyph glyph-name="ncaron" unicode="&#x148;" horiz-adv-x="567" 
d="M32 0v68h72v292h-72v68h156v-60q80 71 165 71q59 0 92.5 -35t33.5 -101v-235h73v-68h-231v68h73v226q0 76 -67 76q-63 0 -137 -62v-240h72v-68h-230zM256 507l-135 134l21 26l141 -78l143 78l20 -26l-135 -134h-55z" />
    <glyph glyph-name="napostrophe" unicode="&#x149;" horiz-adv-x="567" 
d="M47 675q25 19 54.5 19t45 -19t15.5 -51.5t-24.5 -72.5t-63.5 -72l-37 29q46 57 46 100t-36 60v7zM32 0v68h72v292h-72v68h156v-60q80 71 165 71q59 0 92.5 -35t33.5 -101v-235h73v-68h-231v68h73v226q0 76 -67 76q-63 0 -137 -62v-240h72v-68h-230z" />
    <glyph glyph-name="Eng" unicode="&#x14a;" horiz-adv-x="748" 
d="M543 9v17l-332 455v-410h89v-71h-262v71h90v467h-90v71h180l329 -454v383h-89v71h262v-71h-89v-530q0 -83 -50 -123q-26 -21 -47 -32t-58 -26l-28 61q26 14 43 26.5t34.5 38.5t17.5 56z" />
    <glyph glyph-name="eng" unicode="&#x14b;" horiz-adv-x="539" 
d="M394 -52v346q0 76 -67 76q-63 0 -137 -62v-240h72v-68h-230v68h72v291h-72v69h156v-60q80 71 165 71q59 0 92.5 -35t33.5 -101v-357q0 -69 -37.5 -104.5t-107.5 -62.5l-27 56q42 22 64.5 48t22.5 65z" />
    <glyph glyph-name="Omacron" unicode="&#x14c;" horiz-adv-x="702" 
d="M351 -12q-139 0 -226 88.5t-87 227.5t87 228t226 89t226 -89t87 -228t-87 -227.5t-226 -88.5zM190.5 128q61.5 -66 160 -66t161 66.5t62.5 176t-62 176t-160.5 66.5t-160.5 -67t-62 -176.5t61.5 -175.5zM216 678v65h270v-65h-270z" />
    <glyph glyph-name="omacron" unicode="&#x14d;" horiz-adv-x="504" 
d="M252 -11q-100 0 -159 61t-59 163.5t59 164t159 61.5t159 -61.5t59 -164t-59 -163.5t-159 -61zM252 55q62 0 96 43.5t34 115.5t-34 115.5t-96 43.5t-96 -43.5t-34 -115.5t34 -115.5t96 -43.5zM117 522v65h270v-65h-270z" />
    <glyph glyph-name="Obreve" unicode="&#x14e;" horiz-adv-x="702" 
d="M351 -12q-139 0 -226 88.5t-87 227.5t87 228t226 89t226 -89t87 -228t-87 -227.5t-226 -88.5zM190.5 128q61.5 -66 160 -66t161 66.5t62.5 176t-62 176t-160.5 66.5t-160.5 -67t-62 -176.5t61.5 -175.5zM351 666q-63 0 -104 40t-45 107h64q10 -76 85 -76t85 76h64
q-4 -67 -45 -107t-104 -40z" />
    <glyph glyph-name="obreve" unicode="&#x14f;" horiz-adv-x="504" 
d="M252 -11q-100 0 -159 61t-59 163.5t59 164t159 61.5t159 -61.5t59 -164t-59 -163.5t-159 -61zM252 55q62 0 96 43.5t34 115.5t-34 115.5t-96 43.5t-96 -43.5t-34 -115.5t34 -115.5t96 -43.5zM252 509q-62 0 -102 39t-44 104h63q10 -73 83 -73t83 73h63q-4 -65 -44 -104
t-102 -39z" />
    <glyph glyph-name="Ohungarumlaut" unicode="&#x150;" horiz-adv-x="702" 
d="M351 -12q-139 0 -226 88.5t-87 227.5t87 228t226 89t226 -89t87 -228t-87 -227.5t-226 -88.5zM190.5 128q61.5 -66 160 -66t161 66.5t62.5 176t-62 176t-160.5 66.5t-160.5 -67t-62 -176.5t61.5 -175.5zM240 670l-30 26l122 175l62 -57zM401 670l-30 26l123 175l62 -57z
" />
    <glyph glyph-name="ohungarumlaut" unicode="&#x151;" horiz-adv-x="504" 
d="M252 -11q-100 0 -159 61t-59 163.5t59 164t159 61.5t159 -61.5t59 -164t-59 -163.5t-159 -61zM252 55q62 0 96 43.5t34 115.5t-34 115.5t-96 43.5t-96 -43.5t-34 -115.5t34 -115.5t96 -43.5zM142 504l-31 27l123 175l62 -58zM303 504l-30 27l123 175l61 -58z" />
    <glyph glyph-name="OE" unicode="&#x152;" horiz-adv-x="863" 
d="M347 0q-142 0 -224 82.5t-82 221.5t82 222t224 83h467v-169h-82v98h-220v-196h238v-71h-238v-200h223v100h82v-171h-470zM348 73h78v463h-78q-102 0 -159.5 -62t-57.5 -169.5t57.5 -169.5t159.5 -62z" />
    <glyph glyph-name="oe" unicode="&#x153;" horiz-adv-x="803" 
d="M246 -11q-96 0 -154 61t-58 163.5t58 164t155 61.5q122 0 175 -97q49 97 164 97q92 0 139.5 -61.5t47.5 -150.5q0 -25 -3 -38h-304q13 -133 144 -133q69 0 141 41v-68q-69 -40 -151 -40q-129 0 -178 97q-57 -97 -176 -97zM155 98.5q34 -43.5 95.5 -43.5t95.5 43.5
t34 115.5t-34 115.5t-95.5 43.5t-95.5 -43.5t-34 -115.5t34 -115.5zM665 339.5q-26 35.5 -79 35.5t-83.5 -34.5t-36.5 -89.5h228q-3 53 -29 88.5z" />
    <glyph glyph-name="Racute" unicode="&#x154;" horiz-adv-x="639" 
d="M258 666l-29 35l162 160l57 -73zM38 0v71h90v467h-90v71h285q110 0 176.5 -50.5t66.5 -135.5q0 -61 -35 -105t-99 -62l103 -185h84v-71h-144l-129 233h-130v-162h89v-71h-267zM216 302h109q77 0 114.5 32t37.5 86t-37.5 86t-114.5 32h-109v-236z" />
    <glyph glyph-name="racute" unicode="&#x155;" horiz-adv-x="362" 
d="M32 0v68h72v292h-72v68h155v-84q57 95 152 95h10v-86h-15q-84 0 -144 -52v-233h81v-68h-239zM143 505l-28 35l157 156l57 -72z" />
    <glyph glyph-name="Rcommaaccent" unicode="&#x156;" horiz-adv-x="639" 
d="M301 -85q24 18 54 18t45 -18.5t15 -51t-24 -72.5t-63 -72l-37 29q46 57 46 99t-36 61v7zM38 0v71h90v467h-90v71h285q110 0 176.5 -50.5t66.5 -135.5q0 -61 -35 -105t-99 -62l103 -185h84v-71h-144l-129 233h-130v-162h89v-71h-267zM216 302h109q77 0 114.5 32t37.5 86
t-37.5 86t-114.5 32h-109v-236z" />
    <glyph glyph-name="rcommaaccent" unicode="&#x157;" horiz-adv-x="362" 
d="M95 -85q24 18 54 18t45.5 -18.5t15.5 -51t-24.5 -72.5t-63.5 -72l-37 29q46 55 46 98t-36 62v7zM32 0v68h72v292h-72v68h155v-84q57 95 152 95h10v-86h-15q-84 0 -144 -52v-233h81v-68h-239z" />
    <glyph glyph-name="Rcaron" unicode="&#x158;" horiz-adv-x="639" 
d="M284 668l-138 137l21 27l145 -81l146 81l20 -27l-138 -137h-56zM38 0v71h90v467h-90v71h285q110 0 176.5 -50.5t66.5 -135.5q0 -61 -35 -105t-99 -62l103 -185h84v-71h-144l-129 233h-130v-162h89v-71h-267zM216 302h109q77 0 114.5 32t37.5 86t-37.5 86t-114.5 32h-109
v-236z" />
    <glyph glyph-name="rcaron" unicode="&#x159;" horiz-adv-x="362" 
d="M32 0v68h72v292h-72v68h155v-84q57 95 152 95h10v-86h-15q-84 0 -144 -52v-233h81v-68h-239zM169 507l-135 134l20 26l142 -78l143 78l20 -26l-135 -134h-55z" />
    <glyph glyph-name="Sacute" unicode="&#x15a;" horiz-adv-x="520" 
d="M416.5 29.5q-61.5 -41.5 -159.5 -41.5t-212 32v142h80v-87q60 -16 125 -16t104 23t39 67.5t-35 71t-84.5 42t-99 33.5t-84.5 57t-35 100q0 82 59 125t156.5 43t188.5 -31v-140h-81v88q-52 12 -108.5 12t-93 -23.5t-36.5 -64.5t35 -66t84.5 -40.5t99 -35t84.5 -60
t35 -103.5q0 -86 -61.5 -127.5zM211 669l-28 35l162 161l57 -73z" />
    <glyph glyph-name="sacute" unicode="&#x15b;" horiz-adv-x="406" 
d="M330.5 23q-41.5 -34 -128 -34t-164.5 24v114h69v-61q46 -13 90 -13t68.5 14.5t24.5 40.5t-25.5 42t-61.5 26t-72 23t-61.5 41.5t-25.5 79.5t42.5 85t120 34t146.5 -23v-113h-70v64q-34 8 -74 8q-83 0 -83 -54q0 -46 87 -69q36 -9 72 -22t61.5 -42t25.5 -80t-41.5 -85z
M148 505l-29 35l158 156l56 -72z" />
    <glyph glyph-name="Scircumflex" unicode="&#x15c;" horiz-adv-x="520" 
d="M416.5 29.5q-61.5 -41.5 -159.5 -41.5t-212 32v142h80v-87q60 -16 125 -16t104 23t39 67.5t-35 71t-84.5 42t-99 33.5t-84.5 57t-35 100q0 82 59 125t156.5 43t188.5 -31v-140h-81v88q-52 12 -108.5 12t-93 -23.5t-36.5 -64.5t35 -66t84.5 -40.5t99 -35t84.5 -60
t35 -103.5q0 -86 -61.5 -127.5zM123 669l-21 26l138 137h56l138 -137l-20 -26l-146 80z" />
    <glyph glyph-name="scircumflex" unicode="&#x15d;" horiz-adv-x="406" 
d="M330.5 23q-41.5 -34 -128 -34t-164.5 24v114h69v-61q46 -13 90 -13t68.5 14.5t24.5 40.5t-25.5 42t-61.5 26t-72 23t-61.5 41.5t-25.5 79.5t42.5 85t120 34t146.5 -23v-113h-70v64q-34 8 -74 8q-83 0 -83 -54q0 -46 87 -69q36 -9 72 -22t61.5 -42t25.5 -80t-41.5 -85z
M68 501l-20 27l134 133h55l135 -133l-20 -27l-142 78z" />
    <glyph glyph-name="Scedilla" unicode="&#x15e;" horiz-adv-x="520" 
d="M318.5 -179q-36.5 -21 -82.5 -21t-76 5l12 51q23 -5 49 -5q60 0 60 34q0 38 -76 38v19l23 47q-86 4 -183 31v142h80v-87q60 -16 125 -16t104 23t39 67.5t-35 71t-84.5 42t-99 33.5t-84.5 57t-35 100q0 82 59 125t156.5 43t188.5 -31v-140h-81v88q-52 12 -108.5 12
t-93 -23.5t-36.5 -64.5t35 -66t84.5 -40.5t99 -35t84.5 -60t35 -103.5q0 -81 -53 -122t-144 -46l-11 -27q35 -2 60 -22.5t25 -59t-36.5 -59.5z" />
    <glyph glyph-name="scedilla" unicode="&#x15f;" horiz-adv-x="405" 
d="M259.5 -179q-36.5 -21 -83 -21t-74.5 5l12 51q22 -5 48 -5q60 0 60 34q0 38 -76 38v19l24 48q-73 4 -132 23v114h69v-61q46 -13 90 -13t68.5 14.5t24.5 40.5t-25.5 42t-61.5 26t-72 23t-61.5 41.5t-25.5 79.5t42.5 85t120 34t146.5 -23v-113h-70v64q-34 8 -74 8
q-83 0 -83 -54q0 -46 87 -69q36 -9 72 -22t61.5 -42t25.5 -78t-36.5 -82t-113.5 -38l-11 -28q36 -2 60.5 -22.5t24.5 -59t-36.5 -59.5z" />
    <glyph glyph-name="Scaron" unicode="&#x160;" horiz-adv-x="520" 
d="M416.5 29.5q-61.5 -41.5 -159.5 -41.5t-212 32v142h80v-87q60 -16 125 -16t104 23t39 67.5t-35 71t-84.5 42t-99 33.5t-84.5 57t-35 100q0 82 59 125t156.5 43t188.5 -31v-140h-81v88q-52 12 -108.5 12t-93 -23.5t-36.5 -64.5t35 -66t84.5 -40.5t99 -35t84.5 -60
t35 -103.5q0 -86 -61.5 -127.5zM239 670l-137 137l20 27l145 -81l146 81l21 -27l-139 -137h-56z" />
    <glyph glyph-name="scaron" unicode="&#x161;" horiz-adv-x="405" 
d="M330.5 23q-41.5 -34 -128 -34t-164.5 24v114h69v-61q46 -13 90 -13t68.5 14.5t24.5 40.5t-25.5 42t-61.5 26t-72 23t-61.5 41.5t-25.5 79.5t42.5 85t120 34t146.5 -23v-113h-70v64q-34 8 -74 8q-83 0 -83 -54q0 -46 87 -69q36 -9 72 -22t61.5 -42t25.5 -80t-41.5 -85z
M178 507l-134 134l20 26l142 -78l142 78l20 -26l-135 -134h-55z" />
    <glyph glyph-name="Tcommaaccent" unicode="&#x162;" 
d="M239 -85q24 18 54 18t45 -18.5t15 -51t-24 -72.5t-63 -72l-38 29q47 56 47 98.5t-36 61.5v7zM152 0v71h96v467h-148v-101h-80v172h544v-172h-81v101h-147v-467h96v-71h-280z" />
    <glyph glyph-name="tcommaaccent" unicode="&#x163;" horiz-adv-x="322" 
d="M140 -85q24 18 54 18t45 -18.5t15 -51t-24 -72.5t-63 -72l-38 29q47 56 47 98.5t-36 61.5v7zM216 -11q-128 0 -128 126v244h-75v69h75v110h85v-110h127v-69h-127v-239q0 -35 16.5 -49.5t51.5 -14.5t66 11v-64q-47 -14 -91 -14z" />
    <glyph glyph-name="Tcaron" unicode="&#x164;" 
d="M152 0v71h96v467h-148v-101h-80v172h544v-172h-81v101h-147v-467h96v-71h-280zM264 668l-138 137l21 27l145 -81l146 81l20 -27l-138 -137h-56z" />
    <glyph glyph-name="tcaron" unicode="&#x165;" horiz-adv-x="322" 
d="M237 679q24 18 54 18t45 -18.5t15 -51t-24 -72.5t-63 -72l-38 29q47 56 47 98.5t-36 61.5v7zM216 -11q-128 0 -128 126v244h-75v69h75v110h85v-110h127v-69h-127v-239q0 -35 16.5 -49.5t51.5 -14.5t66 11v-64q-47 -14 -91 -14z" />
    <glyph glyph-name="Tbar" unicode="&#x166;" horiz-adv-x="587" 
d="M118 264v61h132v213h-148v-101h-80v172h543v-172h-80v101h-147v-213h131v-61h-131v-193h96v-71h-281v71h97v193h-132z" />
    <glyph glyph-name="tbar" unicode="&#x167;" horiz-adv-x="326" 
d="M27 201v60h63v98h-74v69h74v110h85v-110h128v-69h-128v-98h113v-60h-113v-81q0 -35 16.5 -49.5t52.5 -14.5t65 11v-64q-45 -14 -91 -14q-128 0 -128 126v86h-63z" />
    <glyph glyph-name="Utilde" unicode="&#x168;" horiz-adv-x="696" 
d="M522.5 46.5q-64.5 -58.5 -171 -58.5t-174.5 54.5t-68 160.5v335h-89v71h266v-71h-89v-328q0 -73 43 -108t111.5 -35t111 35t42.5 109v327h-92v71h263v-71h-89v-329q0 -104 -64.5 -162.5zM244 786q16 10 40 10t70.5 -25.5t68.5 -25.5q39 0 67 54l33 -18q-36 -82 -69 -101
q-17 -9 -40.5 -9t-70.5 25.5t-66 25.5q-38 0 -65 -53l-33 16q31 82 65 101z" />
    <glyph glyph-name="utilde" unicode="&#x169;" horiz-adv-x="553" 
d="M213 -11q-59 0 -92.5 35t-33.5 101v235h-73v68h158v-294q0 -76 66 -76t138 61v241h-78v68h164v-360h72v-68h-156v59q-79 -70 -165 -70zM154 624q17 9 40 9t68 -25.5t67 -25.5q38 0 64 53l34 -18q-13 -30 -24 -50t-33.5 -39t-48 -19t-71 25.5t-64.5 25.5q-36 0 -63 -52
l-34 17q33 80 65 99z" />
    <glyph glyph-name="Umacron" unicode="&#x16a;" horiz-adv-x="696" 
d="M522.5 46.5q-64.5 -58.5 -171 -58.5t-174.5 54.5t-68 160.5v335h-89v71h266v-71h-89v-328q0 -73 43 -108t111.5 -35t111 35t42.5 109v327h-92v71h263v-71h-89v-329q0 -104 -64.5 -162.5zM214 675v65h271v-65h-271z" />
    <glyph glyph-name="umacron" unicode="&#x16b;" horiz-adv-x="553" 
d="M213 -11q-59 0 -92.5 35t-33.5 101v235h-73v68h158v-294q0 -76 66 -76t138 61v241h-78v68h164v-360h72v-68h-156v59q-79 -70 -165 -70zM116 522v65h270v-65h-270z" />
    <glyph glyph-name="Ubreve" unicode="&#x16c;" horiz-adv-x="696" 
d="M522.5 46.5q-64.5 -58.5 -171 -58.5t-174.5 54.5t-68 160.5v335h-89v71h266v-71h-89v-328q0 -73 43 -108t111.5 -35t111 35t42.5 109v327h-92v71h263v-71h-89v-329q0 -104 -64.5 -162.5zM350 663q-63 0 -104 39.5t-45 106.5h64q10 -76 85.5 -76t84.5 76h64
q-4 -66 -45 -106t-104 -40z" />
    <glyph glyph-name="ubreve" unicode="&#x16d;" horiz-adv-x="553" 
d="M213 -11q-59 0 -92.5 35t-33.5 101v235h-73v68h158v-294q0 -76 66 -76t138 61v241h-78v68h164v-360h72v-68h-156v59q-79 -70 -165 -70zM254 509q-62 0 -102 39t-44 104h63q9 -73 82.5 -73t82.5 73h63q-4 -65 -43.5 -104t-101.5 -39z" />
    <glyph glyph-name="Uring" unicode="&#x16e;" horiz-adv-x="696" 
d="M522.5 46.5q-64.5 -58.5 -171 -58.5t-174.5 54.5t-68 160.5v335h-89v71h266v-71h-89v-328q0 -73 43 -108t111.5 -35t111 35t42.5 109v327h-92v71h263v-71h-89v-329q0 -104 -64.5 -162.5zM351 659q-54 0 -85.5 31t-31.5 76.5t31.5 76.5t85.5 31t85 -31t31 -76.5t-31 -76.5
t-85 -31zM312.5 725q13.5 -17 38 -17t38 17t13.5 41.5t-13.5 41.5t-38 17t-38 -17t-13.5 -41.5t13.5 -41.5z" />
    <glyph glyph-name="uring" unicode="&#x16f;" horiz-adv-x="553" 
d="M213 -11q-59 0 -92.5 35t-33.5 101v235h-73v68h158v-294q0 -76 66 -76t138 61v241h-78v68h164v-360h72v-68h-156v59q-79 -70 -165 -70zM254 500q-54 0 -85 31t-31 76.5t31 76.5t85 31t85.5 -31t31.5 -76.5t-31.5 -76.5t-85.5 -31zM216.5 566q13.5 -17 38 -17t38 17
t13.5 41.5t-13.5 41.5t-38 17t-38 -17t-13.5 -41.5t13.5 -41.5z" />
    <glyph glyph-name="Uhungarumlaut" unicode="&#x170;" horiz-adv-x="696" 
d="M522.5 46.5q-64.5 -58.5 -171 -58.5t-174.5 54.5t-68 160.5v335h-89v71h266v-71h-89v-328q0 -73 43 -108t111.5 -35t111 35t42.5 109v327h-92v71h263v-71h-89v-329q0 -104 -64.5 -162.5zM241 666l-30 27l123 175l62 -58zM403 666l-31 27l123 175l62 -58z" />
    <glyph glyph-name="uhungarumlaut" unicode="&#x171;" horiz-adv-x="553" 
d="M213 -11q-59 0 -92.5 35t-33.5 101v235h-73v68h158v-294q0 -76 66 -76t138 61v241h-78v68h164v-360h72v-68h-156v59q-79 -70 -165 -70zM142 504l-30 27l123 175l62 -58zM304 504l-31 27l123 175l62 -58z" />
    <glyph glyph-name="Uogonek" unicode="&#x172;" horiz-adv-x="698" 
d="M425 -204q-45 0 -74 21t-29 63q0 60 66 111q-18 -3 -40 -3q-103 0 -171 54.5t-68 160.5v335h-89v71h266v-71h-89v-328q0 -73 43 -108t111.5 -35t111 35t42.5 109v327h-92v71h263v-71h-89v-329q0 -121 -93.5 -185t-93.5 -128q0 -45 47 -45q28 0 60 15l5 -52
q-42 -18 -87 -18z" />
    <glyph glyph-name="uogonek" unicode="&#x173;" horiz-adv-x="553" 
d="M548 -182q-40 -18 -85 -18t-73 20.5t-28 60.5q0 65 79 119h-63v59q-79 -70 -165 -70q-59 0 -92.5 35t-33.5 101v235h-73v68h158v-294q0 -76 66 -76t138 61v241h-78v68h164v-360h72v-68h-29q-66 -51 -66 -105q0 -41 46 -41q26 0 58 15z" />
    <glyph glyph-name="Wcircumflex" unicode="&#x174;" horiz-adv-x="935" 
d="M-3 538v71h256v-71h-94l135 -431l135 390l-14 41h-82v71h260v-71h-95l143 -429l134 429h-94v71h257v-71h-76l-175 -538h-84l-133 380l-138 -380h-84l-175 538h-76zM317 666l-20 26l137 137h56l139 -137l-21 -26l-146 80z" />
    <glyph glyph-name="wcircumflex" unicode="&#x175;" horiz-adv-x="734" 
d="M8 362v66h212v-66h-75l80 -257l106 323h75l108 -323l78 257h-74v66h207v-66h-60l-115 -362h-73l-111 311l-106 -311h-74l-120 362h-58zM226 501l-20 27l134 133h55l135 -133l-20 -27l-142 78z" />
    <glyph glyph-name="Ycircumflex" unicode="&#x176;" horiz-adv-x="632" 
d="M181 0v71h92v148l-201 319h-78v71h268v-70h-94l149 -241l149 241h-93v70h263v-71h-76l-199 -315v-152h92v-71h-272zM172 666l-21 26l138 137h56l139 -137l-21 -26l-146 80z" />
    <glyph glyph-name="ycircumflex" unicode="&#x177;" horiz-adv-x="516" 
d="M151 -210q-56 0 -109 31l25 58q42 -23 73 -23q57 0 77 59l29 85h-65l-113 361h-57v67h215v-68h-70l99 -333l116 333h-69v68h209v-67h-56l-164 -461q-38 -110 -140 -110zM121 501l-21 27l135 133h55l135 -133l-20 -27l-143 78z" />
    <glyph glyph-name="Ydieresis" unicode="&#x178;" horiz-adv-x="632" 
d="M181 0v71h92v148l-201 319h-78v71h268v-70h-94l149 -241l149 241h-93v70h263v-71h-76l-199 -315v-152h92v-71h-272zM264.5 686.5q-15.5 -15.5 -38 -15.5t-38 15.5t-15.5 37.5t15.5 38t38 16t38 -16t15.5 -38t-15.5 -37.5zM409 671q-23 0 -38.5 15.5t-15.5 37.5t15.5 38
t38 16t38 -15.5t15.5 -38t-15 -38t-38 -15.5z" />
    <glyph glyph-name="Zacute" unicode="&#x179;" horiz-adv-x="570" 
d="M40 0v75l368 459h-278v-104h-82v179h467v-77l-367 -458h301v111h82v-185h-491zM226 666l-29 35l162 160l57 -73z" />
    <glyph glyph-name="zacute" unicode="&#x17a;" horiz-adv-x="434" 
d="M37 0v55l246 312h-170v-81h-72v142h348v-53l-248 -313h185v87h71v-149h-360zM162 505l-28 35l157 156l57 -72z" />
    <glyph glyph-name="Zdotaccent" unicode="&#x17b;" horiz-adv-x="570" 
d="M40 0v75l368 459h-278v-104h-82v179h467v-77l-367 -458h301v111h82v-185h-491zM285 667q-24 0 -40.5 17t-16.5 41t16.5 40.5t40.5 16.5t40.5 -16.5t16.5 -40.5t-16.5 -41t-40.5 -17z" />
    <glyph glyph-name="zdotaccent" unicode="&#x17c;" horiz-adv-x="434" 
d="M37 0v55l246 312h-170v-81h-72v142h348v-53l-248 -313h185v87h71v-149h-360zM218 509q-24 0 -40.5 17t-16.5 40.5t16.5 40t40.5 16.5t40.5 -16.5t16.5 -40t-16.5 -40.5t-40.5 -17z" />
    <glyph glyph-name="Zcaron" unicode="&#x17d;" horiz-adv-x="570" 
d="M40 0v75l368 459h-278v-104h-82v179h467v-77l-367 -458h301v111h82v-185h-491zM257 668l-137 137l20 27l145 -81l146 81l21 -27l-139 -137h-56z" />
    <glyph glyph-name="zcaron" unicode="&#x17e;" horiz-adv-x="434" 
d="M37 0v55l246 312h-170v-81h-72v142h348v-53l-248 -313h185v87h71v-149h-360zM189 507l-134 134l20 26l142 -78l142 78l21 -26l-135 -134h-56z" />
    <glyph glyph-name="longs" unicode="&#x17f;" horiz-adv-x="297" 
d="M36 0v68h76v291h-86v69h86v143q0 76 41.5 111.5t112.5 35.5q27 0 79 -8v-64q-30 5 -58 5q-90 0 -90 -82v-501h92v-68h-253z" />
    <glyph glyph-name="AEacute" unicode="&#x1fc;" horiz-adv-x="925" 
d="M-5 0v72h74l312 467h-71v70h566v-167h-81v96h-220v-196h237v-71h-237v-200h222v98h82v-169h-478v71h88v122h-246l-81 -122h71v-71h-238zM489 263v275h-18l-182 -275h200zM533 666l-28 35l162 160l57 -73z" />
    <glyph glyph-name="aeacute" unicode="&#x1fd;" horiz-adv-x="722" 
d="M174 -11q-67 0 -107.5 33.5t-40.5 94.5q0 131 196 131h83v34q0 49 -22.5 70t-84 21t-137.5 -30v68q78 28 158 28q107 0 142 -68q53 68 144.5 68t139 -62t47.5 -150q0 -25 -3 -38h-303q5 -64 41.5 -98.5t102.5 -34.5t138 41v-68q-67 -40 -150 -40q-110 0 -166 71
q-83 -71 -178 -71zM192 54q69 0 134 53q-15 33 -18 85h-83q-114 0 -114 -71q0 -31 20.5 -49t60.5 -18zM583.5 339.5q-25.5 36.5 -79 36.5t-83 -35t-35.5 -92h225q-2 54 -27.5 90.5zM323 505l-28 35l157 156l57 -72z" />
    <glyph glyph-name="Oslashacute" unicode="&#x1fe;" horiz-adv-x="702" 
d="M351 -12q-107 0 -187 55l-51 -63l-33 26l52 63q-94 91 -94 232.5t87 230.5t226 89q108 0 186 -56l53 64l32 -26l-52 -64q94 -89 94 -231.5t-87 -231t-226 -88.5zM351 62q99 0 161 66t62 173t-58 173l-301 -369q57 -43 136 -43zM351 547q-98 0 -160 -66.5t-62 -174
t56 -172.5l301 369q-57 44 -135 44zM285 669l-29 35l162 161l57 -73z" />
    <glyph glyph-name="oslashacute" unicode="&#x1ff;" horiz-adv-x="504" 
d="M252 -11q-81 0 -136 41l-42 -49l-27 22l43 50q-56 59 -56 161t59 163.5t159 61.5q81 0 135 -42l42 49l26 -22l-42 -49q57 -62 57 -163t-59 -162t-159 -61zM166 87q32 -32 90 -32t92 43.5t34 108.5t-23 105zM338 340q-35 33 -91.5 33t-90.5 -43.5t-34 -108.5t23 -105z
M189 505l-29 35l158 156l56 -72z" />
    <glyph glyph-name="Scommaaccent" unicode="&#x218;" horiz-adv-x="520" 
d="M219 -89q25 19 54.5 19t44.5 -18.5t15 -51t-24 -72.5t-63 -73l-38 29q47 58 47 100.5t-36 59.5v7zM416.5 29.5q-61.5 -41.5 -159.5 -41.5t-212 32v142h80v-87q60 -16 125 -16t104 23t39 67.5t-35 71t-84.5 42t-99 33.5t-84.5 57t-35 100q0 82 59 125t156.5 43t188.5 -31
v-140h-81v88q-52 12 -108.5 12t-93 -23.5t-36.5 -64.5t35 -66t84.5 -40.5t99 -35t84.5 -60t35 -103.5q0 -86 -61.5 -127.5z" />
    <glyph glyph-name="scommaaccent" unicode="&#x219;" horiz-adv-x="406" 
d="M155 -89q25 19 54.5 19t45 -19t15.5 -51t-24 -72t-63 -73l-38 29q46 57 46 100.5t-36 59.5v7zM330.5 23q-41.5 -34 -128 -34t-164.5 24v114h69v-61q46 -13 90 -13t68.5 14.5t24.5 40.5t-25.5 42t-61.5 26t-72 23t-61.5 41.5t-25.5 79.5t42.5 85t120 34t146.5 -23v-113
h-70v64q-34 8 -74 8q-83 0 -83 -54q0 -46 87 -69q36 -9 72 -22t61.5 -42t25.5 -80t-41.5 -85z" />
    <glyph glyph-name="uni021A" unicode="&#x21a;" 
d="M239 -85q24 18 54 18t45 -18.5t15 -51t-24 -72.5t-63 -72l-38 29q47 56 47 98.5t-36 61.5v7zM152 0v71h96v467h-148v-101h-80v172h544v-172h-81v101h-147v-467h96v-71h-280z" />
    <glyph glyph-name="uni021B" unicode="&#x21b;" horiz-adv-x="322" 
d="M140 -85q24 18 54 18t45 -18.5t15 -51t-24 -72.5t-63 -72l-38 29q47 56 47 98.5t-36 61.5v7zM216 -11q-128 0 -128 126v244h-75v69h75v110h85v-110h127v-69h-127v-239q0 -35 16.5 -49.5t51.5 -14.5t66 11v-64q-47 -14 -91 -14z" />
    <glyph glyph-name="dotlessj" unicode="&#x237;" horiz-adv-x="244" 
d="M93 -52v412h-77v68h162v-482q0 -69 -37.5 -104.5t-107.5 -62.5l-27 56q42 22 64.5 48t22.5 65z" />
    <glyph glyph-name="circumflex" unicode="&#x2c6;" horiz-adv-x="434" 
d="M78 501l-20 27l134 133h55l135 -133l-20 -27l-142 78z" />
    <glyph glyph-name="caron" unicode="&#x2c7;" horiz-adv-x="439" 
d="M190 507l-135 134l21 26l141 -78l143 78l20 -26l-135 -134h-55z" />
    <glyph glyph-name="breve" unicode="&#x2d8;" horiz-adv-x="377" 
d="M186 509q-62 0 -102 39t-44 104h63q10 -73 83 -73t83 73h63q-4 -65 -44 -104t-102 -39z" />
    <glyph glyph-name="dotaccent" unicode="&#x2d9;" horiz-adv-x="240" 
d="M159.5 526q-16.5 -17 -40 -17t-40.5 17t-17 40.5t17 40t40.5 16.5t40 -16.5t16.5 -40t-16.5 -40.5z" />
    <glyph glyph-name="ring" unicode="&#x2da;" horiz-adv-x="357" 
d="M179 500q-54 0 -85 31t-31 76.5t31 76.5t85 31t85 -31t31 -76.5t-31 -76.5t-85 -31zM141.5 566q13.5 -17 38 -17t38 17t13.5 41.5t-14 41.5t-38 17t-37.5 -17t-13.5 -41.5t13.5 -41.5z" />
    <glyph glyph-name="ogonek" unicode="&#x2db;" horiz-adv-x="286" 
d="M152 -200q-44 0 -72 20.5t-28 65t37.5 80t96.5 66.5l27 -19q-33 -21 -58.5 -53.5t-25.5 -64.5q0 -41 45 -41q27 0 59 15l5 -51q-42 -18 -86 -18z" />
    <glyph glyph-name="tilde" unicode="&#x2dc;" horiz-adv-x="464" 
d="M128 624q16 9 39 9t68 -25.5t67 -25.5q38 0 64 53l34 -18q-13 -30 -24 -50t-33.5 -39t-48 -19t-71 25.5t-64.5 25.5q-36 0 -63 -52l-34 17q33 80 66 99z" />
    <glyph glyph-name="hungarumlaut" unicode="&#x2dd;" horiz-adv-x="488" 
d="M95 504l-31 27l123 175l62 -58zM256 504l-30 27l122 175l62 -58z" />
    <glyph glyph-name="endash" unicode="&#x2013;" horiz-adv-x="621" 
d="M56 195v74h508v-74h-508z" />
    <glyph glyph-name="emdash" unicode="&#x2014;" horiz-adv-x="831" 
d="M56 195v74h718v-74h-718z" />
    <glyph glyph-name="quoteleft" unicode="&#x2018;" horiz-adv-x="207" 
d="M96 411q-25 0 -40.5 18t-15.5 50t28 80.5t66 80.5l35 -29q-43 -49 -54 -95q17 -4 27.5 -17.5t10.5 -34.5t-16 -37t-41 -16z" />
    <glyph glyph-name="quoteright" unicode="&#x2019;" horiz-adv-x="204" 
d="M114 641q25 0 40.5 -18t15.5 -50.5t-28 -80.5t-66 -81l-35 29q41 48 54 96q-17 4 -28 17t-11 34t16.5 37.5t41.5 16.5z" />
    <glyph glyph-name="quotesinglbase" unicode="&#x201a;" horiz-adv-x="220" 
d="M110 104q25 0 40.5 -18t15.5 -50t-28 -81t-66 -81l-35 30q43 49 54 95q-17 4 -27.5 17t-10.5 34.5t16 37.5t41 16z" />
    <glyph glyph-name="quotedblleft" unicode="&#x201c;" horiz-adv-x="383" 
d="M272 411q-25 0 -40.5 18t-15.5 50t28 80.5t66 80.5l35 -29q-43 -49 -54 -95q17 -4 27.5 -17.5t10.5 -34.5t-16 -37t-41 -16zM96 411q-25 0 -40.5 18t-15.5 50t28 80.5t66 80.5l35 -29q-43 -49 -54 -95q17 -4 27.5 -17.5t10.5 -34.5t-16 -37t-41 -16z" />
    <glyph glyph-name="quotedblright" unicode="&#x201d;" horiz-adv-x="380" 
d="M114 641q25 0 40.5 -18t15.5 -50.5t-28 -80.5t-66 -81l-35 29q41 48 54 96q-17 4 -28 17t-11 34t16.5 37.5t41.5 16.5zM290 641q25 0 40.5 -18t15.5 -50.5t-28 -80.5t-66 -81l-35 29q43 51 54 96q-17 4 -28 17t-11 34t16.5 37.5t41.5 16.5z" />
    <glyph glyph-name="quotedblbase" unicode="&#x201e;" horiz-adv-x="396" 
d="M113 104q25 0 40.5 -18t15.5 -50.5t-28 -80.5t-66 -81l-35 29q41 48 54 96q-17 4 -28 17t-11 34t16.5 37.5t41.5 16.5zM289 104q25 0 40.5 -18t15.5 -50.5t-28 -80.5t-66 -81l-35 29q43 51 54 96q-17 4 -28 17t-11 34t16.5 37.5t41.5 16.5z" />
    <glyph glyph-name="dagger" unicode="&#x2020;" horiz-adv-x="457" 
d="M229 -80q-19 0 -19 33l1 32q0 217 -30 303q31 46 31 71t-13.5 38.5t-34 13.5t-49 -10t-47.5 -10t-30.5 10.5t-11.5 26t11.5 25.5t30.5 10t47.5 -10t48.5 -10t34 14t14 34.5t-10 49t-10 47.5t10.5 31t26 12t26.5 -12t11 -31t-10.5 -47.5t-10.5 -49t14 -34.5t34 -14
t48.5 10t47.5 10t31 -10t12 -25.5t-12 -26t-31 -10.5t-47.5 10t-48.5 10t-34 -13.5t-14 -37.5t32 -72q-30 -82 -30 -303l1 -30q0 -32 -19 -35z" />
    <glyph glyph-name="daggerdbl" unicode="&#x2021;" horiz-adv-x="490" 
d="M245 -80q-15 0 -26 12.5t-11 31.5t10.5 47.5t10.5 48.5t-14 34.5t-34 14.5t-49 -10.5t-48 -10.5t-30.5 10.5t-11.5 25.5t11.5 25.5t30.5 10.5t48 -10t49 -10t34 14t14 40.5t-32 81.5q32 53 32 80.5t-14 41t-34 13.5t-49 -10t-48 -10t-30.5 10.5t-11.5 26.5q0 35 46 35
q15 0 44 -10t49 -10t34 14t14 34.5t-10.5 49t-10.5 47.5t11 31t26 12t26 -12t11 -31t-10 -47.5t-10 -49t13.5 -34.5t33.5 -14t49 10t44 10q46 0 46 -35q0 -16 -11.5 -26.5t-30.5 -10.5t-48 10t-49 10t-33.5 -13.5t-13.5 -41.5t31 -80q-31 -54 -31 -81t13.5 -41t33.5 -14
t49 10t48 10t30.5 -10.5t11.5 -25.5t-11.5 -25.5t-30.5 -10.5t-48 10.5t-49 10.5t-33.5 -14.5t-13.5 -34.5t10 -48.5t10 -47.5t-11 -31.5t-26 -12.5z" />
    <glyph glyph-name="bullet" unicode="&#x2022;" horiz-adv-x="359" 
d="M258.5 216.5q-32.5 -32.5 -79 -32.5t-79 32.5t-32.5 78.5t32.5 78t79 32t79 -32t32.5 -78t-32.5 -78.5z" />
    <glyph glyph-name="ellipsis" unicode="&#x2026;" horiz-adv-x="784" 
d="M105 -9q-23 0 -39.5 16.5t-16.5 39.5t16.5 40t39.5 17t39.5 -17t16.5 -40t-16.5 -39.5t-39.5 -16.5zM392 -9q-23 0 -40 16.5t-17 39.5t17 40t40 17t39.5 -17t16.5 -40t-16.5 -39.5t-39.5 -16.5zM678 -9q-23 0 -39.5 16.5t-16.5 39.5t16.5 40t39.5 17t40 -17t17 -40
t-17 -39.5t-40 -16.5z" />
    <glyph glyph-name="perthousand" unicode="&#x2030;" horiz-adv-x="894" 
d="M558.5 34q-30.5 -34 -86 -34t-86.5 34t-31 91t31 91.5t86.5 34.5t86 -34t30.5 -91.5t-30.5 -91.5zM418 125q0 -78 54.5 -78t54.5 78t-54.5 78t-54.5 -78zM163 233q-55 0 -86 34.5t-31 91.5t31 91t86 34t86 -34t31 -91t-31 -91.5t-86 -34.5zM163 281q54 0 54 78t-54 78
t-54 -78t54 -78zM832.5 34q-30.5 -34 -86 -34t-86.5 34t-31 91t31 91.5t86.5 34.5t86 -34t30.5 -91.5t-30.5 -91.5zM692 125q0 -78 54.5 -78t54.5 78t-54.5 78t-54.5 -78zM137 -1l-40 35l401 450l40 -35z" />
    <glyph glyph-name="guilsinglleft" unicode="&#x2039;" horiz-adv-x="312" 
d="M183 75l-151 182v4l151 181h94l-156 -183l156 -184h-94z" />
    <glyph glyph-name="guilsinglright" unicode="&#x203a;" horiz-adv-x="312" 
d="M35 75l157 184l-157 183h94l151 -181v-4l-151 -182h-94z" />
    <glyph glyph-name="fraction" unicode="&#x2044;" horiz-adv-x="382" 
d="M43 -14l-50 26l346 612l49 -27z" />
    <glyph glyph-name="Euro" unicode="&#x20ac;" horiz-adv-x="579" 
d="M519 36q-77 -44 -172 -44t-160.5 52t-82.5 142h-72l11 32h57q-2 16 -2 31t3 34h-69l11 32h62q20 86 86 135.5t158 49.5t170 -35v-122h-72v77q-45 13 -87 13q-67 0 -111 -31t-60 -87h189l-11 -32h-185q-2 -11 -2 -28t2 -37h162l-11 -32h-145q16 -58 60 -91.5t117 -33.5
t154 46v-71z" />
    <glyph glyph-name="numero" unicode="&#x2116;" horiz-adv-x="1050" 
d="M844 161q-74 0 -118 44.5t-44 120t44 120.5t117.5 45t118 -45.5t44.5 -120.5t-44 -119.5t-118 -44.5zM844 224q40 0 63 28t23 74t-23 73.5t-63 27.5t-63.5 -28t-23.5 -73.5t23.5 -73.5t63.5 -28zM685 30v64h318v-64h-318zM41 0v68h88v473h-88v68h170l289 -465v397h-88v68
h252v-68h-88v-541h-70l-302 480v-412h89v-68h-252z" />
    <glyph glyph-name="trademark" unicode="&#x2122;" horiz-adv-x="710" 
d="M323 361v30h32l8 187h-34v31h82l76 -170l76 170h81v-32h-33l7 -186h33v-30h-108v30h36l-5 158l-76 -160h-25l-75 163l-6 -161h36v-30h-105zM118 361v30h37v184h-55v-44h-36v78h225v-78h-35v44h-56v-184h36v-30h-116z" />
    <glyph glyph-name="minus" unicode="&#x2212;" horiz-adv-x="533" 
d="M59 204v66h415v-66h-415z" />
    <glyph glyph-name="approxequal" unicode="&#x2248;" horiz-adv-x="594" 
d="M202 436q36 0 74 -21.5t72 -43t60 -21.5q54 0 92 86l44 -22q-40 -102 -88 -128q-23 -12 -49 -12q-40 0 -106.5 44.5t-101.5 44.5q-60 0 -102 -89l-44 21q26 64 60.5 102.5t88.5 38.5zM202 235q36 0 74 -21.5t72 -43t60 -21.5q54 0 92 86l44 -22q-40 -102 -88 -128
q-23 -12 -56 -12t-99.5 44t-101.5 44q-60 0 -102 -88l-44 21q26 63 60.5 102t88.5 39z" />
    <glyph glyph-name="notequal" unicode="&#x2260;" horiz-adv-x="575" 
d="M80 89v69h143l74 157h-217v69h250l79 168l43 -20l-70 -148h112v-69h-145l-73 -157h218v-69h-251l-78 -167l-43 20l69 147h-111z" />
    <glyph glyph-name="lessequal" unicode="&#x2264;" horiz-adv-x="496" 
d="M52 32v57h387v-57h-387zM439 120l-387 150v44l387 149v-67l-284 -104l284 -105v-67z" />
    <glyph glyph-name="greaterequal" unicode="&#x2265;" horiz-adv-x="496" 
d="M58 32v57h386v-57h-386zM58 120v67l284 105l-284 104v67l386 -149v-44z" />
    <glyph glyph-name="OE.smcp" unicode="&#xe04a;" horiz-adv-x="738" 
d="M295 0q-119 0 -187.5 65.5t-68.5 178t69 178t187 65.5h394v-141h-77v76h-177v-144h191v-65h-191v-147h179v78h78v-144h-397zM295 68h60v352h-59q-81 0 -126 -47.5t-45 -128.5t45 -128.5t125 -47.5z" />
    <glyph glyph-name="dotaccent.cap" unicode="&#xefed;" horiz-adv-x="239" 
d="M119 667q-24 0 -41 17t-17 41t17 40.5t41 16.5t40.5 -16.5t16.5 -40.5t-16.5 -41t-40.5 -17z" />
    <glyph glyph-name="breve.cap" unicode="&#xefee;" horiz-adv-x="386" 
d="M192 663q-63 0 -104 40t-45 106h64q10 -76 85 -76t85 76h64q-4 -66 -45 -106t-104 -40z" />
    <glyph glyph-name="ogonek.cap" unicode="&#xeff1;" horiz-adv-x="297" 
d="M245 -186q-42 -18 -87.5 -18t-74.5 21t-29 66.5t38 82t99 68.5l27 -19q-35 -23 -60.5 -55.5t-25.5 -66.5q0 -42 48 -42q27 0 59 15z" />
    <glyph glyph-name="cedilla.cap" unicode="&#xeff2;" horiz-adv-x="304" 
d="M202 -179q-37 -21 -83.5 -21t-74.5 5l12 51q23 -5 49 -5q59 0 59 34q0 38 -76 38v19l48 95l45 -12l-28 -63q36 -2 61 -22.5t25 -59t-37 -59.5z" />
    <glyph glyph-name="ring.cap" unicode="&#xeff3;" horiz-adv-x="352" 
d="M175 659q-54 0 -85.5 31t-31.5 76.5t31.5 76.5t85.5 31t85 -31t31 -76.5t-31 -76.5t-85 -31zM136.5 725q13.5 -17 38 -17t38 17t13.5 41.5t-13.5 41.5t-38 17t-38 -17t-13.5 -41.5t13.5 -41.5z" />
    <glyph glyph-name="tilde.cap" unicode="&#xeff5;" horiz-adv-x="466" 
d="M123 786q17 10 41 10t70 -25.5t69 -25.5q40 0 66 54l34 -18q-35 -80 -69 -100q-18 -10 -41.5 -10t-70 25.5t-65.5 25.5q-37 0 -66 -53l-33 16q32 82 65 101z" />
    <glyph glyph-name="circumflex.cap" unicode="&#xeff7;" horiz-adv-x="434" 
d="M72 666l-20 26l137 137h56l139 -137l-21 -26l-146 80z" />
    <glyph glyph-name="at.cap" unicode="&#xf633;" horiz-adv-x="745" 
d="M337 118q-64 0 -100.5 43.5t-36.5 118.5t52.5 135t132 60t111.5 -71h2q5 30 18 55h51q-39 -151 -39 -225t47 -74q40 0 68 43.5t28 117.5q0 125 -79.5 203t-204.5 78t-214.5 -88.5t-89.5 -215t86.5 -212.5t212.5 -86q91 0 168 51l23 -36q-94 -58 -193 -58
q-145 0 -242.5 100.5t-97.5 245t105 243t245 98.5t231.5 -90.5t91.5 -233.5q0 -96 -42 -149t-107 -53q-46 0 -66.5 23.5t-23.5 50.5h-4q-50 -74 -133 -74zM289 198.5q23 -27.5 68.5 -27.5t80 45t34.5 100q0 107 -81 107q-53 0 -89 -44t-36 -98.5t23 -82z" />
    <glyph glyph-name="Abreve.smcp" unicode="&#xf66d;" 
d="M8 0v65h64l147 357h-68v65h193l172 -422h66v-65h-226v65h76l-36 88h-208l-36 -88h76v-65h-220zM213 218h158l-79 197zM281 541q-59 0 -96 36t-40 96h59q9 -67 77 -67t77 67h59q-3 -60 -40 -96t-96 -36z" />
    <glyph glyph-name="Amacron.smcp" unicode="&#xf66e;" 
d="M8 0v65h64l147 357h-68v65h193l172 -422h66v-65h-226v65h76l-36 88h-208l-36 -88h76v-65h-220zM213 218h158l-79 197zM153 553v62h247v-62h-247z" />
    <glyph glyph-name="Aogonek.smcp" unicode="&#xf66f;" 
d="M495 -191q-42 0 -68.5 19.5t-26.5 56.5q0 63 82 115h-126v65h76l-36 88h-208l-36 -88h76v-65h-220v65h64l147 357h-68v65h193l172 -422h66v-65h-41q-68 -46 -68 -100q0 -39 43 -39q30 0 54 13l5 -48q-38 -17 -80 -17zM213 218h158l-79 197z" />
    <glyph glyph-name="AEacute.smcp" unicode="&#xf670;" horiz-adv-x="799" 
d="M8 0v66h60l247 356h-58v65h493v-141h-77v76h-177v-144h191v-65h-191v-147h179v78h78v-144h-405v65h68v88h-198l-61 -88h62v-65h-211zM416 215v207h-14l-143 -207h157zM448 537l-27 33l147 145l54 -68z" />
    <glyph glyph-name="Cacute.smcp" unicode="&#xf671;" horiz-adv-x="528" 
d="M490 35q-81 -45 -192 -45t-185.5 66t-74.5 184.5t75 187.5t195 69q94 0 181 -38v-132h-79v87q-44 15 -99 15q-84 0 -135.5 -48t-51.5 -135.5t52 -137t135 -49.5t179 47v-71zM246 542l-26 32l146 145l54 -67z" />
    <glyph glyph-name="Ccaron.smcp" unicode="&#xf672;" horiz-adv-x="528" 
d="M490 35q-81 -45 -192 -45t-185.5 66t-74.5 184.5t75 187.5t195 69q94 0 181 -38v-132h-79v87q-44 15 -99 15q-84 0 -135.5 -48t-51.5 -135.5t52 -137t135 -49.5t179 47v-71zM273 547l-125 123l19 25l133 -71l132 71l20 -25l-126 -123h-53z" />
    <glyph glyph-name="Ccircumflex.smcp" unicode="&#xf673;" horiz-adv-x="528" 
d="M490 35q-81 -45 -192 -45t-185.5 66t-74.5 184.5t75 187.5t195 69q94 0 181 -38v-132h-79v87q-44 15 -99 15q-84 0 -135.5 -48t-51.5 -135.5t52 -137t135 -49.5t179 47v-71zM166 542l-20 24l126 124h53l125 -124l-19 -24l-133 70z" />
    <glyph glyph-name="Cdotaccent.smcp" unicode="&#xf674;" horiz-adv-x="528" 
d="M490 35q-81 -45 -192 -45t-185.5 66t-74.5 184.5t75 187.5t195 69q94 0 181 -38v-132h-79v87q-44 15 -99 15q-84 0 -135.5 -48t-51.5 -135.5t52 -137t135 -49.5t179 47v-71zM297 546q-23 0 -38 15t-15 38t15.5 38.5t38 15.5t38 -15.5t15.5 -38t-15.5 -38t-38.5 -15.5z
" />
    <glyph glyph-name="Dcaron.smcp" unicode="&#xf675;" horiz-adv-x="580" 
d="M40 0v65h73v357h-73v65h228q129 0 201 -65.5t72 -178t-72 -178t-201 -65.5h-228zM196 66h72q91 0 139 46.5t48 130.5t-48.5 131.5t-138.5 47.5h-72v-356zM258 542l-125 123l19 25l132 -71l133 71l20 -25l-126 -123h-53z" />
    <glyph glyph-name="Dcroat.smcp" unicode="&#xf676;" horiz-adv-x="581" 
d="M47 215v61h66v146h-73v65h228q129 0 201.5 -65.5t72.5 -178t-72.5 -178t-201.5 -65.5h-228v65h73v150h-66zM197 66h72q90 0 138.5 46.5t48.5 130.5t-48.5 131.5t-138.5 47.5h-72v-146h128v-61h-128v-149z" />
    <glyph glyph-name="Ebreve.smcp" unicode="&#xf677;" horiz-adv-x="506" 
d="M40 0v65h73v357h-73v65h416v-141h-76v76h-184v-144h197v-65h-197v-147h186v78h77v-144h-419zM360.5 577q-37.5 -36 -96 -36t-96 36t-39.5 96h59q9 -67 77.5 -67t75.5 67h60q-3 -60 -40.5 -96z" />
    <glyph glyph-name="Ecaron.smcp" unicode="&#xf678;" horiz-adv-x="506" 
d="M40 0v65h73v357h-73v65h416v-141h-76v76h-184v-144h197v-65h-197v-147h186v78h77v-144h-419zM240 542l-125 123l19 25l133 -71l133 71l19 -25l-126 -123h-53z" />
    <glyph glyph-name="Edotaccent.smcp" unicode="&#xf679;" horiz-adv-x="506" 
d="M40 0v65h73v357h-73v65h416v-141h-76v76h-184v-144h197v-65h-197v-147h186v78h77v-144h-419zM266 541q-22 0 -37.5 15.5t-15.5 38t15.5 38t37.5 15.5t38 -16t16 -38t-16 -37.5t-38 -15.5z" />
    <glyph glyph-name="Emacron.smcp" unicode="&#xf67a;" horiz-adv-x="506" 
d="M40 0v65h73v357h-73v65h416v-141h-76v76h-184v-144h197v-65h-197v-147h186v78h77v-144h-419zM140 553v62h247v-62h-247z" />
    <glyph glyph-name="Eng.smcp" unicode="&#xf67b;" horiz-adv-x="642" 
d="M455 12v12l-264 348v-307h78v-65h-229v65h73v357h-73v65h156l265 -352v287h-79v65h230v-65h-73v-410q0 -73 -51 -110q-39 -28 -91 -47l-25 58q83 41 83 99z" />
    <glyph glyph-name="Eogonek.smcp" unicode="&#xf67c;" horiz-adv-x="506" 
d="M40 0v65h73v357h-73v65h416v-141h-76v76h-184v-144h197v-65h-197v-147h186v78h77v-144h-23q-67 -47 -67 -100q0 -39 42 -39q30 0 54 13l5 -48q-36 -17 -79 -17t-69 19.5t-26 56.5q0 62 81 115h-337z" />
    <glyph glyph-name="Gbreve.smcp" unicode="&#xf67d;" horiz-adv-x="585" 
d="M313 -10q-133 0 -204 68t-71 186t76 185.5t203 67.5q97 0 190 -36v-123h-78v76q-58 15 -108 15q-90 0 -144 -47.5t-54 -131.5t48 -138t145 -54q55 0 123 24v116h-112v64h231v-64h-42v-163q-109 -45 -203 -45zM404.5 581.5q-37.5 -36.5 -96 -36.5t-96 36.5t-39.5 96.5h59
q7 -67 75.5 -67t77.5 67h60q-3 -60 -40.5 -96.5z" />
    <glyph glyph-name="Gcircumflex.smcp" unicode="&#xf67e;" horiz-adv-x="585" 
d="M313 -10q-133 0 -204 68t-71 186t76 185.5t203 67.5q97 0 190 -36v-123h-78v76q-58 15 -108 15q-90 0 -144 -47.5t-54 -131.5t48 -138t145 -54q55 0 123 24v116h-112v64h231v-64h-42v-163q-109 -45 -203 -45zM176 542l-19 25l125 123h53l126 -123l-19 -25l-134 70z" />
    <glyph glyph-name="Gcommaaccent.smcp" unicode="&#xf67f;" horiz-adv-x="585" 
d="M313 -63q25 0 39 -17.5t14 -46.5t-21.5 -64t-55.5 -63l-35 27q40 48 40 87t-32 52v8q26 17 51 17zM313 -10q-133 0 -204 68t-71 186t76 185.5t203 67.5q97 0 190 -36v-123h-78v76q-58 15 -108 15q-90 0 -144 -47.5t-54 -131.5t48 -138t145 -54q55 0 123 24v116h-112v64
h231v-64h-42v-163q-109 -45 -203 -45z" />
    <glyph glyph-name="Gdotaccent.smcp" unicode="&#xf680;" horiz-adv-x="585" 
d="M313 -10q-133 0 -204 68t-71 186t76 185.5t203 67.5q97 0 190 -36v-123h-78v76q-58 15 -108 15q-90 0 -144 -47.5t-54 -131.5t48 -138t145 -54q55 0 123 24v116h-112v64h231v-64h-42v-163q-109 -45 -203 -45zM349.5 561.5q-15.5 -15.5 -38 -15.5t-38 15t-15.5 38
t15.5 38.5t38 15.5t38 -16t15.5 -38t-15.5 -37.5z" />
    <glyph glyph-name="Hbar.smcp" unicode="&#xf681;" horiz-adv-x="649" 
d="M47 335v36h65v51h-73v65h229v-65h-72v-51h257v51h-72v65h229v-65h-73v-51h65v-36h-65v-270h73v-65h-229v65h72v147h-257v-147h72v-65h-229v65h73v270h-65zM196 279h257v57h-257v-57z" />
    <glyph glyph-name="Hcircumflex.smcp" unicode="&#xf682;" horiz-adv-x="650" 
d="M40 0v65h73v357h-73v65h229v-65h-73v-143h258v143h-73v65h229v-65h-72v-357h72v-65h-229v65h73v147h-258v-147h73v-65h-229zM193 537l-20 25l125 123h54l125 -123l-19 -25l-133 70z" />
    <glyph glyph-name="Ibreve.smcp" unicode="&#xf683;" horiz-adv-x="309" 
d="M40 0v65h73v357h-73v65h229v-65h-73v-357h73v-65h-229zM154 541q-59 0 -96 36t-40 96h59q9 -67 77 -67t77 67h59q-3 -60 -40 -96t-96 -36z" />
    <glyph glyph-name="Imacron.smcp" unicode="&#xf685;" horiz-adv-x="309" 
d="M40 0v65h73v357h-73v65h229v-65h-73v-357h73v-65h-229zM31 553v62h247v-62h-247z" />
    <glyph glyph-name="Iogonek.smcp" unicode="&#xf686;" horiz-adv-x="309" 
d="M40 0v65h73v357h-73v65h229v-65h-73v-357h73v-65h-57q-67 -47 -67 -100q0 -39 42 -39q30 0 54 13l5 -48q-36 -17 -79 -17t-69 19.5t-26 56.5q0 62 81 115h-113z" />
    <glyph glyph-name="Itilde.smcp" unicode="&#xf687;" horiz-adv-x="309" 
d="M40 0v65h73v357h-73v65h229v-65h-73v-357h73v-65h-229zM54 648q16 9 38 9t63.5 -22.5t62.5 -22.5q35 0 60 48l31 -17q-40 -100 -98 -100q-24 0 -66.5 22t-59.5 22q-35 0 -59 -46l-32 15q32 77 60 92z" />
    <glyph glyph-name="Jcircumflex.smcp" unicode="&#xf688;" horiz-adv-x="290" 
d="M103 12v410h-73v65h230v-65h-73v-412q0 -73 -51 -109q-41 -29 -91 -46l-25 58q83 41 83 99zM11 537l-20 25l126 123h53l125 -123l-19 -25l-133 70z" />
    <glyph glyph-name="Kcommaaccent.smcp" unicode="&#xf689;" horiz-adv-x="586" 
d="M281 -75q25 17 50.5 17t39.5 -17.5t14 -46.5t-21.5 -64t-55.5 -63l-36 27q41 47 41 86.5t-32 52.5v8zM333 423v64h225v-65h-63l-175 -173l166 -184h78v-65h-129l-211 241v2l182 180h-73zM40 0v65h73v357h-73v65h229v-65h-73v-357h73v-65h-229z" />
    <glyph glyph-name="Lacute.smcp" unicode="&#xf68a;" horiz-adv-x="477" 
d="M40 0v65h73v357h-73v65h238v-65h-82v-356h183v83h77v-149h-416zM132 537l-27 33l146 145l54 -68z" />
    <glyph glyph-name="Lcaron.smcp" unicode="&#xf68b;" horiz-adv-x="483" 
d="M329 477q24 17 49.5 17t39.5 -18t14 -46.5t-21.5 -63.5t-55.5 -63l-35 27q40 48 40 86.5t-31 52.5v8zM40 0v65h73v357h-73v65h238v-65h-82v-356h183v83h77v-149h-416z" />
    <glyph glyph-name="Lcommaaccent.smcp" unicode="&#xf68c;" horiz-adv-x="477" 
d="M275 -58q26 0 39.5 -17.5t13.5 -46.5t-21.5 -64t-55.5 -63l-35 27q40 48 40 86.5t-31 52.5v8q24 17 50 17zM40 0v65h73v357h-73v65h238v-65h-82v-356h183v83h77v-149h-416z" />
    <glyph glyph-name="Ldot.smcp" unicode="&#xf68d;" horiz-adv-x="478" 
d="M40 0v65h73v357h-73v65h238v-65h-82v-356h183v83h77v-149h-416zM407.5 236.5q-15.5 -15.5 -38 -15.5t-38 15.5t-15.5 38t15.5 38t37.5 15.5t38 -15.5t16 -38t-15.5 -38z" />
    <glyph glyph-name="Nacute.smcp" unicode="&#xf68e;" horiz-adv-x="642" 
d="M40 0v65h73v357h-73v65h156l265 -363v298h-79v65h230v-65h-73v-422h-74l-274 372v-307h78v-65h-229zM277 537l-27 33l146 145l54 -68z" />
    <glyph glyph-name="Ncaron.smcp" unicode="&#xf68f;" horiz-adv-x="642" 
d="M40 0v65h73v357h-73v65h156l265 -363v298h-79v65h230v-65h-73v-422h-74l-274 372v-307h78v-65h-229zM296 542l-125 123l19 25l133 -71l132 71l20 -25l-126 -123h-53z" />
    <glyph glyph-name="Ncommaaccent.smcp" unicode="&#xf690;" horiz-adv-x="642" 
d="M289 -75q24 17 49.5 17t39.5 -17.5t14 -46.5t-21.5 -64t-55.5 -63l-35 27q40 48 40 86.5t-31 52.5v8zM40 0v65h73v357h-73v65h156l265 -363v298h-79v65h230v-65h-73v-422h-74l-274 372v-307h78v-65h-229z" />
    <glyph glyph-name="Obreve.smcp" unicode="&#xf691;" horiz-adv-x="599" 
d="M300 -10q-118 0 -190 70.5t-72 183t72 183t190 70.5t190 -71t72 -183t-72 -182.5t-190 -70.5zM172.5 108.5q49.5 -50.5 127 -50.5t127 50.5t49.5 134.5t-49 135t-127 51t-127.5 -51t-49.5 -135t49.5 -134.5zM299 545q-58 0 -95.5 36.5t-40.5 96.5h59q9 -67 77 -67t77 67
h60q-4 -60 -41.5 -96.5t-95.5 -36.5z" />
    <glyph glyph-name="Ohungarumlaut.smcp" unicode="&#xf692;" horiz-adv-x="599" 
d="M300 -10q-118 0 -190 70.5t-72 183t72 183t190 70.5t190 -71t72 -183t-72 -182.5t-190 -70.5zM172.5 108.5q49.5 -50.5 127 -50.5t127 50.5t49.5 134.5t-49 135t-127 51t-127.5 -51t-49.5 -135t49.5 -134.5zM198 541l-27 25l111 158l58 -54zM346 541l-27 25l111 158
l58 -54z" />
    <glyph glyph-name="Omacron.smcp" unicode="&#xf693;" horiz-adv-x="599" 
d="M300 -10q-118 0 -190 70.5t-72 183t72 183t190 70.5t190 -71t72 -183t-72 -182.5t-190 -70.5zM172.5 108.5q49.5 -50.5 127 -50.5t127 50.5t49.5 134.5t-49 135t-127 51t-127.5 -51t-49.5 -135t49.5 -134.5zM176 558v61h247v-61h-247z" />
    <glyph glyph-name="Oslashacute.smcp" unicode="&#xf694;" horiz-adv-x="598" 
d="M299 -10q-93 0 -160 45l-43 -48l-29 24l42 49q-72 69 -72 182.5t72 184t190 70.5q92 0 159 -46l44 49l29 -25l-44 -48q74 -71 74 -183.5t-72 -183t-190 -70.5zM408 394q-46 35 -116.5 35t-120 -51t-49.5 -130.5t41 -128.5zM190 92q45 -34 115.5 -34t120 50.5t49.5 130
t-41 128.5zM252 542l-27 32l147 145l54 -67z" />
    <glyph glyph-name="Racute.smcp" unicode="&#xf695;" horiz-adv-x="552" 
d="M40 0v65h73v357h-73v65h243q93 0 147.5 -43t54.5 -109q0 -46 -27.5 -82t-80.5 -50l78 -139h71v-64h-130l-99 182q-8 -1 -23 -1h-78v-116h73v-65h-229zM196 246h87q61 0 89.5 24.5t28.5 63.5t-29 63.5t-89 24.5h-87v-176zM218 537l-27 33l147 145l54 -68z" />
    <glyph glyph-name="Rcaron.smcp" unicode="&#xf696;" horiz-adv-x="552" 
d="M40 0v65h73v357h-73v65h243q93 0 147.5 -43t54.5 -109q0 -46 -27.5 -82t-80.5 -50l78 -139h71v-64h-130l-99 182q-8 -1 -23 -1h-78v-116h73v-65h-229zM196 246h87q61 0 89.5 24.5t28.5 63.5t-29 63.5t-89 24.5h-87v-176zM242 542l-125 123l19 25l133 -71l133 71l19 -25
l-126 -123h-53z" />
    <glyph glyph-name="Rcommaaccent.smcp" unicode="&#xf697;" horiz-adv-x="552" 
d="M255 -75q25 17 50.5 17t39.5 -17.5t14 -46.5t-21.5 -64t-55.5 -63l-35 27q40 48 40 87t-32 52v8zM40 0v65h73v357h-73v65h243q93 0 147.5 -43t54.5 -109q0 -46 -27.5 -82t-80.5 -50l78 -139h71v-64h-130l-99 182q-8 -1 -23 -1h-78v-116h73v-65h-229zM196 246h87
q61 0 89.5 24.5t28.5 63.5t-29 63.5t-89 24.5h-87v-176z" />
    <glyph glyph-name="Sacute.smcp" unicode="&#xf698;" horiz-adv-x="446" 
d="M355 23q-51 -33 -136 -33t-175 27v124h77v-73q43 -12 92 -12t80 16t31 49t-28 53t-67.5 32.5t-79.5 27.5t-68 47t-28 80q0 68 49 102t127 34t160 -24v-121h-76v72q-42 8 -83 8t-68.5 -17t-27.5 -47.5t28 -50t68 -32t80 -28.5t68 -48.5t28 -82.5q0 -70 -51 -103zM180 542
l-27 33l146 145l55 -68z" />
    <glyph glyph-name="Scedilla.smcp" unicode="&#xf699;" horiz-adv-x="447" 
d="M275.5 -173q-33.5 -19 -77 -19t-68.5 5l11 47q20 -5 45 -5q53 0 53 31q0 33 -68 33v18l27 54q-80 3 -154 26v124h77v-73q43 -12 92 -12t80 16t31 49t-28 53t-67.5 32.5t-79.5 27.5t-68 47t-28 80q0 68 49 102t127 34t160 -24v-121h-76v72q-42 8 -83 8t-68.5 -17
t-27.5 -47.5t28 -50t68 -32t80 -28.5t68 -48.5t28 -89t-42.5 -89.5t-116.5 -39l-15 -35q32 -2 54.5 -20.5t22.5 -54t-33.5 -54.5z" />
    <glyph glyph-name="Scircumflex.smcp" unicode="&#xf69a;" horiz-adv-x="446" 
d="M355 23q-51 -33 -136 -33t-175 27v124h77v-73q43 -12 92 -12t80 16t31 49t-28 53t-67.5 32.5t-79.5 27.5t-68 47t-28 80q0 68 49 102t127 34t160 -24v-121h-76v72q-42 8 -83 8t-68.5 -17t-27.5 -47.5t28 -50t68 -32t80 -28.5t68 -48.5t28 -82.5q0 -70 -51 -103zM101 542
l-20 24l125 124h54l125 -124l-19 -24l-133 70z" />
    <glyph glyph-name="Scommaaccent.smcp" unicode="&#xf69b;" horiz-adv-x="446" 
d="M235 -63q25 0 39 -17.5t14 -46.5t-21.5 -64t-55.5 -63l-35 27q40 48 40 87t-32 52v8q26 17 51 17zM355 23q-51 -33 -136 -33t-175 27v124h77v-73q43 -12 92 -12t80 16t31 49t-28 53t-67.5 32.5t-79.5 27.5t-68 47t-28 80q0 68 49 102t127 34t160 -24v-121h-76v72
q-42 8 -83 8t-68.5 -17t-27.5 -47.5t28 -50t68 -32t80 -28.5t68 -48.5t28 -82.5q0 -70 -51 -103z" />
    <glyph glyph-name="Tbar.smcp" unicode="&#xf69c;" horiz-adv-x="507" 
d="M101 206v50h110v166h-110v-82h-76v147h457v-147h-76v82h-111v-166h111v-50h-111v-141h81v-65h-245v65h80v141h-110z" />
    <glyph glyph-name="Tcaron.smcp" unicode="&#xf69d;" horiz-adv-x="505" 
d="M130 0v65h80v357h-110v-82h-76v147h457v-147h-76v82h-111v-357h81v-65h-245zM225 542l-124 123l18 25l133 -71l133 71l19 -25l-126 -123h-53z" />
    <glyph glyph-name="Tcommaaccent.smcp" unicode="&#xf69e;" horiz-adv-x="505" 
d="M204 -75q26 17 51 17t39 -17.5t14 -46.5t-21.5 -64t-55.5 -63l-36 27q41 47 41 86t-32 53v8zM130 0v65h80v357h-110v-82h-76v147h457v-147h-76v82h-111v-357h81v-65h-245z" />
    <glyph glyph-name="Ubreve.smcp" unicode="&#xf69f;" horiz-adv-x="600" 
d="M448.5 37.5q-53.5 -47.5 -144.5 -47.5t-148 43t-57 130v259h-72v65h229v-65h-74v-256q0 -56 33.5 -81.5t87.5 -25.5t87.5 26t33.5 81v256h-76v65h225v-65h-71v-252q0 -85 -53.5 -132.5zM397.5 577q-37.5 -36 -96 -36t-95.5 36t-40 96h59q9 -67 77.5 -67t75.5 67h60
q-3 -60 -40.5 -96z" />
    <glyph glyph-name="Uhungarumlaut.smcp" unicode="&#xf6a0;" horiz-adv-x="600" 
d="M448.5 37.5q-53.5 -47.5 -144.5 -47.5t-148 43t-57 130v259h-72v65h229v-65h-74v-256q0 -56 33.5 -81.5t87.5 -25.5t87.5 26t33.5 81v256h-76v65h225v-65h-71v-252q0 -85 -53.5 -132.5zM206 537l-27 24l111 158l58 -54zM354 537l-27 24l111 158l58 -54z" />
    <glyph glyph-name="Umacron.smcp" unicode="&#xf6a1;" horiz-adv-x="600" 
d="M448.5 37.5q-53.5 -47.5 -144.5 -47.5t-148 43t-57 130v259h-72v65h229v-65h-74v-256q0 -56 33.5 -81.5t87.5 -25.5t87.5 26t33.5 81v256h-76v65h225v-65h-71v-252q0 -85 -53.5 -132.5zM178 553v62h247v-62h-247z" />
    <glyph glyph-name="Uogonek.smcp" unicode="&#xf6a2;" horiz-adv-x="601" 
d="M439 -174q-36 -17 -79 -17t-69 19t-26 56q0 58 66 108q-22 -2 -32 -2q-86 0 -143 43t-57 130v259h-72v65h229v-65h-74v-256q0 -56 33.5 -81.5t87.5 -25.5t87.5 26t33.5 81v256h-76v65h225v-65h-71v-252q0 -66 -29 -103q-22 -29 -54 -51q-81 -57 -81 -114q0 -41 43 -41
q29 0 53 13z" />
    <glyph glyph-name="Uring.smcp" unicode="&#xf6a3;" horiz-adv-x="600" 
d="M448.5 37.5q-53.5 -47.5 -144.5 -47.5t-148 43t-57 130v259h-72v65h229v-65h-74v-256q0 -56 33.5 -81.5t87.5 -25.5t87.5 26t33.5 81v256h-76v65h225v-65h-71v-252q0 -85 -53.5 -132.5zM382 562.5q-28 -27.5 -78.5 -27.5t-78.5 27.5t-28 69.5t28 69.5t78.5 27.5
t78.5 -27.5t28 -69.5t-28 -69.5zM304 581q22 0 33.5 14.5t11.5 36.5t-12 36.5t-33.5 14.5t-33.5 -15t-12 -36.5t12 -36t34 -14.5z" />
    <glyph glyph-name="Utilde.smcp" unicode="&#xf6a4;" horiz-adv-x="600" 
d="M448.5 37.5q-53.5 -47.5 -144.5 -47.5t-148 43t-57 130v259h-72v65h229v-65h-74v-256q0 -56 33.5 -81.5t87.5 -25.5t87.5 26t33.5 81v256h-76v65h225v-65h-71v-252q0 -85 -53.5 -132.5zM204 648q15 9 37 9t64 -22.5t62 -22.5q35 0 60 48l31 -17q-40 -100 -97 -100
q-24 0 -67 22t-60 22q-35 0 -59 -46l-31 15q32 77 60 92z" />
    <glyph glyph-name="Wcircumflex.smcp" unicode="&#xf6a6;" horiz-adv-x="802" 
d="M4 422v65h227v-62h-77l106 -329l106 290l-15 39h-67v62h226v-62h-77l113 -328l106 327h-76v63h222v-65h-68l-145 -422h-79l-104 284l-107 -284h-79l-145 422h-67zM264 537l-19 25l125 123h53l126 -123l-19 -25l-134 70z" />
    <glyph glyph-name="Ycircumflex.smcp" unicode="&#xf6a9;" horiz-adv-x="544" 
d="M151 0v65h79v109l-160 248h-67v65h230v-63h-74l115 -177l115 177h-73v63h224v-65h-66l-161 -248v-109h79v-65h-241zM140 537l-19 25l125 123h53l125 -123l-18 -25l-134 70z" />
    <glyph glyph-name="Zacute.smcp" unicode="&#xf6ab;" horiz-adv-x="494" 
d="M40 0v67l299 354h-213v-88h-78v154h393v-68l-299 -353h235v90h77v-156h-414zM201 537l-27 33l146 145l54 -68z" />
    <glyph glyph-name="Zdotaccent.smcp" unicode="&#xf6ac;" horiz-adv-x="494" 
d="M40 0v67l299 354h-213v-88h-78v154h393v-68l-299 -353h235v90h77v-156h-414zM252 541q-22 0 -38 15.5t-16 37.5t16 38t38 16t37.5 -15.5t15.5 -38t-15.5 -38t-37.5 -15.5z" />
    <glyph glyph-name="Idotaccent.smcp" unicode="&#xf6ad;" horiz-adv-x="309" 
d="M40 0v65h73v357h-73v65h229v-65h-73v-357h73v-65h-229zM154 541q-22 0 -37.5 15.5t-15.5 38t15.5 38t37.5 15.5t38 -16t16 -38t-16 -37.5t-38 -15.5z" />
    <glyph glyph-name="parenleft.cap" unicode="&#xf6ae;" horiz-adv-x="271" 
d="M34 304q0 111 38 231.5t107 220.5h87q-72 -97 -111 -217.5t-39 -235t38.5 -234.5t111.5 -218h-87q-69 101 -107 221.5t-38 231.5z" />
    <glyph glyph-name="parenright.cap" unicode="&#xf6af;" horiz-adv-x="271" 
d="M155 304q0 114 -39 234t-112 218h87q69 -100 107.5 -220.5t38.5 -231.5t-38.5 -232t-107.5 -221h-87q73 98 112 218.5t39 234.5z" />
    <glyph glyph-name="bracketleft.cap" unicode="&#xf6b0;" horiz-adv-x="297" 
d="M78 -149v905h200v-59h-121v-787h121v-59h-200z" />
    <glyph glyph-name="bracketright.cap" unicode="&#xf6b1;" horiz-adv-x="297" 
d="M18 -149v59h122v787h-122v59h201v-905h-201z" />
    <glyph glyph-name="braceleft.cap" unicode="&#xf6b2;" horiz-adv-x="300" 
d="M213 -161q-58 0 -86.5 30.5t-28.5 77.5q0 26 14.5 99t14.5 109q0 109 -119 117v65q66 4 92.5 34.5t26.5 74.5t-14.5 117t-14.5 99q0 47 28.5 77.5t86.5 30.5q30 0 63 -10v-52q-26 6 -47 6q-53 0 -53 -57q0 -23 15 -99t15 -116q0 -115 -105 -138q105 -23 105 -137
q0 -40 -15 -116t-15 -100q0 -57 53 -57q17 0 47 7v-52q-33 -10 -63 -10z" />
    <glyph glyph-name="braceright.cap" unicode="&#xf6b3;" horiz-adv-x="300" 
d="M87 -161q-30 0 -63 10v52q30 -7 47 -7q53 0 53 57q0 24 -15 100t-15 116q0 114 105 137q-105 23 -105 138q0 40 15 116t15 99q0 57 -53 57q-21 0 -47 -6v52q33 10 63 10q58 0 86.5 -30.5t28.5 -77.5q0 -26 -14.5 -99t-14.5 -117t26.5 -74.5t92.5 -34.5v-65
q-119 -8 -119 -117q0 -36 14.5 -109t14.5 -99q0 -47 -28.5 -77.5t-86.5 -30.5z" />
    <glyph glyph-name="exclamdown.cap" unicode="&#xf6b4;" horiz-adv-x="248" 
d="M156 442l15 -442h-94l15 442h64zM124 618q23 0 39.5 -16.5t16.5 -39.5t-16.5 -40t-39.5 -17t-39.5 17t-16.5 40t16.5 39.5t39.5 16.5z" />
    <glyph glyph-name="questiondown.cap" unicode="&#xf6b5;" horiz-adv-x="375" 
d="M345 8q-64 -20 -137 -20t-122 36.5t-49 106.5q0 71 51 124q21 22 42 43q52 49 52 93q0 20 -11 51h80q10 -22 10 -52.5t-14 -57.5t-33.5 -47.5t-39.5 -41.5q-48 -50 -48 -105q0 -84 102 -84q51 0 117 18v-64zM211 618q23 0 39.5 -16.5t16.5 -39.5t-16.5 -40t-39.5 -17
t-39.5 17t-16.5 40t16.5 39.5t39.5 16.5z" />
    <glyph glyph-name="guillemotleft.cap" unicode="&#xf6b6;" horiz-adv-x="561" 
d="M418 121l-151 181v4l151 182h94l-157 -184l157 -183h-94zM194 121l-151 181v4l151 182h93l-156 -184l156 -183h-93z" />
    <glyph glyph-name="guillemotright.cap" unicode="&#xf6b7;" horiz-adv-x="561" 
d="M50 121l156 183l-156 184h93l151 -182v-4l-151 -181h-93zM274 121l156 183l-156 184h94l151 -182v-4l-151 -181h-94z" />
    <glyph glyph-name="guilsinglleft.cap" unicode="&#xf6b8;" horiz-adv-x="337" 
d="M194 121l-151 181v4l151 182h93l-156 -184l156 -183h-93z" />
    <glyph glyph-name="guilsinglright.cap" unicode="&#xf6b9;" horiz-adv-x="337" 
d="M50 121l156 183l-156 184h93l151 -182v-4l-151 -181h-93z" />
    <glyph glyph-name="hyphen.cap" unicode="&#xf6ba;" horiz-adv-x="386" 
d="M56 268v73h274v-73h-274z" />
    <glyph glyph-name="endash.cap" unicode="&#xf6bb;" horiz-adv-x="621" 
d="M56 268v73h508v-73h-508z" />
    <glyph glyph-name="emdash.cap" unicode="&#xf6bc;" horiz-adv-x="831" 
d="M56 268v73h718v-73h-718z" />
    <glyph glyph-name="periodcentered.cap" unicode="&#xf6bd;" horiz-adv-x="217" 
d="M108 247q-23 0 -39.5 16.5t-16.5 39.5t16.5 40t39.5 17t40 -17t17 -40t-17 -39.5t-40 -16.5z" />
    <glyph glyph-name="acute.cap" unicode="&#xf6c9;" horiz-adv-x="346" 
d="M85 666l-28 35l161 160l58 -73z" />
    <glyph glyph-name="caron.cap" unicode="&#xf6ca;" horiz-adv-x="436" 
d="M190 668l-138 137l21 27l145 -81l146 81l20 -27l-138 -137h-56z" />
    <glyph glyph-name="dieresis.cap" unicode="&#xf6cb;" horiz-adv-x="436" 
d="M161 686.5q-15 -15.5 -37.5 -15.5t-38.5 15.5t-16 37.5t16 38t38 16t37.5 -15.5t15.5 -38t-15 -38zM305 671q-23 0 -38 15.5t-15 38t15.5 38t37.5 15.5t37.5 -15.5t15.5 -38t-15 -38t-38 -15.5z" />
    <glyph glyph-name="grave.cap" unicode="&#xf6ce;" horiz-adv-x="346" 
d="M252 666l-190 122l58 73l161 -160z" />
    <glyph glyph-name="hungarumlaut.cap" unicode="&#xf6cf;" horiz-adv-x="515" 
d="M103 666l-30 27l123 175l61 -58zM264 666l-30 27l123 175l62 -58z" />
    <glyph glyph-name="macron.cap" unicode="&#xf6d0;" horiz-adv-x="419" 
d="M74 675v65h270v-65h-270z" />
    <glyph glyph-name="breve.smcp" unicode="&#xf6f4;" horiz-adv-x="338" 
d="M265.5 577q-37.5 -36 -96 -36t-96 36t-39.5 96h59q9 -67 77.5 -67t75.5 67h60q-3 -60 -40.5 -96z" />
    <glyph glyph-name="caron.smcp" unicode="&#xf6f5;" horiz-adv-x="391" 
d="M166 542l-124 123l18 25l133 -71l133 71l19 -25l-126 -123h-53z" />
    <glyph glyph-name="circumflex.smcp" unicode="&#xf6f6;" horiz-adv-x="388" 
d="M64 537l-20 25l125 123h54l125 -123l-19 -25l-133 70z" />
    <glyph glyph-name="dotaccent.smcp" unicode="&#xf6f7;" horiz-adv-x="213" 
d="M106 541q-22 0 -37.5 15.5t-15.5 38t15.5 38t37.5 15.5t38 -16t16 -38t-16 -37.5t-38 -15.5z" />
    <glyph glyph-name="hungarumlaut.smcp" unicode="&#xf6f8;" horiz-adv-x="439" 
d="M84 537l-28 24l111 158l58 -54zM232 537l-28 24l111 158l58 -54z" />
    <glyph glyph-name="Lslash.smcp" unicode="&#xf6f9;" horiz-adv-x="477" 
d="M113 422h-73v65h238v-65h-82v-134l140 66l20 -43l-160 -75v-170h183v83h77v-149h-416v65h73v134l-54 -25l-20 42l74 35v171z" />
    <glyph glyph-name="ogonek.smcp" unicode="&#xf6fb;" horiz-adv-x="256" 
d="M138 -191q-42 0 -68.5 19.5t-26.5 56.5q0 74 125 139l26 -17q-78 -52 -78 -107q0 -39 43 -39q30 0 54 13l5 -48q-38 -17 -80 -17z" />
    <glyph glyph-name="ring.smcp" unicode="&#xf6fc;" horiz-adv-x="317" 
d="M235.5 563q-28.5 -28 -78.5 -28t-78 27.5t-28 69.5t28 69.5t78 27.5t78.5 -28t28.5 -69t-28.5 -69zM158 581q22 0 33.5 14.5t11.5 36.5t-12 36.5t-33.5 14.5t-33.5 -15t-12 -36.5t12 -36t34 -14.5z" />
    <glyph glyph-name="Scaron.smcp" unicode="&#xf6fd;" horiz-adv-x="446" 
d="M355 23q-51 -33 -136 -33t-175 27v124h77v-73q43 -12 92 -12t80 16t31 49t-28 53t-67.5 32.5t-79.5 27.5t-68 47t-28 80q0 68 49 102t127 34t160 -24v-121h-76v72q-42 8 -83 8t-68.5 -17t-27.5 -47.5t28 -50t68 -32t80 -28.5t68 -48.5t28 -82.5q0 -70 -51 -103zM204 547
l-125 123l19 25l133 -71l133 71l19 -25l-126 -123h-53z" />
    <glyph glyph-name="tilde.smcp" unicode="&#xf6fe;" horiz-adv-x="414" 
d="M112 648q16 9 38 9t63.5 -22.5t62.5 -22.5q35 0 60 48l31 -17q-12 -28 -22 -46.5t-30.5 -36t-45 -17.5t-67 22t-59.5 22q-36 0 -60 -46l-31 15q31 75 60 92z" />
    <glyph glyph-name="Zcaron.smcp" unicode="&#xf6ff;" horiz-adv-x="494" 
d="M40 0v67l299 354h-213v-88h-78v154h393v-68l-299 -353h235v90h77v-156h-414zM222 542l-125 123l19 25l133 -71l132 71l20 -25l-126 -123h-53z" />
    <glyph glyph-name="exclam.smcp" unicode="&#xf721;" horiz-adv-x="241" 
d="M90 136l-14 351h89l-13 -351h-62zM121 -7q-21 0 -35.5 14t-14.5 34.5t15 35t35 14.5t35 -14.5t15 -35t-14.5 -34.5t-35.5 -14z" />
    <glyph glyph-name="ampersand.smcp" unicode="&#xf726;" horiz-adv-x="557" 
d="M143 272q-55 55 -55 108t35.5 85t93 32t89.5 -29.5t32 -72.5t-22.5 -71.5t-65.5 -56.5l114 -119q29 45 35 94h-54v59h173v-60h-49q-14 -82 -58 -145q41 -38 75 -38q17 0 28 5v-64q-23 -8 -47 -8q-55 0 -107 50q-63 -51 -146 -51t-128 34.5t-45 99.5q0 49 25.5 82t76.5 66
zM145.5 76q26.5 -20 76.5 -20t92 34l-128 133q-32 -21 -49.5 -41.5t-17.5 -53t26.5 -52.5zM255.5 426q-13.5 14 -37 14t-39 -13.5t-15.5 -39.5t35 -65l8 -9q62 38 62 79q0 20 -13.5 34z" />
    <glyph glyph-name="question.smcp" unicode="&#xf73f;" horiz-adv-x="333" 
d="M32 482q60 15 119.5 15t101 -29.5t41.5 -85.5q0 -54 -42 -98q-18 -18 -35 -34q-42 -40 -42 -74q0 -13 9 -40h-76q-7 18 -7 44t16.5 52.5t37 44t37 43.5t16.5 54q0 62 -80 62q-49 0 -96 -14v60zM147 -7q-21 0 -35.5 14t-14.5 34.5t14.5 35t35.5 14.5t35.5 -14.5t14.5 -35
t-14.5 -34.5t-35.5 -14z" />
    <glyph glyph-name="grave.smcp" unicode="&#xf760;" horiz-adv-x="297" 
d="M223 537l-173 110l54 68l146 -145z" />
    <glyph glyph-name="A.smcp" unicode="&#xf761;" 
d="M8 0v65h64l147 357h-68v65h193l172 -422h66v-65h-226v65h76l-36 88h-208l-36 -88h76v-65h-220zM213 218h158l-79 197z" />
    <glyph glyph-name="B.smcp" unicode="&#xf762;" horiz-adv-x="526" 
d="M41 0v64h72v359h-72v64h245q81 0 132 -33.5t51 -91.5q0 -85 -99 -112q60 -12 88 -44t28 -76q0 -59 -50 -94.5t-139 -35.5h-256zM195 64h100q51 0 80 20t29 55t-29.5 56t-83.5 21h-96v-152zM195 278h83q52 0 80.5 19.5t28.5 53.5t-27 53t-75 19h-90v-145z" />
    <glyph glyph-name="C.smcp" unicode="&#xf763;" horiz-adv-x="528" 
d="M490 35q-81 -45 -192 -45t-185.5 66t-74.5 184.5t75 187.5t195 69q94 0 181 -38v-132h-79v87q-44 15 -99 15q-84 0 -135.5 -48t-51.5 -135.5t52 -137t135 -49.5t179 47v-71z" />
    <glyph glyph-name="D.smcp" unicode="&#xf764;" horiz-adv-x="580" 
d="M40 0v65h73v357h-73v65h228q129 0 201 -65.5t72 -178t-72 -178t-201 -65.5h-228zM196 66h72q91 0 139 46.5t48 130.5t-48.5 131.5t-138.5 47.5h-72v-356z" />
    <glyph glyph-name="E.smcp" unicode="&#xf765;" horiz-adv-x="506" 
d="M40 0v65h73v357h-73v65h416v-141h-76v76h-184v-144h197v-65h-197v-147h186v78h77v-144h-419z" />
    <glyph glyph-name="F.smcp" unicode="&#xf766;" horiz-adv-x="475" 
d="M40 0v65h73v357h-73v65h411v-150h-78v84h-177v-156h184v-67h-184v-133h85v-65h-241z" />
    <glyph glyph-name="G.smcp" unicode="&#xf767;" horiz-adv-x="585" 
d="M313 -10q-133 0 -204 68t-71 186t76 185.5t203 67.5q97 0 190 -36v-123h-78v76q-58 15 -108 15q-90 0 -144 -47.5t-54 -131.5t48 -138t145 -54q55 0 123 24v116h-112v64h231v-64h-42v-163q-109 -45 -203 -45z" />
    <glyph glyph-name="H.smcp" unicode="&#xf768;" horiz-adv-x="650" 
d="M40 0v65h73v357h-73v65h229v-65h-73v-143h258v143h-73v65h229v-65h-72v-357h72v-65h-229v65h73v147h-258v-147h73v-65h-229z" />
    <glyph glyph-name="I.smcp" unicode="&#xf769;" horiz-adv-x="309" 
d="M40 0v65h73v357h-73v65h229v-65h-73v-357h73v-65h-229z" />
    <glyph glyph-name="J.smcp" unicode="&#xf76a;" horiz-adv-x="290" 
d="M103 12v410h-73v65h230v-65h-73v-412q0 -73 -51 -109q-41 -29 -91 -46l-25 58q83 41 83 99z" />
    <glyph glyph-name="K.smcp" unicode="&#xf76b;" horiz-adv-x="586" 
d="M333 423v64h225v-65h-63l-175 -173l166 -184h78v-65h-129l-211 241v2l182 180h-73zM40 0v65h73v357h-73v65h229v-65h-73v-357h73v-65h-229z" />
    <glyph glyph-name="L.smcp" unicode="&#xf76c;" horiz-adv-x="477" 
d="M40 0v65h73v357h-73v65h238v-65h-82v-356h183v83h77v-149h-416z" />
    <glyph glyph-name="M.smcp" unicode="&#xf76d;" horiz-adv-x="759" 
d="M39 0v65h68l12 359h-69v63h191l139 -341l140 341h190v-63h-68l11 -359h68v-65h-214v65h73l-12 347l-160 -377h-55l-160 377l-13 -347h74v-65h-215z" />
    <glyph glyph-name="N.smcp" unicode="&#xf76e;" horiz-adv-x="642" 
d="M40 0v65h73v357h-73v65h156l265 -363v298h-79v65h230v-65h-73v-422h-74l-274 372v-307h78v-65h-229z" />
    <glyph glyph-name="O.smcp" unicode="&#xf76f;" horiz-adv-x="599" 
d="M300 -10q-118 0 -190 70.5t-72 183t72 183t190 70.5t190 -71t72 -183t-72 -182.5t-190 -70.5zM172.5 108.5q49.5 -50.5 127 -50.5t127 50.5t49.5 134.5t-49 135t-127 51t-127.5 -51t-49.5 -135t49.5 -134.5z" />
    <glyph glyph-name="P.smcp" unicode="&#xf770;" horiz-adv-x="500" 
d="M40 0v65h73v357h-73v65h233q93 0 147.5 -43.5t54.5 -112.5t-54.5 -112.5t-147.5 -43.5h-77v-110h90v-65h-246zM196 422v-183h78q60 0 89 26t29 65.5t-29 65.5t-89 26h-78z" />
    <glyph glyph-name="Q.smcp" unicode="&#xf771;" horiz-adv-x="599" 
d="M106 64.5q-68 69.5 -68 180.5t72 181.5t190 70.5t190 -71t72 -183q0 -89 -46.5 -153t-128.5 -86l99 -56l-42 -64l-157 107q-113 4 -181 73.5zM172.5 108.5q49.5 -50.5 127 -50.5t127 50.5t49.5 134.5t-49 135t-127 51t-127.5 -51t-49.5 -135t49.5 -134.5z" />
    <glyph glyph-name="R.smcp" unicode="&#xf772;" horiz-adv-x="552" 
d="M40 0v65h73v357h-73v65h243q93 0 147.5 -43t54.5 -109q0 -46 -27.5 -82t-80.5 -50l78 -139h71v-64h-130l-99 181h-101v-116h73v-65h-229zM196 246h87q61 0 89.5 24.5t28.5 63.5t-29 63.5t-89 24.5h-87v-176z" />
    <glyph glyph-name="S.smcp" unicode="&#xf773;" horiz-adv-x="446" 
d="M355 23q-51 -33 -136 -33t-175 27v124h77v-73q43 -12 92 -12t80 16t31 49t-28 53t-67.5 32.5t-79.5 27.5t-68 47t-28 80q0 68 49 102t127 34t160 -24v-121h-76v72q-42 8 -83 8t-68.5 -17t-27.5 -47.5t28 -50t68 -32t80 -28.5t68 -48.5t28 -82.5q0 -70 -51 -103z" />
    <glyph glyph-name="T.smcp" unicode="&#xf774;" horiz-adv-x="505" 
d="M130 0v65h80v357h-110v-82h-76v147h457v-147h-76v82h-111v-357h81v-65h-245z" />
    <glyph glyph-name="U.smcp" unicode="&#xf775;" horiz-adv-x="600" 
d="M448.5 37.5q-53.5 -47.5 -144.5 -47.5t-148 43t-57 130v259h-72v65h229v-65h-74v-256q0 -56 33.5 -81.5t87.5 -25.5t87.5 26t33.5 81v256h-76v65h225v-65h-71v-252q0 -85 -53.5 -132.5z" />
    <glyph glyph-name="V.smcp" unicode="&#xf776;" horiz-adv-x="566" 
d="M2 422v65h236v-64h-83l130 -329l131 329h-83v64h231v-65h-66l-175 -422h-80l-175 422h-66z" />
    <glyph glyph-name="W.smcp" unicode="&#xf777;" horiz-adv-x="802" 
d="M4 422v65h227v-62h-77l106 -329l106 290l-15 39h-67v62h226v-62h-77l113 -328l106 327h-76v63h222v-65h-68l-145 -422h-79l-104 284l-107 -284h-79l-145 422h-67z" />
    <glyph glyph-name="X.smcp" unicode="&#xf778;" horiz-adv-x="560" 
d="M22 0v65h60l151 179l-143 178h-61v65h223v-62h-68l99 -124l101 124h-68v62h215v-65h-61l-144 -173l151 -185h59v-64h-225v63h69l-104 129l-106 -129h69v-63h-217z" />
    <glyph glyph-name="Y.smcp" unicode="&#xf779;" horiz-adv-x="544" 
d="M151 0v65h79v109l-160 248h-67v65h230v-63h-74l115 -177l115 177h-73v63h224v-65h-66l-161 -248v-109h79v-65h-241z" />
    <glyph glyph-name="Z.smcp" unicode="&#xf77a;" horiz-adv-x="494" 
d="M40 0v67l299 354h-213v-88h-78v154h393v-68l-299 -353h235v90h77v-156h-414z" />
    <glyph glyph-name="exclamdown.smcp" unicode="&#xf7a1;" horiz-adv-x="241" 
d="M151 351l14 -351h-89l13 351h62zM120 494q20 0 35 -14.5t15 -34.5t-15 -34.5t-35 -14.5t-35 14.5t-15 34.5t15 34.5t35 14.5z" />
    <glyph glyph-name="dieresis.smcp" unicode="&#xf7a8;" horiz-adv-x="372" 
d="M136.5 557.5q-14.5 -14.5 -35 -14.5t-35 14.5t-14.5 35t14.5 35t35 14.5t35 -14.5t14.5 -35t-14.5 -35zM303.5 557.5q-14.5 -14.5 -35 -14.5t-35 14.5t-14.5 35t14.5 35t35 14.5t35 -14.5t14.5 -35t-14.5 -35z" />
    <glyph glyph-name="macron.smcp" unicode="&#xf7af;" horiz-adv-x="368" 
d="M60 553v62h246v-62h-246z" />
    <glyph glyph-name="acute.smcp" unicode="&#xf7b4;" horiz-adv-x="300" 
d="M75 537l-27 33l146 145l54 -68z" />
    <glyph glyph-name="cedilla.smcp" unicode="&#xf7b8;" horiz-adv-x="267" 
d="M181.5 -173q-33.5 -19 -77 -19t-68.5 5l10 47q22 -5 45 -5q54 0 54 31q0 33 -69 33v18l46 88l41 -10l-26 -59q33 -2 55.5 -20.5t22.5 -54t-33.5 -54.5z" />
    <glyph glyph-name="questiondown.smcp" unicode="&#xf7bf;" horiz-adv-x="335" 
d="M303 5q-58 -15 -118.5 -15t-102 29.5t-41.5 85.5q0 54 42 98q17 18 35 34q42 39 42 74q0 8 -8 40h75q8 -16 8 -43t-17 -53.5t-37 -44t-37 -43.5t-17 -54q0 -62 80 -62q49 0 96 14v-60zM188 494q21 0 35.5 -14.5t14.5 -34.5t-14.5 -34.5t-35.5 -14.5t-35 14.5t-14 34.5
t14 34.5t35 14.5z" />
    <glyph glyph-name="Agrave.smcp" unicode="&#xf7e0;" 
d="M8 0v65h64l147 357h-68v65h193l172 -422h66v-65h-226v65h76l-36 88h-208l-36 -88h76v-65h-220zM213 218h158l-79 197zM336 537l-174 110l55 68l146 -145z" />
    <glyph glyph-name="Aacute.smcp" unicode="&#xf7e1;" 
d="M8 0v65h64l147 357h-68v65h193l172 -422h66v-65h-226v65h76l-36 88h-208l-36 -88h76v-65h-220zM213 218h158l-79 197zM219 537l-27 33l146 145l54 -68z" />
    <glyph glyph-name="Acircumflex.smcp" unicode="&#xf7e2;" 
d="M8 0v65h64l147 357h-68v65h193l172 -422h66v-65h-226v65h76l-36 88h-208l-36 -88h76v-65h-220zM213 218h158l-79 197zM147 537l-20 25l126 123h53l125 -123l-19 -25l-133 70z" />
    <glyph glyph-name="Atilde.smcp" unicode="&#xf7e3;" 
d="M8 0v65h64l147 357h-68v65h193l172 -422h66v-65h-226v65h76l-36 88h-208l-36 -88h76v-65h-220zM213 218h158l-79 197zM182 648q15 9 37 9t63.5 -22.5t62.5 -22.5q35 0 60 48l31 -17q-40 -100 -98 -100q-24 0 -66.5 22t-59.5 22q-35 0 -59 -46l-32 15q32 77 61 92z" />
    <glyph glyph-name="Adieresis.smcp" unicode="&#xf7e4;" 
d="M8 0v65h64l147 357h-68v65h193l172 -422h66v-65h-226v65h76l-36 88h-208l-36 -88h76v-65h-220zM213 218h158l-79 197zM231.5 557.5q-14.5 -14.5 -35.5 -14.5t-35.5 14.5t-14.5 35t14.5 35t35.5 14.5t35.5 -14.5t14.5 -35t-14.5 -35zM363 543q-21 0 -35.5 14.5t-14.5 35
t14.5 35t35.5 14.5t35.5 -14.5t14.5 -35t-14.5 -35t-35.5 -14.5z" />
    <glyph glyph-name="Aring.smcp" unicode="&#xf7e5;" 
d="M8 0v65h64l147 357h-68v65h193l172 -422h66v-65h-226v65h76l-36 88h-208l-36 -88h76v-65h-220zM213 218h158l-79 197zM282 535q-50 0 -78 27.5t-28 69.5t28 69.5t78 27.5t78 -27.5t28 -69.5t-28 -69.5t-78 -27.5zM282 581q22 0 34 14.5t12 36t-12 36.5t-33.5 15
t-33.5 -14.5t-12 -36.5t11.5 -36.5t33.5 -14.5z" />
    <glyph glyph-name="AE.smcp" unicode="&#xf7e6;" horiz-adv-x="799" 
d="M8 0v66h60l247 356h-58v65h493v-141h-77v76h-177v-144h191v-65h-191v-147h179v78h78v-144h-405v65h68v88h-198l-61 -88h62v-65h-211zM416 215v207h-14l-143 -207h157z" />
    <glyph glyph-name="Ccedilla.smcp" unicode="&#xf7e7;" horiz-adv-x="528" 
d="M354.5 -173q-33.5 -19 -77 -19t-68.5 5l10 47q22 -5 45 -5q54 0 54 31q0 33 -69 33v18l28 55q-109 8 -174 72.5t-65 179.5t75 184t195 69q94 0 181 -38v-132h-79v87q-44 15 -99 15q-84 0 -135.5 -48t-51.5 -135.5t52 -137t135 -49.5t179 47v-71q-69 -40 -165 -44l-15 -35
q33 -2 55.5 -20.5t22.5 -54t-33.5 -54.5z" />
    <glyph glyph-name="Egrave.smcp" unicode="&#xf7e8;" horiz-adv-x="506" 
d="M40 0v65h73v357h-73v65h416v-141h-76v76h-184v-144h197v-65h-197v-147h186v78h77v-144h-419zM314 537l-174 110l54 68l147 -145z" />
    <glyph glyph-name="Eacute.smcp" unicode="&#xf7e9;" horiz-adv-x="506" 
d="M40 0v65h73v357h-73v65h416v-141h-76v76h-184v-144h197v-65h-197v-147h186v78h77v-144h-419zM207 537l-27 33l146 145l55 -68z" />
    <glyph glyph-name="Ecircumflex.smcp" unicode="&#xf7ea;" horiz-adv-x="506" 
d="M40 0v65h73v357h-73v65h416v-141h-76v76h-184v-144h197v-65h-197v-147h186v78h77v-144h-419zM128 537l-19 25l125 123h53l125 -123l-18 -25l-134 70z" />
    <glyph glyph-name="Edieresis.smcp" unicode="&#xf7eb;" horiz-adv-x="506" 
d="M40 0v65h73v357h-73v65h416v-141h-76v76h-184v-144h197v-65h-197v-147h186v78h77v-144h-419zM212.5 557.5q-14.5 -14.5 -35 -14.5t-35 14.5t-14.5 35t14.5 35t35 14.5t35 -14.5t14.5 -35t-14.5 -35zM379.5 557.5q-14.5 -14.5 -35 -14.5t-35 14.5t-14.5 35t14.5 35
t35 14.5t35 -14.5t14.5 -35t-14.5 -35z" />
    <glyph glyph-name="Igrave.smcp" unicode="&#xf7ec;" horiz-adv-x="309" 
d="M40 0v65h73v357h-73v65h229v-65h-73v-357h73v-65h-229zM219 537l-174 110l54 68l147 -145z" />
    <glyph glyph-name="Iacute.smcp" unicode="&#xf7ed;" horiz-adv-x="309" 
d="M40 0v65h73v357h-73v65h229v-65h-73v-357h73v-65h-229zM98 537l-27 33l146 145l55 -68z" />
    <glyph glyph-name="Icircumflex.smcp" unicode="&#xf7ee;" horiz-adv-x="309" 
d="M40 0v65h73v357h-73v65h229v-65h-73v-357h73v-65h-229zM22 537l-19 25l125 123h53l125 -123l-18 -25l-134 70z" />
    <glyph glyph-name="Idieresis.smcp" unicode="&#xf7ef;" horiz-adv-x="309" 
d="M40 0v65h73v357h-73v65h229v-65h-73v-357h73v-65h-229zM71 543q-21 0 -35.5 14.5t-14.5 35t14.5 35t35.5 14.5t35.5 -14.5t14.5 -35t-14.5 -35t-35.5 -14.5zM238 543q-21 0 -35.5 14.5t-14.5 35t14.5 35t35.5 14.5t35.5 -14.5t14.5 -35t-14.5 -35t-35.5 -14.5z" />
    <glyph glyph-name="Eth.smcp" unicode="&#xf7f0;" horiz-adv-x="581" 
d="M47 215v61h66v146h-73v65h228q129 0 201.5 -65.5t72.5 -178t-72.5 -178t-201.5 -65.5h-228v65h73v150h-66zM197 66h72q90 0 138.5 46.5t48.5 130.5t-48.5 131.5t-138.5 47.5h-72v-146h128v-61h-128v-149z" />
    <glyph glyph-name="Ntilde.smcp" unicode="&#xf7f1;" horiz-adv-x="642" 
d="M40 0v65h73v357h-73v65h156l265 -363v298h-79v65h230v-65h-73v-422h-74l-274 372v-307h78v-65h-229zM226 648q15 9 37 9t63.5 -22.5t62.5 -22.5q35 0 60 48l31 -17q-40 -100 -98 -100q-24 0 -66.5 22t-59.5 22q-35 0 -59 -46l-32 15q32 77 61 92z" />
    <glyph glyph-name="Ograve.smcp" unicode="&#xf7f2;" horiz-adv-x="599" 
d="M300 -10q-118 0 -190 70.5t-72 183t72 183t190 70.5t190 -71t72 -183t-72 -182.5t-190 -70.5zM172.5 108.5q49.5 -50.5 127 -50.5t127 50.5t49.5 134.5t-49 135t-127 51t-127.5 -51t-49.5 -135t49.5 -134.5zM338 542l-174 110l55 67l146 -145z" />
    <glyph glyph-name="Oacute.smcp" unicode="&#xf7f3;" horiz-adv-x="599" 
d="M300 -10q-118 0 -190 70.5t-72 183t72 183t190 70.5t190 -71t72 -183t-72 -182.5t-190 -70.5zM172.5 108.5q49.5 -50.5 127 -50.5t127 50.5t49.5 134.5t-49 135t-127 51t-127.5 -51t-49.5 -135t49.5 -134.5zM253 542l-27 32l147 145l54 -67z" />
    <glyph glyph-name="Ocircumflex.smcp" unicode="&#xf7f4;" horiz-adv-x="599" 
d="M300 -10q-118 0 -190 70.5t-72 183t72 183t190 70.5t190 -71t72 -183t-72 -182.5t-190 -70.5zM172.5 108.5q49.5 -50.5 127 -50.5t127 50.5t49.5 134.5t-49 135t-127 51t-127.5 -51t-49.5 -135t49.5 -134.5zM168 542l-20 24l125 124h54l125 -124l-19 -24l-133 70z" />
    <glyph glyph-name="Otilde.smcp" unicode="&#xf7f5;" horiz-adv-x="599" 
d="M300 -10q-118 0 -190 70.5t-72 183t72 183t190 70.5t190 -71t72 -183t-72 -182.5t-190 -70.5zM172.5 108.5q49.5 -50.5 127 -50.5t127 50.5t49.5 134.5t-49 135t-127 51t-127.5 -51t-49.5 -135t49.5 -134.5zM200 652q15 9 37 9t63.5 -22.5t62.5 -22.5q35 0 60 49l31 -17
q-40 -100 -98 -100q-24 0 -66.5 22t-59.5 22q-35 0 -59 -47l-32 15q30 76 61 92z" />
    <glyph glyph-name="Odieresis.smcp" unicode="&#xf7f6;" horiz-adv-x="599" 
d="M300 -10q-118 0 -190 70.5t-72 183t72 183t190 70.5t190 -71t72 -183t-72 -182.5t-190 -70.5zM172.5 108.5q49.5 -50.5 127 -50.5t127 50.5t49.5 134.5t-49 135t-127 51t-127.5 -51t-49.5 -135t49.5 -134.5zM251.5 562q-14.5 -15 -35 -15t-35 15t-14.5 35.5t14.5 35
t35 14.5t35 -14.5t14.5 -35t-14.5 -35.5zM418.5 562q-14.5 -15 -35 -15t-35 15t-14.5 35.5t14.5 35t35 14.5t35 -14.5t14.5 -35t-14.5 -35.5z" />
    <glyph glyph-name="Oslash.smcp" unicode="&#xf7f8;" horiz-adv-x="598" 
d="M299 -10q-93 0 -160 45l-43 -48l-29 24l42 49q-72 69 -72 182.5t72 184t190 70.5q92 0 159 -46l44 49l29 -25l-44 -48q74 -71 74 -183.5t-72 -183t-190 -70.5zM408 394q-46 35 -116.5 35t-120 -51t-49.5 -130.5t41 -128.5zM190 92q45 -34 115.5 -34t120 50.5t49.5 130
t-41 128.5z" />
    <glyph glyph-name="Ugrave.smcp" unicode="&#xf7f9;" horiz-adv-x="600" 
d="M448.5 37.5q-53.5 -47.5 -144.5 -47.5t-148 43t-57 130v259h-72v65h229v-65h-74v-256q0 -56 33.5 -81.5t87.5 -25.5t87.5 26t33.5 81v256h-76v65h225v-65h-71v-252q0 -85 -53.5 -132.5zM342 537l-174 110l54 68l147 -145z" />
    <glyph glyph-name="Uacute.smcp" unicode="&#xf7fa;" horiz-adv-x="600" 
d="M448.5 37.5q-53.5 -47.5 -144.5 -47.5t-148 43t-57 130v259h-72v65h229v-65h-74v-256q0 -56 33.5 -81.5t87.5 -25.5t87.5 26t33.5 81v256h-76v65h225v-65h-71v-252q0 -85 -53.5 -132.5zM259 537l-27 33l146 145l55 -68z" />
    <glyph glyph-name="Ucircumflex.smcp" unicode="&#xf7fb;" horiz-adv-x="600" 
d="M448.5 37.5q-53.5 -47.5 -144.5 -47.5t-148 43t-57 130v259h-72v65h229v-65h-74v-256q0 -56 33.5 -81.5t87.5 -25.5t87.5 26t33.5 81v256h-76v65h225v-65h-71v-252q0 -85 -53.5 -132.5zM171 537l-19 25l125 123h53l126 -123l-19 -25l-134 70z" />
    <glyph glyph-name="Udieresis.smcp" unicode="&#xf7fc;" horiz-adv-x="600" 
d="M448.5 37.5q-53.5 -47.5 -144.5 -47.5t-148 43t-57 130v259h-72v65h229v-65h-74v-256q0 -56 33.5 -81.5t87.5 -25.5t87.5 26t33.5 81v256h-76v65h225v-65h-71v-252q0 -85 -53.5 -132.5zM219 543q-21 0 -35.5 14.5t-14.5 35t14.5 35t35.5 14.5t35.5 -14.5t14.5 -35
t-14.5 -35t-35.5 -14.5zM386 543q-21 0 -35.5 14.5t-14.5 35t14.5 35t35.5 14.5t35.5 -14.5t14.5 -35t-14.5 -35t-35.5 -14.5z" />
    <glyph glyph-name="Yacute.smcp" unicode="&#xf7fd;" horiz-adv-x="544" 
d="M151 0v65h79v109l-160 248h-67v65h230v-63h-74l115 -177l115 177h-73v63h224v-65h-66l-161 -248v-109h79v-65h-241zM221 537l-27 33l146 145l55 -68z" />
    <glyph glyph-name="Thorn.smcp" unicode="&#xf7fe;" horiz-adv-x="492" 
d="M42 0v65h68v357h-68v65h237v-65h-85v-36h82q91 0 140.5 -36.5t49.5 -103t-48.5 -104t-142.5 -37.5h-81v-40h85v-65h-237zM194 169h84q104 0 104 77q0 75 -104 75h-84v-152z" />
    <glyph glyph-name="Ydieresis.smcp" unicode="&#xf7ff;" horiz-adv-x="544" 
d="M151 0v65h79v109l-160 248h-67v65h230v-63h-74l115 -177l115 177h-73v63h224v-65h-66l-161 -248v-109h79v-65h-241zM225.5 557.5q-14.5 -14.5 -35 -14.5t-35 14.5t-14.5 35t14.5 35t35 14.5t35 -14.5t14.5 -35t-14.5 -35zM392.5 557.5q-14.5 -14.5 -35 -14.5t-35 14.5
t-14.5 35t14.5 35t35 14.5t35 -14.5t14.5 -35t-14.5 -35z" />
    <glyph glyph-name="s_t" unicode="&#xfb06;" horiz-adv-x="734" 
d="M330.5 23q-41.5 -34 -128 -34t-164.5 24v114h69v-61q46 -13 90 -13t68.5 14.5t24.5 40.5t-25.5 42t-61.5 26t-72 23t-61.5 41.5t-25.5 79.5t42.5 85t122.5 34q38 0 78 -8v27q0 63 35 99.5t110 36.5h153v-166h127v-69h-127v-239q0 -35 16.5 -49.5t51.5 -14.5t66 11v-64
q-47 -14 -91 -14q-128 0 -128 126v244h-75v69h75v106h-70q-42 0 -59 -20.5t-17 -66.5v-140h-71v60q-42 8 -72 8q-85 0 -85 -54q0 -46 87 -69q36 -9 72 -22t61.5 -42t25.5 -80t-41.5 -85z" />
    <glyph glyph-name="zero.lf" horiz-adv-x="536" 
d="M437 68q-53 -80 -168.5 -80t-168.5 80t-53 236t53 236.5t168 80.5t168.5 -80.5t53.5 -236.5t-53 -236zM166 115.5q31 -60.5 101.5 -60.5t101.5 60.5t31 188.5t-31 189t-101.5 61t-101.5 -61t-31 -189t31 -188.5z" />
    <glyph glyph-name="one.lf" horiz-adv-x="357" 
d="M50 0v66h105v470q-42 -36 -85 -36q-24 0 -33.5 12t-9.5 23t2 19l137 55h75v-543h89v-66h-280z" />
    <glyph glyph-name="two.lf" horiz-adv-x="512" 
d="M126.5 3.5q-13.5 -14.5 -39 -14.5t-39.5 16t-14 41.5t23 56.5t45.5 50.5t94 75t116 107.5t44.5 115q0 45 -27.5 74t-82 29t-96.5 -21q6 -12 6 -30t-15 -34t-41 -16t-41 16t-15 40q0 47 60.5 79.5t150 32.5t138.5 -48t49 -116t-37 -126.5t-80.5 -94.5t-104.5 -81t-83 -66
q11 1 34 1t78.5 -12t73.5 -12q75 0 77 100h76q-4 -176 -133 -176q-40 0 -104 22.5t-93 22.5h-5q-2 -17 -15.5 -31.5z" />
    <glyph glyph-name="three.lf" horiz-adv-x="501" 
d="M395.5 35.5q-62.5 -47.5 -147.5 -47.5t-147 30t-62 78q0 25 16 41t41 16t39.5 -15.5t14.5 -33.5t-6 -31q44 -19 98.5 -19t91 30t36.5 86.5t-41.5 84.5t-115.5 28h-41v64h40q66 0 103 28t37 78.5t-30.5 76t-83 25.5t-90.5 -19q7 -10 7 -29t-15 -34.5t-40 -15.5t-40 15.5
t-15 40.5q0 47 59 77.5t142.5 30.5t138 -42t54.5 -118q0 -51 -27.5 -87.5t-77.5 -53.5q59 -17 91.5 -56t32.5 -97q0 -84 -62.5 -131.5z" />
    <glyph glyph-name="four.lf" horiz-adv-x="502" 
d="M207 0v62h96v101h-287v59q74 85 125.5 193t63.5 204q13 3 27.5 3t26.5 -8q20 -13 20 -45q0 -60 -54.5 -166t-114.5 -175h196v83q25 41 47 104h34v-187h84v-65h-82v-101h80v-62h-262z" />
    <glyph glyph-name="five.lf" horiz-adv-x="508" 
d="M360 526l-192 12q-5 -114 -27 -192q57 43 136.5 43t136 -53.5t56.5 -146t-62 -147t-150.5 -54.5t-153 37t-64.5 85q0 24 15 39.5t39.5 15.5t39.5 -15.5t15 -33.5t-8 -31q41 -29 102 -29t100 33.5t39 97.5t-36 99t-93 35q-88 0 -137 -66l-59 28q41 152 44 326h340
q5 -18 5 -30q0 -53 -86 -53z" />
    <glyph glyph-name="six.lf" horiz-adv-x="521" 
d="M423 43.5q-58 -55.5 -159 -55.5t-160 72.5t-59 216.5q0 200 105 293q56 51 131 51t123 -32t48 -71q0 -22 -14 -38t-38 -16t-38.5 15t-14.5 32t6 27q-22 16 -68 16q-145 0 -157 -250q21 37 64 61.5t99 24.5q85 0 137.5 -54.5t52.5 -145.5t-58 -146.5zM171.5 94
q34.5 -39 94 -39t93 36t33.5 97t-32.5 100t-90.5 39t-95 -37t-37 -97t34.5 -99z" />
    <glyph glyph-name="seven.lf" horiz-adv-x="476" 
d="M277 -6q-15 -6 -39 -6t-38 15.5t-14 57.5q0 86 53 220t121 243q-23 -7 -43 -7t-69 14t-74 14q-78 0 -83 -94h-69v158h64v-57q22 63 86 63q33 0 84.5 -21t70.5 -21t30 4q4 19 18.5 30.5t36.5 11.5t36.5 -14.5t14.5 -36t-20 -51.5q-168 -273 -168 -480q0 -25 2 -43z" />
    <glyph glyph-name="eight.lf" horiz-adv-x="531" 
d="M265 -12q-105 0 -164 47t-59 127q0 62 35.5 102.5t95.5 56.5q-47 16 -77 51.5t-30 88.5q0 70 53.5 115t146 45t146 -45t53.5 -115q0 -53 -30.5 -89t-77.5 -51q60 -16 96 -56.5t36 -102.5q0 -80 -59.5 -127t-164.5 -47zM165 85.5q36 -32.5 100.5 -32.5t100 32.5t35.5 85.5
t-36 85t-99.5 32t-100 -32t-36.5 -85t36 -85.5zM265 556q-53 0 -84 -26.5t-31 -71.5t31.5 -74.5t83.5 -29.5t83.5 29.5t31.5 74.5t-31 71.5t-84 26.5z" />
    <glyph glyph-name="nine.lf" horiz-adv-x="525" 
d="M352 514q-33 40 -92.5 40t-94.5 -39.5t-35 -97t33.5 -95t91 -37.5t94 36.5t36.5 94.5t-33 98zM355.5 17q-46.5 -29 -112.5 -29t-124.5 31t-58.5 76q0 23 16 39t40 16t39 -16t15 -33t-7 -29q34 -18 79 -18q78 0 113.5 65.5t40.5 189.5q-22 -38 -65 -63t-99 -25
q-84 0 -137.5 54t-53.5 142.5t60 146t161 57.5t159 -72t58 -223q0 -132 -51 -230q-26 -50 -72.5 -79z" />
    <glyph glyph-name="a.alt" horiz-adv-x="529" 
d="M364 52q-56 -63 -141.5 -63t-137 63t-51.5 162t54 162t135.5 63t138.5 -53v42h81v-360h71v-68h-150v52zM153 101q31 -45 91.5 -45t113.5 49v219q-56 48 -112 48t-90 -41.5t-34 -113t31 -116.5z" />
    <glyph glyph-name="agrave.alt" horiz-adv-x="529" 
d="M364 52q-56 -63 -141.5 -63t-137 63t-51.5 162t54 162t135.5 63t138.5 -53v42h81v-360h71v-68h-150v52zM153 101q31 -45 91.5 -45t113.5 49v219q-56 48 -112 48t-90 -41.5t-34 -113t31 -116.5zM312 505l-186 119l57 72l157 -156z" />
    <glyph glyph-name="aacute.alt" horiz-adv-x="529" 
d="M364 52q-56 -63 -141.5 -63t-137 63t-51.5 162t54 162t135.5 63t138.5 -53v42h81v-360h71v-68h-150v52zM153 101q31 -45 91.5 -45t113.5 49v219q-56 48 -112 48t-90 -41.5t-34 -113t31 -116.5zM194 505l-28 35l157 156l57 -72z" />
    <glyph glyph-name="acircumflex.alt" horiz-adv-x="529" 
d="M364 52q-56 -63 -141.5 -63t-137 63t-51.5 162t54 162t135.5 63t138.5 -53v42h81v-360h71v-68h-150v52zM153 101q31 -45 91.5 -45t113.5 49v219q-56 48 -112 48t-90 -41.5t-34 -113t31 -116.5zM114 501l-20 27l134 133h55l135 -133l-20 -27l-142 78z" />
    <glyph glyph-name="atilde.alt" horiz-adv-x="529" 
d="M364 52q-56 -63 -141.5 -63t-137 63t-51.5 162t54 162t135.5 63t138.5 -53v42h81v-360h71v-68h-150v52zM153 101q31 -45 91.5 -45t113.5 49v219q-56 48 -112 48t-90 -41.5t-34 -113t31 -116.5zM146 624q17 9 40.5 9t68 -25.5t66.5 -25.5q38 0 65 53l33 -18
q-19 -47 -43 -77.5t-55.5 -30.5t-77.5 25.5t-65 25.5q-36 0 -62 -52l-34 17q31 79 64 99z" />
    <glyph glyph-name="adieresis.alt" horiz-adv-x="529" 
d="M364 52q-56 -63 -141.5 -63t-137 63t-51.5 162t54 162t135.5 63t138.5 -53v42h81v-360h71v-68h-150v52zM153 101q31 -45 91.5 -45t113.5 49v219q-56 48 -112 48t-90 -41.5t-34 -113t31 -116.5zM160 509q-22 0 -37 15.5t-15 37.5t15 37.5t37 15.5t37.5 -15.5t15.5 -37.5
t-15.5 -37.5t-37.5 -15.5zM342 509q-22 0 -37 15.5t-15 37.5t15 37.5t37 15.5t37.5 -15.5t15.5 -37.5t-15.5 -37.5t-37.5 -15.5z" />
    <glyph glyph-name="aring.alt" horiz-adv-x="529" 
d="M364 52q-56 -63 -141.5 -63t-137 63t-51.5 162t54 162t135.5 63t138.5 -53v42h81v-360h71v-68h-150v52zM153 101q31 -45 91.5 -45t113.5 49v219q-56 48 -112 48t-90 -41.5t-34 -113t31 -116.5zM251 500q-54 0 -85 31t-31 76.5t31 76.5t85 31t85 -31t31 -76.5t-31 -76.5
t-85 -31zM251 549q24 0 37.5 17t13.5 41.5t-13.5 41.5t-37.5 17t-37.5 -17t-13.5 -41.5t13.5 -41.5t37.5 -17z" />
    <glyph glyph-name="amacron.alt" horiz-adv-x="529" 
d="M364 52q-56 -63 -141.5 -63t-137 63t-51.5 162t54 162t135.5 63t138.5 -53v42h81v-360h71v-68h-150v52zM153 101q31 -45 91.5 -45t113.5 49v219q-56 48 -112 48t-90 -41.5t-34 -113t31 -116.5zM115 522v65h270v-65h-270z" />
    <glyph glyph-name="abreve.alt" horiz-adv-x="529" 
d="M364 52q-56 -63 -141.5 -63t-137 63t-51.5 162t54 162t135.5 63t138.5 -53v42h81v-360h71v-68h-150v52zM153 101q31 -45 91.5 -45t113.5 49v219q-56 48 -112 48t-90 -41.5t-34 -113t31 -116.5zM249 509q-62 0 -102 39t-44 104h64q9 -73 82.5 -73t82.5 73h63
q-4 -65 -44 -104t-102 -39z" />
    <glyph glyph-name="aogonek.alt" horiz-adv-x="529" 
d="M527 -182q-42 -18 -86.5 -18t-72 20.5t-27.5 60.5q0 66 79 119h-56v52q-56 -63 -141.5 -63t-137 63t-51.5 162t54 162t135.5 63t138.5 -53v42h81v-360h71v-68h-30q-67 -51 -67 -105q0 -41 46 -41q28 0 58 15zM153 101q31 -45 91.5 -45t113.5 49v219q-56 48 -112 48
t-90 -41.5t-34 -113t31 -116.5z" />
    <glyph glyph-name="g.alt" horiz-adv-x="530" 
d="M388 -170q-52 -40 -137.5 -40t-162.5 28v68q73 -29 145 -29q122 0 122 96v97q-59 -52 -137.5 -52t-130.5 60.5t-52 161t54.5 160t135 59.5t135.5 -49v38h150v-68h-70v-410q0 -80 -52 -120zM355 328q-46 44 -106 44t-93 -39.5t-33 -109.5t32 -114t90.5 -44t109.5 45v218z
" />
    <glyph glyph-name="gcircumflex.alt" horiz-adv-x="530" 
d="M388 -170q-52 -40 -137.5 -40t-162.5 28v68q73 -29 145 -29q122 0 122 96v97q-59 -52 -137.5 -52t-130.5 60.5t-52 161t54.5 160t135 59.5t135.5 -49v38h150v-68h-70v-410q0 -80 -52 -120zM355 328q-46 44 -106 44t-93 -39.5t-33 -109.5t32 -114t90.5 -44t109.5 45v218z
M112 501l-21 27l135 133h55l135 -133l-20 -27l-143 78z" />
    <glyph glyph-name="gbreve.alt" horiz-adv-x="530" 
d="M388 -170q-52 -40 -137.5 -40t-162.5 28v68q73 -29 145 -29q122 0 122 96v97q-59 -52 -137.5 -52t-130.5 60.5t-52 161t54.5 160t135 59.5t135.5 -49v38h150v-68h-70v-410q0 -80 -52 -120zM355 328q-46 44 -106 44t-93 -39.5t-33 -109.5t32 -114t90.5 -44t109.5 45v218z
M249 509q-62 0 -101.5 39t-43.5 104h63q9 -73 82.5 -73t82.5 73h63q-4 -65 -44 -104t-102 -39z" />
    <glyph glyph-name="gdotaccent.alt" horiz-adv-x="530" 
d="M388 -170q-52 -40 -137.5 -40t-162.5 28v68q73 -29 145 -29q122 0 122 96v97q-59 -52 -137.5 -52t-130.5 60.5t-52 161t54.5 160t135 59.5t135.5 -49v38h150v-68h-70v-410q0 -80 -52 -120zM355 328q-46 44 -106 44t-93 -39.5t-33 -109.5t32 -114t90.5 -44t109.5 45v218z
M289 526q-17 -17 -40.5 -17t-40 17t-16.5 40.5t16.5 40t40 16.5t40.5 -16.5t17 -40t-17 -40.5z" />
    <glyph glyph-name="uni0123.alt" horiz-adv-x="530" 
d="M300 521q-24 -18 -54 -18t-45.5 18.5t-15.5 51t24 72.5t63 72l38 -29q-46 -55 -46 -98.5t36 -61.5v-7zM388 -170q-52 -40 -137.5 -40t-162.5 28v68q73 -29 145 -29q122 0 122 96v97q-59 -52 -137.5 -52t-130.5 60.5t-52 161t54.5 160t135 59.5t135.5 -49v38h150v-68h-70
v-410q0 -80 -52 -120zM355 328q-46 44 -106 44t-93 -39.5t-33 -109.5t32 -114t90.5 -44t109.5 45v218z" />
    <glyph glyph-name="ampersand.alt" horiz-adv-x="541" 
d="M408.5 40.5q-56.5 -51.5 -153.5 -51.5t-156 45t-59 128q0 117 123 155q-103 42 -103 142q0 75 57.5 117t147.5 42t184 -29v-128h-77v78q-48 12 -96 12q-131 0 -131 -98q0 -50 36.5 -78.5t100.5 -28.5h237v-64h-54v-107q0 -83 -56.5 -134.5zM160 84.5q34 -27.5 95.5 -27.5
t95 33t33.5 85v107h-103q-72 0 -113.5 -29t-41.5 -85t34 -83.5z" />
    <glyph glyph-name="slash.cap" horiz-adv-x="536" 
d="M19 -149l417 905h80l-416 -905h-81z" />
    <glyph glyph-name="backslash.cap" horiz-adv-x="536" 
d="M435 -149l-415 905h80l416 -905h-81z" />
    <glyph glyph-name="bar.cap" horiz-adv-x="234" 
d="M78 -149v905h79v-905h-79z" />
    <glyph glyph-name="brokenbar.cap" horiz-adv-x="236" 
d="M79 392v364h79v-364h-79zM79 -149v400h79v-400h-79z" />
    <glyph glyph-name="bullet.cap" horiz-adv-x="357" 
d="M178 193q-46 0 -78.5 32.5t-32.5 78.5t32.5 78.5t78.5 32.5t79 -32.5t33 -78.5t-33 -78.5t-79 -32.5z" />
    <glyph glyph-name="parenleft.smcp" horiz-adv-x="261" 
d="M40 243q0 88 32.5 185t90.5 178h81q-61 -80 -94 -176.5t-33 -186.5t33 -186.5t94 -174.5h-81q-59 82 -91 177.5t-32 183.5z" />
    <glyph glyph-name="parenright.smcp" horiz-adv-x="261" 
d="M111 57q33 97 33 186.5t-33 186t-94 176.5h81q58 -81 90.5 -178t32.5 -185t-32 -183.5t-91 -177.5h-81q61 78 94 175z" />
    <glyph glyph-name="braceleft.smcp" horiz-adv-x="292" 
d="M201 -129q-52 0 -77.5 26.5t-25.5 65.5q0 20 12 77.5t12 90t-21.5 56.5t-75.5 28v56q54 4 75.5 28t21.5 56.5t-12 90.5t-12 78q0 38 25.5 64.5t77.5 26.5q26 0 56 -8v-47q-30 5 -41 5q-45 0 -45 -45q0 -18 12.5 -78t12.5 -91q0 -88 -84 -108q84 -19 84 -108
q0 -31 -12.5 -90.5t-12.5 -78.5q0 -45 45 -45q17 0 41 6v-48q-30 -8 -56 -8z" />
    <glyph glyph-name="braceright.smcp" horiz-adv-x="292" 
d="M91 -129q-27 0 -56 8v48q24 -6 40 -6q46 0 46 45q0 19 -13 78.5t-13 90.5q0 89 84 108q-84 20 -84 108q0 31 13 91t13 78q0 45 -46 45q-10 0 -40 -5v47q29 8 56 8q52 0 77.5 -26.5t25.5 -64.5q0 -20 -12.5 -78t-12.5 -84q0 -83 98 -91v-56q-98 -8 -98 -91q0 -26 12.5 -83
t12.5 -78q0 -39 -25.5 -65.5t-77.5 -26.5z" />
    <glyph glyph-name="bracketleft.smcp" horiz-adv-x="284" 
d="M84 -118v724h173v-55h-98v-616h98v-53h-173z" />
    <glyph glyph-name="bracketright.smcp" horiz-adv-x="284" 
d="M27 -118v53h98v616h-98v55h172v-724h-172z" />
    <glyph glyph-name="bar.smcp" horiz-adv-x="243" 
d="M84 -118v724h74v-724h-74z" />
    <glyph glyph-name="at.smcp" horiz-adv-x="630" 
d="M285 89q-54 0 -85 35.5t-31 95.5t43.5 108.5t110 48.5t92.5 -58h2q1 7 7.5 25t7.5 20h46q-32 -121 -32 -179.5t38 -58.5q32 0 54.5 34t22.5 92q0 98 -65.5 159.5t-167.5 61.5t-177 -68.5t-75 -169.5t71.5 -168t174.5 -67q78 0 140 41l21 -32q-78 -47 -162 -47
q-121 0 -202.5 79t-81.5 195.5t87 195.5t204.5 79t194.5 -73t77 -188q0 -77 -35.5 -119t-89.5 -42q-39 0 -56.5 19.5t-20.5 41.5h-3q-41 -61 -110 -61zM231 214q0 -77 71 -77q36 0 63.5 34.5t27.5 83.5q0 74 -64 74q-42 0 -70 -33.5t-28 -81.5z" />
    <glyph glyph-name="ampersand.alt.smcp" horiz-adv-x="473" 
d="M355.5 32.5q-47.5 -42.5 -130.5 -42.5t-133 37.5t-50 104.5q0 91 103 124q-84 32 -84 110q0 62 48 96.5t123 34.5t156 -24v-107h-72v61q-34 8 -71 8q-104 0 -104 -73q0 -39 29.5 -60t81.5 -21h194v-59h-43v-79q0 -68 -47.5 -110.5zM124 134q0 -81 101 -81q49 0 75 25.5
t26 64.5v79h-77q-125 0 -125 -88z" />
    <glyph glyph-name="uni021A.smcp" horiz-adv-x="505" 
d="M204 -75q26 17 51 17t39 -17.5t14 -46.5t-21.5 -64t-55.5 -63l-36 27q41 47 41 86t-32 53v8zM130 0v65h80v357h-110v-82h-76v147h457v-147h-76v82h-111v-357h81v-65h-245z" />
    <glyph glyph-name="T_h" horiz-adv-x="1069" 
d="M534 0v68h73v470h-271v-467h96v-71h-280v71h96v467h-148v-101h-80v172h591l15 98h66v-337q80 69 163 69q59 0 92.5 -35t33.5 -101v-235h73v-68h-231v68h73v226q0 76 -67 76q-63 0 -137 -62v-240h73v-68h-231z" />
    <glyph glyph-name="c_t" horiz-adv-x="788" 
d="M406 28q-67 -39 -160.5 -39t-152.5 59t-59 165.5t60.5 166t162.5 59.5q41 0 84 -10v29q0 136 145 136h152v-166h128v-69h-128v-239q0 -35 16.5 -49.5t52.5 -14.5t65 11v-64q-46 -14 -91 -14q-128 0 -128 126v244h-74v69h74v106h-70q-41 0 -58 -20.5t-17 -66.5v-171h-73
v86q-35 11 -70 11q-70 0 -106.5 -42t-36.5 -115.5t37.5 -116.5t105.5 -43t141 41v-69z" />
    </font>
</defs>
</svg>
