<svg id="Layer_1" data-name="Layer 1" xmlns="http://www.w3.org/2000/svg" viewBox="0 0 1280 700">
  <defs>
    <style>
      .cls-1 {
        fill: #ab4625;
      }

      .cls-2 {
        fill: #c55328;
      }

      .cls-3 {
        fill: #a04223;
      }

      .cls-4 {
        fill: #b94d27;
      }

      .cls-5 {
        fill: #b84c24;
      }
    </style>
  </defs>
  <title>videos-bg</title>
  <polygon class="cls-1" points="1280 700 0 700 640 350 1280 0 1280 700"/>
  <polygon class="cls-2" points="-10 -10 1300 -10 645 349 -10 708 -10 -10"/>
  <g>
    <path class="cls-3" d="M1121,464.2v62.2h.4l47.4-62.2h48.6l-60,71.4,65.4,79.4H1172l-50.6-65.4h-.4V615h-39.2V464.2Z"/>
    <rect class="cls-3" x="1059" y="633" width="181" height="27"/>
  </g>
  <path class="cls-3" d="M523,581.8q0,24-10.8,43.1a75.37,75.37,0,0,1-30,29.6A84.93,84.93,0,0,1,440.8,665q-24.6,0-44-10.7a75.56,75.56,0,0,1-30-29.5,82.43,82.43,0,0,1-10.6-41.2,79,79,0,0,1,9.7-38.4q9.7-17.8,29.7-29.4a86.14,86.14,0,0,1,44-11.6,87.81,87.81,0,0,1,41.3,10.1,79.28,79.28,0,0,1,30.7,28A72,72,0,0,1,523,581.8ZM439.6,627A39.7,39.7,0,0,0,470,613.8q12.2-13.2,12.2-31.8,0-15.6-12.6-27.7a42.07,42.07,0,0,0-30.2-12.1q-16.6,0-29.3,11.7T397,582q0,19.4,12.4,32.2A40.45,40.45,0,0,0,439.6,627Z"/>
  <path class="cls-4" d="M582-31.8q23.8,0,37.8,12.1t14,34.3q0,16.6-8.8,28.1T600.8,57.2L648.2,119H599.4l-37-58H562v58H522.8V-31.8ZM562,35.8h3.4q14.4,0,21-4.6T593,17q0-9.6-6.5-14.2T565.4-1.8H562Z"/>
  <g>
    <path class="cls-5" d="M-15.2,244.2,11,341.6h.4L43,244.2H74.2l29.6,97.4h.4l28.4-97.4h40.8L125.2,395h-40L58.8,307.6h-.4L28.8,395H-11L-56,244.2Z"/>
    <rect class="cls-4" x="-31" y="456" width="181" height="27"/>
  </g>
</svg>
