<svg id="Layer_1" data-name="Layer 1" xmlns="http://www.w3.org/2000/svg" viewBox="0 0 1356 782">
  <defs>
    <style>
      .cls-1 {
        fill: #ab4625;
      }

      .cls-2 {
        fill: none;
      }

      .cls-3 {
        fill: #c55328;
      }

      .cls-4 {
        fill: #a04223;
      }

      .cls-5 {
        fill: #b94d27;
      }

      .cls-6 {
        fill: #b84c24;
      }
    </style>
  </defs>
  <title>videos-bg</title>
  <polygon class="cls-1" points="1336 755 56 755 696 405 1336 55 1336 755"/>
  <polygon class="cls-2" points="56 45 56 355.71 46 318.53 46 45 56 45"/>
  <polygon class="cls-2" points="56 355.71 56 450 45 450 0 299.2 40.8 299.2 46 318.53 56 355.71"/>
  <polygon class="cls-2" points="56 450 56 538 25 538 25 511 46 511 46 450 56 450"/>
  <polygon class="cls-2" points="56 538 56 757.52 46 763 46 538 56 538"/>
  <polygon class="cls-3" points="1341.04 53.2 1336 55.96 701 404 60.6 755 56 757.52 56 53.2 1341.04 53.2"/>
  <g>
    <path class="cls-4" d="M1121,464.2v62.2h.4l47.4-62.2h48.6l-60,71.4,65.4,79.4H1172l-50.6-65.4h-.4V615h-39.2V464.2Z" transform="translate(56 55)"/>
    <rect class="cls-4" x="1115" y="688" width="181" height="27"/>
  </g>
  <path class="cls-4" d="M523,581.8q0,24-10.8,43.1a75.37,75.37,0,0,1-30,29.6A84.93,84.93,0,0,1,440.8,665q-24.6,0-44-10.7a75.56,75.56,0,0,1-30-29.5,82.43,82.43,0,0,1-10.6-41.2,79,79,0,0,1,9.7-38.4q9.7-17.8,29.7-29.4a86.14,86.14,0,0,1,44-11.6,87.81,87.81,0,0,1,41.3,10.1,79.28,79.28,0,0,1,30.7,28A72,72,0,0,1,523,581.8ZM439.6,627A39.7,39.7,0,0,0,470,613.8q12.2-13.2,12.2-31.8,0-15.6-12.6-27.7a42.07,42.07,0,0,0-30.2-12.1q-16.6,0-29.3,11.7T397,582q0,19.4,12.4,32.2A40.45,40.45,0,0,0,439.6,627Z" transform="translate(56 55)"/>
  <path class="cls-5" d="M600.8,57.2q15.41-3,24.2-14.5t8.8-28.1a54.65,54.65,0,0,0-2.32-16.4H565.4q14.59,0,21.1,4.6T593,17q0,9.6-6.6,14.2t-21,4.6H562V-1.8H522.8V119H562V61h.4l37,58h48.8Z" transform="translate(56 55)"/>
  <g>
    <path class="cls-6" d="M132.6,244.2l-28.4,97.4h-.4L74.2,244.2H43L11.4,341.6H11L0,300.71V395H28.8l29.6-87.4h.4L85.2,395h40l48.2-150.8Z" transform="translate(56 55)"/>
    <rect class="cls-5" x="56" y="511" width="150" height="27"/>
  </g>
  <line class="cls-2" x1="56" y1="782" x2="56" y2="757.52"/>
  <line class="cls-2" x1="56" y1="45" x2="56" y2="40"/>
  <polygon class="cls-2" points="1356 45 1341.04 53.2 1336 53.2 1336 45 1356 45"/>
  <line class="cls-2" x1="1356" y1="53.2" x2="1341.04" y2="53.2"/>
  <polyline class="cls-2" points="56 53.2 46 53.2 40.5 53.2"/>
  <line class="cls-2" x1="1336" y1="45" x2="1336"/>
  <polyline class="cls-2" points="1336 53.2 1336 55 1336 55.96 1336 85"/>
</svg>
