<svg id="Layer_1" data-name="Layer 1" xmlns="http://www.w3.org/2000/svg" viewBox="0 0 255.89 324.48"><defs><style>.cls-1{fill:#84827e;}.cls-2{fill:none;stroke:#84827e;stroke-width:9px;}.cls-2,.cls-3{stroke-miterlimit:10;}.cls-3{stroke:#f7f7d3;stroke-linecap:round;stroke-width:10px;}</style></defs><title>listen-first_icon</title><g id="listen-first"><path id="outer-ear" class="cls-1" d="M191.52,61.85C184,43.66,170.43,28,152.37,16.5,135.62,5.86,116.66,0,99,0,75.45,0,51.45,9.2,33.13,25.24,18.46,38.09.93,61,.48,97.5h10C10.92,64.8,26.6,44.25,39.72,32.76,56,18.51,78.15,10,99,10c29.19,0,68.31,19.52,83.32,55.69,7,16.9,7.79,35.2,2.31,54.38-6.41,22.42-21.27,45.44-44.17,68.41-17.82,17.88-21.78,44.93-22,64.48-0.51,54.33-36.53,58.93-47.55,59H69.73C32.53,312,11.9,293.57,10,258.7H0c1,20,7.54,35.76,19.51,46.71S48.46,322,69.73,322H71c27.46-.29,57-18.56,57.45-69,0.31-33.73,12.07-50.51,19-57.51,24.11-24.18,39.82-48.65,46.7-72.72C200.33,101.41,199.43,80.89,191.52,61.85Z"/><path id="inner-ear" class="cls-2" d="M135.47,131S163,71.93,112.31,53C62,34.19,40.45,79.26,41.58,96c2.26,33.22,46.27,50.54,54.6,82.14,5.08,19.26.12,75.16-34.31,79C28.11,261-7.69,173.08,94.52,173.08"/><line id="line-three" class="cls-3" x1="154.96" y1="274.91" x2="189.97" y2="319.48"/><line id="line-two" class="cls-3" x1="177.78" y1="239.65" x2="228.86" y2="265.8"/><line id="line-one" class="cls-3" x1="189.97" y1="199.71" x2="250.89" y2="199.71"/></g></svg>